<svg width="17" height="22" viewBox="0 0 17 22" fill="none" xmlns="http://www.w3.org/2000/svg">
<g clip-path="url(#clip0_190_1968)">
<path d="M9.54922 21.45C11.8203 18.6914 17 12.0055 17 8.25C17 3.69531 13.1927 0 8.5 0C3.80729 0 0 3.69531 0 8.25C0 12.0055 5.17969 18.6914 7.45078 21.45C7.99531 22.1074 9.00469 22.1074 9.54922 21.45ZM8.5 5.5C9.25145 5.5 9.97212 5.78973 10.5035 6.30546C11.0348 6.82118 11.3333 7.52065 11.3333 8.25C11.3333 8.97935 11.0348 9.67882 10.5035 10.1945C9.97212 10.7103 9.25145 11 8.5 11C7.74855 11 7.02788 10.7103 6.49653 10.1945C5.96518 9.67882 5.66667 8.97935 5.66667 8.25C5.66667 7.52065 5.96518 6.82118 6.49653 6.30546C7.02788 5.78973 7.74855 5.5 8.5 5.5Z" fill="white"/>
</g>
<defs>
<clipPath id="clip0_190_1968">
<rect width="17" height="22" fill="white"/>
</clipPath>
</defs>
</svg>
