<svg width="53" height="55" viewBox="0 0 53 55" fill="none" xmlns="http://www.w3.org/2000/svg">
<path d="M17.8833 51.3309H16.7363V6.14009C16.7363 5.98165 16.6067 5.85094 16.4496 5.85094H8.60934C8.44043 5.85094 8.30296 5.98958 8.30296 6.16386V51.3309H7.15599V6.16386C7.15599 5.35582 7.80803 4.69434 8.60934 4.69434H16.4496C17.2391 4.69434 17.8833 5.34394 17.8833 6.14009V51.3309Z" fill="black"/>
<path d="M20.3225 51.628H19.1755L19.3248 8.07306C19.3248 7.94235 19.262 7.81956 19.1559 7.7443L16.7166 5.98959L17.3844 5.04688L19.8237 6.80159C20.2322 7.0947 20.4718 7.57002 20.4718 8.07306L20.3225 51.624V51.628Z" fill="black"/>
<path d="M10.692 5.18374L7.70662 8.4314L8.10991 8.80838L11.0953 5.56073L10.692 5.18374Z" fill="black"/>
<path d="M13.2673 5.32352L7.6158 11.2788L8.0131 11.6622L13.6646 5.70692L13.2673 5.32352Z" fill="black"/>
<path d="M16.6188 5.51491L7.76262 13.9307L8.14245 14.3371L16.9986 5.92137L16.6188 5.51491Z" fill="black"/>
<path d="M16.899 8.70413L7.58891 17.0718L7.95742 17.4887L17.2675 9.12107L16.899 8.70413Z" fill="black"/>
<path d="M16.9968 12.1468L7.73016 19.8225L8.07921 20.251L17.3459 12.5753L16.9968 12.1468Z" fill="black"/>
<path d="M17.0136 15.6264L7.70029 22.4648L8.02398 22.9131L17.3373 16.0747L17.0136 15.6264Z" fill="black"/>
<path d="M17.0583 19.1732L7.74275 26.1091L8.06939 26.5552L17.385 19.6194L17.0583 19.1732Z" fill="black"/>
<path d="M17.2459 22.809L7.6165 29.3513L7.92377 29.8112L17.5532 23.2689L17.2459 22.809Z" fill="black"/>
<path d="M17.1999 26.0001L7.7551 32.5483L8.06888 33.0086L17.5137 26.4603L17.1999 26.0001Z" fill="black"/>
<path d="M17.2516 29.3509L7.75839 35.5986L8.05894 36.063L17.5522 29.8153L17.2516 29.3509Z" fill="black"/>
<path d="M17.2045 32.5489L7.71129 38.7966L8.01184 39.261L17.5051 33.0133L17.2045 32.5489Z" fill="black"/>
<path d="M16.9811 35.7961L7.66724 41.6946L7.9597 42.1642L17.2735 36.2657L16.9811 35.7961Z" fill="black"/>
<path d="M17.1685 38.7955L7.58247 44.5488L7.86372 45.0254L17.4498 39.272L17.1685 38.7955Z" fill="black"/>
<path d="M16.8965 41.5476L7.49307 47.1533L7.77292 47.6307L17.1763 42.025L16.8965 41.5476Z" fill="black"/>
<path d="M17.0817 44.8852L7.86223 50.1067L8.13151 50.5902L17.351 45.3687L17.0817 44.8852Z" fill="black"/>
<path d="M17.1701 47.9384L11.4302 51.1892L11.6995 51.6727L17.4394 48.4219L17.1701 47.9384Z" fill="black"/>
<path d="M22.2237 51.9212H21.0767V18.3083C21.0767 17.5319 21.7052 16.8982 22.475 16.8982H30.3899C31.1716 16.8982 31.8079 17.5399 31.8079 18.3281V51.3983H30.6609V18.3281C30.6609 18.1776 30.5392 18.0548 30.3899 18.0548H22.475C22.3376 18.0548 22.2237 18.1697 22.2237 18.3083V51.9212Z" fill="black"/>
<path d="M34.2472 51.5291H33.1002L33.2495 20.4829C33.2495 20.2255 33.1277 19.9839 32.9195 19.8373L30.5863 18.1935L31.2423 17.2468L33.5755 18.8906C34.094 19.255 34.4004 19.8531 34.3964 20.4869L34.2472 51.5291Z" fill="black"/>
<path d="M45.7286 51.5251H44.5816V26.0204C44.5816 25.6797 44.3067 25.4025 43.9689 25.4025H36.4782C36.2936 25.4025 36.1444 25.553 36.1444 25.7391V51.5291H34.9974V25.7391C34.9974 24.9153 35.6612 24.2458 36.4782 24.2458H43.9689C44.9391 24.2458 45.7286 25.042 45.7286 26.0204V51.5291V51.5251Z" fill="black"/>
<path d="M48.2307 51.5291H47.0838L47.1702 27.9098C47.1702 27.6088 47.0248 27.3355 46.7734 27.1731L44.5031 25.6877L45.1276 24.7173L47.398 26.2027C47.9754 26.5789 48.3171 27.2206 48.3132 27.9138L48.2268 51.5291H48.2307Z" fill="black"/>
<path d="M38.5343 24.7301L35.5489 27.9778L35.9522 28.3548L38.9376 25.1071L38.5343 24.7301Z" fill="black"/>
<path d="M41.1143 24.875L35.4628 30.8303L35.8601 31.2137L41.5116 25.2584L41.1143 24.875Z" fill="black"/>
<path d="M44.4656 25.0684L35.6095 33.4841L35.9893 33.8906L44.8454 25.4748L44.4656 25.0684Z" fill="black"/>
<path d="M44.7456 28.2559L35.4355 36.6235L35.804 37.0405L45.1141 28.6728L44.7456 28.2559Z" fill="black"/>
<path d="M44.8459 31.6968L35.5792 39.3726L35.9282 39.8011L45.1949 32.1254L44.8459 31.6968Z" fill="black"/>
<path d="M44.8599 35.1757L35.5466 42.0142L35.8703 42.4624L45.1836 35.624L44.8599 35.1757Z" fill="black"/>
<path d="M44.903 38.7255L35.5875 45.6614L35.9141 46.1075L45.2297 39.1716L44.903 38.7255Z" fill="black"/>
<path d="M45.0919 42.3586L35.4625 48.9009L35.7697 49.3608L45.3991 42.8185L45.0919 42.3586Z" fill="black"/>
<path d="M45.0406 45.5517L36.8536 51.2322L37.1653 51.689L45.3523 46.0086L45.0406 45.5517Z" fill="black"/>
<path d="M4.01362 2.58325H2.86665V51.5924H4.01362V2.58325Z" fill="black"/>
<path d="M49.8922 52.1034H0.576656C0.258491 52.1034 0.00317383 51.8459 0.00317383 51.5251C0.00317383 51.2042 0.258491 50.9468 0.576656 50.9468H49.8922C50.2104 50.9468 50.4657 51.2042 50.4657 51.5251C50.4657 51.8459 50.2104 52.1034 49.8922 52.1034Z" fill="black"/>
<path d="M50.1868 53.8778C49.8687 53.8778 49.6133 53.6204 49.6133 53.2995V49.6911C49.6133 49.3703 49.8687 49.1128 50.1868 49.1128C50.505 49.1128 50.7603 49.3703 50.7603 49.6911V53.2995C50.7603 53.6204 50.505 53.8778 50.1868 53.8778Z" fill="black"/>
<path d="M5.26271 3.14562H1.68434C1.36617 3.14562 1.11086 2.88816 1.11086 2.56732C1.11086 2.24648 1.36617 1.98901 1.68434 1.98901H5.26271C5.58088 1.98901 5.83619 2.24648 5.83619 2.56732C5.83619 2.88816 5.58088 3.14562 5.26271 3.14562Z" fill="black"/>
<path d="M4.7403 6.29454H2.20283C1.88467 6.29454 1.62935 6.03708 1.62935 5.71624C1.62935 5.3954 1.88467 5.13794 2.20283 5.13794H4.7403C5.05846 5.13794 5.31378 5.3954 5.31378 5.71624C5.31378 6.03708 5.05846 6.29454 4.7403 6.29454Z" fill="black"/>
<path d="M4.7403 10.0338H2.20283C1.88467 10.0338 1.62935 9.77634 1.62935 9.4555C1.62935 9.13466 1.88467 8.8772 2.20283 8.8772H4.7403C5.05846 8.8772 5.31378 9.13466 5.31378 9.4555C5.31378 9.77634 5.05846 10.0338 4.7403 10.0338Z" fill="black"/>
<path d="M4.7403 13.7728H2.20283C1.88467 13.7728 1.62935 13.5154 1.62935 13.1945C1.62935 12.8737 1.88467 12.6162 2.20283 12.6162H4.7403C5.05846 12.6162 5.31378 12.8737 5.31378 13.1945C5.31378 13.5154 5.05846 13.7728 4.7403 13.7728Z" fill="black"/>
<path d="M4.7403 17.5121H2.20283C1.88467 17.5121 1.62935 17.2546 1.62935 16.9338C1.62935 16.6129 1.88467 16.3555 2.20283 16.3555H4.7403C5.05846 16.3555 5.31378 16.6129 5.31378 16.9338C5.31378 17.2546 5.05846 17.5121 4.7403 17.5121Z" fill="black"/>
<path d="M4.7403 21.2511H2.20283C1.88467 21.2511 1.62935 20.9936 1.62935 20.6728C1.62935 20.3519 1.88467 20.0945 2.20283 20.0945H4.7403C5.05846 20.0945 5.31378 20.3519 5.31378 20.6728C5.31378 20.9936 5.05846 21.2511 4.7403 21.2511Z" fill="black"/>
<path d="M4.7403 24.9903H2.20283C1.88467 24.9903 1.62935 24.7329 1.62935 24.412C1.62935 24.0912 1.88467 23.8337 2.20283 23.8337H4.7403C5.05846 23.8337 5.31378 24.0912 5.31378 24.412C5.31378 24.7329 5.05846 24.9903 4.7403 24.9903Z" fill="black"/>
<path d="M4.7403 28.7335H2.20283C1.88467 28.7335 1.62935 28.476 1.62935 28.1552C1.62935 27.8344 1.88467 27.5769 2.20283 27.5769H4.7403C5.05846 27.5769 5.31378 27.8344 5.31378 28.1552C5.31378 28.476 5.05846 28.7335 4.7403 28.7335Z" fill="black"/>
<path d="M4.7403 32.4725H2.20283C1.88467 32.4725 1.62935 32.2151 1.62935 31.8942C1.62935 31.5734 1.88467 31.3159 2.20283 31.3159H4.7403C5.05846 31.3159 5.31378 31.5734 5.31378 31.8942C5.31378 32.2151 5.05846 32.4725 4.7403 32.4725Z" fill="black"/>
<path d="M4.7403 36.2118H2.20283C1.88467 36.2118 1.62935 35.9543 1.62935 35.6335C1.62935 35.3126 1.88467 35.0552 2.20283 35.0552H4.7403C5.05846 35.0552 5.31378 35.3126 5.31378 35.6335C5.31378 35.9543 5.05846 36.2118 4.7403 36.2118Z" fill="black"/>
<path d="M4.7403 39.951H2.20283C1.88467 39.951 1.62935 39.6936 1.62935 39.3727C1.62935 39.0519 1.88467 38.7944 2.20283 38.7944H4.7403C5.05846 38.7944 5.31378 39.0519 5.31378 39.3727C5.31378 39.6936 5.05846 39.951 4.7403 39.951Z" fill="black"/>
<path d="M4.7403 43.6901H2.20283C1.88467 43.6901 1.62935 43.4326 1.62935 43.1117C1.62935 42.7909 1.88467 42.5334 2.20283 42.5334H4.7403C5.05846 42.5334 5.31378 42.7909 5.31378 43.1117C5.31378 43.4326 5.05846 43.6901 4.7403 43.6901Z" fill="black"/>
<path d="M4.7403 47.4293H2.20283C1.88467 47.4293 1.62935 47.1718 1.62935 46.851C1.62935 46.5302 1.88467 46.2727 2.20283 46.2727H4.7403C5.05846 46.2727 5.31378 46.5302 5.31378 46.851C5.31378 47.1718 5.05846 47.4293 4.7403 47.4293Z" fill="black"/>
<path d="M47.94 54.7769C47.6219 54.7769 47.3665 54.5195 47.3665 54.1986V51.6398C47.3665 51.319 47.6219 51.0615 47.94 51.0615C48.2582 51.0615 48.5135 51.319 48.5135 51.6398V54.1986C48.5135 54.5195 48.2582 54.7769 47.94 54.7769Z" fill="black"/>
<path d="M44.2792 54.7769C43.961 54.7769 43.7057 54.5195 43.7057 54.1986V51.6398C43.7057 51.319 43.961 51.0615 44.2792 51.0615C44.5973 51.0615 44.8527 51.319 44.8527 51.6398V54.1986C44.8527 54.5195 44.5973 54.7769 44.2792 54.7769Z" fill="black"/>
<path d="M40.6183 54.7769C40.3001 54.7769 40.0448 54.5195 40.0448 54.1986V51.6398C40.0448 51.319 40.3001 51.0615 40.6183 51.0615C40.9365 51.0615 41.1918 51.319 41.1918 51.6398V54.1986C41.1918 54.5195 40.9365 54.7769 40.6183 54.7769Z" fill="black"/>
<path d="M36.9575 54.7769C36.6393 54.7769 36.384 54.5195 36.384 54.1986V51.6398C36.384 51.319 36.6393 51.0615 36.9575 51.0615C37.2756 51.0615 37.5309 51.319 37.5309 51.6398V54.1986C37.5309 54.5195 37.2756 54.7769 36.9575 54.7769Z" fill="black"/>
<path d="M33.2966 54.7769C32.9784 54.7769 32.7231 54.5195 32.7231 54.1986V51.6398C32.7231 51.319 32.9784 51.0615 33.2966 51.0615C33.6147 51.0615 33.87 51.319 33.87 51.6398V54.1986C33.87 54.5195 33.6147 54.7769 33.2966 54.7769Z" fill="black"/>
<path d="M29.6357 54.7769C29.3175 54.7769 29.0622 54.5195 29.0622 54.1986V51.6398C29.0622 51.319 29.3175 51.0615 29.6357 51.0615C29.9539 51.0615 30.2092 51.319 30.2092 51.6398V54.1986C30.2092 54.5195 29.9539 54.7769 29.6357 54.7769Z" fill="black"/>
<path d="M25.9748 54.7769C25.6567 54.7769 25.4014 54.5195 25.4014 54.1986V51.6398C25.4014 51.319 25.6567 51.0615 25.9748 51.0615C26.293 51.0615 26.5483 51.319 26.5483 51.6398V54.1986C26.5483 54.5195 26.293 54.7769 25.9748 54.7769Z" fill="black"/>
<path d="M22.314 54.7769C21.9958 54.7769 21.7405 54.5195 21.7405 54.1986V51.6398C21.7405 51.319 21.9958 51.0615 22.314 51.0615C22.6322 51.0615 22.8875 51.319 22.8875 51.6398V54.1986C22.8875 54.5195 22.6322 54.7769 22.314 54.7769Z" fill="black"/>
<path d="M18.6531 54.7769C18.335 54.7769 18.0797 54.5195 18.0797 54.1986V51.6398C18.0797 51.319 18.335 51.0615 18.6531 51.0615C18.9713 51.0615 19.2266 51.319 19.2266 51.6398V54.1986C19.2266 54.5195 18.9713 54.7769 18.6531 54.7769Z" fill="black"/>
<path d="M14.9923 54.7769C14.6741 54.7769 14.4188 54.5195 14.4188 54.1986V51.6398C14.4188 51.319 14.6741 51.0615 14.9923 51.0615C15.3104 51.0615 15.5658 51.319 15.5658 51.6398V54.1986C15.5658 54.5195 15.3104 54.7769 14.9923 54.7769Z" fill="black"/>
<path d="M11.3314 54.7769C11.0133 54.7769 10.7579 54.5195 10.7579 54.1986V51.6398C10.7579 51.319 11.0133 51.0615 11.3314 51.0615C11.6496 51.0615 11.9049 51.319 11.9049 51.6398V54.1986C11.9049 54.5195 11.6496 54.7769 11.3314 54.7769Z" fill="black"/>
<path d="M7.66662 54.7769C7.34846 54.7769 7.09314 54.5195 7.09314 54.1986V51.6398C7.09314 51.319 7.34846 51.0615 7.66662 51.0615C7.98479 51.0615 8.2401 51.319 8.2401 51.6398V54.1986C8.2401 54.5195 7.98479 54.7769 7.66662 54.7769Z" fill="black"/>
<path d="M44.9391 23.6714C44.8801 23.6714 44.8173 23.6635 44.7584 23.6437C44.4559 23.5447 44.2949 23.2159 44.3931 22.9149L46.2078 17.3814C46.306 17.0803 46.632 16.914 46.9305 17.013C47.233 17.112 47.394 17.4408 47.2958 17.7418L45.4811 23.2753C45.4026 23.5169 45.1787 23.6714 44.9351 23.6714H44.9391Z" fill="black"/>
<path d="M47.2683 24.7924C47.1269 24.7924 46.9855 24.7409 46.8755 24.634C46.6438 24.4161 46.6359 24.0478 46.852 23.818C47.834 22.7684 48.7413 21.6276 49.5465 20.4314C49.7233 20.166 50.0807 20.0987 50.3439 20.2769C50.6071 20.4552 50.6739 20.8156 50.4971 21.081C49.6565 22.3287 48.7099 23.517 47.6886 24.6102C47.5747 24.7291 47.4254 24.7924 47.2723 24.7924H47.2683Z" fill="black"/>
<path d="M49.3619 27.4105C49.1459 27.4105 48.9377 27.2837 48.8395 27.0738C48.706 26.7846 48.8317 26.44 49.1223 26.3054L52.1901 24.8834C52.4768 24.7487 52.8186 24.8755 52.9521 25.1686C53.0857 25.4577 52.96 25.8023 52.6693 25.937L49.6016 27.359C49.523 27.3946 49.4444 27.4105 49.3619 27.4105Z" fill="black"/>
<path d="M39.648 19.1559C39.6088 19.1559 39.5656 19.152 39.5263 19.144C39.2042 19.0767 38.9999 18.7598 39.0667 18.435C39.9151 14.3394 38.344 10.8814 35.1545 9.82781C32.0278 8.79796 28.6497 9.43567 26.7447 11.4201C26.5719 11.6023 26.3008 11.6538 26.0769 11.5508C25.8491 11.4479 25.7116 11.2102 25.7313 10.9607C25.9748 7.79979 24.0776 4.52406 21.1198 2.99513C18.1424 1.45431 14.1595 1.71177 11.4335 3.62096C11.1664 3.81109 10.7932 3.74375 10.6086 3.47044C10.4201 3.19714 10.4868 2.8248 10.7579 2.63864C13.8767 0.456139 18.2603 0.170949 21.6619 1.92962C24.6707 3.48629 26.6661 6.50851 26.9136 9.7169C29.1839 8.10875 32.4795 7.68492 35.5276 8.69101C39.2631 9.92287 41.1957 14.0304 40.2294 18.6806C40.1705 18.9618 39.923 19.1559 39.648 19.1559Z" fill="black"/>
</svg>
