<svg width="149" height="161" viewBox="0 0 149 161" fill="none" xmlns="http://www.w3.org/2000/svg">
<g clip-path="url(#clip0_329_287)">
<path d="M0.000169412 72.0434C6.36166 92.9229 10.6563 114.339 12.8345 135.938C34.5676 140.633 56.709 148.103 74.494 160.964C74.494 140.93 74.494 93.7453 74.494 93.7453C74.494 93.7453 62.4517 84.5048 46.449 79.2621C31.5601 74.3849 15.7925 71.6094 -0.012207 72.0434H0.000169412Z" fill="#080808"/>
<path d="M74.5065 91.6894C74.5065 91.6894 52.6745 70.9698 6.64647 69.3136L4.86426 62.3347C4.86426 62.3347 58.5904 65.293 74.5065 91.6894Z" fill="#080808"/>
<path d="M74.5063 88.0114C74.5063 88.0114 56.7832 63.6938 11.2132 59.4563L9.76514 52.7629C9.76514 52.7629 53.2807 56.5551 74.5187 88.0114H74.5063Z" fill="#080808"/>
<path d="M149 72.0434C142.639 92.9229 138.344 114.339 136.166 135.938C114.433 140.633 92.2913 148.103 74.5063 160.964C74.5063 140.93 74.5063 93.7453 74.5063 93.7453C74.5063 93.7453 86.5486 84.5048 102.551 79.2621C117.44 74.3849 133.208 71.6094 149.013 72.0434H149Z" fill="#080808"/>
<path d="M74.5063 91.6894C74.5063 91.6894 96.3384 70.9698 142.366 69.3136L144.149 62.3347C144.149 62.3347 90.4225 65.293 74.5063 91.6894Z" fill="#080808"/>
<path d="M74.5065 88.0114C74.5065 88.0114 92.2296 63.6938 137.8 59.4563L139.248 52.7629C139.248 52.7629 95.7321 56.5551 74.4941 88.0114H74.5065Z" fill="#080808"/>
<path d="M58.1568 53.528C54.7904 53.528 52.0552 51.0037 52.0552 47.8969C52.0552 44.7901 54.7904 42.2659 58.1568 42.2659C61.5232 42.2659 64.2583 44.7901 64.2583 47.8969C64.2583 51.0037 61.5232 53.528 58.1568 53.528ZM58.1568 43.8078C55.7186 43.8078 53.726 45.6468 53.726 47.8969C53.726 50.1471 55.7186 51.986 58.1568 51.986C60.5949 51.986 62.5875 50.1471 62.5875 47.8969C62.5875 45.6468 60.5949 43.8078 58.1568 43.8078Z" fill="#080808"/>
<path d="M108.764 48.6738C104.383 48.6738 100.831 45.3843 100.831 41.3523C100.831 37.3203 104.395 34.0308 108.764 34.0308C113.133 34.0308 116.698 37.3203 116.698 41.3523C116.698 45.3843 113.133 48.6738 108.764 48.6738ZM108.764 35.5613C105.311 35.5613 102.502 38.1541 102.502 41.3409C102.502 44.5276 105.311 47.1204 108.764 47.1204C112.217 47.1204 115.027 44.5276 115.027 41.3409C115.027 38.1541 112.217 35.5613 108.764 35.5613Z" fill="#080808"/>
<path d="M30.6812 47.246C28.9485 47.246 27.5376 45.9439 27.5376 44.3448C27.5376 42.7457 28.9485 41.4436 30.6812 41.4436C32.4139 41.4436 33.8248 42.7457 33.8248 44.3448C33.8248 45.9439 32.4139 47.246 30.6812 47.246ZM30.6812 42.997C29.8644 42.997 29.2084 43.6024 29.2084 44.3562C29.2084 45.1101 29.8644 45.7154 30.6812 45.7154C31.4981 45.7154 32.154 45.1101 32.154 44.3562C32.154 43.6024 31.4981 42.997 30.6812 42.997Z" fill="#080808"/>
<path d="M88.6646 25.8297L85.4839 24.5733C85.026 24.3905 84.7042 24.025 84.6052 23.5796L83.9244 20.4499C83.6769 19.3306 82.1422 18.9536 81.3254 19.8103L79.0481 22.2089C78.7263 22.5516 78.2313 22.7229 77.7486 22.6772L74.308 22.3117C73.0703 22.1746 72.2163 23.4082 72.8475 24.3905L74.6174 27.1318C74.8649 27.5202 74.902 27.9999 74.6916 28.4111L73.2436 31.3123C72.7238 32.3517 73.7263 33.4939 74.9392 33.2312L78.3179 32.523C78.8006 32.4202 79.308 32.5459 79.667 32.8543L82.2165 35.013C83.1324 35.7897 84.6052 35.2643 84.7289 34.1221L85.0383 30.9468C85.0878 30.4899 85.3601 30.0901 85.7933 29.8617L88.8131 28.2969C89.8899 27.7372 89.8033 26.2752 88.6646 25.8183V25.8297Z" fill="#080808"/>
<path d="M49.518 3.49967L44.5798 4.82463C43.8743 5.01881 43.1194 4.87032 42.5501 4.43628L38.5648 1.43228C37.1292 0.358611 34.988 1.24953 34.9262 2.96284L34.7653 7.71441C34.7405 8.38831 34.3568 9.01652 33.738 9.38203L29.4063 11.952C27.8468 12.8772 28.1191 15.0359 29.8518 15.6185L34.691 17.229C35.3841 17.4574 35.9039 17.9828 36.0895 18.6453L37.4015 23.237C37.8718 24.8817 40.1862 25.3272 41.3124 23.9794L44.4684 20.2215C44.914 19.6847 45.6194 19.3877 46.362 19.4334L51.4982 19.7076C53.3423 19.8104 54.5057 17.9143 53.4661 16.498L50.57 12.5688C50.1616 12.0091 50.0749 11.3009 50.3348 10.6727L52.2037 6.24096C52.872 4.6533 51.2754 3.04279 49.5056 3.52252L49.518 3.49967Z" fill="#080808"/>
<path d="M77.4519 62.9398L74.89 63.4081C74.5311 63.4766 74.1474 63.3738 73.8875 63.1339L72.0187 61.4549C71.3504 60.8495 70.2241 61.215 70.1127 62.0717L69.8033 64.4589C69.7538 64.8016 69.531 65.0985 69.2092 65.2584L66.8948 66.3778C66.0656 66.7776 66.0904 67.8855 66.9443 68.251L69.3082 69.2676C69.6424 69.4161 69.8899 69.7016 69.9518 70.0329L70.385 72.4086C70.5459 73.2653 71.6845 73.5737 72.3281 72.9455L74.0979 71.1865C74.3455 70.9352 74.7167 70.8096 75.088 70.8667L77.6623 71.2208C78.5906 71.3464 79.2713 70.4326 78.8134 69.6788L77.5386 67.5771C77.3529 67.2801 77.3529 66.9146 77.5138 66.6063L78.6648 64.4475C79.0856 63.6708 78.3554 62.7913 77.4396 62.9626L77.4519 62.9398Z" fill="#080808"/>
<path d="M141.129 24.7218L137.8 22.8143C137.329 22.5402 137.032 22.0719 136.995 21.5579L136.809 17.9485C136.748 16.6464 135.101 15.9839 134.025 16.8292L131.03 19.1593C130.596 19.4905 130.027 19.6047 129.483 19.4677L125.708 18.5082C124.346 18.1656 123.158 19.4106 123.69 20.6099L125.163 23.9565C125.374 24.4363 125.312 24.9731 125.015 25.4071L122.861 28.434C122.094 29.5191 122.997 30.9468 124.396 30.8555L128.307 30.5927C128.864 30.5585 129.408 30.7755 129.755 31.1753L132.205 33.9965C133.084 35.0131 134.842 34.659 135.176 33.3911L136.116 29.8846C136.252 29.382 136.649 28.9822 137.168 28.7995L140.832 27.5202C142.144 27.0633 142.329 25.4071 141.129 24.7218Z" fill="#080808"/>
<path d="M89.5685 45.7611C89.5685 46.5378 88.8878 47.166 88.0462 47.166C87.2046 47.166 86.5239 46.5378 86.5239 45.7611C86.5239 44.9844 87.2046 44.3562 88.0462 44.3562C88.8878 44.3562 89.5685 44.9844 89.5685 45.7611Z" fill="#080808"/>
<path d="M20.0871 23.351C20.0871 24.1277 19.4064 24.7559 18.5648 24.7559C17.7232 24.7559 17.0425 24.1277 17.0425 23.351C17.0425 22.5743 17.7232 21.946 18.5648 21.946C19.4064 21.946 20.0871 22.5743 20.0871 23.351Z" fill="#080808"/>
<path d="M110.373 19.3306C112.102 19.3306 113.504 18.0368 113.504 16.4408C113.504 14.8448 112.102 13.551 110.373 13.551C108.644 13.551 107.242 14.8448 107.242 16.4408C107.242 18.0368 108.644 19.3306 110.373 19.3306Z" fill="#080808"/>
<path d="M52.1792 31.3808C53.5189 31.3808 54.605 30.3785 54.605 29.142C54.605 27.9056 53.5189 26.9033 52.1792 26.9033C50.8395 26.9033 49.7534 27.9056 49.7534 29.142C49.7534 30.3785 50.8395 31.3808 52.1792 31.3808Z" fill="#080808"/>
</g>
<defs>
<clipPath id="clip0_329_287">
<rect width="149" height="160" fill="white" transform="translate(0 0.963867)"/>
</clipPath>
</defs>
</svg>
