<svg width="129" height="90" viewBox="0 0 129 90" fill="none" xmlns="http://www.w3.org/2000/svg">
<g clip-path="url(#clip0_203_2355)">
<path fill-rule="evenodd" clip-rule="evenodd" d="M112.093 11.995H30.3828V20.1203H108.625V77.5446H116.713V16.6363C116.713 14.073 114.645 11.995 112.093 11.995ZM34.4949 30.1369C33.9004 30.1369 33.4173 29.664 33.4173 29.0668C33.4173 28.4695 33.888 27.9967 34.4949 27.9967H48.8255L45.2212 24.3758C45.1345 24.2887 45.0602 24.1891 45.0106 24.0771C44.8124 23.679 44.8868 23.1813 45.2212 22.8577C45.6423 22.4347 46.3111 22.4347 46.7323 22.8577L52.1326 28.2829C52.3431 28.482 52.4546 28.7681 52.4546 29.0543C52.4546 29.3405 52.3431 29.6392 52.1326 29.8258L46.7323 35.2509C46.3111 35.674 45.6423 35.674 45.2212 35.2509C44.8868 34.9274 44.8124 34.4297 45.0106 34.0315C45.0602 33.9195 45.1345 33.82 45.2212 33.7329L48.8255 30.112H34.4949V30.1369ZM49.6801 38.8843C50.2747 38.8843 50.7577 39.3696 50.7577 39.9668C50.7577 40.5641 50.287 41.0369 49.6801 41.0369H35.3496L38.9539 44.6578C39.0406 44.7449 39.1149 44.8569 39.1768 44.9689C39.3502 45.3671 39.2883 45.8399 38.9539 46.1759C38.5328 46.5989 37.8639 46.5989 37.4428 46.1759L32.0425 40.7507C31.8319 40.5516 31.7081 40.2779 31.7081 39.9793C31.7081 39.6806 31.8319 39.3944 32.0425 39.2078L37.4428 33.7827C37.8639 33.3596 38.5328 33.3596 38.9539 33.7827C39.2759 34.1062 39.3502 34.6039 39.1768 34.9896C39.1149 35.1141 39.053 35.2136 38.9539 35.3007L35.3496 38.9216H49.6801V38.8843ZM5.264 35.3754H27.3606V6.47034H5.264V35.3878V35.3754ZM8.4472 17.6068L9.0665 16.5243L25.0692 25.8192L24.4499 26.8893L8.4472 17.6068ZM14.3182 16.1634L14.9375 15.0809L23.3847 19.9834L22.7654 21.0659L14.3182 16.1634ZM10.1317 23.4426L10.751 22.36L19.1858 27.2625L18.5665 28.3451L10.1193 23.4426H10.1317ZM4.01302 40.2655C4.01302 41.5471 5.06583 42.6047 6.34158 42.6047H26.2706C27.5588 42.6047 28.6116 41.5471 28.6116 40.2655V36.6321V2.35172C28.6116 1.05765 27.5588 0 26.2706 0H6.34158C5.06583 0 4.01302 1.05765 4.01302 2.35172V5.99751V40.2655ZM18.3684 3.6209H14.2562V2.36416H18.3684V3.6209ZM13.3768 3.6209H11.8657V2.36416H13.3768V3.6209ZM20.7589 3.6209H19.2354V2.36416H20.7589V3.6209ZM16.3123 37.5404C17.2289 37.5404 17.972 38.287 17.972 39.2078C17.972 40.1286 17.2289 40.8752 16.3123 40.8752C15.3957 40.8752 14.6526 40.1286 14.6526 39.2078C14.6526 38.287 15.3957 37.5404 16.3123 37.5404ZM12.2992 44.3716V77.5446H20.3873V44.3716H12.2992ZM54.362 77.5819H0.0618911C-0.0124247 79.8092 -0.0248107 82.0614 0.111435 82.7831C0.222909 83.3679 0.99084 88.3824 1.74638 89.9876H127.266C128.034 88.37 128.777 83.3803 128.901 82.7831C129.037 82.0614 129.025 79.8217 128.95 77.5819H74.6503V79.5977C74.6503 80.8171 73.9814 81.8001 73.1516 81.8001H55.8484C55.0309 81.8001 54.362 80.8171 54.362 79.5977V77.5819ZM47.2649 38.1626L48.0328 36.8187L50.349 38.1626H47.2525H47.2649ZM51.4761 38.7972L88.9809 60.5599L87.4822 63.1605L50.5348 41.7337H51.4637V38.7972H51.4761ZM61.7565 35.3754L63.2552 32.7623L84.8439 45.28L83.3452 47.893L61.7565 35.3629V35.3754ZM50.671 54.6744L52.1697 52.0614L73.7585 64.579L72.2598 67.192L50.671 54.6744Z" fill="#1C1C1C"/>
</g>
<defs>
<clipPath id="clip0_203_2355">
<rect width="129" height="90" fill="white"/>
</clipPath>
</defs>
</svg>
