<?xml version="1.0" encoding="utf-8"?>
<!-- Generator: Adobe Illustrator 27.4.0, SVG Export Plug-In . SVG Version: 6.00 Build 0)  -->
<svg version="1.1" id="Layer_1" xmlns="http://www.w3.org/2000/svg" xmlns:xlink="http://www.w3.org/1999/xlink" x="0px" y="0px"
	 viewBox="0 0 112 93" style="enable-background:new 0 0 112 93;" xml:space="preserve">
<style type="text/css">
	.st0{clip-path:url(#SVGID_00000005963714255271374690000002271085524265737891_);}
	.st1{fill:#1C1C1C;}
</style>
<g>
	<defs>
		<rect id="SVGID_1_" y="0" width="112" height="93"/>
	</defs>
	<clipPath id="SVGID_00000106113779042112884570000006544158851596272558_">
		<use xlink:href="#SVGID_1_"  style="overflow:visible;"/>
	</clipPath>
	<g style="clip-path:url(#SVGID_00000106113779042112884570000006544158851596272558_);">
		<path class="st1" d="M20.2,6.5C9,6.5,0,15.5,0,26.7c0,11.1,9,20.2,20.2,20.2s20.2-9,20.2-20.2C40.4,15.5,31.4,6.5,20.2,6.5z
			 M20.2,33.3c-3.7,0-6.6-3-6.6-6.6s3-6.6,6.6-6.6s6.6,3,6.6,6.6C26.8,30.3,23.9,33.3,20.2,33.3z"/>
		<path class="st1" d="M60.1,0c-13,0-23.5,10.5-23.5,23.4s10.5,23.4,23.5,23.4s23.5-10.5,23.5-23.4S73.1,0,60.1,0z M60.1,31.1
			c-4.3,0-7.7-3.4-7.7-7.7c0-4.2,3.4-7.7,7.7-7.7c4.3,0,7.7,3.4,7.7,7.7C67.8,27.6,64.4,31.1,60.1,31.1z"/>
		<path class="st1" d="M79,39.7L79,39.7H6.7c-3,0-5.5,2.4-5.5,5.5v36.5c0,3,2.5,5.5,5.5,5.5h26.7v-8.8c0-1.8,1.5-3.3,3.3-3.3H49
			c1.8,0,3.3,1.5,3.3,3.3v8.8H79c3,0,5.5-2.4,5.5-5.5V45.2C84.4,42.2,82,39.7,79,39.7z M24.8,78.4H9.2V69h15.6V78.4z M24.8,64.9H9.2
			v-4.2h15.6V64.9z M77,53.3H9.2v-4.2H77V53.3z"/>
		<path class="st1" d="M47.7,76.1H38c-2,0-3.6,1.6-3.6,3.6v9.7c0,2,1.6,3.6,3.6,3.6h9.7c2,0,3.6-1.6,3.6-3.6v-9.7
			C51.3,77.7,49.7,76.1,47.7,76.1z"/>
		<path class="st1" d="M90.5,48.2h-4.1v30.6h4.1V48.2z"/>
		<path class="st1" d="M92.5,48.2v30.6l17.2,9.8c1,0.6,2.4-0.2,2.4-1.4V39.7c0-1.2-1.3-2-2.4-1.4L92.5,48.2z"/>
	</g>
</g>
</svg>
