<svg width="150" height="101" viewBox="0 0 150 101" fill="none" xmlns="http://www.w3.org/2000/svg">
<g clip-path="url(#clip0_203_2361)">
<path fill-rule="evenodd" clip-rule="evenodd" d="M111.468 42.6494C122.707 18.3284 176.754 45.6395 131.951 45.627V56.9493C177.946 56.9493 122.857 84.6483 111.468 59.9269H38.0551C26.8167 84.2605 -27.2179 56.9368 17.5726 56.9493V45.6395C7.01155 45.6395 -7.60088 48.9674 4.69112 36.7193C14.6501 26.7732 32.1349 29.7883 38.0677 42.662H111.481L111.468 42.6494ZM48.6162 83.8601H101.384V62.2789H104.369V86.8252V95.4327C104.369 98.4853 101.873 100.987 98.8002 100.987H51.2251C48.1647 100.987 45.6435 98.4978 45.6435 95.4327V62.2789H48.6162V83.8727V83.8601ZM101.384 40.2974V15.3258H48.6162V40.2974H45.6435V14.1998V5.55481C45.6435 2.50217 48.1521 0 51.2251 0H98.8002C101.861 0 104.369 2.50217 104.369 5.55481V40.2974H101.384ZM79.8981 8.58243H70.1021V5.61737H79.8981V8.58243ZM68.0075 8.58243H64.3951V5.61737H68.0075V8.58243ZM85.6051 8.58243H82.0053V5.61737H85.6051V8.58243ZM74.9938 89.0271C77.1888 89.0271 78.9574 90.7911 78.9574 92.968C78.9574 95.1449 77.1888 96.9089 74.9938 96.9089C72.7988 96.9089 71.0428 95.1449 71.0428 92.968C71.0428 90.7911 72.8114 89.0271 74.9938 89.0271Z" fill="#1C1C1C"/>
</g>
<defs>
<clipPath id="clip0_203_2361">
<rect width="150" height="101" fill="white"/>
</clipPath>
</defs>
</svg>
