<svg width="120" height="100" viewBox="0 0 120 100" fill="none" xmlns="http://www.w3.org/2000/svg">
<g clip-path="url(#clip0_203_2367)">
<path d="M82.0232 98.9231H37.9659C37.4932 98.9231 37.1064 98.5353 37.1064 98.0614C37.1064 97.5875 37.4932 97.1997 37.9659 97.1997H82.0232C82.4959 97.1997 82.8826 97.5875 82.8826 98.0614C82.8826 98.5353 82.4959 98.9231 82.0232 98.9231Z" fill="#1C1C1C"/>
<path d="M82.0233 100H37.966C36.9024 100 36.0322 99.1277 36.0322 98.0614C36.0322 96.995 36.9024 96.1226 37.966 96.1226H82.0233C83.0976 96.1226 83.957 96.995 83.957 98.0614C83.957 99.1277 83.0868 100 82.0233 100Z" fill="#1C1C1C"/>
<path d="M103.778 8.04621H86.2668V11.87C85.7189 11.1806 84.838 10.0604 83.3769 8.21855V8.04621H83.2373C83.0761 7.83079 82.9042 7.62614 82.7216 7.39994C82.0985 6.61364 81.0886 5.39649 79.026 2.90834C78.231 1.9497 77.7798 1.41114 77.3178 1.09878L77.2963 0.775641L76.2757 0.732556C76.2757 0.732556 76.2005 0.732556 76.1683 0.732556C76.1468 0.732556 76.1253 0.732556 76.1039 0.732556C76.0716 0.732556 76.0501 0.732556 76.0179 0.732556C75.9642 0.732556 75.9105 0.732556 75.8675 0.732556L74.8254 0.764869V1.14186C74.3742 1.465 73.923 2.01433 73.1173 2.98374C71.1191 5.39649 70.1092 6.60287 69.4861 7.38917C69.3035 7.61537 69.1423 7.83079 68.9705 8.03544H68.7663V8.29395C65.5434 12.3655 65.1352 12.8717 65.0922 12.9256C64.5228 13.6149 63.8245 14.4659 63.2874 15.8015C63.1907 16.0492 63.1047 16.2862 63.0403 16.5232H62.9221L62.7932 17.471C62.7932 17.5033 62.7932 17.5357 62.7932 17.568C62.6321 18.462 62.6213 19.216 62.6106 19.7114V20.8209H62.6535C62.6643 21.8118 62.7073 22.9428 62.7502 24.3108L62.8254 26.5189C62.8684 27.9191 62.8899 29.3086 62.9114 30.7089V30.8489C62.9329 32.3784 62.9543 33.9187 63.0081 35.4482C63.2014 41.1139 63.1048 44.5391 62.9651 48.8907C62.8469 52.9083 62.7073 57.4538 62.7395 65.0906C62.7502 67.7511 62.7825 70.0454 62.8039 71.7687H50.6858C51.1155 69.4206 51.4163 67.0294 51.5452 64.6705C51.5452 64.649 51.7064 61.8054 51.5882 59.091C51.3196 52.8437 49.4611 46.4887 48.0537 42.4818C50.1056 41.6309 51.5667 40.069 52.3832 39.1966C56.7126 34.5434 57.3787 28.7808 57.4646 27.6714C57.9373 21.8011 55.5846 17.4387 54.1773 14.8321C52.3295 11.4068 50.1056 9.04794 48.1397 6.96909C46.6786 5.41804 45.7225 4.63174 43.8317 3.06991C40.2435 0.118596 38.8577 -0.484592 37.5792 0.334021C36.3545 1.13109 36.6016 2.52058 36.7628 3.4469C36.8809 4.11472 37.0098 4.87948 36.9347 5.8058C36.8917 6.30128 36.7735 7.60459 34.3671 10.9868C33.1101 12.764 32.2722 13.6149 31.4772 14.4335C30.8433 15.0798 30.188 15.7584 29.35 16.8248C27.6956 18.9575 24.6016 22.9213 24.3653 28.4684C24.3008 29.8795 24.1182 34.188 27.1585 38.0441C29.4038 40.8984 31.8317 42.0186 33.5936 42.4603C33.3035 43.7851 33.0457 44.9053 32.8415 45.7563C32.573 46.898 32.4655 47.3719 32.3796 47.7058C32.1003 48.7937 31.8424 49.677 31.6168 50.4633C31.4987 50.851 31.402 51.2065 31.3053 51.5512C30.4351 54.7718 29.9302 58.1539 29.8657 61.353C29.7905 64.7028 30.188 68.2681 30.9937 71.7903H4.29722V24.3108C4.29722 17.7188 9.64727 12.3547 16.222 12.3547H32.5945V8.04621H16.222C7.27305 8.04621 0 15.3383 0 24.3108V72.8243C0 81.7968 7.27305 89.0889 16.222 89.0889H49.4181L47.7207 99.8924H71.7314L70.034 89.0889H103.778C112.727 89.0889 120 81.7968 120 72.8243V24.3108C120 15.3383 112.727 8.04621 103.778 8.04621ZM103.778 84.7804H16.222C10.6249 84.7804 5.91943 80.8812 4.65175 75.6572H115.348C114.07 80.8812 109.375 84.7804 103.778 84.7804ZM40.1361 4.28706C40.5765 4.61019 41.1244 5.04104 41.7905 5.59038C43.5631 7.05526 44.4548 7.7877 45.7762 9.18796C47.6025 11.1268 49.6759 13.3241 51.3196 16.3724C52.5551 18.6666 54.6285 22.5012 54.231 27.4129C54.1558 28.3392 53.5971 33.1324 50.009 36.9885C49.128 37.9363 47.4736 39.7136 45.3787 39.8321C44.9705 39.8536 44.8415 39.8213 44.3474 39.6921C43.9928 39.5951 43.5416 39.4874 42.897 39.3689C41.9087 39.1858 40.9955 39.0996 40.1146 39.0996C39.0618 39.0996 38.2023 39.2289 37.4288 39.3366C36.4405 39.4766 35.6562 39.5951 34.6141 39.3797C33.3572 39.1212 31.4772 38.3241 29.6723 36.0298C27.3733 33.1108 27.5237 29.7071 27.5667 28.5977C27.7601 24.0846 30.4351 20.6485 31.8747 18.8067C32.5945 17.8911 33.1531 17.3095 33.7547 16.6955C34.6464 15.7907 35.5595 14.8536 36.9776 12.8609C39.5452 9.25259 40.0072 7.42148 40.1253 6.09662C40.1791 5.42881 40.1683 4.82562 40.1253 4.28706H40.1361ZM45.7977 46.5533C44.4011 46.521 43.2945 46.4456 42.4029 46.3918C41.7905 46.3487 41.2856 46.3164 40.8881 46.3056C39.2659 46.2733 37.6329 46.3164 36.0107 46.3918C36.2256 45.4331 36.5157 44.1837 36.8487 42.6865C37.214 42.6434 37.5792 42.6003 37.923 42.5464C39.1585 42.3633 40.3187 42.191 42.3277 42.5572C42.8541 42.6541 43.2193 42.7511 43.5416 42.8265C43.9391 42.9342 44.3259 43.0311 44.8093 43.0634C45.1746 44.0652 45.5721 45.2392 45.9696 46.5533C45.9051 46.5533 45.8514 46.5533 45.7977 46.5533ZM34.4208 52.4021C34.496 52.1113 34.5927 51.8097 34.6894 51.4758L34.7216 51.3573C34.872 50.8618 35.0331 50.3017 35.205 49.6662C37.0958 49.5585 38.9866 49.5046 40.8344 49.5477C41.1782 49.5477 41.6079 49.58 42.2202 49.6231C43.1334 49.6877 44.2722 49.7631 45.7225 49.7955C46.1415 49.7955 46.5175 49.8062 46.872 49.817C47.6025 52.7468 48.2041 56.032 48.3438 59.2526C48.4405 61.5792 48.333 64.0135 48.3008 64.4874C48.1611 66.9325 47.8389 69.3883 47.3662 71.7903H34.3241C33.4539 68.3004 33.0027 64.7459 33.0779 61.4284C33.1423 58.4986 33.6043 55.375 34.41 52.4129L34.4208 52.4021ZM65.9624 18.1281C66.0269 17.7834 66.1128 17.4172 66.2739 17.0294C66.6285 16.1569 67.0689 15.6076 67.5631 15.0152C67.5954 14.9721 67.8962 14.5951 70.7431 10.9975H81.4539C84.3008 14.5951 84.6016 14.9721 84.6446 15.026C85.1173 15.6076 85.5685 16.1569 85.923 17.0294C86.3635 18.1281 86.3742 19.0975 86.3742 19.7438V20.7886C86.3742 21.3164 86.3742 21.8118 86.385 22.2535H65.8765C65.8227 20.4762 65.8227 19.1944 65.9517 18.1281H65.9624ZM76.0931 4.43786C76.2435 4.62097 76.4047 4.81485 76.5443 4.98719C77.6723 6.34436 78.4781 7.31377 79.0904 8.05698H73.0958C73.6974 7.32454 74.5031 6.35513 75.6419 4.98719C75.7816 4.81485 75.9427 4.62097 76.0931 4.43786ZM65.9409 65.0906C65.8979 57.5184 66.0376 52.9945 66.1665 49.0092C66.2954 44.593 66.4029 41.1031 66.2095 35.3513C66.1558 33.8433 66.1343 32.3353 66.1128 30.8273V30.6873C66.0913 29.2763 66.0698 27.8545 66.0269 26.4435L65.9946 25.4848H86.3957C86.3957 25.7433 86.385 25.9695 86.3742 26.1526C86.2883 27.5744 86.3098 28.2207 86.3527 29.761C86.385 30.7412 86.4172 32.1307 86.4494 34.3711C86.5139 38.8627 86.4924 43.6666 86.4494 53.2422V53.727C86.4279 58.6386 86.385 64.7351 86.3098 71.7903H65.9946C65.9731 70.0669 65.9517 67.7726 65.9302 65.1014L65.9409 65.0906ZM66.7037 95.5839H52.7484L53.769 89.0889H65.6831L66.7037 95.5839ZM103.778 12.3547C110.353 12.3547 115.703 17.7188 115.703 24.3108V71.7687H89.5434C89.6186 64.7244 89.6616 58.6279 89.6831 53.727V53.2422C89.7261 43.6451 89.7476 38.8304 89.6831 34.3064C89.6509 32.0445 89.6079 30.6442 89.5864 29.6533L88.5121 29.6856L89.5864 29.621C89.5434 28.1022 89.5327 27.596 89.6079 26.3357C89.6616 25.474 89.6509 23.8691 89.6186 20.8424V19.733L89.6079 18.6882H89.5649C89.5112 17.9019 89.35 16.9002 88.9203 15.823C88.3832 14.4874 87.6849 13.6257 87.1155 12.9363C87.094 12.9148 87.0081 12.8071 86.6535 12.3547H103.789H103.778Z" fill="#1C1C1C"/>
<path d="M64.7378 8.0459H55.574V12.3544H64.7378V8.0459Z" fill="#1C1C1C"/>
<path d="M56.7448 78.1235L55.0581 78.2959L55.1763 81.4518H63.5666L65.1996 81.2795L65.0814 78.1235H56.7448Z" fill="#1C1C1C"/>
<path d="M72.2362 29.0825C71.1942 29.0825 70.3455 29.9334 70.3455 30.9783V64.9722C70.3455 66.017 71.1942 66.868 72.2362 66.868C73.2783 66.868 74.127 66.017 74.127 64.9722V30.9783C74.127 29.9334 73.2783 29.0825 72.2362 29.0825Z" fill="#1C1C1C"/>
<path d="M81.2926 29.0068C80.2506 29.0068 79.4019 29.8578 79.4019 30.9026V64.8965C79.4019 65.9413 80.2506 66.7923 81.2926 66.7923C82.3347 66.7923 83.1834 65.9413 83.1834 64.8965V30.9026C83.1834 29.8578 82.3347 29.0068 81.2926 29.0068Z" fill="#1C1C1C"/>
<path d="M38.761 17.2448C37.8909 17.9233 35.4414 20.013 34.4853 23.6752C33.1639 28.7161 35.71 32.7553 36.1397 33.4124C36.1505 33.9509 36.4835 34.4033 36.9025 34.4679C37.4074 34.5541 37.8694 34.2094 37.9553 33.7032C37.5149 33.0677 35.0439 29.2978 36.129 24.4184C37.0207 20.3684 39.7924 18.1172 40.5766 17.5356C40.5766 17.471 40.6303 17.1478 40.4155 16.8462C40.2758 16.6523 40.0717 16.5123 39.8139 16.48C39.3089 16.3938 38.847 16.7385 38.761 17.2448Z" fill="#1C1C1C"/>
</g>
<defs>
<clipPath id="clip0_203_2367">
<rect width="120" height="100" fill="white"/>
</clipPath>
</defs>
</svg>
