<svg width="444" height="209" viewBox="0 0 444 209" fill="none" xmlns="http://www.w3.org/2000/svg">
<path d="M442.673 140.483C441.205 137.31 437.261 141.484 432.444 138.3C427.633 135.117 423.143 135.358 418.391 134.718C413.634 134.077 412.483 132.318 407.607 127.597C406.025 126.064 402.131 122.694 397.413 118.766C397.706 118.525 397.889 118.382 397.889 118.382C397.889 118.382 396.872 117.219 399.566 114.124C402.26 111.025 402.294 111.049 404.09 107.191C405.886 103.332 408.267 102.78 413.565 102.396C418.858 102.016 417.374 101.405 419.527 100.277C421.685 99.1484 422.99 98.7 419.373 99.0499C415.752 99.4047 412.806 101.1 409.219 102.278C405.633 103.46 407.93 95.2653 411.814 93.2399C415.693 91.2146 421.244 90.6922 426.536 91.8503C431.829 93.0083 430.778 91.4019 434.295 90.8746C437.812 90.3424 443.378 89.2779 443.378 89.2779C440.173 89.5736 435.555 90.1403 433.506 89.9038C431.452 89.6722 430.267 87.8292 428.332 88.7605C426.403 89.6919 420.931 90.5493 417.077 90.4902C413.217 90.4311 416.288 86.8288 420.341 85.0991C424.394 83.3645 424.582 85.0351 429.835 85.3652C435.088 85.6954 437.435 85.651 435.426 84.7394C432.37 83.3497 418.089 83.2906 415.4 83.3892C412.707 83.4828 411.109 80.7478 405.3 82.0981C399.492 83.4434 404.338 77.4462 402.934 75.0512C401.535 72.6563 396.203 73.1688 394.799 72.5725C393.4 71.9861 395.181 69.0146 393.742 68.9604C392.309 68.9062 393.028 67.1371 393.599 63.5989C394.164 60.0558 405.876 52.25 409.095 46.8196C412.315 41.3891 411.59 41.4827 413.803 39.7185C416.015 37.9494 413.272 35.5939 415.842 34.7414C418.406 33.8938 418.272 27.0244 415.985 28.3697C413.699 29.715 413.947 38.3387 410.648 39.4672C407.349 40.5907 410.524 43.8136 404.899 44.3556C399.278 44.8878 387.373 49.791 386.386 50.0966C385.399 50.3922 386.634 47.0857 389.461 44.8878C392.294 42.69 388.886 42.0937 395.384 37.6882C401.888 33.2827 403.778 28.3992 401.679 30.735C399.581 33.0708 399.606 33.9578 394.804 37.023C390.007 40.093 385.984 44.2226 385.23 45.7453C384.476 47.268 386.44 46.1247 386.54 47.4257C386.639 48.7217 382.467 52.5901 380.195 54.9012C377.923 57.2124 375.145 55.8572 376.435 52.7034C377.725 49.5496 384.546 43.7347 385.612 41.6009C386.679 39.4672 385.061 39.5263 383.638 42.1824C382.224 44.8336 376.381 51.4862 375.121 52.7083C373.856 53.9304 372.581 54.4134 370.785 53.6939C368.994 52.9794 370.081 50.3183 366.266 49.2194C362.456 48.1106 361.534 45.9966 364.123 43.2025C366.712 40.4133 367.675 35.3721 366.201 34.8449C364.728 34.3127 369.485 30.5379 366.544 32.0015C363.602 33.4651 363.781 31.4299 364.525 27.6502C365.274 23.8804 369.575 21.8452 369.089 21.0222C368.602 20.1943 368.285 18.1986 369.341 15.1285C370.393 12.0535 368.454 13.0736 367.174 14.3154C365.899 15.5622 367.218 17.8191 367.218 17.8191C366.073 18.5632 366.38 19.6276 366.38 19.6276C364.376 20.8941 364.063 23.0722 363.657 25.4474C363.25 27.8177 360.611 32.8343 360.611 32.8343C356.459 34.8646 355.596 40.7731 348.21 43.6509C341.314 46.3366 338.09 42.3648 338.09 42.3648C338.09 42.3648 332.941 52.0776 330.704 45.016C334.677 43.508 338.105 42.212 339.663 41.1377C343.363 38.5752 347.758 37.2004 349.182 36.7963C349.46 36.7224 349.648 36.476 349.633 36.1902C349.623 35.8403 349.43 35.5249 349.122 35.3475C348.82 35.175 348.448 35.1701 348.14 35.3327C346.731 36.0325 344.34 37.0969 341.26 38.0085C339.31 38.5851 335.813 40.0881 331.562 42.1332C332.827 39.9156 330.868 40.7879 331.641 38.9547C332.47 36.9786 333.591 34.9188 332.182 36.4464C331.736 36.9293 331.369 37.2644 330.967 37.6045C332.911 29.2123 338.666 18.1986 339.241 14.1774C339.876 9.73744 341.86 5.6079 342.535 4.30202C342.669 4.0507 342.614 3.74517 342.396 3.56284C342.128 3.33123 341.766 3.25731 341.429 3.3608C341.096 3.46428 340.838 3.73039 340.749 4.06548C340.303 5.56848 339.459 8.02747 338.031 10.8906C336.691 13.5713 334.538 20.0958 332.385 27.7832C332.356 27.7832 332.326 27.7832 332.296 27.7832C329.121 27.9311 331.498 29.6903 327.653 30.326C323.804 30.9568 325.664 32.0853 322.797 36.3134C321.72 37.9001 320.103 40.4675 318.531 42.8576C317.4 42.3401 316.814 42.7984 315.425 43.3701C316.899 40.1275 319.042 36.6485 320.589 34.9089C322.946 32.2577 320.842 29.8579 320.068 32.8047C319.543 34.8301 316.814 39.9846 314.339 43.7643C313.744 43.9515 313.034 44.1289 312.151 44.2718C309.463 44.6956 304.602 45.6615 301.094 46.1691C301.963 44.6414 302.235 44.0747 302.97 43.3898C306.114 42.4288 309.582 41.7636 311.68 41.7094C315.242 41.6157 315.574 38.4521 312.876 39.9008C311.427 40.6794 307.647 41.7882 303.932 42.6062C303.947 42.5964 303.962 42.5816 303.981 42.5717C306.243 40.8667 303.57 38.4323 306.164 37.6587C308.753 36.885 308.818 30.0106 306.491 31.2919C304.165 32.5731 304.165 41.1969 300.836 42.2317C299.934 42.5126 299.502 42.961 299.239 43.4735C297.905 43.6559 296.764 43.7446 296 43.6854C292.587 43.4243 288.227 47.0561 287.304 44.8435C286.381 42.6309 288.415 40.9061 291.322 42.3943C294.229 43.8825 294.05 39.4475 291.57 39.2602C289.095 39.073 288.192 42.0888 287.641 39.6101C287.572 39.2947 287.503 39.0188 287.428 38.7822C292.612 34.9336 294.085 31.1933 292.126 33.2482C290.32 35.1455 290.018 36.0768 287.126 38.0381C286.63 37.1462 285.841 37.1215 283.896 36.9737C281.838 36.816 278.588 41.0195 276.123 42.6506C276.212 41.8326 275.349 41.9952 274.372 43.2715C274.253 43.2567 274.134 43.2321 274.025 43.1828C271.713 42.1332 276.307 32.1838 270.329 36.4021C264.912 40.2261 265.914 29.2222 263.315 36.8554C262.447 39.3982 257.253 33.5735 256.871 35.8009C256.832 36.0423 256.787 36.2641 256.742 36.4711C256.683 36.4218 256.623 36.3774 256.554 36.3479C255.095 35.7762 259.962 32.1395 256.975 33.5143C253.994 34.8941 254.232 32.8639 255.085 29.1088C255.944 25.3587 260.299 23.4467 259.838 22.6139C259.376 21.7713 259.118 19.7706 260.259 16.7301C261.395 13.6896 259.431 14.6505 258.111 15.8529C256.802 17.0602 258.057 19.3566 258.057 19.3566C256.891 20.0662 257.164 21.1405 257.164 21.1405C255.12 22.3478 254.748 24.5161 254.277 26.8765C253.801 29.237 251.018 34.1747 251.018 34.1747C250.735 34.3028 250.462 34.4506 250.204 34.6182C249.326 32.0853 249.758 28.1725 250.809 23.8114C252.397 17.2721 245.913 19.2876 247.798 22.7322C249.678 26.1817 247.972 32.5238 246.538 35.1258C245.1 37.7227 240.67 29.1286 239.886 23.7523C239.103 18.376 239.39 19.7459 232.966 10.4224C232.619 9.91977 232.292 9.42206 231.974 8.93913C232.694 7.17496 233.413 5.80501 233.77 5.15454C233.914 4.90814 233.864 4.60262 233.651 4.41043C233.393 4.17389 233.031 4.08519 232.689 4.17882C232.351 4.27245 232.088 4.53363 231.989 4.86379C231.766 5.54384 231.449 6.43085 231.032 7.45092C230.05 5.84444 229.226 4.35622 228.522 3.00599C228.051 2.78917 227.53 2.74482 226.929 2.94193C226.835 2.98628 226.766 3.04541 226.706 3.10455C227.812 4.98699 229.062 7.06162 230.288 9.15103C229.931 9.9247 229.534 10.7427 229.072 11.6051C227.659 14.2514 225.317 20.7068 222.946 28.3302C222.916 28.3302 222.887 28.3302 222.857 28.3302C219.682 28.3844 222.004 30.2127 218.139 30.74C214.275 31.2623 216.101 32.4401 213.114 36.5893C211.477 38.866 208.615 43.1976 206.487 46.0311C205.827 46.0804 205.118 46.1198 204.369 46.1494C205.728 42.3943 208.878 37.3137 210.947 35.1208C213.382 32.5386 211.343 30.0796 210.49 33.0068C209.761 35.5052 205.49 42.7541 202.648 46.1986C199.17 46.2528 195.375 46.0902 193.213 45.6615C195.088 44.0057 195.395 38.935 193.262 39.8417C192.027 40.3641 191.194 42.8132 190.231 45.1934C187.245 45.2377 183.922 46.4992 183.604 44.6069C183.207 42.2416 185.588 41.0244 188.079 43.1335C190.564 45.2426 191.412 40.8864 189.041 40.1423C186.675 39.4031 185.107 42.1282 185.132 39.5953C185.157 37.0624 184.705 37.0033 182.091 36.1754C179.482 35.3524 173.063 41.532 171.049 39.9846C169.04 38.4373 175.796 29.7938 169.01 32.5436C162.859 35.037 166.361 24.5506 162.075 31.3954C160.647 33.672 156.926 26.8223 156.043 28.9117C155.16 30.9962 154.719 31.5038 151.554 29.37C148.394 27.2313 149.863 21.8747 152.908 15.8578C155.954 9.85078 149.183 10.3436 150.225 14.1232C151.023 17.0455 149.352 21.1553 147.625 23.8952C147.789 23.0082 148.131 21.9437 148.737 20.7216C150.18 17.8093 148.126 18.5682 146.693 19.6375C145.264 20.7068 146.281 23.1166 146.281 23.1166C145.051 23.7079 145.215 24.8019 145.215 24.8019C144.917 24.9399 144.649 25.1025 144.406 25.2799C143.037 23.0082 141.951 17.1686 142.283 13.32C142.695 8.59418 142.719 9.0574 139.986 2.25203C139.391 1.47343 138.776 0.719467 138.141 0C137.779 0.359733 137.595 0.714539 137.521 1.07427C137.913 2.48364 138.265 3.84865 138.538 5.11019C140.477 14.069 143.32 25.0828 142.536 25.5509C141.747 26.0141 139.019 21.2735 136.96 16.2324C134.902 11.1862 134.569 7.03698 134.663 11.0778C134.758 15.1187 140.214 24.1514 140.859 26.2802C141.494 28.4091 139.857 28.4682 136.221 23.9149C132.59 19.3566 130.149 10.1415 129.812 14.8723C129.47 19.5981 136.345 25.4819 137.134 28.5421C137.923 31.6023 136.395 33.3764 136.395 33.3764V33.3665C134.792 34.0121 132.798 35.515 131.647 33.7952C130.502 32.0754 130.174 32.4056 128.522 31.7255C126.875 31.0504 123.81 28.1923 122.411 26.6991C121.012 25.206 118.934 23.6931 120.432 25.7628C121.925 27.8325 129.247 33.0068 130.025 34.9533C130.809 36.8949 129.242 39.9206 127.704 41.2905C126.305 42.5323 127.907 43.5376 127.873 44.8139C126.781 45.4053 125.526 45.9128 124.048 46.2775C123.239 46.4795 122.49 46.5978 121.796 46.6569C121.697 46.3958 121.607 46.1198 121.533 45.8291C121.007 43.7741 119.162 45.1391 120.099 46.3366C120.189 46.45 120.258 46.5682 120.318 46.6914C115.913 46.5091 114.181 43.7002 114.181 43.7002C114.181 43.7002 114.038 43.9023 113.795 44.2127C113.06 42.8378 112.376 41.2905 111.79 39.7185C110.982 37.5355 109.811 35.9635 108.938 35.18C112.331 27.7143 118.016 19.3665 118.988 15.9071C120.199 11.5854 122.699 7.74659 123.542 6.53434C123.711 6.30273 123.696 5.99227 123.502 5.78037C123.269 5.5192 122.917 5.396 122.57 5.45514C122.227 5.51427 121.94 5.74588 121.806 6.06619C121.166 7.49527 120.01 9.83107 118.219 12.4872C116.543 14.9758 113.556 21.1651 110.421 28.5126C110.392 28.5126 110.362 28.5027 110.332 28.5027C107.167 28.2415 109.29 30.2915 105.396 30.4246C101.497 30.5527 103.194 31.9128 99.8008 35.7368C96.4078 39.5608 88.2874 49.7763 89.4036 46.1592C90.5197 42.5422 95.1131 36.3873 97.7968 34.0613C100.48 31.7354 98.7046 29.0842 97.5537 31.9079C96.4078 34.7315 89.7657 43.5475 86.9679 45.5038C84.1702 47.4602 83.1434 53.0237 81.0103 51.9051C78.8773 50.7865 79.3436 48.1698 82.5332 47.475C85.7278 46.7851 82.7465 43.4785 80.7127 44.9026C78.6888 46.3268 79.924 49.2194 77.91 47.6622C75.896 46.105 75.5736 46.4302 73.3314 47.9973C71.0942 49.5644 72.1657 58.3803 69.7003 59.0357C67.2448 59.6911 64.4024 49.1159 62.5026 56.148C60.7813 62.5246 54.4963 53.4081 57.3882 60.9379C58.3506 63.4461 50.6072 62.2437 51.7481 64.205C52.889 66.1663 53.0279 66.8217 49.3968 68.034C45.7707 69.2413 42.3677 64.8407 39.3865 58.7893C36.4101 52.7428 32.7145 58.4 36.3705 59.8636C40.0313 61.3321 42.7844 67.2997 43.3499 70.2121C43.9055 73.1244 34.9815 69.3054 30.9238 65.6587C26.871 62.0121 27.9723 62.8844 17.0392 59.765C6.12606 56.5915 1.11096 52.2155 0.0543665 54.0241C-1.00719 55.8375 13.7306 59.7059 22.0891 63.5989C30.4426 67.482 40.9937 71.8974 40.8945 72.8041C40.7903 73.7059 35.3387 73.0012 30.0507 71.5771C24.7628 70.1529 21.2309 67.9058 24.5297 70.2761C27.8284 72.6415 38.3695 73.7946 40.4629 74.5732C42.5562 75.3568 41.6088 76.6873 35.7603 76.8105C29.9118 76.9287 21.0474 73.2821 24.6338 76.4113C28.2153 79.5405 37.0897 77.6581 40.0214 78.89C42.9531 80.122 43.4491 82.3987 43.4491 82.3987H43.4392C42.9928 84.0544 42.9878 86.5381 40.9143 86.405C38.8408 86.272 38.9102 86.7302 37.3675 87.6222C35.8298 88.5141 31.6827 89.209 29.644 89.4159C27.6002 89.618 25.1299 90.3473 27.6994 90.4163C30.264 90.4902 38.8408 87.8242 40.8746 88.386C42.9084 88.9429 44.3817 92.0129 44.5504 94.053C44.7141 96.0932 46.8421 95.0928 47.7499 96.3297C48.6627 97.5715 49.9921 98.0545 48.9553 99.0893C47.9186 100.129 46.5197 98.424 46.9662 99.523C47.2191 100.144 47.7549 100.237 48.1319 100.41C47.8343 100.681 47.5267 100.942 47.2142 101.194C46.7578 101.553 46.3312 101.869 45.9542 102.145C45.483 102.056 44.977 101.898 44.4561 101.681C42.4918 100.853 42.467 103.14 43.9948 103.125C44.2031 103.125 44.4065 103.15 44.595 103.204C44.347 103.475 44.5008 103.579 45.2647 103.515C46.0286 104.062 46.3014 105.111 45.3193 106.205C43.8956 107.792 38.6027 107.191 33.667 105.693C28.7312 104.195 25.1001 105.87 28.6519 106.328C29.8126 106.481 31.6133 106.634 33.6025 106.811C32.9278 107.265 32.6054 108.383 33.1511 109.349C33.1511 109.349 34.7682 111.601 35.8248 110.271C36.8119 109.039 36.3308 107.733 35.1601 106.954C38.8408 107.299 42.7348 107.743 44.1932 108.418C46.6784 109.566 47.6904 113.523 44.7042 115.223C41.7229 116.928 39.5601 119.215 42.5017 120.136C45.4532 121.063 44.342 117.835 46.6388 115.612C48.9305 113.39 49.506 113.533 49.3869 116.588C49.2629 119.638 55.4437 119.298 57.046 116.869C57.3436 116.421 57.6908 116.204 58.053 116.179C58.0182 117.736 58.7722 118.791 59.1393 119.811C59.4518 120.693 59.8884 122.014 60.558 123.246C60.5481 123.285 60.5431 123.324 60.5332 123.364C59.3873 127.898 48.4791 131.51 50.9296 131.864C53.3851 132.214 50.4385 137.832 50.3641 139.66C50.2947 141.489 52.3979 145.559 52.2343 141.577C52.0656 137.601 59.427 131.81 59.8834 133.141C60.3398 134.471 55.3594 137.926 56.8922 138.266C58.42 138.606 61.813 135.403 63.7328 134.383C64.1247 134.176 64.7943 133.974 65.6277 133.791C60.062 136.797 62.8399 137.63 62.9341 139.586C63.0333 141.582 58.8962 142.519 60.0372 143.982C61.1781 145.446 59.055 148.915 55.5231 152.31C51.9961 155.71 55.3743 159.475 56.5202 155.425C57.6611 151.379 59.5064 148.235 61.7684 145.593C64.0304 142.952 68.6685 139.434 71.372 137.571C73.0784 136.393 74.5765 137.034 75.9258 137.65C75.1519 140.217 73.7928 143.356 73.2024 145.288C72.1508 148.723 72.9941 147.471 74.6261 149.225C76.2581 150.98 75.0924 154.252 76.3524 155.912C77.6173 157.573 79.2593 150.566 77.6024 147.402C76.02 144.391 76.655 140.725 78.9219 138.354C80.8218 138.428 83.4261 139.049 84.5521 142.804C85.8419 147.116 84.7456 156.292 81.2732 160.83C77.8058 165.369 77.6173 169.932 75.6083 173.426C73.5993 176.92 74.2293 180.167 72.9246 181.587C71.625 183.006 72.5724 187.007 68.5247 191.689C64.4818 196.365 68.2469 195.779 68.3907 194.133C68.5395 192.482 70.8611 188.732 73.5596 186.869C76.2581 185.011 71.7589 184.849 75.0676 181.675C78.3763 178.502 80.1571 176.979 79.3684 172.845C78.5797 168.715 81.6502 162.728 86.7844 158.376C91.9185 154.02 97.9158 148.989 103.878 148.107C104.429 148.023 104.98 148.136 105.446 148.402C105.148 148.89 104.861 149.467 104.513 150.147C103.348 152.423 102.519 149.91 101.964 151.674C101.408 153.434 99.776 155.232 98.9079 155.533C98.0448 155.834 98.3524 158.026 100.203 155.144C102.053 152.256 104.365 152.271 104.91 151.349C105.203 150.861 105.873 150.61 106.661 150.245C106.716 150.768 106.607 151.305 106.319 151.763C105.158 153.7 103.878 155.666 102.445 157.341C98.3722 162.102 98.5706 174.2 93.7936 182.035C93.7936 182.035 91.9235 183.853 93.1636 185.243C94.3988 186.628 94.4335 185.11 95.0734 182.341C95.7134 179.566 103.045 172.835 107.485 164.359C109.846 159.84 110.526 155.843 111.165 152.379C113.378 155.607 115.243 159.456 116.508 164.068H116.513C117.495 167.66 118.75 171.002 117.401 172.923C116.047 174.84 116.691 175.984 117.818 178.28C118.939 180.581 116.424 179.714 117.5 181.222C118.576 182.725 119.028 185.105 118.745 185.972C118.467 186.84 120.407 187.919 119.216 184.716C118.021 181.508 119.43 179.684 119.023 178.699C118.621 177.708 119.688 176.205 119.35 174.017C119.018 171.834 119.921 169.489 119.013 166.473C118.11 163.457 119.529 158.598 121.191 156.691C122.173 155.563 123.215 155.311 124.112 155.375C123.423 156.026 122.639 156.627 121.721 157.164C119.727 158.332 122.312 159.746 123.557 157.317C123.914 156.622 124.296 155.991 124.678 155.454C125.07 155.538 125.422 155.666 125.71 155.784C126.737 156.198 128.532 155.301 129.609 156.809C130.283 157.755 131.241 159.194 132.02 160.579C131.032 160.564 130.055 159.953 129.39 158.544C127.987 155.558 125.511 155.361 124.385 157.874C123.259 160.382 128.542 162.511 128.984 164.645C129.425 166.778 127.927 169.538 126.002 171.307C124.078 173.071 125.09 175.003 126.24 173.801C127.396 172.593 127.357 169.183 130.834 166.305C132.213 165.167 133.007 164.536 133.508 164.088C133.9 165.561 134.053 167.148 133.845 168.927C133.577 171.213 136.271 170.021 135.08 167.567C134.356 166.074 133.924 164.679 133.909 163.703C134.311 163.27 134.41 162.959 134.688 162.215C135.194 160.845 137.828 159.047 139.083 155.287C140.978 156.533 142.506 158.071 143.027 159.318C144.089 161.831 142.843 164.393 139.594 163.698C136.35 163.004 134.698 164.842 136.028 167.256C137.357 169.666 142.258 166.773 144.237 167.715C146.217 168.656 147.521 171.509 147.774 174.101C148.022 176.688 150.185 177.063 149.917 175.417C149.649 173.776 146.891 171.741 146.688 167.251C146.484 162.757 146.643 163.132 145.735 161.727C144.828 160.323 145.16 156.356 141.693 152.63C141.34 152.251 141.112 151.896 140.988 151.561C142.412 151.172 144.709 152.123 147.442 152.635C147.571 152.768 147.71 152.897 147.859 153.015C149.669 154.404 151.252 155.188 151.485 156.528C151.718 157.869 151.485 160.19 151.996 160.732C152.507 161.274 151.936 162.639 152.452 163.797C152.968 164.955 152.402 165.472 152.893 166.295C153.39 167.113 153.642 166.251 152.67 163.235C151.698 160.214 152.854 160.781 152.283 158.879C151.718 156.977 151.847 156.893 152.447 155.341C153.047 153.784 154.153 152.335 154.863 152.68C154.863 152.68 155.101 152.399 155.453 152.059C156.485 151.876 157.457 151.788 158.37 151.778C159.134 153.306 159.461 155.232 159.888 155.306C160.295 155.38 158.97 153.104 158.742 151.778C162.78 151.798 165.528 153.173 166.535 153.108C166.947 153.084 167.721 153.251 168.603 153.508C165.969 160.347 166.242 161.003 167.477 164.339C168.951 168.326 166.679 175.924 167.874 180C169.075 184.08 166.332 190.471 170.211 194.31C174.09 198.154 171.059 203.875 170.617 207.458C170.171 211.04 174.417 207.635 176.461 204.792C178.505 201.948 172.899 200.623 173.286 194.892C173.678 189.161 171.238 185.411 169.437 180.995C167.631 176.58 168.594 174.707 170.305 168.163C170.861 166.039 171.868 161.003 172.954 154.986C173.311 155.119 173.529 155.203 173.529 155.203C173.529 155.203 174.04 153.749 178.078 154.533C180.236 154.951 181.243 155.154 182.359 155.203C181.918 155.809 181.431 156.43 180.906 157.051C177.741 160.791 181.486 164.191 182.215 160.047C182.523 158.288 182.979 156.686 183.55 155.198C184.274 155.168 185.147 155.099 186.382 154.991C190.643 154.621 192.31 156.4 195.276 160.776C198.238 165.147 198.034 163.565 200.088 164.866C202.142 166.167 203.188 167.069 201.085 164.122C198.977 161.175 196.03 159.475 193.223 156.972C191.501 155.439 193.942 154.06 196.943 153.759C199.904 155.331 201.854 158.864 203.724 160.668C205.584 162.466 206.031 160.214 205.758 157.568C206.695 158.593 207.564 159.756 208.342 161.023C208.065 161.712 207.752 162.353 207.395 162.935C204.404 167.798 204.681 172.357 203.04 176.038C201.393 179.714 202.35 182.883 201.199 184.425C200.048 185.967 201.403 189.855 197.846 194.916C194.299 199.972 197.985 199.016 197.965 197.361C197.95 195.705 199.875 191.738 202.37 189.614C204.865 187.495 200.371 187.786 203.342 184.297C206.309 180.808 207.926 179.113 206.72 175.082C205.798 172.007 207.013 167.631 209.711 163.575C210.183 164.585 210.599 165.64 210.937 166.719C212.554 171.859 213.437 170.154 215.644 172.923C217.857 175.688 221.552 179.96 221.552 179.96C219.702 177.344 216.914 173.643 216.101 171.76C215.287 169.873 216.304 167.936 214.528 166.734C213.526 166.054 211.983 164.388 210.495 162.462C211.14 161.594 211.849 160.747 212.623 159.943C213.129 159.416 213.645 158.884 214.171 158.347C217.172 160.747 216.016 161.846 218.239 166.345C220.56 171.036 221.761 173.037 221.567 170.854C221.354 168.533 217.867 161.826 215.292 157.213C216.939 155.558 218.67 153.926 220.461 152.483C223.606 151.822 227.559 151.039 231.553 149.762C231.692 150.305 231.637 150.886 231.384 151.403C230.427 153.444 229.355 155.528 228.095 157.341C224.529 162.486 225.952 174.5 221.999 182.779C221.999 182.779 220.322 184.775 221.696 186.036C223.07 187.288 222.946 185.775 223.303 182.956C223.656 180.133 230.268 172.702 233.82 163.822C235.71 159.091 235.982 155.045 236.26 151.536C237.872 153.439 239.366 155.612 240.685 158.091C239.852 159.653 238.929 160.835 237.674 161.18C235.402 161.801 235.164 163.087 234.559 165.571C233.949 168.055 232.565 165.793 232.426 167.636C232.292 169.474 231.111 171.598 230.337 172.086C229.568 172.573 230.367 174.638 231.508 171.411C232.649 168.183 234.901 167.67 235.219 166.65C235.541 165.635 237.332 165.147 238.473 163.25C239.222 162.013 240.417 161.052 241.504 159.727C241.945 160.658 242.367 161.619 242.759 162.629H242.764C244.108 166.108 245.695 169.306 244.544 171.351C243.393 173.391 244.147 174.466 245.502 176.639C246.851 178.817 244.262 178.206 245.482 179.596C246.702 180.985 247.397 183.306 247.203 184.198C247.015 185.09 249.058 185.972 247.54 182.897C246.028 179.827 247.243 177.871 246.737 176.93C246.236 175.988 247.144 174.382 246.588 172.238C246.033 170.1 246.697 167.68 245.482 164.768C244.276 161.855 245.194 156.878 246.658 154.813C248.121 152.749 250.001 153.148 251.062 153.458C252.129 153.769 253.821 152.699 255.046 154.084C255.691 154.818 256.569 155.878 257.377 156.967C257.214 158.849 256.837 161.708 256.241 163.368C255.591 165.182 254.575 166.906 252.908 168.493C251.236 170.085 254.078 170.873 254.733 168.227C255.393 165.581 256.489 163.629 257.541 163.851C258.598 164.068 257.858 161.722 258.875 161.274C259.163 161.146 259.466 161.156 259.753 161.151C260.244 162.516 260.522 164.019 260.497 165.714C260.463 168.015 263.022 166.562 261.584 164.236C260.879 163.097 260.373 162.003 260.145 161.111C260.681 160.993 261.058 160.495 260.949 158.268C260.84 156.026 262.07 156.06 263.36 156.612C264.099 157.548 264.719 158.692 265.205 159.894C262.248 159.766 261.008 161.668 262.496 163.822C263.26 164.925 264.744 164.689 266.301 164.245C266.405 165.285 266.361 166.212 266.152 166.897C265.359 169.503 262.754 170.691 260.696 168.099C258.642 165.512 256.187 165.881 255.666 168.582C255.15 171.282 260.78 172.155 261.698 174.131C262.621 176.107 261.797 179.137 260.324 181.291C258.855 183.444 260.284 185.095 261.127 183.661C261.976 182.227 261.152 178.916 263.876 175.323C266.599 171.731 266.48 172.12 266.683 170.464C266.847 169.104 268.762 166.941 269.287 163.413C269.823 163.324 270.309 163.314 270.706 163.452C272.77 164.186 274.362 166.897 274.873 169.454C275.384 172.002 277.572 172.155 277.135 170.548C276.703 168.942 273.752 167.197 273.092 162.747C272.631 159.643 272.586 158.879 272.249 158.258C273.534 158.189 275.151 158.322 276.902 158.248C277.061 158.352 277.224 158.445 277.393 158.524C279.476 159.465 281.193 159.869 281.728 161.121C282.264 162.373 282.567 164.689 283.192 165.098C283.817 165.507 283.574 166.966 284.338 167.981C285.102 168.996 284.675 169.627 285.345 170.312C286.014 170.997 286.064 170.1 284.427 167.38C282.785 164.659 284.04 164.945 283.053 163.225C282.066 161.506 282.175 161.392 282.398 159.741C282.626 158.086 283.365 156.425 284.139 156.602C284.139 156.602 284.303 156.272 284.571 155.863C285.533 155.449 286.461 155.149 287.344 154.927C288.44 156.243 289.199 158.041 289.631 158.017C290.042 157.997 288.232 156.08 287.706 154.838C291.645 153.941 294.631 154.656 295.598 154.37C295.787 154.316 296.069 154.281 296.412 154.271C295.787 155.346 294.988 156.499 294.06 157.662C291.005 161.491 294.849 164.783 295.454 160.623C295.797 158.268 296.407 156.179 297.21 154.276C297.369 154.276 297.533 154.286 297.701 154.296C296.704 161.555 297.126 162.126 299.09 165.098C301.442 168.646 300.975 176.56 303.074 180.256C305.182 183.957 303.977 190.802 308.639 193.655C309.885 194.419 310.673 195.429 311.179 196.562C309.949 198.982 311.065 199.164 311.779 198.529C312.29 201.244 311.829 204.265 312.057 206.364C312.449 209.956 315.802 205.674 317.137 202.446C318.258 199.736 314.384 199.282 312.553 195.858C313.149 193.926 314.627 191.255 316.447 189.609C318.883 187.416 314.399 187.835 317.266 184.262C320.133 180.69 321.7 178.95 320.376 174.954C319.052 170.957 321.319 164.63 325.843 159.658C326.512 158.923 327.202 158.169 327.901 157.41C329.156 158.189 329.384 157.652 330.967 158.204C333.264 159.002 334.489 159.648 331.765 157.258C331.066 156.647 330.332 156.124 329.568 155.661C331.458 153.715 333.452 151.852 335.53 150.339C337.683 151.95 339.682 154.079 341.295 156.519C341.275 156.548 341.255 156.583 341.235 156.612C337.817 161.855 339.588 173.825 335.873 182.212C335.873 182.212 334.256 184.257 335.664 185.475C337.073 186.687 336.905 185.179 337.182 182.35C337.455 179.522 343.849 171.898 347.143 162.925C347.242 162.659 347.332 162.393 347.421 162.131C347.59 162.245 347.763 162.373 347.952 162.521C350.739 164.714 355.318 168.035 355.318 168.035C352.917 165.906 349.351 162.935 348.125 161.289C348.011 161.131 347.912 160.973 347.828 160.811C348.373 158.899 348.691 157.105 348.879 155.425C348.909 155.459 348.939 155.498 348.969 155.533C352.307 159.574 353.939 161.249 353.245 159.17C352.833 157.943 351.131 155.632 349.083 153.143C349.142 152.256 349.182 151.403 349.227 150.58C351.841 153.498 354.192 157.075 356.047 161.486H356.052C357.496 164.921 359.172 168.074 358.086 170.154C356.995 172.229 357.783 173.278 359.197 175.412C360.606 177.551 358.002 177.013 359.262 178.369C360.527 179.724 361.281 182.02 361.112 182.917C360.948 183.814 363.017 184.637 361.415 181.606C359.812 178.581 360.968 176.59 360.437 175.663C359.912 174.737 360.77 173.106 360.155 170.977C359.539 168.858 360.13 166.414 358.835 163.541C357.545 160.663 358.319 155.666 359.723 153.562C361.127 151.458 363.017 151.798 364.088 152.079C365.16 152.359 366.827 151.241 368.087 152.591C369.346 153.941 371.47 156.44 372.362 158.15C373.255 159.86 373.831 161.772 373.866 164.068C373.895 166.369 376.415 164.842 374.912 162.56C373.414 160.274 372.72 158.15 373.603 157.539C374.481 156.918 372.248 155.858 372.61 154.813C372.973 153.769 374.753 153.729 371.812 151.256C370.086 149.807 370.949 148.935 372.238 148.378C375.994 148.688 380.503 151.27 381.713 153.355C383.092 155.71 382.194 158.411 378.881 158.14C375.572 157.869 374.173 159.904 375.81 162.126C377.442 164.344 381.926 160.85 384.01 161.525C386.093 162.2 387.76 164.866 388.345 167.404C388.931 169.937 391.118 170.031 390.642 168.434C390.166 166.837 387.165 165.182 386.376 160.752C385.587 156.321 385.791 156.676 384.709 155.4C383.628 154.124 383.439 150.147 379.516 146.899C376.802 144.657 379.927 142.844 382.675 139.646C382.859 139.601 383.038 139.547 383.211 139.473C385.324 138.601 386.793 137.63 388.082 138.088C389.367 138.552 391.282 139.912 392.006 139.739C392.735 139.567 393.643 140.735 394.908 140.868C396.178 141.001 396.347 141.745 397.309 141.725C398.271 141.705 397.646 141.06 394.521 140.395C391.401 139.734 392.468 139.015 390.523 138.561C388.578 138.108 388.573 137.95 387.512 136.664C386.45 135.373 385.731 133.698 386.391 133.259C386.391 133.259 386.262 132.914 386.143 132.441C386.495 131.46 386.902 130.578 387.343 129.785C389.06 129.883 390.905 130.559 391.178 130.228C391.446 129.918 388.797 129.923 387.527 129.46C389.551 125.986 392.115 124.305 392.562 123.403C392.745 123.039 393.276 122.457 393.936 121.817C398.604 127.489 399.308 127.572 402.84 128.169C407.056 128.878 412.563 134.614 416.72 135.605C420.881 136.595 425.103 142.134 430.381 140.695C435.664 139.261 439.161 144.716 442.068 146.875C444.98 149.038 444.112 143.686 442.643 140.513L442.673 140.483Z" fill="black"/>
</svg>
