<?xml version="1.0" encoding="utf-8"?>
<!-- Generator: Adobe Illustrator 27.4.0, SVG Export Plug-In . SVG Version: 6.00 Build 0)  -->
<svg version="1.1" id="Layer_1" xmlns="http://www.w3.org/2000/svg" xmlns:xlink="http://www.w3.org/1999/xlink" x="0px" y="0px"
	 viewBox="0 0 512 512" style="enable-background:new 0 0 512 512;" xml:space="preserve">
<style type="text/css">
	.st0{fill:#FCEC00;}
</style>
<path class="st0" d="M512,256C512,114.6,397.4,0,256,0S0,114.6,0,256c0,120,82.7,220.8,194.2,248.5V334.2h-52.8V256h52.8v-33.7
	c0-87.1,39.4-127.5,125-127.5c16.2,0,44.2,3.2,55.7,6.4V172c-6-0.6-16.5-1-29.6-1c-42,0-58.2,15.9-58.2,57.2V256h83.6l-14.4,78.2
	H287v175.9C413.8,494.8,512,386.9,512,256L512,256z"/>
</svg>
