<svg width="27" height="20" viewBox="0 0 27 20" fill="none" xmlns="http://www.w3.org/2000/svg">
<path d="M23.8665 3.02053C22.0574 2.6791 19.462 11.2139 17.3964 10.7822C16.7203 10.641 15.6045 9.43554 15.3836 9.19691C14.9851 8.76638 14.8545 8.52925 14.7921 8.40426C14.2875 7.39324 14.4855 6.18715 14.6932 6.1582C15.0343 6.11056 15.0168 9.28911 16.1941 9.65123C18.1998 10.2683 21.3284 1.98665 23.5908 2.56362C24.7306 2.85432 25.0456 5.23905 25.2421 6.72716C25.7347 10.4578 24.7019 14.6817 23.5662 14.7372C22.4927 14.7897 21.1961 11.1244 21.599 10.8242C21.6342 10.798 21.7073 10.785 21.7748 10.7777C22.1008 10.7428 22.3931 10.9837 22.4271 11.3144L21.8366 11.3775L22.4255 11.3161C22.2575 11.7384 22.0632 12.4199 22.2886 13.1116C22.5994 14.0651 23.4133 14.1348 23.5662 14.7372C23.9887 16.4015 18.7224 19.5925 18.2344 19.0259C18.1459 18.9231 18.2198 18.7027 18.3245 18.4917C18.3187 18.5056 18.3115 18.526 18.3089 18.5514C18.3049 18.5897 18.3097 18.6296 18.3245 18.6669C18.3374 18.6994 18.3577 18.7276 18.3821 18.75C19.5692 18.0599 23.2872 15.7081 24.7186 11.3874C25.4833 9.07935 23.7938 7.14193 23.7463 6.72716C23.6467 5.85624 24.8365 3.20359 23.8667 3.02053H23.8665ZM19.8574 0C22.041 0 23.68 0.871506 24.7896 2.26625C25.7102 3.42436 26.2495 4.93876 26.4173 6.60259C26.5816 8.23738 26.3894 10.0201 25.8499 11.7504C24.7805 15.1805 22.3435 18.4335 18.613 19.9547L18.6134 19.9564C18.493 20.0053 18.3659 20.012 18.2495 19.9821C18.0269 19.9355 17.8212 19.8359 17.6483 19.6947C17.4642 19.5443 17.3169 19.3474 17.2254 19.1197C17.1341 18.8922 17.1036 18.6479 17.1313 18.4103C17.1591 18.1736 17.2459 17.9418 17.3891 17.7416L17.3882 17.7408C17.4283 17.6843 17.4761 17.6378 17.5289 17.5995C18.8879 16.469 19.8785 15.3782 20.4984 14.3282C20.9376 13.5846 21.1886 12.8644 21.2512 12.1668C21.1556 12.1875 21.059 12.2066 20.9621 12.2233C20.599 12.2847 20.2292 12.3171 19.8574 12.3171C18.1112 12.3171 16.5265 11.631 15.378 10.5228C14.2217 9.40701 13.5059 7.86366 13.5059 6.1582C13.5059 4.45273 14.2216 2.90922 15.378 1.79441C16.5266 0.68544 18.1113 0 19.8574 0Z" fill="black"/>
<path d="M10.3606 3.02053C8.55147 2.6791 5.95601 11.2139 3.89044 10.7822C3.2144 10.641 2.0986 9.43554 1.87769 9.19691C1.47917 8.76638 1.34854 8.52925 1.28619 8.40426C0.781604 7.39324 0.97951 6.18715 1.18728 6.1582C1.52837 6.11056 1.51088 9.28911 2.68813 9.65123C4.69389 10.2683 7.82245 1.98665 10.0849 2.56362C11.2246 2.85432 11.5396 5.23905 11.7361 6.72716C12.2288 10.4578 11.196 14.6817 10.0602 14.7372C8.98672 14.7897 7.69018 11.1244 8.09306 10.8242C8.12822 10.798 8.20134 10.785 8.26887 10.7777C8.59485 10.7428 8.88715 10.9837 8.92116 11.3144L8.33064 11.3775L8.91952 11.3161C8.75151 11.7384 8.55722 12.4199 8.78265 13.1116C9.09344 14.0651 9.90732 14.1348 10.0602 14.7372C10.4827 16.4015 5.21647 19.5925 4.72848 19.0259C4.64 18.9231 4.71386 18.7027 4.81852 18.4917C4.81277 18.5056 4.80554 18.526 4.80291 18.5514C4.79897 18.5897 4.80373 18.6296 4.81852 18.6669C4.8315 18.6994 4.85171 18.7276 4.87619 18.75C6.06322 18.0599 9.78122 15.7081 11.2127 11.3874C11.9773 9.07935 10.8762 7.01736 10.8288 6.60259C10.7291 5.73167 11.3305 3.20359 10.3607 3.02053H10.3606ZM6.3515 0C8.53504 0 10.1741 0.871506 11.2836 2.26625C12.2042 3.42436 12.7436 4.93876 12.9113 6.60259C13.0756 8.23738 12.8835 10.0201 12.344 11.7504C11.2746 15.1805 8.83753 18.4335 5.10704 19.9547L5.10745 19.9564C4.9871 20.0053 4.86001 20.012 4.74352 19.9821C4.52096 19.9355 4.31525 19.8359 4.14232 19.6947C3.9583 19.5443 3.811 19.3474 3.71948 19.1197C3.62821 18.8922 3.59765 18.6479 3.62533 18.4103C3.65318 18.1736 3.73993 17.9418 3.88313 17.7416L3.88231 17.7408C3.92231 17.6843 3.97013 17.6378 4.02295 17.5995C5.38193 16.469 6.37253 15.3782 6.99245 14.3282C7.43164 13.5846 7.6827 12.8644 7.7453 12.1668C7.64968 12.1875 7.55307 12.2066 7.45613 12.2233C7.09301 12.2847 6.72324 12.3171 6.3515 12.3171C4.60525 12.3171 3.0206 11.631 1.8721 10.5228C0.715717 9.40693 0 7.86366 0 6.1582C0 4.45273 0.715717 2.90922 1.87219 1.79441C3.02068 0.68544 4.60533 0 6.3515 0Z" fill="black"/>
</svg>
