<svg width="27" height="20" viewBox="0 0 27 20" fill="none" xmlns="http://www.w3.org/2000/svg">
<path d="M2.60768 16.9795C4.41677 17.3209 7.01223 8.78607 9.0778 9.21777C9.75384 9.35903 10.8696 10.5645 11.0906 10.8031C11.4891 11.2336 11.6197 11.4708 11.6821 11.5957C12.1866 12.6068 11.9887 13.8128 11.781 13.8418C11.4399 13.8894 11.4574 10.7109 10.2801 10.3488C8.27435 9.73175 5.14579 18.0133 2.88338 17.4364C1.74359 17.1457 1.42862 14.761 1.23211 13.2728C0.739435 9.54218 1.77226 5.31831 2.90803 5.26283C3.98152 5.21035 5.27806 8.87559 4.87518 9.1758C4.84002 9.202 4.7669 9.21502 4.69938 9.22228C4.37339 9.25724 4.08109 9.01627 4.04708 8.68561L4.6376 8.62253L4.04872 8.68394C4.21673 8.26158 4.41102 7.58014 4.18559 6.88836C3.8748 5.93492 3.06091 5.86525 2.90803 5.26283C2.48551 3.5985 7.75177 0.407509 8.23976 0.974133C8.32824 1.07693 8.25438 1.29729 8.14972 1.5083C8.15547 1.49437 8.1627 1.47401 8.16533 1.44856C8.16927 1.41026 8.16451 1.37038 8.14972 1.33308C8.13674 1.30062 8.11653 1.27242 8.09205 1.24998C6.90502 1.94009 3.18702 4.29195 1.75559 8.6126C0.990905 10.9206 2.68038 12.8581 2.72787 13.2728C2.82752 14.1438 1.6377 16.7964 2.60751 16.9795H2.60768ZM6.61675 20C4.4332 20 2.79416 19.1285 1.68461 17.7338C0.763999 16.5756 0.224664 15.0612 0.0569067 13.3974C-0.107399 11.7626 0.0847578 9.97989 0.624256 8.24956C1.69364 4.81952 4.13071 1.56646 7.8612 0.0453053L7.86079 0.0436363C7.98114 -0.00534248 8.10823 -0.0120182 8.22473 0.0178528C8.44728 0.0644951 8.65299 0.164122 8.82592 0.305298C9.00994 0.455736 9.15724 0.652565 9.24876 0.880266C9.34003 1.1078 9.3706 1.35211 9.34291 1.58965C9.31506 1.82636 9.22831 2.05824 9.08511 2.2584L9.08593 2.25924C9.04593 2.31573 8.99811 2.3622 8.94529 2.4005C7.58631 3.531 6.59571 4.62178 5.97579 5.67184C5.5366 6.41535 5.28554 7.13559 5.22294 7.83321C5.31856 7.81252 5.41517 7.79341 5.51211 7.77672C5.87523 7.71531 6.245 7.68294 6.61675 7.68294C8.36299 7.68294 9.94764 8.36904 11.0961 9.47718C12.2525 10.593 12.9683 12.1363 12.9683 13.8418C12.9683 15.5473 12.2526 17.0908 11.0961 18.2056C9.94756 19.3146 8.36291 20 6.61675 20Z" fill="black"/>
<path d="M16.1136 16.9795C17.9227 17.3209 20.5182 8.78607 22.5838 9.21777C23.2598 9.35903 24.3756 10.5645 24.5965 10.8031C24.995 11.2336 25.1257 11.4708 25.188 11.5957C25.6926 12.6068 25.4947 13.8128 25.2869 13.8418C24.9458 13.8894 24.9633 10.7109 23.7861 10.3488C21.7803 9.73175 18.6518 18.0133 16.3894 17.4364C15.2496 17.1457 14.9346 14.761 14.7381 13.2728C14.2454 9.54218 15.2782 5.31831 16.414 5.26283C17.4875 5.21035 18.784 8.87559 18.3812 9.1758C18.346 9.202 18.2729 9.21502 18.2053 9.22228C17.8794 9.25724 17.5871 9.01627 17.5531 8.68561L18.1436 8.62253L17.5547 8.68394C17.7227 8.26158 17.917 7.58014 17.6916 6.88836C17.3808 5.93492 16.5669 5.86525 16.414 5.26283C15.9915 3.5985 21.2577 0.407509 21.7457 0.974133C21.8342 1.07693 21.7604 1.29729 21.6557 1.5083C21.6614 1.49437 21.6687 1.47401 21.6713 1.44856C21.6752 1.41026 21.6705 1.37038 21.6557 1.33308C21.6427 1.30062 21.6225 1.27242 21.598 1.24998C20.411 1.94009 16.693 4.29195 15.2616 8.6126C14.4969 10.9206 15.598 12.9826 15.6455 13.3974C15.7451 14.2683 15.1437 16.7964 16.1135 16.9795H16.1136ZM20.1227 20C17.9392 20 16.3001 19.1285 15.1906 17.7338C14.27 16.5756 13.7306 15.0612 13.5629 13.3974C13.3986 11.7626 13.5907 9.97989 14.1302 8.24956C15.1996 4.81952 17.6367 1.56646 21.3672 0.0453053L21.3668 0.0436363C21.4871 -0.00534248 21.6142 -0.0120182 21.7307 0.0178528C21.9532 0.0644951 22.159 0.164122 22.3319 0.305298C22.5159 0.455736 22.6632 0.652565 22.7547 0.880266C22.846 1.1078 22.8766 1.35211 22.8489 1.58965C22.821 1.82636 22.7343 2.05824 22.5911 2.2584L22.5919 2.25924C22.5519 2.31573 22.5041 2.3622 22.4513 2.4005C21.0923 3.531 20.1017 4.62178 19.4818 5.67184C19.0426 6.41535 18.7915 7.13559 18.7289 7.83321C18.8245 7.81252 18.9211 7.79341 19.0181 7.77672C19.3812 7.71531 19.751 7.68294 20.1227 7.68294C21.869 7.68294 23.4536 8.36904 24.6021 9.47718C25.7585 10.5931 26.4742 12.1363 26.4742 13.8418C26.4742 15.5473 25.7585 17.0908 24.602 18.2056C23.4535 19.3146 21.8689 20 20.1227 20Z" fill="black"/>
</svg>
