<svg width="225" height="106" viewBox="0 0 225 106" fill="none" xmlns="http://www.w3.org/2000/svg">
<path d="M224.311 71.2414C223.567 69.6321 221.569 71.7487 219.128 70.1344C216.69 68.52 214.415 68.6425 212.007 68.3176C209.597 67.9927 209.013 67.1006 206.543 64.7066C205.741 63.9294 203.768 62.2201 201.377 60.2284C201.525 60.1059 201.618 60.0334 201.618 60.0334C201.618 60.0334 201.103 59.4437 202.468 57.8743C203.833 56.3024 203.85 56.3149 204.76 54.3582C205.67 52.4015 206.877 52.1216 209.561 51.9267C212.243 51.7343 211.492 51.4244 212.583 50.8521C213.676 50.2798 214.337 50.0524 212.505 50.2299C210.67 50.4098 209.177 51.2694 207.359 51.8667C205.542 52.4665 206.706 48.3106 208.674 47.2835C210.64 46.2565 213.452 45.9916 216.134 46.5788C218.816 47.1661 218.284 46.3514 220.066 46.084C221.848 45.8141 224.668 45.2743 224.668 45.2743C223.044 45.4243 220.704 45.7117 219.666 45.5917C218.625 45.4743 218.025 44.5396 217.044 45.012C216.067 45.4843 213.294 45.9191 211.341 45.8891C209.385 45.8591 210.941 44.0323 212.995 43.1552C215.049 42.2756 215.144 43.1227 217.806 43.2901C220.468 43.4576 221.657 43.4351 220.639 42.9728C219.09 42.2681 211.854 42.2381 210.491 42.288C209.127 42.3355 208.317 40.9486 205.374 41.6333C202.43 42.3155 204.886 39.2743 204.175 38.0597C203.466 36.8452 200.764 37.1051 200.052 36.8027C199.344 36.5054 200.246 34.9985 199.517 34.971C198.791 34.9435 199.155 34.0463 199.444 32.2521C199.731 30.4553 205.665 26.4969 207.297 23.743C208.928 20.9891 208.561 21.0366 209.682 20.1419C210.803 19.2448 209.413 18.0503 210.715 17.6179C212.015 17.1881 211.947 13.7045 210.788 14.3867C209.629 15.069 209.755 19.4422 208.083 20.0145C206.412 20.5842 208.021 22.2186 205.17 22.4935C202.322 22.7634 196.29 25.2499 195.789 25.4048C195.289 25.5548 195.915 23.8779 197.348 22.7634C198.783 21.6488 197.056 21.3464 200.349 19.1123C203.644 16.8782 204.602 14.4017 203.539 15.5863C202.476 16.7708 202.488 17.2206 200.055 18.775C197.624 20.3318 195.586 22.426 195.204 23.1982C194.822 23.9704 195.817 23.3906 195.867 24.0504C195.918 24.7076 193.804 26.6693 192.652 27.8413C191.501 29.0134 190.094 28.3261 190.747 26.7268C191.401 25.1274 194.857 22.1786 195.397 21.0965C195.938 20.0145 195.118 20.0445 194.397 21.3914C193.68 22.7359 190.719 26.1095 190.081 26.7293C189.44 27.349 188.794 27.5939 187.884 27.2291C186.977 26.8667 187.527 25.5173 185.594 24.96C183.664 24.3977 183.196 23.3256 184.508 21.9087C185.82 20.4943 186.308 17.9378 185.561 17.6704C184.815 17.4005 187.225 15.4863 185.735 16.2285C184.244 16.9707 184.335 15.9386 184.712 14.0219C185.091 12.1101 187.271 11.0781 187.024 10.6607C186.778 10.2409 186.617 9.2288 187.153 7.67192C187.685 6.11255 186.703 6.62984 186.054 7.25959C185.408 7.89184 186.077 9.03638 186.077 9.03638C185.496 9.41373 185.652 9.95351 185.652 9.95351C184.636 10.5958 184.478 11.7003 184.272 12.9048C184.066 14.1068 182.729 16.6508 182.729 16.6508C180.625 17.6804 180.187 20.6767 176.445 22.1361C172.951 23.4981 171.317 21.4839 171.317 21.4839C171.317 21.4839 168.708 26.4094 167.574 22.8283C169.588 22.0637 171.324 21.4064 172.114 20.8616C173.989 19.5622 176.216 18.8649 176.937 18.66C177.078 18.6225 177.174 18.4976 177.166 18.3526C177.161 18.1752 177.063 18.0153 176.907 17.9253C176.754 17.8378 176.565 17.8353 176.409 17.9178C175.696 18.2727 174.484 18.8125 172.923 19.2748C171.935 19.5672 170.163 20.3293 168.009 21.3664C168.65 20.2419 167.657 20.6842 168.049 19.7546C168.469 18.7525 169.037 17.7079 168.323 18.4826C168.097 18.7275 167.911 18.8974 167.707 19.0699C168.693 14.8141 171.608 9.2288 171.9 7.18962C172.222 4.93802 173.227 2.84386 173.569 2.18163C173.637 2.05418 173.609 1.89924 173.499 1.80678C173.363 1.68932 173.179 1.65184 173.009 1.70432C172.84 1.7568 172.709 1.89174 172.664 2.06167C172.438 2.82387 172.011 4.07087 171.287 5.52279C170.608 6.88224 169.517 10.1909 168.426 14.0894C168.411 14.0894 168.396 14.0894 168.381 14.0894C166.772 14.1643 167.976 15.0565 166.028 15.3788C164.078 15.6987 165.02 16.271 163.567 18.4151C163.022 19.2198 162.203 20.5218 161.406 21.7338C160.833 21.4714 160.536 21.7038 159.832 21.9937C160.579 20.3493 161.665 18.585 162.449 17.7029C163.643 16.3584 162.577 15.1414 162.185 16.6358C161.919 17.6629 160.536 20.2769 159.282 22.1936C158.98 22.2886 158.621 22.3785 158.173 22.451C156.811 22.6659 154.348 23.1557 152.57 23.4131C153.01 22.6384 153.149 22.351 153.521 22.0037C155.114 21.5164 156.871 21.179 157.935 21.1515C159.739 21.104 159.908 19.4997 158.54 20.2344C157.806 20.6292 155.891 21.1915 154.008 21.6063C154.016 21.6013 154.023 21.5938 154.033 21.5888C155.18 20.7242 153.825 19.4897 155.139 19.0973C156.451 18.705 156.484 15.2189 155.305 15.8686C154.126 16.5184 154.126 20.8916 152.44 21.4164C151.982 21.5589 151.764 21.7863 151.63 22.0462C150.954 22.1386 150.376 22.1836 149.989 22.1536C148.26 22.0212 146.05 23.8629 145.583 22.7409C145.115 21.6188 146.146 20.7442 147.619 21.4989C149.092 22.2536 149.001 20.0045 147.744 19.9095C146.49 19.8146 146.033 21.3439 145.754 20.0869C145.718 19.927 145.683 19.7871 145.646 19.6671C148.272 17.7154 149.019 15.8187 148.026 16.8607C147.111 17.8229 146.958 18.2952 145.492 19.2898C145.241 18.8374 144.841 18.825 143.856 18.75C142.813 18.67 141.166 20.8017 139.917 21.6288C139.962 21.214 139.525 21.2965 139.03 21.9437C138.969 21.9362 138.909 21.9237 138.854 21.8987C137.682 21.3664 140.01 16.321 136.981 18.4601C134.236 20.3993 134.744 14.8191 133.427 18.69C132.987 19.9795 130.355 17.0257 130.162 18.1552C130.142 18.2777 130.119 18.3901 130.096 18.4951C130.066 18.4701 130.036 18.4476 130.001 18.4326C129.262 18.1427 131.728 16.2985 130.214 16.9957C128.704 17.6954 128.824 16.6658 129.257 14.7616C129.692 12.8598 131.899 11.8902 131.665 11.4679C131.431 11.0406 131.3 10.026 131.879 8.4841C132.454 6.94222 131.459 7.42952 130.79 8.03928C130.127 8.65153 130.762 9.81606 130.762 9.81606C130.172 10.1759 130.31 10.7207 130.31 10.7207C129.274 11.333 129.086 12.4325 128.847 13.6295C128.606 14.8266 127.196 17.3306 127.196 17.3306C127.052 17.3955 126.914 17.4705 126.783 17.5555C126.339 16.271 126.557 14.2868 127.09 12.0752C127.894 8.75899 124.609 9.78108 125.564 11.5279C126.517 13.2772 125.652 16.4934 124.926 17.8129C124.197 19.1298 121.952 14.7716 121.555 12.0452C121.158 9.31876 121.304 10.0135 118.049 5.28538C117.873 5.03048 117.707 4.77808 117.546 4.53318C117.91 3.63854 118.275 2.94382 118.456 2.61395C118.529 2.489 118.504 2.33406 118.396 2.2366C118.265 2.11665 118.081 2.07167 117.908 2.11915C117.737 2.16663 117.604 2.29908 117.554 2.46651C117.44 2.81137 117.28 3.26119 117.068 3.77849C116.571 2.96381 116.153 2.20911 115.796 1.52439C115.558 1.41443 115.294 1.39194 114.99 1.4919C114.942 1.51439 114.907 1.54438 114.877 1.57437C115.437 2.52899 116.07 3.58106 116.691 4.64064C116.51 5.03298 116.309 5.44782 116.076 5.88514C115.359 7.2271 114.173 10.5008 112.971 14.3667C112.956 14.3667 112.941 14.3667 112.926 14.3667C111.317 14.3942 112.494 15.3214 110.536 15.5888C108.577 15.8536 109.502 16.4509 107.989 18.5551C107.16 19.7096 105.709 21.9062 104.631 23.3431C104.297 23.3681 103.937 23.3881 103.558 23.4031C104.246 21.4989 105.843 18.9224 106.891 17.8104C108.125 16.5009 107.092 15.2539 106.66 16.7383C106.29 18.0053 104.126 21.6813 102.686 23.4281C100.924 23.4556 99.0006 23.3731 97.9047 23.1557C98.8548 22.3161 99.0107 19.7446 97.9298 20.2044C97.3039 20.4693 96.8816 21.7113 96.394 22.9183C94.8808 22.9408 93.1967 23.5805 93.0358 22.6209C92.8347 21.4214 94.0413 20.8042 95.3031 21.8737C96.5624 22.9433 96.9922 20.7342 95.7907 20.3568C94.5918 19.982 93.7975 21.3639 93.81 20.0794C93.8226 18.795 93.5938 18.765 92.2692 18.3451C90.947 17.9278 87.6944 21.0616 86.6739 20.2769C85.6559 19.4922 89.0794 15.1089 85.6408 16.5034C82.5239 17.7679 84.2986 12.45 82.1268 15.9211C81.4029 17.0757 79.5177 13.602 79.0703 14.6616C78.6228 15.7187 78.3991 15.9761 76.7954 14.894C75.1943 13.8095 75.9383 11.0931 77.4817 8.04178C79.025 4.9955 75.594 5.2454 76.1218 7.16213C76.5265 8.64403 75.6794 10.7282 74.8047 12.1176C74.8876 11.6678 75.0611 11.128 75.3677 10.5083C76.0992 9.03138 75.0586 9.41622 74.3321 9.95851C73.6082 10.5008 74.1235 11.7228 74.1235 11.7228C73.5001 12.0227 73.5831 12.5775 73.5831 12.5775C73.4323 12.6474 73.2965 12.7299 73.1733 12.8199C72.4796 11.6678 71.9291 8.70651 72.0975 6.75479C72.3062 4.35825 72.3187 4.59316 70.9337 1.14204C70.6321 0.7472 70.3204 0.364854 69.9987 0C69.8152 0.182427 69.7222 0.362355 69.6845 0.544782C69.8831 1.2595 70.0615 1.95172 70.1998 2.59146C71.1826 7.13464 72.6229 12.7199 72.2257 12.9573C71.8261 13.1922 70.4436 10.7882 69.4004 8.2317C68.3573 5.67273 68.1889 3.56857 68.2366 5.61775C68.2844 7.66693 71.0494 12.2476 71.3761 13.3272C71.6979 14.4067 70.8684 14.4367 69.0259 12.1276C67.186 9.81606 65.9493 5.14294 65.7783 7.54198C65.6049 9.93852 69.0888 12.9223 69.4884 14.4742C69.8881 16.0261 69.1139 16.9257 69.1139 16.9257V16.9207C68.302 17.2481 67.2915 18.0103 66.7084 17.1381C66.1277 16.266 65.9618 16.4334 65.1248 16.0885C64.2903 15.7462 62.7369 14.2968 62.028 13.5396C61.3192 12.7824 60.266 12.0152 61.0251 13.0648C61.7817 14.1143 65.4918 16.7383 65.8864 17.7254C66.2836 18.71 65.4893 20.2444 64.7101 20.9391C64.0012 21.5689 64.8131 22.0786 64.7955 22.7259C64.2425 23.0258 63.6066 23.2832 62.8575 23.4681C62.4478 23.5705 62.0683 23.6305 61.7164 23.6605C61.6661 23.5281 61.6208 23.3881 61.5831 23.2407C61.3167 22.1986 60.3816 22.8908 60.8567 23.4981C60.902 23.5556 60.9371 23.6155 60.9673 23.678C58.7352 23.5855 57.858 22.1611 57.858 22.1611C57.858 22.1611 57.7851 22.2636 57.6619 22.421C57.2899 21.7238 56.943 20.9391 56.6464 20.1419C56.2367 19.0349 55.6435 18.2377 55.2011 17.8403C56.9204 14.0544 59.801 9.82106 60.2937 8.06677C60.907 5.87514 62.1738 3.92842 62.6011 3.31367C62.6866 3.19622 62.6791 3.03878 62.581 2.93132C62.4629 2.79888 62.2844 2.7364 62.1085 2.76639C61.935 2.79638 61.7893 2.91383 61.7214 3.07627C61.3971 3.80098 60.8115 4.9855 59.9041 6.33246C59.0545 7.59446 57.5413 10.7332 55.9527 14.4592C55.9376 14.4592 55.9225 14.4542 55.9074 14.4542C54.3037 14.3218 55.3796 15.3613 53.4064 15.4288C51.4307 15.4938 52.2904 16.1835 50.571 18.1227C48.8517 20.062 44.737 25.2424 45.3025 23.4081C45.8681 21.5738 48.1957 18.4526 49.5556 17.2731C50.9154 16.0935 50.0155 14.7491 49.4324 16.181C48.8517 17.6129 45.486 22.0836 44.0684 23.0757C42.6507 24.0678 42.1304 26.8892 41.0495 26.3219C39.9687 25.7547 40.205 24.4277 41.8212 24.0753C43.44 23.7255 41.9293 22.0487 40.8987 22.7709C39.8732 23.4931 40.499 24.96 39.4785 24.1703C38.458 23.3806 38.2946 23.5456 37.1585 24.3402C36.0248 25.1349 36.5678 29.6056 35.3185 29.938C34.0743 30.2704 32.634 24.9075 31.6713 28.4736C30.7991 31.7073 27.6143 27.0841 29.0798 30.9026C29.5674 32.1746 25.6437 31.5648 26.2218 32.5594C26.7999 33.554 26.8703 33.8864 25.0303 34.5012C23.1929 35.1134 21.4686 32.8818 19.9579 29.813C18.4497 26.7468 16.5771 29.6156 18.4296 30.3578C20.2847 31.1025 21.6797 34.1288 21.9663 35.6057C22.2478 37.0826 17.7258 35.1459 15.6697 33.2967C13.6161 31.4474 14.1741 31.8897 8.63412 30.3078C3.1042 28.6985 0.562946 26.4794 0.0275486 27.3965C-0.510362 28.3161 6.95755 30.2779 11.193 32.2521C15.4259 34.2213 20.7723 36.4604 20.722 36.9202C20.6692 37.3775 17.9068 37.0202 15.2273 36.2979C12.5478 35.5757 10.7581 34.4362 12.4297 35.6382C14.1012 36.8377 19.4426 37.4225 20.5033 37.8173C21.5641 38.2147 21.084 38.8894 18.1205 38.9519C15.1569 39.0119 10.6651 37.1626 12.4824 38.7495C14.2973 40.3363 18.7941 39.3817 20.2796 40.0065C21.7652 40.6312 22.0165 41.7857 22.0165 41.7857H22.0115C21.7853 42.6254 21.7828 43.8849 20.7321 43.8174C19.6814 43.75 19.7166 43.9824 18.9349 44.4347C18.1556 44.887 16.0543 45.2394 15.0212 45.3443C13.9856 45.4468 12.7338 45.8166 14.0359 45.8516C15.3354 45.8891 19.6814 44.5371 20.712 44.822C21.7426 45.1044 22.4891 46.6613 22.5746 47.6959C22.6575 48.7305 23.7358 48.2232 24.1958 48.8504C24.6583 49.4802 25.332 49.7251 24.8066 50.2499C24.2813 50.7771 23.5725 49.9125 23.7987 50.4698C23.9269 50.7846 24.1983 50.8321 24.3894 50.9196C24.2386 51.057 24.0827 51.1895 23.9244 51.3169C23.6931 51.4994 23.4769 51.6593 23.2859 51.7992C23.0471 51.7542 22.7907 51.6743 22.5268 51.5643C21.5314 51.1445 21.5188 52.304 22.293 52.2965C22.3986 52.2965 22.5017 52.309 22.5972 52.3365C22.4715 52.474 22.5494 52.5264 22.9365 52.494C23.3236 52.7713 23.4619 53.3036 22.9642 53.8584C22.2428 54.6631 19.5607 54.3582 17.0597 53.5985C14.5587 52.8388 12.7187 53.6885 14.5185 53.9209C15.1066 53.9984 16.0191 54.0758 17.027 54.1658C16.6852 54.3957 16.5218 54.963 16.7983 55.4528C16.7983 55.4528 17.6177 56.5948 18.1531 55.9201C18.6533 55.2953 18.4095 54.6331 17.8163 54.2383C19.6814 54.4132 21.6546 54.6381 22.3936 54.9805C23.6529 55.5627 24.1657 57.5694 22.6525 58.4316C21.1418 59.2962 20.0459 60.4558 21.5364 60.9231C23.032 61.3929 22.469 59.756 23.6328 58.629C24.7941 57.5019 25.0856 57.5744 25.0253 59.1238C24.9625 60.6707 28.0944 60.4982 28.9063 59.2662C29.0571 59.0388 29.2331 58.9289 29.4166 58.9164C29.399 59.7061 29.781 60.2408 29.9671 60.7581C30.1254 61.2055 30.3466 61.8752 30.6859 62.4999C30.6809 62.5199 30.6784 62.5399 30.6734 62.5599C30.0927 64.859 24.5653 66.6908 25.807 66.8707C27.0513 67.0481 25.5582 69.897 25.5205 70.8241C25.4853 71.7512 26.5511 73.8154 26.4681 71.7962C26.3827 69.7795 30.1128 66.8432 30.3441 67.5179C30.5753 68.1927 28.0517 69.9445 28.8284 70.1169C29.6026 70.2893 31.3219 68.665 32.2947 68.1477C32.4932 68.0427 32.8326 67.9403 33.2548 67.8478C30.4346 69.3722 31.8422 69.7945 31.89 70.7866C31.9402 71.7987 29.8439 72.2735 30.422 73.0157C31.0001 73.7579 29.9243 75.5172 28.1346 77.239C26.3475 78.9633 28.0592 80.8726 28.6399 78.8184C29.218 76.7667 30.1531 75.1724 31.2993 73.8329C32.4455 72.4934 34.7957 70.7092 36.1656 69.7645C37.0303 69.1673 37.7894 69.4921 38.4731 69.8045C38.081 71.1065 37.3922 72.6984 37.0931 73.678C36.5602 75.4198 36.9875 74.785 37.8145 75.6747C38.6415 76.5643 38.0508 78.2236 38.6893 79.0658C39.3302 79.908 40.1622 76.3544 39.3227 74.75C38.5208 73.2231 38.8426 71.3639 39.9913 70.1619C40.954 70.1994 42.2736 70.5142 42.8442 72.4185C43.4978 74.6051 42.9423 79.2582 41.1827 81.5598C39.4257 83.8614 39.3302 86.1755 38.3122 87.9472C37.2942 89.719 37.6134 91.3659 36.9524 92.0856C36.2938 92.8053 36.7739 94.8345 34.7228 97.2085C32.6742 99.5801 34.582 99.2827 34.6549 98.448C34.7303 97.6109 35.9067 95.7091 37.2741 94.7645C38.6415 93.8224 36.3617 93.7399 38.0382 92.1306C39.7148 90.5212 40.6172 89.749 40.2175 87.6524C39.8179 85.5582 41.3738 82.5219 43.9754 80.3153C46.5769 78.1062 49.6159 75.5547 52.6372 75.1074C52.9162 75.0649 53.1953 75.1224 53.4315 75.2573C53.2807 75.5047 53.1349 75.7971 52.959 76.142C52.3683 77.2965 51.9485 76.022 51.667 76.9167C51.3855 77.8088 50.5585 78.7209 50.1186 78.8734C49.6812 79.0258 49.8371 80.1379 50.7747 78.676C51.7122 77.2115 52.8836 77.219 53.1601 76.7517C53.3084 76.5043 53.6477 76.3769 54.0474 76.192C54.075 76.4568 54.0197 76.7292 53.8739 76.9616C53.2857 77.9437 52.6372 78.9409 51.9108 79.7905C49.8471 82.2045 49.9477 88.3396 47.5271 92.313C47.5271 92.313 46.5794 93.2351 47.2078 93.9398C47.8337 94.6421 47.8513 93.8724 48.1756 92.4679C48.4998 91.061 52.2149 87.6474 54.4646 83.3491C55.6611 81.0575 56.0055 79.0308 56.3297 77.274C57.4508 78.9109 58.3959 80.8626 59.0369 83.2016H59.0394C59.5371 85.0234 60.173 86.7177 59.4893 87.6923C58.8031 88.6645 59.1299 89.2442 59.7004 90.4088C60.2685 91.5758 58.9941 91.136 59.5396 91.9007C60.085 92.6628 60.3138 93.8699 60.1705 94.3097C60.0297 94.7495 61.0125 95.2968 60.4093 93.6724C59.8035 92.0456 60.5174 91.121 60.3113 90.6212C60.1077 90.1189 60.6481 89.3567 60.4772 88.2471C60.3087 87.1401 60.7662 85.9505 60.3062 84.4212C59.8488 82.8918 60.5676 80.4278 61.4097 79.4606C61.9074 78.8884 62.4352 78.7609 62.8902 78.7934C62.5408 79.1233 62.1437 79.4282 61.6787 79.7006C60.6682 80.2928 61.9778 81.01 62.6087 79.778C62.7897 79.4257 62.9832 79.1058 63.1768 78.8334C63.3753 78.8759 63.5538 78.9409 63.6996 79.0008C64.2199 79.2107 65.1298 78.7559 65.6753 79.5206C66.0171 80.0004 66.5023 80.7301 66.8969 81.4324C66.3967 81.4249 65.9015 81.115 65.5647 80.4003C64.8533 78.8859 63.599 78.7859 63.0285 80.0604C62.4579 81.3324 65.1349 82.412 65.3586 83.494C65.5823 84.5761 64.8232 85.9755 63.8479 86.8727C62.8726 87.7673 63.3854 88.7469 63.9685 88.1372C64.5542 87.5249 64.5341 85.7956 66.2961 84.3362C66.9949 83.7589 67.3971 83.439 67.651 83.2116C67.8495 83.9588 67.9275 84.7635 67.8219 85.6657C67.6862 86.8252 69.051 86.2204 68.4478 84.9759C68.0808 84.2187 67.8621 83.5115 67.8546 83.0167C68.0582 82.7968 68.1084 82.6394 68.2492 82.262C68.5056 81.5673 69.8403 80.6552 70.4763 78.7484C71.4365 79.3807 72.2106 80.1604 72.4746 80.7926C73.0125 82.0671 72.3816 83.3666 70.7352 83.0142C69.0913 82.6619 68.2542 83.594 68.9279 84.8185C69.6015 86.0405 72.085 84.5736 73.0879 85.0509C74.0908 85.5282 74.7519 86.9751 74.8801 88.2896C75.0058 89.6016 76.1017 89.7915 75.966 88.9568C75.8302 88.1247 74.4327 87.0926 74.3296 84.816C74.2265 82.5369 74.307 82.7268 73.847 82.0146C73.387 81.3024 73.5554 79.2907 71.7984 77.4015C71.62 77.209 71.5043 77.0291 71.4415 76.8592C72.1629 76.6618 73.3267 77.1441 74.7117 77.404C74.777 77.4714 74.8474 77.5364 74.9228 77.5964C75.8403 78.3011 76.6421 78.6985 76.7603 79.3782C76.8784 80.0579 76.7603 81.2349 77.0192 81.5098C77.2781 81.7847 76.989 82.4769 77.2504 83.0642C77.5118 83.6515 77.2253 83.9139 77.4741 84.3312C77.7255 84.746 77.8537 84.3087 77.361 82.7793C76.8683 81.2474 77.454 81.5348 77.1649 80.5702C76.8784 79.6056 76.9438 79.5631 77.2479 78.7759C77.552 77.9862 78.1126 77.2515 78.472 77.4265C78.472 77.4265 78.5927 77.284 78.7711 77.1116C79.294 77.0191 79.7866 76.9741 80.2491 76.9691C80.6362 77.7438 80.8021 78.7209 81.0183 78.7584C81.2244 78.7959 80.5533 77.6414 80.4377 76.9691C82.4837 76.9791 83.8763 77.6764 84.3865 77.6439C84.5952 77.6314 84.9873 77.7163 85.4347 77.8463C84.1 81.3149 84.2382 81.6473 84.8641 83.3391C85.6107 85.3608 84.4594 89.2142 85.0652 91.2809C85.6735 93.3501 84.2835 96.5913 86.2491 98.538C88.2147 100.487 86.6789 103.389 86.4552 105.205C86.229 107.022 88.3806 105.295 89.4162 103.853C90.4519 102.411 87.6115 101.739 87.8075 98.8329C88.0061 95.9265 86.7694 94.0248 85.857 91.7857C84.942 89.5466 85.4297 88.597 86.2969 85.2783C86.5784 84.2012 87.0887 81.6473 87.6391 78.596C87.8201 78.6635 87.9307 78.7059 87.9307 78.7059C87.9307 78.7059 88.1896 77.9687 90.2357 78.3661C91.3291 78.5785 91.8394 78.681 92.4049 78.7059C92.1812 79.0133 91.9349 79.3282 91.6684 79.6431C90.0648 81.5398 91.9625 83.2641 92.332 81.1625C92.4879 80.2703 92.7191 79.4581 93.0082 78.7034C93.3752 78.6885 93.8176 78.6535 94.4435 78.5985C96.6026 78.4111 97.4472 79.3132 98.9503 81.5323C100.451 83.7489 100.348 82.9468 101.389 83.6065C102.429 84.2662 102.96 84.7235 101.894 83.2291C100.825 81.7347 99.3324 80.8726 97.9097 79.6031C97.0375 78.8259 98.2742 78.1262 99.7949 77.9737C101.296 78.7709 102.283 80.5627 103.231 81.4773C104.174 82.3895 104.4 81.2474 104.262 79.9055C104.737 80.4253 105.177 81.015 105.571 81.6573C105.43 82.0071 105.272 82.332 105.091 82.6269C103.575 85.0934 103.716 87.405 102.884 89.2717C102.05 91.136 102.535 92.7428 101.952 93.525C101.368 94.3072 102.055 96.2789 100.252 98.8454C98.4552 101.409 100.323 100.925 100.313 100.085C100.305 99.2452 101.28 97.2335 102.545 96.1565C103.809 95.0819 101.532 95.2293 103.037 93.46C104.541 91.6907 105.36 90.8311 104.749 88.7869C104.282 87.2275 104.898 85.0084 106.265 82.9517C106.504 83.464 106.715 83.9988 106.886 84.5461C107.705 87.1526 108.153 86.2879 109.271 87.6923C110.392 89.0943 112.265 91.2609 112.265 91.2609C111.327 89.9339 109.915 88.0572 109.502 87.1026C109.09 86.1455 109.605 85.1634 108.706 84.5536C108.198 84.2087 107.416 83.3641 106.662 82.387C106.989 81.9471 107.348 81.5173 107.74 81.11C107.997 80.8426 108.258 80.5727 108.525 80.3003C110.045 81.5173 109.46 82.0746 110.586 84.3562C111.762 86.7352 112.37 87.7498 112.272 86.6428C112.164 85.4657 110.397 82.0646 109.093 79.7255C109.927 78.8859 110.804 78.0587 111.712 77.3265C113.306 76.9916 115.309 76.5943 117.332 75.9471C117.403 76.2219 117.375 76.5168 117.247 76.7792C116.762 77.8138 116.219 78.8709 115.58 79.7905C113.773 82.3995 114.494 88.492 112.491 92.6903C112.491 92.6903 111.642 93.7024 112.338 94.3422C113.034 94.9769 112.971 94.2097 113.152 92.7803C113.331 91.3484 116.681 87.5799 118.481 83.0767C119.439 80.6777 119.577 78.626 119.718 76.8467C120.535 77.8113 121.291 78.9134 121.96 80.1704C121.538 80.9625 121.07 81.5623 120.434 81.7372C119.283 82.0521 119.162 82.7043 118.856 83.9638C118.546 85.2233 117.845 84.0763 117.775 85.0109C117.707 85.943 117.109 87.0201 116.716 87.2675C116.327 87.5149 116.732 88.562 117.31 86.9252C117.888 85.2883 119.029 85.0284 119.19 84.5111C119.353 83.9963 120.261 83.7489 120.839 82.7868C121.218 82.1596 121.824 81.6723 122.375 81C122.598 81.4723 122.812 81.9596 123.011 82.4719H123.013C123.694 84.2362 124.499 85.8581 123.915 86.8952C123.332 87.9297 123.714 88.4745 124.401 89.5766C125.084 90.6811 123.772 90.3713 124.39 91.076C125.009 91.7807 125.361 92.9577 125.263 93.4101C125.167 93.8624 126.203 94.3097 125.434 92.7503C124.667 91.1934 125.283 90.2013 125.026 89.724C124.773 89.2467 125.233 88.432 124.951 87.345C124.67 86.2604 125.006 85.0334 124.39 83.5565C123.78 82.0796 124.245 79.5556 124.986 78.5085C125.728 77.4614 126.68 77.6639 127.218 77.8213C127.759 77.9787 128.616 77.4365 129.237 78.1387C129.563 78.511 130.008 79.0483 130.418 79.6006C130.335 80.5552 130.144 82.0046 129.842 82.8468C129.513 83.7664 128.998 84.6411 128.153 85.4457C127.306 86.2529 128.747 86.6528 129.078 85.3108C129.413 83.9688 129.968 82.9792 130.501 83.0917C131.036 83.2016 130.662 82.0121 131.177 81.7847C131.323 81.7197 131.476 81.7247 131.622 81.7222C131.871 82.4145 132.012 83.1767 131.999 84.0363C131.982 85.2033 133.279 84.4661 132.55 83.2866C132.193 82.7093 131.936 82.1546 131.821 81.7022C132.092 81.6423 132.283 81.3899 132.228 80.2603C132.173 79.1233 132.796 79.1408 133.45 79.4207C133.824 79.8955 134.138 80.4752 134.385 81.085C132.886 81.02 132.258 81.9846 133.012 83.0767C133.399 83.6365 134.151 83.5165 134.94 83.2916C134.993 83.8189 134.97 84.2887 134.865 84.6361C134.462 85.958 133.143 86.5603 132.1 85.2458C131.059 83.9339 129.815 84.1213 129.551 85.4907C129.29 86.8602 132.142 87.3025 132.607 88.3046C133.075 89.3067 132.658 90.8436 131.911 91.9356C131.167 93.0277 131.891 93.8649 132.318 93.1377C132.748 92.4105 132.331 90.7311 133.711 88.9094C135.091 87.0876 135.031 87.285 135.134 86.4453C135.217 85.7556 136.187 84.6586 136.453 82.8693C136.725 82.8243 136.971 82.8193 137.172 82.8893C138.218 83.2616 139.025 84.6361 139.284 85.9331C139.542 87.225 140.651 87.3025 140.43 86.4878C140.211 85.6732 138.716 84.7885 138.381 82.5319C138.147 80.9575 138.125 80.5702 137.954 80.2553C138.605 80.2203 139.424 80.2878 140.312 80.2503C140.392 80.3028 140.475 80.3503 140.56 80.3903C141.616 80.8676 142.486 81.0725 142.757 81.7072C143.029 82.342 143.182 83.5165 143.499 83.7239C143.816 83.9314 143.692 84.6711 144.08 85.1858C144.467 85.7006 144.25 86.0205 144.59 86.3679C144.929 86.7152 144.954 86.2604 144.125 84.881C143.293 83.5015 143.929 83.6465 143.429 82.7743C142.928 81.9022 142.984 81.8447 143.097 81.0075C143.212 80.1679 143.587 79.3257 143.979 79.4157C143.979 79.4157 144.062 79.2482 144.198 79.0408C144.685 78.8309 145.155 78.6785 145.603 78.566C146.158 79.2332 146.543 80.1454 146.762 80.1329C146.97 80.1229 146.053 79.1508 145.786 78.521C147.782 78.0662 149.295 78.4286 149.785 78.2836C149.881 78.2561 150.024 78.2386 150.198 78.2336C149.881 78.7784 149.476 79.3632 149.006 79.9529C147.458 81.8947 149.406 83.564 149.713 81.4548C149.886 80.2603 150.195 79.2007 150.602 78.2361C150.683 78.2361 150.766 78.2411 150.851 78.2461C150.346 81.9272 150.56 82.217 151.555 83.7239C152.746 85.5232 152.51 89.5366 153.573 91.4109C154.642 93.2876 154.031 96.7587 156.394 98.2056C157.025 98.593 157.424 99.1053 157.681 99.68C157.057 100.907 157.623 101 157.985 100.677C158.244 102.054 158.01 103.586 158.126 104.651C158.324 106.472 160.023 104.301 160.699 102.664C161.268 101.289 159.304 101.059 158.377 99.3227C158.679 98.3431 159.428 96.9886 160.35 96.154C161.584 95.0419 159.312 95.2543 160.765 93.4425C162.218 91.6308 163.012 90.7486 162.341 88.7219C161.67 86.6952 162.818 83.4865 165.111 80.965C165.45 80.5927 165.8 80.2103 166.154 79.8255C166.79 80.2203 166.906 79.9479 167.707 80.2278C168.871 80.6327 169.492 80.96 168.112 79.748C167.758 79.4382 167.386 79.1733 166.999 78.9384C167.956 77.9512 168.967 77.0066 170.02 76.2394C171.111 77.0566 172.124 78.1362 172.941 79.3732C172.931 79.3882 172.921 79.4057 172.911 79.4207C171.179 82.0796 172.076 88.1497 170.193 92.403C170.193 92.403 169.374 93.44 170.088 94.0573C170.802 94.672 170.716 93.9074 170.857 92.4729C170.995 91.0385 174.235 87.1726 175.904 82.6219C175.955 82.4869 176 82.352 176.045 82.2195C176.13 82.277 176.218 82.342 176.314 82.417C177.727 83.529 180.047 85.2133 180.047 85.2133C178.83 84.1338 177.023 82.6269 176.402 81.7922C176.344 81.7122 176.294 81.6323 176.251 81.5498C176.528 80.5802 176.688 79.6706 176.784 78.8184C176.799 78.8359 176.814 78.8559 176.829 78.8734C178.521 80.9226 179.348 81.7722 178.996 80.7176C178.787 80.0954 177.925 78.9234 176.887 77.6614C176.917 77.2115 176.937 76.7792 176.96 76.3619C178.285 77.8413 179.476 79.6556 180.416 81.8922H180.419C181.15 83.634 182 85.2333 181.449 86.2879C180.896 87.34 181.296 87.8723 182.012 88.9543C182.726 90.0389 181.407 89.7665 182.045 90.4537C182.686 91.141 183.068 92.3055 182.983 92.7603C182.9 93.2151 183.948 93.6325 183.136 92.0956C182.324 90.5612 182.91 89.5516 182.641 89.0818C182.374 88.612 182.809 87.7848 182.497 86.7052C182.186 85.6307 182.485 84.3912 181.829 82.9343C181.175 81.4748 181.567 78.9409 182.279 77.8738C182.99 76.8067 183.948 76.9791 184.491 77.1216C185.034 77.264 185.878 76.6968 186.517 77.3815C187.155 78.0662 188.231 79.3332 188.683 80.2004C189.136 81.0675 189.427 82.0371 189.445 83.2016C189.46 84.3687 190.737 83.594 189.975 82.4369C189.216 81.2774 188.864 80.2003 189.312 79.8905C189.757 79.5756 188.626 79.0383 188.809 78.5085C188.993 77.9787 189.895 77.9587 188.404 76.7042C187.53 75.9695 187.967 75.5272 188.621 75.2448C190.523 75.4023 192.808 76.7117 193.422 77.7688C194.12 78.9633 193.665 80.3328 191.986 80.1953C190.31 80.0579 189.601 81.09 190.43 82.217C191.257 83.3416 193.53 81.5698 194.585 81.9122C195.641 82.2545 196.486 83.6065 196.782 84.8935C197.079 86.178 198.187 86.2254 197.946 85.4158C197.705 84.6061 196.184 83.7664 195.784 81.5198C195.385 79.2732 195.488 79.4531 194.94 78.8059C194.392 78.1587 194.296 76.142 192.308 74.4951C190.933 73.3581 192.517 72.4385 193.909 70.8166C194.002 70.7941 194.093 70.7666 194.181 70.7291C195.251 70.2868 195.995 69.7945 196.649 70.0269C197.3 70.2618 198.27 70.9516 198.637 70.8641C199.007 70.7766 199.467 71.3689 200.108 71.4364C200.751 71.5038 200.837 71.8812 201.324 71.8712C201.812 71.8612 201.495 71.5338 199.912 71.1965C198.331 70.8616 198.871 70.4967 197.886 70.2668C196.9 70.0369 196.898 69.957 196.36 69.3047C195.822 68.65 195.458 67.8003 195.792 67.5779C195.792 67.5779 195.726 67.403 195.666 67.1631C195.845 66.6658 196.051 66.2185 196.274 65.8161C197.144 65.8661 198.079 66.2085 198.217 66.041C198.353 65.8836 197.011 65.8861 196.367 65.6512C197.393 63.8894 198.693 63.0372 198.919 62.5799C199.012 62.395 199.281 62.1001 199.615 61.7752C201.98 64.6516 202.337 64.6941 204.127 64.9964C206.264 65.3563 209.054 68.2651 211.16 68.7674C213.269 69.2697 215.408 72.0786 218.082 71.3489C220.759 70.6217 222.532 73.3881 224.005 74.4826C225.48 75.5797 225.04 72.8658 224.296 71.2564L224.311 71.2414Z" fill="#FCEC00"/>
</svg>
