<svg width="161" height="181" viewBox="0 0 161 181" fill="none" xmlns="http://www.w3.org/2000/svg">
<path d="M63.8196 100.548C64.1428 98.7793 65.4954 97.4734 66.3521 95.9278C66.6353 95.4177 67.1535 94.3834 67.7963 93.0517C53.745 110.097 15.8121 157.667 10.8459 164.325C10.1889 165.205 9.62605 166.025 9.0561 166.932C8.36275 168.033 7.38032 169.057 6.55889 170.089C4.5858 172.573 2.72905 175.143 0.877001 177.706C-0.322835 179.367 -0.119533 179.796 0.468046 180.606C1.23425 181.664 2.29777 180.441 3.66212 178.736C5.63874 176.263 7.86801 173.455 10.062 171.247C10.7777 170.528 11.504 170.022 12.2114 169.252C13.1116 168.274 13.9929 167.259 14.8755 166.258C18.9168 161.674 22.8912 157.006 26.8304 152.309C29.1713 149.516 65.3168 104.623 73.0187 94.3199C73.3501 93.8768 73.6757 93.4384 74 93C69.4263 96.633 65.3332 100.24 63.822 100.546L63.8196 100.548Z" fill="white"/>
<path d="M102.913 83.9383C104.461 83.5227 106.051 83.957 107.564 84.6359C108.79 85.1861 117.314 88.9108 120.462 90.2311C121.626 90.7181 122.946 91.3408 124.118 91.3818C120.972 87.0473 108.393 71.8267 111.128 68.9799C113.355 66.6622 125.438 64.2626 127.892 63.4069C129.566 62.8228 132.788 62.3066 134.031 60.9441C133.667 61.3444 108.977 58.445 109.354 52.4155C109.744 46.1882 113.328 40.2454 116.248 34.8843C116.71 34.0356 110.467 37.072 109.024 37.9289C106.813 39.241 104.583 40.5298 102.468 41.993C101.326 42.7843 98.3954 45.9857 96.8362 45.4274C93.3406 44.1714 90.6376 35.5351 89.6122 32.288C88.7201 29.46 88.4169 26.4224 86.6668 23.9326C85.9223 27.6959 84.6252 31.4429 83.999 35.2659C83.6009 37.6901 83.1982 40.0873 82.7745 42.508C82.531 43.8904 82.7546 45.7996 81.9527 47.0216C80.8593 48.6873 78.8856 47.3143 77.3427 46.9374C72.7866 45.8253 68.6449 43.2747 64.6355 40.8377C62.6103 39.6074 60.4282 38.8922 58.3585 37.8914C58.6406 38.9859 59.9342 40.4537 60.6097 41.4065C62.1209 43.5393 63.6603 45.6381 65.1412 47.786C66.745 50.1131 68.4997 52.3933 69.9806 54.7929C71.0658 56.5511 73.5639 59.7501 71.3374 61.3596C69.0172 63.037 51.1439 68.8172 49.1538 69.7162C55.9763 72.2094 63.5655 72.2059 70.5612 74.2544C71.8009 74.6184 74.5941 75.2657 74.5461 76.8026C74.4957 78.3782 70.0438 88.2143 67.5351 93.4138C66.8948 94.7389 66.3785 95.769 66.0964 96.2782C65.243 97.8174 63.8968 99.1179 63.5737 100.88C65.0791 100.575 69.1565 96.9828 73.7126 93.3647C80.0375 88.3407 87.2861 83.2664 89.8592 86.8647C92.259 90.2194 93.2493 94.431 94.7747 98.2154C96.3632 102.153 97.2962 106.71 99.8119 110.202C100.719 103.849 100.259 84.65 102.913 83.9359V83.9383Z" fill="#FCEC00"/>
<path d="M63.7213 77.0005C63.6674 76.5018 63.2191 76.1425 62.7216 76.1963C59.7809 76.5135 56.7478 76.5849 53.703 76.5849C51.439 76.5849 49.1668 76.5463 46.9203 76.544H46.8372C42.6697 76.544 38.5585 76.8706 34.4659 77.0625C33.9661 77.0859 33.5786 77.5108 33.6032 78.0118C33.6266 78.5117 34.0515 78.8979 34.5514 78.8745C38.6814 78.6802 42.7646 78.3571 46.8372 78.3583H46.9086C49.1387 78.3607 51.4156 78.3993 53.7041 78.3993C56.7771 78.3993 59.8746 78.329 62.9182 78.0001C63.4157 77.9463 63.7763 77.4991 63.7224 77.0017L63.7213 77.0005Z" fill="#FCEC00"/>
<path d="M54.5787 59.1099C56.3148 59.4599 58.0461 59.7291 59.6862 60.1329C60.0491 60.2207 60.4904 60.3893 60.9856 60.5485C61.4808 60.7053 62.0368 60.8587 62.6631 60.861C62.8317 60.861 63.0038 60.8493 63.177 60.8236C63.6722 60.7486 64.0129 60.2875 63.9391 59.7911C63.8642 59.296 63.4018 58.9554 62.9066 59.0303C62.827 59.042 62.7474 59.0478 62.6631 59.0478C62.3517 59.0502 61.9689 58.9612 61.5393 58.8219C61.1085 58.685 60.6391 58.5024 60.1205 58.3724C58.3751 57.9429 56.6191 57.6725 54.9381 57.3318C50.375 56.4118 45.82 55.205 41.162 54.3516C33.78 53.0043 26.4706 50.3004 18.7128 49.5934C18.2141 49.5477 17.7727 49.9164 17.7283 50.4151C17.6838 50.9137 18.0514 51.355 18.55 51.3995C25.9894 52.0644 33.2474 54.7379 40.8354 56.1355C45.3997 56.9713 49.9453 58.1735 54.5787 59.1099Z" fill="#FCEC00"/>
<path d="M34.4658 24.9112C39.153 28.5891 44.1973 31.2181 49.2135 34.1387C49.6466 34.3903 50.2015 34.244 50.4532 33.8109C50.706 33.3778 50.5585 32.823 50.1266 32.5713C45.0589 29.625 40.1012 27.0311 35.5861 23.4844C35.1916 23.1753 34.6227 23.2444 34.3124 23.6377C34.0034 24.031 34.0725 24.6011 34.4658 24.9112Z" fill="#FCEC00"/>
<path d="M55.7949 2.58893C58.4791 8.11859 60.6717 13.7758 63.9238 19.2235C66.9323 24.2557 69.6154 29.6952 72.8709 34.6982C73.1437 35.1184 73.7056 35.2366 74.1259 34.9627C74.5461 34.69 74.6644 34.1281 74.3904 33.709C71.2122 28.8302 68.5361 23.4118 65.4807 18.293C62.3259 13.0185 60.1496 7.41743 57.4267 1.79765C57.2078 1.34699 56.6658 1.15853 56.2151 1.37742C55.7644 1.59631 55.576 2.13827 55.7949 2.58893Z" fill="#FCEC00"/>
<path d="M86.8637 18.1865C87.3577 18.1033 87.6902 17.6351 87.6082 17.1412C87.401 15.9144 87.3156 14.7287 87.3156 13.5417C87.3156 11.8971 87.4806 10.2455 87.7159 8.48966C88.0601 5.86881 87.8564 3.37204 88.2825 1.06958C88.3726 0.576777 88.0449 0.105047 87.5532 0.0149155C87.0604 -0.0752164 86.5886 0.252536 86.4985 0.744165C86.0302 3.36384 86.2433 5.88871 85.919 8.24853C85.679 10.0418 85.5034 11.7754 85.5034 13.5417C85.5034 14.8153 85.5947 16.1064 85.8207 17.442C85.9038 17.936 86.372 18.2684 86.866 18.1865H86.8637Z" fill="#FCEC00"/>
<path d="M102.152 35.7575C102.651 35.8067 103.094 35.4438 103.145 34.9452C103.591 30.4491 105.135 26.0057 106.402 21.4979C107.449 17.7569 107.921 14.017 108.805 10.4152C108.923 9.92827 108.625 9.43781 108.14 9.31841C107.653 9.19902 107.162 9.49751 107.043 9.98328C106.13 13.7208 105.659 17.4385 104.656 21.0075C103.414 25.4438 101.821 29.9809 101.341 34.7649C101.29 35.2635 101.654 35.7072 102.153 35.7575H102.152Z" fill="#FCEC00"/>
<path d="M82.9037 110.376C82.7656 108.442 82.7 106.543 82.7 104.635C82.7 103.454 82.7258 102.271 82.775 101.075C82.8241 99.8085 83.0477 98.4144 83.0512 96.9688C83.0512 96.6621 83.0407 96.3531 83.0149 96.0429C82.974 95.5442 82.5361 95.1732 82.0363 95.2142C81.5376 95.2551 81.1653 95.6929 81.2063 96.1916C81.2274 96.4444 81.2367 96.7043 81.2367 96.9688C81.2391 98.2213 81.0237 99.5908 80.9628 101.001C80.9125 102.221 80.8867 103.43 80.8867 104.636C80.8867 106.586 80.9546 108.53 81.0951 110.506C81.3222 113.688 81.2742 116.916 81.3948 120.181C81.4416 121.446 81.5177 122.62 81.5177 123.777C81.5177 124.617 81.4779 125.448 81.362 126.309C81.2953 126.804 81.643 127.261 82.1393 127.328C82.6357 127.395 83.0922 127.047 83.1589 126.551C83.2889 125.59 83.331 124.672 83.331 123.777C83.331 122.541 83.2514 121.345 83.2057 120.113C83.0863 116.91 83.1355 113.662 82.9026 110.376H82.9037Z" fill="#FCEC00"/>
<path d="M109.019 126.683C106.691 122.874 105.331 118.489 103.888 114.123C103.73 113.648 103.217 113.389 102.742 113.547C102.267 113.705 102.008 114.218 102.166 114.693C103.605 119.032 104.988 123.558 107.47 127.627C107.731 128.054 108.288 128.19 108.716 127.929C109.143 127.668 109.279 127.11 109.018 126.683H109.019Z" fill="#FCEC00"/>
<path d="M131.177 114.073C124.521 106.276 118.531 97.9649 112.115 89.8882C111.803 89.4961 111.232 89.4305 110.841 89.7419C110.448 90.0532 110.383 90.6233 110.695 91.0154C117.076 99.0477 123.079 107.376 129.798 115.249C130.122 115.63 130.695 115.675 131.076 115.351C131.457 115.026 131.503 114.453 131.177 114.072V114.073Z" fill="#FCEC00"/>
<path d="M149.898 101.144C145.541 97.7156 141.367 94.1361 137.134 90.5191C134.559 88.3185 131.973 86.1389 129.424 83.9266C127.299 82.0877 124.989 80.5379 123.191 78.6615C122.844 78.2998 122.269 78.2893 121.909 78.6369C121.548 78.9834 121.537 79.5581 121.884 79.9187C123.872 81.9812 126.232 83.552 128.236 85.2973C130.798 87.5213 133.387 89.7032 135.957 91.8992C140.188 95.5138 144.379 99.1109 148.777 102.571C149.171 102.88 149.741 102.812 150.051 102.419C150.36 102.026 150.292 101.456 149.899 101.145L149.898 101.144Z" fill="#FCEC00"/>
<path d="M153.529 66.1624C153.433 65.6708 152.957 65.35 152.465 65.446C150.59 65.8159 148.618 65.7726 146.51 66.0582C143.928 66.4152 141.416 66.887 138.899 67.1199C136.61 67.3329 134.194 67.3517 131.753 67.4828C129.313 67.6162 126.847 67.8632 124.458 68.5679C123.977 68.7095 123.703 69.214 123.845 69.6939C123.987 70.1739 124.492 70.4489 124.972 70.3061C127.142 69.6635 129.468 69.4212 131.851 69.2924C134.235 69.1625 136.672 69.1461 139.066 68.9237C141.695 68.6779 144.234 68.1991 146.757 67.8527C148.675 67.5834 150.682 67.6349 152.812 67.2229C153.303 67.1269 153.624 66.6505 153.528 66.1601L153.529 66.1624Z" fill="#FCEC00"/>
<path d="M118.449 55.384C118.72 55.3957 118.991 55.4016 119.262 55.4016C124.139 55.3969 128.599 53.5334 132.799 51.7226C136.846 49.9714 140.358 48.5036 144.595 47.7088C145.086 47.6163 145.411 47.1422 145.319 46.6506C145.227 46.1578 144.753 45.8336 144.261 45.926C139.8 46.7641 136.133 48.3046 132.081 50.0569C127.898 51.8689 123.663 53.5919 119.263 53.5872C119.019 53.5872 118.773 53.5814 118.527 53.5709C118.026 53.5498 117.603 53.9372 117.582 54.4382C117.561 54.9381 117.95 55.3618 118.45 55.3829L118.449 55.384Z" fill="#FCEC00"/>
<path d="M107.193 78.9799C105.605 76.7898 104.191 74.4791 102.605 72.2867C101.796 71.17 99.2495 69.1016 100.632 67.663C101.757 66.4925 107.861 65.2798 109.1 64.8479C109.947 64.5529 111.574 64.2919 112.201 63.6036C112.018 63.8061 108.753 62.5911 108.391 62.5208C107.419 62.3335 105.279 62.2867 103.37 61.9297C96.7701 63.7101 81.4102 65.281 82.5656 64.6629C88.7653 61.3409 94.6582 57.0485 101.176 54.3141C101.804 52.9715 102.545 51.6746 103.218 50.4396C103.452 50.0101 97.325 53.2911 96.2573 54.0297C95.679 54.4289 94.1982 56.0466 93.4115 55.7645C91.6462 55.1312 90.2801 50.7686 89.7626 49.1275C89.312 47.6994 89.1586 46.166 88.2748 44.9077C87.899 46.8086 87.2434 48.7014 86.9274 50.6328C86.7272 51.8572 86.5235 53.0675 86.3081 54.2907C86.1852 54.9907 86.2976 55.9541 85.8937 56.571C85.3423 57.4126 79.1707 54.6782 77.1455 53.4468C76.1224 52.824 75.0208 52.4647 73.9743 51.9578C74.1171 52.5115 74.7703 53.2536 75.1121 53.7336C75.8754 54.8116 79.097 59.2831 79.845 60.4958C80.3929 61.3842 81.656 63.0008 80.531 63.8131C79.3592 64.6606 77.4967 65.0878 76.099 65.35C74.8768 65.5783 73.5365 65.9821 72.4326 66.5522C71.5078 67.0309 70.3301 67.5811 69.3257 68.0353C72.772 69.2948 76.6059 69.2924 80.14 70.3284C80.7663 70.511 82.1769 70.8387 82.1535 71.6148C82.1219 72.6144 78.5854 80.1902 77.8854 81.4532C77.4534 82.2305 76.7733 82.8871 76.6106 83.7779C78.4274 83.4104 80.366 81.527 81.8597 80.4852C83.7116 79.1941 87.6532 73.5708 89.8903 76.6973C91.1019 78.3923 91.6017 80.5203 92.3732 82.4306C93.1751 84.4206 93.6468 86.723 94.917 88.4859C95.3747 85.2762 96.3779 82.1286 96.1906 78.8499C96.1414 77.9814 95.1429 75.5783 96.4844 75.2177C97.2641 75.007 98.0695 75.2271 98.8339 75.5701C99.4532 75.8487 103.759 77.7297 105.348 78.3958C105.936 78.6416 106.603 78.9565 107.196 78.9775L107.193 78.9799Z" fill="#FCEC00"/>
<path d="M89.8481 62.9972C93.2804 62.2106 96.7034 61.3772 100.112 60.4911C99.8465 60.161 99.7072 59.7665 99.7365 59.2948C99.781 58.5971 99.9062 57.9077 100.088 57.2276C96.5629 58.8898 93.2044 60.9605 89.8493 62.9984L89.8481 62.9972Z" fill="#FCEC00"/>
<path d="M62.6588 80.0404C60.8958 80.3225 59.3026 81.0412 57.8241 81.4591C54.8109 82.323 51.848 83.0065 48.754 83.5286C45.5055 84.0776 42.36 84.8923 39.2192 85.5326C37.1354 85.9575 35.1231 86.2583 32.975 87.0964C32.5091 87.279 32.2773 87.8046 32.4599 88.2717C32.6425 88.7375 33.1681 88.9693 33.6352 88.7867C35.5527 88.0352 37.4363 87.7437 39.5821 87.3095C42.7837 86.6563 45.9093 85.8475 49.056 85.3172C52.2191 84.7834 55.2522 84.0823 58.3239 83.202C59.9652 82.7256 61.501 82.0502 62.9398 81.8302C63.4338 81.7529 63.7721 81.2894 63.6948 80.7942C63.6164 80.2991 63.1528 79.962 62.6588 80.0392V80.0404Z" fill="#FCEC00"/>
<path d="M36.9214 65.4074C41.8744 65.9587 46.8461 66.4351 51.6609 67.4301C52.1514 67.5319 52.6314 67.2159 52.7332 66.7254C52.8351 66.235 52.519 65.755 52.0285 65.6532C47.0837 64.6325 42.057 64.1537 37.1228 63.6036C33.694 63.2255 29.8543 63.0113 26.7463 62.0023C26.2698 61.8478 25.7583 62.11 25.6049 62.5864C25.4504 63.0628 25.7126 63.5743 26.1891 63.7277C29.626 64.8326 33.5664 65.0281 36.9226 65.4062L36.9214 65.4074Z" fill="#FCEC00"/>
<path d="M32.9494 39.1134C42.1869 43.7839 51.6984 47.6514 61.0096 51.9555C61.4638 52.1662 62.0023 51.9684 62.213 51.513C62.4237 51.0588 62.2247 50.5204 61.7705 50.3097C52.4066 45.9822 42.9162 42.1217 33.7666 37.4946C33.3194 37.2687 32.7739 37.4477 32.5479 37.8949C32.322 38.342 32.5011 38.8875 32.9483 39.1134H32.9494Z" fill="#FCEC00"/>
<path d="M70.3944 38.1384C70.6472 37.7053 70.4997 37.1504 70.0678 36.8988C67.819 35.5936 65.7692 33.716 63.4783 32.0843C60.7273 30.1295 57.9997 28.1314 55.2534 26.1485C50.7394 22.8873 46.2746 19.6789 41.9151 16.2539C41.5206 15.9448 40.9517 16.0139 40.6415 16.4072C40.3324 16.8005 40.4003 17.3706 40.7937 17.6807C45.1929 21.1374 49.6788 24.361 54.1916 27.6198C56.9321 29.5981 59.6632 31.5985 62.4282 33.5639C64.5974 35.0996 66.68 37.0217 69.1547 38.4661C69.5878 38.7178 70.1427 38.5715 70.3944 38.1395V38.1384Z" fill="#FCEC00"/>
<path d="M75.7815 19.1755C76.4383 23.6014 77.795 28.019 77.7868 32.2564C77.7868 32.5701 77.7798 32.8838 77.7646 33.1987C77.7412 33.6985 78.1263 34.1234 78.6274 34.148C79.1272 34.1714 79.5522 33.7863 79.5767 33.2853C79.5931 32.9423 79.6013 32.5982 79.6013 32.2564C79.5943 27.6444 78.1907 23.1495 77.5761 18.9122C77.2086 16.4107 77.0751 13.8601 76.8117 11.2662C76.5928 9.14983 76.0836 7.24418 76.0005 5.33502C75.977 4.8352 75.5533 4.44775 75.0534 4.47116C74.5536 4.49457 74.1661 4.91831 74.1895 5.41813C74.2925 7.58364 74.8169 9.5244 75.0078 11.4499C75.2653 13.9842 75.3987 16.5629 75.7815 19.1755Z" fill="#FCEC00"/>
<path d="M94.9314 36.6307C95.4125 36.4914 95.6888 35.9881 95.5506 35.5082C95.0285 33.7067 94.8272 31.8678 94.8272 29.9984C94.8272 27.2055 95.2814 24.3494 95.7684 21.5108C96.404 17.7967 96.9589 14.3951 96.9589 10.6575C96.9589 10.016 96.9425 9.36522 96.9086 8.70152C96.8817 8.20053 96.4555 7.81776 95.9557 7.84351C95.4558 7.86926 95.0718 8.29651 95.0976 8.79634C95.1315 9.42726 95.1456 10.0465 95.1456 10.6563C95.1456 14.2113 94.6176 17.4958 93.9808 21.2041C93.4915 24.0567 93.0139 27.01 93.0127 29.9984C93.0127 31.9977 93.2281 34.0146 93.8087 36.0138C93.948 36.4949 94.4502 36.7712 94.9314 36.6319V36.6307Z" fill="#FCEC00"/>
<path d="M92.5619 122.734C91.7776 118.689 91.122 114.592 90.1282 110.519C88.8779 105.398 87.4041 100.189 86.7357 95.0737C86.6701 94.5773 86.2147 94.2273 85.7184 94.2929C85.222 94.3584 84.872 94.8138 84.9376 95.3101C85.6329 100.604 87.1302 105.872 88.3675 110.95C89.338 114.928 89.9912 118.996 90.7814 123.079C90.8762 123.571 91.3527 123.892 91.8432 123.798C92.3348 123.702 92.6568 123.226 92.5619 122.735V122.734Z" fill="#FCEC00"/>
<path d="M122.973 131.556C120.962 125.668 117.788 120.387 115.053 115.017C112.166 109.358 109.389 103.567 106.723 97.7916C106.513 97.3375 105.975 97.1385 105.519 97.3492C105.065 97.5587 104.866 98.0972 105.077 98.5525C107.752 104.342 110.537 110.155 113.437 115.841C116.215 121.283 119.334 126.495 121.258 132.141C121.42 132.615 121.935 132.868 122.409 132.707C122.883 132.545 123.136 132.029 122.975 131.556H122.973Z" fill="#FCEC00"/>
<path d="M144.365 109C139.853 105.449 136.163 101.242 132.102 97.0156C131.756 96.6539 131.181 96.6422 130.82 96.9899C130.459 97.3363 130.448 97.9099 130.796 98.2716C134.818 102.456 138.562 106.738 143.243 110.424C143.637 110.734 144.207 110.667 144.517 110.273C144.826 109.88 144.758 109.31 144.365 109Z" fill="#FCEC00"/>
<path d="M160.287 82.6589C154.183 81.3397 148.225 80.5461 142.355 78.727C136.66 76.9642 130.762 75.6438 125.269 73.7077C124.796 73.5415 124.279 73.7897 124.113 74.2614C123.946 74.7343 124.195 75.2517 124.666 75.4179C130.297 77.3996 136.217 78.7223 141.817 80.4594C147.878 82.3335 153.894 83.1294 159.901 84.4311C160.391 84.5364 160.873 84.2262 160.98 83.737C161.085 83.2477 160.775 82.7654 160.285 82.6589H160.287Z" fill="#FCEC00"/>
<path d="M137.411 57.9241C137.447 58.4239 137.882 58.7997 138.38 58.7634C141.608 58.5339 144.39 57.6279 147.291 56.4972C149.507 55.6263 152.011 55.2365 154.447 54.1643C154.905 53.9618 155.111 53.4257 154.908 52.968C154.706 52.5103 154.17 52.3031 153.712 52.5068C151.573 53.4643 149.099 53.8553 146.633 54.8069C143.786 55.9166 141.211 56.743 138.251 56.9537C137.752 56.9888 137.376 57.4231 137.411 57.9229V57.9241Z" fill="#FCEC00"/>
<path d="M117.884 47.7696C122.42 46.173 126.454 43.5533 130.472 41.3012C133.705 39.4833 137.205 38.1489 140.622 36.3802C141.067 36.1496 141.24 35.603 141.01 35.1582C140.779 34.7134 140.232 34.5401 139.788 34.7707C136.496 36.4797 132.973 37.82 129.584 39.7209C125.502 42.0164 121.549 44.5658 117.283 46.0606C116.81 46.2268 116.562 46.7442 116.728 47.2171C116.895 47.69 117.412 47.9382 117.885 47.772L117.884 47.7696Z" fill="#FCEC00"/>
</svg>
