<svg width="160" height="163" viewBox="0 0 160 163" fill="none" xmlns="http://www.w3.org/2000/svg">
<g clip-path="url(#clip0_211_1745)">
<path d="M84.7412 12.3005C76.8241 73.2125 70.4065 79.6299 9.48242 87.5456C70.4055 95.4613 76.8241 101.878 84.7412 162.791C92.6583 101.879 99.0759 95.4613 160 87.5456C99.0768 79.6299 92.6583 73.2135 84.7412 12.3005Z" fill="#FCEC00"/>
<path d="M5.26164 26.4972C15.3373 27.806 20.6893 28.9862 23.8564 32.1526C27.0234 35.3191 28.2038 40.6702 29.5128 50.744C29.5639 51.1367 29.8988 51.4313 30.2945 51.4313C30.6903 51.4313 31.0252 51.1377 31.0762 50.744C32.3853 40.6702 33.5657 35.3191 36.7327 32.1526C39.8998 28.9862 45.2518 27.806 55.3274 26.4972C55.7202 26.4461 56.0149 26.1113 56.0149 25.7156C56.0149 25.3199 55.7212 24.9851 55.3274 24.9341C45.2518 23.6253 39.8998 22.4451 36.7327 19.2786C33.5657 16.1122 32.3853 10.7611 31.0762 0.687295C31.0252 0.294555 30.6903 0 30.2945 0C29.8988 0 29.5639 0.293573 29.5128 0.687295C28.2038 10.7611 27.0234 16.1122 23.8564 19.2786C20.6893 22.4451 15.3373 23.6253 5.26164 24.9341C4.86883 24.9851 4.57422 25.3199 4.57422 25.7156C4.57422 26.1113 4.86785 26.4461 5.26164 26.4972ZM30.2945 6.34864C32.5444 20.2359 35.7752 23.4662 49.6651 25.7156C35.7752 27.965 32.5444 31.1953 30.2945 45.0826C28.0447 31.1953 24.8138 27.965 10.924 25.7156C24.8138 23.4662 28.0447 20.2359 30.2945 6.34864Z" fill="#FCEC00"/>
<path d="M29.617 138.779C23.8888 138.034 20.8534 137.371 19.0975 135.615C17.3417 133.859 16.6788 130.825 15.9334 125.097C15.8824 124.705 15.5475 124.41 15.1517 124.41C14.756 124.41 14.4211 124.704 14.37 125.097C13.6257 130.825 12.9618 133.859 11.2059 135.615C9.45007 137.371 6.41462 138.033 0.686444 138.779C0.293632 138.83 -0.000976562 139.164 -0.000976562 139.56C-0.000976562 139.956 0.29265 140.291 0.686444 140.342C6.41462 141.086 9.45007 141.749 11.2059 143.505C12.9618 145.262 13.6247 148.296 14.37 154.023C14.4211 154.415 14.756 154.71 15.1517 154.71C15.5475 154.71 15.8824 154.416 15.9334 154.023C16.6778 148.296 17.3407 145.261 19.0975 143.505C20.8534 141.75 23.8888 141.087 29.617 140.342C30.0098 140.291 30.3044 139.956 30.3044 139.56C30.3044 139.164 30.0108 138.83 29.617 138.779ZM17.9819 142.39C16.5619 143.81 15.7655 145.781 15.1517 148.828C14.537 145.781 13.7415 143.81 12.3215 142.39C10.9015 140.97 8.92959 140.174 5.88236 139.56C8.92959 138.945 10.9015 138.15 12.3215 136.73C13.7415 135.311 14.538 133.339 15.1517 130.292C15.7665 133.339 16.5619 135.311 17.9819 136.73C19.4019 138.15 21.3739 138.946 24.4211 139.56C21.3739 140.175 19.4019 140.97 17.9819 142.39Z" fill="#FCEC00"/>
<path d="M126.875 44.6339C132.603 45.3781 135.639 46.0409 137.394 47.7964C139.15 49.552 139.813 52.5869 140.559 58.314C140.61 58.7067 140.944 59.0013 141.34 59.0013C141.736 59.0013 142.071 58.7077 142.122 58.314C142.866 52.5869 143.529 49.552 145.286 47.7964C147.042 46.0409 150.077 45.3771 155.805 44.6339C156.198 44.5828 156.493 44.248 156.493 43.8523C156.493 43.4566 156.199 43.1218 155.805 43.0708C150.077 42.3265 147.042 41.6638 145.286 39.9082C143.53 38.1527 142.867 35.1178 142.122 29.3907C142.071 28.9979 141.736 28.7034 141.34 28.7034C140.944 28.7034 140.61 28.9969 140.559 29.3907C139.814 35.1178 139.15 38.1527 137.394 39.9082C135.639 41.6638 132.603 42.3275 126.875 43.0708C126.482 43.1218 126.188 43.4566 126.188 43.8523C126.188 44.248 126.481 44.5828 126.875 44.6339ZM138.51 41.0217C139.93 39.6019 140.726 37.6303 141.34 34.5837C141.955 37.6303 142.75 39.6019 144.17 41.0217C145.59 42.4414 147.562 43.2377 150.61 43.8513C147.562 44.466 145.59 45.2613 144.17 46.681C142.75 48.1008 141.954 50.0723 141.34 53.119C140.725 50.0723 139.93 48.0998 138.51 46.681C137.09 45.2613 135.118 44.465 132.071 43.8513C135.118 43.2367 137.09 42.4414 138.51 41.0217Z" fill="#FCEC00"/>
<path d="M137.652 121.749C136.083 133.821 134.811 135.094 122.737 136.662C134.811 138.231 136.084 139.502 137.652 151.574C139.222 139.502 140.493 138.23 152.567 136.662C140.493 135.093 139.221 133.821 137.652 121.749Z" fill="#FCEC00"/>
<path d="M113.115 24.4441C114.326 15.1243 115.308 14.1425 124.629 12.9319C115.308 11.7212 114.326 10.7394 113.115 1.41968C111.904 10.7394 110.922 11.7212 101.601 12.9319C110.922 14.1425 111.904 15.1243 113.115 24.4441Z" fill="#FCEC00"/>
<path d="M55.5416 120.014C54.3308 129.334 53.3488 130.316 44.0273 131.527C53.3488 132.737 54.3308 133.719 55.5416 143.039C56.7525 133.719 57.7345 132.737 67.0559 131.527C57.7345 130.316 56.7525 129.334 55.5416 120.014Z" fill="#FCEC00"/>
</g>
<defs>
<clipPath id="clip0_211_1745">
<rect width="160" height="162.791" fill="white"/>
</clipPath>
</defs>
</svg>
