<svg width="441" height="106" viewBox="0 0 441 106" fill="none" xmlns="http://www.w3.org/2000/svg">
<path d="M224.311 71.2414C223.567 69.6321 221.569 71.7487 219.128 70.1344C216.69 68.52 214.415 68.6425 212.007 68.3176C209.597 67.9927 209.013 67.1006 206.543 64.7066C205.741 63.9294 203.768 62.22 201.377 60.2283C201.525 60.1059 201.618 60.0334 201.618 60.0334C201.618 60.0334 201.103 59.4437 202.468 57.8743C203.833 56.3024 203.85 56.3149 204.76 54.3582C205.67 52.4015 206.877 52.1216 209.561 51.9267C212.243 51.7343 211.492 51.4244 212.583 50.8521C213.676 50.2798 214.337 50.0524 212.505 50.2299C210.67 50.4098 209.177 51.2694 207.359 51.8667C205.542 52.4665 206.706 48.3106 208.674 47.2835C210.64 46.2565 213.452 45.9916 216.134 46.5788C218.816 47.1661 218.284 46.3514 220.066 46.084C221.848 45.8141 224.668 45.2743 224.668 45.2743C223.044 45.4243 220.704 45.7117 219.666 45.5917C218.625 45.4743 218.025 44.5396 217.044 45.0119C216.067 45.4843 213.294 45.9191 211.341 45.8891C209.385 45.8591 210.941 44.0323 212.995 43.1552C215.049 42.2755 215.144 43.1227 217.806 43.2901C220.468 43.4576 221.657 43.4351 220.639 42.9728C219.09 42.2681 211.854 42.2381 210.491 42.288C209.127 42.3355 208.317 40.9486 205.374 41.6333C202.43 42.3155 204.886 39.2743 204.175 38.0597C203.466 36.8452 200.764 37.1051 200.052 36.8027C199.344 36.5054 200.246 34.9985 199.517 34.971C198.791 34.9435 199.155 34.0463 199.444 32.2521C199.731 30.4553 205.665 26.4969 207.297 23.743C208.928 20.9891 208.561 21.0366 209.682 20.1419C210.803 19.2448 209.413 18.0503 210.715 17.6179C212.015 17.1881 211.947 13.7045 210.788 14.3867C209.629 15.069 209.755 19.4422 208.083 20.0145C206.412 20.5842 208.021 22.2186 205.17 22.4935C202.322 22.7634 196.29 25.2499 195.789 25.4048C195.289 25.5548 195.915 23.8779 197.348 22.7634C198.783 21.6488 197.056 21.3464 200.349 19.1123C203.644 16.8782 204.602 14.4017 203.539 15.5862C202.476 16.7708 202.488 17.2206 200.055 18.775C197.624 20.3318 195.586 22.426 195.204 23.1982C194.822 23.9704 195.817 23.3906 195.867 24.0504C195.918 24.7076 193.804 26.6693 192.652 27.8413C191.501 29.0134 190.094 28.3261 190.747 26.7268C191.401 25.1274 194.857 22.1786 195.397 21.0965C195.938 20.0145 195.118 20.0445 194.397 21.3914C193.68 22.7359 190.719 26.1095 190.081 26.7293C189.44 27.349 188.794 27.5939 187.884 27.2291C186.977 26.8667 187.527 25.5173 185.594 24.96C183.664 24.3977 183.196 23.3256 184.508 21.9087C185.82 20.4943 186.308 17.9378 185.561 17.6704C184.815 17.4005 187.225 15.4863 185.735 16.2285C184.244 16.9707 184.335 15.9386 184.712 14.0219C185.091 12.1101 187.271 11.0781 187.024 10.6607C186.778 10.2409 186.617 9.2288 187.153 7.67192C187.685 6.11255 186.703 6.62984 186.054 7.25959C185.408 7.89184 186.077 9.03638 186.077 9.03638C185.496 9.41373 185.652 9.95351 185.652 9.95351C184.636 10.5958 184.478 11.7003 184.272 12.9048C184.066 14.1068 182.729 16.6508 182.729 16.6508C180.625 17.6804 180.187 20.6767 176.445 22.1361C172.951 23.4981 171.317 21.4839 171.317 21.4839C171.317 21.4839 168.708 26.4094 167.574 22.8283C169.588 22.0637 171.324 21.4064 172.114 20.8616C173.989 19.5622 176.216 18.8649 176.937 18.66C177.078 18.6225 177.174 18.4976 177.166 18.3526C177.161 18.1752 177.063 18.0153 176.907 17.9253C176.754 17.8378 176.565 17.8353 176.409 17.9178C175.696 18.2727 174.484 18.8125 172.923 19.2748C171.935 19.5672 170.163 20.3293 168.009 21.3664C168.65 20.2419 167.657 20.6842 168.049 19.7546C168.469 18.7525 169.037 17.7079 168.323 18.4826C168.097 18.7275 167.911 18.8974 167.707 19.0699C168.693 14.8141 171.608 9.2288 171.9 7.18962C172.222 4.93802 173.227 2.84386 173.569 2.18163C173.637 2.05418 173.609 1.89924 173.499 1.80678C173.363 1.68932 173.179 1.65184 173.009 1.70432C172.84 1.7568 172.709 1.89174 172.664 2.06167C172.438 2.82387 172.011 4.07087 171.287 5.52278C170.608 6.88224 169.517 10.1909 168.426 14.0894C168.411 14.0894 168.396 14.0894 168.381 14.0894C166.772 14.1643 167.976 15.0565 166.028 15.3788C164.078 15.6987 165.02 16.271 163.567 18.4151C163.022 19.2198 162.203 20.5218 161.406 21.7338C160.833 21.4714 160.536 21.7038 159.832 21.9937C160.579 20.3493 161.665 18.585 162.449 17.7029C163.643 16.3584 162.577 15.1414 162.185 16.6358C161.919 17.6629 160.536 20.2769 159.282 22.1936C158.98 22.2886 158.621 22.3785 158.173 22.451C156.811 22.6659 154.348 23.1557 152.57 23.4131C153.01 22.6384 153.149 22.351 153.521 22.0037C155.114 21.5164 156.871 21.179 157.935 21.1515C159.739 21.104 159.908 19.4997 158.54 20.2344C157.806 20.6292 155.891 21.1915 154.008 21.6063C154.016 21.6013 154.023 21.5938 154.033 21.5888C155.18 20.7242 153.825 19.4897 155.139 19.0973C156.451 18.705 156.484 15.2189 155.305 15.8686C154.126 16.5184 154.126 20.8916 152.44 21.4164C151.982 21.5589 151.764 21.7863 151.63 22.0462C150.954 22.1386 150.376 22.1836 149.989 22.1536C148.26 22.0212 146.05 23.8629 145.583 22.7409C145.115 21.6188 146.146 20.7442 147.619 21.4989C149.092 22.2536 149.001 20.0045 147.744 19.9095C146.49 19.8146 146.033 21.3439 145.754 20.0869C145.718 19.927 145.683 19.7871 145.646 19.6671C148.272 17.7154 149.019 15.8187 148.026 16.8607C147.111 17.8229 146.958 18.2952 145.492 19.2898C145.241 18.8374 144.841 18.825 143.856 18.75C142.813 18.67 141.166 20.8017 139.917 21.6288C139.962 21.214 139.525 21.2965 139.03 21.9437C138.969 21.9362 138.909 21.9237 138.854 21.8987C137.682 21.3664 140.01 16.321 136.981 18.4601C134.236 20.3993 134.744 14.8191 133.427 18.69C132.987 19.9795 130.355 17.0257 130.162 18.1552C130.142 18.2777 130.119 18.3901 130.096 18.4951C130.066 18.4701 130.036 18.4476 130.001 18.4326C129.262 18.1427 131.728 16.2985 130.214 16.9957C128.704 17.6954 128.824 16.6658 129.257 14.7616C129.692 12.8598 131.899 11.8902 131.665 11.4679C131.431 11.0406 131.3 10.026 131.878 8.4841C132.454 6.94222 131.459 7.42952 130.79 8.03928C130.127 8.65153 130.762 9.81606 130.762 9.81606C130.172 10.1759 130.31 10.7207 130.31 10.7207C129.274 11.333 129.086 12.4325 128.847 13.6295C128.606 14.8266 127.196 17.3306 127.196 17.3306C127.052 17.3955 126.914 17.4705 126.783 17.5555C126.339 16.271 126.557 14.2868 127.09 12.0752C127.894 8.75899 124.609 9.78108 125.564 11.5279C126.517 13.2772 125.652 16.4934 124.926 17.8129C124.197 19.1298 121.952 14.7716 121.555 12.0452C121.158 9.31876 121.304 10.0135 118.049 5.28538C117.873 5.03048 117.707 4.77808 117.546 4.53318C117.91 3.63854 118.275 2.94382 118.456 2.61395C118.529 2.489 118.504 2.33406 118.396 2.2366C118.265 2.11665 118.081 2.07167 117.908 2.11915C117.737 2.16663 117.604 2.29908 117.554 2.46651C117.44 2.81137 117.28 3.26119 117.068 3.77848C116.571 2.96381 116.153 2.20911 115.796 1.52439C115.558 1.41443 115.294 1.39194 114.99 1.4919C114.942 1.51439 114.907 1.54438 114.877 1.57437C115.437 2.52899 116.07 3.58106 116.691 4.64064C116.51 5.03298 116.309 5.44782 116.076 5.88514C115.359 7.2271 114.173 10.5008 112.971 14.3667C112.956 14.3667 112.941 14.3667 112.926 14.3667C111.317 14.3942 112.494 15.3214 110.536 15.5887C108.577 15.8536 109.502 16.4509 107.989 18.5551C107.16 19.7096 105.709 21.9062 104.631 23.3431C104.297 23.3681 103.937 23.3881 103.558 23.4031C104.246 21.4989 105.843 18.9224 106.891 17.8104C108.125 16.5009 107.092 15.2539 106.66 16.7383C106.29 18.0053 104.126 21.6813 102.686 23.4281C100.924 23.4556 99.0006 23.3731 97.9047 23.1557C98.8548 22.316 99.0107 19.7446 97.9298 20.2044C97.3039 20.4693 96.8816 21.7113 96.394 22.9183C94.8808 22.9408 93.1967 23.5805 93.0358 22.6209C92.8347 21.4214 94.0413 20.8042 95.3031 21.8737C96.5624 22.9433 96.9922 20.7342 95.7907 20.3568C94.5918 19.982 93.7975 21.3639 93.81 20.0794C93.8226 18.795 93.5938 18.765 92.2692 18.3451C90.947 17.9278 87.6944 21.0616 86.6739 20.2769C85.6559 19.4922 89.0794 15.1089 85.6408 16.5034C82.524 17.7679 84.2986 12.45 82.1268 15.9211C81.4029 17.0757 79.5177 13.602 79.0703 14.6616C78.6228 15.7187 78.3991 15.9761 76.7954 14.894C75.1943 13.8095 75.9383 11.0931 77.4817 8.04178C79.025 4.9955 75.5939 5.2454 76.1218 7.16213C76.5265 8.64403 75.6794 10.7282 74.8047 12.1176C74.8876 11.6678 75.0611 11.128 75.3677 10.5083C76.0992 9.03138 75.0586 9.41622 74.3321 9.95851C73.6082 10.5008 74.1235 11.7228 74.1235 11.7228C73.5001 12.0227 73.5831 12.5775 73.5831 12.5775C73.4323 12.6474 73.2965 12.7299 73.1733 12.8199C72.4796 11.6678 71.9291 8.70651 72.0975 6.75479C72.3062 4.35825 72.3187 4.59316 70.9337 1.14204C70.6321 0.7472 70.3204 0.364854 69.9987 0C69.8152 0.182427 69.7222 0.362355 69.6845 0.544782C69.8831 1.25949 70.0615 1.95172 70.1998 2.59146C71.1826 7.13464 72.6229 12.7199 72.2257 12.9573C71.8261 13.1922 70.4436 10.7882 69.4004 8.2317C68.3573 5.67272 68.1889 3.56857 68.2366 5.61775C68.2844 7.66693 71.0494 12.2476 71.3761 13.3272C71.6979 14.4067 70.8684 14.4367 69.0259 12.1276C67.186 9.81606 65.9493 5.14294 65.7783 7.54198C65.6049 9.93851 69.0888 12.9223 69.4884 14.4742C69.8881 16.0261 69.1139 16.9257 69.1139 16.9257V16.9207C68.302 17.2481 67.2915 18.0103 66.7084 17.1381C66.1277 16.266 65.9618 16.4334 65.1248 16.0885C64.2903 15.7462 62.7369 14.2968 62.028 13.5396C61.3192 12.7824 60.266 12.0152 61.0251 13.0648C61.7817 14.1143 65.4918 16.7383 65.8864 17.7254C66.2836 18.71 65.4893 20.2444 64.7101 20.9391C64.0012 21.5689 64.8131 22.0786 64.7955 22.7259C64.2425 23.0258 63.6066 23.2832 62.8575 23.4681C62.4478 23.5705 62.0683 23.6305 61.7164 23.6605C61.6661 23.5281 61.6208 23.3881 61.5831 23.2407C61.3167 22.1986 60.3816 22.8908 60.8567 23.4981C60.9019 23.5556 60.9371 23.6155 60.9673 23.678C58.7352 23.5855 57.858 22.1611 57.858 22.1611C57.858 22.1611 57.7851 22.2636 57.6619 22.421C57.2899 21.7238 56.943 20.9391 56.6464 20.1419C56.2367 19.0349 55.6435 18.2377 55.2011 17.8403C56.9204 14.0544 59.801 9.82106 60.2937 8.06677C60.907 5.87514 62.1738 3.92842 62.6011 3.31367C62.6866 3.19622 62.6791 3.03878 62.581 2.93132C62.4629 2.79888 62.2844 2.7364 62.1085 2.76639C61.935 2.79638 61.7893 2.91383 61.7214 3.07627C61.3971 3.80098 60.8115 4.9855 59.9041 6.33246C59.0545 7.59445 57.5413 10.7332 55.9527 14.4592C55.9376 14.4592 55.9225 14.4542 55.9074 14.4542C54.3037 14.3218 55.3796 15.3613 53.4064 15.4288C51.4307 15.4938 52.2904 16.1835 50.571 18.1227C48.8517 20.062 44.737 25.2424 45.3025 23.4081C45.8681 21.5738 48.1957 18.4526 49.5556 17.2731C50.9154 16.0935 50.0155 14.7491 49.4324 16.181C48.8517 17.6129 45.486 22.0836 44.0684 23.0757C42.6507 24.0678 42.1304 26.8892 41.0495 26.3219C39.9687 25.7547 40.205 24.4277 41.8212 24.0753C43.44 23.7255 41.9293 22.0487 40.8987 22.7709C39.8732 23.4931 40.499 24.96 39.4785 24.1703C38.458 23.3806 38.2946 23.5456 37.1585 24.3402C36.0248 25.1349 36.5678 29.6056 35.3185 29.938C34.0743 30.2704 32.634 24.9075 31.6713 28.4736C30.7991 31.7073 27.6143 27.0841 29.0798 30.9026C29.5674 32.1746 25.6437 31.5648 26.2218 32.5594C26.7999 33.554 26.8703 33.8864 25.0303 34.5012C23.1929 35.1134 21.4686 32.8818 19.9579 29.813C18.4497 26.7468 16.5771 29.6156 18.4296 30.3578C20.2847 31.1025 21.6797 34.1288 21.9663 35.6057C22.2478 37.0826 17.7258 35.1459 15.6697 33.2966C13.6161 31.4474 14.1741 31.8897 8.63412 30.3078C3.1042 28.6985 0.562946 26.4794 0.0275486 27.3965C-0.510362 28.3161 6.95755 30.2779 11.193 32.2521C15.4259 34.2213 20.7723 36.4604 20.722 36.9202C20.6692 37.3775 17.9068 37.0202 15.2273 36.2979C12.5478 35.5757 10.7581 34.4362 12.4297 35.6382C14.1012 36.8377 19.4426 37.4225 20.5033 37.8173C21.5641 38.2147 21.084 38.8894 18.1205 38.9519C15.1569 39.0119 10.6651 37.1626 12.4824 38.7495C14.2973 40.3363 18.7941 39.3817 20.2796 40.0065C21.7652 40.6312 22.0165 41.7857 22.0165 41.7857H22.0115C21.7853 42.6254 21.7828 43.8849 20.7321 43.8174C19.6814 43.75 19.7166 43.9824 18.9349 44.4347C18.1556 44.887 16.0543 45.2394 15.0212 45.3443C13.9856 45.4468 12.7338 45.8166 14.0358 45.8516C15.3354 45.8891 19.6814 44.5371 20.712 44.822C21.7426 45.1044 22.4891 46.6613 22.5746 47.6959C22.6575 48.7305 23.7358 48.2232 24.1958 48.8504C24.6583 49.4802 25.332 49.7251 24.8066 50.2499C24.2813 50.7771 23.5725 49.9125 23.7987 50.4698C23.9269 50.7846 24.1983 50.8321 24.3894 50.9196C24.2386 51.057 24.0827 51.1895 23.9244 51.3169C23.6931 51.4993 23.4769 51.6593 23.2859 51.7992C23.0471 51.7542 22.7907 51.6743 22.5268 51.5643C21.5314 51.1445 21.5188 52.304 22.293 52.2965C22.3986 52.2965 22.5017 52.309 22.5972 52.3365C22.4715 52.474 22.5494 52.5264 22.9365 52.494C23.3236 52.7713 23.4619 53.3036 22.9642 53.8584C22.2428 54.6631 19.5607 54.3582 17.0597 53.5985C14.5587 52.8388 12.7187 53.6885 14.5185 53.9209C15.1066 53.9983 16.0191 54.0758 17.027 54.1658C16.6852 54.3957 16.5218 54.963 16.7983 55.4528C16.7983 55.4528 17.6177 56.5948 18.1531 55.9201C18.6533 55.2953 18.4095 54.6331 17.8163 54.2382C19.6814 54.4132 21.6546 54.6381 22.3936 54.9805C23.6529 55.5627 24.1657 57.5694 22.6525 58.4316C21.1418 59.2962 20.0459 60.4558 21.5364 60.9231C23.032 61.3929 22.469 59.756 23.6328 58.629C24.7941 57.5019 25.0856 57.5744 25.0253 59.1238C24.9625 60.6707 28.0944 60.4982 28.9063 59.2662C29.0571 59.0388 29.2331 58.9289 29.4166 58.9164C29.399 59.7061 29.781 60.2408 29.9671 60.7581C30.1254 61.2055 30.3466 61.8752 30.6859 62.4999C30.6809 62.5199 30.6784 62.5399 30.6734 62.5599C30.0927 64.859 24.5653 66.6908 25.807 66.8707C27.0513 67.0481 25.5582 69.897 25.5205 70.8241C25.4853 71.7512 26.5511 73.8154 26.4681 71.7962C26.3827 69.7795 30.1128 66.8432 30.3441 67.5179C30.5753 68.1927 28.0517 69.9445 28.8284 70.1169C29.6026 70.2893 31.3219 68.665 32.2947 68.1477C32.4932 68.0427 32.8326 67.9403 33.2548 67.8478C30.4346 69.3722 31.8422 69.7945 31.89 70.7866C31.9402 71.7987 29.8439 72.2735 30.422 73.0157C31.0001 73.7579 29.9243 75.5172 28.1346 77.239C26.3475 78.9633 28.0592 80.8726 28.6399 78.8184C29.218 76.7667 30.1531 75.1724 31.2993 73.8329C32.4455 72.4934 34.7957 70.7092 36.1656 69.7645C37.0303 69.1673 37.7894 69.4921 38.4731 69.8045C38.081 71.1065 37.3922 72.6984 37.0931 73.678C36.5602 75.4198 36.9875 74.785 37.8145 75.6747C38.6415 76.5643 38.0508 78.2236 38.6893 79.0658C39.3302 79.908 40.1622 76.3544 39.3227 74.75C38.5208 73.2231 38.8426 71.3639 39.9913 70.1619C40.954 70.1994 42.2737 70.5142 42.8442 72.4185C43.4978 74.6051 42.9423 79.2582 41.1827 81.5598C39.4257 83.8614 39.3302 86.1754 38.3122 87.9472C37.2942 89.719 37.6134 91.3659 36.9524 92.0856C36.2938 92.8053 36.7739 94.8345 34.7228 97.2085C32.6742 99.5801 34.582 99.2827 34.6549 98.448C34.7303 97.6109 35.9067 95.7091 37.2741 94.7645C38.6415 93.8224 36.3617 93.7399 38.0382 92.1306C39.7148 90.5212 40.6172 89.749 40.2175 87.6524C39.8179 85.5582 41.3738 82.5219 43.9754 80.3153C46.5769 78.1062 49.6159 75.5547 52.6372 75.1074C52.9162 75.0649 53.1953 75.1224 53.4315 75.2573C53.2807 75.5047 53.1349 75.7971 52.959 76.142C52.3683 77.2965 51.9485 76.022 51.667 76.9167C51.3855 77.8088 50.5585 78.7209 50.1186 78.8734C49.6812 79.0258 49.8371 80.1379 50.7747 78.676C51.7122 77.2115 52.8836 77.219 53.1601 76.7517C53.3084 76.5043 53.6477 76.3769 54.0474 76.192C54.075 76.4568 54.0197 76.7292 53.8739 76.9616C53.2857 77.9437 52.6372 78.9408 51.9108 79.7905C49.8471 82.2045 49.9477 88.3396 47.5271 92.313C47.5271 92.313 46.5794 93.2351 47.2078 93.9398C47.8337 94.642 47.8513 93.8724 48.1756 92.4679C48.4998 91.061 52.2149 87.6474 54.4646 83.3491C55.6611 81.0575 56.0055 79.0308 56.3297 77.274C57.4508 78.9109 58.3959 80.8626 59.0369 83.2016H59.0394C59.5371 85.0234 60.173 86.7177 59.4893 87.6923C58.8031 88.6644 59.1299 89.2442 59.7004 90.4088C60.2685 91.5758 58.9941 91.136 59.5396 91.9006C60.085 92.6628 60.3138 93.8699 60.1705 94.3097C60.0297 94.7495 61.0126 95.2968 60.4093 93.6724C59.8035 92.0456 60.5174 91.121 60.3113 90.6212C60.1077 90.1189 60.6481 89.3567 60.4772 88.2471C60.3087 87.1401 60.7662 85.9505 60.3062 84.4211C59.8487 82.8918 60.5676 80.4277 61.4097 79.4606C61.9074 78.8884 62.4352 78.7609 62.8902 78.7934C62.5408 79.1233 62.1437 79.4282 61.6787 79.7005C60.6682 80.2928 61.9778 81.01 62.6087 79.778C62.7897 79.4257 62.9832 79.1058 63.1768 78.8334C63.3753 78.8759 63.5538 78.9408 63.6996 79.0008C64.2199 79.2107 65.1298 78.7559 65.6753 79.5206C66.0171 80.0004 66.5023 80.7301 66.8969 81.4324C66.3967 81.4249 65.9015 81.115 65.5647 80.4003C64.8533 78.8859 63.599 78.7859 63.0285 80.0604C62.4579 81.3324 65.1349 82.412 65.3586 83.494C65.5823 84.5761 64.8232 85.9755 63.8479 86.8727C62.8726 87.7673 63.3854 88.7469 63.9685 88.1372C64.5542 87.5249 64.5341 85.7956 66.2961 84.3362C66.9949 83.7589 67.3971 83.439 67.651 83.2116C67.8495 83.9588 67.9275 84.7635 67.8219 85.6657C67.6862 86.8252 69.051 86.2204 68.4478 84.9759C68.0808 84.2187 67.8621 83.5115 67.8546 83.0167C68.0582 82.7968 68.1084 82.6394 68.2492 82.262C68.5056 81.5673 69.8403 80.6552 70.4763 78.7484C71.4365 79.3807 72.2106 80.1604 72.4746 80.7926C73.0125 82.0671 72.3816 83.3666 70.7352 83.0142C69.0913 82.6618 68.2542 83.594 68.9279 84.8185C69.6015 86.0405 72.085 84.5736 73.0879 85.0509C74.0908 85.5282 74.7519 86.9751 74.8801 88.2896C75.0058 89.6016 76.1017 89.7915 75.966 88.9568C75.8302 88.1247 74.4327 87.0926 74.3296 84.816C74.2265 82.5369 74.307 82.7268 73.847 82.0146C73.387 81.3024 73.5554 79.2907 71.7984 77.4015C71.62 77.209 71.5043 77.0291 71.4415 76.8592C72.1629 76.6618 73.3267 77.1441 74.7117 77.404C74.777 77.4714 74.8474 77.5364 74.9228 77.5964C75.8403 78.3011 76.6421 78.6984 76.7603 79.3782C76.8784 80.0579 76.7603 81.2349 77.0192 81.5098C77.2781 81.7847 76.989 82.4769 77.2504 83.0642C77.5118 83.6515 77.2253 83.9139 77.4741 84.3312C77.7255 84.746 77.8537 84.3087 77.361 82.7793C76.8683 81.2474 77.454 81.5348 77.1649 80.5702C76.8784 79.6056 76.9438 79.5631 77.2479 78.7759C77.552 77.9862 78.1126 77.2515 78.472 77.4265C78.472 77.4265 78.5927 77.284 78.7711 77.1116C79.294 77.0191 79.7866 76.9741 80.2491 76.9691C80.6362 77.7438 80.8021 78.7209 81.0183 78.7584C81.2244 78.7959 80.5533 77.6414 80.4377 76.9691C82.4837 76.9791 83.8763 77.6764 84.3865 77.6439C84.5952 77.6314 84.9873 77.7163 85.4347 77.8463C84.1 81.3149 84.2382 81.6473 84.8641 83.3391C85.6107 85.3608 84.4594 89.2142 85.0652 91.2809C85.6735 93.3501 84.2835 96.5913 86.2491 98.538C88.2147 100.487 86.6789 103.389 86.4552 105.205C86.229 107.022 88.3806 105.295 89.4163 103.853C90.4519 102.411 87.6115 101.739 87.8075 98.8329C88.0061 95.9265 86.7694 94.0248 85.857 91.7857C84.942 89.5466 85.4297 88.597 86.2969 85.2783C86.5784 84.2012 87.0887 81.6473 87.6391 78.596C87.8201 78.6635 87.9307 78.7059 87.9307 78.7059C87.9307 78.7059 88.1896 77.9687 90.2357 78.3661C91.3291 78.5785 91.8394 78.681 92.4049 78.7059C92.1812 79.0133 91.9349 79.3282 91.6684 79.6431C90.0648 81.5398 91.9625 83.2641 92.332 81.1625C92.4879 80.2703 92.7191 79.4581 93.0082 78.7034C93.3752 78.6884 93.8176 78.6535 94.4435 78.5985C96.6026 78.4111 97.4472 79.3132 98.9503 81.5323C100.451 83.7489 100.348 82.9467 101.389 83.6065C102.429 84.2662 102.96 84.7235 101.894 83.2291C100.825 81.7347 99.3324 80.8726 97.9097 79.6031C97.0375 78.8259 98.2742 78.1262 99.7949 77.9737C101.296 78.7709 102.283 80.5627 103.231 81.4773C104.174 82.3895 104.4 81.2474 104.262 79.9055C104.737 80.4253 105.177 81.015 105.571 81.6573C105.43 82.0071 105.272 82.332 105.091 82.6269C103.575 85.0934 103.716 87.405 102.884 89.2717C102.05 91.136 102.535 92.7428 101.952 93.525C101.368 94.3072 102.055 96.2789 100.252 98.8454C98.4552 101.409 100.323 100.925 100.313 100.085C100.305 99.2452 101.28 97.2335 102.545 96.1565C103.809 95.0819 101.532 95.2293 103.037 93.46C104.541 91.6907 105.36 90.8311 104.749 88.7869C104.282 87.2275 104.898 85.0084 106.265 82.9517C106.504 83.464 106.715 83.9988 106.886 84.5461C107.705 87.1526 108.153 86.2879 109.271 87.6923C110.392 89.0943 112.265 91.2609 112.265 91.2609C111.327 89.9339 109.915 88.0572 109.502 87.1026C109.09 86.1455 109.605 85.1634 108.706 84.5536C108.198 84.2087 107.416 83.3641 106.662 82.387C106.989 81.9471 107.348 81.5173 107.74 81.11C107.997 80.8426 108.258 80.5727 108.525 80.3003C110.045 81.5173 109.46 82.0746 110.586 84.3562C111.762 86.7352 112.37 87.7498 112.272 86.6428C112.164 85.4657 110.397 82.0646 109.093 79.7255C109.927 78.8859 110.804 78.0587 111.712 77.3265C113.306 76.9916 115.309 76.5943 117.332 75.947C117.403 76.2219 117.375 76.5168 117.247 76.7792C116.762 77.8138 116.219 78.8709 115.58 79.7905C113.773 82.3995 114.494 88.492 112.491 92.6903C112.491 92.6903 111.642 93.7024 112.338 94.3422C113.034 94.9769 112.971 94.2097 113.152 92.7803C113.331 91.3484 116.681 87.5799 118.481 83.0767C119.439 80.6776 119.577 78.626 119.718 76.8467C120.535 77.8113 121.291 78.9134 121.96 80.1704C121.538 80.9625 121.07 81.5623 120.434 81.7372C119.283 82.0521 119.162 82.7043 118.856 83.9638C118.546 85.2233 117.845 84.0763 117.775 85.0109C117.707 85.943 117.109 87.0201 116.716 87.2675C116.327 87.5149 116.732 88.562 117.31 86.9252C117.888 85.2883 119.029 85.0284 119.19 84.5111C119.353 83.9963 120.261 83.7489 120.839 82.7868C121.218 82.1596 121.824 81.6722 122.375 81C122.598 81.4723 122.812 81.9596 123.011 82.4719H123.013C123.694 84.2362 124.499 85.8581 123.915 86.8952C123.332 87.9297 123.714 88.4745 124.401 89.5766C125.084 90.6811 123.772 90.3713 124.39 91.076C125.009 91.7807 125.361 92.9577 125.263 93.41C125.167 93.8624 126.203 94.3097 125.434 92.7503C124.667 91.1934 125.283 90.2013 125.026 89.724C124.773 89.2467 125.233 88.432 124.951 87.345C124.67 86.2604 125.006 85.0334 124.39 83.5565C123.78 82.0796 124.245 79.5556 124.986 78.5085C125.728 77.4614 126.68 77.6639 127.218 77.8213C127.759 77.9787 128.616 77.4365 129.237 78.1387C129.563 78.511 130.008 79.0483 130.418 79.6006C130.335 80.5552 130.144 82.0046 129.842 82.8468C129.513 83.7664 128.998 84.6411 128.153 85.4457C127.306 86.2529 128.747 86.6528 129.078 85.3108C129.413 83.9688 129.968 82.9792 130.501 83.0917C131.036 83.2016 130.662 82.0121 131.177 81.7847C131.323 81.7197 131.476 81.7247 131.622 81.7222C131.871 82.4145 132.012 83.1767 131.999 84.0363C131.982 85.2033 133.279 84.4661 132.55 83.2866C132.193 82.7093 131.936 82.1546 131.821 81.7022C132.092 81.6423 132.283 81.3899 132.228 80.2603C132.173 79.1233 132.796 79.1408 133.45 79.4207C133.824 79.8955 134.138 80.4752 134.385 81.085C132.886 81.02 132.258 81.9846 133.012 83.0767C133.399 83.6365 134.151 83.5165 134.94 83.2916C134.993 83.8189 134.97 84.2887 134.865 84.6361C134.462 85.958 133.143 86.5603 132.1 85.2458C131.059 83.9338 129.815 84.1213 129.551 85.4907C129.29 86.8602 132.142 87.3025 132.607 88.3046C133.075 89.3067 132.658 90.8436 131.911 91.9356C131.167 93.0277 131.891 93.8649 132.318 93.1377C132.748 92.4104 132.331 90.7311 133.711 88.9094C135.091 87.0876 135.031 87.285 135.134 86.4453C135.217 85.7556 136.187 84.6586 136.453 82.8693C136.725 82.8243 136.971 82.8193 137.172 82.8893C138.218 83.2616 139.025 84.6361 139.284 85.933C139.542 87.225 140.651 87.3025 140.43 86.4878C140.211 85.6732 138.716 84.7885 138.381 82.5319C138.147 80.9575 138.125 80.5702 137.954 80.2553C138.605 80.2203 139.424 80.2878 140.312 80.2503C140.392 80.3028 140.475 80.3503 140.56 80.3903C141.616 80.8676 142.486 81.0725 142.757 81.7072C143.029 82.342 143.182 83.5165 143.499 83.7239C143.816 83.9313 143.692 84.671 144.08 85.1858C144.467 85.7006 144.25 86.0205 144.59 86.3679C144.929 86.7152 144.954 86.2604 144.125 84.881C143.293 83.5015 143.929 83.6465 143.428 82.7743C142.928 81.9022 142.984 81.8447 143.097 81.0075C143.212 80.1679 143.587 79.3257 143.979 79.4157C143.979 79.4157 144.062 79.2482 144.198 79.0408C144.685 78.8309 145.155 78.6785 145.603 78.566C146.158 79.2332 146.543 80.1454 146.762 80.1329C146.97 80.1229 146.053 79.1508 145.786 78.521C147.782 78.0662 149.295 78.4286 149.785 78.2836C149.881 78.2561 150.024 78.2386 150.198 78.2336C149.881 78.7784 149.476 79.3632 149.006 79.9529C147.458 81.8947 149.406 83.564 149.713 81.4548C149.886 80.2603 150.195 79.2007 150.602 78.2361C150.683 78.2361 150.766 78.2411 150.851 78.2461C150.346 81.9272 150.56 82.217 151.555 83.7239C152.746 85.5232 152.51 89.5366 153.573 91.4108C154.642 93.2876 154.031 96.7587 156.394 98.2056C157.025 98.593 157.424 99.1053 157.681 99.68C157.057 100.907 157.623 101 157.985 100.677C158.244 102.054 158.01 103.586 158.126 104.651C158.324 106.472 160.023 104.301 160.699 102.664C161.268 101.289 159.304 101.059 158.377 99.3227C158.679 98.3431 159.428 96.9886 160.35 96.1539C161.584 95.0419 159.312 95.2543 160.765 93.4425C162.218 91.6308 163.012 90.7486 162.341 88.7219C161.67 86.6952 162.818 83.4865 165.111 80.965C165.45 80.5927 165.8 80.2103 166.154 79.8255C166.79 80.2203 166.906 79.9479 167.707 80.2278C168.871 80.6327 169.492 80.96 168.112 79.748C167.758 79.4382 167.386 79.1733 166.999 78.9383C167.956 77.9512 168.967 77.0066 170.02 76.2394C171.111 77.0566 172.124 78.1362 172.941 79.3732C172.931 79.3882 172.921 79.4057 172.911 79.4207C171.179 82.0796 172.076 88.1497 170.193 92.4029C170.193 92.4029 169.374 93.44 170.088 94.0573C170.802 94.672 170.716 93.9073 170.857 92.4729C170.995 91.0385 174.235 87.1725 175.904 82.6219C175.955 82.4869 176 82.352 176.045 82.2195C176.13 82.277 176.218 82.342 176.314 82.417C177.727 83.529 180.047 85.2133 180.047 85.2133C178.83 84.1338 177.023 82.6269 176.402 81.7922C176.344 81.7122 176.294 81.6323 176.251 81.5498C176.528 80.5802 176.688 79.6706 176.784 78.8184C176.799 78.8359 176.814 78.8559 176.829 78.8734C178.521 80.9226 179.348 81.7722 178.996 80.7176C178.787 80.0954 177.925 78.9234 176.887 77.6614C176.917 77.2115 176.937 76.7792 176.96 76.3619C178.285 77.8413 179.476 79.6556 180.416 81.8922H180.419C181.15 83.634 182 85.2333 181.449 86.2879C180.896 87.34 181.296 87.8723 182.012 88.9543C182.726 90.0389 181.407 89.7665 182.045 90.4537C182.686 91.141 183.068 92.3055 182.983 92.7603C182.9 93.2151 183.948 93.6325 183.136 92.0956C182.324 90.5612 182.91 89.5516 182.641 89.0818C182.374 88.612 182.809 87.7848 182.497 86.7052C182.186 85.6307 182.485 84.3912 181.829 82.9343C181.175 81.4748 181.567 78.9409 182.279 77.8738C182.99 76.8067 183.948 76.9791 184.491 77.1216C185.034 77.264 185.878 76.6967 186.517 77.3815C187.155 78.0662 188.231 79.3332 188.683 80.2003C189.136 81.0675 189.427 82.0371 189.445 83.2016C189.46 84.3687 190.737 83.594 189.975 82.4369C189.216 81.2774 188.864 80.2003 189.312 79.8905C189.757 79.5756 188.626 79.0383 188.809 78.5085C188.993 77.9787 189.895 77.9587 188.404 76.7042C187.53 75.9695 187.967 75.5272 188.621 75.2448C190.523 75.4023 192.808 76.7117 193.422 77.7688C194.12 78.9633 193.665 80.3328 191.986 80.1953C190.31 80.0579 189.601 81.09 190.43 82.217C191.257 83.3416 193.53 81.5698 194.585 81.9122C195.641 82.2545 196.486 83.6065 196.782 84.8935C197.079 86.178 198.187 86.2254 197.946 85.4158C197.705 84.6061 196.184 83.7664 195.784 81.5198C195.385 79.2732 195.488 79.4531 194.94 78.8059C194.392 78.1587 194.296 76.142 192.308 74.4951C190.933 73.3581 192.517 72.4384 193.909 70.8166C194.002 70.7941 194.093 70.7666 194.181 70.7291C195.251 70.2868 195.995 69.7945 196.649 70.0269C197.3 70.2618 198.27 70.9516 198.637 70.8641C199.007 70.7766 199.467 71.3689 200.108 71.4364C200.751 71.5038 200.837 71.8812 201.324 71.8712C201.812 71.8612 201.495 71.5338 199.912 71.1965C198.331 70.8616 198.871 70.4967 197.886 70.2668C196.9 70.0369 196.898 69.957 196.36 69.3047C195.822 68.65 195.458 67.8003 195.792 67.5779C195.792 67.5779 195.726 67.403 195.666 67.1631C195.845 66.6658 196.051 66.2185 196.274 65.8161C197.144 65.8661 198.079 66.2085 198.217 66.041C198.353 65.8836 197.011 65.8861 196.367 65.6512C197.393 63.8894 198.693 63.0372 198.919 62.5799C199.012 62.395 199.281 62.1001 199.615 61.7752C201.98 64.6516 202.337 64.6941 204.127 64.9964C206.264 65.3563 209.054 68.2651 211.16 68.7674C213.269 69.2697 215.408 72.0786 218.082 71.3489C220.759 70.6217 222.532 73.3881 224.005 74.4826C225.48 75.5797 225.04 72.8658 224.296 71.2564L224.311 71.2414Z" fill="white"/>
<path d="M348.311 71.2414C347.567 69.6321 345.569 71.7487 343.128 70.1344C340.69 68.52 338.415 68.6425 336.007 68.3176C333.597 67.9927 333.013 67.1006 330.543 64.7066C329.741 63.9294 327.768 62.22 325.377 60.2283C325.525 60.1059 325.618 60.0334 325.618 60.0334C325.618 60.0334 325.103 59.4437 326.468 57.8743C327.833 56.3024 327.85 56.3149 328.76 54.3582C329.67 52.4015 330.877 52.1216 333.561 51.9267C336.243 51.7343 335.492 51.4244 336.583 50.8521C337.676 50.2798 338.337 50.0524 336.505 50.2299C334.67 50.4098 333.177 51.2694 331.359 51.8667C329.542 52.4665 330.706 48.3106 332.674 47.2835C334.64 46.2565 337.452 45.9916 340.134 46.5788C342.816 47.1661 342.284 46.3514 344.066 46.084C345.848 45.8141 348.668 45.2743 348.668 45.2743C347.044 45.4243 344.704 45.7117 343.666 45.5917C342.625 45.4743 342.025 44.5396 341.044 45.0119C340.067 45.4843 337.294 45.9191 335.341 45.8891C333.385 45.8591 334.941 44.0323 336.995 43.1552C339.049 42.2755 339.144 43.1227 341.806 43.2901C344.468 43.4576 345.657 43.4351 344.639 42.9728C343.09 42.2681 335.854 42.2381 334.491 42.288C333.127 42.3355 332.317 40.9486 329.374 41.6333C326.43 42.3155 328.886 39.2743 328.175 38.0597C327.466 36.8452 324.764 37.1051 324.052 36.8027C323.344 36.5054 324.246 34.9985 323.517 34.971C322.791 34.9435 323.155 34.0463 323.444 32.2521C323.731 30.4553 329.665 26.4969 331.297 23.743C332.928 20.9891 332.561 21.0366 333.682 20.1419C334.803 19.2448 333.413 18.0503 334.715 17.6179C336.015 17.1881 335.947 13.7045 334.788 14.3867C333.629 15.069 333.755 19.4422 332.083 20.0145C330.412 20.5842 332.021 22.2186 329.17 22.4935C326.322 22.7634 320.29 25.2499 319.789 25.4048C319.289 25.5548 319.915 23.8779 321.348 22.7634C322.783 21.6488 321.056 21.3464 324.349 19.1123C327.644 16.8782 328.602 14.4017 327.539 15.5862C326.476 16.7708 326.488 17.2206 324.055 18.775C321.624 20.3318 319.586 22.426 319.204 23.1982C318.822 23.9704 319.817 23.3906 319.867 24.0504C319.918 24.7076 317.804 26.6693 316.652 27.8413C315.501 29.0134 314.094 28.3261 314.747 26.7268C315.401 25.1274 318.857 22.1786 319.397 21.0965C319.938 20.0145 319.118 20.0445 318.397 21.3914C317.68 22.7359 314.719 26.1095 314.081 26.7293C313.44 27.349 312.794 27.5939 311.884 27.2291C310.977 26.8667 311.527 25.5173 309.594 24.96C307.664 24.3977 307.196 23.3256 308.508 21.9087C309.82 20.4943 310.308 17.9378 309.561 17.6704C308.815 17.4005 311.225 15.4863 309.735 16.2285C308.244 16.9707 308.335 15.9386 308.712 14.0219C309.091 12.1101 311.271 11.0781 311.024 10.6607C310.778 10.2409 310.617 9.2288 311.153 7.67192C311.685 6.11255 310.703 6.62984 310.054 7.25959C309.408 7.89184 310.077 9.03638 310.077 9.03638C309.496 9.41373 309.652 9.95351 309.652 9.95351C308.636 10.5958 308.478 11.7003 308.272 12.9048C308.066 14.1068 306.729 16.6508 306.729 16.6508C304.625 17.6804 304.187 20.6767 300.445 22.1361C296.951 23.4981 295.317 21.4839 295.317 21.4839C295.317 21.4839 292.708 26.4094 291.574 22.8283C293.588 22.0637 295.324 21.4064 296.114 20.8616C297.989 19.5622 300.216 18.8649 300.937 18.66C301.078 18.6225 301.174 18.4976 301.166 18.3526C301.161 18.1752 301.063 18.0153 300.907 17.9253C300.754 17.8378 300.565 17.8353 300.409 17.9178C299.696 18.2727 298.484 18.8125 296.923 19.2748C295.935 19.5672 294.163 20.3293 292.009 21.3664C292.65 20.2419 291.657 20.6842 292.049 19.7546C292.469 18.7525 293.037 17.7079 292.323 18.4826C292.097 18.7275 291.911 18.8974 291.707 19.0699C292.693 14.8141 295.608 9.2288 295.9 7.18962C296.222 4.93802 297.227 2.84386 297.569 2.18163C297.637 2.05418 297.609 1.89924 297.499 1.80678C297.363 1.68932 297.179 1.65184 297.009 1.70432C296.84 1.7568 296.709 1.89174 296.664 2.06167C296.438 2.82387 296.011 4.07087 295.287 5.52278C294.608 6.88224 293.517 10.1909 292.426 14.0894C292.411 14.0894 292.396 14.0894 292.381 14.0894C290.772 14.1643 291.976 15.0565 290.028 15.3788C288.078 15.6987 289.02 16.271 287.567 18.4151C287.022 19.2198 286.203 20.5218 285.406 21.7338C284.833 21.4714 284.536 21.7038 283.832 21.9937C284.579 20.3493 285.665 18.585 286.449 17.7029C287.643 16.3584 286.577 15.1414 286.185 16.6358C285.919 17.6629 284.536 20.2769 283.282 22.1936C282.98 22.2886 282.621 22.3785 282.173 22.451C280.811 22.6659 278.348 23.1557 276.57 23.4131C277.01 22.6384 277.149 22.351 277.521 22.0037C279.114 21.5164 280.871 21.179 281.935 21.1515C283.739 21.104 283.908 19.4997 282.54 20.2344C281.806 20.6292 279.891 21.1915 278.008 21.6063C278.016 21.6013 278.023 21.5938 278.033 21.5888C279.18 20.7242 277.825 19.4897 279.139 19.0973C280.451 18.705 280.484 15.2189 279.305 15.8686C278.126 16.5184 278.126 20.8916 276.44 21.4164C275.982 21.5589 275.764 21.7863 275.63 22.0462C274.954 22.1386 274.376 22.1836 273.989 22.1536C272.26 22.0212 270.05 23.8629 269.583 22.7409C269.115 21.6188 270.146 20.7442 271.619 21.4989C273.092 22.2536 273.001 20.0045 271.744 19.9095C270.49 19.8146 270.033 21.3439 269.754 20.0869C269.718 19.927 269.683 19.7871 269.646 19.6671C272.272 17.7154 273.019 15.8187 272.026 16.8607C271.111 17.8229 270.958 18.2952 269.492 19.2898C269.241 18.8374 268.841 18.825 267.856 18.75C266.813 18.67 265.166 20.8017 263.917 21.6288C263.962 21.214 263.525 21.2965 263.03 21.9437C262.969 21.9362 262.909 21.9237 262.854 21.8987C261.682 21.3664 264.01 16.321 260.981 18.4601C258.236 20.3993 258.744 14.8191 257.427 18.69C256.987 19.9795 254.355 17.0257 254.162 18.1552C254.142 18.2777 254.119 18.3901 254.096 18.4951C254.066 18.4701 254.036 18.4476 254.001 18.4326C253.262 18.1427 255.728 16.2985 254.214 16.9957C252.704 17.6954 252.824 16.6658 253.257 14.7616C253.692 12.8598 255.899 11.8902 255.665 11.4679C255.431 11.0406 255.3 10.026 255.878 8.4841C256.454 6.94222 255.459 7.42952 254.79 8.03928C254.127 8.65153 254.762 9.81606 254.762 9.81606C254.172 10.1759 254.31 10.7207 254.31 10.7207C253.274 11.333 253.086 12.4325 252.847 13.6295C252.606 14.8266 251.196 17.3306 251.196 17.3306C251.052 17.3955 250.914 17.4705 250.783 17.5555C250.339 16.271 250.557 14.2868 251.09 12.0752C251.894 8.75899 248.609 9.78108 249.564 11.5279C250.517 13.2772 249.652 16.4934 248.926 17.8129C248.197 19.1298 245.952 14.7716 245.555 12.0452C245.158 9.31876 245.304 10.0135 242.049 5.28538C241.873 5.03048 241.707 4.77808 241.546 4.53318C241.91 3.63854 242.275 2.94382 242.456 2.61395C242.529 2.489 242.504 2.33406 242.396 2.2366C242.265 2.11665 242.081 2.07167 241.908 2.11915C241.737 2.16663 241.604 2.29908 241.554 2.46651C241.44 2.81137 241.28 3.26119 241.068 3.77848C240.571 2.96381 240.153 2.20911 239.796 1.52439C239.558 1.41443 239.294 1.39194 238.99 1.4919C238.942 1.51439 238.907 1.54438 238.877 1.57437C239.437 2.52899 240.07 3.58106 240.691 4.64064C240.51 5.03298 240.309 5.44782 240.076 5.88514C239.359 7.2271 238.173 10.5008 236.971 14.3667C236.956 14.3667 236.941 14.3667 236.926 14.3667C235.317 14.3942 236.494 15.3214 234.536 15.5887C232.577 15.8536 233.502 16.4509 231.989 18.5551C231.16 19.7096 229.709 21.9062 228.631 23.3431C228.297 23.3681 227.937 23.3881 227.558 23.4031C228.246 21.4989 229.843 18.9224 230.891 17.8104C232.125 16.5009 231.092 15.2539 230.66 16.7383C230.29 18.0053 228.126 21.6813 226.686 23.4281C224.924 23.4556 223.001 23.3731 221.905 23.1557C222.855 22.316 223.011 19.7446 221.93 20.2044C221.304 20.4693 220.882 21.7113 220.394 22.9183C218.881 22.9408 217.197 23.5805 217.036 22.6209C216.835 21.4214 218.041 20.8042 219.303 21.8737C220.562 22.9433 220.992 20.7342 219.791 20.3568C218.592 19.982 217.797 21.3639 217.81 20.0794C217.823 18.795 217.594 18.765 216.269 18.3451C214.947 17.9278 211.694 21.0616 210.674 20.2769C209.656 19.4922 213.079 15.1089 209.641 16.5034C206.524 17.7679 208.299 12.45 206.127 15.9211C205.403 17.0757 203.518 13.602 203.07 14.6616C202.623 15.7187 202.399 15.9761 200.795 14.894C199.194 13.8095 199.938 11.0931 201.482 8.04178C203.025 4.9955 199.594 5.2454 200.122 7.16213C200.526 8.64403 199.679 10.7282 198.805 12.1176C198.888 11.6678 199.061 11.128 199.368 10.5083C200.099 9.03138 199.059 9.41622 198.332 9.95851C197.608 10.5008 198.123 11.7228 198.123 11.7228C197.5 12.0227 197.583 12.5775 197.583 12.5775C197.432 12.6474 197.297 12.7299 197.173 12.8199C196.48 11.6678 195.929 8.70651 196.098 6.75479C196.306 4.35825 196.319 4.59316 194.934 1.14204C194.632 0.7472 194.32 0.364854 193.999 0C193.815 0.182427 193.722 0.362355 193.684 0.544782C193.883 1.25949 194.062 1.95172 194.2 2.59146C195.183 7.13464 196.623 12.7199 196.226 12.9573C195.826 13.1922 194.444 10.7882 193.4 8.2317C192.357 5.67272 192.189 3.56857 192.237 5.61775C192.284 7.66693 195.049 12.2476 195.376 13.3272C195.698 14.4067 194.868 14.4367 193.026 12.1276C191.186 9.81606 189.949 5.14294 189.778 7.54198C189.605 9.93851 193.089 12.9223 193.488 14.4742C193.888 16.0261 193.114 16.9257 193.114 16.9257V16.9207C192.302 17.2481 191.292 18.0103 190.708 17.1381C190.128 16.266 189.962 16.4334 189.125 16.0885C188.29 15.7462 186.737 14.2968 186.028 13.5396C185.319 12.7824 184.266 12.0152 185.025 13.0648C185.782 14.1143 189.492 16.7383 189.886 17.7254C190.284 18.71 189.489 20.2444 188.71 20.9391C188.001 21.5689 188.813 22.0786 188.796 22.7259C188.243 23.0258 187.607 23.2832 186.858 23.4681C186.448 23.5705 186.068 23.6305 185.716 23.6605C185.666 23.5281 185.621 23.3881 185.583 23.2407C185.317 22.1986 184.382 22.8908 184.857 23.4981C184.902 23.5556 184.937 23.6155 184.967 23.678C182.735 23.5855 181.858 22.1611 181.858 22.1611C181.858 22.1611 181.785 22.2636 181.662 22.421C181.29 21.7238 180.943 20.9391 180.646 20.1419C180.237 19.0349 179.643 18.2377 179.201 17.8403C180.92 14.0544 183.801 9.82106 184.294 8.06677C184.907 5.87514 186.174 3.92842 186.601 3.31367C186.687 3.19622 186.679 3.03878 186.581 2.93132C186.463 2.79888 186.284 2.7364 186.108 2.76639C185.935 2.79638 185.789 2.91383 185.721 3.07627C185.397 3.80098 184.811 4.9855 183.904 6.33246C183.054 7.59445 181.541 10.7332 179.953 14.4592C179.938 14.4592 179.923 14.4542 179.907 14.4542C178.304 14.3218 179.38 15.3613 177.406 15.4288C175.431 15.4938 176.29 16.1835 174.571 18.1227C172.852 20.062 168.737 25.2424 169.303 23.4081C169.868 21.5738 172.196 18.4526 173.556 17.2731C174.915 16.0935 174.016 14.7491 173.432 16.181C172.852 17.6129 169.486 22.0836 168.068 23.0757C166.651 24.0678 166.13 26.8892 165.05 26.3219C163.969 25.7547 164.205 24.4277 165.821 24.0753C167.44 23.7255 165.929 22.0487 164.899 22.7709C163.873 23.4931 164.499 24.96 163.479 24.1703C162.458 23.3806 162.295 23.5456 161.158 24.3402C160.025 25.1349 160.568 29.6056 159.319 29.938C158.074 30.2704 156.634 24.9075 155.671 28.4736C154.799 31.7073 151.614 27.0841 153.08 30.9026C153.567 32.1746 149.644 31.5648 150.222 32.5594C150.8 33.554 150.87 33.8864 149.03 34.5012C147.193 35.1134 145.469 32.8818 143.958 29.813C142.45 26.7468 140.577 29.6156 142.43 30.3578C144.285 31.1025 145.68 34.1288 145.966 35.6057C146.248 37.0826 141.726 35.1459 139.67 33.2966C137.616 31.4474 138.174 31.8897 132.634 30.3078C127.104 28.6985 124.563 26.4794 124.028 27.3965C123.49 28.3161 130.958 30.2779 135.193 32.2521C139.426 34.2213 144.772 36.4604 144.722 36.9202C144.669 37.3775 141.907 37.0202 139.227 36.2979C136.548 35.5757 134.758 34.4362 136.43 35.6382C138.101 36.8377 143.443 37.4225 144.503 37.8173C145.564 38.2147 145.084 38.8894 142.12 38.9519C139.157 39.0119 134.665 37.1626 136.482 38.7495C138.297 40.3363 142.794 39.3817 144.28 40.0065C145.765 40.6312 146.017 41.7857 146.017 41.7857H146.012C145.785 42.6254 145.783 43.8849 144.732 43.8174C143.681 43.75 143.717 43.9824 142.935 44.4347C142.156 44.887 140.054 45.2394 139.021 45.3443C137.986 45.4468 136.734 45.8166 138.036 45.8516C139.335 45.8891 143.681 44.5371 144.712 44.822C145.743 45.1044 146.489 46.6613 146.575 47.6959C146.658 48.7305 147.736 48.2232 148.196 48.8504C148.658 49.4802 149.332 49.7251 148.807 50.2499C148.281 50.7771 147.572 49.9125 147.799 50.4698C147.927 50.7846 148.198 50.8321 148.389 50.9196C148.239 51.057 148.083 51.1895 147.924 51.3169C147.693 51.4993 147.477 51.6593 147.286 51.7992C147.047 51.7542 146.791 51.6743 146.527 51.5643C145.531 51.1445 145.519 52.304 146.293 52.2965C146.399 52.2965 146.502 52.309 146.597 52.3365C146.471 52.474 146.549 52.5264 146.937 52.494C147.324 52.7713 147.462 53.3036 146.964 53.8584C146.243 54.6631 143.561 54.3582 141.06 53.5985C138.559 52.8388 136.719 53.6885 138.518 53.9209C139.107 53.9983 140.019 54.0758 141.027 54.1658C140.685 54.3957 140.522 54.963 140.798 55.4528C140.798 55.4528 141.618 56.5948 142.153 55.9201C142.653 55.2953 142.41 54.6331 141.816 54.2382C143.681 54.4132 145.655 54.6381 146.394 54.9805C147.653 55.5627 148.166 57.5694 146.652 58.4316C145.142 59.2962 144.046 60.4558 145.536 60.9231C147.032 61.3929 146.469 59.756 147.633 58.629C148.794 57.5019 149.086 57.5744 149.025 59.1238C148.962 60.6707 152.094 60.4982 152.906 59.2662C153.057 59.0388 153.233 58.9289 153.417 58.9164C153.399 59.7061 153.781 60.2408 153.967 60.7581C154.125 61.2055 154.347 61.8752 154.686 62.4999C154.681 62.5199 154.678 62.5399 154.673 62.5599C154.093 64.859 148.565 66.6908 149.807 66.8707C151.051 67.0481 149.558 69.897 149.52 70.8241C149.485 71.7512 150.551 73.8154 150.468 71.7962C150.383 69.7795 154.113 66.8432 154.344 67.5179C154.575 68.1927 152.052 69.9445 152.828 70.1169C153.603 70.2893 155.322 68.665 156.295 68.1477C156.493 68.0427 156.833 67.9403 157.255 67.8478C154.435 69.3722 155.842 69.7945 155.89 70.7866C155.94 71.7987 153.844 72.2735 154.422 73.0157C155 73.7579 153.924 75.5172 152.135 77.239C150.347 78.9633 152.059 80.8726 152.64 78.8184C153.218 76.7667 154.153 75.1724 155.299 73.8329C156.445 72.4934 158.796 70.7092 160.166 69.7645C161.03 69.1673 161.789 69.4921 162.473 69.8045C162.081 71.1065 161.392 72.6984 161.093 73.678C160.56 75.4198 160.988 74.785 161.815 75.6747C162.641 76.5643 162.051 78.2236 162.689 79.0658C163.33 79.908 164.162 76.3544 163.323 74.75C162.521 73.2231 162.843 71.3639 163.991 70.1619C164.954 70.1994 166.274 70.5142 166.844 72.4185C167.498 74.6051 166.942 79.2582 165.183 81.5598C163.426 83.8614 163.33 86.1754 162.312 87.9472C161.294 89.719 161.613 91.3659 160.952 92.0856C160.294 92.8053 160.774 94.8345 158.723 97.2085C156.674 99.5801 158.582 99.2827 158.655 98.448C158.73 97.6109 159.907 95.7091 161.274 94.7645C162.641 93.8224 160.362 93.7399 162.038 92.1306C163.715 90.5212 164.617 89.749 164.218 87.6524C163.818 85.5582 165.374 82.5219 167.975 80.3153C170.577 78.1062 173.616 75.5547 176.637 75.1074C176.916 75.0649 177.195 75.1224 177.432 75.2573C177.281 75.5047 177.135 75.7971 176.959 76.142C176.368 77.2965 175.949 76.022 175.667 76.9167C175.385 77.8088 174.558 78.7209 174.119 78.8734C173.681 79.0258 173.837 80.1379 174.775 78.676C175.712 77.2115 176.884 77.219 177.16 76.7517C177.308 76.5043 177.648 76.3769 178.047 76.192C178.075 76.4568 178.02 76.7292 177.874 76.9616C177.286 77.9437 176.637 78.9408 175.911 79.7905C173.847 82.2045 173.948 88.3396 171.527 92.313C171.527 92.313 170.579 93.2351 171.208 93.9398C171.834 94.642 171.851 93.8724 172.176 92.4679C172.5 91.061 176.215 87.6474 178.465 83.3491C179.661 81.0575 180.005 79.0308 180.33 77.274C181.451 78.9109 182.396 80.8626 183.037 83.2016H183.039C183.537 85.0234 184.173 86.7177 183.489 87.6923C182.803 88.6644 183.13 89.2442 183.7 90.4088C184.269 91.5758 182.994 91.136 183.54 91.9006C184.085 92.6628 184.314 93.8699 184.17 94.3097C184.03 94.7495 185.013 95.2968 184.409 93.6724C183.804 92.0456 184.517 91.121 184.311 90.6212C184.108 90.1189 184.648 89.3567 184.477 88.2471C184.309 87.1401 184.766 85.9505 184.306 84.4211C183.849 82.8918 184.568 80.4277 185.41 79.4606C185.907 78.8884 186.435 78.7609 186.89 78.7934C186.541 79.1233 186.144 79.4282 185.679 79.7005C184.668 80.2928 185.978 81.01 186.609 79.778C186.79 79.4257 186.983 79.1058 187.177 78.8334C187.375 78.8759 187.554 78.9408 187.7 79.0008C188.22 79.2107 189.13 78.7559 189.675 79.5206C190.017 80.0004 190.502 80.7301 190.897 81.4324C190.397 81.4249 189.902 81.115 189.565 80.4003C188.853 78.8859 187.599 78.7859 187.028 80.0604C186.458 81.3324 189.135 82.412 189.359 83.494C189.582 84.5761 188.823 85.9755 187.848 86.8727C186.873 87.7673 187.385 88.7469 187.969 88.1372C188.554 87.5249 188.534 85.7956 190.296 84.3362C190.995 83.7589 191.397 83.439 191.651 83.2116C191.85 83.9588 191.927 84.7635 191.822 85.6657C191.686 86.8252 193.051 86.2204 192.448 84.9759C192.081 84.2187 191.862 83.5115 191.855 83.0167C192.058 82.7968 192.108 82.6394 192.249 82.262C192.506 81.5673 193.84 80.6552 194.476 78.7484C195.436 79.3807 196.211 80.1604 196.475 80.7926C197.012 82.0671 196.382 83.3666 194.735 83.0142C193.091 82.6618 192.254 83.594 192.928 84.8185C193.602 86.0405 196.085 84.5736 197.088 85.0509C198.091 85.5282 198.752 86.9751 198.88 88.2896C199.006 89.6016 200.102 89.7915 199.966 88.9568C199.83 88.1247 198.433 87.0926 198.33 84.816C198.227 82.5369 198.307 82.7268 197.847 82.0146C197.387 81.3024 197.555 79.2907 195.798 77.4015C195.62 77.209 195.504 77.0291 195.441 76.8592C196.163 76.6618 197.327 77.1441 198.712 77.404C198.777 77.4714 198.847 77.5364 198.923 77.5964C199.84 78.3011 200.642 78.6984 200.76 79.3782C200.878 80.0579 200.76 81.2349 201.019 81.5098C201.278 81.7847 200.989 82.4769 201.25 83.0642C201.512 83.6515 201.225 83.9139 201.474 84.3312C201.725 84.746 201.854 84.3087 201.361 82.7793C200.868 81.2474 201.454 81.5348 201.165 80.5702C200.878 79.6056 200.944 79.5631 201.248 78.7759C201.552 77.9862 202.113 77.2515 202.472 77.4265C202.472 77.4265 202.593 77.284 202.771 77.1116C203.294 77.0191 203.787 76.9741 204.249 76.9691C204.636 77.7438 204.802 78.7209 205.018 78.7584C205.224 78.7959 204.553 77.6414 204.438 76.9691C206.484 76.9791 207.876 77.6764 208.387 77.6439C208.595 77.6314 208.987 77.7163 209.435 77.8463C208.1 81.3149 208.238 81.6473 208.864 83.3391C209.611 85.3608 208.459 89.2142 209.065 91.2809C209.674 93.3501 208.283 96.5913 210.249 98.538C212.215 100.487 210.679 103.389 210.455 105.205C210.229 107.022 212.381 105.295 213.416 103.853C214.452 102.411 211.611 101.739 211.808 98.8329C212.006 95.9265 210.769 94.0248 209.857 91.7857C208.942 89.5466 209.43 88.597 210.297 85.2783C210.578 84.2012 211.089 81.6473 211.639 78.596C211.82 78.6635 211.931 78.7059 211.931 78.7059C211.931 78.7059 212.19 77.9687 214.236 78.3661C215.329 78.5785 215.839 78.681 216.405 78.7059C216.181 79.0133 215.935 79.3282 215.668 79.6431C214.065 81.5398 215.963 83.2641 216.332 81.1625C216.488 80.2703 216.719 79.4581 217.008 78.7034C217.375 78.6884 217.818 78.6535 218.443 78.5985C220.603 78.4111 221.447 79.3132 222.95 81.5323C224.451 83.7489 224.348 82.9467 225.389 83.6065C226.429 84.2662 226.96 84.7235 225.894 83.2291C224.825 81.7347 223.332 80.8726 221.91 79.6031C221.037 78.8259 222.274 78.1262 223.795 77.9737C225.296 78.7709 226.283 80.5627 227.231 81.4773C228.174 82.3895 228.4 81.2474 228.262 79.9055C228.737 80.4253 229.177 81.015 229.571 81.6573C229.43 82.0071 229.272 82.332 229.091 82.6269C227.575 85.0934 227.716 87.405 226.884 89.2717C226.05 91.136 226.535 92.7428 225.952 93.525C225.368 94.3072 226.055 96.2789 224.252 98.8454C222.455 101.409 224.323 100.925 224.313 100.085C224.305 99.2452 225.28 97.2335 226.545 96.1565C227.809 95.0819 225.532 95.2293 227.037 93.46C228.541 91.6907 229.36 90.8311 228.749 88.7869C228.282 87.2275 228.898 85.0084 230.265 82.9517C230.504 83.464 230.715 83.9988 230.886 84.5461C231.705 87.1526 232.153 86.2879 233.271 87.6923C234.392 89.0943 236.265 91.2609 236.265 91.2609C235.327 89.9339 233.915 88.0572 233.502 87.1026C233.09 86.1455 233.605 85.1634 232.706 84.5536C232.198 84.2087 231.416 83.3641 230.662 82.387C230.989 81.9471 231.348 81.5173 231.74 81.11C231.997 80.8426 232.258 80.5727 232.525 80.3003C234.045 81.5173 233.46 82.0746 234.586 84.3562C235.762 86.7352 236.37 87.7498 236.272 86.6428C236.164 85.4657 234.397 82.0646 233.093 79.7255C233.927 78.8859 234.804 78.0587 235.712 77.3265C237.306 76.9916 239.309 76.5943 241.332 75.947C241.403 76.2219 241.375 76.5168 241.247 76.7792C240.762 77.8138 240.219 78.8709 239.58 79.7905C237.773 82.3995 238.494 88.492 236.491 92.6903C236.491 92.6903 235.642 93.7024 236.338 94.3422C237.034 94.9769 236.971 94.2097 237.152 92.7803C237.331 91.3484 240.681 87.5799 242.481 83.0767C243.439 80.6776 243.577 78.626 243.718 76.8467C244.535 77.8113 245.291 78.9134 245.96 80.1704C245.538 80.9625 245.07 81.5623 244.434 81.7372C243.283 82.0521 243.162 82.7043 242.856 83.9638C242.546 85.2233 241.845 84.0763 241.775 85.0109C241.707 85.943 241.109 87.0201 240.716 87.2675C240.327 87.5149 240.732 88.562 241.31 86.9252C241.888 85.2883 243.029 85.0284 243.19 84.5111C243.353 83.9963 244.261 83.7489 244.839 82.7868C245.218 82.1596 245.824 81.6722 246.375 81C246.598 81.4723 246.812 81.9596 247.011 82.4719H247.013C247.694 84.2362 248.499 85.8581 247.915 86.8952C247.332 87.9297 247.714 88.4745 248.401 89.5766C249.084 90.6811 247.772 90.3713 248.39 91.076C249.009 91.7807 249.361 92.9577 249.263 93.41C249.167 93.8624 250.203 94.3097 249.434 92.7503C248.667 91.1934 249.283 90.2013 249.026 89.724C248.773 89.2467 249.233 88.432 248.951 87.345C248.67 86.2604 249.006 85.0334 248.39 83.5565C247.78 82.0796 248.245 79.5556 248.986 78.5085C249.728 77.4614 250.68 77.6639 251.218 77.8213C251.759 77.9787 252.616 77.4365 253.237 78.1387C253.563 78.511 254.008 79.0483 254.418 79.6006C254.335 80.5552 254.144 82.0046 253.842 82.8468C253.513 83.7664 252.998 84.6411 252.153 85.4457C251.306 86.2529 252.747 86.6528 253.078 85.3108C253.413 83.9688 253.968 82.9792 254.501 83.0917C255.036 83.2016 254.662 82.0121 255.177 81.7847C255.323 81.7197 255.476 81.7247 255.622 81.7222C255.871 82.4145 256.012 83.1767 255.999 84.0363C255.982 85.2033 257.279 84.4661 256.55 83.2866C256.193 82.7093 255.936 82.1546 255.821 81.7022C256.092 81.6423 256.283 81.3899 256.228 80.2603C256.173 79.1233 256.796 79.1408 257.45 79.4207C257.824 79.8955 258.138 80.4752 258.385 81.085C256.886 81.02 256.258 81.9846 257.012 83.0767C257.399 83.6365 258.151 83.5165 258.94 83.2916C258.993 83.8189 258.97 84.2887 258.865 84.6361C258.462 85.958 257.143 86.5603 256.1 85.2458C255.059 83.9338 253.815 84.1213 253.551 85.4907C253.29 86.8602 256.142 87.3025 256.607 88.3046C257.075 89.3067 256.658 90.8436 255.911 91.9356C255.167 93.0277 255.891 93.8649 256.318 93.1377C256.748 92.4104 256.331 90.7311 257.711 88.9094C259.091 87.0876 259.031 87.285 259.134 86.4453C259.217 85.7556 260.187 84.6586 260.453 82.8693C260.725 82.8243 260.971 82.8193 261.172 82.8893C262.218 83.2616 263.025 84.6361 263.284 85.933C263.542 87.225 264.651 87.3025 264.43 86.4878C264.211 85.6732 262.716 84.7885 262.381 82.5319C262.147 80.9575 262.125 80.5702 261.954 80.2553C262.605 80.2203 263.424 80.2878 264.312 80.2503C264.392 80.3028 264.475 80.3503 264.56 80.3903C265.616 80.8676 266.486 81.0725 266.757 81.7072C267.029 82.342 267.182 83.5165 267.499 83.7239C267.816 83.9313 267.692 84.671 268.08 85.1858C268.467 85.7006 268.25 86.0205 268.59 86.3679C268.929 86.7152 268.954 86.2604 268.125 84.881C267.293 83.5015 267.929 83.6465 267.428 82.7743C266.928 81.9022 266.984 81.8447 267.097 81.0075C267.212 80.1679 267.587 79.3257 267.979 79.4157C267.979 79.4157 268.062 79.2482 268.198 79.0408C268.685 78.8309 269.155 78.6785 269.603 78.566C270.158 79.2332 270.543 80.1454 270.762 80.1329C270.97 80.1229 270.053 79.1508 269.786 78.521C271.782 78.0662 273.295 78.4286 273.785 78.2836C273.881 78.2561 274.024 78.2386 274.198 78.2336C273.881 78.7784 273.476 79.3632 273.006 79.9529C271.458 81.8947 273.406 83.564 273.713 81.4548C273.886 80.2603 274.195 79.2007 274.602 78.2361C274.683 78.2361 274.766 78.2411 274.851 78.2461C274.346 81.9272 274.56 82.217 275.555 83.7239C276.746 85.5232 276.51 89.5366 277.573 91.4108C278.642 93.2876 278.031 96.7587 280.394 98.2056C281.025 98.593 281.424 99.1053 281.681 99.68C281.057 100.907 281.623 101 281.985 100.677C282.244 102.054 282.01 103.586 282.126 104.651C282.324 106.472 284.023 104.301 284.699 102.664C285.268 101.289 283.304 101.059 282.377 99.3227C282.679 98.3431 283.428 96.9886 284.35 96.1539C285.584 95.0419 283.312 95.2543 284.765 93.4425C286.218 91.6308 287.012 90.7486 286.341 88.7219C285.67 86.6952 286.818 83.4865 289.111 80.965C289.45 80.5927 289.8 80.2103 290.154 79.8255C290.79 80.2203 290.906 79.9479 291.707 80.2278C292.871 80.6327 293.492 80.96 292.112 79.748C291.758 79.4382 291.386 79.1733 290.999 78.9383C291.956 77.9512 292.967 77.0066 294.02 76.2394C295.111 77.0566 296.124 78.1362 296.941 79.3732C296.931 79.3882 296.921 79.4057 296.911 79.4207C295.179 82.0796 296.076 88.1497 294.193 92.4029C294.193 92.4029 293.374 93.44 294.088 94.0573C294.802 94.672 294.716 93.9073 294.857 92.4729C294.995 91.0385 298.235 87.1725 299.904 82.6219C299.955 82.4869 300 82.352 300.045 82.2195C300.13 82.277 300.218 82.342 300.314 82.417C301.727 83.529 304.047 85.2133 304.047 85.2133C302.83 84.1338 301.023 82.6269 300.402 81.7922C300.344 81.7122 300.294 81.6323 300.251 81.5498C300.528 80.5802 300.688 79.6706 300.784 78.8184C300.799 78.8359 300.814 78.8559 300.829 78.8734C302.521 80.9226 303.348 81.7722 302.996 80.7176C302.787 80.0954 301.925 78.9234 300.887 77.6614C300.917 77.2115 300.937 76.7792 300.96 76.3619C302.285 77.8413 303.476 79.6556 304.416 81.8922H304.419C305.15 83.634 306 85.2333 305.449 86.2879C304.896 87.34 305.296 87.8723 306.012 88.9543C306.726 90.0389 305.407 89.7665 306.045 90.4537C306.686 91.141 307.068 92.3055 306.983 92.7603C306.9 93.2151 307.948 93.6325 307.136 92.0956C306.324 90.5612 306.91 89.5516 306.641 89.0818C306.374 88.612 306.809 87.7848 306.497 86.7052C306.186 85.6307 306.485 84.3912 305.829 82.9343C305.175 81.4748 305.567 78.9409 306.279 77.8738C306.99 76.8067 307.948 76.9791 308.491 77.1216C309.034 77.264 309.878 76.6967 310.517 77.3815C311.155 78.0662 312.231 79.3332 312.683 80.2003C313.136 81.0675 313.427 82.0371 313.445 83.2016C313.46 84.3687 314.737 83.594 313.975 82.4369C313.216 81.2774 312.864 80.2003 313.312 79.8905C313.757 79.5756 312.626 79.0383 312.809 78.5085C312.993 77.9787 313.895 77.9587 312.404 76.7042C311.53 75.9695 311.967 75.5272 312.621 75.2448C314.523 75.4023 316.808 76.7117 317.422 77.7688C318.12 78.9633 317.665 80.3328 315.986 80.1953C314.31 80.0579 313.601 81.09 314.43 82.217C315.257 83.3416 317.53 81.5698 318.585 81.9122C319.641 82.2545 320.486 83.6065 320.782 84.8935C321.079 86.178 322.187 86.2254 321.946 85.4158C321.705 84.6061 320.184 83.7664 319.784 81.5198C319.385 79.2732 319.488 79.4531 318.94 78.8059C318.392 78.1587 318.296 76.142 316.308 74.4951C314.933 73.3581 316.517 72.4384 317.909 70.8166C318.002 70.7941 318.093 70.7666 318.181 70.7291C319.251 70.2868 319.995 69.7945 320.649 70.0269C321.3 70.2618 322.27 70.9516 322.637 70.8641C323.007 70.7766 323.467 71.3689 324.108 71.4364C324.751 71.5038 324.837 71.8812 325.324 71.8712C325.812 71.8612 325.495 71.5338 323.912 71.1965C322.331 70.8616 322.871 70.4967 321.886 70.2668C320.9 70.0369 320.898 69.957 320.36 69.3047C319.822 68.65 319.458 67.8003 319.792 67.5779C319.792 67.5779 319.726 67.403 319.666 67.1631C319.845 66.6658 320.051 66.2185 320.274 65.8161C321.144 65.8661 322.079 66.2085 322.217 66.041C322.353 65.8836 321.011 65.8861 320.367 65.6512C321.393 63.8894 322.693 63.0372 322.919 62.5799C323.012 62.395 323.281 62.1001 323.615 61.7752C325.98 64.6516 326.337 64.6941 328.127 64.9964C330.264 65.3563 333.054 68.2651 335.16 68.7674C337.269 69.2697 339.408 72.0786 342.082 71.3489C344.759 70.6217 346.532 73.3881 348.005 74.4826C349.48 75.5797 349.04 72.8658 348.296 71.2564L348.311 71.2414Z" fill="white"/>
<path d="M440.311 71.2414C439.567 69.6321 437.569 71.7487 435.128 70.1344C432.69 68.52 430.415 68.6425 428.007 68.3176C425.597 67.9927 425.013 67.1006 422.543 64.7066C421.741 63.9294 419.768 62.22 417.377 60.2283C417.525 60.1059 417.618 60.0334 417.618 60.0334C417.618 60.0334 417.103 59.4437 418.468 57.8743C419.833 56.3024 419.85 56.3149 420.76 54.3582C421.67 52.4015 422.877 52.1216 425.561 51.9267C428.243 51.7343 427.492 51.4244 428.583 50.8521C429.676 50.2798 430.337 50.0524 428.505 50.2299C426.67 50.4098 425.177 51.2694 423.359 51.8667C421.542 52.4665 422.706 48.3106 424.674 47.2835C426.64 46.2565 429.452 45.9916 432.134 46.5788C434.816 47.1661 434.284 46.3514 436.066 46.084C437.848 45.8141 440.668 45.2743 440.668 45.2743C439.044 45.4243 436.704 45.7117 435.666 45.5917C434.625 45.4743 434.025 44.5396 433.044 45.0119C432.067 45.4843 429.294 45.9191 427.341 45.8891C425.385 45.8591 426.941 44.0323 428.995 43.1552C431.049 42.2755 431.144 43.1227 433.806 43.2901C436.468 43.4576 437.657 43.4351 436.639 42.9728C435.09 42.2681 427.854 42.2381 426.491 42.288C425.127 42.3355 424.317 40.9486 421.374 41.6333C418.43 42.3155 420.886 39.2743 420.175 38.0597C419.466 36.8452 416.764 37.1051 416.052 36.8027C415.344 36.5054 416.246 34.9985 415.517 34.971C414.791 34.9435 415.155 34.0463 415.444 32.2521C415.731 30.4553 421.665 26.4969 423.297 23.743C424.928 20.9891 424.561 21.0366 425.682 20.1419C426.803 19.2448 425.413 18.0503 426.715 17.6179C428.015 17.1881 427.947 13.7045 426.788 14.3867C425.629 15.069 425.755 19.4422 424.083 20.0145C422.412 20.5842 424.021 22.2186 421.17 22.4935C418.322 22.7634 412.29 25.2499 411.789 25.4048C411.289 25.5548 411.915 23.8779 413.348 22.7634C414.783 21.6488 413.056 21.3464 416.349 19.1123C419.644 16.8782 420.602 14.4017 419.539 15.5862C418.476 16.7708 418.488 17.2206 416.055 18.775C413.624 20.3318 411.586 22.426 411.204 23.1982C410.822 23.9704 411.817 23.3906 411.867 24.0504C411.918 24.7076 409.804 26.6693 408.652 27.8413C407.501 29.0134 406.094 28.3261 406.747 26.7268C407.401 25.1274 410.857 22.1786 411.397 21.0965C411.938 20.0145 411.118 20.0445 410.397 21.3914C409.68 22.7359 406.719 26.1095 406.081 26.7293C405.44 27.349 404.794 27.5939 403.884 27.2291C402.977 26.8667 403.527 25.5173 401.594 24.96C399.664 24.3977 399.196 23.3256 400.508 21.9087C401.82 20.4943 402.308 17.9378 401.561 17.6704C400.815 17.4005 403.225 15.4863 401.735 16.2285C400.244 16.9707 400.335 15.9386 400.712 14.0219C401.091 12.1101 403.271 11.0781 403.024 10.6607C402.778 10.2409 402.617 9.2288 403.153 7.67192C403.685 6.11255 402.703 6.62984 402.054 7.25959C401.408 7.89184 402.077 9.03638 402.077 9.03638C401.496 9.41373 401.652 9.95351 401.652 9.95351C400.636 10.5958 400.478 11.7003 400.272 12.9048C400.066 14.1068 398.729 16.6508 398.729 16.6508C396.625 17.6804 396.187 20.6767 392.445 22.1361C388.951 23.4981 387.317 21.4839 387.317 21.4839C387.317 21.4839 384.708 26.4094 383.574 22.8283C385.588 22.0637 387.324 21.4064 388.114 20.8616C389.989 19.5622 392.216 18.8649 392.937 18.66C393.078 18.6225 393.174 18.4976 393.166 18.3526C393.161 18.1752 393.063 18.0153 392.907 17.9253C392.754 17.8378 392.565 17.8353 392.409 17.9178C391.696 18.2727 390.484 18.8125 388.923 19.2748C387.935 19.5672 386.163 20.3293 384.009 21.3664C384.65 20.2419 383.657 20.6842 384.049 19.7546C384.469 18.7525 385.037 17.7079 384.323 18.4826C384.097 18.7275 383.911 18.8974 383.707 19.0699C384.693 14.8141 387.608 9.2288 387.9 7.18962C388.222 4.93802 389.227 2.84386 389.569 2.18163C389.637 2.05418 389.609 1.89924 389.499 1.80678C389.363 1.68932 389.179 1.65184 389.009 1.70432C388.84 1.7568 388.709 1.89174 388.664 2.06167C388.438 2.82387 388.011 4.07087 387.287 5.52278C386.608 6.88224 385.517 10.1909 384.426 14.0894C384.411 14.0894 384.396 14.0894 384.381 14.0894C382.772 14.1643 383.976 15.0565 382.028 15.3788C380.078 15.6987 381.02 16.271 379.567 18.4151C379.022 19.2198 378.203 20.5218 377.406 21.7338C376.833 21.4714 376.536 21.7038 375.832 21.9937C376.579 20.3493 377.665 18.585 378.449 17.7029C379.643 16.3584 378.577 15.1414 378.185 16.6358C377.919 17.6629 376.536 20.2769 375.282 22.1936C374.98 22.2886 374.621 22.3785 374.173 22.451C372.811 22.6659 370.348 23.1557 368.57 23.4131C369.01 22.6384 369.149 22.351 369.521 22.0037C371.114 21.5164 372.871 21.179 373.935 21.1515C375.739 21.104 375.908 19.4997 374.54 20.2344C373.806 20.6292 371.891 21.1915 370.008 21.6063C370.016 21.6013 370.023 21.5938 370.033 21.5888C371.18 20.7242 369.825 19.4897 371.139 19.0973C372.451 18.705 372.484 15.2189 371.305 15.8686C370.126 16.5184 370.126 20.8916 368.44 21.4164C367.982 21.5589 367.764 21.7863 367.63 22.0462C366.954 22.1386 366.376 22.1836 365.989 22.1536C364.26 22.0212 362.05 23.8629 361.583 22.7409C361.115 21.6188 362.146 20.7442 363.619 21.4989C365.092 22.2536 365.001 20.0045 363.744 19.9095C362.49 19.8146 362.033 21.3439 361.754 20.0869C361.718 19.927 361.683 19.7871 361.646 19.6671C364.272 17.7154 365.019 15.8187 364.026 16.8607C363.111 17.8229 362.958 18.2952 361.492 19.2898C361.241 18.8374 360.841 18.825 359.856 18.75C358.813 18.67 357.166 20.8017 355.917 21.6288C355.962 21.214 355.525 21.2965 355.03 21.9437C354.969 21.9362 354.909 21.9237 354.854 21.8987C353.682 21.3664 356.01 16.321 352.981 18.4601C350.236 20.3993 350.744 14.8191 349.427 18.69C348.987 19.9795 346.355 17.0257 346.162 18.1552C346.142 18.2777 346.119 18.3901 346.096 18.4951C346.066 18.4701 346.036 18.4476 346.001 18.4326C345.262 18.1427 347.728 16.2985 346.214 16.9957C344.704 17.6954 344.824 16.6658 345.257 14.7616C345.692 12.8598 347.899 11.8902 347.665 11.4679C347.431 11.0406 347.3 10.026 347.878 8.4841C348.454 6.94222 347.459 7.42952 346.79 8.03928C346.127 8.65153 346.762 9.81606 346.762 9.81606C346.172 10.1759 346.31 10.7207 346.31 10.7207C345.274 11.333 345.086 12.4325 344.847 13.6295C344.606 14.8266 343.196 17.3306 343.196 17.3306C343.052 17.3955 342.914 17.4705 342.783 17.5555C342.339 16.271 342.557 14.2868 343.09 12.0752C343.894 8.75899 340.609 9.78108 341.564 11.5279C342.517 13.2772 341.652 16.4934 340.926 17.8129C340.197 19.1298 337.952 14.7716 337.555 12.0452C337.158 9.31876 337.304 10.0135 334.049 5.28538C333.873 5.03048 333.707 4.77808 333.546 4.53318C333.91 3.63854 334.275 2.94382 334.456 2.61395C334.529 2.489 334.504 2.33406 334.396 2.2366C334.265 2.11665 334.081 2.07167 333.908 2.11915C333.737 2.16663 333.604 2.29908 333.554 2.46651C333.44 2.81137 333.28 3.26119 333.068 3.77848C332.571 2.96381 332.153 2.20911 331.796 1.52439C331.558 1.41443 331.294 1.39194 330.99 1.4919C330.942 1.51439 330.907 1.54438 330.877 1.57437C331.437 2.52899 332.07 3.58106 332.691 4.64064C332.51 5.03298 332.309 5.44782 332.076 5.88514C331.359 7.2271 330.173 10.5008 328.971 14.3667C328.956 14.3667 328.941 14.3667 328.926 14.3667C327.317 14.3942 328.494 15.3214 326.536 15.5887C324.577 15.8536 325.502 16.4509 323.989 18.5551C323.16 19.7096 321.709 21.9062 320.631 23.3431C320.297 23.3681 319.937 23.3881 319.558 23.4031C320.246 21.4989 321.843 18.9224 322.891 17.8104C324.125 16.5009 323.092 15.2539 322.66 16.7383C322.29 18.0053 320.126 21.6813 318.686 23.4281C316.924 23.4556 315.001 23.3731 313.905 23.1557C314.855 22.316 315.011 19.7446 313.93 20.2044C313.304 20.4693 312.882 21.7113 312.394 22.9183C310.881 22.9408 309.197 23.5805 309.036 22.6209C308.835 21.4214 310.041 20.8042 311.303 21.8737C312.562 22.9433 312.992 20.7342 311.791 20.3568C310.592 19.982 309.797 21.3639 309.81 20.0794C309.823 18.795 309.594 18.765 308.269 18.3451C306.947 17.9278 303.694 21.0616 302.674 20.2769C301.656 19.4922 305.079 15.1089 301.641 16.5034C298.524 17.7679 300.299 12.45 298.127 15.9211C297.403 17.0757 295.518 13.602 295.07 14.6616C294.623 15.7187 294.399 15.9761 292.795 14.894C291.194 13.8095 291.938 11.0931 293.482 8.04178C295.025 4.9955 291.594 5.2454 292.122 7.16213C292.526 8.64403 291.679 10.7282 290.805 12.1176C290.888 11.6678 291.061 11.128 291.368 10.5083C292.099 9.03138 291.059 9.41622 290.332 9.95851C289.608 10.5008 290.123 11.7228 290.123 11.7228C289.5 12.0227 289.583 12.5775 289.583 12.5775C289.432 12.6474 289.297 12.7299 289.173 12.8199C288.48 11.6678 287.929 8.70651 288.098 6.75479C288.306 4.35825 288.319 4.59316 286.934 1.14204C286.632 0.7472 286.32 0.364854 285.999 0C285.815 0.182427 285.722 0.362355 285.684 0.544782C285.883 1.25949 286.062 1.95172 286.2 2.59146C287.183 7.13464 288.623 12.7199 288.226 12.9573C287.826 13.1922 286.444 10.7882 285.4 8.2317C284.357 5.67272 284.189 3.56857 284.237 5.61775C284.284 7.66693 287.049 12.2476 287.376 13.3272C287.698 14.4067 286.868 14.4367 285.026 12.1276C283.186 9.81606 281.949 5.14294 281.778 7.54198C281.605 9.93851 285.089 12.9223 285.488 14.4742C285.888 16.0261 285.114 16.9257 285.114 16.9257V16.9207C284.302 17.2481 283.292 18.0103 282.708 17.1381C282.128 16.266 281.962 16.4334 281.125 16.0885C280.29 15.7462 278.737 14.2968 278.028 13.5396C277.319 12.7824 276.266 12.0152 277.025 13.0648C277.782 14.1143 281.492 16.7383 281.886 17.7254C282.284 18.71 281.489 20.2444 280.71 20.9391C280.001 21.5689 280.813 22.0786 280.796 22.7259C280.243 23.0258 279.607 23.2832 278.858 23.4681C278.448 23.5705 278.068 23.6305 277.716 23.6605C277.666 23.5281 277.621 23.3881 277.583 23.2407C277.317 22.1986 276.382 22.8908 276.857 23.4981C276.902 23.5556 276.937 23.6155 276.967 23.678C274.735 23.5855 273.858 22.1611 273.858 22.1611C273.858 22.1611 273.785 22.2636 273.662 22.421C273.29 21.7238 272.943 20.9391 272.646 20.1419C272.237 19.0349 271.643 18.2377 271.201 17.8403C272.92 14.0544 275.801 9.82106 276.294 8.06677C276.907 5.87514 278.174 3.92842 278.601 3.31367C278.687 3.19622 278.679 3.03878 278.581 2.93132C278.463 2.79888 278.284 2.7364 278.108 2.76639C277.935 2.79638 277.789 2.91383 277.721 3.07627C277.397 3.80098 276.811 4.9855 275.904 6.33246C275.054 7.59445 273.541 10.7332 271.953 14.4592C271.938 14.4592 271.923 14.4542 271.907 14.4542C270.304 14.3218 271.38 15.3613 269.406 15.4288C267.431 15.4938 268.29 16.1835 266.571 18.1227C264.852 20.062 260.737 25.2424 261.303 23.4081C261.868 21.5738 264.196 18.4526 265.556 17.2731C266.915 16.0935 266.016 14.7491 265.432 16.181C264.852 17.6129 261.486 22.0836 260.068 23.0757C258.651 24.0678 258.13 26.8892 257.05 26.3219C255.969 25.7547 256.205 24.4277 257.821 24.0753C259.44 23.7255 257.929 22.0487 256.899 22.7709C255.873 23.4931 256.499 24.96 255.479 24.1703C254.458 23.3806 254.295 23.5456 253.158 24.3402C252.025 25.1349 252.568 29.6056 251.319 29.938C250.074 30.2704 248.634 24.9075 247.671 28.4736C246.799 31.7073 243.614 27.0841 245.08 30.9026C245.567 32.1746 241.644 31.5648 242.222 32.5594C242.8 33.554 242.87 33.8864 241.03 34.5012C239.193 35.1134 237.469 32.8818 235.958 29.813C234.45 26.7468 232.577 29.6156 234.43 30.3578C236.285 31.1025 237.68 34.1288 237.966 35.6057C238.248 37.0826 233.726 35.1459 231.67 33.2966C229.616 31.4474 230.174 31.8897 224.634 30.3078C219.104 28.6985 216.563 26.4794 216.028 27.3965C215.49 28.3161 222.958 30.2779 227.193 32.2521C231.426 34.2213 236.772 36.4604 236.722 36.9202C236.669 37.3775 233.907 37.0202 231.227 36.2979C228.548 35.5757 226.758 34.4362 228.43 35.6382C230.101 36.8377 235.443 37.4225 236.503 37.8173C237.564 38.2147 237.084 38.8894 234.12 38.9519C231.157 39.0119 226.665 37.1626 228.482 38.7495C230.297 40.3363 234.794 39.3817 236.28 40.0065C237.765 40.6312 238.017 41.7857 238.017 41.7857H238.012C237.785 42.6254 237.783 43.8849 236.732 43.8174C235.681 43.75 235.717 43.9824 234.935 44.4347C234.156 44.887 232.054 45.2394 231.021 45.3443C229.986 45.4468 228.734 45.8166 230.036 45.8516C231.335 45.8891 235.681 44.5371 236.712 44.822C237.743 45.1044 238.489 46.6613 238.575 47.6959C238.658 48.7305 239.736 48.2232 240.196 48.8504C240.658 49.4802 241.332 49.7251 240.807 50.2499C240.281 50.7771 239.572 49.9125 239.799 50.4698C239.927 50.7846 240.198 50.8321 240.389 50.9196C240.239 51.057 240.083 51.1895 239.924 51.3169C239.693 51.4993 239.477 51.6593 239.286 51.7992C239.047 51.7542 238.791 51.6743 238.527 51.5643C237.531 51.1445 237.519 52.304 238.293 52.2965C238.399 52.2965 238.502 52.309 238.597 52.3365C238.471 52.474 238.549 52.5264 238.937 52.494C239.324 52.7713 239.462 53.3036 238.964 53.8584C238.243 54.6631 235.561 54.3582 233.06 53.5985C230.559 52.8388 228.719 53.6885 230.518 53.9209C231.107 53.9983 232.019 54.0758 233.027 54.1658C232.685 54.3957 232.522 54.963 232.798 55.4528C232.798 55.4528 233.618 56.5948 234.153 55.9201C234.653 55.2953 234.41 54.6331 233.816 54.2382C235.681 54.4132 237.655 54.6381 238.394 54.9805C239.653 55.5627 240.166 57.5694 238.652 58.4316C237.142 59.2962 236.046 60.4558 237.536 60.9231C239.032 61.3929 238.469 59.756 239.633 58.629C240.794 57.5019 241.086 57.5744 241.025 59.1238C240.962 60.6707 244.094 60.4982 244.906 59.2662C245.057 59.0388 245.233 58.9289 245.417 58.9164C245.399 59.7061 245.781 60.2408 245.967 60.7581C246.125 61.2055 246.347 61.8752 246.686 62.4999C246.681 62.5199 246.678 62.5399 246.673 62.5599C246.093 64.859 240.565 66.6908 241.807 66.8707C243.051 67.0481 241.558 69.897 241.52 70.8241C241.485 71.7512 242.551 73.8154 242.468 71.7962C242.383 69.7795 246.113 66.8432 246.344 67.5179C246.575 68.1927 244.052 69.9445 244.828 70.1169C245.603 70.2893 247.322 68.665 248.295 68.1477C248.493 68.0427 248.833 67.9403 249.255 67.8478C246.435 69.3722 247.842 69.7945 247.89 70.7866C247.94 71.7987 245.844 72.2735 246.422 73.0157C247 73.7579 245.924 75.5172 244.135 77.239C242.347 78.9633 244.059 80.8726 244.64 78.8184C245.218 76.7667 246.153 75.1724 247.299 73.8329C248.445 72.4934 250.796 70.7092 252.166 69.7645C253.03 69.1673 253.789 69.4921 254.473 69.8045C254.081 71.1065 253.392 72.6984 253.093 73.678C252.56 75.4198 252.988 74.785 253.815 75.6747C254.641 76.5643 254.051 78.2236 254.689 79.0658C255.33 79.908 256.162 76.3544 255.323 74.75C254.521 73.2231 254.843 71.3639 255.991 70.1619C256.954 70.1994 258.274 70.5142 258.844 72.4185C259.498 74.6051 258.942 79.2582 257.183 81.5598C255.426 83.8614 255.33 86.1754 254.312 87.9472C253.294 89.719 253.613 91.3659 252.952 92.0856C252.294 92.8053 252.774 94.8345 250.723 97.2085C248.674 99.5801 250.582 99.2827 250.655 98.448C250.73 97.6109 251.907 95.7091 253.274 94.7645C254.641 93.8224 252.362 93.7399 254.038 92.1306C255.715 90.5212 256.617 89.749 256.218 87.6524C255.818 85.5582 257.374 82.5219 259.975 80.3153C262.577 78.1062 265.616 75.5547 268.637 75.1074C268.916 75.0649 269.195 75.1224 269.432 75.2573C269.281 75.5047 269.135 75.7971 268.959 76.142C268.368 77.2965 267.949 76.022 267.667 76.9167C267.385 77.8088 266.558 78.7209 266.119 78.8734C265.681 79.0258 265.837 80.1379 266.775 78.676C267.712 77.2115 268.884 77.219 269.16 76.7517C269.308 76.5043 269.648 76.3769 270.047 76.192C270.075 76.4568 270.02 76.7292 269.874 76.9616C269.286 77.9437 268.637 78.9408 267.911 79.7905C265.847 82.2045 265.948 88.3396 263.527 92.313C263.527 92.313 262.579 93.2351 263.208 93.9398C263.834 94.642 263.851 93.8724 264.176 92.4679C264.5 91.061 268.215 87.6474 270.465 83.3491C271.661 81.0575 272.005 79.0308 272.33 77.274C273.451 78.9109 274.396 80.8626 275.037 83.2016H275.039C275.537 85.0234 276.173 86.7177 275.489 87.6923C274.803 88.6644 275.13 89.2442 275.7 90.4088C276.269 91.5758 274.994 91.136 275.54 91.9006C276.085 92.6628 276.314 93.8699 276.17 94.3097C276.03 94.7495 277.013 95.2968 276.409 93.6724C275.804 92.0456 276.517 91.121 276.311 90.6212C276.108 90.1189 276.648 89.3567 276.477 88.2471C276.309 87.1401 276.766 85.9505 276.306 84.4211C275.849 82.8918 276.568 80.4277 277.41 79.4606C277.907 78.8884 278.435 78.7609 278.89 78.7934C278.541 79.1233 278.144 79.4282 277.679 79.7005C276.668 80.2928 277.978 81.01 278.609 79.778C278.79 79.4257 278.983 79.1058 279.177 78.8334C279.375 78.8759 279.554 78.9408 279.7 79.0008C280.22 79.2107 281.13 78.7559 281.675 79.5206C282.017 80.0004 282.502 80.7301 282.897 81.4324C282.397 81.4249 281.902 81.115 281.565 80.4003C280.853 78.8859 279.599 78.7859 279.028 80.0604C278.458 81.3324 281.135 82.412 281.359 83.494C281.582 84.5761 280.823 85.9755 279.848 86.8727C278.873 87.7673 279.385 88.7469 279.969 88.1372C280.554 87.5249 280.534 85.7956 282.296 84.3362C282.995 83.7589 283.397 83.439 283.651 83.2116C283.85 83.9588 283.927 84.7635 283.822 85.6657C283.686 86.8252 285.051 86.2204 284.448 84.9759C284.081 84.2187 283.862 83.5115 283.855 83.0167C284.058 82.7968 284.108 82.6394 284.249 82.262C284.506 81.5673 285.84 80.6552 286.476 78.7484C287.436 79.3807 288.211 80.1604 288.475 80.7926C289.012 82.0671 288.382 83.3666 286.735 83.0142C285.091 82.6618 284.254 83.594 284.928 84.8185C285.602 86.0405 288.085 84.5736 289.088 85.0509C290.091 85.5282 290.752 86.9751 290.88 88.2896C291.006 89.6016 292.102 89.7915 291.966 88.9568C291.83 88.1247 290.433 87.0926 290.33 84.816C290.227 82.5369 290.307 82.7268 289.847 82.0146C289.387 81.3024 289.555 79.2907 287.798 77.4015C287.62 77.209 287.504 77.0291 287.441 76.8592C288.163 76.6618 289.327 77.1441 290.712 77.404C290.777 77.4714 290.847 77.5364 290.923 77.5964C291.84 78.3011 292.642 78.6984 292.76 79.3782C292.878 80.0579 292.76 81.2349 293.019 81.5098C293.278 81.7847 292.989 82.4769 293.25 83.0642C293.512 83.6515 293.225 83.9139 293.474 84.3312C293.725 84.746 293.854 84.3087 293.361 82.7793C292.868 81.2474 293.454 81.5348 293.165 80.5702C292.878 79.6056 292.944 79.5631 293.248 78.7759C293.552 77.9862 294.113 77.2515 294.472 77.4265C294.472 77.4265 294.593 77.284 294.771 77.1116C295.294 77.0191 295.787 76.9741 296.249 76.9691C296.636 77.7438 296.802 78.7209 297.018 78.7584C297.224 78.7959 296.553 77.6414 296.438 76.9691C298.484 76.9791 299.876 77.6764 300.387 77.6439C300.595 77.6314 300.987 77.7163 301.435 77.8463C300.1 81.3149 300.238 81.6473 300.864 83.3391C301.611 85.3608 300.459 89.2142 301.065 91.2809C301.674 93.3501 300.283 96.5913 302.249 98.538C304.215 100.487 302.679 103.389 302.455 105.205C302.229 107.022 304.381 105.295 305.416 103.853C306.452 102.411 303.611 101.739 303.808 98.8329C304.006 95.9265 302.769 94.0248 301.857 91.7857C300.942 89.5466 301.43 88.597 302.297 85.2783C302.578 84.2012 303.089 81.6473 303.639 78.596C303.82 78.6635 303.931 78.7059 303.931 78.7059C303.931 78.7059 304.19 77.9687 306.236 78.3661C307.329 78.5785 307.839 78.681 308.405 78.7059C308.181 79.0133 307.935 79.3282 307.668 79.6431C306.065 81.5398 307.963 83.2641 308.332 81.1625C308.488 80.2703 308.719 79.4581 309.008 78.7034C309.375 78.6884 309.818 78.6535 310.443 78.5985C312.603 78.4111 313.447 79.3132 314.95 81.5323C316.451 83.7489 316.348 82.9467 317.389 83.6065C318.429 84.2662 318.96 84.7235 317.894 83.2291C316.825 81.7347 315.332 80.8726 313.91 79.6031C313.037 78.8259 314.274 78.1262 315.795 77.9737C317.296 78.7709 318.283 80.5627 319.231 81.4773C320.174 82.3895 320.4 81.2474 320.262 79.9055C320.737 80.4253 321.177 81.015 321.571 81.6573C321.43 82.0071 321.272 82.332 321.091 82.6269C319.575 85.0934 319.716 87.405 318.884 89.2717C318.05 91.136 318.535 92.7428 317.952 93.525C317.368 94.3072 318.055 96.2789 316.252 98.8454C314.455 101.409 316.323 100.925 316.313 100.085C316.305 99.2452 317.28 97.2335 318.545 96.1565C319.809 95.0819 317.532 95.2293 319.037 93.46C320.541 91.6907 321.36 90.8311 320.749 88.7869C320.282 87.2275 320.898 85.0084 322.265 82.9517C322.504 83.464 322.715 83.9988 322.886 84.5461C323.705 87.1526 324.153 86.2879 325.271 87.6923C326.392 89.0943 328.265 91.2609 328.265 91.2609C327.327 89.9339 325.915 88.0572 325.502 87.1026C325.09 86.1455 325.605 85.1634 324.706 84.5536C324.198 84.2087 323.416 83.3641 322.662 82.387C322.989 81.9471 323.348 81.5173 323.74 81.11C323.997 80.8426 324.258 80.5727 324.525 80.3003C326.045 81.5173 325.46 82.0746 326.586 84.3562C327.762 86.7352 328.37 87.7498 328.272 86.6428C328.164 85.4657 326.397 82.0646 325.093 79.7255C325.927 78.8859 326.804 78.0587 327.712 77.3265C329.306 76.9916 331.309 76.5943 333.332 75.947C333.403 76.2219 333.375 76.5168 333.247 76.7792C332.762 77.8138 332.219 78.8709 331.58 79.7905C329.773 82.3995 330.494 88.492 328.491 92.6903C328.491 92.6903 327.642 93.7024 328.338 94.3422C329.034 94.9769 328.971 94.2097 329.152 92.7803C329.331 91.3484 332.681 87.5799 334.481 83.0767C335.439 80.6776 335.577 78.626 335.718 76.8467C336.535 77.8113 337.291 78.9134 337.96 80.1704C337.538 80.9625 337.07 81.5623 336.434 81.7372C335.283 82.0521 335.162 82.7043 334.856 83.9638C334.546 85.2233 333.845 84.0763 333.775 85.0109C333.707 85.943 333.109 87.0201 332.716 87.2675C332.327 87.5149 332.732 88.562 333.31 86.9252C333.888 85.2883 335.029 85.0284 335.19 84.5111C335.353 83.9963 336.261 83.7489 336.839 82.7868C337.218 82.1596 337.824 81.6722 338.375 81C338.598 81.4723 338.812 81.9596 339.011 82.4719H339.013C339.694 84.2362 340.499 85.8581 339.915 86.8952C339.332 87.9297 339.714 88.4745 340.401 89.5766C341.084 90.6811 339.772 90.3713 340.39 91.076C341.009 91.7807 341.361 92.9577 341.263 93.41C341.167 93.8624 342.203 94.3097 341.434 92.7503C340.667 91.1934 341.283 90.2013 341.026 89.724C340.773 89.2467 341.233 88.432 340.951 87.345C340.67 86.2604 341.006 85.0334 340.39 83.5565C339.78 82.0796 340.245 79.5556 340.986 78.5085C341.728 77.4614 342.68 77.6639 343.218 77.8213C343.759 77.9787 344.616 77.4365 345.237 78.1387C345.563 78.511 346.008 79.0483 346.418 79.6006C346.335 80.5552 346.144 82.0046 345.842 82.8468C345.513 83.7664 344.998 84.6411 344.153 85.4457C343.306 86.2529 344.747 86.6528 345.078 85.3108C345.413 83.9688 345.968 82.9792 346.501 83.0917C347.036 83.2016 346.662 82.0121 347.177 81.7847C347.323 81.7197 347.476 81.7247 347.622 81.7222C347.871 82.4145 348.012 83.1767 347.999 84.0363C347.982 85.2033 349.279 84.4661 348.55 83.2866C348.193 82.7093 347.936 82.1546 347.821 81.7022C348.092 81.6423 348.283 81.3899 348.228 80.2603C348.173 79.1233 348.796 79.1408 349.45 79.4207C349.824 79.8955 350.138 80.4752 350.385 81.085C348.886 81.02 348.258 81.9846 349.012 83.0767C349.399 83.6365 350.151 83.5165 350.94 83.2916C350.993 83.8189 350.97 84.2887 350.865 84.6361C350.462 85.958 349.143 86.5603 348.1 85.2458C347.059 83.9338 345.815 84.1213 345.551 85.4907C345.29 86.8602 348.142 87.3025 348.607 88.3046C349.075 89.3067 348.658 90.8436 347.911 91.9356C347.167 93.0277 347.891 93.8649 348.318 93.1377C348.748 92.4104 348.331 90.7311 349.711 88.9094C351.091 87.0876 351.031 87.285 351.134 86.4453C351.217 85.7556 352.187 84.6586 352.453 82.8693C352.725 82.8243 352.971 82.8193 353.172 82.8893C354.218 83.2616 355.025 84.6361 355.284 85.933C355.542 87.225 356.651 87.3025 356.43 86.4878C356.211 85.6732 354.716 84.7885 354.381 82.5319C354.147 80.9575 354.125 80.5702 353.954 80.2553C354.605 80.2203 355.424 80.2878 356.312 80.2503C356.392 80.3028 356.475 80.3503 356.56 80.3903C357.616 80.8676 358.486 81.0725 358.757 81.7072C359.029 82.342 359.182 83.5165 359.499 83.7239C359.816 83.9313 359.692 84.671 360.08 85.1858C360.467 85.7006 360.25 86.0205 360.59 86.3679C360.929 86.7152 360.954 86.2604 360.125 84.881C359.293 83.5015 359.929 83.6465 359.428 82.7743C358.928 81.9022 358.984 81.8447 359.097 81.0075C359.212 80.1679 359.587 79.3257 359.979 79.4157C359.979 79.4157 360.062 79.2482 360.198 79.0408C360.685 78.8309 361.155 78.6785 361.603 78.566C362.158 79.2332 362.543 80.1454 362.762 80.1329C362.97 80.1229 362.053 79.1508 361.786 78.521C363.782 78.0662 365.295 78.4286 365.785 78.2836C365.881 78.2561 366.024 78.2386 366.198 78.2336C365.881 78.7784 365.476 79.3632 365.006 79.9529C363.458 81.8947 365.406 83.564 365.713 81.4548C365.886 80.2603 366.195 79.2007 366.602 78.2361C366.683 78.2361 366.766 78.2411 366.851 78.2461C366.346 81.9272 366.56 82.217 367.555 83.7239C368.746 85.5232 368.51 89.5366 369.573 91.4108C370.642 93.2876 370.031 96.7587 372.394 98.2056C373.025 98.593 373.424 99.1053 373.681 99.68C373.057 100.907 373.623 101 373.985 100.677C374.244 102.054 374.01 103.586 374.126 104.651C374.324 106.472 376.023 104.301 376.699 102.664C377.268 101.289 375.304 101.059 374.377 99.3227C374.679 98.3431 375.428 96.9886 376.35 96.1539C377.584 95.0419 375.312 95.2543 376.765 93.4425C378.218 91.6308 379.012 90.7486 378.341 88.7219C377.67 86.6952 378.818 83.4865 381.111 80.965C381.45 80.5927 381.8 80.2103 382.154 79.8255C382.79 80.2203 382.906 79.9479 383.707 80.2278C384.871 80.6327 385.492 80.96 384.112 79.748C383.758 79.4382 383.386 79.1733 382.999 78.9383C383.956 77.9512 384.967 77.0066 386.02 76.2394C387.111 77.0566 388.124 78.1362 388.941 79.3732C388.931 79.3882 388.921 79.4057 388.911 79.4207C387.179 82.0796 388.076 88.1497 386.193 92.4029C386.193 92.4029 385.374 93.44 386.088 94.0573C386.802 94.672 386.716 93.9073 386.857 92.4729C386.995 91.0385 390.235 87.1725 391.904 82.6219C391.955 82.4869 392 82.352 392.045 82.2195C392.13 82.277 392.218 82.342 392.314 82.417C393.727 83.529 396.047 85.2133 396.047 85.2133C394.83 84.1338 393.023 82.6269 392.402 81.7922C392.344 81.7122 392.294 81.6323 392.251 81.5498C392.528 80.5802 392.688 79.6706 392.784 78.8184C392.799 78.8359 392.814 78.8559 392.829 78.8734C394.521 80.9226 395.348 81.7722 394.996 80.7176C394.787 80.0954 393.925 78.9234 392.887 77.6614C392.917 77.2115 392.937 76.7792 392.96 76.3619C394.285 77.8413 395.476 79.6556 396.416 81.8922H396.419C397.15 83.634 398 85.2333 397.449 86.2879C396.896 87.34 397.296 87.8723 398.012 88.9543C398.726 90.0389 397.407 89.7665 398.045 90.4537C398.686 91.141 399.068 92.3055 398.983 92.7603C398.9 93.2151 399.948 93.6325 399.136 92.0956C398.324 90.5612 398.91 89.5516 398.641 89.0818C398.374 88.612 398.809 87.7848 398.497 86.7052C398.186 85.6307 398.485 84.3912 397.829 82.9343C397.175 81.4748 397.567 78.9409 398.279 77.8738C398.99 76.8067 399.948 76.9791 400.491 77.1216C401.034 77.264 401.878 76.6967 402.517 77.3815C403.155 78.0662 404.231 79.3332 404.683 80.2003C405.136 81.0675 405.427 82.0371 405.445 83.2016C405.46 84.3687 406.737 83.594 405.975 82.4369C405.216 81.2774 404.864 80.2003 405.312 79.8905C405.757 79.5756 404.626 79.0383 404.809 78.5085C404.993 77.9787 405.895 77.9587 404.404 76.7042C403.53 75.9695 403.967 75.5272 404.621 75.2448C406.523 75.4023 408.808 76.7117 409.422 77.7688C410.12 78.9633 409.665 80.3328 407.986 80.1953C406.31 80.0579 405.601 81.09 406.43 82.217C407.257 83.3416 409.53 81.5698 410.585 81.9122C411.641 82.2545 412.486 83.6065 412.782 84.8935C413.079 86.178 414.187 86.2254 413.946 85.4158C413.705 84.6061 412.184 83.7664 411.784 81.5198C411.385 79.2732 411.488 79.4531 410.94 78.8059C410.392 78.1587 410.296 76.142 408.308 74.4951C406.933 73.3581 408.517 72.4384 409.909 70.8166C410.002 70.7941 410.093 70.7666 410.181 70.7291C411.251 70.2868 411.995 69.7945 412.649 70.0269C413.3 70.2618 414.27 70.9516 414.637 70.8641C415.007 70.7766 415.467 71.3689 416.108 71.4364C416.751 71.5038 416.837 71.8812 417.324 71.8712C417.812 71.8612 417.495 71.5338 415.912 71.1965C414.331 70.8616 414.871 70.4967 413.886 70.2668C412.9 70.0369 412.898 69.957 412.36 69.3047C411.822 68.65 411.458 67.8003 411.792 67.5779C411.792 67.5779 411.726 67.403 411.666 67.1631C411.845 66.6658 412.051 66.2185 412.274 65.8161C413.144 65.8661 414.079 66.2085 414.217 66.041C414.353 65.8836 413.011 65.8861 412.367 65.6512C413.393 63.8894 414.693 63.0372 414.919 62.5799C415.012 62.395 415.281 62.1001 415.615 61.7752C417.98 64.6516 418.337 64.6941 420.127 64.9964C422.264 65.3563 425.054 68.2651 427.16 68.7674C429.269 69.2697 431.408 72.0786 434.082 71.3489C436.759 70.6217 438.532 73.3881 440.005 74.4826C441.48 75.5797 441.04 72.8658 440.296 71.2564L440.311 71.2414Z" fill="white"/>
</svg>
