<svg width="366" height="84" viewBox="0 0 366 84" fill="none" xmlns="http://www.w3.org/2000/svg">
<g clip-path="url(#clip0_187_939)">
<path fill-rule="evenodd" clip-rule="evenodd" d="M21.8533 12.3795H60.7033V24.7419H21.8533V12.3795Z" fill="white"/>
<path d="M72.2731 10.7363H66.2496V3.27792H70.5691C71.4722 3.27792 72.2049 2.54571 72.2049 1.6347C72.2049 0.723697 71.4722 0 70.5691 0H11.9873C11.0842 0 10.3515 0.732212 10.3515 1.6347C10.3515 2.5372 11.0842 3.27792 11.9873 3.27792H16.3068V10.7363H10.2833C4.61771 10.7363 0 15.3509 0 21.0128C0 26.6746 4.61771 31.2893 10.2833 31.2893C13.572 31.2893 16.2472 28.6159 16.2472 25.3294C16.2472 22.043 13.572 19.3696 10.2833 19.3696C9.38025 19.3696 8.63903 20.1018 8.63903 21.0043C8.63903 21.9067 9.37173 22.6475 10.2833 22.6475C11.7658 22.6475 12.9671 23.848 12.9671 25.3294C12.9671 26.8109 11.7658 28.0114 10.2833 28.0114C6.42389 28.0114 3.2801 24.8697 3.2801 21.0128C3.2801 17.1559 6.42389 14.0142 10.2833 14.0142H20.2089V69.9007H13.0608C12.1577 69.9007 11.4165 70.6329 11.4165 71.5354V82.2716C11.4165 83.1741 12.1492 83.9063 13.0608 83.9063H69.4956C70.3987 83.9063 71.1314 83.1741 71.1314 82.2716V71.5354C71.1314 70.6329 70.3987 69.9007 69.4956 69.9007H62.339V14.0142H72.2731C76.1325 14.0142 79.2763 17.1559 79.2763 21.0128C79.2763 24.8697 76.1325 28.0114 72.2731 28.0114C70.7906 28.0114 69.5893 26.8109 69.5893 25.3294C69.5893 23.848 70.7906 22.6475 72.2731 22.6475C73.1762 22.6475 73.9089 21.9153 73.9089 21.0043C73.9089 20.0932 73.1762 19.3696 72.2731 19.3696C68.9844 19.3696 66.3092 22.043 66.3092 25.3294C66.3092 28.6159 68.9844 31.2893 72.2731 31.2893C77.9472 31.2893 82.5564 26.6746 82.5564 21.0128C82.5564 15.3509 77.9387 10.7363 72.2731 10.7363ZM67.8598 80.6369H14.6966V73.1786H67.8513V80.6369H67.8598ZM49.3975 69.9007V41.9574C49.3975 41.0549 48.6648 40.3142 47.7617 40.3142C46.8586 40.3142 46.1259 41.0464 46.1259 41.9574V69.9007H36.456V41.9574C36.456 41.0549 35.7233 40.3142 34.8202 40.3142C33.9171 40.3142 33.1844 41.0464 33.1844 41.9574V69.9007H23.5145V14.0142H59.0845V69.9007H49.4146H49.3975ZM60.7032 10.7363H19.5869V3.27792H62.9695V10.7363H60.7032Z" fill="white"/>
<path d="M86.9014 34.133H90.3945V47.1851H90.5137C91.2379 46.1378 91.9621 45.1757 92.6437 44.2903L100.925 34.1245H105.27L95.4637 45.61L106.037 61.1992H101.896L92.9759 47.9002L90.403 50.8717V61.1907H86.9099V34.1159L86.9014 34.133Z" fill="white"/>
<path d="M125.411 55.9035C125.411 57.9128 125.453 59.6752 125.572 61.2078H122.437L122.233 58.032H122.156C121.236 59.5986 119.183 61.6505 115.724 61.6505C112.665 61.6505 109.01 59.9647 109.01 53.1364V41.7701H112.546V52.5319C112.546 56.227 113.67 58.7217 116.891 58.7217C119.259 58.7217 120.912 57.0784 121.551 55.5118C121.756 54.9925 121.875 54.3454 121.875 53.7069V41.7786H125.411V55.9205V55.9035Z" fill="white"/>
<path d="M132.082 47.0318C132.082 45.0225 132.039 43.3793 131.92 41.7701H135.055L135.259 44.9799H135.336C136.299 43.1324 138.548 41.3274 141.769 41.3274C144.461 41.3274 148.644 42.9366 148.644 49.6031V61.2078H145.108V50.0032C145.108 46.8701 143.941 44.2562 140.61 44.2562C138.275 44.2562 136.469 45.8995 135.864 47.8747C135.702 48.3175 135.626 48.922 135.626 49.5179V61.2078H132.09V47.0318H132.082Z" fill="white"/>
<path d="M154.71 57.5893C155.758 58.2704 157.607 58.9941 159.37 58.9941C161.943 58.9941 163.145 57.7085 163.145 56.0993C163.145 54.4135 162.139 53.4855 159.524 52.5234C156.031 51.2803 154.378 49.3476 154.378 47.0233C154.378 43.8901 156.908 41.3188 161.091 41.3188C163.059 41.3188 164.789 41.8808 165.871 42.5278L164.985 45.0991C164.218 44.6138 162.812 43.9752 161.006 43.9752C158.919 43.9752 157.752 45.1842 157.752 46.6231C157.752 48.2323 158.919 48.956 161.449 49.9181C164.823 51.2037 166.552 52.8895 166.552 55.7843C166.552 59.1984 163.903 61.6079 159.277 61.6079C157.147 61.6079 155.179 61.0886 153.807 60.2797L154.693 57.5893H154.71Z" fill="white"/>
<path d="M176.18 36.1849V41.7701H181.249V44.4606H176.18V54.9414C176.18 57.3509 176.861 58.7217 178.83 58.7217C179.75 58.7217 180.44 58.6025 180.883 58.4833L181.045 61.1312C180.363 61.4121 179.273 61.6165 177.909 61.6165C176.265 61.6165 174.936 61.0971 174.093 60.1265C173.087 59.0793 172.729 57.3509 172.729 55.0606V44.4521H169.713V41.7616H172.729V37.1044L176.188 36.1849H176.18Z" fill="white"/>
<path d="M196.798 61.2078L196.517 58.7557H196.397C195.315 60.2798 193.219 61.6505 190.45 61.6505C186.514 61.6505 184.504 58.8834 184.504 56.0653C184.504 51.3655 188.687 48.7942 196.201 48.8368V48.4367C196.201 46.8275 195.758 43.9412 191.78 43.9412C189.973 43.9412 188.082 44.5031 186.71 45.3886L185.909 43.0558C187.52 42.0085 189.846 41.3274 192.299 41.3274C198.246 41.3274 199.694 45.3886 199.694 49.2796V56.5506C199.694 58.2364 199.771 59.8881 200.018 61.2078H196.806H196.798ZM196.278 51.2889C192.419 51.2122 188.039 51.8934 188.039 55.6651C188.039 57.9554 189.564 59.0367 191.379 59.0367C193.909 59.0367 195.52 57.4275 196.082 55.7843C196.201 55.4267 196.286 55.018 196.286 54.6605V51.2889H196.278Z" fill="white"/>
<path d="M209.705 50.6844H209.782C210.267 50.0032 210.949 49.1603 211.511 48.4792L217.219 41.7701H221.479L213.965 49.7648L222.527 61.2163H218.225L211.511 51.8934L209.705 53.9027V61.2163H206.212V32.6941H209.705V50.6929V50.6844Z" fill="white"/>
<path d="M237.36 61.2078L237.079 58.7557H236.96C235.878 60.2798 233.782 61.6505 231.013 61.6505C227.077 61.6505 225.066 58.8834 225.066 56.0653C225.066 51.3655 229.249 48.7942 236.764 48.8368V48.4367C236.764 46.8275 236.321 43.9412 232.342 43.9412C230.536 43.9412 228.644 44.5031 227.273 45.3886L226.472 43.0558C228.082 42.0085 230.408 41.3274 232.862 41.3274C238.809 41.3274 240.257 45.3886 240.257 49.2796V56.5506C240.257 58.2364 240.334 59.8881 240.581 61.2078H237.369H237.36ZM236.84 51.2889C232.981 51.2122 228.602 51.8934 228.602 55.6651C228.602 57.9554 230.127 59.0367 231.942 59.0367C234.472 59.0367 236.082 57.4275 236.645 55.7843C236.764 55.4267 236.849 55.018 236.849 54.6605V51.2889H236.84Z" fill="white"/>
<path d="M263.567 32.6856V56.1845C263.567 57.9128 263.61 59.8796 263.729 61.2078H260.551L260.389 57.8362H260.312C259.23 60.0073 256.853 61.6505 253.684 61.6505C248.981 61.6505 245.36 57.6744 245.36 51.7656C245.318 45.2949 249.339 41.3189 254.084 41.3189C257.058 41.3189 259.068 42.7237 259.955 44.2903H260.031V32.6856H263.567ZM260.031 49.6797C260.031 49.237 259.989 48.6325 259.869 48.1897C259.35 45.942 257.416 44.0945 254.766 44.0945C251.111 44.0945 248.939 47.3043 248.939 51.6039C248.939 55.5374 250.864 58.7983 254.689 58.7983C257.058 58.7983 259.23 57.2317 259.878 54.5838C259.997 54.0985 260.04 53.6217 260.04 53.0598V49.6882L260.031 49.6797Z" fill="white"/>
<path d="M272.214 52.1317C272.291 56.9167 275.35 58.8834 278.885 58.8834C281.416 58.8834 282.949 58.4407 284.27 57.8788L284.875 60.4074C283.631 60.9694 281.501 61.6164 278.4 61.6164C272.41 61.6164 268.832 57.6829 268.832 51.8167C268.832 45.9505 272.291 41.3359 277.957 41.3359C284.304 41.3359 285.999 46.9211 285.999 50.497C285.999 51.2207 285.923 51.7827 285.88 52.1403H272.214V52.1317ZM282.583 49.6031C282.625 47.3553 281.663 43.856 277.676 43.856C274.097 43.856 272.53 47.151 272.248 49.6031H282.583Z" fill="white"/>
<path d="M291.188 47.0318C291.188 45.0225 291.145 43.3793 291.026 41.7701H294.119L294.281 44.9033H294.4C295.482 43.0558 297.297 41.3274 300.509 41.3274C303.158 41.3274 305.169 42.9366 306.012 45.2268H306.089C306.694 44.1456 307.452 43.3027 308.262 42.6982C309.429 41.8127 310.715 41.3359 312.564 41.3359C315.137 41.3359 318.954 43.0217 318.954 49.7734V61.2248H315.495V50.2161C315.495 46.4784 314.132 44.2307 311.278 44.2307C309.267 44.2307 307.699 45.7207 307.094 47.4405C306.933 47.9258 306.813 48.5644 306.813 49.2114V61.2248H303.354V49.5775C303.354 46.4869 301.991 44.2392 299.29 44.2392C297.084 44.2392 295.473 46.0101 294.911 47.7726C294.707 48.2919 294.63 48.8964 294.63 49.5009V61.2333H291.171V47.0574L291.188 47.0318Z" fill="white"/>
<path d="M329.459 36.3041C329.501 37.5131 328.615 38.4751 327.21 38.4751C325.966 38.4751 325.08 37.5131 325.08 36.3041C325.08 35.0951 326.008 34.0989 327.295 34.0989C328.581 34.0989 329.467 35.061 329.467 36.3041H329.459ZM325.523 61.2078V41.7701H329.058V61.2078H325.523Z" fill="white"/>
<path d="M337.697 52.1317C337.774 56.9167 340.833 58.8834 344.368 58.8834C346.899 58.8834 348.432 58.4407 349.753 57.8788L350.358 60.4074C349.114 60.9694 346.984 61.6164 343.883 61.6164C337.893 61.6164 334.315 57.6829 334.315 51.8167C334.315 45.9505 337.774 41.3359 343.44 41.3359C349.787 41.3359 351.482 46.9211 351.482 50.497C351.482 51.2207 351.406 51.7827 351.363 52.1403H337.697V52.1317ZM348.066 49.6031C348.108 47.3553 347.146 43.856 343.158 43.856C339.58 43.856 338.013 47.151 337.731 49.6031H348.066Z" fill="white"/>
<path d="M360.931 36.1849V41.7701H365.991V44.4606H360.931V54.9414C360.931 57.3509 361.612 58.7217 363.58 58.7217C364.5 58.7217 365.19 58.6025 365.634 58.4833L365.795 61.1312C365.114 61.4121 364.023 61.6165 362.66 61.6165C361.016 61.6165 359.687 61.0971 358.843 60.1265C357.838 59.0793 357.48 57.3509 357.48 55.0606V44.4521H354.464V41.7616H357.48V37.1044L360.939 36.1849H360.931Z" fill="white"/>
<path d="M91.86 75.5966C92.5672 75.9627 93.1124 76.4821 93.4958 77.1547C93.8792 77.8273 94.0752 78.6106 94.0752 79.4961C94.0752 80.3815 93.8792 81.1648 93.4958 81.8289C93.1124 82.493 92.5672 83.0039 91.86 83.37C91.1529 83.7361 90.335 83.9149 89.3978 83.9149H86.2966V75.0517H89.3978C90.3265 75.0517 91.1529 75.2305 91.86 75.5966ZM91.4937 81.6416C92.0049 81.1308 92.2605 80.4156 92.2605 79.4961C92.2605 78.5765 92.0049 77.8528 91.4937 77.3335C90.9825 76.8141 90.2668 76.5502 89.3297 76.5502H88.0687V82.4079H89.3297C90.2583 82.4079 90.9825 82.1524 91.4937 81.6416Z" fill="white"/>
<path d="M98.4628 75.0432V83.9064H96.6821V75.0432H98.4628Z" fill="white"/>
<path d="M109.078 83.9149H107.298L103.268 77.8273V83.9149H101.487V75.0347H103.268L107.298 81.1308V75.0347H109.078V83.9149Z" fill="white"/>
<path d="M121.407 83.9149L118.178 79.9643V83.9149H116.397V75.0517H118.178V79.0278L121.407 75.0517H123.554L119.89 79.445L123.656 83.9149H121.407Z" fill="white"/>
<path d="M127.856 75.0432V80.5348C127.856 81.1393 128.009 81.599 128.325 81.9141C128.64 82.2291 129.083 82.3908 129.645 82.3908C130.208 82.3908 130.668 82.2291 130.983 81.9141C131.298 81.599 131.451 81.1393 131.451 80.5348V75.0432H133.241V80.5177C133.241 81.267 133.079 81.9055 132.755 82.4334C132.431 82.9528 131.988 83.3444 131.443 83.6084C130.898 83.8723 130.293 84 129.62 84C128.947 84 128.359 83.8723 127.822 83.6084C127.285 83.3444 126.859 82.9528 126.544 82.4334C126.229 81.9141 126.075 81.2755 126.075 80.5177V75.0432H127.856Z" fill="white"/>
<path d="M143.822 83.9149H142.041L138.012 77.8273V83.9149H136.231V75.0347H138.012L142.041 81.1308V75.0347H143.822V83.9149Z" fill="white"/>
<path d="M148.235 83.685C147.741 83.4721 147.349 83.1656 147.059 82.774C146.77 82.3738 146.625 81.9055 146.616 81.3606H148.525C148.55 81.7267 148.678 82.0162 148.917 82.2206C149.147 82.4334 149.471 82.5356 149.88 82.5356C150.288 82.5356 150.621 82.4334 150.859 82.2376C151.098 82.0418 151.217 81.7778 151.217 81.4543C151.217 81.1903 151.14 80.9775 150.979 80.8072C150.817 80.6369 150.612 80.5007 150.374 80.4071C150.135 80.3134 149.803 80.2027 149.377 80.0835C148.798 79.9132 148.329 79.743 147.971 79.5812C147.613 79.4194 147.298 79.164 147.042 78.8319C146.787 78.4999 146.651 78.0486 146.651 77.4952C146.651 76.9674 146.778 76.5161 147.042 76.1245C147.307 75.7328 147.673 75.4348 148.15 75.2305C148.627 75.0262 149.164 74.9155 149.777 74.9155C150.689 74.9155 151.439 75.1368 152.009 75.5796C152.58 76.0223 152.896 76.6438 152.955 77.4442H150.996C150.979 77.1376 150.851 76.8907 150.604 76.6864C150.365 76.4906 150.041 76.3884 149.641 76.3884C149.292 76.3884 149.019 76.4735 148.806 76.6523C148.593 76.8311 148.491 77.0866 148.491 77.4271C148.491 77.6655 148.567 77.8613 148.729 78.0146C148.883 78.1678 149.079 78.2956 149.317 78.3977C149.547 78.4914 149.88 78.6106 150.306 78.7383C150.885 78.9086 151.353 79.0789 151.72 79.2491C152.086 79.4194 152.401 79.6748 152.657 80.0154C152.921 80.356 153.049 80.7987 153.049 81.3521C153.049 81.8289 152.93 82.2631 152.683 82.6718C152.435 83.0805 152.078 83.404 151.601 83.6424C151.123 83.8808 150.561 84 149.914 84C149.266 84 148.738 83.8978 148.244 83.685H148.235Z" fill="white"/>
<path d="M161.892 75.0432V76.4821H159.532V83.9149H157.752V76.4821H155.392V75.0432H161.901H161.892Z" fill="white"/>
<path d="M169.944 75.0432V76.4821H166.246V78.7553H169.083V80.1687H166.246V83.9149H164.465V75.0517H169.944V75.0432Z" fill="white"/>
<path d="M177.049 83.9149L175.089 80.4581H174.255V83.9149H172.474V75.0517H175.805C176.495 75.0517 177.075 75.1709 177.56 75.4093C178.046 75.6477 178.404 75.9797 178.651 76.3884C178.898 76.7971 179.009 77.2568 179.009 77.7677C179.009 78.3552 178.838 78.883 178.497 79.3513C178.157 79.8196 177.654 80.1431 176.981 80.3219L179.102 83.9149H177.04H177.049ZM174.255 79.1299H175.745C176.231 79.1299 176.589 79.0107 176.827 78.7809C177.066 78.551 177.185 78.2275 177.185 77.8103C177.185 77.3931 177.066 77.0866 176.827 76.8652C176.589 76.6438 176.231 76.5246 175.745 76.5246H174.255V79.1299Z" fill="white"/>
<path d="M183.669 76.4821V78.7042H186.659V80.1176H183.669V82.4675H187.034V83.9149H181.888V75.0347H187.034V76.4821H183.669Z" fill="white"/>
<path d="M199.592 75.0432V83.9064H197.812V78.1423L195.435 83.9064H194.089L191.703 78.1423V83.9064H189.922V75.0432H191.942L194.762 81.6331L197.582 75.0432H199.592Z" fill="white"/>
<path d="M208.657 75.0432V76.4821H206.297V83.9149H204.517V76.4821H202.148V75.0432H208.657Z" fill="white"/>
<path d="M213.002 75.0432V83.9064H211.222V75.0432H213.002Z" fill="white"/>
<path d="M221.59 75.5966C222.297 75.9627 222.843 76.4821 223.226 77.1547C223.609 77.8273 223.805 78.6106 223.805 79.4961C223.805 80.3815 223.609 81.1648 223.226 81.8289C222.843 82.493 222.297 83.0039 221.59 83.37C220.883 83.7361 220.065 83.9149 219.128 83.9149H216.027V75.0517H219.128C220.057 75.0517 220.883 75.2305 221.59 75.5966ZM221.232 81.6416C221.744 81.1308 221.999 80.4156 221.999 79.4961C221.999 78.5765 221.744 77.8528 221.232 77.3335C220.721 76.8141 220.006 76.5502 219.068 76.5502H217.807V82.4079H219.068C219.997 82.4079 220.721 82.1524 221.232 81.6416Z" fill="white"/>
<path d="M232.104 83.685C231.609 83.4721 231.218 83.1656 230.928 82.774C230.638 82.3823 230.493 81.9055 230.485 81.3606H232.393C232.419 81.7267 232.547 82.0162 232.785 82.2206C233.015 82.4334 233.339 82.5356 233.748 82.5356C234.157 82.5356 234.489 82.4334 234.728 82.2376C234.966 82.0418 235.086 81.7778 235.086 81.4543C235.086 81.1903 235.009 80.9775 234.847 80.8072C234.685 80.6369 234.489 80.5007 234.242 80.4071C234.004 80.3134 233.671 80.2027 233.245 80.0835C232.666 79.9132 232.197 79.743 231.84 79.5812C231.482 79.4194 231.166 79.164 230.911 78.8319C230.655 78.4999 230.519 78.0486 230.519 77.4952C230.519 76.9674 230.647 76.5161 230.911 76.1245C231.175 75.7328 231.541 75.4348 232.018 75.2305C232.496 75.0262 233.032 74.9155 233.646 74.9155C234.557 74.9155 235.307 75.1368 235.878 75.5796C236.449 76.0223 236.764 76.6438 236.824 77.4442H234.864C234.847 77.1376 234.719 76.8907 234.472 76.6864C234.234 76.4906 233.91 76.3884 233.509 76.3884C233.16 76.3884 232.887 76.4735 232.674 76.6523C232.47 76.8311 232.359 77.0866 232.359 77.4271C232.359 77.6655 232.436 77.8613 232.598 78.0146C232.76 78.1678 232.947 78.2956 233.186 78.3977C233.424 78.4999 233.748 78.6106 234.174 78.7383C234.753 78.9086 235.222 79.0789 235.588 79.2491C235.955 79.4194 236.27 79.6748 236.525 80.0154C236.789 80.356 236.917 80.7987 236.917 81.3521C236.917 81.8289 236.798 82.2631 236.551 82.6718C236.304 83.0805 235.946 83.404 235.469 83.6424C234.992 83.8808 234.43 84 233.782 84C233.16 84 232.606 83.8978 232.112 83.685H232.104Z" fill="white"/>
<path d="M245.761 75.0432V76.4821H243.401V83.9149H241.62V76.4821H239.252V75.0432H245.761Z" fill="white"/>
<path d="M253.769 82.2206H250.234L249.646 83.9063H247.78L250.975 75.0262H253.045L256.24 83.9063H254.357L253.769 82.2206ZM253.284 80.7987L251.997 77.0866L250.711 80.7987H253.275H253.284Z" fill="white"/>
<path d="M263.277 83.9149L261.318 80.4581H260.474V83.9149H258.694V75.0517H262.025C262.715 75.0517 263.294 75.1709 263.78 75.4093C264.266 75.6477 264.624 75.9797 264.871 76.3884C265.118 76.7971 265.228 77.2568 265.228 77.7677C265.228 78.3552 265.058 78.883 264.717 79.3513C264.377 79.8196 263.874 80.1431 263.201 80.3219L265.322 83.9149H263.26H263.277ZM260.483 79.1299H261.974C262.46 79.1299 262.817 79.0107 263.056 78.7809C263.295 78.551 263.414 78.2275 263.414 77.8103C263.414 77.3931 263.295 77.0866 263.056 76.8652C262.817 76.6438 262.46 76.5246 261.974 76.5246H260.483V79.1299Z" fill="white"/>
<path d="M274.166 75.0432V76.4821H271.806V83.9149H270.025V76.4821H267.656V75.0432H274.166Z" fill="white"/>
<path d="M278.511 76.4821V78.7042H281.501V80.1176H278.511V82.4675H281.876V83.9149H276.73V75.0347H281.876V76.4821H278.511Z" fill="white"/>
<path d="M289.339 83.9149L287.38 80.4581H286.536V83.9149H284.756V75.0517H288.087C288.777 75.0517 289.356 75.1709 289.842 75.4093C290.328 75.6477 290.685 75.9797 290.932 76.3884C291.18 76.7971 291.29 77.2568 291.29 77.7677C291.29 78.3552 291.12 78.883 290.779 79.3513C290.438 79.8196 289.936 80.1431 289.263 80.3219L291.384 83.9149H289.322H289.339ZM286.545 79.1299H288.036C288.521 79.1299 288.879 79.0107 289.118 78.7809C289.356 78.551 289.476 78.2275 289.476 77.8103C289.476 77.3931 289.356 77.0866 289.118 76.8652C288.879 76.6438 288.521 76.5246 288.036 76.5246H286.545V79.1299Z" fill="white"/>
<path d="M305.842 75.0432V83.9064H304.061V80.1346H300.262V83.9064H298.481V75.0432H300.262V78.6872H304.061V75.0432H305.842Z" fill="white"/>
<path d="M310.647 76.4821V78.7042H313.638V80.1176H310.647V82.4675H314.013V83.9149H308.867V75.0347H314.013V76.4821H310.647Z" fill="white"/>
<path d="M321.476 83.9149L319.516 80.4581H318.673V83.9149H316.892V75.0517H320.224C320.914 75.0517 321.493 75.1709 321.979 75.4093C322.464 75.6477 322.822 75.9797 323.069 76.3884C323.316 76.7971 323.427 77.2568 323.427 77.7677C323.427 78.3552 323.257 78.883 322.916 79.3513C322.575 79.8196 322.072 80.1431 321.399 80.3219L323.521 83.9149H321.459H321.476ZM318.681 79.1299H320.172C320.658 79.1299 321.016 79.0107 321.254 78.7809C321.493 78.551 321.612 78.2275 321.612 77.8103C321.612 77.3931 321.493 77.0866 321.254 76.8652C321.016 76.6438 320.658 76.5246 320.172 76.5246H318.681V79.1299Z" fill="white"/>
</g>
<defs>
<clipPath id="clip0_187_939">
<rect width="366" height="84" fill="white"/>
</clipPath>
</defs>
</svg>
