<svg width="284" height="193" viewBox="0 0 284 193" fill="none" xmlns="http://www.w3.org/2000/svg">
<path d="M216.665 91.2128V88.3348H210.231V62.5003H215.815C215.928 62.5003 216.035 62.4467 216.103 62.3563C216.171 62.2659 216.191 62.1473 216.16 62.0371L208.624 37.1234C208.579 36.9709 208.438 36.8692 208.28 36.8692H179.468C179.011 16.4632 162.279 0 141.763 0C121.247 0 104.518 16.4632 104.058 36.8692H74.7891C74.6309 36.8692 74.4897 36.9737 74.4445 37.1234L66.9091 62.0371C66.8752 62.1473 66.8978 62.2631 66.9656 62.3563C67.0334 62.4467 67.1407 62.5003 67.2537 62.5003H72.8374V88.3348H67.3186V91.2128H72.8374V120.007H66.8611V122.885H216.208V120.007H210.231V91.2128H216.665ZM74.9952 79.6724H208.074V80.5339H74.9952V79.6724ZM78.28 81.6128H79.9096V88.3348H78.28V81.6128ZM81.3472 81.6128H82.9769V88.3348H81.3472V81.6128ZM84.4145 81.6128H86.0442V88.3348H84.4145V81.6128ZM87.4818 81.6128H89.1114V88.3348H87.4818V81.6128ZM90.549 81.6128H92.1787V88.3348H90.549V81.6128ZM93.6163 81.6128H95.2459V88.3348H93.6163V81.6128ZM96.6835 81.6128H98.3132V88.3348H96.6835V81.6128ZM99.7508 81.6128H101.38V88.3348H99.7508V81.6128ZM102.818 81.6128H104.448V88.3348H102.818V81.6128ZM105.885 81.6128H107.515V88.3348H105.885V81.6128ZM108.953 81.6128H110.582V88.3348H108.953V81.6128ZM112.02 81.6128H113.649V88.3348H112.02V81.6128ZM115.087 81.6128H116.717V88.3348H115.087V81.6128ZM118.154 81.6128H119.784V88.3348H118.154V81.6128ZM121.222 81.6128H122.851V88.3348H121.222V81.6128ZM124.289 81.6128H125.918V88.3348H124.289V81.6128ZM127.356 81.6128H128.986V88.3348H127.356V81.6128ZM130.423 81.6128H132.053V88.3348H130.423V81.6128ZM133.491 81.6128H135.12V88.3348H133.491V81.6128ZM136.558 81.6128H138.188V88.3348H136.558V81.6128ZM139.625 81.6128H141.255V88.3348H139.625V81.6128ZM142.692 81.6128H144.322V88.3348H142.692V81.6128ZM145.76 81.6128H147.124V88.3348H145.76V81.6128ZM148.561 81.6128H150.191V88.3348H148.561V81.6128ZM151.629 81.6128H153.258V88.3348H151.629V81.6128ZM154.696 81.6128H156.326V88.3348H154.696V81.6128ZM157.763 81.6128H159.393V88.3348H157.763V81.6128ZM160.83 81.6128H162.46V88.3348H160.83V81.6128ZM163.898 81.6128H165.527V88.3348H163.898V81.6128ZM166.965 81.6128H168.595V88.3348H166.965V81.6128ZM170.032 81.6128H171.662V88.3348H170.032V81.6128ZM173.099 81.6128H174.729V88.3348H173.099V81.6128ZM176.167 81.6128H177.796V88.3348H176.167V81.6128ZM179.234 81.6128H180.864V88.3348H179.234V81.6128ZM182.301 81.6128H183.931V88.3348H182.301V81.6128ZM185.369 81.6128H186.998V88.3348H185.369V81.6128ZM188.436 81.6128H190.065V88.3348H188.436V81.6128ZM191.503 81.6128H192.867V88.3348H191.503V81.6128ZM194.305 81.6128H195.934V88.3348H194.305V81.6128ZM197.372 81.6128H199.002V88.3348H197.372V81.6128ZM200.439 81.6128H202.069V88.3348H200.439V81.6128ZM203.507 81.6128H205.136V88.3348H203.507V81.6128ZM206.574 81.6128H208.048V88.3348H206.574V81.6128ZM141.763 2.72833C160.774 2.72833 176.283 17.9658 176.74 36.8692H106.786C107.244 17.9658 122.752 2.72833 141.763 2.72833ZM208.074 62.5031V78.5964H74.9952V62.5031H208.074ZM74.9952 81.6156H76.8424V88.3376H74.9952V81.6156ZM208.074 120.01H74.9952V91.2156H208.074V120.01Z" fill="white"/>
<path d="M95.8702 65.0055H84.2197V76.656H95.8702V65.0055ZM94.7913 69.8888H85.2986V69.0048H94.7913V69.8888ZM85.2986 66.0844H94.7913V67.9259H85.2986V66.0844ZM94.7913 75.5771H85.2986V70.9677H94.7913V75.5771Z" fill="white"/>
<path d="M116.525 65.0055H104.874V76.656H116.525V65.0055ZM115.446 69.8888H105.953V69.0048H115.446V69.8888ZM105.953 66.0844H115.446V67.9259H105.953V66.0844ZM115.446 75.5771H105.953V70.9677H115.446V75.5771Z" fill="white"/>
<path d="M137.182 65.0055H125.531V76.656H137.182V65.0055ZM126.61 69.8888V69.0048H136.103V69.8888H126.61ZM126.61 66.0844H136.103V67.9259H126.61V66.0844ZM136.103 75.5771H126.61V70.9677H136.103V75.5771Z" fill="white"/>
<path d="M141.232 94.4862H127.783V118.106H141.232V94.4862Z" fill="white"/>
<path d="M155.924 94.4862H142.475V118.106H155.924V94.4862Z" fill="white"/>
<path d="M116.522 94.4862H107.255V115.011H116.522V94.4862Z" fill="white"/>
<path d="M176.604 94.4862H167.338V115.011H176.604V94.4862Z" fill="white"/>
<path d="M196.632 94.4862H187.365V115.011H196.632V94.4862Z" fill="white"/>
<path d="M96.4972 94.4862H87.2305V115.011H96.4972V94.4862Z" fill="white"/>
<path d="M156.933 65.0055H145.282V76.656H156.933V65.0055ZM155.854 69.8888H146.359V69.0048H155.854V69.8888ZM146.359 66.0844H155.854V67.9259H146.359V66.0844ZM155.854 75.5771H146.359V70.9677H155.854V75.5771Z" fill="white"/>
<path d="M177.59 65.0055H165.94V76.656H177.59V65.0055ZM176.511 69.8888H167.019V69.0048H176.511V69.8888ZM167.019 66.0844H176.511V67.9259H167.019V66.0844ZM176.511 75.5771H167.019V70.9677H176.511V75.5771Z" fill="white"/>
<path d="M198.245 65.0055H186.594V76.656H198.245V65.0055ZM187.673 69.8888V69.0048H197.166V69.8888H187.673ZM187.673 66.0844H197.166V67.9259H187.673V66.0844ZM197.166 75.5771H187.673V70.9677H197.166V75.5771Z" fill="white"/>
<path d="M162.548 140.026H120.521V142.904H162.548V140.026Z" fill="white"/>
<path d="M160.031 135.033H123.038V137.911H160.031V135.033Z" fill="white"/>
<path d="M156.794 130.039H126.274V132.917H156.794V130.039Z" fill="white"/>
<path d="M152.552 125.043H130.52V127.921H152.552V125.043Z" fill="white"/>
<path d="M26.0971 163.971C26.0971 173.8 20.1236 179.011 12.8367 179.011C5.54987 179.011 0 173.164 0 164.522C0 155.456 5.6346 149.525 13.2604 149.525C20.8862 149.525 26.0971 155.498 26.0971 163.971ZM3.93999 164.437C3.93999 170.538 7.24449 176.003 13.0486 176.003C18.8526 176.003 22.1995 170.623 22.1995 164.141C22.1995 158.464 19.2339 152.532 13.0909 152.532C6.94793 152.532 3.93999 158.167 3.93999 164.437Z" fill="white"/>
<path d="M31.9436 150.372C34.189 150.033 36.858 149.779 39.7812 149.779C45.0769 149.779 48.8474 151.007 51.347 153.337C53.8889 155.668 55.3717 158.972 55.3717 163.59C55.3717 168.208 53.9313 172.063 51.2622 174.69C48.5932 177.359 44.1872 178.799 38.6373 178.799C36.0107 178.799 33.8077 178.672 31.9436 178.46V150.372ZM35.6294 175.622C36.5614 175.791 37.9171 175.834 39.3576 175.834C47.2375 175.834 51.5164 171.428 51.5164 163.717C51.5588 156.981 47.7459 152.702 39.9507 152.702C38.0442 152.702 36.6038 152.871 35.6294 153.083V175.622Z" fill="white"/>
<path d="M76.0006 165.157H64.9009V175.452H77.2716V178.545H61.2151V149.991H76.6361V153.083H64.9009V162.107H76.0006V165.157Z" fill="white"/>
<path d="M83.1211 178.545V149.991H87.1458L96.2968 164.437C98.415 167.784 100.067 170.792 101.423 173.715L101.508 173.673C101.169 169.86 101.084 166.386 101.084 161.938V149.991H104.558V178.545H100.83L91.7636 164.056C89.7725 160.879 87.866 157.616 86.4256 154.524L86.2985 154.566C86.5103 158.167 86.5951 161.599 86.5951 166.344V178.545H83.1211Z" fill="white"/>
<path d="M111.545 174.054C113.198 175.071 115.612 175.918 118.154 175.918C121.925 175.918 124.128 173.927 124.128 171.046C124.128 168.377 122.603 166.852 118.747 165.369C114.087 163.717 111.206 161.302 111.206 157.277C111.206 152.829 114.892 149.525 120.442 149.525C123.365 149.525 125.484 150.202 126.755 150.923L125.738 153.931C124.806 153.422 122.899 152.575 120.315 152.575C116.417 152.575 114.935 154.905 114.935 156.854C114.935 159.523 116.672 160.836 120.612 162.361C125.441 164.225 127.898 166.555 127.898 170.75C127.898 175.156 124.636 178.969 117.9 178.969C115.146 178.969 112.138 178.164 110.613 177.147L111.545 174.054Z" fill="white"/>
<path d="M148.785 165.157H137.685V175.452H150.056V178.545H133.999V149.991H149.42V153.083H137.685V162.107H148.785V165.157Z" fill="white"/>
<path d="M169.628 149.991V161.938H183.439V149.991H187.167V178.545H183.439V165.157H169.628V178.545H165.942V149.991H169.628Z" fill="white"/>
<path d="M219.027 163.971C219.027 173.8 213.053 179.011 205.766 179.011C198.479 179.011 192.929 173.164 192.929 164.522C192.929 155.456 198.564 149.525 206.19 149.525C213.816 149.525 219.027 155.498 219.027 163.971ZM196.869 164.437C196.869 170.538 200.174 176.003 205.978 176.003C211.782 176.003 215.129 170.623 215.129 164.141C215.129 158.464 212.163 152.532 206.02 152.532C199.877 152.532 196.869 158.167 196.869 164.437Z" fill="white"/>
<path d="M229.237 153.126H220.552V149.991H241.692V153.126H232.965V178.545H229.237V153.126Z" fill="white"/>
<path d="M260.714 165.157H249.615V175.452H261.985V178.545H245.929V149.991H261.35V153.083H249.615V162.107H260.714V165.157Z" fill="white"/>
<path d="M267.832 149.991H271.517V175.452H283.719V178.545H267.832V149.991Z" fill="white"/>
<path d="M97.189 187.272C97.5109 187.204 98.0193 187.154 98.5362 187.154C99.2733 187.154 99.7478 187.281 100.104 187.569C100.4 187.789 100.578 188.128 100.578 188.577C100.578 189.128 100.214 189.611 99.6123 189.831V189.848C100.155 189.984 100.79 190.433 100.79 191.28C100.79 191.771 100.595 192.144 100.307 192.424C99.9088 192.788 99.2649 192.958 98.3328 192.958C97.8245 192.958 97.4347 192.924 97.189 192.89V187.272ZM97.9261 189.611H98.5955C99.375 189.611 99.8326 189.204 99.8326 188.653C99.8326 187.984 99.3242 187.721 98.5786 187.721C98.2396 187.721 98.0448 187.747 97.9261 187.772V189.611ZM97.9261 192.348C98.0702 192.373 98.282 192.381 98.5447 192.381C99.3072 192.381 100.011 192.102 100.011 191.271C100.011 190.492 99.3411 190.17 98.5362 190.17H97.9261V192.348Z" fill="white"/>
<path d="M107.298 189.992C107.298 191.958 106.103 193 104.645 193C103.188 193 102.078 191.831 102.078 190.102C102.078 188.289 103.205 187.103 104.73 187.103C106.255 187.103 107.298 188.297 107.298 189.992ZM102.866 190.085C102.866 191.305 103.527 192.398 104.688 192.398C105.849 192.398 106.518 191.322 106.518 190.026C106.518 188.891 105.925 187.704 104.696 187.704C103.468 187.704 102.866 188.831 102.866 190.085Z" fill="white"/>
<path d="M111.221 192.009C111.551 192.212 112.034 192.381 112.542 192.381C113.296 192.381 113.737 191.983 113.737 191.407C113.737 190.873 113.432 190.568 112.661 190.272C111.729 189.941 111.153 189.458 111.153 188.653C111.153 187.764 111.89 187.103 113 187.103C113.585 187.103 114.008 187.238 114.262 187.382L114.059 187.984C113.873 187.882 113.491 187.713 112.975 187.713C112.195 187.713 111.898 188.179 111.898 188.569C111.898 189.102 112.246 189.365 113.034 189.67C114 190.043 114.491 190.509 114.491 191.348C114.491 192.229 113.839 192.992 112.492 192.992C111.941 192.992 111.339 192.831 111.034 192.627L111.221 192.009Z" fill="white"/>
<path d="M121.015 189.992C121.015 191.958 119.821 193 118.363 193C116.906 193 115.796 191.831 115.796 190.102C115.796 188.289 116.923 187.103 118.448 187.103C119.973 187.103 121.015 188.297 121.015 189.992ZM116.584 190.085C116.584 191.305 117.245 192.398 118.406 192.398C119.566 192.398 120.236 191.322 120.236 190.026C120.236 188.891 119.643 187.704 118.414 187.704C117.185 187.704 116.584 188.831 116.584 190.085Z" fill="white"/>
<path d="M127.421 190.399C127.379 189.602 127.328 188.645 127.336 187.933H127.311C127.116 188.602 126.879 189.314 126.591 190.102L125.582 192.873H125.023L124.1 190.153C123.828 189.348 123.6 188.611 123.439 187.933H123.422C123.405 188.645 123.362 189.602 123.312 190.458L123.159 192.907H122.456L122.854 187.196H123.795L124.769 189.958C125.006 190.661 125.201 191.288 125.345 191.882H125.371C125.515 191.305 125.718 190.678 125.972 189.958L126.989 187.196H127.929L128.285 192.907H127.565L127.421 190.399Z" fill="white"/>
<path d="M135.445 190.229H133.225V192.288H135.699V192.907H132.488V187.196H135.572V187.814H133.225V189.619H135.445V190.229Z" fill="white"/>
<path d="M137.292 192.907V187.196H138.097L139.927 190.085C140.351 190.755 140.681 191.356 140.953 191.941L140.97 191.932C140.902 191.17 140.885 190.475 140.885 189.585V187.196H141.58V192.907H140.834L139.021 190.009C138.623 189.374 138.241 188.721 137.953 188.103L137.928 188.111C137.97 188.831 137.987 189.518 137.987 190.467V192.907H137.292Z" fill="white"/>
<path d="M145.935 187.196H146.672V189.95H146.697C146.85 189.729 147.002 189.526 147.146 189.34L148.892 187.196H149.807L147.74 189.619L149.968 192.907H149.095L147.214 190.102L146.672 190.729V192.907H145.935V187.196Z" fill="white"/>
<path d="M155.899 189.992C155.899 191.958 154.704 193 153.247 193C151.79 193 150.68 191.831 150.68 190.102C150.68 188.289 151.807 187.103 153.332 187.103C154.857 187.103 155.899 188.297 155.899 189.992ZM151.468 190.085C151.468 191.305 152.129 192.398 153.289 192.398C154.45 192.398 155.12 191.322 155.12 190.026C155.12 188.891 154.526 187.704 153.298 187.704C152.069 187.704 151.468 188.831 151.468 190.085Z" fill="white"/>
<path d="M157.492 192.907V187.196H158.297L160.127 190.085C160.551 190.755 160.881 191.356 161.153 191.941L161.17 191.932C161.102 191.17 161.085 190.475 161.085 189.585V187.196H161.78V192.907H161.034L159.221 190.009C158.822 189.374 158.441 188.721 158.153 188.103L158.128 188.111C158.17 188.831 158.187 189.518 158.187 190.467V192.907H157.492Z" fill="white"/>
<path d="M168.05 192.653C167.719 192.771 167.067 192.966 166.296 192.966C165.431 192.966 164.72 192.746 164.16 192.212C163.669 191.737 163.364 190.975 163.364 190.085C163.372 188.382 164.542 187.137 166.457 187.137C167.118 187.137 167.634 187.281 167.88 187.399L167.702 188.001C167.397 187.865 167.016 187.755 166.44 187.755C165.05 187.755 164.144 188.619 164.144 190.051C164.144 191.483 165.016 192.356 166.347 192.356C166.83 192.356 167.16 192.288 167.329 192.204V190.5H166.169V189.907H168.05V192.653Z" fill="white"/>
<path d="M172.769 190.229H170.549V192.288H173.023V192.907H169.812V187.196H172.896V187.814H170.549V189.619H172.769V190.229Z" fill="white"/>
<path d="M174.616 187.196H175.353V192.288H177.794V192.907H174.616V187.196Z" fill="white"/>
<path d="M179.988 187.196V192.907H179.251V187.196H179.988Z" fill="white"/>
<path d="M186.258 192.653C185.928 192.771 185.275 192.966 184.504 192.966C183.64 192.966 182.928 192.746 182.369 192.212C181.878 191.737 181.573 190.975 181.573 190.085C181.581 188.382 182.751 187.137 184.665 187.137C185.326 187.137 185.843 187.281 186.089 187.399L185.911 188.001C185.606 187.865 185.225 187.755 184.648 187.755C183.259 187.755 182.352 188.619 182.352 190.051C182.352 191.483 183.225 192.356 184.555 192.356C185.038 192.356 185.369 192.288 185.538 192.204V190.5H184.377V189.907H186.258V192.653Z" fill="white"/>
</svg>
