<?xml version="1.0" encoding="UTF-8"?>
<svg id="Lag_2" data-name="Lag 2" xmlns="http://www.w3.org/2000/svg" viewBox="0 0 433 433.52">
  <defs>
    <style>
      .cls-1 {
        fill: none;
      }

      .cls-1, .cls-2, .cls-3, .cls-4, .cls-5, .cls-6, .cls-7, .cls-8 {
        stroke-miterlimit: 10;
      }

      .cls-1, .cls-2, .cls-4, .cls-5, .cls-6, .cls-7, .cls-8 {
        stroke: #231f20;
        stroke-width: .25px;
      }

      .cls-9, .cls-4 {
        fill: #020202;
      }

      .cls-2 {
        isolation: isolate;
        opacity: .1;
      }

      .cls-2, .cls-3 {
        fill: #080808;
      }

      .cls-3 {
        stroke: #000;
      }

      .cls-5 {
        fill: #381f1f;
      }

      .cls-10 {
        fill: #346732;
      }

      .cls-11 {
        fill: #fcec00;
      }

      .cls-6 {
        fill: #fff;
      }

      .cls-7 {
        fill: #0a8c9c;
      }

      .cls-8, .cls-12 {
        fill: #e56e50;
      }
    </style>
  </defs>
  <g id="Lag_1-2" data-name="Lag 1">
    <path class="cls-9" d="m294.79,64.78c.97,16.68.4,25.24-1.77,25.64-2.51.47-7.05-9.76-13.69-30.72"/>
    <path class="cls-1" d="m294.79,64.78c.97,16.68.4,25.24-1.77,25.64-2.51.47-7.05-9.76-13.69-30.72"/>
    <path class="cls-9" d="m146.39,59.74c-.97,16.68-.4,25.24,1.77,25.64,2.5.47,7.05-9.76,13.69-30.72"/>
    <path class="cls-1" d="m146.39,59.74c-.97,16.68-.4,25.24,1.77,25.64,2.5.47,7.05-9.76,13.69-30.72"/>
    <path class="cls-12" d="m146.83,82.27c-1.1.07-12.32.77-16.5,8.62-3.57,6.79-.13,15.44,1.37,19.25,1.27,3.21,2,3.54,3.47,7.66,2.17,6.18,1.64,8.59,3.81,10.66,2.44,2.34,6.81,2.81,9.88,1.77,9.85-3.28,15.26-24.7,8.12-39.85-2.27-4.85-5.41-8.12-7.35-9.89"/>
    <path class="cls-1" d="m146.83,82.27c-1.1.07-12.32.77-16.5,8.62-3.57,6.79-.13,15.44,1.37,19.25,1.27,3.21,2,3.54,3.47,7.66,2.17,6.18,1.64,8.59,3.81,10.66,2.44,2.34,6.81,2.81,9.88,1.77,9.85-3.28,15.26-24.7,8.12-39.85-2.27-4.85-5.41-8.12-7.35-9.89"/>
    <path class="cls-12" d="m284.98,81.13c1.1.07,12.32.77,16.5,8.62,3.57,6.79.13,15.44-1.37,19.25-1.27,3.21-2,3.54-3.47,7.65-2.17,6.18-1.64,8.59-3.81,10.66-2.44,2.34-6.81,2.81-9.88,1.77-9.85-3.28-15.26-24.7-8.11-39.85,2.27-4.85,5.41-8.12,7.35-9.89"/>
    <path class="cls-1" d="m284.98,81.13c1.1.07,12.32.77,16.5,8.62,3.57,6.79.13,15.44-1.37,19.25-1.27,3.21-2,3.54-3.47,7.65-2.17,6.18-1.64,8.59-3.81,10.66-2.44,2.34-6.81,2.81-9.88,1.77-9.85-3.28-15.26-24.7-8.11-39.85,2.27-4.85,5.41-8.12,7.35-9.89"/>
    <path class="cls-12" d="m188.34,170.75c-.94,4.41-2.04,10.66-2.54,18.28-1,15.08-1.84,28.01,5.08,32.99,3.71,2.68,6.21.57,21.81,0,18.03-.67,21.2,1.91,25.35-.5,3.97-2.31,11.76-10.83,2.54-52.82"/>
    <path class="cls-1" d="m188.34,170.75c-.94,4.41-2.04,10.66-2.54,18.28-1,15.08-1.84,28.01,5.08,32.99,3.71,2.68,6.21.57,21.81,0,18.03-.67,21.2,1.91,25.35-.5,3.97-2.31,11.76-10.83,2.54-52.82"/>
    <path class="cls-8" d="m150.8,61.57c-3.17,6.32-2.57,9.96-3.04,28.95-.93,38.24-3.91,42.09.5,54.32,2.1,5.85,6.48,17.48,17.76,24.87,4.81,3.14,10.09,5.01,27.38,6.59,27.78,2.57,41.67,3.68,52.76,0,5.61-1.87,24.48-8.12,35.5-26.14,4.84-7.92,6.11-17.21,8.61-35.8,3.44-25.37,5.01-38.27-1-49.24-5.48-9.99-14.06-14.57-23.84-19.79-4.04-2.17-44.75-23.1-86.72-5.58-8.95,3.74-21.54,9.19-27.88,21.83h-.03Z"/>
    <path class="cls-5" d="m263.6,63.88c6.21,3.71,3.74,8.39,10.39,12.94,5.98,4.11,14.29,4.65,21.04,2.04,6.48-2.51,11.69-8.09,13.46-14.47.47-1.7,1.23-4.45.43-7.65-1.1-4.55-4.11-5.21-5.71-9.53-1.47-3.98.3-5.45.2-11.27-.07-3.01-.23-10.5-4.81-15.48-5.11-5.55-14.49-6.12-20.8-4.58-6.51,1.6-7.91,5.08-11.65,4.08-4.81-1.3-3.97-7.35-10.38-11.93-5.48-3.91-11.92-3.64-13.19-3.54-9.48.57-17,5.32-17,5.32-1.24.77-2.77,1.87-4.57,1.54-2.54-.5-3-3.41-5.31-6.08C211.04-.1,202.96.1,202.29.13c-5.91.23-10.25,3.71-12.99,5.88-5.38,4.31-6.88,8.39-8.88,7.86-2.14-.53-1.04-5.65-4.07-9.39C172.74-.03,165.66.3,162.69.4c-9.62.33-15.93,6.32-17.76,8.12-2.54,2.47-6.78,6.62-6.85,12.2-.03,2.71.93,3.71,1.27,7.35.1,1.27.33,5.95-1.54,10.66-2.07,5.28-4.71,5.35-6.58,9.13-3.04,6.15-.6,15.08,4.07,20.56,6.81,8.06,19.2,10.03,26.38,5.85,7.65-4.48,8.58-15.51,13.69-15.24,2.04.1,1.9,1.87,4.57,2.81,6.54,2.24,11.72-7.09,20.04-6.08,3.74.47,2.94,2.37,7.35,3.54,9.42,2.51,14.53-5.95,24.11-4.08,4.17.8,2.97,2.37,9.12,4.81,11.22,4.45,16.1-.37,23.07,3.81l-.03.03Z"/>
    <path class="cls-4" d="m246.17,79.59c-1.44-.5-10.69-3.78-17.5,1.77-4.74,3.88-5.41,9.59-5.58,11.16-.17,1.3-.87,7.39,3.04,12.43,4.61,5.98,13.69,8.02,20.8,4.81,8.45-3.81,12.82-14.41,9.65-21.83-2.37-5.52-8.21-7.59-10.39-8.39l-.03.03Z"/>
    <path class="cls-4" d="m184.7,79.59c1.44-.5,10.69-3.78,17.5,1.77,4.74,3.88,5.41,9.59,5.58,11.16.17,1.3.87,7.39-3.04,12.43-4.61,5.98-13.69,8.02-20.8,4.81-8.45-3.81-12.82-14.41-9.65-21.83,2.37-5.52,8.21-7.59,10.39-8.39l.03.03Z"/>
    <path class="cls-4" d="m229.94,89.99c-4.61-2.34-7.28-3.71-11.15-4.31-10.79-1.7-19.13,4.28-21.3,5.85-1.64,1.17-4.14,3.21-3.81,3.81.37.7,4.24-1.1,11.65-3.04,4.91-1.27,7.41-1.91,9.88-1.77,4.04.23,4.54,1.6,10.92,3.31,4.27,1.14,10.79,2.34,11.15,1.27.4-1.14-6.04-4.41-7.35-5.08v-.03Z"/>
    <path class="cls-2" d="m169.43,125.09c3.44-3.41,9.65,2.44,26.41,4.21,17,1.8,16.63-3.58,33.69-1.4,9.75,1.24,15.76,3.71,24.14.57,4.98-1.87,7.35-4.45,8.98-3.38,3.17,2.07-.07,15.34-6.44,25.04-6.28,9.53-19.03,20.79-37.07,21.93-17.9,1.14-31.76-8.29-39.34-16.88-8.72-9.89-15.03-25.47-10.39-30.08Z"/>
    <path class="cls-6" d="m175.85,131.07c3.17-2.64,8.42,1.87,23.14,3.24,14.96,1.4,14.83-2.74,29.82-1.07,8.55.93,13.76,2.87,21.3.43,4.48-1.44,6.68-3.41,8.08-2.61,2.71,1.6-.7,11.8-6.71,19.29-5.94,7.35-17.63,16.01-33.63,16.88-15.83.87-27.72-6.38-34.06-13-7.28-7.62-12.22-19.62-7.95-23.16Z"/>
    <path class="cls-7" d="m317.2,255.02c-4.21-1.9,1.27-20.52,0-47.53-.1-2.21-.23-3.94-1-6.08-5.11-13.97-28.39-17.15-32.96-17.78-31.79-4.35-37.97,16.25-68.99,16.25-26.68,0-29.52-15.24-65.42-16.75-15.53-.64-30.05-1.27-40.57,8.12-6.71,5.98-10.65,15.01-12.19,56.86-1.3,36.23-1.97,54.35,1,60.44,22.37,45.43,148.53,43.66,217.59,2.54,27.25-16.25,79.84-66.35,82.18-68.56,2.2-2.07,5.38-5.48,6.58-6.79,4.24-4.58,6.34-6.89,6.58-8.42.67-4.28-3.27-6.25-12.19-15.24-3.97-4.01-8.58-7.59-11.65-12.37-.33-.54-1.54-2.51-3.87-3.51-2.5-1.04-10.65,14.64-21,25.81-8.25,8.89-12.92,9.53-20.37,14.71-3.67,2.54-3.27,2.88-10.12,8.62-8.18,6.89-12.29,10.3-13.62,9.69h.03Z"/>
    <path class="cls-10" d="m277.13,233.59c-1.6,13.24-1.47,23.93-1,31.39.13,2.44.13,1.5,1.13,13.17,1.9,22.6,1.94,26.31,1.9,28.68-.07,4.95-.43,12.17-2.04,20.93"/>
    <path class="cls-1" d="m277.13,233.59c-1.6,13.24-1.47,23.93-1,31.39.13,2.44.13,1.5,1.13,13.17,1.9,22.6,1.94,26.31,1.9,28.68-.07,4.95-.43,12.17-2.04,20.93"/>
    <path class="cls-10" d="m133.07,233.59c1.6,14.11,1.47,25.51,1,33.43-.13,2.57-.13,1.57-1.13,14.04-1.9,24.07-1.94,28.05-1.9,30.55.07,5.28.43,12.94,2.04,22.3"/>
    <path class="cls-1" d="m133.07,233.59c1.6,14.11,1.47,25.51,1,33.43-.13,2.57-.13,1.57-1.13,14.04-1.9,24.07-1.94,28.05-1.9,30.55.07,5.28.43,12.94,2.04,22.3"/>
    <rect class="cls-3" x=".5" y="294.7" width="432" height="138.32"/>
    <path class="cls-11" d="m132.54,26.54c6.78-10.03,28.58-1.97,65.32.13,19.43,1.1,15.86-1,52.49-.37,44.35.77,53.73,3.94,57.7,10.93,4.41,7.72,2.07,19.92-3.54,22.86-5.11,2.67-11.99-2.81-18.77-6.59-12.29-6.92-26.45-7.32-54.8-8.12-21.77-.64-62.25-1.77-80.14,3.54-1.7.5-7.48,2.37-12.82-.2-5.51-2.64-7.31-8.46-7.48-8.93-1.6-5.35.33-10.7,2.04-13.2v-.07Z"/>
    <path class="cls-11" d="m431.5,430.7H.5v-136h431v136Zm-428.34-2.66h425.67v-130.68H3.16v130.68Z"/>
    <path class="cls-11" d="m68.83,346v28.69c0,12.62-6.48,18.21-15.46,18.21-4.01,0-8.28-2.14-9.95-4.27l3.32-5.65c1.24,1.8,3.66,3.31,6.63,3.31,6.22,0,8.84-4.42,8.84-11.04v-29.23h6.63-.01Z"/>
    <path class="cls-11" d="m70.33,352.51v-6.51h30.93v6.51h-30.93Zm12.16,39.85v-36.06h6.63v36.06h-6.63Z"/>
    <path class="cls-11" d="m128.38,346v6.62h-26.51v-6.62h26.51Zm-26.51,19.95h23.19v6.53h-16.56v19.86h-6.63v-26.39Z"/>
    <path class="cls-11" d="m178.77,381.25l2.84,6.21c-3.86,3.59-9.45,5.45-14.5,5.45-13.33,0-24.16-10.63-24.16-23.73s10.84-23.73,24.16-23.73c5.05,0,10.64,1.8,14.5,5.37l-2.84,6.21c-3.18-3.24-6.83-4.96-12.08-4.96-9.45,0-17.12,7.66-17.12,17.1s7.65,17.1,17.12,17.1c5.25,0,8.91-1.73,12.08-5.03h0Z"/>
    <path class="cls-11" d="m217.46,392.34h-7.74l-11.53-16h-7.24v16h-6.63v-22.62h16.5c4.83,0,8.91-2.49,8.91-8.49s-3.94-8.62-8.76-8.62h-16.64v-6.62h14.37c12.08,0,17.67,6.07,17.67,14.83,0,7.17-3.94,13.03-10.84,14.9l11.94,16.63Z"/>
    <path class="cls-11" d="m245.06,346v6.62h-26.51v-6.62h26.51Zm-26.51,26.48v-6.53h23.19v6.53h-23.19Zm6.63,13.25h19.88v6.62h-26.51v-6.65h6.63v.03Z"/>
    <path class="cls-11" d="m288.23,392.34h-7.18l-4.49-9.93h-.03l-10.4-22.89-10.4,22.89h-.03l-4.49,9.93h-7.18l22.09-47.44,22.09,47.44Z"/>
    <path class="cls-11" d="m279.91,352.51v-6.51h30.93v6.51h-30.93Zm12.16,39.85v-36.06h6.63v36.06h-6.63Z"/>
    <path class="cls-11" d="m312.94,392.34v-46.34h6.63v46.34h-6.63Z"/>
    <path class="cls-11" d="m342.82,377.83l3.41,7.86-3.43,7.75-20.98-47.44h7.18l13.81,31.87v-.03h.03Zm20.97-31.84l-15.55,35.15-3.45-7.89,11.82-27.27h7.18Z"/>
    <path class="cls-11" d="m389.55,346v6.62h-26.51v-6.62h26.51Zm-26.51,26.48v-6.53h23.19v6.53h-23.19Zm6.63,13.25h19.88v6.62h-26.51v-6.65h6.63v.03Z"/>
  </g>
</svg>