<svg width="261" height="148" viewBox="0 0 261 148" fill="none" xmlns="http://www.w3.org/2000/svg">
<path d="M130.466 1L1 73.9657L130.466 146.945L259.945 73.9657L130.466 1Z" stroke="white" stroke-width="1.5" stroke-linecap="round" stroke-linejoin="round"/>
<path d="M245.536 73.9657L130.466 9.12405L15.4094 73.9657" stroke="white" stroke-width="1.5" stroke-linecap="round" stroke-linejoin="round"/>
<path d="M98.4102 77.9725L98.1758 70.7557L98.0879 67.8748L97.4727 69.828L96.0566 74.1737H94.5527L93.2734 69.828L92.7363 67.8748L92.668 70.6971L92.4531 77.9725H90.4121L91.0371 65.2088H93.752L94.875 68.8319L95.4121 70.8729L95.9492 68.9491L97.1309 65.2088H99.8945L100.529 77.9725H98.4102ZM109.27 77.9725L108.566 75.453H104.113L103.391 77.9725H101.008L104.787 65.2088H108.146L111.926 77.9725H109.27ZM106.369 67.5526L104.689 73.4901H108.029L106.369 67.5526ZM108.664 62.9432C108.664 63.2427 108.605 63.5129 108.488 63.7538C108.378 63.9946 108.221 64.203 108.02 64.3788C107.824 64.548 107.593 64.6815 107.326 64.7791C107.059 64.8703 106.773 64.9159 106.467 64.9159C106.161 64.9159 105.874 64.8703 105.607 64.7791C105.34 64.688 105.106 64.5578 104.904 64.3885C104.709 64.2192 104.553 64.0142 104.436 63.7733C104.325 63.5324 104.27 63.2557 104.27 62.9432C104.27 62.6307 104.325 62.354 104.436 62.1131C104.553 61.8657 104.709 61.6574 104.904 61.4881C105.106 61.3189 105.34 61.1919 105.607 61.1073C105.874 61.0161 106.161 60.9706 106.467 60.9706C106.779 60.9706 107.069 61.0161 107.336 61.1073C107.603 61.1919 107.834 61.3189 108.029 61.4881C108.225 61.6574 108.378 61.8657 108.488 62.1131C108.605 62.354 108.664 62.6307 108.664 62.9432ZM107.307 62.9432C107.307 62.6958 107.229 62.5005 107.072 62.3573C106.916 62.214 106.714 62.1424 106.467 62.1424C106.219 62.1424 106.018 62.214 105.861 62.3573C105.705 62.5005 105.627 62.6958 105.627 62.9432C105.627 63.1906 105.705 63.3859 105.861 63.5291C106.018 63.6724 106.219 63.744 106.467 63.744C106.714 63.744 106.916 63.6724 107.072 63.5291C107.229 63.3859 107.307 63.1906 107.307 62.9432ZM119.191 77.9725L115.773 70.3553L115.07 68.7147V74.0077V77.9725H112.883V65.2088H115.832L119.318 72.8748L119.934 74.369V68.7342V65.2088H122.121V77.9725H119.191ZM124.758 77.9725V65.2088H132.443V67.2401H127.199V70.4139H132.199V72.3963H127.199V75.9413H132.443V77.9725H124.758ZM143.918 74.1151C143.918 74.8117 143.788 75.4172 143.527 75.9315C143.273 76.4458 142.915 76.8722 142.453 77.2108C141.991 77.5428 141.441 77.7902 140.803 77.953C140.165 78.1157 139.468 78.1971 138.713 78.1971C138.042 78.1971 137.395 78.1581 136.77 78.0799C136.145 78.0018 135.526 77.8716 134.914 77.6893V75.3163C135.214 75.4204 135.526 75.5181 135.852 75.6092C136.177 75.7004 136.503 75.7817 136.828 75.8534C137.16 75.9185 137.489 75.9706 137.814 76.0096C138.14 76.0487 138.456 76.0682 138.762 76.0682C139.217 76.0682 139.605 76.0291 139.924 75.951C140.243 75.8729 140.503 75.7655 140.705 75.6288C140.907 75.492 141.053 75.3293 141.145 75.1405C141.236 74.9517 141.281 74.7433 141.281 74.5155C141.281 74.203 141.19 73.9426 141.008 73.7342C140.832 73.5194 140.598 73.3306 140.305 73.1678C140.012 73.0051 139.676 72.8586 139.299 72.7284C138.928 72.5982 138.547 72.4582 138.156 72.3084C137.772 72.1587 137.391 71.9894 137.014 71.8006C136.643 71.6118 136.311 71.3775 136.018 71.0975C135.725 70.8176 135.487 70.4855 135.305 70.1014C135.129 69.7108 135.041 69.242 135.041 68.6952C135.041 68.1939 135.132 67.7186 135.314 67.2694C135.497 66.8202 135.783 66.4295 136.174 66.0975C136.564 65.759 137.066 65.492 137.678 65.2967C138.29 65.0949 139.029 64.994 139.895 64.994C140.148 64.994 140.412 65.007 140.686 65.0331C140.965 65.0526 141.239 65.0819 141.506 65.1209C141.779 65.1535 142.04 65.1958 142.287 65.2479C142.541 65.2935 142.772 65.3423 142.98 65.3944V67.5916C142.772 67.5135 142.544 67.4419 142.297 67.3768C142.049 67.3117 141.792 67.2564 141.525 67.2108C141.265 67.1587 141.001 67.1196 140.734 67.0936C140.467 67.0676 140.214 67.0545 139.973 67.0545C139.549 67.0545 139.191 67.0903 138.898 67.162C138.605 67.2271 138.365 67.3215 138.176 67.4452C137.987 67.5623 137.85 67.7088 137.766 67.8846C137.681 68.0604 137.639 68.2557 137.639 68.4706C137.639 68.7375 137.727 68.9686 137.902 69.1639C138.085 69.3527 138.322 69.5252 138.615 69.6815C138.915 69.8312 139.25 69.9745 139.621 70.1112C139.999 70.2414 140.383 70.3846 140.773 70.5409C141.171 70.6906 141.555 70.8631 141.926 71.0584C142.303 71.2538 142.639 71.4914 142.932 71.7713C143.231 72.0513 143.469 72.3833 143.645 72.7674C143.827 73.145 143.918 73.5942 143.918 74.1151ZM152.492 77.9725L148.654 71.8006V77.9725H146.213V65.2088H148.654V71.0194L152.473 65.2088H155.373L151.037 71.2928L155.598 77.9725H152.492ZM157.414 67.1717V65.2088H165.48V67.1717H162.668V75.9901H165.48V77.9725H157.414V75.9901H160.227V67.1717H157.414ZM174.172 77.9725L170.754 70.3553L170.051 68.7147V74.0077V77.9725H167.863V65.2088H170.812L174.299 72.8748L174.914 74.369V68.7342V65.2088H177.102V77.9725H174.172Z" fill="white"/>
<path d="M67.719 53.3199H193.226" stroke="white" stroke-width="1.5" stroke-linecap="round" stroke-linejoin="round"/>
<path d="M67.719 94.6251H193.226" stroke="white" stroke-width="1.5" stroke-linecap="round" stroke-linejoin="round"/>
<path d="M1 73.9656H30.7914" stroke="white" stroke-width="1.5" stroke-linecap="round" stroke-linejoin="round"/>
<path d="M230.154 73.9656H259.945" stroke="white" stroke-width="1.5" stroke-linecap="round" stroke-linejoin="round"/>
<path d="M112.632 43.1409C112.632 32.8112 121.001 24.4268 131.342 24.4268C141.684 24.4268 150.053 32.7975 150.053 43.1409" fill="#FFCC80"/>
<path d="M118.042 38.3185C117.933 38.3185 117.837 38.3048 117.727 38.25C117.316 38.0719 117.125 37.6061 117.303 37.2088C118.07 35.4004 119.166 33.7701 120.563 32.3728C121.96 30.9754 123.59 29.8794 125.398 29.1122C125.795 28.9478 126.274 29.1259 126.439 29.5369C126.617 29.9479 126.425 30.4137 126.014 30.5781C124.398 31.2631 122.932 32.2495 121.686 33.4962C120.439 34.7428 119.453 36.2087 118.768 37.8253C118.645 38.1267 118.344 38.3185 118.029 38.3185H118.042Z" fill="#212121"/>
<path d="M153.066 43.9355H109.605C109.167 43.9355 108.811 43.5793 108.811 43.1409C108.811 42.7025 109.167 42.3463 109.605 42.3463H153.066C153.504 42.3463 153.861 42.7025 153.861 43.1409C153.861 43.5793 153.504 43.9355 153.066 43.9355Z" fill="#FFCC80"/>
<path d="M131.329 27.1805C130.74 27.1805 130.26 26.701 130.26 26.1119V22.3718C130.26 21.7828 130.74 21.3033 131.329 21.3033C131.918 21.3033 132.397 21.7828 132.397 22.3718V26.1119C132.397 26.701 131.918 27.1805 131.329 27.1805Z" fill="#FFCC80"/>
<path d="M110.074 112.973V104.57H112.465C113.191 104.57 113.768 104.748 114.193 105.103C114.619 105.459 114.832 105.922 114.832 106.492C114.832 106.969 114.703 107.383 114.445 107.734C114.188 108.086 113.832 108.336 113.379 108.484V108.508C113.945 108.574 114.398 108.789 114.738 109.152C115.078 109.512 115.248 109.98 115.248 110.558C115.248 111.277 114.99 111.859 114.475 112.305C113.959 112.75 113.309 112.973 112.523 112.973H110.074ZM111.059 105.461V108.174H112.066C112.605 108.174 113.029 108.045 113.338 107.787C113.646 107.525 113.801 107.158 113.801 106.685C113.801 105.869 113.264 105.461 112.189 105.461H111.059ZM111.059 109.058V112.082H112.395C112.973 112.082 113.42 111.945 113.736 111.672C114.057 111.398 114.217 111.023 114.217 110.547C114.217 109.555 113.541 109.058 112.189 109.058H111.059ZM118.758 104.57V105.414H117.938V112.129H118.758V112.973H116.133V112.129H116.953V105.414H116.133V104.57H118.758ZM119.76 112.633V111.473C119.893 111.59 120.051 111.695 120.234 111.789C120.422 111.883 120.617 111.963 120.82 112.029C121.027 112.092 121.234 112.14 121.441 112.176C121.648 112.211 121.84 112.228 122.016 112.228C122.621 112.228 123.072 112.117 123.369 111.894C123.67 111.668 123.82 111.344 123.82 110.922C123.82 110.695 123.77 110.498 123.668 110.33C123.57 110.162 123.434 110.01 123.258 109.873C123.082 109.732 122.873 109.599 122.631 109.474C122.393 109.346 122.135 109.211 121.857 109.07C121.564 108.922 121.291 108.771 121.037 108.619C120.783 108.467 120.562 108.299 120.375 108.115C120.188 107.931 120.039 107.724 119.93 107.494C119.824 107.26 119.771 106.986 119.771 106.674C119.771 106.291 119.855 105.959 120.023 105.678C120.191 105.392 120.412 105.158 120.686 104.974C120.959 104.791 121.27 104.654 121.617 104.564C121.969 104.474 122.326 104.43 122.689 104.43C123.518 104.43 124.121 104.529 124.5 104.728V105.836C124.004 105.492 123.367 105.32 122.59 105.32C122.375 105.32 122.16 105.344 121.945 105.39C121.73 105.433 121.539 105.506 121.371 105.607C121.203 105.709 121.066 105.84 120.961 106C120.855 106.16 120.803 106.355 120.803 106.586C120.803 106.801 120.842 106.986 120.92 107.142C121.002 107.299 121.121 107.441 121.277 107.57C121.434 107.699 121.623 107.824 121.846 107.945C122.072 108.066 122.332 108.199 122.625 108.344C122.926 108.492 123.211 108.648 123.48 108.812C123.75 108.976 123.986 109.158 124.189 109.357C124.393 109.556 124.553 109.777 124.67 110.019C124.791 110.262 124.852 110.539 124.852 110.851C124.852 111.265 124.77 111.617 124.605 111.906C124.445 112.191 124.227 112.424 123.949 112.603C123.676 112.783 123.359 112.912 123 112.99C122.641 113.072 122.262 113.113 121.863 113.113C121.73 113.113 121.566 113.101 121.371 113.078C121.176 113.058 120.977 113.027 120.773 112.984C120.57 112.945 120.377 112.896 120.193 112.838C120.014 112.775 119.869 112.707 119.76 112.633ZM131.496 105.461H129.07V112.973H128.086V105.461H125.666V104.57H131.496V105.461ZM138.844 112.973H137.672L136.266 110.617C136.137 110.398 136.012 110.213 135.891 110.06C135.77 109.904 135.645 109.777 135.516 109.68C135.391 109.582 135.254 109.512 135.105 109.469C134.961 109.422 134.797 109.398 134.613 109.398H133.805V112.973H132.82V104.57H135.328C135.695 104.57 136.033 104.617 136.342 104.711C136.654 104.801 136.924 104.939 137.15 105.127C137.381 105.314 137.561 105.549 137.689 105.83C137.818 106.107 137.883 106.433 137.883 106.808C137.883 107.101 137.838 107.371 137.748 107.617C137.662 107.859 137.537 108.076 137.373 108.267C137.213 108.459 137.018 108.623 136.787 108.76C136.561 108.892 136.305 108.996 136.02 109.07V109.094C136.16 109.156 136.281 109.228 136.383 109.31C136.488 109.389 136.588 109.482 136.682 109.592C136.775 109.701 136.867 109.826 136.957 109.967C137.051 110.103 137.154 110.264 137.268 110.447L138.844 112.973ZM133.805 105.461V108.508H135.141C135.387 108.508 135.613 108.471 135.82 108.396C136.031 108.322 136.213 108.217 136.365 108.08C136.518 107.939 136.637 107.769 136.723 107.57C136.809 107.367 136.852 107.14 136.852 106.89C136.852 106.441 136.705 106.092 136.412 105.842C136.123 105.588 135.703 105.461 135.152 105.461H133.805ZM143.391 113.113C142.199 113.113 141.244 112.721 140.525 111.935C139.811 111.15 139.453 110.129 139.453 108.871C139.453 107.519 139.818 106.441 140.549 105.637C141.279 104.832 142.273 104.43 143.531 104.43C144.691 104.43 145.625 104.82 146.332 105.601C147.043 106.383 147.398 107.404 147.398 108.666C147.398 110.037 147.035 111.121 146.309 111.918C145.582 112.715 144.609 113.113 143.391 113.113ZM143.461 105.32C142.578 105.32 141.861 105.639 141.311 106.275C140.76 106.912 140.484 107.748 140.484 108.783C140.484 109.818 140.752 110.652 141.287 111.285C141.826 111.914 142.527 112.228 143.391 112.228C144.312 112.228 145.039 111.928 145.57 111.326C146.102 110.724 146.367 109.883 146.367 108.801C146.367 107.691 146.109 106.834 145.594 106.228C145.078 105.623 144.367 105.32 143.461 105.32Z" fill="#FFCC80"/>
<path d="M134.739 123.135L126.206 131.67" stroke="white" stroke-width="1.5" stroke-linecap="round" stroke-linejoin="round"/>
<path d="M134.739 131.67L126.206 123.135" stroke="white" stroke-width="1.5" stroke-linecap="round" stroke-linejoin="round"/>
</svg>
