<?xml version="1.0" encoding="utf-8"?>
<!-- Generator: Adobe Illustrator 27.4.0, SVG Export Plug-In . SVG Version: 6.00 Build 0)  -->
<svg version="1.1" id="Layer_2_00000057831879081050109730000010259550956026261900_"
	 xmlns="http://www.w3.org/2000/svg" xmlns:xlink="http://www.w3.org/1999/xlink" x="0px" y="0px" viewBox="0 0 417.7 225.7"
	 style="enable-background:new 0 0 417.7 225.7;" xml:space="preserve">
<style type="text/css">
	.st0{fill-rule:evenodd;clip-rule:evenodd;fill:#080808;}
</style>
<g>
	<path class="st0" d="M40.8,22.8c5.2,1.6,6.4,7.9,18.3,9.3c12,1.3-1.3,9.6-0.3,15.1c1,5.5,11.5,8.1,13.8,10.2
		c2.3,2.1-3.1,6.5-0.4,7.6c2.7,1.1,0.1,4-3.4,10.3c-3.5,6.4-31,13.4-40.8,21.6c-9.8,8.2-8.4,8.5-13.8,10.4c-5.4,1.9-1.8,8.2-7.2,8.1
		c-5.5-0.1-9.9,13.1-4.6,12.1c5.3-1,10.6-17.7,17.7-17.6c7,0.1,3.2-8.2,14.2-5.5c11,2.8,37,1.4,39.1,1.5c2.1,0.1-2.5,5.6-9.4,7.9
		c-6.9,2.3-0.8,5.7-16.1,9.8c-15.3,4-22.2,12.1-16.7,9s6.1-4.8,17.3-7.4c11.2-2.6,21.6-7.8,24.1-10.2c2.5-2.4-2-1.5-1.4-4.1
		c0.7-2.5,11.2-7.1,17.1-10c5.9-2.9,10.2,1.6,5.7,6.7c-4.6,5.2-21.5,11.7-25,15c-3.5,3.4-0.4,4.3,4.1,0.2
		c4.5-4.1,20.1-12.9,23.3-14.4s6-1.6,8.9,1c2.9,2.6-1,6.9,5.5,11.6c6.5,4.7,6.8,9.4,0,13c-6.8,3.6-12.1,12.6-9.6,14.6
		c2.4,2-9.2,6-2.6,5.2c6.6-0.8,4.9,3,0.9,9.7c-4,6.7-13.5,7.7-13.2,9.6c0.4,1.9-0.4,5.9-4.5,11.1c-4.1,5.2,0.3,4.5,3.6,3
		c3.3-1.5,2.3-6.7,2.3-6.7c2.7-0.7,2.8-2.9,2.8-2.9c4.7-1.1,6.7-5,9.1-9.3c2.4-4.3,10.8-12.1,10.8-12.1c9.3-1.1,14.9-11.8,30.9-12.3
		c14.9-0.5,18.4,9.3,18.4,9.3s16.6-15.4,15.8,0.3c0,0.6-0.1,1.2-0.2,1.9c-0.9,0.7-1.7,1.3-2.4,1.8c-5.7,4.3-0.4,3.7-3.4,6.9
		c-2.9,3.2-6.4,6.4-2.7,4.4c1.2-0.6,2.2-1,3.2-1.4c-9.4,14.8-27.8,32-31.7,39.3c-4.2,8.1-10.8,14.6-13,16.7c-0.4,0.4-0.5,1-0.2,1.5
		c0.4,0.6,1,1,1.7,1c0.7,0,1.4-0.3,1.8-0.9c1.9-2.6,5.1-6.7,9.8-11.2c4.4-4.2,12.9-15.2,22.2-28.5c0,0,0.1,0,0.1,0
		c6.1,1.9,2.8-3.1,10.6-1.7c7.7,1.4,5-2,13.3-8.2c8.3-6.2,28.7-23,24.9-16.3c-3.7,6.7-15.4,17-21.7,20.5c-6.3,3.5-3.9,9.5-0.4,4.4
		c3.5-5.1,20.3-19.8,26.6-22.5c6.4-2.7,10.7-13.3,14.5-10.2c3.7,3.1,1.7,8.1-4.9,8.1c-6.6,0-2.1,7.8,2.5,5.9c4.6-2,3.4-8.2,6.7-4.3
		c3.3,3.9,4.1,3.4,9.2,1.3c5.1-2.2,6.7-20.1,11.9-20.4c5.1-0.3,6.2,21.9,13,8.8c6.1-11.9,14.6,8.8,12.1-7.3
		c-0.8-5.4,13.9,0.3,12.5-4.1c-1.4-4.4-1.4-5.7,6.3-6.6c7.7-0.9,12.5,9.3,15.8,22.6c3.3,13.3,13,3.6,6.4-0.9
		c-6.6-4.5-9.5-17.5-9.3-23.5c0.1-6,16.1,5.3,22.5,14.3c6.4,8.9,4.6,6.8,24.9,17.6c20.2,10.8,28.2,21.6,31.1,18.5
		c2.9-3.2-24.5-17.1-39.4-28.3h0c-14.8-11.2-33.7-24.5-33.1-26.2c0.6-1.8,11,2,20.8,7s15.8,11,10.3,4.9
		c-5.5-6.1-25.8-12.8-29.6-15.3s-1.4-4.7,10.2-2.5c11.6,2.2,27.5,13.2,21.8,5.5c-5.7-7.7-24-7.7-29.3-11.4c-5.3-3.7-5.3-8.4-5.3-8.4
		h0c1.6-3.1,2.6-8,6.7-6.9c4,1.1,4.1,0.2,7.5-0.9s11.9-0.7,16-0.3c4.1,0.5,9.3,0.1,4.3-1.2c-5-1.2-23.1,0.4-26.8-1.5
		c-3.8-2-5.4-8.7-4.8-12.8c0.5-4.1-4.1-3-5.3-5.9c-1.3-2.8-3.7-4.4-1.2-6s4.5,2.3,4.1,0c-0.2-1.3-1.2-1.7-1.9-2.2
		c0.7-0.4,1.4-0.8,2.2-1.2c1-0.5,2-1,2.9-1.3c0.9,0.4,1.8,0.9,2.7,1.5c3.5,2.5,4.5-2.1,1.5-2.7c-0.4-0.1-0.8-0.2-1.1-0.4
		c0.6-0.4,0.4-0.7-1.2-0.9c-1.3-1.4-1.4-3.6,1-5.4c3.5-2.5,13.7,0.9,22.8,5.9s17,3.3,10.2,0.9c-2.2-0.8-5.7-1.9-9.5-3
		c1.5-0.6,2.7-2.7,2-4.9c0,0-2.2-5.1-4.9-3c-2.5,2-2.1,4.8-0.1,6.9c-7.1-2.2-14.6-4.8-17.2-6.7c-4.4-3.3-4.7-11.6,1.9-13.7
		c6.6-2.1,11.8-5.7,6.4-8.8c-5.4-3.1-4.6,3.8-10.1,7.2c-5.5,3.4-6.5,2.9-5-3.1c1.5-6-10.8-7.9-15-3.8c-0.8,0.8-1.5,1-2.3,0.9
		c0.7-3.1-0.3-5.5-0.6-7.6c-0.2-1.9-0.5-4.7-1.3-7.5c0-0.1,0.1-0.1,0.1-0.2c4.2-8.5,27.2-11.1,22.5-12.8c-1.9-0.7-1.7-2.7-0.7-5.1
		l-73.5,0c0,0,0,0,0,0l-8.2,0c0,0,0,0,0,0h-2.6c0,0,0,0,0,0l-9.7,0c0,0,0,0,0,0l-28.7,0c0,0,0,0,0,0l-71.2,0c0,0,0,0,0,0h-4.2L119,0
		L64.5,0C61.8,3.1,58,5.8,54.3,6.3C46,7.5,35.9,5.1,27,0L13.4,0c2,1.9,3.3,4.1,6.5,3.8C24.2,3.3,35.2,5.3,42.5,8
		c7.3,2.7-1,7.5-9.9,8.1c-8.9,0.6-8.1-2.7-17.9-6.9C5,5.1,0.5,3.6,3.7,6.7C8.5,11.4,35.6,21.1,40.8,22.8z M177.4,171.4
		c-6.2,7.1-3.9,13.5-7.3,10c-1.6-1.7-3.4-2.3-5.2-2.2c3-4.3,6-8.8,8.9-13.3c1.6-0.7,3.6-1.6,6.6-3.1c8.4-4.3,14.7-13.4,17.1-11.1
		C199.8,153.9,183.5,164.3,177.4,171.4z"/>
	<path class="st0" d="M91.6,126.1c1.5,7.6,9.5,2.9,9.2-0.3c-0.3-3.2,0-4.3,1.1-5c1.1-0.7-1.1-1.3-3.2-0.3l0,0
		C98.7,120.5,90.1,118.5,91.6,126.1z"/>
	<path class="st0" d="M347.9,15.4c2,1.5,3.5-2.3,3.5-2.3v0c0.7-2.4-1.7-4.7-3.4-3.1C346.2,11.6,345.8,13.9,347.9,15.4z"/>
	<path class="st0" d="M392.1,96.9L392.1,96.9c0,0,5.4,6.7,8.8,0s-5.5-7.9-7.2-5.3c-1.7,2.6-2.6,3.2-3.9,3.1
		C388.5,94.6,389.9,96.3,392.1,96.9z"/>
	<path class="st0" d="M366.1,125.6c0,0,0.6,3.1,8.5,3.4c7.9,0.3,12.3,5.3,28.3,6.4c0,0-1.6-4.2-12.6-4.9c-11-0.6-16.2-6.5-20.1-6.3
		C366.2,124.4,365.7,123.6,366.1,125.6L366.1,125.6z"/>
	<path class="st0" d="M405.6,136.7L405.6,136.7c0,0,2.6-0.3,6.2,1.8c3.5,2.1,7.8,0.7,5.1-2.2c-2.7-2.9-8.5,0.9-10.5-1.3
		C404.2,132.8,403.6,135.6,405.6,136.7z"/>
</g>
</svg>
