<svg width="399" height="290" viewBox="0 0 399 290" fill="none" xmlns="http://www.w3.org/2000/svg">
<g clip-path="url(#clip0_211_1389)">
<path fill-rule="evenodd" clip-rule="evenodd" d="M265.007 442.391C277.731 443.589 285.415 458.439 298.874 475.115C312.333 491.79 341.759 492.117 326.447 509.119C311.162 526.149 317.51 536.993 318.709 546.312C319.908 555.631 321.597 573.232 330.997 582.905C337.536 589.608 355.981 604.24 354.837 615.929H962.28C969.637 607.618 980.099 600.125 990.044 598.681C1012.55 595.439 1040.23 601.951 1064.51 615.929H1101.45C1096.11 610.697 1092.32 604.73 1083.8 605.684C1072.08 606.992 1042.19 601.406 1022.33 594.022C1002.47 586.638 1025.03 573.505 1049.19 571.924C1073.39 570.344 1071.26 579.39 1097.86 590.752C1124.47 602.115 1136.65 606.202 1127.96 597.755C1114.72 584.894 1040.91 558.355 1026.8 553.914C1012.69 549.445 1009.47 532.28 976.911 528.628C944.353 524.977 980.535 502.607 977.702 487.567C974.895 472.526 946.342 465.387 940.184 459.72C934.027 454.08 948.739 441.873 941.383 438.957C934.054 436.042 941.056 428.14 950.565 410.756C960.046 393.345 1035.11 374.19 1061.81 351.793C1088.51 329.423 1084.59 328.578 1099.3 323.429C1114.01 318.279 1104.18 300.977 1119.05 301.249C1133.9 301.549 1145.92 265.501 1131.59 268.307C1117.25 271.114 1102.6 316.508 1083.44 316.317C1064.29 316.099 1074.75 338.742 1044.64 331.221C1014.57 323.674 943.862 327.379 938.195 327.107C932.528 326.835 945.034 311.876 963.752 305.609C982.47 299.369 965.931 289.996 1007.73 278.988C1049.52 267.98 1068.35 246.019 1053.17 254.329C1038 262.64 1036.47 267.299 1005.96 274.465C975.44 281.658 946.996 295.773 940.266 302.285C933.509 308.824 945.824 306.481 943.944 313.456C942.064 320.404 913.32 332.883 897.272 340.758C881.224 348.632 869.372 336.453 881.878 322.393C894.384 308.334 940.457 290.568 949.911 281.413C959.365 272.258 950.892 269.588 938.631 280.814C926.398 292.04 883.867 315.963 875.067 320.023C866.266 324.083 858.774 324.246 850.818 317.189C842.862 310.132 853.406 298.307 835.697 285.555C818.014 272.776 817.17 260.079 835.724 250.269C854.278 240.488 868.582 215.992 861.934 210.543C855.286 205.066 886.891 194.14 868.964 196.347C851.036 198.581 855.722 188.282 866.566 169.972C877.41 151.689 903.43 148.991 902.449 143.814C901.468 138.61 903.511 127.629 914.655 113.57C925.771 99.4826 913.865 101.226 904.928 105.341C896.019 109.482 898.689 123.678 898.689 123.678C891.387 125.449 890.978 131.553 890.978 131.553C878.255 134.468 872.615 145.231 866.13 156.866C859.646 168.473 836.705 189.753 836.705 189.753C811.448 192.696 796.054 221.905 752.516 223.322C711.865 224.657 702.52 198.036 702.52 198.036C702.52 198.036 657.155 239.915 659.39 197.301C661.596 154.686 746.63 79.919 760.58 53.2984C772.078 31.337 789.978 13.4627 795.891 7.87702C797.062 6.81437 797.335 5.12504 796.545 3.76267C795.591 2.07333 793.847 1.01069 791.913 0.928945C790.006 0.847203 788.18 1.77361 787.09 3.35396C781.995 10.3565 773.086 21.6369 760.39 33.9255C739.329 54.3338 682.739 132.806 641.707 200.298C624.978 227.79 558.362 233.867 536.893 220.27C515.423 206.674 468.179 229.807 450.633 237.681C433.059 245.528 413.442 254.057 403.334 272.612C393.199 291.168 376.824 290.868 376.824 290.868C392.3 309.532 346.5 320.677 339.307 331.603C332.114 342.529 324.349 364.899 313.287 366.888C302.225 368.877 274.489 354.245 275.306 358.687C276.124 363.128 297.621 364.599 312.66 372.283C327.7 379.994 300.999 405.879 300.999 405.879C304.432 412.609 290.782 424.707 276.097 431.928C261.438 439.148 252.148 441.219 264.871 442.418L265.007 442.391Z" fill="#FCEC00"/>
<path fill-rule="evenodd" clip-rule="evenodd" d="M184.878 199.807C225.229 230.461 276.778 266.454 275.198 271.223C273.618 275.991 245.146 265.882 218.391 252.095C191.635 238.308 175.288 222.096 190.246 238.689C205.204 255.283 260.485 273.648 270.839 280.269C281.192 286.89 274.544 293.021 242.993 286.944C211.443 280.841 168.068 250.923 183.707 271.958C199.319 292.993 249.151 293.021 263.482 303.075C277.814 313.102 277.814 325.99 277.814 325.99H277.841C273.536 334.437 270.648 347.869 259.641 344.763C248.661 341.657 248.497 344.218 239.179 347.27C229.861 350.322 206.811 349.286 195.613 348.06C184.388 346.807 170.329 347.897 184.006 351.221C197.684 354.545 246.835 350.049 257.107 355.417C267.378 360.757 271.738 379.04 270.266 390.294C268.795 401.519 281.41 398.55 284.816 406.288C288.249 414.053 294.869 418.168 288.085 422.582C281.301 426.996 275.743 416.179 276.887 422.636C278.004 429.094 285.96 427.65 283.181 433.78C280.429 439.911 270.512 438.14 260.921 431.41C251.331 424.68 248.524 436.996 256.78 438.685C265.008 440.374 269.831 449.911 260.322 456.832C250.84 463.78 223.104 454.434 198.338 440.647C173.571 426.86 152.129 431.71 170.656 438.303C189.183 444.897 239.697 458.439 251.712 467.513C263.727 476.586 264.572 499.147 246.563 504.896C228.58 510.672 214.304 520.536 229.044 528.928C243.811 537.32 241.604 518.601 256.507 509.228C271.384 499.855 274.326 501.327 270.13 517.675C265.962 534.023 299.501 539.309 310.944 528.029C322.388 516.776 333.558 543.996 322.115 567.183C310.699 590.371 247.898 597.373 260.676 602.087C265.798 603.967 265.253 609.471 262.638 615.983H462.894C463.466 604.349 474.392 597.591 480.931 606.638C483.246 609.825 484.527 612.959 485.372 615.983H492.51C484.963 611.161 492.537 604.73 503.844 597.864C517.494 589.581 522.644 566.584 505.506 559.2C488.341 551.816 504.58 527.92 512.59 533.342C520.6 538.792 516.868 533.124 520.791 524.323C524.687 515.522 548.691 519.092 558.39 531.68C568.117 544.268 586.235 542.307 606.234 559.064C626.232 575.821 640.509 543.287 615.715 548.573C590.949 553.859 565.365 519.228 577.598 494.869C588.606 472.962 604.926 454.516 632.39 464.543C637.185 466.286 675.138 236.945 668.436 230.079C661.733 223.186 610.92 258.144 607.841 247.299C604.735 236.428 650.998 199.017 666.501 187.192C682.004 175.394 667.7 177.219 675.656 168.446C683.612 159.672 693.202 151.035 683.094 156.375C672.986 161.743 669.471 160.816 646.612 172.587C623.753 184.331 606.588 209.017 600.076 202.75C593.564 196.483 637.948 168.2 654.731 148.909C671.514 129.618 665.439 112.207 674.566 121.744C690.205 138.174 716.415 116.485 699.714 111.417C683.012 106.349 692.03 119.891 670.97 116.131C649.881 112.371 657.428 121.662 634.76 138.419C612.119 155.176 556.674 201.061 566.836 182.778C577.026 164.522 608.795 136.512 625.932 127.03C643.043 117.548 636.585 101.199 627.131 115.123C617.704 129.073 571.822 169.072 554.521 176.429C537.22 183.786 525.259 212.668 515.097 204.167C504.934 195.666 510.465 182.042 528.42 181.96C546.375 181.906 534.196 160.598 521.636 165.966C509.103 171.334 512.372 188.391 503.381 177.655C494.363 166.92 492.265 168.337 478.397 174.195C464.556 180.08 460.06 228.962 446.11 229.698C432.161 230.406 429.164 169.972 410.8 205.802C394.153 238.281 370.939 181.797 377.778 225.801C380.04 240.433 339.852 225.038 343.694 236.973C347.535 248.88 347.535 252.585 326.638 254.956C305.768 257.327 292.581 229.589 283.59 193.459C274.626 157.329 248.197 183.65 266.152 195.802C284.107 207.954 291.981 243.403 291.627 259.779C291.246 276.154 247.734 245.229 230.188 220.842C212.642 196.456 217.546 202.45 162.455 172.996C107.391 143.542 85.5403 114.087 77.7753 122.67C69.983 131.253 144.636 169.154 185.015 199.807H184.878Z" fill="#FCEC00"/>
<path fill-rule="evenodd" clip-rule="evenodd" d="M140.577 273.648C140.577 273.648 138.969 265.201 117.554 264.411C96.1391 263.648 84.0965 249.888 40.3398 247.054C40.3398 247.054 44.7809 258.525 74.6422 260.297C104.531 262.04 118.726 278.035 129.433 277.435C140.168 276.863 141.667 279.179 140.55 273.62L140.577 273.648Z" fill="#FCEC00"/>
<path fill-rule="evenodd" clip-rule="evenodd" d="M33.0099 243.512C33.0099 243.512 25.817 244.248 16.2265 238.635C6.60874 232.995 -5.02519 236.7 2.44014 244.629C9.90547 252.558 25.4628 242.068 31.1572 248.09C36.8515 254.084 38.3228 246.482 33.0371 243.512" fill="#FCEC00"/>
</g>
<defs>
<clipPath id="clip0_211_1389">
<rect width="1138" height="615" fill="white" transform="translate(0.0703125 0.956055)"/>
</clipPath>
</defs>
</svg>
