<svg width="304" height="351" viewBox="0 0 304 351" fill="none" xmlns="http://www.w3.org/2000/svg">
<path fill-rule="evenodd" clip-rule="evenodd" d="M303.274 189.604C311.821 191.477 321 182.749 334.424 173.977C347.847 165.205 366.918 171.243 361.878 156.116C356.864 140.975 364.042 134.758 367.466 128.51C370.889 122.262 376.985 110.336 385.798 105.587C391.922 102.302 407.98 96.0179 410.567 87.616L802.342 216.98C804.723 224.347 809.339 231.805 815.342 234.931C828.935 241.987 848.641 243.337 868.273 238.751L892.101 246.619C887.169 249.133 883.029 252.491 877.8 250.009C870.616 246.602 849.751 244.135 834.84 245.058C819.93 245.982 830.745 259.953 845.882 266.202C861.037 272.458 862.239 265.692 882.621 263.425C903.021 261.164 912.038 260.905 904.03 264.949C891.832 271.105 836.681 273.909 826.315 274.003C815.942 274.116 808.986 285.412 786.949 281.026C764.911 276.641 781.885 299.959 775.78 309.853C769.692 319.752 749.246 318.654 743.662 321.298C738.087 323.923 744.104 335.576 738.53 336.044C732.974 336.518 735.243 343.524 736.432 357.682C737.595 371.853 780.559 401.207 791.409 422.526C802.268 443.825 799.497 443.579 807.522 450.306C815.546 457.034 804.282 467.015 813.954 469.993C823.616 472.946 821.112 500.664 812.668 495.653C804.223 490.642 807.68 455.839 795.272 451.893C782.857 447.966 796.044 434.391 774.488 433.228C752.942 432.09 708.395 414.446 704.663 413.429C700.93 412.413 704.741 425.516 715.031 433.876C725.329 442.217 711.997 445.237 735.822 461.821C759.647 478.404 765.543 497.741 758.119 488.709C750.695 479.677 751.036 476.101 733.393 464.6C715.758 453.081 701.427 437.173 698.938 431.195C696.44 425.192 703.717 429.45 704.488 424.181C705.252 418.931 690.262 404.1 682.152 395.187C674.041 386.273 662.933 392.25 667 404.726C671.067 417.202 695.729 439.413 699.223 447.816C702.717 456.219 696.492 456.278 691.777 445.832C687.08 435.392 666.454 409.637 661.933 404.93C657.412 400.222 652.626 398.512 645.487 401.743C638.349 404.974 641.786 415.473 626.738 420.601C611.699 425.755 607.543 434.436 616.72 445.234C625.904 456.012 628.163 476.155 622.325 478.542C616.48 480.949 633.756 495.306 622.822 489.947C611.894 484.57 611.988 492.756 613.774 507.845C615.567 522.914 631.582 530.338 629.477 533.743C627.364 537.166 625.559 545.265 628.747 557.451C631.91 569.65 624.727 565.897 620.134 561.122C615.565 556.335 621.325 546.995 621.325 546.995C617.119 544.204 618.592 539.857 618.592 539.857C611.214 535.113 610.638 526.4 609.765 516.899C608.884 507.417 600.141 487.679 600.141 487.679C584.688 480.247 583.067 456.582 555.389 446.321C529.551 436.732 515.953 453.321 515.953 453.321C515.953 453.321 498.606 414.431 487.926 444.65C477.23 474.862 510.808 545.153 512.234 566.704C513.403 584.48 519.865 600.767 522.089 605.924C522.542 606.916 522.238 608.153 521.341 608.935C520.245 609.911 518.818 610.281 517.547 609.927C516.294 609.577 515.38 608.542 515.127 607.207C513.832 601.235 511.295 591.464 506.601 580.184C498.822 561.455 484.643 494.635 477.374 438.792C474.404 416.041 433.168 397.614 415.454 402.531C397.74 407.448 373.849 381.241 364.772 372.009C355.67 362.789 345.443 352.659 344.201 337.556C342.942 322.447 332.296 319.169 332.296 319.169C347.585 309.438 321.216 291.907 319.684 282.749C318.153 273.591 319.507 256.325 312.938 252.581C306.37 248.837 284.319 253.142 286.11 250.217C287.9 247.291 302.183 250.842 314.068 248.682C325.962 246.503 316.103 222.751 316.103 222.751C320.231 218.785 314.868 207.435 307.45 199.268C300.05 191.106 294.647 187.683 303.194 189.556L303.274 189.604Z" fill="black"/>
<path fill-rule="evenodd" clip-rule="evenodd" d="M178.71 337.952C213.394 325.411 256.817 311.582 257.129 307.938C257.442 304.295 236.193 305.163 215.025 308.95C193.858 312.736 178.744 320.446 193.065 312.173C207.387 303.9 248.29 303.088 256.841 300.732C265.392 298.376 262.807 292.697 240.696 290.108C218.577 287.539 182.142 298.919 198.147 287.717C214.135 276.508 246.38 287.226 258.465 283.348C270.543 279.49 274.151 270.561 274.151 270.561L274.168 270.567C273.747 263.788 275.639 253.86 267.649 253.641C259.676 253.427 260.287 251.617 255.113 247.496C249.939 243.374 234.738 239.125 227.151 237.562C219.538 236.012 210.748 232.228 220.527 232.872C230.305 233.516 260.844 247.22 268.991 245.714C277.131 244.228 285.069 232.501 287.267 224.389C289.457 216.295 296.787 221.07 301.156 216.443C305.55 211.803 310.985 210.379 307.831 205.86C304.678 201.34 298.055 207.636 300.602 203.409C303.133 199.176 307.875 201.891 307.793 197.045C307.729 192.205 300.817 191.295 292.729 193.891C284.641 196.488 286.273 187.351 292.087 187.959C297.882 188.562 303.671 182.994 299.457 176.151C295.268 169.295 274.709 169.794 254.828 174.009C234.947 178.224 222.433 170.244 236.264 169.668C250.095 169.092 286.564 170.594 296.877 166.897C307.19 163.2 314.051 147.753 304.009 139.89C293.993 132.014 287.518 122.105 299.402 119.467C311.305 116.835 304.637 129.327 311.655 139.031C318.656 148.73 320.971 148.344 322.832 136.115C324.712 123.891 347.889 127.455 352.134 137.735C356.387 147.997 371.233 131.546 370.32 113.018C369.425 94.4948 330.757 76.1131 340.343 75.6006C344.183 75.4018 345.371 71.4715 345.502 66.3966L475.052 109.542C472.166 117.725 477.343 124.76 484.105 119.903C486.495 118.193 488.201 116.298 489.594 114.385L494.212 115.923C487.98 117.638 491.08 123.725 496.473 130.917C502.985 139.597 499.879 156.637 486.726 158.06C473.555 159.477 477.371 179.53 484.071 177.5C490.778 175.45 486.777 178.572 486.852 185.514C486.909 192.451 503.437 195.15 513.235 188.519C523.051 181.894 534.223 187.156 551.851 179.856C569.479 172.557 569.609 198.17 555.048 189.166C540.506 180.169 514.262 198.648 515.358 218.158C516.347 235.706 521.742 252.001 542.315 250.972C545.906 250.797 506.266 417.852 500.009 421.164C493.743 424.496 470.655 389.33 465.628 396.18C460.576 403.042 480.034 438.926 486.753 450.458C493.48 461.971 484.737 457.625 487.428 465.417C490.119 473.209 493.906 481.259 488.862 475.382C483.825 469.485 481.292 469.37 469.798 456.29C458.297 443.23 454.102 422.43 448.136 425.369C442.169 428.307 462.965 457.463 468.423 474.443C473.881 491.423 465.077 502.175 473.651 497.535C488.367 489.523 499.253 510.195 487.03 510.107C474.806 510.02 484.431 502.582 469.754 500.649C455.059 498.71 462.542 493.9 452.567 477.407C442.61 460.92 419.585 417.188 421.042 432.043C422.524 446.885 435.236 473.134 443.669 483.395C452.084 493.65 443.33 503.585 441.111 491.902C438.918 480.207 420.431 442.612 411.298 433.788C402.165 424.964 402.511 402.378 393.557 406.078C384.603 409.778 384.368 420.407 395.96 424.332C407.561 428.239 393.718 440.375 387.095 433.951C380.489 427.532 387.379 416.42 378.557 421.92C369.718 427.414 368.757 425.981 361.426 418.934C354.119 411.875 364.893 377.043 356.074 373.528C347.248 370.032 328.393 411.253 326.542 382.475C324.864 356.388 294.037 390.516 310.778 361.505C316.336 351.856 286.029 353.863 291.854 346.423C297.672 339.002 298.71 336.434 285.854 330.29C273.016 324.151 256.721 340.526 240.792 363.618C224.88 386.716 215.15 362.788 230.167 358.238C245.184 353.687 260.2 330.826 264.555 319.406C268.891 307.979 232.087 320.029 213.91 333.142C195.733 346.256 200.583 343.16 156.699 351.695C112.833 360.236 90.4529 375.933 87.8319 368.314C85.1932 360.689 144.097 350.517 178.798 337.982L178.71 337.952Z" fill="black"/>
<path fill-rule="evenodd" clip-rule="evenodd" d="M278.239 74.1068C278.239 74.1068 277.931 82.2123 282.616 80.5118C287.319 78.8172 288.33 74.2932 286.591 70.3236C284.834 66.3481 278.925 69.1548 278.239 74.1068Z" fill="black"/>
<path fill-rule="evenodd" clip-rule="evenodd" d="M252.828 158.567C252.828 158.567 260.646 150.192 263.632 155.856C266.635 161.526 263.148 166.91 257.403 169.409C251.651 171.927 248.55 164.135 252.828 158.567Z" fill="black"/>
<path fill-rule="evenodd" clip-rule="evenodd" d="M143.896 204.825C143.896 204.825 129.32 214.261 128.474 199.667C127.629 185.073 144.149 188.005 145.163 193.913C146.177 199.821 147.256 201.509 149.564 202.085C151.864 202.679 148.273 205.082 143.888 204.843L143.896 204.825Z" fill="black"/>
<path fill-rule="evenodd" clip-rule="evenodd" d="M169.411 273.647C169.411 273.647 165.981 279.221 151.797 275.103C137.622 270.966 125.89 277.991 96.5663 270.433C96.5663 270.433 102.697 263.355 122.663 268.627C142.639 273.925 156.404 265.802 163.215 268.559C170.051 271.302 171.681 270.004 169.385 273.66L169.411 273.647Z" fill="black"/>
<path fill-rule="evenodd" clip-rule="evenodd" d="M90.7363 270.514C90.7363 270.514 86.2623 268.436 78.4401 270.275C70.5926 272.126 64.0645 267.007 71.1557 263.089C78.2469 259.17 85.418 269.883 90.8195 266.912C96.2134 263.96 95.0303 269.593 90.7541 270.52" fill="black"/>
</svg>
