<svg width="411" height="318" viewBox="0 0 411 318" fill="none" xmlns="http://www.w3.org/2000/svg">
<g clip-path="url(#clip0_73_314)">
<path fill-rule="evenodd" clip-rule="evenodd" d="M271.798 451.875C284.462 453.592 291.533 468.743 304.301 485.953C317.069 503.164 346.456 504.691 330.463 521.054C314.497 537.446 320.397 548.541 321.215 557.9C322.032 567.26 323.002 584.916 332 594.965C338.26 601.929 356.093 617.301 354.473 628.933L961.411 653.714C969.1 645.71 979.859 638.65 989.855 637.613C1012.47 635.291 1039.87 642.927 1063.55 657.884L1100.47 659.391C1095.34 653.946 1091.8 647.829 1083.24 648.434C1071.48 649.263 1041.85 642.463 1022.3 634.275C1002.76 626.087 1025.84 613.885 1050.05 613.291C1074.29 612.699 1071.79 621.651 1097.9 634.089C1124.03 646.527 1136.04 651.108 1127.7 642.314C1114.99 628.923 1042.33 599.396 1028.4 594.382C1014.49 589.342 1011.97 572.059 979.591 567.083C947.208 562.106 984.273 541.231 982.055 526.087C979.865 510.945 951.626 502.647 945.705 496.733C939.783 490.846 954.981 479.25 947.75 476.037C940.546 472.825 947.865 465.215 958.075 448.234C968.258 431.224 1044.04 415.147 1071.63 393.858C1099.22 372.596 1095.34 371.592 1110.25 367.046C1125.16 362.501 1116.04 344.812 1130.89 345.691C1145.71 346.597 1159.19 311.069 1144.76 313.288C1130.32 315.508 1113.82 360.266 1094.69 359.294C1075.57 358.295 1085.1 381.345 1055.32 372.603C1025.57 363.835 954.779 364.653 949.128 364.15C943.476 363.646 956.582 349.21 975.54 343.712C994.497 338.241 978.355 328.201 1020.56 318.907C1062.77 309.614 1082.48 288.439 1066.98 296.123C1051.48 303.807 1049.76 308.401 1018.98 314.316C988.196 320.258 959.199 333.2 952.209 339.432C945.191 345.691 957.592 343.852 955.429 350.745C953.267 357.61 924.037 368.906 907.682 376.12C891.326 383.333 879.981 370.68 893.05 357.142C906.119 343.605 952.878 327.734 962.698 318.972C972.518 310.21 964.16 307.196 951.452 317.913C938.771 328.63 895.3 350.798 886.341 354.496C877.382 358.193 869.889 358.051 862.228 350.675C854.567 343.3 865.585 331.914 848.41 318.451C831.263 304.961 830.937 292.24 849.876 283.196C868.814 274.179 884.106 250.288 877.686 244.571C871.267 238.828 903.291 229.2 885.288 230.674C867.284 232.175 872.387 222.076 883.969 204.223C895.549 186.397 921.657 184.764 920.889 179.551C920.121 174.311 922.61 163.423 934.318 149.83C946 136.208 934.032 137.465 924.935 141.211C915.864 144.986 917.953 159.279 917.953 159.279C910.585 160.75 909.928 166.832 909.928 166.832C897.096 169.226 891.021 179.75 884.068 191.11C877.115 202.443 853.325 222.77 853.325 222.77C827.969 224.68 811.397 253.237 767.837 252.876C727.165 252.552 718.914 225.572 718.914 225.572C718.914 225.572 671.879 265.566 675.85 223.078C679.793 180.588 767.806 109.353 782.831 83.3232C795.215 61.8492 813.829 44.72 819.965 39.3802C821.178 38.3662 821.52 36.6894 820.786 35.2959C819.902 33.5691 818.203 32.4362 816.273 32.2756C814.371 32.1161 812.509 32.9673 811.356 34.5019C805.98 41.2908 796.617 52.1983 783.43 63.9587C761.554 83.4908 701.811 159.589 658.06 225.351C640.223 252.138 573.415 255.492 552.518 241.031C531.621 226.57 483.472 247.756 465.619 254.908C447.74 262.032 427.792 269.753 416.935 287.881C406.051 306.007 389.702 305.04 389.702 305.04C404.404 324.32 358.187 333.587 350.554 344.21C342.922 354.834 334.251 376.869 323.117 378.405C311.983 379.941 284.867 364.19 285.502 368.661C286.138 373.132 307.557 375.479 322.271 383.77C336.983 392.088 309.249 416.862 309.249 416.862C312.404 423.727 298.272 435.258 283.304 441.873C268.364 448.49 258.996 450.18 271.66 451.897L271.798 451.875Z" fill="#FCEC00"/>
<path fill-rule="evenodd" clip-rule="evenodd" d="M201.631 206.225C240.697 238.499 290.735 276.565 288.962 281.265C287.188 285.965 259.152 274.703 232.982 259.836C206.811 244.969 191.139 228.103 205.407 245.293C219.676 262.483 274.162 283.088 284.237 290.126C294.312 297.164 287.419 303.018 256.143 295.66C224.867 288.275 182.749 256.613 197.517 278.268C212.257 299.922 262.047 301.982 275.956 312.613C289.867 323.216 289.341 336.094 289.341 336.094L289.368 336.095C284.722 344.359 281.289 357.663 270.417 354.11C259.573 350.558 259.305 353.111 249.87 355.78C240.436 358.449 217.447 356.474 206.309 354.792C195.144 353.082 181.052 353.597 194.583 357.477C208.113 361.356 257.407 358.869 267.451 364.651C277.496 370.407 281.106 388.852 279.177 400.036C277.249 411.192 289.974 408.74 293.061 416.61C296.175 424.509 302.622 428.89 295.664 433.024C288.705 437.158 283.593 426.123 284.473 432.622C285.325 439.119 293.333 438.001 290.307 444.013C287.307 450.027 277.47 447.852 268.162 440.737C258.854 433.621 255.548 445.812 263.727 447.837C271.88 449.86 276.309 459.586 266.526 466.113C256.769 472.668 229.437 462.199 205.254 447.413C181.071 432.627 159.448 436.598 177.691 443.942C195.933 451.286 245.853 466.878 257.488 476.434C269.123 485.99 269.047 508.566 250.818 513.576C232.615 518.614 217.948 527.887 232.333 536.873C246.745 545.861 245.304 527.068 260.577 518.31C275.823 509.552 278.704 511.142 273.844 527.306C269.012 543.47 302.308 550.12 314.202 539.316C326.095 528.539 336.146 556.192 323.766 578.894C311.414 601.596 248.379 606.031 260.954 611.262C265.996 613.349 265.227 618.827 262.348 625.227L462.437 633.396C463.483 621.794 474.675 615.488 480.84 624.794C483.024 628.073 484.175 631.257 484.896 634.313L492.028 634.604C484.684 629.477 492.515 623.361 504.092 616.962C518.069 609.243 524.152 586.475 507.33 578.398C490.481 570.32 507.681 547.106 515.463 552.851C523.244 558.623 519.746 552.808 524.025 544.174C528.277 535.539 552.115 540.085 561.293 553.059C570.498 566.033 588.681 564.812 607.979 582.371C627.278 599.93 642.87 568.006 617.881 572.276C592.92 576.548 568.77 540.901 581.987 517.062C593.879 495.622 610.938 477.857 637.97 488.996C642.69 490.934 689.967 263.332 683.55 256.198C677.135 249.037 624.938 281.893 622.304 270.932C619.644 259.943 667.395 224.45 683.367 213.267C699.338 202.111 684.972 203.352 693.279 194.91C701.586 186.468 711.521 178.229 701.203 183.153C690.884 188.104 687.41 187.035 664.09 197.864C640.771 208.665 622.613 232.63 616.363 226.103C610.112 219.576 655.612 193.127 673.169 174.537C690.725 155.946 685.364 138.302 694.095 148.203C709.051 165.257 736.124 144.656 719.643 138.91C703.162 133.165 711.621 147.064 690.731 142.448C669.813 137.83 676.975 147.422 653.642 163.24C630.336 179.06 573.065 222.644 583.965 204.791C594.891 186.966 627.776 160.275 645.286 151.5C662.769 142.724 656.984 126.126 646.97 139.652C636.982 153.206 589.506 191.301 571.919 197.945C554.333 204.59 541.204 232.961 531.396 224.052C521.589 215.143 527.671 201.756 545.614 202.407C563.556 203.085 552.257 181.299 539.488 186.15C526.746 191.002 529.317 208.178 520.772 197.084C512.199 185.99 510.045 187.32 495.949 192.608C481.88 197.923 475.394 246.581 461.426 246.747C447.459 246.886 446.93 186.379 427.12 221.431C409.161 253.203 388.272 195.82 393.309 240.066C394.972 254.778 355.446 237.757 358.798 249.838C362.15 261.892 361.999 265.595 341.022 267.111C320.073 268.628 308.028 240.375 300.519 203.908C293.036 167.443 265.556 192.664 283 205.538C300.445 218.413 306.866 254.154 305.844 270.501C304.795 286.848 262.581 254.173 246.044 229.091C229.508 204.009 234.163 210.198 180.32 178.521C126.503 146.845 105.872 116.524 97.7635 124.783C89.6275 133.04 162.673 173.955 201.767 206.23L201.631 206.225Z" fill="#FCEC00"/>
<path fill-rule="evenodd" clip-rule="evenodd" d="M154.354 278.197C154.354 278.197 153.092 269.691 131.727 268.028C110.361 266.392 98.8894 252.153 55.2848 247.536C55.2848 247.536 59.2542 259.179 89.0184 262.167C118.811 265.128 132.342 281.688 143.065 281.526C153.814 281.392 155.217 283.768 154.327 278.168L154.354 278.197Z" fill="#FCEC00"/>
<path fill-rule="evenodd" clip-rule="evenodd" d="M48.1063 243.698C48.1063 243.698 40.8894 244.139 31.5358 238.14C22.1562 232.112 10.3808 235.34 17.5164 243.567C24.6521 251.794 40.6244 241.947 46.0683 248.196C51.5134 254.418 53.2936 246.882 48.1335 243.699" fill="#FCEC00"/>
</g>
<defs>
<clipPath id="clip0_73_314">
<rect width="1138" height="615" fill="white" transform="translate(25.0885) rotate(2.338)"/>
</clipPath>
</defs>
</svg>
