<?xml version="1.0" encoding="UTF-8"?>
<svg id="Layer_2" data-name="Layer 2" xmlns="http://www.w3.org/2000/svg" xmlns:xlink="http://www.w3.org/1999/xlink" viewBox="0 0 417.68 225.71">
  <defs>
    <style>
      .cls-1 {
        fill: #fff;
      }

      .cls-2 {
        mask: url(#mask);
      }

      .cls-3 {
        fill: #fcec00;
        fill-rule: evenodd;
      }
    </style>
    <mask id="mask" x="91.39" y="-.18" width="334.61" height="353.79" maskUnits="userSpaceOnUse">
      <g id="mask0_71_238" data-name="mask0 71 238">
        <path class="cls-1" d="m426-.18H91.39v353.79h334.61V-.18Z"/>
      </g>
    </mask>
  </defs>
  <g id="Layer_1-2" data-name="Layer 1">
    <g>
      <g class="cls-2">
        <path class="cls-3" d="m97.24,162.01c4.67.44,7.49,5.89,12.43,12.01,4.94,6.12,15.74,6.24,10.12,12.48-5.61,6.25-3.28,10.23-2.84,13.65.44,3.42,1.06,9.88,4.51,13.43,2.4,2.46,9.17,7.83,8.75,12.12h222.95c2.7-3.05,6.54-5.8,10.19-6.33,8.26-1.19,18.42,1.2,27.33,6.33h13.56c-1.96-1.92-3.35-4.11-6.48-3.76-4.3.48-15.27-1.57-22.56-4.28-7.29-2.71.99-7.53,9.86-8.11,8.88-.58,8.1,2.74,17.86,6.91,9.77,4.17,14.24,5.67,11.05,2.57-4.86-4.72-31.95-14.46-37.13-16.09-5.18-1.64-6.36-7.94-18.31-9.28-11.95-1.34,1.33-9.55.29-15.07-1.03-5.52-11.51-8.14-13.77-10.22-2.26-2.07,3.14-6.55.44-7.62-2.69-1.07-.12-3.97,3.37-10.35,3.48-6.39,31.03-13.42,40.83-21.64,9.8-8.21,8.36-8.52,13.76-10.41,5.4-1.89,1.79-8.24,7.25-8.14,5.45.11,9.86-13.12,4.6-12.09-5.26,1.03-10.64,17.69-17.67,17.62-7.03-.08-3.19,8.23-14.24,5.47-11.04-2.77-36.99-1.41-39.07-1.51-2.08-.1,2.51-5.59,9.38-7.89,6.87-2.29.8-5.73,16.14-9.77,15.34-4.04,22.25-12.1,16.68-9.05-5.57,3.05-6.13,4.76-17.33,7.39-11.2,2.64-21.64,7.82-24.11,10.21-2.48,2.4,2.04,1.54,1.35,4.1-.69,2.55-11.24,7.13-17.13,10.02-5.89,2.89-10.24-1.58-5.65-6.74,4.59-5.16,21.5-11.68,24.97-15.04,3.47-3.36.36-4.34-4.14-.22-4.49,4.12-20.1,12.9-23.33,14.39-3.23,1.49-5.98,1.55-8.9-1.04-2.92-2.59.95-6.93-5.55-11.61-6.49-4.69-6.8-9.35.01-12.95,6.81-3.59,12.06-12.58,9.62-14.58-2.44-2.01,9.16-6.02,2.58-5.21-6.58.82-4.86-2.96-.88-9.68,3.98-6.71,13.53-7.7,13.17-9.6-.36-1.91.39-5.94,4.48-11.1,4.08-5.17-.29-4.53-3.57-3.02-3.27,1.52-2.29,6.73-2.29,6.73-2.68.65-2.83,2.89-2.83,2.89-4.67,1.07-6.74,5.02-9.12,9.29-2.38,4.26-10.8,12.07-10.8,12.07-9.27,1.08-14.92,11.8-30.9,12.32-14.92.49-18.35-9.28-18.35-9.28,0,0-16.65,15.37-15.83-.27.81-15.64,32.02-43.08,37.14-52.85,4.22-8.06,10.79-14.62,12.96-16.67.43-.39.53-1.01.24-1.51,0,0,0,0,0,0-.35-.62-.99-1.01-1.7-1.04-.7-.03-1.37.31-1.77.89-1.87,2.57-5.14,6.71-9.8,11.22-7.73,7.49-28.5,36.29-43.56,61.06-6.14,10.09-30.59,12.32-38.47,7.33-7.88-4.99-25.22,3.5-31.66,6.39-6.45,2.88-13.65,6.01-17.36,12.82-3.72,6.81-9.73,6.7-9.73,6.7,5.68,6.85-11.13,10.94-13.77,14.95-2.64,4.01-5.49,12.22-9.55,12.95-4.06.73-14.24-4.64-13.94-3.01.3,1.63,8.19,2.17,13.71,4.99,5.52,2.83-4.28,12.33-4.28,12.33,1.26,2.47-3.75,6.91-9.14,9.56-5.38,2.65-8.79,3.41-4.12,3.85Z"/>
      </g>
      <path class="cls-3" d="m231.38,210.86c-2.22-.44-7.32,6.89-12.34,14.85h71.2c.46-1.92,1.5-3.46,3.35-3.82,4.26-.82,7.62,1.49,8.11.36.49-1.13,5.3-1.89,8.68-2.2,3.39-.3,5.26-1.94,3.29-2.34-1.97-.4-4.13,1.12-6.26,1.16-2.13.03-7.3-.96-10.27.27-2.97,1.23-5.1,2.11-9.19,1.46,0,0-2.26-1.06-7.62-2.43-5.37-1.37-14.6-12.19-12.96-18.43,1.63-6.24,19.61-31.75,19.52-37.68-.1-5.94.96-9.92.96-9.92l-.64-.68s-1.12,6.24-3.07,11.95c-1.94,5.7-11.16,27.79-17.34,33.91-6.18,6.12-8.38-6.99-8.38-6.99,0,0-5.51,2.21-11.52-4.06-6.43-6.72-4.32-12.99-7.73-17.19,0,0-.25-6.32.53-8.88.79-2.55,1.58-4.86.08-7.16,0,0,.88-.89.02-2.22,0,0,2.59-1.53,1.86-3.43-.73-1.9-2.29-3.91-2.74-.34-.45,3.58-1.82,5.37-2.77,5.93-.95.56,2.62,4.82,1.48,8.94-1.14,4.11-2,6.21-4.4,3.22-2.4-2.99.75,3.24-1.1,2.99-1.85-.26-3.42,5.21-2.08,9.32,1.34,4.11,5.97,34.35,1.31,33.43Z"/>
      <path class="cls-3" d="m148.94,196.12c-4.17-1.98-9.59-5.7-11.18-7.64-1.59-1.94-3.81-.75-6.13-1.6-2.32-.85-6.99-3.84-10.27-5.82,0,0,5.42,3.98,8.92,6.36,3.49,2.37,1.54,3.4,7.81,5.05,6.27,1.65,11.95,5.09,15.07,9.12,3.12,4.04,1.36,13.33-1.87,10.27-3.23-3.05-5.53-6.28-9.23-8.53-3.7-2.25-2.53-1.12-.79,1.13,1.73,2.24-.17,2.06,5.31,5.23,5.48,3.16,7.75,4.96,7.69,9.71-.04,3.41-.03,4.38.46,6.31h35.67c-10.01-13.35-21.44-29.22-24.51-31.66-5.53-4.38-8.65-2.53-11.49-4.04-2.84-1.51-18.19-8.98-22.18-9.22-2.62-.15-.13,1.12,5.68,3.57,5.8,2.45,6.87.9,10.32,4.74,3.45,3.84,4.89,9.01.72,7.03Z"/>
      <path class="cls-3" d="m318.95,105.17s8.64,2,7.11-5.58c-1.54-7.58-9.5-2.92-9.22.27.28,3.19-.04,4.26-1.13,4.99-1.09.74,1.06,1.27,3.25.31Z"/>
      <path class="cls-3" d="m67.83,72.98c14.81,11.25,33.73,24.46,33.15,26.21-.58,1.75-11.03-1.96-20.85-7.02-9.82-5.06-15.82-11.01-10.33-4.92,5.49,6.09,25.78,12.83,29.58,15.26,3.8,2.43,1.36,4.68-10.22,2.45-11.58-2.24-27.5-13.22-21.76-5.5,5.73,7.72,24.02,7.73,29.28,11.42,5.26,3.68,5.26,8.41,5.26,8.41h.01c-1.58,3.1-2.64,8.03-6.68,6.89-4.03-1.14-4.09-.2-7.51.92-3.42,1.12-11.88.74-15.99.29-4.12-.46-9.28-.06-4.26,1.16,5.02,1.22,23.06-.43,26.83,1.54,3.77,1.96,5.37,8.67,4.83,12.8-.54,4.12,4.09,3.03,5.34,5.87,1.26,2.85,3.69,4.36,1.2,5.98-2.49,1.62-4.53-2.35-4.11.02.41,2.37,3.33,1.84,2.31,4.09-1.01,2.25-4.65,1.6-8.17-.87-3.52-2.47-4.55,2.05-1.52,2.67,3.02.62,4.79,4.12,1.3,6.66-3.48,2.55-13.66-.88-22.75-5.94-9.09-5.06-16.96-3.28-10.16-.86,6.8,2.42,25.34,7.39,29.75,10.72,4.41,3.33,4.72,11.61-1.89,13.72-6.6,2.12-11.84,5.74-6.43,8.82,5.42,3.08,4.61-3.79,10.08-7.23,5.46-3.44,6.54-2.9,5,3.1-1.53,6,10.78,7.94,14.98,3.8,4.2-4.13,8.3,5.86,4.1,14.37-4.19,8.51-27.24,11.08-22.55,12.81,1.88.69,1.68,2.71.72,5.1h73.5c.21-4.27,4.22-6.75,6.62-3.43.85,1.17,1.32,2.32,1.63,3.43h2.62c-2.77-1.77.01-4.13,4.16-6.65,5.01-3.04,6.9-11.48.61-14.19-6.3-2.71-.34-11.48,2.6-9.49,2.94,2,1.57-.08,3.01-3.31,1.43-3.23,10.24-1.92,13.8,2.7,3.57,4.62,10.22,3.9,17.56,10.05,7.34,6.15,12.58-5.79,3.48-3.85-9.09,1.94-18.48-10.77-13.99-19.71,4.04-8.04,10.03-14.81,20.11-11.13,1.76.64,15.69-83.53,13.23-86.05-2.46-2.53-21.11,10.3-22.24,6.32-1.14-3.99,15.84-17.72,21.53-22.06,5.69-4.33.44-3.66,3.36-6.88,2.92-3.22,6.44-6.39,2.73-4.43-3.71,1.97-5,1.63-13.39,5.95-8.39,4.31-14.69,13.37-17.08,11.07-2.39-2.3,13.9-12.68,20.06-19.76,6.16-7.08,3.93-13.47,7.28-9.97,5.74,6.03,15.36-1.93,9.23-3.79-6.13-1.86-2.82,3.11-10.55,1.73-7.74-1.38-4.97,2.03-13.29,8.18-8.31,6.15-28.66,22.99-24.93,16.28,3.74-6.7,15.4-16.98,21.69-20.46,6.28-3.48,3.91-9.48.44-4.37-3.46,5.12-20.3,19.8-26.65,22.5-6.35,2.7-10.74,13.3-14.47,10.18-3.73-3.12-1.7-8.12,4.89-8.15,6.59-.02,2.12-7.84-2.49-5.87-4.6,1.97-3.4,8.23-6.7,4.29-3.31-3.94-4.08-3.42-9.17-1.27-5.08,2.16-6.73,20.1-11.85,20.37-5.12.26-6.22-21.92-12.96-8.77-6.11,11.92-14.63-8.81-12.12,7.34.83,5.37-13.92-.28-12.51,4.1,1.41,4.37,1.41,5.73-6.26,6.6-7.66.87-12.5-9.31-15.8-22.57-3.29-13.26-12.99-3.6-6.4.86,6.59,4.46,9.48,17.47,9.35,23.48-.14,6.01-16.11-5.34-22.55-14.29-6.44-8.95-4.64-6.75-24.86-17.56-20.21-10.81-28.23-21.62-31.08-18.47-2.86,3.15,24.54,17.06,39.36,28.31Z"/>
      <path class="cls-3" d="m66.3,212.59s1.49-3.85,3.5-2.32c2.02,1.53,1.61,3.81-.07,5.4-1.69,1.59-4.09-.65-3.43-3.08Z"/>
      <path class="cls-3" d="m70.15,168.41s2.23,5.15,4.88,2.96c2.66-2.19,2-5.26-.38-7.33-2.38-2.08-5.52,1.09-4.5,4.37Z"/>
      <path class="cls-3" d="m25.56,128.83s-5.38-6.67-8.75.01c-3.37,6.68,5.48,7.88,7.18,5.28,1.7-2.6,2.58-3.22,3.85-3.13,1.27.08-.04-1.6-2.28-2.17Z"/>
      <path class="cls-3" d="m51.57,100.08s-.59-3.1-8.45-3.39c-7.86-.28-12.28-5.33-28.34-6.37,0,0,1.63,4.21,12.59,4.86,10.97.64,16.18,6.51,20.11,6.29,3.94-.21,4.49.64,4.08-1.4Z"/>
      <path class="cls-3" d="m12.09,89.02s-2.64.27-6.16-1.79c-3.53-2.07-7.8-.71-5.06,2.2,2.74,2.91,8.45-.94,10.54,1.27,2.09,2.2,2.63-.59.69-1.68"/>
      <path class="cls-3" d="m278.1,205.18c3.84,7.73,10.12,13.92,14.68,18.81.6.65,1.14,1.19,1.65,1.71h4.26c-7.41-11.67-13.92-21.23-16.89-24.06-8.28-7.92-3.7,3.54-3.7,3.54h0Z"/>
    </g>
  </g>
</svg>