<svg width="291" height="260" viewBox="0 0 291 260" fill="none" xmlns="http://www.w3.org/2000/svg">
<path d="M27.7292 133.52C37.9418 144.985 51.2286 159.917 47.1054 168.586C45.452 172.066 40.8951 173.576 31.796 176.625C17.6652 181.342 13.0724 179.033 8.18966 183.326C1.88249 188.854 0.785145 200.313 3.70964 208.344C9.43223 224.131 32.6847 232.407 48.8289 227.821C59.7101 224.738 62.8689 216.738 72.0455 218.207C79.9202 219.459 85.4097 226.612 87.9244 229.904C94.3136 238.26 91.4833 242.106 96.4013 248.064C103.88 257.091 119.844 260.041 130.63 255.297C134.902 253.414 134.265 252.127 146.938 241.563C155.553 234.391 159.813 230.731 161.983 230.06C175.405 225.949 183.507 241.225 208.758 250.74C221.117 255.402 236.378 261.136 250.735 254.408C266.195 247.173 273.686 228.7 273.379 214.249C273.29 210.225 273.023 197.537 265.24 192.813C259.42 189.293 254.662 193.413 248.092 189.494C242.143 185.934 237.837 177.637 239.811 170.709C241.69 164.082 248.707 161.046 252.81 159.253C264.12 154.341 268.932 159.201 276.322 155.123C287.078 149.187 288.066 132.633 288.42 127.186C288.542 125.356 289.347 109.691 281.052 101.615C278.953 99.5645 276.939 98.6759 276.479 98.485C273.899 97.3718 269.991 96.6488 262.646 98.9201C253.593 101.746 253.047 104.934 247.732 106.373C237.828 109.051 223.28 102.547 220.409 92.4511C217.821 83.3423 225.267 73.1089 226.116 71.9786C229.476 67.4937 232.039 66.9223 233.304 62.871C234.878 57.8286 233.494 50.5381 229.104 47.2758C219.667 40.2858 198.504 53.6864 194.684 56.0885C184.429 62.5361 183.605 66.1575 177.983 66.389C167.815 66.8094 155.938 55.5338 156.233 45.4333C156.503 36.6254 165.843 34.622 165.641 26.1161C165.37 15.8625 151.561 8.80824 148.609 7.29545C146.146 6.03008 129.522 -2.44688 116.224 5.27394C102.405 13.3048 99.8557 34.408 101.752 47.3213C103.393 58.4047 108.137 62.2741 105.859 70.8571C103.761 78.7869 95.9985 85.0429 88.4677 87.6819C87.9364 87.8708 86.5335 88.3552 84.7433 88.7186C68.3464 91.9954 53.1186 78.5151 29.8628 76.9074C22.4225 76.382 14.9633 75.9927 9.25066 80.902C3.15873 86.1187 1.39855 95.3127 2.50337 102.516C4.20766 113.548 12.054 115.95 27.6862 133.506L27.7292 133.52Z" fill="#FCEC00" stroke="#FCEC00" stroke-width="4" stroke-miterlimit="10"/>
</svg>
