<svg width="221" height="416" viewBox="0 0 221 416" fill="none" xmlns="http://www.w3.org/2000/svg">
<path fill-rule="evenodd" clip-rule="evenodd" d="M-7.70763 257.119C-16.6436 256.903 -23.4579 267.705 -34.4574 279.4C-45.4569 291.095 -65.877 288.703 -56.9751 303.237C-48.0949 317.79 -53.582 325.612 -55.3482 332.716C-57.1144 339.82 -60.052 353.29 -67.5358 359.931C-72.7392 364.53 -86.9881 374.195 -87.3689 383.344L-508.234 328.743C-512.496 321.651 -518.993 314.911 -525.738 312.9C-541.005 308.368 -560.838 310.919 -579.06 319.555L-604.658 316.234C-600.433 312.665 -597.21 308.388 -591.397 309.892C-583.411 311.957 -562.142 310.321 -547.639 306.392C-533.136 302.463 -547.448 290.272 -564.033 286.876C-580.638 283.478 -580.074 290.67 -599.638 297.073C-619.222 303.473 -628.07 305.542 -621.201 299.786C-610.735 291.023 -556.932 277.12 -546.708 274.951C-536.481 272.762 -532.53 259.766 -509.606 259.867C-486.681 259.968 -509.504 239.404 -506.03 228.019C-502.576 216.631 -482.076 213.673 -477.241 209.841C-472.408 206.029 -481.376 195.26 -475.987 193.665C-470.616 192.068 -474.674 185.323 -479.517 171.015C-484.338 156.689 -534.421 135.118 -550.672 115.385C-566.926 95.6727 -564.123 95.3717 -573.799 90.0639C-583.476 84.7561 -574.924 72.2503 -585.258 71.124C-595.576 70.0212 -600.282 41.0438 -590.634 44.5039C-580.987 47.964 -575.388 84.4116 -562.099 85.9857C-548.806 87.5387 -558.328 104.121 -536.714 101.007C-515.116 97.8702 -466.502 107.093 -462.548 107.392C-458.594 107.69 -465.757 94.9897 -478.097 88.4573C-490.439 81.946 -478.039 76.1788 -505.891 63.9031C-533.744 51.6273 -544.583 32.9394 -534.903 40.7348C-525.222 48.5303 -524.633 52.2733 -504.21 60.5619C-483.79 68.8717 -465.499 82.3512 -461.491 87.9958C-457.466 93.6639 -465.763 90.7435 -465.161 96.3107C-464.556 101.857 -445.893 114.098 -435.565 121.634C-425.237 129.171 -415.803 120.811 -423.056 108.806C-430.309 96.8012 -460.446 78.9115 -466.078 70.9766C-471.709 63.0418 -465.57 61.7369 -458.202 71.5266C-450.854 81.3139 -423.788 103.651 -418.099 107.584C-412.409 111.517 -407.234 112.317 -401.014 107.57C-394.793 102.824 -400.911 92.7247 -387.361 84.4481C-373.826 76.148 -371.966 66.3976 -383.837 57.1387C-395.71 47.9009 -403.161 27.6584 -398.008 24.0387C-392.852 20.3978 -413.653 9.10128 -401.453 12.4208C-389.256 15.7613 -391.469 7.36939 -397.144 -7.77542C-402.821 -22.8992 -420.578 -27.3255 -419.379 -31.2438C-418.177 -35.1832 -418.49 -43.8647 -424.799 -55.7469C-431.086 -67.6478 -423.012 -65.2281 -417.234 -61.2408C-411.477 -57.2348 -414.752 -46.4887 -414.752 -46.4887C-409.871 -44.4618 -410.2 -39.7017 -410.2 -39.7017C-401.677 -36.3017 -398.85 -27.4656 -395.526 -17.8788C-392.199 -8.31313 -378.441 10.2175 -378.441 10.2175C-361.237 14.7651 -353.504 38.7535 -323.481 43.7635C-295.45 48.4507 -286.303 28.6893 -286.303 28.6893C-286.303 28.6893 -259.077 65.1768 -256.346 31.9967C-253.597 -1.18089 -305.005 -66.6856 -311.998 -88.5409C-317.759 -106.57 -328.367 -122.012 -331.902 -126.866C-332.607 -127.794 -332.626 -129.126 -331.942 -130.109C-331.112 -131.33 -329.797 -131.996 -328.448 -131.886C-327.119 -131.777 -325.947 -130.896 -325.351 -129.575C-322.524 -123.698 -317.483 -114.168 -309.921 -103.516C-297.378 -85.8294 -266.049 -20.0137 -244.396 35.9057C-235.566 58.6856 -190.021 69.3758 -173.781 60.7834C-157.541 52.1911 -127.13 74.3402 -115.764 82.0113C-104.376 89.6639 -91.6411 98.0272 -86.5007 113.296C-81.3414 128.567 -69.9662 129.807 -69.9662 129.807C-82.5623 142.86 -51.9488 155.601 -48.0622 164.703C-44.1757 173.805 -41.0417 191.815 -33.5773 194.349C-26.1129 196.883 -5.42697 188.052 -6.4392 191.416C-7.45143 194.779 -22.4932 193.986 -33.6848 198.58C-44.8791 203.196 -28.9785 225.628 -28.9785 225.628C-32.0327 230.528 -23.7899 241.117 -14.3401 248.025C-4.90918 254.931 1.31998 257.368 -7.61599 257.153L-7.70763 257.119Z" fill="black"/>
<path fill-rule="evenodd" clip-rule="evenodd" d="M72.1655 76.589C41.1309 96.6842 1.80158 119.906 2.41771 123.738C3.03384 127.57 23.7754 122.306 43.6969 114.042C63.6185 105.777 76.5724 94.6997 64.5429 106.197C52.5133 117.694 12.3679 126.937 4.52982 131.131C-3.30825 135.324 0.68225 140.666 23.152 138.8C45.6244 136.912 78.6805 117.658 65.7331 132.531C52.8046 147.407 18.2757 142.948 7.33688 149.441C-3.59919 155.913 -4.89316 165.887 -4.89316 165.887L-4.91203 165.884C-2.77751 172.808 -2.12522 183.463 5.81299 182.049C13.7323 180.632 13.5884 182.629 19.738 185.828C25.8876 189.027 41.9616 190.298 49.8431 190.355C57.7463 190.394 67.3775 192.502 57.5674 193.845C47.7574 195.188 14.1545 187.291 6.49892 190.521C-1.15393 193.731 -6.00991 207.488 -6.12037 216.329C-6.2281 225.149 -14.67 221.717 -17.8066 227.399C-20.9648 233.1 -25.965 235.689 -21.7078 239.715C-17.4505 243.741 -12.5136 235.869 -13.9547 240.764C-15.377 245.661 -20.7442 243.828 -19.4342 248.822C-18.1432 253.814 -11.0941 253.335 -3.77365 248.989C3.54679 244.642 4.25461 254.426 -1.63476 254.991C-7.50526 255.559 -11.804 262.506 -5.91073 268.716C-0.0390916 274.946 20.1161 270.206 38.6596 261.762C57.2032 253.319 71.5725 259 58.074 262.437C44.5756 265.875 8.21782 271.814 -1.01795 277.756C-10.2537 283.698 -13.104 301.081 -1.20351 307.149C10.6754 313.236 19.5767 322.153 8.5216 327.322C-2.55238 332.49 0.856073 318.202 -8.52863 309.608C-17.8945 301.017 -20.0809 301.892 -18.8152 314.921C-17.5684 327.947 -41.3368 329.023 -48.1327 319.265C-54.9312 309.528 -65.4037 329.589 -59.8034 348.562C-54.222 367.533 -11.4133 378.597 -20.74 381.096C-24.4776 382.091 -24.6527 386.399 -23.4943 391.674L-162.241 373.674C-161.469 364.618 -168.36 358.407 -173.799 364.82C-175.724 367.079 -176.926 369.389 -177.815 371.653L-182.76 371.012C-177.047 367.958 -181.649 362.3 -188.794 355.97C-197.42 348.333 -198.679 330.073 -186.064 325.899C-173.43 321.728 -182.281 301.775 -188.375 305.251C-194.472 308.749 -191.317 304.698 -193.152 297.535C-194.968 290.373 -211.957 290.978 -219.941 299.848C-227.944 308.716 -240.3 305.569 -255.838 316.74C-271.377 327.91 -278.002 301.45 -261.355 307.769C-244.726 314.086 -223.523 289.585 -229.553 269.634C-234.98 251.691 -244.436 235.948 -264.47 241.24C-267.968 242.158 -271.238 61.2619 -265.904 56.5506C-260.569 51.8182 -228.873 83.4396 -225.651 75.3239C-222.407 67.1896 -250.704 34.0794 -260.258 23.5344C-269.815 13.0104 -260.088 15.709 -264.719 8.20403C-269.35 0.69907 -275.128 -6.8474 -268.66 -1.80586C-262.196 3.25677 -259.668 2.85575 -245.012 14.0198C-230.353 25.1628 -220.939 45.8101 -215.798 41.5455C-210.657 37.2809 -238.568 11.4037 -248.26 -5.03411C-257.951 -21.4719 -251.994 -34.4 -259.275 -27.8402C-271.76 -16.5308 -287.742 -35.6716 -275.662 -38.0924C-263.581 -40.5133 -271.189 -30.8439 -256.219 -31.8607C-241.231 -32.8751 -247.393 -26.363 -233.37 -11.3573C-219.365 3.64606 -185.557 44.1394 -190.763 29.0769C-195.99 14.0331 -215.188 -10.4994 -226.11 -19.3779C-237.013 -28.254 -230.897 -40.3255 -225.745 -28.7005C-220.614 -17.0568 -192.841 18.0223 -181.593 25.2708C-170.345 32.5192 -164.957 55.946 -157.063 50.2805C-149.168 44.615 -151.632 33.5746 -164.064 31.8975C-176.498 30.2414 -165.921 14.8465 -157.758 20.1295C-149.613 25.4101 -153.591 38.3164 -146.284 30.8165C-138.957 23.319 -137.646 24.6041 -128.626 30.3843C-119.627 36.183 -121.42 74.4162 -111.829 76.2395C-102.235 78.0416 -94.091 31.5413 -84.9652 60.9206C-76.6922 87.552 -54.9379 45.9264 -64.0942 79.3663C-67.13 90.4864 -37.7407 82.1849 -41.6006 91.0755C-45.4577 99.945 -45.8298 102.813 -31.589 106.526C-17.3672 110.236 -5.44576 89.9554 4.41117 62.803C14.2492 35.648 29.9173 58.3931 16.2572 66.1838C2.59713 73.9744 -6.41744 100.7 -7.81618 113.405C-9.19604 126.112 24.0557 106.09 38.6609 88.795C53.2662 71.4997 49.2665 75.6979 90.3932 57.8554C131.501 40.0104 149.598 19.1801 154.116 26.5203C158.653 33.863 103.125 56.4839 72.0711 76.5767L72.1655 76.589Z" fill="black"/>
<path fill-rule="evenodd" clip-rule="evenodd" d="M36.8612 371.352C36.8612 371.352 35.1017 362.868 30.8889 365.602C26.6571 368.334 26.8074 373.242 29.5437 377.006C32.299 380.773 37.4423 376.637 36.8612 371.352Z" fill="black"/>
<path fill-rule="evenodd" clip-rule="evenodd" d="M41.6795 277.249C41.6795 277.249 36.061 287.562 31.6577 282.295C27.2355 277.026 29.3213 270.714 34.3803 266.932C39.4421 263.129 44.5022 270.582 41.6795 277.249Z" fill="black"/>
<path fill-rule="evenodd" clip-rule="evenodd" d="M136.68 204.709C136.68 204.709 148.661 191.962 153.195 206.873C157.729 221.784 140.695 222.147 138.197 216.248C135.699 210.349 134.207 208.826 131.785 208.705C129.366 208.563 132.299 205.341 136.683 204.688L136.68 204.709Z" fill="black"/>
<path fill-rule="evenodd" clip-rule="evenodd" d="M95.446 137.715C95.446 137.715 97.4078 131.323 112.325 132.637C127.239 133.971 136.964 124.405 167.565 126.145C167.565 126.145 163.336 134.623 142.469 133.31C121.586 131.973 110.145 143.074 102.786 141.648C95.4063 140.24 94.1355 141.898 95.4676 137.697L95.446 137.715Z" fill="black"/>
<path fill-rule="evenodd" clip-rule="evenodd" d="M172.999 124.063C172.999 124.063 177.908 125.278 185.117 121.797C192.346 118.296 200.035 122.21 194.066 127.675C188.098 133.14 178.372 123.623 173.823 127.772C169.275 131.899 169.019 125.883 172.98 124.06" fill="black"/>
</svg>
