<?xml version="1.0" encoding="UTF-8"?>
<svg id="Layer_2" data-name="Layer 2" xmlns="http://www.w3.org/2000/svg" xmlns:xlink="http://www.w3.org/1999/xlink" viewBox="0 0 426 358.66">
  <defs>
    <style>
      .cls-1 {
        fill: #fff;
      }

      .cls-2 {
        mask: url(#mask);
      }

      .cls-3 {
        fill: #fcec00;
        fill-rule: evenodd;
      }
    </style>
    <mask id="mask" x="91.39" y="-.18" width="334.61" height="353.79" maskUnits="userSpaceOnUse">
      <g id="mask0_71_238" data-name="mask0 71 238">
        <path class="cls-1" d="m426-.18H91.39v353.79h334.61V-.18Z"/>
      </g>
    </mask>
  </defs>
  <g id="Layer_1-2" data-name="Layer 1">
    <g>
      <path class="cls-3" d="m81.78,282.98s1.64-4.04-1.3-1.26c-2.95,2.79-15.78,24.09-17.94,28.44-2.16,4.35-2.52,5.82-5.58,7.37-3.05,1.55-6.13,2.45-8.62,5.74-2.49,3.29-6.13,1.39-6.37,3.89-.24,2.5.45,6.33,1.9,4.18,1.45-2.15,2.51-6.67,6.41-6.94,3.9-.27,5.43-5.02,8-6.67,2.57-1.65,4.92-6.83,7.59-8.31,2.68-1.48,2.8-1.5,5.74-9.92,2.94-8.42,3.33-8.17,4.95-9.89,1.62-1.72,3.86-3.9,5.23-6.63"/>
      <g class="cls-2">
        <path class="cls-3" d="m207.66,282.04c1.12-2.25,3.77-3.3,6.13-2.44,7.17,2.58,13.32,6.23,15.29,10.77,3.86,8.92,11.28,4.79,19.03,6.74,7.75,1.95,16.32,11.45,17.33,16.88,1.02,5.43-2.52,9.99-8.63,7.24-6.1-2.75-10.14.2-8.54,5.55,1.6,5.34,12.49,1.68,15.99,4.38,3.5,2.7,4.86,8.92,4.25,14.17-.61,5.24,3.49,6.89,3.66,3.52.17-3.37-4.4-8.57-2.89-17.57,1.51-9,1.66-8.19.47-11.36-1.19-3.17,1.15-10.9-4.1-19.76-5.26-8.86,12.12-7.74,20.03-19.89,7.91-12.15,18.69-14.26,20.72-16.23,2.03-1.97,13.45-5.98,13.45-5.98,0,0-1.14-2.91,6.07-7.01,7.22-4.11,7.27-4.04,13.3-10.21,6.03-6.17,10.93-5.62,21.25-2.78,10.31,2.84,7.91.67,12.77-.03,4.86-.7,7.65-.68.54-2.45-7.12-1.76-13.87-.51-21.48-.67-7.62-.16,2.31-14.28,11.06-15.54,8.75-1.26,19.64,1.49,28.91,7.27,9.27,5.78,8.36,2,15.4,3.36,7.04,1.35,18.34,3.07,18.34,3.07-6.29-1.6-15.45-3.63-19.18-5.46-3.74-1.83-4.75-6.15-9.05-5.67-4.3.48-15.27-1.57-22.56-4.28-7.29-2.71.99-7.53,9.86-8.11,8.88-.58,8.1,2.74,17.86,6.91,9.76,4.17,14.24,5.67,11.05,2.57-4.86-4.72-31.95-14.46-37.13-16.09-5.18-1.64-6.36-7.94-18.31-9.28-11.95-1.34,1.33-9.55.29-15.07-1.03-5.52-11.51-8.14-13.77-10.22-2.26-2.07,3.14-6.55.44-7.62-2.69-1.07-.12-3.97,3.37-10.35,3.48-6.39,31.03-13.42,40.83-21.64,9.8-8.21,8.36-8.52,13.76-10.41,5.4-1.89,1.79-8.25,7.25-8.14,5.45.11,9.86-13.12,4.6-12.09-5.26,1.03-10.64,17.69-17.67,17.62-7.03-.08-3.19,8.23-14.24,5.47-11.04-2.77-36.99-1.42-39.07-1.51-2.08-.1,2.51-5.59,9.38-7.89,6.87-2.29.8-5.73,16.14-9.77,15.34-4.04,22.25-12.1,16.68-9.05-5.57,3.05-6.13,4.76-17.33,7.39-11.2,2.64-21.64,7.82-24.11,10.22s2.04,1.54,1.35,4.1c-.69,2.55-11.24,7.13-17.13,10.02-5.89,2.89-10.24-1.58-5.65-6.74,4.59-5.16,21.5-11.68,24.97-15.04,3.47-3.36.36-4.34-4.14-.22-4.49,4.12-20.1,12.9-23.33,14.39-3.23,1.49-5.98,1.55-8.9-1.04-2.92-2.58.95-6.93-5.55-11.61-6.49-4.69-6.8-9.35.01-12.95,6.81-3.59,12.06-12.58,9.62-14.58-2.44-2.01,9.16-6.02,2.58-5.21-6.58.82-4.86-2.96-.88-9.68,3.98-6.71,13.53-7.7,13.17-9.6-.36-1.91.39-5.94,4.48-11.1,4.08-5.17-.29-4.53-3.57-3.02-3.27,1.52-2.29,6.73-2.29,6.73-2.68.65-2.82,2.89-2.82,2.89-4.67,1.07-6.74,5.02-9.12,9.29-2.38,4.26-10.8,12.07-10.8,12.07-9.27,1.08-14.92,11.8-30.9,12.32-14.92.49-18.35-9.28-18.35-9.28,0,0-16.65,15.37-15.83-.27.81-15.64,32.02-43.08,37.14-52.85,4.22-8.06,10.79-14.62,12.96-16.67.43-.39.53-1.01.24-1.51,0,0,0,0,0,0-.35-.62-.99-1.01-1.7-1.04-.7-.03-1.37.31-1.77.89-1.87,2.57-5.14,6.71-9.8,11.22-7.73,7.49-28.5,36.29-43.56,61.06-6.14,10.09-30.59,12.32-38.47,7.33-7.88-4.99-25.22,3.5-31.66,6.39-6.45,2.88-13.65,6.01-17.36,12.82-3.72,6.81-9.73,6.7-9.73,6.7,5.68,6.85-11.13,10.94-13.77,14.95-2.64,4.01-5.49,12.22-9.55,12.95-4.06.73-14.24-4.64-13.94-3.01.3,1.63,8.19,2.17,13.71,4.99,5.52,2.83-4.28,12.33-4.28,12.33,1.26,2.47-3.75,6.91-9.14,9.56-5.38,2.65-8.79,3.41-4.12,3.85,4.67.44,7.49,5.89,12.43,12.01,4.94,6.12,15.74,6.24,10.12,12.48-5.61,6.25-3.28,10.23-2.84,13.65.44,3.42,1.06,9.88,4.51,13.43,3.46,3.55,16.04,13.16,2.96,16.86-13.08,3.7-7.76,6.56-8.41,10.55-.65,4-9.21,4.11-7.58,7.5,1.63,3.39-4.03,9.37-12.44,14.62-8.4,5.26-3.34,14.15.64,6.6,3.97-7.55,8.94-13,14.53-17.29,5.58-4.29,16.22-9.31,22.34-11.86,6.1-2.55,9.27,3.68,13,4.4s10.04,2.46,10.75,11.55c.71,9.1-5.36,26.84-14.13,34.38-8.77,7.54-11.08,16.51-16.53,22.6-5.45,6.08-5.59,12.79-8.76,15.06-3.17,2.27-3,10.61-12.97,18.18-9.96,7.57-2.29,8-1.3,4.79,1-3.21,7.17-9.67,13.28-12.23,6.11-2.55-2.69-4.77,5.18-9.67,7.87-4.9,12.03-7.17,12.23-15.7.2-8.53,8.8-19.11,20.77-25.57,11.97-6.47,25.94-13.92,38.06-13.15h0c1.91.12,3.58,1.33,4.28,3.11.7,1.78.29,3.8-1.02,5.17-3.11,3.35-6.47,6.71-10.01,9.43-10.05,7.72-14.81,31.81-27.56,45.34,0,0-4.46,2.82-2.61,6.1,1.85,3.27,2.56.27,5-4.95,2.44-5.23,19.76-15.49,32.11-30.43,8.22-9.95,10.92-19.41,14.38-26.95"/>
      </g>
      <path class="cls-3" d="m211.15,312.23c-2.92-54.01-52.87-69.28-52.9-70.84-.02-1.55-3.11-7.71-3.11-7.71,0,0,1.69-.61.4-5.08-1.29-4.46-1.34-4.46-1.28-9.21.06-4.75-2.21-6.55-7.69-9.71-5.48-3.17-3.58-2.98-5.31-5.23-1.73-2.25-2.9-3.38.79-1.13,3.7,2.26,6,5.48,9.23,8.53,3.24,3.05,4.99-6.23,1.87-10.27-3.12-4.04-8.81-7.47-15.07-9.12-6.27-1.65-4.32-2.68-7.81-5.05-3.5-2.38-8.92-6.36-8.92-6.36,3.28,1.98,7.95,4.97,10.27,5.82,2.32.85,4.54-.34,6.13,1.6,1.59,1.93,7.01,5.66,11.18,7.64,4.17,1.98,2.73-3.19-.72-7.03-3.45-3.84-4.52-2.29-10.32-4.74-5.81-2.45-8.29-3.72-5.68-3.57,3.99.24,19.34,7.71,22.18,9.22,2.84,1.51,5.96-.34,11.49,4.04,5.54,4.39,38.1,52.29,40.83,50.67,2.73-1.62,20-34.77,24.65-33.85,4.66.92.03-29.32-1.31-33.43-1.33-4.11.23-9.58,2.08-9.32,1.85.25-1.3-5.97,1.1-2.99,2.4,2.99,3.26.89,4.4-3.22,1.14-4.11-2.42-8.37-1.48-8.94.95-.56,2.32-2.35,2.77-5.93.45-3.58,2.01-1.56,2.74.34.73,1.9-1.86,3.43-1.86,3.43.85,1.34-.02,2.22-.02,2.22,1.5,2.3.71,4.61-.08,7.16-.79,2.55-.53,8.88-.53,8.88,3.41,4.19,1.3,10.46,7.73,17.19,6.01,6.28,11.51,4.06,11.51,4.06,0,0,2.2,13.11,8.38,6.99,6.18-6.12,15.4-28.21,17.34-33.91,1.95-5.71,3.07-11.95,3.07-11.95l.64.68s-1.06,3.98-.96,9.92c.1,5.93-17.88,31.44-19.52,37.68-1.64,6.24,7.6,17.06,12.96,18.43,5.36,1.37,7.62,2.43,7.62,2.43,4.1.65,6.22-.22,9.19-1.46,2.96-1.23,8.14-.24,10.27-.27,2.14-.03,4.29-1.55,6.26-1.15,1.97.4.1,2.04-3.29,2.34-3.39.3-8.19,1.06-8.68,2.2-.49,1.14-3.85-1.18-8.11-.36-4.26.83-4.22,7.86-2.73,11.57,1.49,3.7,3.18,7.8,1.89,11.84-1.29,4.04,1.26,6.45,1.26,6.45-5.22.21.07,8.6-.5,11.16-.57,2.56-2.81,6.77-1.42,8.69,1.39,1.93,7.87,4.11,7.06,4.58-.81.48-4.32-2.54-7.79-3.75-3.48-1.21-3.36,6.31-3.36,6.31-1.55.4-1.32,4.08-.18,7.27,1.14,3.18,1.05,3.48,4.43,5.66,3.38,2.18.87,2.83,6.35,6.2,5.48,3.37,6.23,5.03,4.39,4.42-1.84-.61-1.66-2.15-3.98-3.26-2.32-1.11-3.25-3.96-4.75-4.12-1.5-.16-4.21-4.05-6.34-5.8-2.13-1.75-5.58-.88-10.19-.64-4.61.25-9.15-4.12-9.42.49-.26,4.6-2.9,5.12-4.51,6.2-1.61,1.09-4.56,3.23-7.48,3.13-2.92-.1-12.17-1.68-8.26,5.03,3.91,6.71.5,5.59-.9,7.34-1.4,1.75,2.12,5.29.03,5.88-2.09.58-2.22,5.11-.92,10.49,1.31,5.38-4.51,6.6-3.01,2.18,1.49-4.41,1.7-8.46,1.16-12.33-.53-3.87-2.87-10.07-4.35-13.51-1.48-3.44-5.4-2.42-7.25-3.68-1.85-1.26-5.21-3.19-9.3-.11-4.09,3.08-8.96,12.12-8.46,18.49.51,6.37-2.27,10.64-2.54,15.11-.27,4.48-3.01,7.02-2.64,9.15.38,2.13-3.17,5.15-2.18,12.02.99,6.87-2.38,3.9-1.46,2.3.93-1.6,1.05-6.51-.43-9.95-1.48-3.44,3.11-.66,1.88-5.7-1.24-5.03-2.02-7.57,1.46-10.8,3.48-3.24,2.43-10.4,2.02-17.94"/>
      <path class="cls-3" d="m318.95,105.17s8.64,2,7.11-5.58c-1.54-7.58-9.5-2.92-9.22.27.28,3.19-.04,4.26-1.13,4.99-1.09.74,1.06,1.27,3.25.31Z"/>
      <path class="cls-3" d="m101.93,119.3s0-4.73-5.26-8.41c-5.26-3.68-23.55-3.7-29.28-11.42-5.74-7.72,10.18,3.26,21.76,5.5,11.58,2.23,14.01-.01,10.22-2.45-3.8-2.43-24.09-9.17-29.58-15.26-5.49-6.09.51-.14,10.33,4.92,9.82,5.06,20.26,8.77,20.85,7.02.58-1.75-18.34-14.97-33.15-26.21-14.82-11.25-42.22-25.16-39.36-28.31,2.85-3.15,10.88,7.66,31.08,18.47,20.22,10.81,18.42,8.61,24.86,17.56,6.44,8.95,22.41,20.3,22.55,14.29.13-6.01-2.76-19.02-9.35-23.48-6.59-4.45,3.11-14.11,6.4-.86,3.3,13.26,8.14,23.43,15.8,22.57,7.67-.87,7.67-2.23,6.26-6.6-1.41-4.37,13.34,1.28,12.51-4.1-2.5-16.16,6.01,4.58,12.12-7.34,6.74-13.15,7.84,9.03,12.96,8.77,5.13-.26,6.77-18.21,11.85-20.37,5.09-2.16,5.86-2.67,9.17,1.27,3.31,3.94,2.1-2.32,6.7-4.29,4.61-1.97,9.08,5.85,2.49,5.87-6.59.03-8.62,5.03-4.89,8.15,3.73,3.12,8.12-7.48,14.47-10.18,6.35-2.7,23.19-17.38,26.65-22.5,3.47-5.12,5.84.89-.44,4.37-6.28,3.48-17.95,13.76-21.69,20.46-3.74,6.71,16.62-10.13,24.93-16.28,8.32-6.16,5.55-9.57,13.29-8.18,7.74,1.38,4.42-3.59,10.55-1.73,6.14,1.86-3.49,9.82-9.23,3.79-3.34-3.5-1.11,2.89-7.28,9.97-6.16,7.08-22.46,17.46-20.06,19.76,2.39,2.3,8.69-6.76,17.08-11.07,8.39-4.32,9.68-3.98,13.39-5.95,3.71-1.97.19,1.21-2.73,4.43-2.92,3.22,2.33,2.55-3.36,6.88-5.69,4.34-22.67,18.07-21.53,22.06,1.14,3.98,19.78-8.86,22.24-6.32,2.46,2.52-11.48,86.7-13.23,86.05-10.07-3.68-16.07,3.09-20.11,11.13-4.49,8.94,4.9,21.65,13.99,19.71,9.1-1.94,3.86,10-3.48,3.85-7.34-6.15-14-5.43-17.56-10.05-3.57-4.62-12.37-5.94-13.8-2.7-1.43,3.23-.07,5.31-3.01,3.31-2.94-2-8.9,6.77-2.6,9.49,6.3,2.71,4.4,11.15-.61,14.19-5.01,3.03-8.05,5.85-1.7,7.67,6.35,1.82,3.7,12.2-1.11,8.4-4.81-3.8-2.16-8.1-5.6-12.85-3.44-4.76-10.2,2.41-4.3,9.69,5.9,7.28,1.63,8.13,5.02,10.74,3.39,2.61,23.38,14.22,21.9,16.94-1.47,2.73-6.51-2.19-10.35-5.41-3.84-3.21-10.19-5.74-13.85-11.76-3.65-6.02-2.9-7.48-6.91-9.68-4.01-2.2-8.31-4.63-10.05-.5-1.74,4.14-3.05,8.88-9.05,12.47-6.01,3.59-9.19,10.96-7.26,17.93,1.92,6.98-4.3,20.19-6.09,16.36-1.78-3.83,1.91-9.83-.56-14-2.47-4.17-4.66-2.04-1.13-8.41,3.53-6.37,13.47-19.26,10.59-22.15-2.89-2.89-20.39-4.7-24.61-3.5-4.22,1.21-12.27,6.13-15.14,4.81-2.87-1.32,8.41-6.07,8.08-8.9-.34-2.83-17.31,5.55-18.67,13.51-1.37,7.97-3.79-.99-2.87-4.59.92-3.6,9.12-13.5,4.43-15.23-4.68-1.74,18.36-4.3,22.55-12.81,4.2-8.51.1-18.5-4.1-14.37-4.2,4.14-16.52,2.2-14.98-3.8,1.54-6.01.46-6.54-5-3.1-5.47,3.44-4.66,10.31-10.08,7.23-5.41-3.08-.17-6.7,6.43-8.82,6.61-2.11,6.3-10.39,1.89-13.72-4.41-3.33-22.96-8.3-29.75-10.72-6.8-2.41,1.07-4.2,10.16.86,9.09,5.06,19.27,8.49,22.75,5.94,3.49-2.55,1.72-6.04-1.3-6.66-3.02-.62-2-5.14,1.52-2.67,3.52,2.47,7.15,3.13,8.17.87,1.02-2.25-1.9-1.71-2.31-4.09-.41-2.37,1.62,1.6,4.11-.02,2.49-1.61.07-3.13-1.2-5.98-1.26-2.84-5.89-1.75-5.34-5.87.54-4.12-1.06-10.84-4.83-12.8-3.77-1.97-21.81-.31-26.83-1.54-5.03-1.22.14-1.62,4.26-1.16,4.11.46,12.58.83,15.99-.29,3.42-1.12,3.48-2.06,7.51-.92,4.03,1.14,5.09-3.79,6.68-6.89"/>
      <path class="cls-3" d="m73.92,257.68c-5.47-.12-21.33,7,4.78,3.21,7.82-1.13,5.14-5.71,10.4-5.12,5.26.59,15.56-3.8,10.66-7.74-4.9-3.95-12.32,7-16.4,3.7-4.08-3.31-3.97,6.08-9.44,5.96Z"/>
      <path class="cls-3" d="m66.3,212.59s1.49-3.85,3.5-2.32c2.02,1.53,1.61,3.81-.07,5.4-1.69,1.59-4.09-.65-3.43-3.08Z"/>
      <path class="cls-3" d="m54.56,263.3s-.35,2.3-6.11,2.72c-5.77.42-8.87,4.26-20.64,5.46,0,0,1.08-3.14,9.12-3.92,8.04-.78,11.7-5.23,14.6-5.18,2.9.04,3.28-.59,3.03.91"/>
      <path class="cls-3" d="m25.86,272.53s-1.95-.13-4.48,1.49c-2.53,1.62-5.71.73-3.78-1.48,1.93-2.21,6.23.45,7.71-1.23,1.47-1.68,1.95.36.55,1.22Z"/>
      <path class="cls-3" d="m26.95,259.71c.08.8.36,1.7.93,2.71,4,7.24,9.66-.35,9.66-.35,1.97-.58,3.25-1.94,2.94-2.37h-13.53Z"/>
      <path class="cls-3" d="m70.15,168.41s2.23,5.15,4.88,2.96c2.66-2.19,2-5.26-.38-7.33-2.38-2.08-5.52,1.09-4.5,4.37Z"/>
      <path class="cls-3" d="m25.56,128.83s-5.38-6.67-8.75.01c-3.37,6.68,5.48,7.88,7.18,5.28,1.7-2.6,2.58-3.22,3.85-3.13,1.27.08-.04-1.6-2.28-2.17Z"/>
      <path class="cls-3" d="m51.57,100.08s-.59-3.1-8.45-3.39c-7.86-.28-12.28-5.33-28.34-6.37,0,0,1.63,4.21,12.59,4.86,10.97.64,16.18,6.51,20.11,6.29,3.94-.21,4.49.64,4.08-1.4Z"/>
      <path class="cls-3" d="m12.09,89.02s-2.64.27-6.16-1.79c-3.53-2.07-7.8-.71-5.06,2.2,2.74,2.91,8.45-.94,10.54,1.27,2.09,2.2,2.63-.59.69-1.68"/>
      <path class="cls-3" d="m278.1,205.18s-4.58-11.45,3.7-3.54c8.28,7.92,44.22,68.28,50.26,80.6,6.05,12.32,7.05,16.46,15.65,20.89,8.6,4.43,17.29,7,24.27,16.33,6.99,9.33,17.31,4.01,17.95,11.07.64,7.06-1.35,17.88-5.41,11.78-4.06-6.09-7-18.88-18.01-19.7-11.01-.81-15.27-14.25-22.5-18.95-7.22-4.7-13.79-19.38-21.32-23.58-7.54-4.21-7.89-4.28-16.07-28.1-8.18-23.82-9.29-23.11-13.85-28-4.56-4.89-10.84-11.08-14.68-18.81"/>
    </g>
  </g>
</svg>