<svg width="399" height="282" viewBox="0 0 399 282" fill="none" xmlns="http://www.w3.org/2000/svg">
<g clip-path="url(#clip0_73_299)">
<path fill-rule="evenodd" clip-rule="evenodd" d="M-474.062 441.434C-461.339 442.633 -453.655 457.483 -440.196 474.158C-426.737 490.834 -397.311 491.161 -412.623 508.163C-427.908 525.193 -421.56 536.037 -420.361 545.356C-419.162 554.674 -417.473 572.276 -408.073 581.949C-401.534 588.652 -383.089 603.284 -384.233 614.973H223.211C230.567 606.662 241.029 599.169 250.974 597.725C273.479 594.483 301.161 600.995 325.437 614.973H362.382C357.042 609.741 353.254 603.774 344.727 604.728C333.011 606.036 303.122 600.45 283.26 593.066C263.398 585.682 285.957 572.549 310.124 570.968C334.319 569.388 332.194 578.434 358.785 589.796C385.404 601.158 397.583 605.245 388.892 596.799C375.65 583.938 301.842 557.399 287.728 552.958C273.615 548.489 270.4 531.323 237.841 527.672C205.283 524.021 241.465 501.651 238.632 486.61C235.825 471.57 207.272 464.431 201.114 458.764C194.957 453.123 209.669 440.917 202.313 438.001C194.984 435.086 201.986 427.184 211.495 409.8C220.976 392.389 296.038 373.234 322.739 350.837C349.44 328.467 345.517 327.622 360.229 322.472C374.942 317.323 365.106 300.021 379.983 300.293C394.831 300.593 406.847 264.545 392.516 267.351C378.184 270.158 363.526 315.552 344.372 315.361C325.219 315.143 335.681 337.785 305.574 330.265C275.495 322.718 204.792 326.423 199.125 326.151C193.458 325.878 205.964 310.92 224.682 304.653C243.4 298.413 226.861 289.04 268.656 278.032C310.451 267.024 329.278 245.063 314.102 253.373C298.926 261.684 297.401 266.343 266.885 273.509C236.37 280.702 207.926 294.816 201.196 301.328C194.439 307.868 206.754 305.525 204.874 312.5C202.994 319.448 174.25 331.927 158.202 339.802C142.154 347.676 130.302 335.497 142.808 321.437C155.314 307.377 201.387 289.612 210.841 280.457C220.295 271.302 211.822 268.632 199.561 279.858C187.328 291.083 144.797 315.007 135.997 319.066C127.196 323.126 119.704 323.29 111.748 316.233C103.792 309.176 114.337 297.35 96.6268 284.599C78.9443 271.82 78.0997 259.122 96.654 249.313C115.208 239.531 129.512 215.036 122.864 209.587C116.216 204.11 147.822 193.184 129.894 195.391C111.966 197.625 116.652 187.326 127.496 169.015C138.34 150.732 164.36 148.035 163.379 142.858C162.398 137.654 164.441 126.673 175.585 112.613C186.701 98.5265 174.795 100.27 165.858 104.385C156.949 108.526 159.619 122.722 159.619 122.722C152.317 124.493 151.908 130.597 151.908 130.597C139.185 133.512 133.545 144.275 127.06 155.909C120.576 167.517 97.6349 188.797 97.6349 188.797C72.3781 191.74 56.9843 220.949 13.4456 222.366C-27.205 223.701 -36.5504 197.08 -36.5504 197.08C-36.5504 197.08 -81.9145 238.959 -79.6804 196.344C-77.4735 153.73 7.56049 78.9628 21.5103 52.3422C33.008 30.3808 50.9084 12.5066 56.8207 6.92084C57.9923 5.8582 58.2648 4.16886 57.4746 2.80649C56.521 1.11716 54.7773 0.0545102 52.8429 -0.0272319C50.9357 -0.108974 49.1102 0.817436 48.0203 2.39778C42.9254 9.40035 34.0161 20.6808 21.3195 32.9693C0.258606 53.3776 -56.3308 131.85 -97.3629 199.342C-114.092 226.834 -180.708 232.91 -202.177 219.314C-223.647 205.718 -270.891 228.851 -288.437 236.725C-306.011 244.572 -325.628 253.101 -335.736 271.656C-345.871 290.212 -362.246 289.912 -362.246 289.912C-346.77 308.576 -392.57 319.72 -399.763 330.647C-406.956 341.573 -414.721 363.943 -425.783 365.932C-436.845 367.921 -464.581 353.289 -463.764 357.73C-462.946 362.172 -441.449 363.643 -426.41 371.327C-411.37 379.038 -438.071 404.923 -438.071 404.923C-434.638 411.653 -448.288 423.751 -462.973 430.971C-477.632 438.192 -486.922 440.263 -474.199 441.462L-474.062 441.434Z" fill="#FCEC00"/>
<path fill-rule="evenodd" clip-rule="evenodd" d="M130.003 286.56C130.003 286.56 153.543 292.01 149.375 271.356C145.179 250.703 123.491 263.4 124.254 272.092C125.017 280.784 124.145 283.699 121.175 285.689C118.205 287.705 124.063 289.149 130.03 286.533L130.003 286.56Z" fill="#FCEC00"/>
</g>
<defs>
<clipPath id="clip0_73_299">
<rect width="1138" height="615" fill="white" transform="translate(-739)"/>
</clipPath>
</defs>
</svg>
