<svg width="200" height="89" viewBox="0 0 200 89" fill="none" xmlns="http://www.w3.org/2000/svg">
<g clip-path="url(#clip0_190_1474)">
<path d="M96.6873 86.9833C82.6476 86.9833 68.9814 81.5729 60.0734 72.0873C50.8888 62.3097 49.2151 46.1064 55.6748 29.7779C61.0555 16.2033 73.1449 1.34911 90.9469 0.3477C103.949 -0.375538 121.668 1.61337 132.25 15.2019C143.247 29.3329 144.395 51.183 134.961 67.1499C129.138 77.0248 119.04 83.7426 106.563 86.0653C103.285 86.6773 99.9794 86.9694 96.6873 86.9694V86.9833ZM95.5254 4.15861C94.0315 4.15861 92.5791 4.20033 91.1682 4.28378C78.0276 5.02093 65.5233 15.5913 59.3265 31.2383C53.517 45.8978 54.9278 60.8632 62.9229 69.3891C72.8821 79.9873 90.1447 85.1474 105.858 82.1988C117.214 80.0847 126.357 74.0206 131.6 65.147C140.093 50.7657 139.055 30.3343 129.179 17.6359C120.742 6.80121 106.951 4.15861 95.5254 4.15861Z" fill="#2D2D2D"/>
<path d="M99.7024 70.4323C96.0784 70.4323 92.2054 69.6673 88.3185 68.1096C80.282 64.8828 71.4847 57.6226 70.8899 46.8992C70.2813 35.7864 73.3382 27.2466 79.7426 22.1979C88.1249 15.6053 101.072 14.9238 110.519 20.5706C116.398 24.0755 120.395 30.1396 121.779 37.6223C123.674 47.9145 120.423 58.8048 113.493 65.3835C109.98 68.7076 105.111 70.4184 99.6886 70.4184L99.7024 70.4323ZM96.3135 20.7236C91.1403 20.7236 86.0224 22.2674 82.1632 25.2994C75.3992 30.6264 74.431 39.8616 74.8045 46.6767C75.2056 53.9925 81.0843 60.9606 89.7571 64.4517C97.8904 67.7062 106.148 66.9552 110.796 62.5323C116.688 56.9272 119.552 47.2191 117.919 38.3455C116.744 31.9894 113.41 26.8711 108.514 23.9503C104.89 21.7806 100.588 20.7236 96.2997 20.7236H96.3135Z" fill="#2D2D2D"/>
<path d="M96.6183 58.6517C91.8185 58.6517 87.1294 56.788 84.0586 53.5195C80.7942 50.0424 80.1579 44.3678 82.3987 38.7209C84.764 32.7542 89.4808 28.8599 94.7232 28.5678C101.045 28.2062 105.983 30.0143 108.915 33.7834C112.719 38.6653 113.12 46.2176 109.87 51.7253C107.822 55.1885 104.323 57.539 99.9933 58.3457C98.8867 58.5543 97.7525 58.6517 96.6321 58.6517H96.6183ZM96.231 32.4761C95.7883 32.4761 95.3457 32.49 94.9307 32.5178C91.2928 32.7125 87.7933 35.7306 86.0366 40.1952C84.3906 44.3399 84.7364 48.5125 86.908 50.8352C89.7575 53.8672 94.7094 55.3415 99.2602 54.4931C102.469 53.895 105.028 52.2121 106.494 49.7364C108.915 45.6334 108.625 39.8336 105.817 36.2313C103.479 33.2271 99.5368 32.49 96.231 32.49V32.4761Z" fill="#2D2D2D"/>
<path d="M91.7767 89.0002C62.9642 89.0002 30.4447 78.5689 0.49796 44.9105C-0.165987 44.1595 -0.165987 43.0329 0.49796 42.2818C1.35556 41.3082 21.9656 18.2898 56.9334 6.52327C89.2178 -4.33921 140.12 -6.99572 199.295 42.0732C199.737 42.4348 200 42.9772 200.014 43.5475C200.014 44.1177 199.793 44.6741 199.364 45.0496C199.087 45.2999 171.367 69.9596 133.287 82.1851C121.101 86.0934 106.965 88.9863 91.8044 88.9863L91.7767 89.0002ZM4.61996 43.617C39.9336 82.4911 82.772 94.2298 131.959 78.4715C163.884 68.2488 188.381 49.097 194.965 43.617C149.789 6.87098 102.524 -4.6591 58.1645 10.2646C28.8263 20.1396 9.4889 38.61 4.61996 43.617Z" fill="#2D2D2D"/>
<path d="M15.4092 40.0006C15.0495 40.0006 14.7037 39.7781 14.5654 39.4165L12.3661 33.4776C12.1863 33.0047 12.4214 32.4762 12.8917 32.3093C13.362 32.1423 13.8738 32.3649 14.0536 32.8378L16.2529 38.7767C16.4327 39.2496 16.1976 39.7642 15.7273 39.945C15.6166 39.9867 15.5198 40.0006 15.4092 40.0006Z" fill="#2D2D2D"/>
<path d="M22.173 35.55C21.9379 35.55 21.6889 35.4526 21.5091 35.2579L17.6775 31.1132C17.3317 30.7376 17.3594 30.1674 17.719 29.8336C18.0925 29.4998 18.6596 29.5137 18.9916 29.8753L22.8231 34.02C23.1689 34.3956 23.1413 34.9658 22.7816 35.2996C22.6018 35.4665 22.3805 35.5361 22.1592 35.5361L22.173 35.55Z" fill="#2D2D2D"/>
<path d="M28.6463 34.0616C28.3558 34.0616 28.0792 33.9225 27.8993 33.6722L22.6293 26.0504C22.3388 25.6331 22.4495 25.0768 22.8506 24.7847C23.2517 24.4926 23.8188 24.6039 24.1093 25.0072L29.3794 32.6291C29.6699 33.0463 29.5592 33.6027 29.1581 33.8947C29.0059 34.006 28.8261 34.0616 28.6463 34.0616Z" fill="#2D2D2D"/>
<path d="M32.2013 29.3467C31.7034 29.3467 31.3022 28.9433 31.3022 28.4426V19.9724C31.3022 19.4717 31.7034 19.0684 32.2013 19.0684C32.6993 19.0684 33.1004 19.4717 33.1004 19.9724V28.4426C33.1004 28.9433 32.6993 29.3467 32.2013 29.3467Z" fill="#2D2D2D"/>
<path d="M39.2422 25.1046C38.8826 25.1046 38.5368 24.8821 38.3984 24.5343L35.7426 17.8444C35.5628 17.3715 35.7841 16.843 36.2406 16.6622C36.6971 16.4814 37.2365 16.7039 37.4163 17.1629L40.0721 23.8528C40.2519 24.3257 40.0306 24.8542 39.5742 25.035C39.4635 25.0768 39.3529 25.1046 39.2422 25.1046Z" fill="#2D2D2D"/>
<path d="M43.6543 23.4217C43.267 23.4217 42.9212 23.1714 42.7967 22.7819L40.4314 15.3548C40.2792 14.882 40.5421 14.3673 41.0124 14.2144C41.4826 14.0614 41.9944 14.3256 42.1466 14.7985L44.5119 22.2256C44.6641 22.6985 44.4012 23.2131 43.931 23.3661C43.8341 23.3939 43.7511 23.4078 43.6543 23.4078V23.4217Z" fill="#2D2D2D"/>
<path d="M49.5468 21.7528C49.2148 21.7528 48.8967 21.572 48.7446 21.2521L45.7983 15.494C45.577 15.0489 45.743 14.5065 46.1856 14.27C46.6282 14.0336 47.1677 14.2144 47.4028 14.6595L50.3491 20.4176C50.5704 20.8626 50.4044 21.419 49.9618 21.6415C49.8235 21.711 49.6851 21.7389 49.5468 21.7389V21.7528Z" fill="#2D2D2D"/>
<path d="M53.7936 15.9946C53.4063 15.9946 53.0605 15.7443 52.936 15.3688L51.3868 10.5982C51.2346 10.1253 51.4836 9.61067 51.9677 9.45767C52.438 9.29077 52.9498 9.56894 53.102 10.0418L54.6512 14.8124C54.8033 15.2853 54.5544 15.7999 54.0702 15.9529C53.9734 15.9807 53.8766 15.9946 53.7936 15.9946Z" fill="#2D2D2D"/>
<path d="M58.0817 13.6024C57.5838 13.6024 57.1826 13.1991 57.1826 12.6984V10.3061C57.1826 9.80544 57.5838 9.4021 58.0817 9.4021C58.5797 9.4021 58.9808 9.80544 58.9808 10.3061V12.6984C58.9808 13.1991 58.5797 13.6024 58.0817 13.6024Z" fill="#2D2D2D"/>
<path d="M64.2643 12.4063C63.7664 12.4063 63.3652 12.0029 63.3652 11.5022V8.01123C63.3652 7.51052 63.7664 7.10718 64.2643 7.10718C64.7623 7.10718 65.1634 7.51052 65.1634 8.01123V11.5022C65.1634 12.0029 64.7623 12.4063 64.2643 12.4063Z" fill="#2D2D2D"/>
<path d="M132.554 13.6025C132.374 13.6025 132.195 13.5468 132.029 13.4356C131.614 13.1435 131.517 12.5732 131.807 12.1699L133.868 9.22131C134.159 8.80405 134.726 8.7206 135.127 8.99877C135.542 9.29085 135.639 9.86109 135.348 10.2644L133.287 13.213C133.108 13.4634 132.831 13.6025 132.554 13.6025Z" fill="#2D2D2D"/>
<path d="M137.561 15.9948C137.437 15.9948 137.312 15.9669 137.188 15.9113C136.731 15.7027 136.538 15.1603 136.745 14.7013L138.516 10.8347C138.723 10.3758 139.263 10.181 139.719 10.3897C140.176 10.5983 140.369 11.1407 140.162 11.5997L138.391 15.4662C138.239 15.8 137.907 15.9948 137.575 15.9948H137.561Z" fill="#2D2D2D"/>
<path d="M143.744 18.4147C143.523 18.4147 143.288 18.3313 143.108 18.1505C142.748 17.8028 142.748 17.2186 143.108 16.8709L147.783 12.0725C148.129 11.7109 148.71 11.7109 149.056 12.0725C149.416 12.4202 149.416 13.0043 149.056 13.3521L144.381 18.1505C144.201 18.3313 143.966 18.4286 143.731 18.4286L143.744 18.4147Z" fill="#2D2D2D"/>
<path d="M149.637 21.7527C149.333 21.7527 149.028 21.5997 148.862 21.3077C148.613 20.8765 148.752 20.3202 149.18 20.0559L154.769 16.704C155.197 16.4536 155.751 16.5927 156.013 17.0239C156.262 17.455 156.124 18.0114 155.695 18.2756L150.107 21.6276C149.969 21.711 149.803 21.7527 149.651 21.7527H149.637Z" fill="#2D2D2D"/>
<path d="M155.225 26.44C154.99 26.44 154.755 26.3565 154.589 26.1757C154.243 25.8141 154.243 25.2439 154.589 24.8962L160.177 19.3189C160.537 18.9712 161.104 18.9712 161.45 19.3189C161.796 19.6805 161.796 20.2508 161.45 20.5985L155.862 26.1757C155.682 26.3565 155.46 26.44 155.225 26.44Z" fill="#2D2D2D"/>
<path d="M160.813 31.4053C160.633 31.4053 160.454 31.3496 160.301 31.2523C159.886 30.9741 159.79 30.4039 160.066 29.9866L165.364 22.2257C165.655 21.8085 166.208 21.7111 166.623 21.9893C167.038 22.2674 167.135 22.8377 166.858 23.2549L161.56 31.0158C161.38 31.2662 161.104 31.4053 160.813 31.4053Z" fill="#2D2D2D"/>
<path d="M169.058 34.0618C168.809 34.0618 168.56 33.9644 168.38 33.7558C168.048 33.3803 168.089 32.81 168.449 32.4762L173.747 27.7474C174.12 27.4136 174.687 27.4414 175.019 27.8169C175.351 28.1924 175.31 28.7627 174.95 29.0965L169.652 33.8254C169.486 33.9783 169.265 34.0479 169.058 34.0479V34.0618Z" fill="#2D2D2D"/>
<path d="M174.355 37.0241C174.023 37.0241 173.691 36.8294 173.539 36.5095C173.331 36.0505 173.511 35.5081 173.968 35.2995L181.326 31.7528C181.783 31.5442 182.308 31.725 182.53 32.184C182.737 32.643 182.557 33.1854 182.101 33.394L174.742 36.9407C174.618 36.9963 174.479 37.0241 174.355 37.0241Z" fill="#2D2D2D"/>
<path d="M181.714 40.0006C181.423 40.0006 181.133 39.8615 180.967 39.5973C180.69 39.18 180.801 38.6237 181.216 38.3316L185.628 35.3691C186.043 35.091 186.596 35.2022 186.887 35.6195C187.164 36.0367 187.053 36.607 186.638 36.8851L182.225 39.8476C182.073 39.945 181.893 40.0006 181.727 40.0006H181.714Z" fill="#2D2D2D"/>
<path d="M94.5845 8.9153C94.4185 8.9153 94.2387 8.87357 94.0866 8.77621C93.6716 8.49805 93.5471 7.94171 93.8238 7.52446L97.0605 2.48961C97.3371 2.05845 97.8904 1.94718 98.3054 2.22535C98.7204 2.50352 98.8449 3.05985 98.5682 3.4771L95.3315 8.51195C95.1655 8.77621 94.875 8.92921 94.5707 8.92921L94.5845 8.9153Z" fill="#2D2D2D"/>
<path d="M99.9932 11.2241C99.7995 11.2241 99.592 11.1545 99.426 11.0293C99.0387 10.7233 98.9696 10.1392 99.2739 9.74976L105.042 2.42002C105.346 2.01668 105.927 1.96104 106.314 2.26703C106.702 2.57301 106.771 3.15717 106.467 3.5466L100.699 10.8763C100.519 11.0989 100.256 11.2241 99.9932 11.2241Z" fill="#2D2D2D"/>
<path d="M110.077 12.142C109.897 12.142 109.717 12.0863 109.565 11.9751C109.15 11.6969 109.053 11.1267 109.33 10.7094L113.258 4.97914C113.549 4.56188 114.116 4.46452 114.517 4.74269C114.932 5.02086 115.029 5.59111 114.752 6.00836L110.824 11.7386C110.644 11.989 110.367 12.1281 110.077 12.1281V12.142Z" fill="#2D2D2D"/>
<path d="M117.837 12.142C117.615 12.142 117.38 12.0586 117.214 11.8917C116.855 11.544 116.841 10.9737 117.186 10.6121L120.257 7.38536C120.603 7.02374 121.184 7.00983 121.53 7.35754C121.889 7.70526 121.903 8.2755 121.557 8.63712L118.487 11.8639C118.307 12.0447 118.072 12.142 117.837 12.142Z" fill="#2D2D2D"/>
<path d="M122.553 18.8738C122.304 18.8738 122.069 18.7764 121.889 18.5817C121.557 18.2062 121.585 17.6359 121.945 17.3021L127.187 12.4898C127.547 12.156 128.128 12.1699 128.46 12.5454C128.792 12.921 128.764 13.4912 128.404 13.825L123.162 18.6373C122.996 18.7903 122.775 18.8738 122.553 18.8738Z" fill="#2D2D2D"/>
<path d="M127.796 25.1046C127.505 25.1046 127.229 24.9656 127.049 24.7152C126.758 24.298 126.869 23.7416 127.27 23.4495L132.042 20.1115C132.457 19.8194 133.01 19.9168 133.301 20.3341C133.591 20.7513 133.481 21.3076 133.08 21.5997L128.307 24.9377C128.155 25.049 127.975 25.1046 127.796 25.1046Z" fill="#2D2D2D"/>
<path d="M131.378 31.4052C131.116 31.4052 130.839 31.28 130.659 31.0575C130.355 30.6541 130.424 30.0839 130.825 29.7779L135.832 25.8974C136.22 25.5914 136.801 25.661 137.105 26.0643C137.409 26.4677 137.34 27.0379 136.939 27.3439L131.932 31.2244C131.766 31.3495 131.572 31.4191 131.378 31.4191V31.4052Z" fill="#2D2D2D"/>
<path d="M133.592 41.1829C133.412 41.1829 133.232 41.1272 133.066 41.016C132.665 40.7239 132.568 40.1536 132.858 39.7503L136.828 34.1313C137.119 33.714 137.686 33.6306 138.087 33.9227C138.488 34.2147 138.585 34.785 138.295 35.1883L134.325 40.8073C134.145 41.0577 133.868 41.1829 133.592 41.1829Z" fill="#2D2D2D"/>
<path d="M138.446 45.3972H134.615C134.117 45.3972 133.716 44.9939 133.716 44.4932C133.716 43.9925 134.117 43.5891 134.615 43.5891H138.446C138.944 43.5891 139.346 43.9925 139.346 44.4932C139.346 44.9939 138.944 45.3972 138.446 45.3972Z" fill="#2D2D2D"/>
<path d="M132.554 54.4933C132.222 54.4933 131.904 54.3125 131.738 53.9926C131.517 53.5475 131.697 52.9912 132.139 52.7687L138.032 49.8062C138.488 49.5836 139.028 49.7644 139.249 50.2095C139.47 50.6546 139.291 51.2109 138.848 51.4335L132.956 54.396C132.831 54.4655 132.693 54.4933 132.554 54.4933Z" fill="#2D2D2D"/>
<path d="M130.175 63.0886C129.815 63.0886 129.469 62.8661 129.331 62.5044C129.151 62.0316 129.386 61.517 129.843 61.3222L135.168 59.2499C135.639 59.0691 136.15 59.3055 136.344 59.7645C136.524 60.2374 136.289 60.752 135.832 60.9467L130.507 63.0191C130.396 63.0608 130.286 63.0747 130.175 63.0747V63.0886Z" fill="#2D2D2D"/>
</g>
<defs>
<clipPath id="clip0_190_1474">
<rect width="200" height="89" fill="white"/>
</clipPath>
</defs>
</svg>
