<?xml version="1.0" encoding="UTF-8"?>
<svg id="Layer_2" data-name="Layer 2" xmlns="http://www.w3.org/2000/svg" viewBox="0 0 354.72 82.96">
  <defs>
    <style>
      .cls-1 {
        fill: #fbeb05;
      }
    </style>
  </defs>
  <g id="Layer_1-2" data-name="Layer 1">
    <g>
      <path class="cls-1" d="m304.59,74.51h0s-.01.01,0,0Z"/>
      <path class="cls-1" d="m168.76,4.14s0,0,.01,0c0-.02,0-.02-.01,0Z"/>
      <path class="cls-1" d="m204.41,7.12s0,0,0,0c0-.01,0-.02,0-.03l-.02.02Z"/>
      <path class="cls-1" d="m59.18,76.03s0-.03.01-.04h-.1s.06.03.09.04Z"/>
      <path class="cls-1" d="m57.08,75.35c-.19.75-.75.43-1.14.44-1.52.04-3.04.01-4.56.01,0,.06,0,.12,0,.18h7.7c-.4-.18-.79-.37-1.19-.51-.27-.09-.81-.17-.82-.13Z"/>
      <path class="cls-1" d="m349.94,25.49s0,0,0,0c0,0,0,0-.01.01h.01Z"/>
      <polygon class="cls-1" points="345.11 43.15 345.11 43.15 345.11 43.15 345.11 43.15"/>
      <path class="cls-1" d="m344.55,35.36c1.69-.19,3.32-.44,4.94-.92,1.61-.48,3.25-.86,4.9-1.28-.63-.52-1.3-1.07-1.96-1.61.62-.48,1.32-1.02,2.28-1.75-.94-.38-1.63-.72-2.35-.92-.59-.16-1.23-.17-1.84-.22-.97-.08-1.93-.14-2.9-.21-.23-.02-.45-.05-.67-.07,0-.09,0-.19,0-.28.78-.07,1.55-.14,2.36-.21-.25-.13-.51-.26-.75-.38.22-.34.41-.61.6-.9-.41-.31-.75-.57-.99-.75.56-.11,1.16-.23,1.76-.35.34-.3.68-.6,1.02-.92-.19-1.03-.91-1.46-1.63-1.72-.65.46-1.2.85-1.75,1.24-.04.03-.11.04-.17.03-.97-.27-1.94-.52-2.9-.81-.78-.23-1.53-.57-2.32-.74-.99-.21-2.01-.28-3.01-.45-.15-.02-.26-.24-.38-.36-1.09-.06-2.23-.12-3.36-.18.64-.25,1.3-.29,1.95-.35,1.34-.14,2.69-.31,4.03-.43,1.69-.16,3.37-.29,5.06-.42.58-.05,1.17-.05,1.76-.08.93-.05,1.87-.08,2.8-.17.41-.04.83-.19,1.21-.37.28-.13.5-.4.75-.61-.03-.03-.05-.06-.08-.1-.2.05-.39.11-.66.18.45-.78.2-1.26-.56-1.35-.72-.08-1.44-.18-2.14-.27-.08-.38-.15-.69-.28-1.32.53.27.87.46,1.32.68.06-.05.26-.19.31-.22-.41-.45-.8-.89-1.16-1.28-.11.05-.26.16-.43.2-.49.12-.78.25-.28.81.17.2.12.62.19,1.03-1.18-.15-2.33.34-3.2-1.17-.22.81-.35,1.31-.48,1.79-.97.2-2.04.51-3.13.62-1.09.11-2.19.02-3.34.02.69-1.05,1.62-.74,2.48-.72.14,0,.3.08.42.04.39-.13.77-.35,1.17-.44.68-.15,1.37-.22,2.06-.32-.02-.14-.03-.27-.05-.41-.4.06-.8.11-1.2.17-1.08.16-2.18.1-3.27.25-.68.1-1.83.32-2.39-.78.76-.01,1.45.72,2.25-.12.34-.36,1.15-.22,1.77-.31-.12-.09-.21-.16-.46-.35,1.43.1,2.67.18,3.91.26-.79-.33-1.61-.44-2.42-.59-1.01-.18-2.05-.28-3-.64-.99-.38-1.88-1.03-2.87-1.59.36-.14.68-.27,1.22-.48-.9-.11-1.55-.21-2.22-.26-1.1-.08-2.21-.04-3.3-.2-2.75-.4-5.49-.87-8.22-1.34-.58-.1-1.14-.37-1.9-.62-.6.44-.69.44-1.25-.23,1.17-.61,2.57.47,3.66-.68-.66,0-1.3.17-1.95.24-.79.08-1.57-.25-2.4.04-.44.16-1.02-.24-1.54-.22-.67.02-1.35.16-2.01.33-.29.08-.53.37-.87.62q-1.49-.7-2.24-.47c-.15-.11-.29-.22-.44-.34-.29-.62-.58-1.23-.88-1.85.36-.18.59-.29.82-.41-1.19-.1-2.33-.02-3.46.08-.62.06-1.23.18-1.84.24-1.66.16-3.32.31-4.98.43-.33.02-.66-.12-1.12-.2.34-.42.51-.64.78-.96-.31.11-.58.11-.67.24-.62,1-1.54.94-2.46.84-1.77-.18-3.54-.4-5.32-.56-1.26-.11-2.53-.16-3.79-.2-.39-.01-.72-.32-1.21.07-.29.23-1.03-.22-1.59-.37-.21,0-.47-.02-.73,0-.36.03-.71.09-1.07.15-.34.05-.81.45-.82-.13h-5.92c.68-.2,1.2-.35,1.71-.5,0-.09,0-.17,0-.26-.75-.12-1.5-.24-2.25-.36,0,.04-.02.07-.02.11.4.14.81.27,1.32.45-1.25.47-1.59.34-2.27-.78.95,0,1.86-.05,2.76.02.76.06,1.52.39,2.27.36,1.73-.05,3.43.47,5.18.26,1.01-.12,2.05-.02,3.08-.02.14,0,.29,0,.42.01.59.09,1.25.44,1.74.25,1.05-.42,2.01-.24,3.03-.06.48.09,1.01-.13,1.52-.22l-.02-.41h-5.33c0-.09,0-.17,0-.26.55-.06,1.1-.12,1.64-.18-1.47-.54-2.89-.63-4.34-.12-.59.21-1.25.17-1.88.24,0-.04,0-.09,0-.13.34-.06.67-.12,1.01-.18,0-.08,0-.16,0-.24-.31-.05-.67-.24-.91-.13-1.27.57-2.58.58-3.91.45-1.04-.11-2.08-.27-3.12-.33-.83-.06-1.66-.01-2.36-.01-.2-.41-.41-.82-.61-1.23-.05.03-.1.05-.15.08.05.38.1.76.14,1.12-1.54.36-2.84-.23-4.11-1.05-.23.29-.44.55-.59.74.55.05,1.13.1,1.71.15,0,.06-.02.11-.03.17-1.48.14-2.97.28-4.6.43.23-.24.31-.32.39-.4-.1-.07-.21-.22-.3-.2-.47.07-.93.17-1.5.28.31.08.54.13.57.14-1.27,0-2.71-.01-4.15,0-2.03.02-4.06.04-6.09.11-.37.01-.74.27-1.26.47-.34-.15-.85-.51-1.39-.59-.34-.05-.71.41-1.1.48-.83.14-1.68.26-2.52.23-1.37-.05-2.74-.25-4.12-.32-.39-.02-.78.25-1.17.31-.73.1-1.46.17-2.19.19-.22,0-.46-.33-.67-.3-.51.08-1.01.28-1.5.42.27.19.59.43,1.1.79-.47.04-.69.08-.91.07-1.2-.03-2.39-.07-3.59-.09-2.71-.05-5.42-.1-8.12-.15-1.01-.02-2.01-.06-3.02-.07-1.48-.01-2.95,0-4.43,0,0-.09,0-.18,0-.26,1.74-.1,3.49-.2,5.29-.3-.64-.23-1.33-.75-1.81-.59-1.22.43-2.38-.37-3.59.06-.64.22-1.4.02-2.11.01-.05,0-.15.03-.15.05-.02.72-.54.45-.89.54-.13.04-.24.2-.35.3.11.11.2.29.33.33.2.06.43.01.64.02.52.03,1.04.07,1.57.1-.73.3-1.44.61-2.27.29-.38-.15-1.12-.2-1.21-.02-.28.59-.68.36-1.03.36-1.77.03-3.54.02-5.31.05-.98.02-1.96.1-2.95.1-.88,0-1.79.26-2.63-.27-.05-.03-.2.01-.23.06-.63,1.22-1.51-.26-2.2.25.08-.08.16-.16.26-.26-.62-.18-1.18-.34-1.74-.5-.32.81.67.18.66.73-1.99-.09-4.04.41-5.8-1.21-.03.1-.06.21-.09.31.49.28.99.56,1.57.9-1.53.09-2.95.36-4.31.2-1.4-.17-2.87.44-4.22-.35,3.31-.63,6.56-1.57,9.93-1.7-.67-.09-1.33-.18-1.94-.26-.07-1.06.32-1.53,1.25-1.37.39.06.79.1,1.19.1.86,0,.47.46.15,1.11,1-.77,2.07.05,2.94-.51,0-.08-.02-.16-.03-.24-.19-.05-.38-.11-.57-.16,0-.05,0-.09.01-.14h4.04c0-.09,0-.18,0-.26-2.08-.27-4.19-.12-6.28-.27,1.45-.31,2.81-1.31,4.38-.5-.91-.99-3.37-.89-3.56-.03-.37.07-.73.18-1.08.19-.75.02-1.61.89-2.23-.39.37-.22.77-.46,1.14-.67-.46-.04-.93-.14-1.39-.11-.35.02-.7.19-1,.28.36.28.66.51.96.74-.05.1-.09.2-.14.3-.84-.19-1.68-.39-2.52-.58.01-.06.02-.13.04-.19.33-.11.66-.22,1.13-.38-1.15-.19-2.15-.35-3.34-.54.24.27.31.35.38.43-.4.31-.8.61-1.2.92.1.13.2.27.26.36-1.25.11-2.47.22-3.68.33,0,.06.02.12.02.18.36.05.73.11,1.09.16-1.53.41-3.05.64-4.57.85-.94.13-1.89.22-2.83.37-1.1.18-2.19.45-3.3.58-1.05.12-2.04-.44-3.11-.38-.61.03-1.22-.2-1.83-.17-1.19.06-2.37.21-3.66.33.25-.11.4-.18.46-.21h-2.89c-.02-.11-.04-.23-.06-.34.52-.27,1.05-.54,1.64-.85-.29-.06-.52-.11-.75-.16,0-.05,0-.09.01-.14h1.32c-.16-.33-.41-.61-.65-.59-.61.04-1.21.25-1.82.33-.4.05-.81.01-1.37.01,0,.04-.06.15-.14.17-.44.11-.89.13-1.33.22-1.22.25-2.45.49-3.67.77-.34.08-.66.4-.98.39-.61-.02-1.22-.22-1.83-.29-.13-.02-.29.21-.44.33.11.1.22.21.41.38-.52.08-.95.14-1.38.21,0-.05-.02-.1-.03-.14.18-.06.37-.11.79-.24-1.2-.49-2.12-.6-3.11-.05-.44.24-1.01.32-1.51.29-1.24-.08-2.46-.32-3.7-.39-.91-.05-1.83.1-2.75.13-.92.03-1.84.03-2.76-.01-.25,0-.48-.2-.73-.31.01.04.03.08.04.12-2.48.18-4.97.36-7.45.54,0-.09-.01-.17-.02-.26.14-.1.29-.2.43-.3-.9.3-1.83-.93-2.78.21h1.74c0,.11,0,.22-.01.33-3.83-.05-7.67.29-11.5-.49,0,.08-.01.15-.02.23.21.07.42.13.81.26-.3.09-.46.2-.53.16-.53-.36-1.09-.24-1.67-.2-1.24.07-2.49.04-3.73.11-1.15.07-2.29.26-3.43.34-.49.03-.96.04-1.49-.08-.63-.15-1.4.33-2.1.53-.03-.04-.07-.08-.1-.12.23-.16.45-.33.84-.61-.39.06-.62.04-.81.13-.94.46-1.92.32-2.82,0-.92-.32-1.63.08-2.4.46h1.22c-1.75,1.08-3.61.74-5.42.89,0-.1-.02-.19-.02-.29,1.25-.14,2.5-.28,3.85-.43-.25-.1-.44-.25-.64-.24-.61,0-1.21.07-1.82.12-.22.02-.52.26-.49-.3,0-.06-.61-.21-.95-.24-.13-.01-.41.25-.39.3.42,1.24-.61.81-.95.83-1.12.08-2.25.02-3.37-.04-.79-.05-1.58-.19-2.36-.29.41-.17.8-.16,1.2-.18.32-.02.65-.07.97-.11-.01-.07-.02-.14-.04-.22-.17-.05-.34-.1-.51-.14,0-.09,0-.19,0-.28,1.88-.1,3.76-.19,5.64-.29,0-.07.02-.15.02-.22-.42-.07-.84-.16-1.26-.21-.44-.05-.88-.07-1.32-.1,2.16-.39,4.41.58,6.49-.67-.36-.05-.7.05-1.05.09-.33.03-.66,0-.99,0,0-.04,0-.08,0-.13.73-.21,1.46-.42,2.19-.63-.02-.1-.03-.2-.05-.3-.38.08-.78.27-1.14.2-.78-.14-1.51.76-2.31.08-.13-.11-.56-.08-.64.05-.71,1.03-1.69.56-2.5.47-2.15-.24-4.27-.64-6.46-.18-.98.21-2.05-.06-3.09-.11,0-.07,0-.14.01-.2.24-.04.47-.09.8-.15-.18-.13-.27-.26-.35-.25-.98.04-1.91.15-2.87.55-1.07.44-2.26.53-3.4.77-.02,0-.06-.09-.11-.17.29-.16.57-.31.85-.47-1.81-.16-3.54-.32-5.27-.47,0,.07-.02.14-.02.2.2.14.39.28.69.48-.76.28-1.3.34-2.05.12-.98-.29-2.1,0-3.17.03-1.59.04-3.18.03-4.77.12-1.44.08-2.83-.89-4.33-.07-.55.3-1.35.09-2.04.05-.1,0-.18-.33-.29-.55-.27-.07-.65-.16-1.14-.27.18.28.29.45.33.52-.91.07-1.86.14-2.8.22,0,.08,0,.16.01.24.16.14.32.27.51.44-.21.15-.35.24-.56.39h3.7c0-.09.01-.18.02-.27-.23-.03-.46-.07-.69-.1-.24-.03-.49-.06-.73-.08q2.35-.22,2.59.23c-.26.04-.51.07-.77.11,1.88.68,3.73.49,5.58-.03-.39-.1-.78-.21-1.18-.31,0-.08,0-.16.01-.24h2.69c.02.08.03.17.05.25-.31.13-.61.26-.79.34.26.21.56.45.94.75-.32.1-.49.16-.75.24.26.22.43.36.65.54-.21.12-.36.2-.51.28,0,.09-.02.17-.03.26.63.19,1.48.75,1.85.5.86-.58,1.7-.51,2.57-.46,1.38.08,2.75.3,4.13.37,1.68.09,3.37.12,5.06.13.29,0,.58-.21.87-.32-.01-.08-.03-.17-.04-.26h-1.81c0-.07,0-.14-.01-.21.83-.26,1.67-.52,2.52-.78v1.45c.81.07,1.55.15,2.29.17.31.01.63-.1.95-.16.03.1.06.21.09.31-.43.12-.85.25-1.28.37,0,.04,0,.09.01.13.97-.14,1.95-.28,3.16-.46-.36.23-.58.48-.81.49-1.86.06-3.71.07-5.57.11-.69.01-1.38.06-2.07.1-1.28.08-2.56.22-3.84.25-1.59.04-3.19.01-4.78.01,0-.11,0-.22-.01-.33,2.26,0,4.52,0,6.78,0,0-.08,0-.16,0-.23-5.87-.54-11.73-.55-17.59.17h5.81c0,.08,0,.16,0,.24-4.08.14-8.15.29-12.23.43-.44-.06-.89-.12-1.34-.16.01-.03.03-.06.04-.09-.25-.16-.5-.33-.75-.49.04-.03.1-.12.17-.12,1.31-.14,2.65-.09,3.89-.69.11-.06.27-.01.41,0,.94.04,1.88.15,2.82.11,1.28-.05,2.57-.19,3.84-.35.77-.09,1.53-.28,2.29-.42-.01-.08-.03-.16-.04-.24h-2.83c0-.07,0-.14,0-.2,1.59-.12,3.19-.25,4.78-.37-.28-.17-.57-.21-.86-.21-.71,0-1.41,0-2.12.01-2.01.04-4.02.06-6.03.15-1.19.06-2.38.26-3.57.36-1.05.08-2.18-.14-3.14.21-.96.35-1.7,0-2.53-.2-.03,0-.08.06-.17.13.06.15.13.32.19.47-1.9.16-3.75.31-5.59.47-1.22.11-2.44.27-3.67.34-1.13.06-2.26.06-3.39.04-.58,0-1.16-.19-1.73-.13-1.05.11-2.08.4-3.12.5-2.43.24-4.86.39-7.29.62-.58.06-1.15.3-1.72.46.01.08.03.17.04.25.66-.04,1.32-.07,1.98-.11-.77.32-1.68.75-2.32.46-.83-.37-1.52-.26-2.32-.03-.04-.42-.07-.74-.09-1.05-.04,0-.08,0-.12-.01-.09.4-.19.8-.3,1.27-.43-.11-.86-.21-1.08-.27-.43.17-.81.2-1.03.41-.56.55-1.05-.07-1.56-.02-1.2.1-2.41.19-3.59.4-.38.07-.71.5-1.07.76-.06.07-.13.14-.19.21-.32.06-.64.11-1.02.18.23.21.43.39.63.57-.26.12-.45.21-.77.36.47.18.75.29,1.05.4.05-1.07,1.43-1.62,2.92-1.2-.11.17-.22.33-.33.49.05.04.1.09.15.13.14-.16.27-.32.41-.48,0,0,0,0,0,0,.25.24.51.48.72.68-.25.39-.46.73-.72,1.14-.49-.09-1.05-.2-1.88-.36.45.26.68.39,1.04.59-.87.07-1.48.76-2.38.26-.6-.34-1.35-.31-1.93.27-.36.36-.72.71-1.07,1.06.03,0,.2.07.49.16-.69.46-1.68.09-1.93,1.14,0,.04-.31.01-.47,0-.25-.03-.49-.08-.86-.14.28.34.44.55.69.86-.39-.09-.68-.16-.96-.23.04.47.08.88.11,1.32.3-.12.59-.23.89-.35,0,.04.01.09.02.13-.85.69-1.71,1.38-2.6,2.1,0,.14,0,.35,0,.56.05.92-.23,1.47-1.2,1.54-.44.03-.85.42-1.28.65.04.07.07.14.11.21.16-.01.33-.02.6-.05-.17.25-.26.39-.51.75,1.25.22,2.38.41,3.52.61-.17.18-.35.36-.58.59.26.03.43.05.61.07-1.07.4-1.31,1.26-1.17,2.31.26-.03.55-.05.94-.09-.3.44-.5.72-.69,1-.1.11-.19.23-.29.34-.22.27-.47.53-.66.83-.2.31-.34.66-.48.93v1.6c-.39.04-.72.07-1.08.11.04-.23.07-.43.1-.63-.3.15-.56.37-.54.57.05.5.09,1.19.39,1.41.32.23.93.05,1.39-.05.2-.05.36-.35.65-.66.12.74.19,1.17.25,1.55.3-.18.55-.33.79-.48.22-.13.46-.24.67-.39.19-.12.35-.28.53-.42.04.07.09.14.13.2-.81.93-1.71,1.68-2.97,1.67-.07-.08-.14-.15-.21-.23.25-.06.5-.12.81-.2-1.24-.79-1.67.3-2.32.75.24-.02.47-.04.83-.06-.28.27-.49.46-.73.68.96.1,1.82.18,2.68.27,0,.07,0,.14-.01.21-.56.05-1.12.1-1.69.15,0,.09,0,.18,0,.27h1.93c-.2.3-.28.42-.49.72.74-.08,1.32-.14,2.06-.22-.37.33-.63.56-.85.77.15.12.31.25.54.44-.46.19-.84.35-1.31.54.54.06.97.11,1.4.15,0,.08,0,.16,0,.25-.55.12-1.09.24-1.64.36,0,.07.02.13.03.2,1.33-.08,2.66-.16,3.8-.23-.03.19-.08.46-.1.54-.33.24-.8.41-.81.61-.05,1.27-.84.94-1.71.98.54-.28.9-.47,1.42-.74-1.04-.15-1.84-.24-2.1.94.14.2.28.39.34.48.57-.08,1.08-.15,1.59-.22v.62c.29.33.53.61.74.85-.98.35-1.83.65-2.68.96.03.09.05.18.08.27.93-.28,1.87-.56,2.8-.83.03.1.05.2.08.3-.98.38-1.96.76-2.94,1.13.03.07.05.14.08.21,1.02-.32,2.04-.64,3.06-.96.03.09.06.18.09.27-.56.27-1.13.54-1.5.72v1.21c1.05-.44,2.11-.89,3.34-1.42-.98.79-1.78,1.5-.25,2.32-.2.13-.36.23-.67.43.84-.15,1.5-.26,2.16-.37.03.14.05.29.08.43-.9.21-1.81.43-2.72.64.15.33.27.58.45.98h2.62c-.58.26-1.05.47-1.53.68.73.07,1.4.02,2.05-.13.56-.13,1.09-.36,1.64-.55h.35c-.54.34-1.08.69-1.64,1.05.21.09.42.18.72.31-.28.16-.45.26-.73.42.69.04,1.26-.03,1.76.12.42.13.77.53,1.16.82-.48.07-.95.13-1.41.2.06.04.12.08.18.13-.25.4-.49.81-.78,1.29.52-.08,1.06-.16,1.59-.24.02.09.03.17.05.26-.15.1-.31.21-.54.37.52-.07.9-.16,1.28-.16.44,0,.88.15,1.31.15.33,0,.65-.16.98-.25.02.08.04.17.06.25-.59.18-1.18.36-1.79.55.07.19.14.36.24.59-.57.05-1.06.05-1.55.14-.5.08-.98.24-1.48.37.07.07.22.21.33.32-.25.29-.5.58-.76.88.04.05.09.1.13.15.23-.13.46-.26.76-.42-.11.27-.18.45-.29.74.34-.09.56-.15.84-.23-.6.43-1.13.81-1.57,1.13.26.43.41.67.54.9.33-.16.62-.35.93-.42.5-.11,1.01-.14,1.52-.19.19-.02.39.05.58.06.21.01.42.02.63,0,.73-.06,1.46-.12,2.19-.19,0,.08,0,.16,0,.24-.65.09-1.29.18-1.94.27,0,.05,0,.1.01.15,1.26-.07,2.53-.13,3.79-.2,0-.11-.02-.23-.02-.34-.44.06-.88.12-1.32.18-.01-.09-.02-.19-.04-.28.54-.13,1.09-.26,1.63-.39,0-.04,0-.08-.01-.12h-1.9c.57-.25.9-.51,1.24-.53.7-.03,1.49-.42,2.06.48.1.16.61.14.88.03.56-.23.7.09.8.57-.77.11-1.51.21-2.26.31,0,.03,0,.07,0,.1.74.08,1.48.15,2.23.23-.51.21-1.02.24-1.5.38-1.34.4-2.68.85-4.01,1.27,0,.05,0,.09.01.14h1.58c.01.1.02.19.03.29-.4.07-.8.19-1.2.2-.38.01-.77-.14-1.14-.11-.88.07-1.75.22-2.63.32-.16.02-.33-.05-.49-.1-.58-.19-1.2-.76-1.65.22-.02.04-.27-.04-.52-.08.73.84,1.55.69,2.36.74.42.03,1.08-.56,1.34.35,0,0,.22-.09.33-.08.2.01.39.07.58.12,0,.05,0,.1-.01.16-.81.23-1.63.46-2.75.78,1.27.26.1.57.46.95,1.22-.28,2.52-.59,3.82-.89-.01-.08-.03-.15-.04-.23-1.11.18-2.23.37-3.34.55-.02-.11-.03-.21-.05-.32.75-.17,1.49-.4,2.24-.5.8-.11,1.27-.39.86-1.54.78.56,1.86-.17,2.19,1.09.01.05.31.03.46.01,1.83-.24,3.65-.51,5.48-.71.51-.06,1.04.15,1.56.16,1.76.02,3.52,0,5.51,0-.35.19-.54.31-.73.39-.56.23-1.12.14-1.7.11-.6-.02-1.22.61-1.83.95.02.06.05.11.07.17.49-.1.98-.19,1.47-.29h0s0,0,0,0c0,0-.03.01-.03.01,0,0,0,0,0,0,0,0,0,0,0,0,.52-.08,1.04-.16,1.56-.25,1.44-.26,2.88-.56,4.32-.8.4-.06.82.04,1.23.07,0,.05-.01.09-.02.14-.62.07-1.23.14-1.85.22,0,.15.02.29.03.44,3.48-.67,6.95-.86,10.38.17h-1.85c0,.06,0,.12,0,.18.21.03.42.06.54.08-.12.13-.25.27-.44.48.29.16.45.25.69.38-.28.09-.48.16-.68.22.03.2.06.37.14.82-.49-.32-.78-.52-1.07-.71-.19.37-.33.99-.84.12-.12-.2-.73-.06-1.11-.08.02.83-.26.38-.63.25-.47-.17-1.04-.21-1.51-.08-.61.17-1.17.35-1.81.16-.38-.11-.88-.26-1.16-.09-.67.42-.95.38-1.09-.22-.37.17-.77.35-1.32.59.12-.42.16-.57.21-.73-1.05.33-2.05.64-3.05.95,0,.04.01.08.02.12.37.06.73.11,1.1.17-.02.08-.03.16-.05.25-.92-.2-1.85-.4-2.77-.6-.04.1-.09.2-.13.29.3.19.59.38.85.54-.19.09-.44.2-.69.31.02.1.04.2.06.29.59,0,1.18,0,1.77,0,0,.06,0,.12-.01.18h-2.23c-.22-.3-.36-.5-.51-.7.2-.18.39-.36.59-.54-.02-.07-.05-.14-.07-.21h-1.73v.58c-.43.19-.82.36-1.22.53-1.22.19-2.44.39-3.66.58,0,.07,0,.15,0,.22h2.36c0,.14,0,.28,0,.42h-2.34c.32.12.63.27.96.33.6.12,1.21.18,1.81.26,1.14-.39,1.45-.37,2.8.48-.5.06-.9.11-1.3.16.01.1.03.2.04.31.51-.07,1.01-.14,1.57-.21-.12-.53-.54-1.01.25-1.02,2.15-.03,4.3-.08,6.45-.12.74-.01,1.47,0,2.21,0,0-.12,0-.23,0-.35h-2.94c0-.12,0-.24,0-.36.72,0,1.43-.01,2.15,0,.3,0,.76-.04.88.14.58.92,1.4.59,2.17.46-.55-.1-1.1-.21-1.65-.31.01-.09.03-.19.04-.28.98.06,1.97.13,2.95.19,0,.1,0,.19,0,.29h-.92c0,.08-.01.17-.02.25.65.17,1.37.61,1.92.44,1.5-.47,2.93.14,4.4.06,1-.05,2.1.23,3.01.97-.32.02-.63.04-.94.06,0,.05,0,.11.01.16h1.84c.01-.05.02-.1.03-.15-.17-.06-.33-.11-.5-.17.11-.15.21-.28.27-.35.44.31.79.67,1.21.83.35.13.78.03,1.17.03,0,.08,0,.15,0,.23h-1.83c.08.17.17.34.32.66-.46-.09-.78-.15-1.19-.22.19-.1.3-.16.4-.22-.01-.04-.02-.09-.04-.13-1.08.1-2.15.19-3.23.29,0,.14.01.29.02.43h9.18c0,.14,0,.28,0,.42h-10.61c0,.09-.01.17-.02.26.29.03.57.09.86.09.77,0,1.56-.15,2.31-.02,1.02.17,2.03.29,3.05.11.1-.02.23.04.32.11.29.21.58.44.8.61.12-.35.18-.74.26-.74.94-.04,1.87-.03,2.81-.03,0,.05,0,.11,0,.16-.8.06-1.6.12-2.4.18,0,.12.01.23.02.35h2.7c0,.06,0,.12-.01.18-.82.09-1.64.18-2.61.28.33.1.52.17.72.23-.03.09-.06.17-.08.26h.1c.03.49.05.71.07,1.08h6.72c0-.07,0-.15.01-.22h-5.09c0-.14,0-.28,0-.43,3.88-.27,7.76-.17,11.79,0-.38.27-.67.46-1.05.73h5.5s-.01-.07-.02-.11c-1.37-.15-2.74-.31-4.11-.46,0-.08,0-.16.01-.24.19-.04.38-.11.57-.1,1.24.05,2.49.15,3.73.17,1.86.03,3.73,0,5.59-.01,1.13-.01,2.22.35,3.37.32,1.31-.03,2.63.32,3.95.47.7.08,1.42.05,2.12.08.95.04,1.89.1,2.84.09.2,0,.4-.28.51-.36.47.05.86.08,1.23.14.38.07.75.18,1.12.27,0,.08-.02.15-.02.23h-1.87s0,.06.01.09c.52.15,1.04.31,1.67.49,1.07-.56,2.24-.45,3.25.26.31-.18.57-.33.96-.55-.04.62-.06.98-.09,1.5-1.54-1.06-2.98-.09-4.45-.11.39.17.78.18,1.17.17,1.17-.04,2.31-.09,3.5.23.69.19,1.67.49,2.39-.26l-.03.03s.02,0,.03,0v-.02c.23-.09.46-.18.75-.3-.41-.06-.77-.11-1.13-.16,0-.07-.02-.14-.03-.2.42-.12.85-.23,1.3-.35-.26-.09-.49-.16-.73-.24.01-.04.02-.07.03-.11.99.15,1.98.31,2.97.46,0,.05.02.09.03.14-.61.13-1.22.25-1.83.38.05.1.06.18.1.19.11.03.23.07.33.05,1.15-.24,2.26-.18,3.34.36.11.06.31.05.41-.03.61-.49,1.18-.4,1.85.18-.04-.28-.06-.44-.09-.64.13,0,.23-.04.34-.02.81.11,1.63.23,2.44.35.32.04.64.07.96.11,0,.06-.01.12-.02.17-.88.1-1.76.21-2.64.31.01.12.03.24.04.36,1.73-.17,3.47-.34,5.2-.51,0-.09.01-.19.02-.28-.18-.11-.36-.22-.54-.33.63,0,1.17.28,1.73.38.59.1,1.21.02,1.82.02,0,.08,0,.16.01.25-.83.26-1.67.52-2.5.77.03.13.07.27.1.4,1.17-.24,2.34-.48,3.55-.73-.19-.18-.46-.44-.85-.82.73-.17,1.36-.32,2.04-.48h2.33c-.42.33-.85.5-1.25.74-.37.23-.35.44.04.72.45.33,1.18.18,1.61-.35-.43.03-.83.05-1.24.08-.01-.07-.02-.15-.04-.22.58-.13,1.17-.2,1.72-.4,1-.36,2.28.32,2.94-.95.07.98.89.25,1.2.67-1.31.69-2.9.08-4.32,1.04,5.51-.58,10.84-.22,16.23-.28-.55-.3-1.01-.56-1.47-.8-.09-.05-.24-.09-.31-.05-.78.62-1.21-.11-1.8-.48.38-.16.69-.28.99-.41-.01-.06-.02-.12-.04-.18-.24-.04-.49-.07-.73-.11,0-.05,0-.09,0-.14h2.62c0,.06,0,.13,0,.19-.53,0-1.07,0-1.6,0,0,.08,0,.16,0,.25,1.75.39,3.51.55,5.3.1.05.08.1.15.14.23-.19.25-.38.5-.59.78.14.04.32.09.49.14-.33.13-.57.57-.97-.05-.23-.36-.97-.41-1.49-.46-.25-.02-.53.27-.77.41q.66.71,1.64.57c.17-.02.34-.04.51-.03,1.4.09,2.8.21,4.2.28.39.02.78-.1,1.17-.15.02.08.03.16.05.24-.22.11-.43.22-.54.28,1.11-.12,2.32-.25,3.53-.38-.04.1-.07.21-.11.31.09.09.18.27.28.27,1.24.04,2.48.04,3.72.09,1.03.04,2.1-.02,3.08.26.97.28,2.02-.74,2.9.3.07.08.41-.15.62-.15,1-.04,2-.06,3-.05.27,0,.74.26.78.18.18-.34.38-.79.3-1.13-.06-.27-.47-.53-.02-.72.21-.09.55.21.83.33.2.08.4.17.76.32-.33.1-.52.15-.7.21.4.16.75.31,1.16.47.04-.18.1-.43.19-.87,1.14.17,2.3.31,3.46.53.92.17,1.77,1.16,2.78.27.05-.04.21-.02.24.03.55.83.85.2,1.25-.2.43-.44.74-1.13,1.55-.91.59.16,1.21.18,1.82.27.05,0,.08.15.12.23.03-.05.04-.13.08-.14.76-.23,1.52-.5,2.25.15.07.06.4-.22.71-.41.04.12.12.38.18.56.58,0,1.14,0,1.7,0,.7,0,1.42.12,2.1.02,1.1-.16,2.17-.52,3.27-.69.81-.13,1.63-.13,2.45-.14,1.92-.02,3.85,0,5.77,0,0,.05.01.1.02.15-.92.11-1.83.22-2.75.33.01.07.03.15.04.22h3.67c-.09-.25-.15-.4-.21-.58,1.04-.07,2.04-.33,2.96-.15.89.17,1.91-.73,2.68.35.01.02.05,0,.14.01-.01-.14-.02-.27-.03-.36.84-.3,1.83.22,2.57-.67-.74-.08-1.45.03-2.17.08-.36.02-.74-.07-1.1-.13-.17-.03-.33-.17-.5-.16-1.4.07-2.8.16-4.21.23-.12,0-.25-.16-.44-.3,3.89-.49,7.64-.1,11.4.03,0,.11,0,.22,0,.33-.73-.07-1.46-.14-2.18-.21,0,.12-.02.23-.03.35.51.07,1.01.17,1.52.19.84.04,1.69.03,2.53.06.57.02,1.19.24,1.7.07,1.03-.34,1.86-.25,2.66.74-.29.04-.48.07-.67.1,0,.03,0,.06,0,.09h.93s0,.02.01.03c.02,0,.04-.01.06-.02,1.14.33,2.22-.03,3.3-.36.02,0,.04,0,.05,0l.15-.02c.67.02,1.35.06,2.02.05.27,0,.57-.11.81-.26,1.21-.8,2.46-.58,3.72-.25,0,0-.01,0-.02,0,.02,0,.03,0,.05,0,0,0,0,0,.01,0l-.02-.02c1.28,0,2.57-.02,3.85-.02,1.6,0,3.2.04,4.8.04.15,0,.3-.2.37-.25.43.14.83.38,1.24.39,2.09.04,4.18.01,6.27.04.62,0,1.23.12,1.85.18.31.03.62.06,1.19.12-.02,0,.19.04.39.09,0,0,0,0,0,0-.07.2-.14.39-.2.57-.27-.05-.52-.09-.78-.13-.02.12-.03.24-.05.36,1.68-.18,3.32-.11,4.82.62.29-.08.79-.15.84-.03.28.73.85.59,1.26.44.89-.33,1.73-.81,2.63-1.25-.73.1-1.45.29-2.17.27-1.44-.04-2.89-.17-4.33-.34-.69-.08-1.36-.35-2.04-.54,5.1.14,10.2.28,15.3.42,0,.06,0,.12,0,.17-.6.04-1.2.07-1.8.11,0,.1.01.19.02.29,1.94,0,3.88.48,5.81-.15-.1-.15-.2-.18-.3-.23-.11-.06-.22-.14-.47-.3,3.37.34,6.52.1,9.62-.73-1.39.04-2.78.25-4.17.22-3.02-.06-6.05-.25-9.07-.38-1.69-.07-3.39-.17-5.08-.21-1.24-.03-2.49,0-3.73,0,1.27-.36,2.46-.98,3.85-.43.82.33,1.8.29,2.68-.15.17-.08.41,0,.62.02.69.05,1.45.32,2.05.1,1.06-.38,2.05-.56,3.12-.18.2.07.45.04.67,0,.58-.1,1.14-.27,1.72-.33.57-.06,1.15-.02,1.72-.02.45,0,.9-.03,1.35-.04,1.14,0,2.28,0,3.42,0,0-.1,0-.21,0-.31-.88,0-1.76.01-2.64,0-.52-.01-1.36.12-1.5-.15-.35-.66-.81-.32-1.22-.41.15.09.29.19.44.29,0,.05-.02.09-.03.14-.51-.07-1.02-.14-1.67-.23-.47.51-7.52.55-8.16.06-1.06.14-1.92.25-2.77.35-.04,0-.09-.14-.14-.22,0,0,0,0,0,0-.02-.34-.1-.57.47-.58.56-.01,1.29.07,1.75-.57.06-.09.3-.06.46-.03.74.12,1.48.3,2.22.37.61.06,1.23-.01,1.85,0,.62.01,1.24.09,1.86.09.46,0,1.07-.31,1.35-.09.71.56,1.15.02,1.69-.2.14-.06.29-.1.43-.09.91.09,1.82.26,2.73.29,1.47.04,2.94-.04,4.4,0,3.26.07,6.52.17,9.78.25.5.01,1,0,1.5,0,0-.12,0-.24,0-.36h-3.68c0-.08-.02-.17-.03-.25.11-.06.22-.14.34-.16,1.37-.27,2.74.16,4.17-.3,1.18-.39,2.61.12,3.93.2,1.46.09,2.93.2,4.39.18,1.09-.02,2.18-.28,3.27-.33.7-.03,1.4.19,2.1.18,1.81-.01,3.62-.13,5.43-.12.79,0,1.58.27,2.38.31.97.04,1.94-.05,2.91-.09.43-.01.86,0,1.29-.04.89-.09,1.77-.24,2.66-.32.47-.05.95,0,1.43-.02,1.39-.07,2.78-.19,4.17-.22.89-.02,1.79.1,2.69.16,0-.09.01-.18.02-.27-1.36-.11-2.72-.28-4.09-.31-1.51-.04-3.03.04-4.55.05-.87,0-1.73-.04-2.6-.04-1.37,0-2.75.02-4.12.05-.65.02-1.31.09-1.96.14-.38.03-.76.08-1.13.07-2.14-.06-4.28-.15-6.42-.19-1.2-.02-2.44.43-3.73-.47,2.47-.8,4.91-.68,7.52-1.01-.19.16-.28.24-.31.26,1.82,0,3.75,0,5.69,0,0-.08,0-.16,0-.24-.7,0-1.41,0-2.11,0-.42,0-1.09.15-1.22-.07-.48-.79-1.23-.62-1.87-.83,1.98-.09,3.96-.21,5.94-.26,1.54-.04,3.07-.01,4.61-.02,1.65,0,3.3,0,4.95,0,.27,0,.65.47.77-.21,0-.04.32-.01.49,0,1.72.06,3.45.11,5.17.2.52.03,1.04.22,1.56.28.68.08,1.41.67,2.18-.15-.93-.15-1.72-.27-2.52-.4,0-.14,0-.29.01-.43,1.39-.1,2.79-.17,4.17-.32.77-.08,1.64.42,2.31-.43.1-.13.44-.02.64-.1.44-.17,1.23-.39,1.23-.58-.02-1.05.66-.72,1.13-.82.44-.1,1.17-.09,1.25-.32.26-.81.81-.58,1.29-.63.59-.07,1.13-.18,1.61-1.06-1.05.16-1.88.28-2.86.43.23-.31.36-.48.4-.53h-10.88c.19-.15.32-.26.5-.41-.67-.11-1.24-.21-1.8-.3.53-.29,1.05-.79,1.61-.84,2.36-.22,4.73-.3,7.15-.44-.35-.97-.12-1.36.56-1.62,1.14-.42,2.25-.93,3.37-1.4-.04-.12-.09-.24-.13-.36-.44.22-.86.49-1.32.63-.51.16-1.05.21-1.58.27-.48.05-.96.06-1.45.08-.01-.12-.02-.24-.03-.36,1.44-.41,2.87-.82,4.31-1.23,0-.07-.02-.14-.02-.21-.45-.13-.89-.27-1.42-.42.42-.13.74-.24,1.06-.34-.01-.04-.03-.08-.04-.12h-2.47c0-.06,0-.13,0-.19,1.22-.08,2.44-.16,3.65-.25,0,.05.01.1.02.15-.18.07-.36.13-.62.23h1.28s-.06-.08-.08-.11c1.14-.17,2.33-.35,3.52-.53,0-.07-.02-.14-.02-.21-.26.05-.52.1-.79.16.22-.64.42-1.21.61-1.75-.23-.23-.47-.46-.71-.7.23-.16.38-.26.53-.36-.02-.07-.03-.14-.05-.21h-2.14c0-.15,0-.3-.01-.45.93-.11,1.85-.23,3.01-.37-.5-.07-.78-.11-1.21-.17.51-.1.87-.18,1.23-.25,0-.05-.01-.11-.02-.16-3.28-.14-6.57-.28-9.85-.42,0-.07-.01-.13-.02-.2,3.76-.53,7.52-1.05,11.27-1.58-.61-.18-1.21-.22-1.81-.27-.71-.06-1.43-.1-2.14-.21-.51-.08-1-.27-1.5-.41.02-.08.04-.16.06-.24h1.54c-.14-.13-.19-.18-.24-.22-.02-.02-.06-.01-.08-.03-.01,0-.01-.04-.02-.06,1.51-.16,3.01-.31,4.51-.47,0-.06,0-.13-.01-.19-2.02.12-4.04.24-6.06.36,0-.12,0-.25,0-.37h1.17c-.12-.14-.2-.25-.34-.42.59-.05,1.1-.08,1.78-.14-1.8-.47-3.57.5-5.23-.92,1.64-.21,3.14-.41,4.77-.62-1.59-.17-3.06-.32-4.52-.48,0-.08,0-.17,0-.25h6.07c-2.33-.6-4.65-.71-6.97.01-.03-.1-.06-.2-.09-.3.52-.39,1.04-.79,1.57-1.18-.33-.23-.65-.46-.98-.69.03-.12.07-.24.1-.36h6.07c0-.11.02-.22.02-.33-1.74-.38-3.49-.77-5.23-1.15,0-.1,0-.19,0-.29,2.29-.26,4.59-.51,6.88-.77-.2-.15-.4-.29-.6-.44-1.96.11-3.92.22-5.88.32,1.88-1.46,3.96-1.9,6.34-1.8-.31-.24-.41-.32-.57-.45,1.1-.09,2.12-.17,3.19-.25-.11-.17-.22-.35-.39-.62,1.19-.18,2.29-.35,3.4-.52,0-.11,0-.22-.01-.33-1.2-.06-2.41-.13-3.61-.19,0-.06,0-.11.01-.17,1.04-.12,2.09-.24,3.13-.36-1.23,0-2.46-.72-3.68.02-.22.13-.61-.03-.91-.12-.7-.21-1.39-.45-2.21-.72,2.1-.54,4.15-.47,6.2-.25-.14-.18-.28-.34-.41-.51-3.23-.48-6.6-.97-9.98-1.47,0-.11.01-.22.02-.33,1.58-.22,3.17.12,4.78-.05ZM32.51,57.84s0,0,0,0c-.01,0-.02-.01-.04-.02,0,0,0,0,0,0,.01,0,.02,0,.03.01ZM9.91,29.92h0c-.1-.08-.2-.16-.31-.24.11.09.21.16.31.24ZM189.87,5.98h0s0,0,0,0c-.09.16-.16.44-.27.45.11-.02.18-.29.27-.45Zm116.54,3.15c-.21.02-.42.07-.63.13,0,0-.01,0-.02,0,.22-.05.43-.11.65-.13Zm34.6,51.58s-.02-.03,0,0h0Z"/>
      <path class="cls-1" d="m316.29,77.47c-2.21-.1-4.43-.19-6.64-.25-1.15-.03-2.29.01-3.44-.01-2.44-.06-4.88-.15-7.32-.2-.76-.01-1.51.11-2.27.1-1.68-.02-3.37-.07-5.05-.12-.65-.02-1.31-.06-1.96-.06-.24,0-.48.1-.72.16.01.08.02.15.03.23,8.64.38,17.29.76,25.93,1.14,0,.02,0,.04.01.06-.59.06-1.19.11-1.78.17,0,.08.01.17.02.25,1.93.02,3.87.48,6.03-.08-.44-.24-.64-.35-.85-.46.01-.08.02-.16.04-.23,1.01.31,2.01.38,3.04.23,1.08-.16,2.19-.06,3.28-.18,1.04-.12,2.06-.37,3.09-.56-1.61-.03-3.19.15-4.77.13-2.22-.03-4.44-.21-6.66-.31Z"/>
      <path class="cls-1" d="m214.9,3.66s.01-.02.02-.02c-.02-.02-.03-.05-.05-.07h0s.02.06.03.09Z"/>
      <path class="cls-1" d="m215.15,3.89c.61.03,1.22.02,1.91.02-.32.3-.56.52-.84.78,1.09.09,2.07.17,3.04.25,0,.06,0,.12-.01.17-.24.05-.48.1-.73.14,0,.04,0,.08,0,.12.72.11,1.43.21,2.15.32,0,.08,0,.15-.01.23h-2.7c-.05.34-.08.58-.09.64.52.18.95.43,1.38.44.45.01,1.1-.05,1.31-.35.44-.67.87-1.28,1.61-1.47.71-.18,1.43-.52,2.2-.12.19.1.48-.06.71-.04,1.11.1,2.13-.97,3.28-.29.08.05.22-.02.33-.02.94-.06,1.88-.13,2.82-.17.84-.03,1.67,0,2.53,0-.07-.29-.12-.51-.17-.73-1.42-.06-2.85-.11-4.27-.17-1.06-.04-2.11-.1-3.17-.11-1.24,0-2.48.06-3.72.06-1.06,0-2.12-.06-3.19-.04-.33,0-.67.33-.99.29-1.02-.12-2.03-.35-3.06-.54.2-.17.39-.33.74-.62-.73.22-1.24.37-1.78.54.21.14.37.24.53.34-.02.02-.04.05-.06.07.08.11.15.25.23.26Z"/>
      <path class="cls-1" d="m181.83,4.53c-.41.07-.83.14-1.24.21.01.07.02.15.03.22.35-.02.7-.08,1.05-.07.91.03,1.87-.1,2.72.17.94.3,1.8.04,2.66-.08.71-.1,1.32-.76,2.14-.6.14.03.31-.13.58-.25h-2.31c0-.05,0-.1-.01-.15.2-.05.41-.09.61-.14,0-.11-.01-.22-.02-.33-2.99.13-5.98.25-8.97.38,0,.12,0,.25,0,.37h2.78c0,.09-.01.18-.02.27Z"/>
      <path class="cls-1" d="m204.4,7.12s.02-.03.02-.03c-.01,0-.02,0-.03,0,0,0,0,.01.01.02Z"/>
      <path class="cls-1" d="m204.78,6.47c1.18-.02,2.36-.08,3.53-.1.84-.01,1.65.1,2.14.91,1.9-.88,3.93-.5,5.86-.92-4.51-.78-9.03-.32-13.56-.29.18.16.36.32.54.49-.15.2-.25.34-.46.62.63-.04,1.1-.06,1.56-.09-.26-.47-.07-.62.39-.63Z"/>
      <path class="cls-1" d="m76.28,78.87h.87c-.5.27-.78.42-1.18.63v-1.11c-1.04-.14-2.04-.27-3.04-.4,0-.04,0-.08,0-.12h2.91c0-.08-.01-.16-.02-.24-1.21-.07-2.41-.14-3.74-.22.18.32.26.45.32.55-.46.11-.87.2-1.23.28.06.15.1.24.14.34-.16.05-.32.1-.45.14-.12-.39-.24-.76-.29-.93h-3.31s0,.1,0,.14c.14.07.28.13.41.2,0,.09-.02.18-.03.27-.31-.02-.79.09-.9-.08-.37-.56-.69-.37-1.08-.12-.37.25-.68.62-1.22.3-1.23-.72-2.63-.55-3.95-.62-.91-.05-1.84.25-2.8.04-.7-.15-1.46.04-2.2.06-1,.03-1.99.06-2.99.06-1.29,0-2.59,0-3.88-.02-.01.59.33.77.8.75.93-.05,1.85-.15,2.78-.19.8-.03,1.61,0,2.42,0,0,.05,0,.1,0,.14-1.18.12-2.36.23-3.54.35,0,.1,0,.2.02.29h12.64c.05-.04.11-.08.16-.12-.26-.18-.52-.35-.78-.53.93.04,1.77.51,2.65.06-.25.26-.5.51-.77.79.59-.09,1.14-.18,1.68-.26.97.14,1.93.33,2.9.41.43.04,1.05.3,1.19-.58.02-.1.43-.13.67-.19.66.08,1.32.16,2.22.27-.44.15-.66.26-.89.3-.22.04-.45,0-.68,0,1.93.18,3.88.67,5.77-.25-.05-.98-.33-1.1-1.56-.41Z"/>
      <path class="cls-1" d="m245.18,81.27c-.66.17-1.36.2-1.79-.58-.02-.03-.09-.03-.16-.06.03.17.06.32.07.39-3,.75-6.03.37-9.01.71,1.28.12,2.56.18,3.83.38,1.17.18,2.35-.45,3.51.15.2.1.53.05.74-.07,1.04-.6,1.98-.07,2.95.22.21.06.49-.16.74-.25-.26-.33-.08-1.09-.88-.88Z"/>
      <path class="cls-1" d="m42.35,72.53c0,.08.01.16.02.24h2.49c.01.05.02.1.04.16-.58.14-1.16.29-1.74.43.77.3,1.66-.14,2.21.77.03.04.16.02.24.01.97-.11,1.94-.23,2.9-.35,0-.1,0-.21,0-.31h-2.16c.05-.31.28-.9.13-1.04-.31-.29-.53-.94-1.23-.58-.33.17-.84-.08-1.27-.14-.07-.12-.15-.24-.22-.36.24-.05.48-.09.72-.14-.06-.06-.12-.12-.18-.17-.49.05-.98.11-1.69.19.52.12.81.19,1.1.25-.01.11-.03.22-.04.33-.41-.03-.81-.06-1.22-.09-.01.06-.02.11-.04.17.35.14.69.28,1.04.41,0,.04-.01.08-.02.13-.36.03-.72.06-1.09.09Z"/>
      <path class="cls-1" d="m296.59,78.91c-.47-.08-.96,0-1.44.04-.99.06-1.97.15-2.96.19-.93.03-1.86,0-2.78,0-1.31,0-2.63,0-3.94,0,0,.07-.01.14-.02.21.29.06.57.14.86.16,1.06.09,2.13.12,3.19.24,1.11.13,2.25-.4,3.35.15.18.09.48.05.66-.06,1-.61,1.94-.1,2.89.15.22.06.44.07.67.11.02-.18.1-.4.03-.54-.12-.25-.31-.61-.51-.65Z"/>
      <path class="cls-1" d="m33.83,7c.02.08.03.15.05.23.3-.06.6-.1.9-.18.38-.1.74-.3,1.12-.35,1.84-.23,3.68-.41,5.52-.63.52-.06,1.04-.17,1.57-.26-1.37-.11-2.69.02-4.02.1-1.31.08-2.58.85-3.93.41,0-.1,0-.2,0-.3,2.68-.34,5.35-.68,8.03-1.02-1.09-.39-8.27.72-9.46,1.42.59.03,1.01.05,1.63.09-.6.21-1.01.36-1.41.5Z"/>
      <path class="cls-1" d="m212.46,4.18h-2.79c.58,1.1,1.06,1.27,1.73.86.45-.28.99-.41,1.51-.51.63-.12,1.27-.13,1.9-.19,0-.08,0-.16,0-.23h-1.94c.82-.22,1.4-.38,1.98-.54-.41-.06-.83-.06-1.21-.2-.81-.32-1.56-.29-2.33.33.39.08.78.15,1.17.23,0,.09-.02.17-.02.26Z"/>
      <path class="cls-1" d="m214.87,3.56s-.01,0-.02,0c0,0,.01,0,.02,0,0,0,0,0,0,0Z"/>
      <path class="cls-1" d="m298.6,78.38c-.01.09-.03.18-.04.26.14.04.28.1.43.1.71.01,1.43-.06,2.13.03.93.12,1.8.66,2.78.49.09-.02.27.04.29.11.26.74.83.59,1.28.42.74-.29,1.46-.65,2.17-1-3.01-.14-6.02-.28-9.03-.42Z"/>
      <path class="cls-1" d="m308.07,78.59c-.15.07-.29.14-.43.21.15,0,.3.01.45.02,0-.08,0-.15-.01-.23Z"/>
      <path class="cls-1" d="m101.35,80.2c.4.15.61.23.97.37-.42.15-.66.24-.9.32,0,.06.02.13.02.19h2.08c.69-.31,1.43-.58,2.19-.71.89-.15,1.8-.18,2.71-.26,0-.05,0-.09,0-.14-1.25-.16-2.5-.32-3.75-.48,0,.2,0,.4,0,.7h-3.31Z"/>
      <path class="cls-1" d="m121.45,81.43c-1.05-.17-2.18.17-3.27.27-.18.02-.39-.07-.56-.16-.27-.15-.53-.34-.79-.52-.03.07-.07.14-.1.21.1.05.2.09.29.14,0,0-.02.05-.02.08-.64.12-1.24.47-1.94.16-.25-.11-.64.17-1.05.3h9.47c0-.09,0-.18,0-.27-.62-.47-1.34-.09-2.02-.2Z"/>
      <path class="cls-1" d="m109.97,4.19c1.36-.21,2.71-.49,4.07-.68,1.44-.2,2.88-.33,4.32-.52.1-.01.17-.28.22-.38-3.23.38-6.43.76-9.62,1.14,0,.15,0,.3.01.45.33,0,.67.04,1,0Z"/>
      <path class="cls-1" d="m314.51,3.7c.05.03.16-.06.24-.07.93-.15,1.87-.3,2.8-.45,0-.08-.01-.16-.02-.25-2.48-.4-4.94.16-7.43.31.05.03.09.09.14.09,1.42.15,2.89-.39,4.28.37Z"/>
      <path class="cls-1" d="m238.77,3.51c3-.89,6.16-.59,9.17-1.37,0-.09,0-.18-.01-.27-3.16.37-6.33.74-9.49,1.12,0,.1,0,.19,0,.29.11.08.25.26.33.24Z"/>
      <path class="cls-1" d="m30.77,72.8c.2.09.41.19.61.28-.03.09-.05.19-.08.28-.58-.19-1.16-.37-1.77-.57.26.84.98.68,1.49.83,1.23.37,1.38.22,1.67-1.16.08.38.16.76.2.96h.9c.04-.29.1-.64.16-1.09-1.04-.48-2.07.24-3.19.46Z"/>
      <path class="cls-1" d="m88.24,77.66c0,.09.02.17.03.26,1.27,0,2.54-.01,3.81.02.18,0,.35.21.52.33-.16.1-.31.26-.48.3-.51.13-1.03.21-1.54.31.02.12.04.25.06.37.3-.07.63-.09.9-.22.48-.23,1-.24,1.42-.79.25-.33,1.11-.1,1.69-.14.28-.02.55-.08.83-.12-.02-.11-.03-.22-.05-.33h-7.19Z"/>
      <path class="cls-1" d="m175.77,4.31c.03.21.05.42.08.63-.49.03-.93.05-1.37.07,0,.05,0,.09.01.14.58.07,1.16.14,1.64.19.35-.32.66-.6.98-.9-.36-.57-3.21-.83-4.2-.28.88,1.23,1.86.31,2.86.15Z"/>
      <path class="cls-1" d="m52.62,5.31c-.14.16-.27.3-.5.57h4.11c0-.08.02-.16.02-.24-1.03-.09-2.07-.18-3.1-.26,0-.1.01-.21.02-.31h3.03c0-.11,0-.23,0-.34-1.33.27-2.67-.54-4.13.18.26.19.39.28.56.4Z"/>
      <path class="cls-1" d="m42.83,79.34c-1.25.3-2.46.78-3.78.66-.43-.04-.87.17-1.31.27.03.04.06.09.1.13h5.52c0-.08.01-.17.02-.25-.29-.07-.58-.14-.87-.21,0-.05,0-.11,0-.16.47-.1.95-.19,1.42-.29-.37-.2-.74-.24-1.1-.15Z"/>
      <path class="cls-1" d="m125.66,2.71c-.76.07-1.36.13-1.97.19.02.14.05.27.07.41,1.09-.29,2.19-.58,3.28-.87-.02-.07-.03-.13-.05-.2-.36-.03-.73-.05-1.09-.08,0-.04,0-.08,0-.12.42-.14.84-.29,1.26-.43,0-.05-.01-.1-.02-.16-.69-.05-1.37-.1-2.06-.15.15.18.29.37.5.62-.74.09-1.36.16-2.04.24.56,1.02,1.53-.55,2.12.55Z"/>
      <path class="cls-1" d="m320.51,8.7c.12-.28.24-.55.33-.77-1.91-.58-3.76-1.14-5.61.07h5.15c-.05.32-.07.47-.09.62.07.03.14.06.22.08Z"/>
      <path class="cls-1" d="m9.75,12.22c.02-.08.05-.17.07-.25-.92-.4-1.83-.79-2.75-1.19-.03.09-.07.17-.1.26.33.19.66.37.99.56-.02.05-.03.09-.05.14h-.83c.36.3.66.55.96.79-.04.05-.08.1-.12.14.6.12,1.2.24,1.8.36.01-.06.03-.11.04-.17-.23-.14-.46-.27-.68-.41.07-.08.14-.16.2-.25h.46Z"/>
      <path class="cls-1" d="m77.88,78.92c.5.16.68.22.84.27-.15.18-.3.36-.63.75h2.13c.07-.45.11-.71.15-.97.05-.09.09-.19.14-.28-.65-.06-1.3-.13-1.96-.15-.17,0-.34.18-.68.39Z"/>
      <path class="cls-1" d="m196.37,80.14c-1.7.25-3.4.53-5.1.81.01.1.02.2.03.3,1.78-.15,3.56-.3,5.59-.47-.3-.37-.42-.64-.52-.63Z"/>
      <path class="cls-1" d="m322.5,7.32c1.16.67,2.34,1.19,3.73.26-1.28-.79-2.54-.07-3.73-.26Z"/>
      <path class="cls-1" d="m352.87,26.66c.36.34.7-1.45,1.36-.23-.03-1.34-.69-1.79-2.31-1.71.24.39.47.76.7,1.13,0,0,0,0,0,0h0s-.02-.02-.01-.02c0,0,0,0-.01,0,0,0,.01,0,.02,0,.06.19.12.39.26.82Z"/>
      <path class="cls-1" d="m2.39,27.84c.12-.86.22-1.55.35-2.38-.48.36-.86.64-1.24.92.34.89.14,1.22-.91,1.58.01.08.02.17.04.25.66-.14,1.32-.28,1.77-.37Z"/>
      <path class="cls-1" d="m58.8,76.9c-.69-.48-1.17-.95-1.88-.4-.15.12-.44.07-.66.07-1.32,0-2.64,0-3.97,0-.02.06-.03.12-.05.18,1.06.05,2.11.12,3.17.14,1.07.02,2.14,0,3.39,0Z"/>
      <path class="cls-1" d="m326.06,2.32c.27.03.53.63.77.61,1.14-.09,1.96.42,2.63,1.39.06-.78-.45-1.32-1.2-1.56-.95-.31-1.87-.69-2.86-1.07-.24.23-.57.54-.85.8.46-.06,1-.22,1.51-.17Z"/>
      <path class="cls-1" d="m87.07,78.62c-.5.14-.95.27-1.31.38,0,.4-.05.73,0,1.03.12.63.99.65,1.41.04-.13,0-.26-.02-.7-.05,1.09-.28.68-.85.59-1.4Z"/>
      <path class="cls-1" d="m178.24,80.67c1.21.7,4.11.9,4.65.29-1.55-.06-2.98-.59-4.65-.29Z"/>
      <path class="cls-1" d="m122.43,2.94c.16-.34.31-.67.62-1.33-1.33.37-2.44.67-3.55.98.01.08.03.16.04.24.56.1,1.13.19,1.69.29.34-.73.59-.76,1.21-.18Z"/>
      <path class="cls-1" d="m48.61,78s0,.01-.01.02c0,0,.01,0,.02,0,0,0,0-.01,0-.02h0Z"/>
      <path class="cls-1" d="m48.89,77.65c.98.01,1.95.07,2.93.1.63.02,1.26,0,1.89,0,0-.06,0-.12,0-.18-1.84-.15-3.68-.29-5.43-.43.01.03.06.15.12.29h-.93c.51.25.83.41,1.15.57.09-.13.18-.35.28-.35Z"/>
      <path class="cls-1" d="m48.27,77.14h0s0-.02,0,0Z"/>
      <path class="cls-1" d="m41.35,78.36c0,.06,0,.13,0,.19.36.02.72.04,1.07.06-.64.19-1.25.37-1.87.55.03.06.07.12.1.18,1.73-.29,3.46-.58,5.18-.86-.01-.04-.02-.08-.03-.12h-4.45Z"/>
      <path class="cls-1" d="m234.78,6.14c-.16-.28-.21-.64-.35-1.18-.2.37-.24.53-.34.63-.18.18-.38.33-.58.49.28.2.57.59.84.58,1.11-.04,2.21-.21,3.32-.33-.75-.14-1.52-.14-2.28-.14-.21,0-.55.07-.61-.04Z"/>
      <path class="cls-1" d="m23.16,79.25c.01.1.03.2.04.3,1.93-.36,3.85-.73,5.78-1.09-1.98-.23-3.89.33-5.82.79Z"/>
      <path class="cls-1" d="m318.94,4.25c1.47.23,2.95.45,4.48.69-.72-.81-1.93-1-4.48-.69Z"/>
      <path class="cls-1" d="m2.59,35.93c.48.07.91.14,1.23.19.11-.48.19-.82.28-1.15q-1.42-.59-1.51.96Z"/>
      <path class="cls-1" d="m23.22,79.95c.02.12.05.25.07.37,1.88-.37,3.76-.75,5.64-1.12-.01-.1-.03-.19-.04-.29-1.89.35-3.78.69-5.67,1.04Z"/>
      <path class="cls-1" d="m37.9,81.15h5.36c0-.1-.02-.2-.03-.3-1.79-.2-3.57-.14-5.33.3Z"/>
      <path class="cls-1" d="m235.57,4c-.1.16-.17.29-.29.49.24,0,.57.04.58,0,.21-.87,1.01-.55,1.48-.88.2-.15.48-.18.73-.26-.02-.07-.03-.14-.05-.21-1.37.23-2.74.46-4.11.69,0,0-.02-.01-.02-.01,0,0,0,0,0,.01,0,0,0,0,.01,0,.48.6,1.1-.05,1.67.19Z"/>
      <path class="cls-1" d="m112.96,4.2c-.32-.03-.58-.12-.82-.08-.81.12-1.62.25-2.41.45-.29.07-.54.36-.82.54.04.08.09.16.13.25,1.25-.37,2.51-.74,3.91-1.16Z"/>
      <path class="cls-1" d="m351.23,26.34c-.16.23-.33.48-.58.86.73-.51,1.34-.93,1.95-1.36-.49-.25-.98-.5-1.58-.81.12.3.18.45.27.66-.5-.07-.92-.12-1.34-.18-.03,1.1,1,.23,1.29.83Z"/>
      <path class="cls-1" d="m349.94,25.5s-.01.01-.01.01c0,0,0,0,.01,0,0,0,0,0,0-.01Z"/>
      <path class="cls-1" d="m253.85,1.72c.72-.17,1.43-.41,2.16-.59.24-.06.5,0,.77,0-.03-.08-.1-.28-.24-.71-.91.29-1.74.58-2.59.83-.28.08-.58.1-.87.14,0,.09,0,.18,0,.27.25.02.52.11.75.05Z"/>
      <path class="cls-1" d="m300,5.58h-1.23s0,.07,0,.11c.29.02.59.04,1.11.08-.52.24-.82.38-1.19.55.5.23.91.41,1.34.6v-.53h1.3c-.06-.38-.11-.67-.18-1.16-.21.4-.36.69-.52.99h-.62v-.65Z"/>
      <path class="cls-1" d="m110.27,82.03s-.04-.04-.06-.07c-.72.14-1.44.27-2.21.42.06.13.15.42.2.41,1.28-.14,2.55-.32,3.82-.48,0-.09-.01-.19-.02-.28h-1.73Z"/>
      <path class="cls-1" d="m118.41,3.7c0-.07-.02-.14-.02-.21-1.71.18-3.42.36-5.14.54,0,.11.02.21.03.32.85-.08,1.71-.14,2.56-.24.86-.11,1.72-.27,2.58-.4Z"/>
      <path class="cls-1" d="m20.27,9.47c.41.31.74.56,1.22.93v-1.48c-.34-.13-.81-.27-1.27-.49-.89-.42-.88-.43-1.1-.25.62.35,1.25.71,2.07,1.17-.44.05-.63.08-.93.11Z"/>
      <path class="cls-1" d="m41.92,74.03c-1.34.14-2.69.33-3.96-.38.03.32.07.65.09.85.61-.03,1.27-.05,1.92-.11.84-.08,1.67-.2,2.5-.3h0c.77.12,1.54.23,2.31.35,0-.13.02-.27.03-.4h-2.33c-.18,0-.37-.03-.55-.01Z"/>
      <path class="cls-1" d="m47.77,79.55c-.42-.1-.88-.03-1.36-.03.08.12.15.2.2.28-.25.14-.5.29-.75.44.02.05.04.09.06.14.8-.05,1.59-.1,2.52-.16-.26-.27-.43-.61-.66-.66Z"/>
      <path class="cls-1" d="m31.03,66.46c-.03-.12-.05-.25-.08-.37-.55.14-1.11.29-1.66.43.02.08.04.17.06.25.19.05.37.11.73.21-.35.2-.53.31-.8.47,1.04.36,1.25-.59,1.76-1Z"/>
      <path class="cls-1" d="m240.31,5.9c0,.1.01.2.02.31,1.12.16,2.25.32,3.37.48.02-.08.04-.15.06-.23-.37-.12-.74-.27-1.12-.37-.4-.11-.82-.21-1.23-.25-.37-.03-.74.03-1.11.05Z"/>
      <path class="cls-1" d="m29.74,80.77c0,.13.01.26.02.39,1.29-.13,2.59-.26,3.88-.39,0-.11-.01-.22-.02-.33-1.29.11-2.59.21-3.88.32Z"/>
      <path class="cls-1" d="m226.74,80.45c.56-.21,1.1-.46,1.65-.69-.91,0-1.82,0-2.74,0,.13.8.55.9,1.08.7Z"/>
      <path class="cls-1" d="m52.53,80.39h4.43c0-.08,0-.17,0-.25-1.42-.04-2.85-.08-4.27-.09-.07,0-.14.29-.16.34Z"/>
      <path class="cls-1" d="m334.92,10.04c.41.13.8.31,1.2.48.03-.09.06-.17.09-.26-.15-.08-.31-.16-.54-.28.24-.17.41-.29.6-.43-1.1.12-2.14.24-2.95.33.26.1.71.27.93.36.38-.12.55-.24.67-.2Z"/>
      <path class="cls-1" d="m345.11,43.15s0,0,0,0c0,0,.01,0,.02,0,0,0-.02,0-.03,0Z"/>
      <path class="cls-1" d="m346.01,42.56c-1.09-.13-2.18-.27-3.27-.4-.02.17-.05.34-.07.51.18.04.36.11.54.1.65,0,1.32-.12,1.96-.02.46.07.36.31-.03.4.29-.06.59-.11.88-.17,0-.14,0-.28,0-.42Z"/>
      <path class="cls-1" d="m8.49,44.27c-.26.4-.51.79-.74,1.13.2.03.5.11.79.09.18-.01.52-.2.51-.28-.04-.63,0-1.24.12-1.85-.2.34-.4.68-.61,1.02-.02-.04-.05-.07-.07-.11Z"/>
      <path class="cls-1" d="m9.17,43.36s.01-.02.02-.03c0,0,0,0,0,0,0,0,0,0,0,0,0,0,0,0,0-.01,0,.02,0,.03,0,.05Z"/>
      <path class="cls-1" d="m14.83,59.16c1.25.52,2.03-.19,2.73-1.13-.86.5-1.69,1.07-2.73,1.13Z"/>
      <path class="cls-1" d="m7.88,43.31c-1.25.15-2.5.29-3.75.44,0,.08.02.17.03.25,1.25-.14,2.5-.28,3.76-.42-.01-.09-.02-.18-.03-.27Z"/>
      <path class="cls-1" d="m298.55,5.09s.04.09.06.14c.62-.27,1.23-.54,1.85-.81-.02-.07-.03-.14-.05-.21-.74.09-1.49.17-2.23.26,0,.04,0,.07,0,.11.2.05.4.1.67.16-.14.17-.21.26-.29.35Z"/>
      <path class="cls-1" d="m48.96,80.19h2.81c0-.07,0-.13,0-.2h-2.8c0,.07,0,.13,0,.2Z"/>
      <path class="cls-1" d="m3.83,19.27c.34.16.69.32,1.2.57-.18-.37-.27-.55-.36-.73h-.8c-.01.06-.02.11-.03.17Z"/>
      <path class="cls-1" d="m4.65,19.07c.36-.1.65-.18,1.07-.3-.74-.21-1.31-.38-1.88-.54-.02.05-.05.1-.07.15.24.19.48.38.89.71,0,0,0-.01,0-.02Z"/>
      <path class="cls-1" d="m4.68,19.1s-.01-.01-.02-.02c0,0,0,.01,0,.02h.01Z"/>
      <path class="cls-1" d="m0,36.32c.61.14,1.14.22,1.64.4.99.34.99.37,1.4,0-1.01-.06-1.9-.96-3.05-.4Z"/>
      <path class="cls-1" d="m29.77,81.55c0,.11,0,.23.01.34,1-.08,2.01-.16,3.01-.24,0-.09,0-.19-.01-.28-1,.06-2.01.12-3.01.18Z"/>
      <path class="cls-1" d="m47.33,5.01c0-.06,0-.13,0-.19h-3.74c0,.06,0,.13,0,.19h3.73Z"/>
      <path class="cls-1" d="m344,47.08h-1.35c.13.84.8.89,1.7.95-.43-.16-.66-.25-1.03-.38.33-.2.52-.31.71-.43-.01-.05-.03-.09-.04-.14Z"/>
      <path class="cls-1" d="m112.09,6.23c1.21-.16,2.42-.33,3.63-.49,0-.06,0-.12-.01-.18-1.21.1-2.41.2-3.62.3,0,.12,0,.25,0,.37Z"/>
      <path class="cls-1" d="m131.9,5.05c0-.08-.02-.16-.03-.24-1.17.17-2.34.34-3.5.51.01.09.02.17.03.26,1.17-.18,2.33-.36,3.5-.53Z"/>
      <path class="cls-1" d="m7.22,67.53c.01.1.02.2.03.3.95-.11,1.91-.23,2.86-.34-.01-.11-.02-.22-.03-.32-.96.12-1.91.24-2.87.36Z"/>
      <path class="cls-1" d="m127.22,81.75h2.86c0-.06,0-.12,0-.17h-2.87c0,.06,0,.12,0,.17Z"/>
      <path class="cls-1" d="m120.24,1.05c-.52-.07-.92-.13-1.33-.17-.43-.04-.87-.06-1.31-.09.81.59,1.64.84,2.63.26Z"/>
      <path class="cls-1" d="m251.14,2.03c-.47-.63-1.64-.53-2.28.16.84-.06,1.49-.1,2.28-.16Z"/>
      <path class="cls-1" d="m342.3,47.65c0-.09,0-.17.01-.26h-3.02c0,.09,0,.17,0,.26h3Z"/>
      <path class="cls-1" d="m182.88,2.71c0-.08-.02-.16-.03-.25-1.11.16-2.23.33-3.34.49.01.09.02.18.03.26,1.11-.17,2.23-.34,3.34-.51Z"/>
      <path class="cls-1" d="m34.22,66.67c.65-.16,1.31-.33,1.96-.49,0-.09.02-.19.02-.28-.2-.08-.41-.16-.61-.24-.48.26-.96.51-1.44.77.02.08.04.16.07.24Z"/>
      <path class="cls-1" d="m123,1.09h-1.92c.69.65,1.32.42,1.92,0Z"/>
      <path class="cls-1" d="m43.68,5.73h3.66s0-.1-.01-.14h-3.67s0,.1.01.14Z"/>
      <path class="cls-1" d="m.65,28.93c.72-.1,1.44-.19,2.16-.29,0-.08,0-.17-.01-.25-.72.08-1.45.16-2.17.23,0,.1.02.2.02.31Z"/>
      <path class="cls-1" d="m223.13,2.32h-2.5c0,.09.01.17.02.26.84,0,1.71.28,2.48-.26Z"/>
      <path class="cls-1" d="m137.9,2.11c-.15-.37-.26-.61-.37-.87-.41.11-.84.23-1.26.35.02.1.04.19.05.29.53.08,1.05.15,1.58.23Z"/>
      <path class="cls-1" d="m346.8,41.75h3.85c0-.07,0-.13,0-.2h-3.87c0,.07.01.13.02.2Z"/>
      <path class="cls-1" d="m124.21,81.95c.83-.06,1.65-.12,2.48-.18-.71-.51-1.99-.41-2.48.18Z"/>
      <path class="cls-1" d="m22.24,81.6c.04.28.09.58.13.87-.07.05-.14.1-.2.16.26.1.52.2.83.33q-.12-1.46-.76-1.36Z"/>
      <path class="cls-1" d="m35.41,77.42v.45c.49,0,.91-.02,1.32,0,.7.03,1.02-.1,1.08-.33-.78-.04-1.6-.08-2.41-.12Z"/>
      <path class="cls-1" d="m249.62.24c-.84-.08-1.68-.16-2.52-.24,0,.13,0,.26,0,.38.84.05,1.67.1,2.51.15,0-.1.01-.2.02-.29Z"/>
      <path class="cls-1" d="m120.56,3.19c-.34.05-.68.11-1.03.16,0,.11.02.21.03.32.54-.03,1.07-.05,1.6-.1.03,0,.03-.28.04-.42,0,0,.03-.02.02-.02h0,0s0,0-.01,0c0,0,0,0,0,0-.22.02-.44.03-.66.06Z"/>
      <path class="cls-1" d="m310.26,79.87h-2.34c.71.6,1.76.57,2.34,0Z"/>
      <path class="cls-1" d="m119.99,1.83c-.78-.07-1.56-.15-2.51-.24.89.78,1.68.69,2.51.24Z"/>
      <path class="cls-1" d="m41.22,77.78h3.65c0-.07,0-.14,0-.21h-3.65c0,.07,0,.14,0,.21Z"/>
      <path class="cls-1" d="m93.56,3.31c0-.07,0-.14,0-.21h-2.45c0,.07,0,.14,0,.21h2.45Z"/>
      <path class="cls-1" d="m53.62,3.44c-.01-.07-.02-.14-.03-.21-1.13.16-2.26.32-3.39.48.01.08.02.17.03.25,1.13-.18,2.26-.35,3.39-.53Z"/>
      <path class="cls-1" d="m302.33,75.2c.93.09,1.87.18,2.8.26.01-.1.02-.2.03-.3-.93-.08-1.86-.16-2.79-.24-.02.09-.03.18-.05.27Z"/>
      <path class="cls-1" d="m174.25,1.08c-.03-.08-.06-.17-.08-.25-.9.36-1.79.72-2.69,1.08.02.07.05.14.07.21.9-.35,1.8-.7,2.7-1.04Z"/>
      <path class="cls-1" d="m26.36,72.61c-.03-.07-.07-.13-.1-.2-.23.1-.48.17-.67.32-.07.05-.03.43.04.47.23.11.5.17.75.18.32.02.65-.03,1.12-.06-.63-.16-1.11-.28-1.58-.4,0-.05.01-.11.02-.16.14-.05.28-.1.42-.15Z"/>
      <path class="cls-1" d="m61.46,9.26c.71-.03,1.41-.07,2.12-.1-.02-.1-.05-.2-.07-.3-.69.04-1.39.08-2.08.12,0,.09.02.19.03.28Z"/>
      <path class="cls-1" d="m135.32,1.89h-2.3c.75.48,1.82.46,2.3,0Z"/>
      <path class="cls-1" d="m264.7,1.37c0-.08,0-.15,0-.23h-2.07c0,.08,0,.15.01.23h2.07Z"/>
      <path class="cls-1" d="m30.11,73.98c.67.34,1.31,1.17,2.17.2-.79-.07-1.48-.14-2.17-.2Z"/>
      <path class="cls-1" d="m252.46.28h-2.12c.89.76,1.51.41,2.12,0Z"/>
      <path class="cls-1" d="m354.66,17.2c-.52.14-1.05.28-1.57.42.12.13.23.27.34.4.89-.04,1.25-.53,1.23-.83Z"/>
      <path class="cls-1" d="m32.58,77.13c.13.07.27.14.35.18-.16.16-.32.32-.53.53.61-.14,1.05-.24,1.48-.34,0-.05,0-.1.01-.15-.42-.14-.83-.29-1.25-.43-.02.07-.04.14-.06.21Z"/>
      <path class="cls-1" d="m347.72,44.95c0-.1-.02-.2-.03-.3-.85.1-1.7.2-2.56.3.89.34,1.74.19,2.58,0Z"/>
      <path class="cls-1" d="m36.41,66.48c.59-.24,1.18-.48,1.82-.73-1.05-.2-1.68.06-1.82.73Z"/>
      <path class="cls-1" d="m239.98,80.29c-.69.09-1.39.18-2.08.27,0,.09.02.17.02.26.7-.04,1.4-.09,2.1-.13-.01-.13-.03-.26-.04-.4Z"/>
      <path class="cls-1" d="m132.22,81.84h3.05s.01-.09.02-.13h-3.06s0,.09-.01.13Z"/>
      <path class="cls-1" d="m212.71,81.19c.31.24.46.44.55.42.5-.15.98-.35,1.47-.53,0-.05-.01-.11-.02-.16-.6.08-1.19.16-2,.27Z"/>
      <path class="cls-1" d="m122.65,80.3c.47.03.94.06,1.45.09.04-.24.06-.43.1-.64-.55.1-1.05.2-1.55.29,0,.08,0,.17,0,.25Z"/>
      <path class="cls-1" d="m178.86,82.04c.49-.04.97-.21,1.45-.33,0-.04,0-.08,0-.11-.59-.07-1.19-.14-1.89-.21.17.26.31.67.43.66Z"/>
      <path class="cls-1" d="m28.52,65.66s0,.08.01.12c.81-.04,1.62-.09,2.43-.13-.01-.12-.03-.24-.04-.36-.8.12-1.6.24-2.4.37Z"/>
      <path class="cls-1" d="m8.23,15.17c.77-.26,1.54-.51,2.31-.77-.03-.1-.06-.2-.09-.3-.77.28-1.54.56-2.31.85.03.07.06.15.09.22Z"/>
      <path class="cls-1" d="m347.55,10.65c.05-.06.1-.12.16-.17-.18-.11-.36-.3-.56-.31-.4-.03-.81.02-1.21.04.01.08.02.17.03.25.53.06,1.05.13,1.58.19Z"/>
      <path class="cls-1" d="m267.38,1.24c0-.07.02-.15.03-.22-.25-.05-.49-.09-.77-.15.19-.1.35-.19.51-.27-.02-.04-.03-.09-.05-.13-.46.11-.92.21-1.39.32,0,.08,0,.16,0,.24.55.07,1.1.14,1.66.21Z"/>
      <path class="cls-1" d="m25.05,71.31c.83-.3,1.66-.6,2.49-.9-.86.18-1.72.36-2.58.53.03.12.06.25.09.37Z"/>
      <path class="cls-1" d="m27.54,70.41s.01,0,.02,0c0,0,0,0,0,0h.04s-.01,0-.02,0c-.01,0-.03,0-.04.01Z"/>
      <path class="cls-1" d="m230.71,6.29c.72.06,1.44.12,2.16.18,0-.05,0-.1.01-.15-.7-.15-1.41-.3-2.11-.45-.02.14-.04.27-.06.41Z"/>
      <path class="cls-1" d="m9.11,6.62c0-.06,0-.11-.01-.17h-2.4c0,.06,0,.11.01.17h2.41Z"/>
      <path class="cls-1" d="m26.94,67.31c-.73.28-1.45.57-2.18.85.03.08.05.16.08.24.73-.27,1.46-.55,2.19-.82-.03-.09-.06-.18-.08-.27Z"/>
      <path class="cls-1" d="m7.35,68.36c.01.08.02.16.03.24.87-.1,1.75-.2,2.62-.29-.01-.1-.03-.21-.04-.31-.87.12-1.74.24-2.61.36Z"/>
      <path class="cls-1" d="m210.54,3.47c0-.09,0-.17-.01-.26h-1.66c0,.09,0,.17,0,.26h1.66Z"/>
    </g>
  </g>
</svg>