<?xml version="1.0" encoding="utf-8"?>
<!-- Generator: Adobe Illustrator 27.4.0, SVG Export Plug-In . SVG Version: 6.00 Build 0)  -->
<svg version="1.1" id="Layer_2_00000116942183100763654350000013012177386381208476_"
	 xmlns="http://www.w3.org/2000/svg" xmlns:xlink="http://www.w3.org/1999/xlink" x="0px" y="0px" viewBox="0 0 354.7 83"
	 style="enable-background:new 0 0 354.7 83;" xml:space="preserve">
<style type="text/css">
	.st0{fill:#FCEC00;}
</style>
<g id="Layer_1-2">
	<g>
		<path class="st0" d="M304.6,74.5L304.6,74.5C304.6,74.5,304.6,74.5,304.6,74.5z"/>
		<path class="st0" d="M168.8,4.1C168.8,4.1,168.8,4.1,168.8,4.1C168.8,4.1,168.8,4.1,168.8,4.1z"/>
		<path class="st0" d="M204.4,7.1L204.4,7.1C204.4,7.1,204.4,7.1,204.4,7.1L204.4,7.1L204.4,7.1z"/>
		<path class="st0" d="M59.2,76C59.2,76,59.2,76,59.2,76L59.2,76C59.1,76,59.2,76,59.2,76z"/>
		<path class="st0" d="M57.1,75.3c-0.2,0.8-0.8,0.4-1.1,0.4c-1.5,0-3,0-4.6,0c0,0.1,0,0.1,0,0.2h7.7c-0.4-0.2-0.8-0.4-1.2-0.5
			C57.6,75.4,57.1,75.3,57.1,75.3L57.1,75.3z"/>
		<path class="st0" d="M349.9,25.5L349.9,25.5C349.9,25.5,349.9,25.5,349.9,25.5L349.9,25.5L349.9,25.5z"/>
		<polygon class="st0" points="345.1,43.1 345.1,43.1 345.1,43.1 		"/>
		<path class="st0" d="M344.5,35.4c1.7-0.2,3.3-0.4,4.9-0.9c1.6-0.5,3.2-0.9,4.9-1.3c-0.6-0.5-1.3-1.1-2-1.6c0.6-0.5,1.3-1,2.3-1.8
			c-0.9-0.4-1.6-0.7-2.4-0.9c-0.6-0.2-1.2-0.2-1.8-0.2c-1-0.1-1.9-0.1-2.9-0.2c-0.2,0-0.5,0-0.7-0.1c0-0.1,0-0.2,0-0.3
			c0.8-0.1,1.5-0.1,2.4-0.2c-0.2-0.1-0.5-0.3-0.8-0.4c0.2-0.3,0.4-0.6,0.6-0.9c-0.4-0.3-0.8-0.6-1-0.8c0.6-0.1,1.2-0.2,1.8-0.4
			c0.3-0.3,0.7-0.6,1-0.9c-0.2-1-0.9-1.5-1.6-1.7c-0.6,0.5-1.2,0.9-1.8,1.2c0,0-0.1,0-0.2,0c-1-0.3-1.9-0.5-2.9-0.8
			c-0.8-0.2-1.5-0.6-2.3-0.7c-1-0.2-2-0.3-3-0.5c-0.1,0-0.3-0.2-0.4-0.4c-1.1-0.1-2.2-0.1-3.4-0.2c0.6-0.2,1.3-0.3,2-0.4
			c1.3-0.1,2.7-0.3,4-0.4c1.7-0.2,3.4-0.3,5.1-0.4c0.6,0,1.2,0,1.8-0.1c0.9,0,1.9-0.1,2.8-0.2c0.4,0,0.8-0.2,1.2-0.4
			c0.3-0.1,0.5-0.4,0.8-0.6c0,0,0-0.1-0.1-0.1c-0.2,0-0.4,0.1-0.7,0.2c0.5-0.8,0.2-1.3-0.6-1.4c-0.7-0.1-1.4-0.2-2.1-0.3
			c-0.1-0.4-0.1-0.7-0.3-1.3c0.5,0.3,0.9,0.5,1.3,0.7c0.1,0,0.3-0.2,0.3-0.2c-0.4-0.5-0.8-0.9-1.2-1.3c-0.1,0.1-0.3,0.2-0.4,0.2
			c-0.5,0.1-0.8,0.2-0.3,0.8c0.2,0.2,0.1,0.6,0.2,1c-1.2-0.1-2.3,0.3-3.2-1.2c-0.2,0.8-0.4,1.3-0.5,1.8c-1,0.2-2,0.5-3.1,0.6
			s-2.2,0-3.3,0c0.7-1,1.6-0.7,2.5-0.7c0.1,0,0.3,0.1,0.4,0c0.4-0.1,0.8-0.4,1.2-0.4c0.7-0.1,1.4-0.2,2.1-0.3c0-0.1,0-0.3,0-0.4
			c-0.4,0.1-0.8,0.1-1.2,0.2c-1.1,0.2-2.2,0.1-3.3,0.2c-0.7,0.1-1.8,0.3-2.4-0.8c0.8,0,1.5,0.7,2.2-0.1c0.3-0.4,1.1-0.2,1.8-0.3
			c-0.1-0.1-0.2-0.2-0.5-0.3c1.4,0.1,2.7,0.2,3.9,0.3c-0.8-0.3-1.6-0.4-2.4-0.6c-1-0.2-2-0.3-3-0.6c-1-0.4-1.9-1-2.9-1.6
			c0.4-0.1,0.7-0.3,1.2-0.5c-0.9-0.1-1.5-0.2-2.2-0.3c-1.1-0.1-2.2,0-3.3-0.2c-2.8-0.4-5.5-0.9-8.2-1.3c-0.6-0.1-1.1-0.4-1.9-0.6
			c-0.6,0.4-0.7,0.4-1.2-0.2c1.2-0.6,2.6,0.5,3.7-0.7c-0.7,0-1.3,0.2-2,0.2c-0.8,0.1-1.6-0.2-2.4,0c-0.4,0.2-1-0.2-1.5-0.2
			c-0.7,0-1.4,0.2-2,0.3c-0.3,0.1-0.5,0.4-0.9,0.6c-1-0.5-1.7-0.6-2.2-0.5c-0.1-0.1-0.3-0.2-0.4-0.3c-0.3-0.6-0.6-1.2-0.9-1.9
			c0.4-0.2,0.6-0.3,0.8-0.4c-1.2-0.1-2.3,0-3.5,0.1c-0.6,0.1-1.2,0.2-1.8,0.2c-1.7,0.2-3.3,0.3-5,0.4c-0.3,0-0.7-0.1-1.1-0.2
			c0.3-0.4,0.5-0.6,0.8-1c-0.3,0.1-0.6,0.1-0.7,0.2c-0.6,1-1.5,0.9-2.5,0.8c-1.8-0.2-3.5-0.4-5.3-0.6c-1.3-0.1-2.5-0.2-3.8-0.2
			c-0.4,0-0.7-0.3-1.2,0.1c-0.3,0.2-1-0.2-1.6-0.4c-0.2,0-0.5,0-0.7,0c-0.4,0-0.7,0.1-1.1,0.2c-0.3,0.1-0.8,0.4-0.8-0.1h-5.9
			c0.7-0.2,1.2-0.3,1.7-0.5c0-0.1,0-0.2,0-0.3c-0.8-0.1-1.5-0.2-2.2-0.4c0,0,0,0.1,0,0.1c0.4,0.1,0.8,0.3,1.3,0.4
			c-1.2,0.5-1.6,0.3-2.3-0.8c1,0,1.9-0.1,2.8,0c0.8,0.1,1.5,0.4,2.3,0.4c1.7-0.1,3.4,0.5,5.2,0.3c1-0.1,2,0,3.1,0c0.1,0,0.3,0,0.4,0
			c0.6,0.1,1.2,0.4,1.7,0.2c1-0.4,2-0.2,3-0.1c0.5,0.1,1-0.1,1.5-0.2l0-0.4h-5.3c0-0.1,0-0.2,0-0.3c0.5-0.1,1.1-0.1,1.6-0.2
			c-1.5-0.5-2.9-0.6-4.3-0.1c-0.6,0.2-1.2,0.2-1.9,0.2c0,0,0-0.1,0-0.1c0.3-0.1,0.7-0.1,1-0.2c0-0.1,0-0.2,0-0.2
			c-0.3-0.1-0.7-0.2-0.9-0.1c-1.3,0.6-2.6,0.6-3.9,0.4c-1-0.1-2.1-0.3-3.1-0.3c-0.8-0.1-1.7,0-2.4,0c-0.2-0.4-0.4-0.8-0.6-1.2
			c0,0-0.1,0-0.1,0.1c0,0.4,0.1,0.8,0.1,1.1c-1.5,0.4-2.8-0.2-4.1-1c-0.2,0.3-0.4,0.5-0.6,0.7c0.5,0.1,1.1,0.1,1.7,0.2
			c0,0.1,0,0.1,0,0.2c-1.5,0.1-3,0.3-4.6,0.4c0.2-0.2,0.3-0.3,0.4-0.4c-0.1-0.1-0.2-0.2-0.3-0.2c-0.5,0.1-0.9,0.2-1.5,0.3
			c0.3,0.1,0.5,0.1,0.6,0.1c-1.3,0-2.7,0-4.1,0c-2,0-4.1,0-6.1,0.1c-0.4,0-0.7,0.3-1.3,0.5c-0.3-0.2-0.9-0.5-1.4-0.6
			c-0.3-0.1-0.7,0.4-1.1,0.5c-0.8,0.1-1.7,0.3-2.5,0.2c-1.4-0.1-2.7-0.2-4.1-0.3c-0.4,0-0.8,0.2-1.2,0.3C247.4,6,246.7,6,246,6.1
			c-0.2,0-0.5-0.3-0.7-0.3c-0.5,0.1-1,0.3-1.5,0.4c0.3,0.2,0.6,0.4,1.1,0.8c-0.5,0-0.7,0.1-0.9,0.1c-1.2,0-2.4-0.1-3.6-0.1
			c-2.7-0.1-5.4-0.1-8.1-0.2c-1,0-2-0.1-3-0.1c-1.5,0-2.9,0-4.4,0c0-0.1,0-0.2,0-0.3c1.7-0.1,3.5-0.2,5.3-0.3
			c-0.6-0.2-1.3-0.8-1.8-0.6c-1.2,0.4-2.4-0.4-3.6,0.1c-0.6,0.2-1.4,0-2.1,0c-0.1,0-0.1,0-0.1,0.1c0,0.7-0.5,0.4-0.9,0.5
			c-0.1,0-0.2,0.2-0.4,0.3c0.1,0.1,0.2,0.3,0.3,0.3c0.2,0.1,0.4,0,0.6,0c0.5,0,1,0.1,1.6,0.1c-0.7,0.3-1.4,0.6-2.3,0.3
			c-0.4-0.2-1.1-0.2-1.2,0c-0.3,0.6-0.7,0.4-1,0.4c-1.8,0-3.5,0-5.3,0.1c-1,0-2,0.1-2.9,0.1c-0.9,0-1.8,0.3-2.6-0.3
			c-0.1,0-0.2,0-0.2,0.1c-0.6,1.2-1.5-0.3-2.2,0.2c0.1-0.1,0.2-0.2,0.3-0.3c-0.6-0.2-1.2-0.3-1.7-0.5c-0.3,0.8,0.7,0.2,0.7,0.7
			c-2-0.1-4,0.4-5.8-1.2c0,0.1-0.1,0.2-0.1,0.3c0.5,0.3,1,0.6,1.6,0.9c-1.5,0.1-2.9,0.4-4.3,0.2c-1.4-0.2-2.9,0.4-4.2-0.3
			c3.3-0.6,6.6-1.6,9.9-1.7c-0.7-0.1-1.3-0.2-1.9-0.3c-0.1-1.1,0.3-1.5,1.2-1.4c0.4,0.1,0.8,0.1,1.2,0.1c0.9,0,0.5,0.5,0.1,1.1
			c1-0.8,2.1,0.1,2.9-0.5c0-0.1,0-0.2,0-0.2c-0.2-0.1-0.4-0.1-0.6-0.2c0-0.1,0-0.1,0-0.1h4c0-0.1,0-0.2,0-0.3
			c-2.1-0.3-4.2-0.1-6.3-0.3c1.4-0.3,2.8-1.3,4.4-0.5c-0.9-1-3.4-0.9-3.6,0c-0.4,0.1-0.7,0.2-1.1,0.2c-0.8,0-1.6,0.9-2.2-0.4
			c0.4-0.2,0.8-0.5,1.1-0.7c-0.5,0-0.9-0.1-1.4-0.1c-0.4,0-0.7,0.2-1,0.3c0.4,0.3,0.7,0.5,1,0.7c-0.1,0.1-0.1,0.2-0.1,0.3
			c-0.8-0.2-1.7-0.4-2.5-0.6c0-0.1,0-0.1,0-0.2c0.3-0.1,0.7-0.2,1.1-0.4c-1.1-0.2-2.1-0.3-3.3-0.5c0.2,0.3,0.3,0.3,0.4,0.4
			c-0.4,0.3-0.8,0.6-1.2,0.9c0.1,0.1,0.2,0.3,0.3,0.4c-1.2,0.1-2.5,0.2-3.7,0.3c0,0.1,0,0.1,0,0.2c0.4,0.1,0.7,0.1,1.1,0.2
			c-1.5,0.4-3.1,0.6-4.6,0.8c-0.9,0.1-1.9,0.2-2.8,0.4c-1.1,0.2-2.2,0.4-3.3,0.6c-1.1,0.1-2-0.4-3.1-0.4c-0.6,0-1.2-0.2-1.8-0.2
			c-1.2,0.1-2.4,0.2-3.7,0.3c0.2-0.1,0.4-0.2,0.5-0.2h-2.9c0-0.1,0-0.2-0.1-0.3c0.5-0.3,1.1-0.5,1.6-0.8c-0.3-0.1-0.5-0.1-0.8-0.2
			c0-0.1,0-0.1,0-0.1h1.3c-0.2-0.3-0.4-0.6-0.6-0.6c-0.6,0-1.2,0.2-1.8,0.3c-0.4,0.1-0.8,0-1.4,0c0,0-0.1,0.2-0.1,0.2
			c-0.4,0.1-0.9,0.1-1.3,0.2c-1.2,0.2-2.4,0.5-3.7,0.8c-0.3,0.1-0.7,0.4-1,0.4c-0.6,0-1.2-0.2-1.8-0.3c-0.1,0-0.3,0.2-0.4,0.3
			c0.1,0.1,0.2,0.2,0.4,0.4c-0.5,0.1-0.9,0.1-1.4,0.2c0-0.1,0-0.1,0-0.1c0.2-0.1,0.4-0.1,0.8-0.2c-1.2-0.5-2.1-0.6-3.1-0.1
			c-0.4,0.2-1,0.3-1.5,0.3c-1.2-0.1-2.5-0.3-3.7-0.4c-0.9-0.1-1.8,0.1-2.8,0.1s-1.8,0-2.8,0c-0.2,0-0.5-0.2-0.7-0.3c0,0,0,0.1,0,0.1
			c-2.5,0.2-5,0.4-7.4,0.5c0-0.1,0-0.2,0-0.3c0.1-0.1,0.3-0.2,0.4-0.3c-0.9,0.3-1.8-0.9-2.8,0.2h1.7c0,0.1,0,0.2,0,0.3
			c-3.8-0.1-7.7,0.3-11.5-0.5c0,0.1,0,0.2,0,0.2c0.2,0.1,0.4,0.1,0.8,0.3c-0.3,0.1-0.5,0.2-0.5,0.2c-0.5-0.4-1.1-0.2-1.7-0.2
			c-1.2,0.1-2.5,0-3.7,0.1c-1.2,0.1-2.3,0.3-3.4,0.3c-0.5,0-1,0-1.5-0.1c-0.6-0.2-1.4,0.3-2.1,0.5c0,0-0.1-0.1-0.1-0.1
			c0.2-0.2,0.4-0.3,0.8-0.6c-0.4,0.1-0.6,0-0.8,0.1c-0.9,0.5-1.9,0.3-2.8,0c-0.9-0.3-1.6,0.1-2.4,0.5h1.2c-1.8,1.1-3.6,0.7-5.4,0.9
			c0-0.1,0-0.2,0-0.3c1.2-0.1,2.5-0.3,3.8-0.4c-0.2-0.1-0.4-0.2-0.6-0.2c-0.6,0-1.2,0.1-1.8,0.1c-0.2,0-0.5,0.3-0.5-0.3
			c0-0.1-0.6-0.2-0.9-0.2c-0.1,0-0.4,0.2-0.4,0.3c0.4,1.2-0.6,0.8-0.9,0.8c-1.1,0.1-2.2,0-3.4,0c-0.8-0.1-1.6-0.2-2.4-0.3
			C97.7,7,98.1,7,98.5,7c0.3,0,0.7-0.1,1-0.1c0-0.1,0-0.1,0-0.2c-0.2-0.1-0.3-0.1-0.5-0.1c0-0.1,0-0.2,0-0.3
			c1.9-0.1,3.8-0.2,5.6-0.3c0-0.1,0-0.2,0-0.2c-0.4-0.1-0.8-0.2-1.3-0.2c-0.4-0.1-0.9-0.1-1.3-0.1c2.2-0.4,4.4,0.6,6.5-0.7
			c-0.4-0.1-0.7,0.1-1.1,0.1c-0.3,0-0.7,0-1,0c0,0,0-0.1,0-0.1c0.7-0.2,1.5-0.4,2.2-0.6c0-0.1,0-0.2-0.1-0.3
			c-0.4,0.1-0.8,0.3-1.1,0.2c-0.8-0.1-1.5,0.8-2.3,0.1C105,4,104.6,4,104.5,4.1c-0.7,1-1.7,0.6-2.5,0.5c-2.2-0.2-4.3-0.6-6.5-0.2
			c-1,0.2-2.1-0.1-3.1-0.1c0-0.1,0-0.1,0-0.2c0.2,0,0.5-0.1,0.8-0.1c-0.2-0.1-0.3-0.3-0.3-0.2c-1,0-1.9,0.2-2.9,0.5
			C89,4.7,87.8,4.8,86.6,5c0,0-0.1-0.1-0.1-0.2c0.3-0.2,0.6-0.3,0.8-0.5c-1.8-0.2-3.5-0.3-5.3-0.5c0,0.1,0,0.1,0,0.2
			c0.2,0.1,0.4,0.3,0.7,0.5c-0.8,0.3-1.3,0.3-2.1,0.1c-1-0.3-2.1,0-3.2,0c-1.6,0-3.2,0-4.8,0.1C71.3,5,69.9,4,68.4,4.8
			c-0.6,0.3-1.3,0.1-2,0.1c-0.1,0-0.2-0.3-0.3-0.6C65.8,4.2,65.5,4.1,65,4c0.2,0.3,0.3,0.4,0.3,0.5c-0.9,0.1-1.9,0.1-2.8,0.2
			c0,0.1,0,0.2,0,0.2c0.2,0.1,0.3,0.3,0.5,0.4c-0.2,0.2-0.3,0.2-0.6,0.4h3.7c0-0.1,0-0.2,0-0.3c-0.2,0-0.5-0.1-0.7-0.1
			c-0.2,0-0.5-0.1-0.7-0.1c1.6-0.1,2.4-0.1,2.6,0.2c-0.3,0-0.5,0.1-0.8,0.1c1.9,0.7,3.7,0.5,5.6,0c-0.4-0.1-0.8-0.2-1.2-0.3
			c0-0.1,0-0.2,0-0.2h2.7c0,0.1,0,0.2,0.1,0.2c-0.3,0.1-0.6,0.3-0.8,0.3c0.3,0.2,0.6,0.4,0.9,0.8c-0.3,0.1-0.5,0.2-0.8,0.2
			c0.3,0.2,0.4,0.4,0.7,0.5c-0.2,0.1-0.4,0.2-0.5,0.3c0,0.1,0,0.2,0,0.3c0.6,0.2,1.5,0.8,1.8,0.5c0.9-0.6,1.7-0.5,2.6-0.5
			c1.4,0.1,2.8,0.3,4.1,0.4c1.7,0.1,3.4,0.1,5.1,0.1c0.3,0,0.6-0.2,0.9-0.3c0-0.1,0-0.2,0-0.3h-1.8c0-0.1,0-0.1,0-0.2
			c0.8-0.3,1.7-0.5,2.5-0.8v1.5c0.8,0.1,1.6,0.1,2.3,0.2c0.3,0,0.6-0.1,0.9-0.2c0,0.1,0.1,0.2,0.1,0.3c-0.4,0.1-0.8,0.2-1.3,0.4
			c0,0,0,0.1,0,0.1c1-0.1,1.9-0.3,3.2-0.5c-0.4,0.2-0.6,0.5-0.8,0.5c-1.9,0.1-3.7,0.1-5.6,0.1c-0.7,0-1.4,0.1-2.1,0.1
			c-1.3,0.1-2.6,0.2-3.8,0.2c-1.6,0-3.2,0-4.8,0c0-0.1,0-0.2,0-0.3c2.3,0,4.5,0,6.8,0c0-0.1,0-0.2,0-0.2c-5.9-0.5-11.7-0.6-17.6,0.2
			h5.8c0,0.1,0,0.2,0,0.2c-4.1,0.1-8.2,0.3-12.2,0.4c-0.4-0.1-0.9-0.1-1.3-0.2c0,0,0-0.1,0-0.1c-0.2-0.2-0.5-0.3-0.8-0.5
			c0,0,0.1-0.1,0.2-0.1c1.3-0.1,2.7-0.1,3.9-0.7c0.1-0.1,0.3,0,0.4,0c0.9,0,1.9,0.1,2.8,0.1c1.3-0.1,2.6-0.2,3.8-0.4
			c0.8-0.1,1.5-0.3,2.3-0.4c0-0.1,0-0.2,0-0.2h-2.8c0-0.1,0-0.1,0-0.2c1.6-0.1,3.2-0.2,4.8-0.4c-0.3-0.2-0.6-0.2-0.9-0.2
			c-0.7,0-1.4,0-2.1,0c-2,0-4,0.1-6,0.2C62.4,6.8,61.2,7,60,7.1c-1,0.1-2.2-0.1-3.1,0.2s-1.7,0-2.5-0.2c0,0-0.1,0.1-0.2,0.1
			c0.1,0.2,0.1,0.3,0.2,0.5c-1.9,0.2-3.8,0.3-5.6,0.5c-1.2,0.1-2.4,0.3-3.7,0.3c-1.1,0.1-2.3,0.1-3.4,0c-0.6,0-1.2-0.2-1.7-0.1
			c-1,0.1-2.1,0.4-3.1,0.5c-2.4,0.2-4.9,0.4-7.3,0.6C29,9.6,28.4,9.9,27.8,10c0,0.1,0,0.2,0,0.2c0.7,0,1.3-0.1,2-0.1
			c-0.8,0.3-1.7,0.8-2.3,0.5c-0.8-0.4-1.5-0.3-2.3,0c0-0.4-0.1-0.7-0.1-1.1c0,0-0.1,0-0.1,0c-0.1,0.4-0.2,0.8-0.3,1.3
			c-0.4-0.1-0.9-0.2-1.1-0.3c-0.4,0.2-0.8,0.2-1,0.4c-0.6,0.6-1-0.1-1.6,0c-1.2,0.1-2.4,0.2-3.6,0.4c-0.4,0.1-0.7,0.5-1.1,0.8
			c-0.1,0.1-0.1,0.1-0.2,0.2c-0.3,0.1-0.6,0.1-1,0.2c0.2,0.2,0.4,0.4,0.6,0.6c-0.3,0.1-0.4,0.2-0.8,0.4c0.5,0.2,0.8,0.3,1,0.4
			c0-1.1,1.4-1.6,2.9-1.2c-0.1,0.2-0.2,0.3-0.3,0.5c0,0,0.1,0.1,0.1,0.1c0.1-0.2,0.3-0.3,0.4-0.5l0,0c0.2,0.2,0.5,0.5,0.7,0.7
			c-0.2,0.4-0.5,0.7-0.7,1.1c-0.5-0.1-1-0.2-1.9-0.4c0.5,0.3,0.7,0.4,1,0.6c-0.9,0.1-1.5,0.8-2.4,0.3c-0.6-0.3-1.4-0.3-1.9,0.3
			c-0.4,0.4-0.7,0.7-1.1,1.1c0,0,0.2,0.1,0.5,0.2c-0.7,0.5-1.7,0.1-1.9,1.1c0,0-0.3,0-0.5,0c-0.2,0-0.5-0.1-0.9-0.1
			c0.3,0.3,0.4,0.5,0.7,0.9c-0.4-0.1-0.7-0.2-1-0.2c0,0.5,0.1,0.9,0.1,1.3c0.3-0.1,0.6-0.2,0.9-0.4c0,0,0,0.1,0,0.1
			c-0.9,0.7-1.7,1.4-2.6,2.1c0,0.1,0,0.4,0,0.6c0.1,0.9-0.2,1.5-1.2,1.5c-0.4,0-0.8,0.4-1.3,0.6c0,0.1,0.1,0.1,0.1,0.2
			c0.2,0,0.3,0,0.6,0c-0.2,0.2-0.3,0.4-0.5,0.8c1.2,0.2,2.4,0.4,3.5,0.6C9.5,25.8,9.3,26,9,26.2c0.3,0,0.4,0,0.6,0.1
			c-1.1,0.4-1.3,1.3-1.2,2.3c0.3,0,0.6,0,0.9-0.1c-0.3,0.4-0.5,0.7-0.7,1c-0.1,0.1-0.2,0.2-0.3,0.3c-0.2,0.3-0.5,0.5-0.7,0.8
			c-0.2,0.3-0.3,0.7-0.5,0.9v1.6c-0.4,0-0.7,0.1-1.1,0.1c0-0.2,0.1-0.4,0.1-0.6c-0.3,0.2-0.6,0.4-0.5,0.6c0.1,0.5,0.1,1.2,0.4,1.4
			c0.3,0.2,0.9,0,1.4,0c0.2,0,0.4-0.3,0.6-0.7c0.1,0.7,0.2,1.2,0.2,1.5c0.3-0.2,0.6-0.3,0.8-0.5c0.2-0.1,0.5-0.2,0.7-0.4
			c0.2-0.1,0.4-0.3,0.5-0.4c0,0.1,0.1,0.1,0.1,0.2c-0.8,0.9-1.7,1.7-3,1.7C7.5,36,7.5,36,7.4,35.9c0.2-0.1,0.5-0.1,0.8-0.2
			C7,34.9,6.5,36,5.9,36.4c0.2,0,0.5,0,0.8-0.1c-0.3,0.3-0.5,0.5-0.7,0.7c1,0.1,1.8,0.2,2.7,0.3c0,0.1,0,0.1,0,0.2
			c-0.6,0-1.1,0.1-1.7,0.2c0,0.1,0,0.2,0,0.3h1.9c-0.2,0.3-0.3,0.4-0.5,0.7c0.7-0.1,1.3-0.1,2.1-0.2c-0.4,0.3-0.6,0.6-0.9,0.8
			c0.1,0.1,0.3,0.2,0.5,0.4c-0.5,0.2-0.8,0.3-1.3,0.5c0.5,0.1,1,0.1,1.4,0.2c0,0.1,0,0.2,0,0.2c-0.6,0.1-1.1,0.2-1.6,0.4
			c0,0.1,0,0.1,0,0.2c1.3-0.1,2.7-0.2,3.8-0.2c0,0.2-0.1,0.5-0.1,0.5c-0.3,0.2-0.8,0.4-0.8,0.6c-0.1,1.3-0.8,0.9-1.7,1
			c0.5-0.3,0.9-0.5,1.4-0.7c-1-0.2-1.8-0.2-2.1,0.9c0.1,0.2,0.3,0.4,0.3,0.5c0.6-0.1,1.1-0.2,1.6-0.2v0.6c0.3,0.3,0.5,0.6,0.7,0.8
			c-1,0.3-1.8,0.7-2.7,1c0,0.1,0.1,0.2,0.1,0.3c0.9-0.3,1.9-0.6,2.8-0.8c0,0.1,0.1,0.2,0.1,0.3c-1,0.4-2,0.8-2.9,1.1
			c0,0.1,0.1,0.1,0.1,0.2c1-0.3,2-0.6,3.1-1c0,0.1,0.1,0.2,0.1,0.3c-0.6,0.3-1.1,0.5-1.5,0.7v1.2c1.1-0.4,2.1-0.9,3.3-1.4
			c-1,0.8-1.8,1.5-0.2,2.3c-0.2,0.1-0.4,0.2-0.7,0.4c0.8-0.2,1.5-0.3,2.2-0.4c0,0.1,0.1,0.3,0.1,0.4c-0.9,0.2-1.8,0.4-2.7,0.6
			c0.1,0.3,0.3,0.6,0.4,1h2.6c-0.6,0.3-1.1,0.5-1.5,0.7c0.7,0.1,1.4,0,2-0.1c0.6-0.1,1.1-0.4,1.6-0.5h0.4c-0.5,0.3-1.1,0.7-1.6,1
			c0.2,0.1,0.4,0.2,0.7,0.3c-0.3,0.2-0.5,0.3-0.7,0.4c0.7,0,1.3,0,1.8,0.1c0.4,0.1,0.8,0.5,1.2,0.8c-0.5,0.1-1,0.1-1.4,0.2
			c0.1,0,0.1,0.1,0.2,0.1c-0.2,0.4-0.5,0.8-0.8,1.3c0.5-0.1,1.1-0.2,1.6-0.2c0,0.1,0,0.2,0,0.3c-0.1,0.1-0.3,0.2-0.5,0.4
			c0.5-0.1,0.9-0.2,1.3-0.2c0.4,0,0.9,0.2,1.3,0.2c0.3,0,0.6-0.2,1-0.2c0,0.1,0,0.2,0.1,0.2c-0.6,0.2-1.2,0.4-1.8,0.5
			c0.1,0.2,0.1,0.4,0.2,0.6c-0.6,0-1.1,0-1.5,0.1c-0.5,0.1-1,0.2-1.5,0.4c0.1,0.1,0.2,0.2,0.3,0.3c-0.2,0.3-0.5,0.6-0.8,0.9
			c0,0,0.1,0.1,0.1,0.2c0.2-0.1,0.5-0.3,0.8-0.4c-0.1,0.3-0.2,0.5-0.3,0.7c0.3-0.1,0.6-0.2,0.8-0.2c-0.6,0.4-1.1,0.8-1.6,1.1
			c0.3,0.4,0.4,0.7,0.5,0.9c0.3-0.2,0.6-0.3,0.9-0.4c0.5-0.1,1-0.1,1.5-0.2c0.2,0,0.4,0,0.6,0.1c0.2,0,0.4,0,0.6,0
			c0.7-0.1,1.5-0.1,2.2-0.2c0,0.1,0,0.2,0,0.2c-0.6,0.1-1.3,0.2-1.9,0.3c0,0,0,0.1,0,0.2c1.3-0.1,2.5-0.1,3.8-0.2c0-0.1,0-0.2,0-0.3
			c-0.4,0.1-0.9,0.1-1.3,0.2c0-0.1,0-0.2,0-0.3c0.5-0.1,1.1-0.3,1.6-0.4c0,0,0-0.1,0-0.1h-1.9c0.6-0.2,0.9-0.5,1.2-0.5
			c0.7,0,1.5-0.4,2.1,0.5c0.1,0.2,0.6,0.1,0.9,0c0.6-0.2,0.7,0.1,0.8,0.6c-0.8,0.1-1.5,0.2-2.3,0.3c0,0,0,0.1,0,0.1
			c0.7,0.1,1.5,0.2,2.2,0.2c-0.5,0.2-1,0.2-1.5,0.4c-1.3,0.4-2.7,0.8-4,1.3c0,0,0,0.1,0,0.1h1.6c0,0.1,0,0.2,0,0.3
			c-0.4,0.1-0.8,0.2-1.2,0.2c-0.4,0-0.8-0.1-1.1-0.1c-0.9,0.1-1.8,0.2-2.6,0.3c-0.2,0-0.3,0-0.5-0.1c-0.6-0.2-1.2-0.8-1.6,0.2
			c0,0-0.3,0-0.5-0.1c0.7,0.8,1.5,0.7,2.4,0.7c0.4,0,1.1-0.6,1.3,0.3c0,0,0.2-0.1,0.3-0.1c0.2,0,0.4,0.1,0.6,0.1c0,0.1,0,0.1,0,0.2
			c-0.8,0.2-1.6,0.5-2.8,0.8c1.3,0.3,0.1,0.6,0.5,0.9c1.2-0.3,2.5-0.6,3.8-0.9c0-0.1,0-0.2,0-0.2c-1.1,0.2-2.2,0.4-3.3,0.6
			c0-0.1,0-0.2,0-0.3c0.8-0.2,1.5-0.4,2.2-0.5c0.8-0.1,1.3-0.4,0.9-1.5c0.8,0.6,1.9-0.2,2.2,1.1c0,0.1,0.3,0,0.5,0
			c1.8-0.2,3.6-0.5,5.5-0.7c0.5-0.1,1,0.2,1.6,0.2c1.8,0,3.5,0,5.5,0c-0.3,0.2-0.5,0.3-0.7,0.4c-0.6,0.2-1.1,0.1-1.7,0.1
			c-0.6,0-1.2,0.6-1.8,0.9c0,0.1,0,0.1,0.1,0.2c0.5-0.1,1-0.2,1.5-0.3l0,0l0,0l0,0l0,0l0,0c0.5-0.1,1-0.2,1.6-0.2
			c1.4-0.3,2.9-0.6,4.3-0.8c0.4-0.1,0.8,0,1.2,0.1c0,0.1,0,0.1,0,0.1c-0.6,0.1-1.2,0.1-1.8,0.2c0,0.2,0,0.3,0,0.4
			c3.5-0.7,7-0.9,10.4,0.2h-1.8c0,0.1,0,0.1,0,0.2c0.2,0,0.4,0.1,0.5,0.1c-0.1,0.1-0.2,0.3-0.4,0.5c0.3,0.2,0.5,0.2,0.7,0.4
			c-0.3,0.1-0.5,0.2-0.7,0.2c0,0.2,0.1,0.4,0.1,0.8c-0.5-0.3-0.8-0.5-1.1-0.7c-0.2,0.4-0.3,1-0.8,0.1c-0.1-0.2-0.7-0.1-1.1-0.1
			c0,0.8-0.3,0.4-0.6,0.2c-0.5-0.2-1-0.2-1.5-0.1c-0.6,0.2-1.2,0.3-1.8,0.2c-0.4-0.1-0.9-0.3-1.2-0.1c-0.7,0.4-1,0.4-1.1-0.2
			c-0.4,0.2-0.8,0.3-1.3,0.6c0.1-0.4,0.2-0.6,0.2-0.7c-1,0.3-2,0.6-3,0.9c0,0,0,0.1,0,0.1c0.4,0.1,0.7,0.1,1.1,0.2
			c0,0.1,0,0.2,0,0.2c-0.9-0.2-1.8-0.4-2.8-0.6c0,0.1-0.1,0.2-0.1,0.3c0.3,0.2,0.6,0.4,0.8,0.5c-0.2,0.1-0.4,0.2-0.7,0.3
			c0,0.1,0,0.2,0.1,0.3c0.6,0,1.2,0,1.8,0c0,0.1,0,0.1,0,0.2h-2.2c-0.2-0.3-0.4-0.5-0.5-0.7c0.2-0.2,0.4-0.4,0.6-0.5
			c0-0.1,0-0.1-0.1-0.2h-1.7v0.6c-0.4,0.2-0.8,0.4-1.2,0.5c-1.2,0.2-2.4,0.4-3.7,0.6c0,0.1,0,0.2,0,0.2h2.4c0,0.1,0,0.3,0,0.4h-2.3
			c0.3,0.1,0.6,0.3,1,0.3c0.6,0.1,1.2,0.2,1.8,0.3c1.1-0.4,1.5-0.4,2.8,0.5c-0.5,0.1-0.9,0.1-1.3,0.2c0,0.1,0,0.2,0,0.3
			c0.5-0.1,1-0.1,1.6-0.2c-0.1-0.5-0.5-1,0.2-1c2.2,0,4.3-0.1,6.5-0.1c0.7,0,1.5,0,2.2,0c0-0.1,0-0.2,0-0.3h-2.9c0-0.1,0-0.2,0-0.4
			c0.7,0,1.4,0,2.2,0c0.3,0,0.8,0,0.9,0.1c0.6,0.9,1.4,0.6,2.2,0.5c-0.5-0.1-1.1-0.2-1.7-0.3c0-0.1,0-0.2,0-0.3c1,0.1,2,0.1,3,0.2
			c0,0.1,0,0.2,0,0.3H45c0,0.1,0,0.2,0,0.2c0.7,0.2,1.4,0.6,1.9,0.4c1.5-0.5,2.9,0.1,4.4,0.1c1-0.1,2.1,0.2,3,1
			c-0.3,0-0.6,0-0.9,0.1c0,0.1,0,0.1,0,0.2h1.8c0-0.1,0-0.1,0-0.2c-0.2-0.1-0.3-0.1-0.5-0.2c0.1-0.2,0.2-0.3,0.3-0.3
			c0.4,0.3,0.8,0.7,1.2,0.8c0.3,0.1,0.8,0,1.2,0c0,0.1,0,0.2,0,0.2h-1.8c0.1,0.2,0.2,0.3,0.3,0.7c-0.5-0.1-0.8-0.2-1.2-0.2
			c0.2-0.1,0.3-0.2,0.4-0.2c0,0,0-0.1,0-0.1c-1.1,0.1-2.2,0.2-3.2,0.3c0,0.1,0,0.3,0,0.4H61c0,0.1,0,0.3,0,0.4H50.4
			c0,0.1,0,0.2,0,0.3c0.3,0,0.6,0.1,0.9,0.1c0.8,0,1.6-0.2,2.3,0c1,0.2,2,0.3,3,0.1c0.1,0,0.2,0,0.3,0.1c0.3,0.2,0.6,0.4,0.8,0.6
			c0.1-0.3,0.2-0.7,0.3-0.7c0.9,0,1.9,0,2.8,0c0,0.1,0,0.1,0,0.2c-0.8,0.1-1.6,0.1-2.4,0.2c0,0.1,0,0.2,0,0.3h2.7c0,0.1,0,0.1,0,0.2
			c-0.8,0.1-1.6,0.2-2.6,0.3c0.3,0.1,0.5,0.2,0.7,0.2c0,0.1-0.1,0.2-0.1,0.3h0.1c0,0.5,0,0.7,0.1,1.1H66c0-0.1,0-0.2,0-0.2H61
			c0-0.1,0-0.3,0-0.4c3.9-0.3,7.8-0.2,11.8,0c-0.4,0.3-0.7,0.5-1.1,0.7h5.5c0,0,0-0.1,0-0.1c-1.4-0.2-2.7-0.3-4.1-0.5
			c0-0.1,0-0.2,0-0.2c0.2,0,0.4-0.1,0.6-0.1c1.2,0.1,2.5,0.2,3.7,0.2c1.9,0,3.7,0,5.6,0c1.1,0,2.2,0.3,3.4,0.3
			c1.3,0,2.6,0.3,3.9,0.5c0.7,0.1,1.4,0.1,2.1,0.1c0.9,0,1.9,0.1,2.8,0.1c0.2,0,0.4-0.3,0.5-0.4c0.5,0.1,0.9,0.1,1.2,0.1
			c0.4,0.1,0.8,0.2,1.1,0.3c0,0.1,0,0.2,0,0.2h-1.9c0,0,0,0.1,0,0.1c0.5,0.2,1,0.3,1.7,0.5c1.1-0.6,2.2-0.4,3.2,0.3
			c0.3-0.2,0.6-0.3,1-0.6c0,0.6-0.1,1-0.1,1.5c-1.5-1.1-3-0.1-4.4-0.1c0.4,0.2,0.8,0.2,1.2,0.2c1.2,0,2.3-0.1,3.5,0.2
			c0.7,0.2,1.7,0.5,2.4-0.3l0,0c0,0,0,0,0,0v0c0.2-0.1,0.5-0.2,0.8-0.3c-0.4-0.1-0.8-0.1-1.1-0.2c0-0.1,0-0.1,0-0.2
			c0.4-0.1,0.8-0.2,1.3-0.3c-0.3-0.1-0.5-0.2-0.7-0.2c0,0,0-0.1,0-0.1c1,0.2,2,0.3,3,0.5c0,0.1,0,0.1,0,0.1
			c-0.6,0.1-1.2,0.2-1.8,0.4c0.1,0.1,0.1,0.2,0.1,0.2c0.1,0,0.2,0.1,0.3,0.1c1.2-0.2,2.3-0.2,3.3,0.4c0.1,0.1,0.3,0.1,0.4,0
			c0.6-0.5,1.2-0.4,1.8,0.2c0-0.3-0.1-0.4-0.1-0.6c0.1,0,0.2,0,0.3,0c0.8,0.1,1.6,0.2,2.4,0.3c0.3,0,0.6,0.1,1,0.1
			c0,0.1,0,0.1,0,0.2c-0.9,0.1-1.8,0.2-2.6,0.3c0,0.1,0,0.2,0,0.4c1.7-0.2,3.5-0.3,5.2-0.5c0-0.1,0-0.2,0-0.3
			c-0.2-0.1-0.4-0.2-0.5-0.3c0.6,0,1.2,0.3,1.7,0.4c0.6,0.1,1.2,0,1.8,0c0,0.1,0,0.2,0,0.2c-0.8,0.3-1.7,0.5-2.5,0.8
			c0,0.1,0.1,0.3,0.1,0.4c1.2-0.2,2.3-0.5,3.6-0.7c-0.2-0.2-0.5-0.4-0.8-0.8c0.7-0.2,1.4-0.3,2-0.5h2.3c-0.4,0.3-0.8,0.5-1.2,0.7
			c-0.4,0.2-0.3,0.4,0,0.7c0.4,0.3,1.2,0.2,1.6-0.3c-0.4,0-0.8,0.1-1.2,0.1c0-0.1,0-0.2,0-0.2c0.6-0.1,1.2-0.2,1.7-0.4
			c1-0.4,2.3,0.3,2.9-0.9c0.1,1,0.9,0.2,1.2,0.7c-1.3,0.7-2.9,0.1-4.3,1c5.5-0.6,10.8-0.2,16.2-0.3c-0.6-0.3-1-0.6-1.5-0.8
			c-0.1-0.1-0.2-0.1-0.3-0.1c-0.8,0.6-1.2-0.1-1.8-0.5c0.4-0.2,0.7-0.3,1-0.4c0-0.1,0-0.1,0-0.2c-0.2,0-0.5-0.1-0.7-0.1
			c0-0.1,0-0.1,0-0.1h2.6c0,0.1,0,0.1,0,0.2c-0.5,0-1.1,0-1.6,0c0,0.1,0,0.2,0,0.2c1.8,0.4,3.5,0.6,5.3,0.1c0.1,0.1,0.1,0.2,0.1,0.2
			c-0.2,0.2-0.4,0.5-0.6,0.8c0.1,0,0.3,0.1,0.5,0.1c-0.3,0.1-0.6,0.6-1-0.1c-0.2-0.4-1-0.4-1.5-0.5c-0.2,0-0.5,0.3-0.8,0.4
			c0.4,0.5,1,0.7,1.6,0.6c0.2,0,0.3,0,0.5,0c1.4,0.1,2.8,0.2,4.2,0.3c0.4,0,0.8-0.1,1.2-0.2c0,0.1,0,0.2,0.1,0.2
			c-0.2,0.1-0.4,0.2-0.5,0.3c1.1-0.1,2.3-0.2,3.5-0.4c0,0.1-0.1,0.2-0.1,0.3c0.1,0.1,0.2,0.3,0.3,0.3c1.2,0,2.5,0,3.7,0.1
			c1,0,2.1,0,3.1,0.3c1,0.3,2-0.7,2.9,0.3c0.1,0.1,0.4-0.2,0.6-0.2c1,0,2-0.1,3-0.1c0.3,0,0.7,0.3,0.8,0.2c0.2-0.3,0.4-0.8,0.3-1.1
			c-0.1-0.3-0.5-0.5,0-0.7c0.2-0.1,0.6,0.2,0.8,0.3c0.2,0.1,0.4,0.2,0.8,0.3c-0.3,0.1-0.5,0.2-0.7,0.2c0.4,0.2,0.8,0.3,1.2,0.5
			c0-0.2,0.1-0.4,0.2-0.9c1.1,0.2,2.3,0.3,3.5,0.5c0.9,0.2,1.8,1.2,2.8,0.3c0.1,0,0.2,0,0.2,0c0.6,0.8,0.9,0.2,1.2-0.2
			c0.4-0.4,0.7-1.1,1.6-0.9c0.6,0.2,1.2,0.2,1.8,0.3c0.1,0,0.1,0.2,0.1,0.2c0-0.1,0-0.1,0.1-0.1c0.8-0.2,1.5-0.5,2.2,0.2
			c0.1,0.1,0.4-0.2,0.7-0.4c0,0.1,0.1,0.4,0.2,0.6c0.6,0,1.1,0,1.7,0c0.7,0,1.4,0.1,2.1,0c1.1-0.2,2.2-0.5,3.3-0.7
			c0.8-0.1,1.6-0.1,2.4-0.1c1.9,0,3.9,0,5.8,0c0,0.1,0,0.1,0,0.2c-0.9,0.1-1.8,0.2-2.8,0.3c0,0.1,0,0.2,0,0.2h3.7
			c-0.1-0.2-0.1-0.4-0.2-0.6c1-0.1,2-0.3,3-0.2c0.9,0.2,1.9-0.7,2.7,0.3c0,0,0.1,0,0.1,0c0-0.1,0-0.3,0-0.4c0.8-0.3,1.8,0.2,2.6-0.7
			c-0.7-0.1-1.4,0-2.2,0.1c-0.4,0-0.7-0.1-1.1-0.1c-0.2,0-0.3-0.2-0.5-0.2c-1.4,0.1-2.8,0.2-4.2,0.2c-0.1,0-0.2-0.2-0.4-0.3
			c3.9-0.5,7.6-0.1,11.4,0c0,0.1,0,0.2,0,0.3c-0.7-0.1-1.5-0.1-2.2-0.2c0,0.1,0,0.2,0,0.3c0.5,0.1,1,0.2,1.5,0.2
			c0.8,0,1.7,0,2.5,0.1c0.6,0,1.2,0.2,1.7,0.1c1-0.3,1.9-0.2,2.7,0.7c-0.3,0-0.5,0.1-0.7,0.1c0,0,0,0.1,0,0.1h0.9c0,0,0,0,0,0
			c0,0,0,0,0.1,0c1.1,0.3,2.2,0,3.3-0.4c0,0,0,0,0.1,0l0.1,0c0.7,0,1.4,0.1,2,0.1c0.3,0,0.6-0.1,0.8-0.3c1.2-0.8,2.5-0.6,3.7-0.2
			c0,0,0,0,0,0c0,0,0,0,0.1,0c0,0,0,0,0,0l0,0c1.3,0,2.6,0,3.9,0c1.6,0,3.2,0,4.8,0c0.1,0,0.3-0.2,0.4-0.2c0.4,0.1,0.8,0.4,1.2,0.4
			c2.1,0,4.2,0,6.3,0c0.6,0,1.2,0.1,1.9,0.2c0.3,0,0.6,0.1,1.2,0.1c0,0,0.2,0,0.4,0.1l0,0c-0.1,0.2-0.1,0.4-0.2,0.6
			c-0.3-0.1-0.5-0.1-0.8-0.1c0,0.1,0,0.2-0.1,0.4c1.7-0.2,3.3-0.1,4.8,0.6c0.3-0.1,0.8-0.2,0.8,0c0.3,0.7,0.9,0.6,1.3,0.4
			c0.9-0.3,1.7-0.8,2.6-1.2c-0.7,0.1-1.4,0.3-2.2,0.3c-1.4,0-2.9-0.2-4.3-0.3c-0.7-0.1-1.4-0.3-2-0.5c5.1,0.1,10.2,0.3,15.3,0.4
			c0,0.1,0,0.1,0,0.2c-0.6,0-1.2,0.1-1.8,0.1c0,0.1,0,0.2,0,0.3c1.9,0,3.9,0.5,5.8-0.2c-0.1-0.2-0.2-0.2-0.3-0.2
			c-0.1-0.1-0.2-0.1-0.5-0.3c3.4,0.3,6.5,0.1,9.6-0.7c-1.4,0-2.8,0.2-4.2,0.2c-3-0.1-6-0.2-9.1-0.4c-1.7-0.1-3.4-0.2-5.1-0.2
			c-1.2,0-2.5,0-3.7,0c1.3-0.4,2.5-1,3.8-0.4c0.8,0.3,1.8,0.3,2.7-0.2c0.2-0.1,0.4,0,0.6,0c0.7,0.1,1.5,0.3,2,0.1
			c1.1-0.4,2-0.6,3.1-0.2c0.2,0.1,0.5,0,0.7,0c0.6-0.1,1.1-0.3,1.7-0.3c0.6-0.1,1.1,0,1.7,0c0.5,0,0.9,0,1.4,0c1.1,0,2.3,0,3.4,0
			c0-0.1,0-0.2,0-0.3c-0.9,0-1.8,0-2.6,0c-0.5,0-1.4,0.1-1.5-0.2c-0.4-0.7-0.8-0.3-1.2-0.4c0.1,0.1,0.3,0.2,0.4,0.3
			c0,0.1,0,0.1,0,0.1c-0.5-0.1-1-0.1-1.7-0.2c-0.5,0.5-7.5,0.6-8.2,0.1c-1.1,0.1-1.9,0.2-2.8,0.3c0,0-0.1-0.1-0.1-0.2l0,0
			c0-0.3-0.1-0.6,0.5-0.6c0.6,0,1.3,0.1,1.8-0.6c0.1-0.1,0.3-0.1,0.5,0c0.7,0.1,1.5,0.3,2.2,0.4c0.6,0.1,1.2,0,1.9,0
			s1.2,0.1,1.9,0.1c0.5,0,1.1-0.3,1.4-0.1c0.7,0.6,1.1,0,1.7-0.2c0.1-0.1,0.3-0.1,0.4-0.1c0.9,0.1,1.8,0.3,2.7,0.3
			c1.5,0,2.9,0,4.4,0c3.3,0.1,6.5,0.2,9.8,0.2c0.5,0,1,0,1.5,0c0-0.1,0-0.2,0-0.4h-3.7c0-0.1,0-0.2,0-0.2c0.1-0.1,0.2-0.1,0.3-0.2
			c1.4-0.3,2.7,0.2,4.2-0.3c1.2-0.4,2.6,0.1,3.9,0.2c1.5,0.1,2.9,0.2,4.4,0.2c1.1,0,2.2-0.3,3.3-0.3c0.7,0,1.4,0.2,2.1,0.2
			c1.8,0,3.6-0.1,5.4-0.1c0.8,0,1.6,0.3,2.4,0.3c1,0,1.9-0.1,2.9-0.1c0.4,0,0.9,0,1.3,0c0.9-0.1,1.8-0.2,2.7-0.3c0.5-0.1,1,0,1.4,0
			c1.4-0.1,2.8-0.2,4.2-0.2c0.9,0,1.8,0.1,2.7,0.2c0-0.1,0-0.2,0-0.3c-1.4-0.1-2.7-0.3-4.1-0.3c-1.5,0-3,0-4.5,0.1
			c-0.9,0-1.7,0-2.6,0c-1.4,0-2.8,0-4.1,0.1c-0.6,0-1.3,0.1-2,0.1c-0.4,0-0.8,0.1-1.1,0.1c-2.1-0.1-4.3-0.2-6.4-0.2
			c-1.2,0-2.4,0.4-3.7-0.5c2.5-0.8,4.9-0.7,7.5-1c-0.2,0.2-0.3,0.2-0.3,0.3c1.8,0,3.8,0,5.7,0c0-0.1,0-0.2,0-0.2c-0.7,0-1.4,0-2.1,0
			c-0.4,0-1.1,0.2-1.2-0.1c-0.5-0.8-1.2-0.6-1.9-0.8c2-0.1,4-0.2,5.9-0.3c1.5,0,3.1,0,4.6,0c1.6,0,3.3,0,5,0c0.3,0,0.6,0.5,0.8-0.2
			c0,0,0.3,0,0.5,0c1.7,0.1,3.5,0.1,5.2,0.2c0.5,0,1,0.2,1.6,0.3c0.7,0.1,1.4,0.7,2.2-0.2c-0.9-0.2-1.7-0.3-2.5-0.4
			c0-0.1,0-0.3,0-0.4c1.4-0.1,2.8-0.2,4.2-0.3c0.8-0.1,1.6,0.4,2.3-0.4c0.1-0.1,0.4,0,0.6-0.1c0.4-0.2,1.2-0.4,1.2-0.6
			c0-1.1,0.7-0.7,1.1-0.8c0.4-0.1,1.2-0.1,1.2-0.3c0.3-0.8,0.8-0.6,1.3-0.6c0.6-0.1,1.1-0.2,1.6-1.1c-1,0.2-1.9,0.3-2.9,0.4
			c0.2-0.3,0.4-0.5,0.4-0.5h-10.9c0.2-0.2,0.3-0.3,0.5-0.4c-0.7-0.1-1.2-0.2-1.8-0.3c0.5-0.3,1-0.8,1.6-0.8c2.4-0.2,4.7-0.3,7.1-0.4
			c-0.4-1-0.1-1.4,0.6-1.6c1.1-0.4,2.2-0.9,3.4-1.4c0-0.1-0.1-0.2-0.1-0.4c-0.4,0.2-0.9,0.5-1.3,0.6c-0.5,0.2-1,0.2-1.6,0.3
			c-0.5,0-1,0.1-1.5,0.1c0-0.1,0-0.2,0-0.4c1.4-0.4,2.9-0.8,4.3-1.2c0-0.1,0-0.1,0-0.2c-0.5-0.1-0.9-0.3-1.4-0.4
			c0.4-0.1,0.7-0.2,1.1-0.3c0,0,0-0.1,0-0.1h-2.5c0-0.1,0-0.1,0-0.2c1.2-0.1,2.4-0.2,3.6-0.2c0,0,0,0.1,0,0.2
			c-0.2,0.1-0.4,0.1-0.6,0.2h1.3c0,0-0.1-0.1-0.1-0.1c1.1-0.2,2.3-0.3,3.5-0.5c0-0.1,0-0.1,0-0.2c-0.3,0-0.5,0.1-0.8,0.2
			c0.2-0.6,0.4-1.2,0.6-1.8c-0.2-0.2-0.5-0.5-0.7-0.7c0.2-0.2,0.4-0.3,0.5-0.4c0-0.1,0-0.1,0-0.2H342c0-0.2,0-0.3,0-0.5
			c0.9-0.1,1.9-0.2,3-0.4c-0.5-0.1-0.8-0.1-1.2-0.2c0.5-0.1,0.9-0.2,1.2-0.2c0,0,0-0.1,0-0.2c-3.3-0.1-6.6-0.3-9.9-0.4
			c0-0.1,0-0.1,0-0.2c3.8-0.5,7.5-1,11.3-1.6c-0.6-0.2-1.2-0.2-1.8-0.3c-0.7-0.1-1.4-0.1-2.1-0.2c-0.5-0.1-1-0.3-1.5-0.4
			c0-0.1,0-0.2,0.1-0.2h1.5c-0.1-0.1-0.2-0.2-0.2-0.2c0,0-0.1,0-0.1,0c0,0,0,0,0-0.1c1.5-0.2,3-0.3,4.5-0.5c0-0.1,0-0.1,0-0.2
			c-2,0.1-4,0.2-6.1,0.4c0-0.1,0-0.2,0-0.4h1.2c-0.1-0.1-0.2-0.2-0.3-0.4c0.6,0,1.1-0.1,1.8-0.1c-1.8-0.5-3.6,0.5-5.2-0.9
			c1.6-0.2,3.1-0.4,4.8-0.6c-1.6-0.2-3.1-0.3-4.5-0.5c0-0.1,0-0.2,0-0.2h6.1c-2.3-0.6-4.6-0.7-7,0c0-0.1-0.1-0.2-0.1-0.3
			c0.5-0.4,1-0.8,1.6-1.2c-0.3-0.2-0.6-0.5-1-0.7c0-0.1,0.1-0.2,0.1-0.4h6.1c0-0.1,0-0.2,0-0.3c-1.7-0.4-3.5-0.8-5.2-1.2
			c0-0.1,0-0.2,0-0.3c2.3-0.3,4.6-0.5,6.9-0.8c-0.2-0.2-0.4-0.3-0.6-0.4c-2,0.1-3.9,0.2-5.9,0.3c1.9-1.5,4-1.9,6.3-1.8
			c-0.3-0.2-0.4-0.3-0.6-0.5c1.1-0.1,2.1-0.2,3.2-0.2c-0.1-0.2-0.2-0.3-0.4-0.6c1.2-0.2,2.3-0.3,3.4-0.5c0-0.1,0-0.2,0-0.3
			c-1.2-0.1-2.4-0.1-3.6-0.2c0-0.1,0-0.1,0-0.2c1-0.1,2.1-0.2,3.1-0.4c-1.2,0-2.5-0.7-3.7,0c-0.2,0.1-0.6,0-0.9-0.1
			c-0.7-0.2-1.4-0.5-2.2-0.7c2.1-0.5,4.1-0.5,6.2-0.2c-0.1-0.2-0.3-0.3-0.4-0.5c-3.2-0.5-6.6-1-10-1.5c0-0.1,0-0.2,0-0.3
			C341.3,35.1,342.9,35.5,344.5,35.4L344.5,35.4z M32.5,57.8L32.5,57.8C32.5,57.8,32.5,57.8,32.5,57.8L32.5,57.8
			C32.5,57.8,32.5,57.8,32.5,57.8L32.5,57.8z M9.9,29.9L9.9,29.9c-0.1-0.1-0.2-0.2-0.3-0.2C9.7,29.8,9.8,29.8,9.9,29.9z M189.9,6
			L189.9,6L189.9,6c-0.1,0.2-0.2,0.4-0.3,0.4C189.7,6.4,189.8,6.1,189.9,6z M306.4,9.1c-0.2,0-0.4,0.1-0.6,0.1c0,0,0,0,0,0
			C306,9.2,306.2,9.1,306.4,9.1z M341,60.7C341,60.7,341,60.7,341,60.7L341,60.7z"/>
		<path class="st0" d="M316.3,77.5c-2.2-0.1-4.4-0.2-6.6-0.2c-1.1,0-2.3,0-3.4,0c-2.4-0.1-4.9-0.2-7.3-0.2c-0.8,0-1.5,0.1-2.3,0.1
			c-1.7,0-3.4-0.1-5-0.1c-0.6,0-1.3-0.1-2-0.1c-0.2,0-0.5,0.1-0.7,0.2c0,0.1,0,0.2,0,0.2c8.6,0.4,17.3,0.8,25.9,1.1c0,0,0,0,0,0.1
			c-0.6,0.1-1.2,0.1-1.8,0.2c0,0.1,0,0.2,0,0.2c1.9,0,3.9,0.5,6-0.1c-0.4-0.2-0.6-0.3-0.9-0.5c0-0.1,0-0.2,0-0.2c1,0.3,2,0.4,3,0.2
			c1.1-0.2,2.2-0.1,3.3-0.2c1-0.1,2.1-0.4,3.1-0.6c-1.6,0-3.2,0.2-4.8,0.1C320.7,77.8,318.5,77.6,316.3,77.5L316.3,77.5z"/>
		<path class="st0" d="M214.9,3.7C214.9,3.7,214.9,3.6,214.9,3.7C214.9,3.6,214.9,3.6,214.9,3.7L214.9,3.7
			C214.9,3.6,214.9,3.6,214.9,3.7z"/>
		<path class="st0" d="M215.1,3.9c0.6,0,1.2,0,1.9,0c-0.3,0.3-0.6,0.5-0.8,0.8c1.1,0.1,2.1,0.2,3,0.2c0,0.1,0,0.1,0,0.2
			c-0.2,0.1-0.5,0.1-0.7,0.1c0,0,0,0.1,0,0.1c0.7,0.1,1.4,0.2,2.1,0.3c0,0.1,0,0.2,0,0.2H218c-0.1,0.3-0.1,0.6-0.1,0.6
			c0.5,0.2,0.9,0.4,1.4,0.4c0.4,0,1.1-0.1,1.3-0.3c0.4-0.7,0.9-1.3,1.6-1.5c0.7-0.2,1.4-0.5,2.2-0.1c0.2,0.1,0.5-0.1,0.7,0
			c1.1,0.1,2.1-1,3.3-0.3c0.1,0.1,0.2,0,0.3,0c0.9-0.1,1.9-0.1,2.8-0.2c0.8,0,1.7,0,2.5,0c-0.1-0.3-0.1-0.5-0.2-0.7
			c-1.4-0.1-2.9-0.1-4.3-0.2c-1.1,0-2.1-0.1-3.2-0.1c-1.2,0-2.5,0.1-3.7,0.1c-1.1,0-2.1-0.1-3.2,0c-0.3,0-0.7,0.3-1,0.3
			c-1-0.1-2-0.3-3.1-0.5c0.2-0.2,0.4-0.3,0.7-0.6c-0.7,0.2-1.2,0.4-1.8,0.5c0.2,0.1,0.4,0.2,0.5,0.3c0,0,0,0-0.1,0.1
			C215,3.7,215.1,3.9,215.1,3.9L215.1,3.9z"/>
		<path class="st0" d="M181.8,4.5c-0.4,0.1-0.8,0.1-1.2,0.2c0,0.1,0,0.2,0,0.2c0.4,0,0.7-0.1,1.1-0.1c0.9,0,1.9-0.1,2.7,0.2
			c0.9,0.3,1.8,0,2.7-0.1c0.7-0.1,1.3-0.8,2.1-0.6c0.1,0,0.3-0.1,0.6-0.2h-2.3c0-0.1,0-0.1,0-0.1c0.2,0,0.4-0.1,0.6-0.1
			c0-0.1,0-0.2,0-0.3c-3,0.1-6,0.2-9,0.4c0,0.1,0,0.2,0,0.4h2.8C181.9,4.3,181.8,4.4,181.8,4.5z"/>
		<path class="st0" d="M204.4,7.1L204.4,7.1C204.4,7.1,204.4,7.1,204.4,7.1C204.4,7.1,204.4,7.1,204.4,7.1L204.4,7.1z"/>
		<path class="st0" d="M204.8,6.5c1.2,0,2.4-0.1,3.5-0.1c0.8,0,1.6,0.1,2.1,0.9c1.9-0.9,3.9-0.5,5.9-0.9c-4.5-0.8-9-0.3-13.6-0.3
			c0.2,0.2,0.4,0.3,0.5,0.5c-0.1,0.2-0.2,0.3-0.5,0.6c0.6,0,1.1-0.1,1.6-0.1C204.1,6.6,204.3,6.5,204.8,6.5L204.8,6.5z"/>
		<path class="st0" d="M76.3,78.9h0.9c-0.5,0.3-0.8,0.4-1.2,0.6v-1.1c-1-0.1-2-0.3-3-0.4c0,0,0-0.1,0-0.1h2.9c0-0.1,0-0.2,0-0.2
			c-1.2-0.1-2.4-0.1-3.7-0.2c0.2,0.3,0.3,0.4,0.3,0.6c-0.5,0.1-0.9,0.2-1.2,0.3c0.1,0.2,0.1,0.2,0.1,0.3c-0.2,0.1-0.3,0.1-0.4,0.1
			c-0.1-0.4-0.2-0.8-0.3-0.9h-3.3c0,0,0,0.1,0,0.1c0.1,0.1,0.3,0.1,0.4,0.2c0,0.1,0,0.2,0,0.3c-0.3,0-0.8,0.1-0.9-0.1
			c-0.4-0.6-0.7-0.4-1.1-0.1c-0.4,0.2-0.7,0.6-1.2,0.3c-1.2-0.7-2.6-0.6-4-0.6c-0.9-0.1-1.8,0.2-2.8,0c-0.7-0.2-1.5,0-2.2,0.1
			c-1,0-2,0.1-3,0.1c-1.3,0-2.6,0-3.9,0c0,0.6,0.3,0.8,0.8,0.8c0.9-0.1,1.8-0.2,2.8-0.2c0.8,0,1.6,0,2.4,0c0,0.1,0,0.1,0,0.1
			c-1.2,0.1-2.4,0.2-3.5,0.3c0,0.1,0,0.2,0,0.3h12.6c0,0,0.1-0.1,0.2-0.1c-0.3-0.2-0.5-0.3-0.8-0.5c0.9,0,1.8,0.5,2.7,0.1
			c-0.2,0.3-0.5,0.5-0.8,0.8c0.6-0.1,1.1-0.2,1.7-0.3c1,0.1,1.9,0.3,2.9,0.4c0.4,0,1.1,0.3,1.2-0.6c0-0.1,0.4-0.1,0.7-0.2
			c0.7,0.1,1.3,0.2,2.2,0.3c-0.4,0.2-0.7,0.3-0.9,0.3c-0.2,0-0.4,0-0.7,0c1.9,0.2,3.9,0.7,5.8-0.2C77.8,78.3,77.5,78.2,76.3,78.9
			L76.3,78.9z"/>
		<path class="st0" d="M245.2,81.3c-0.7,0.2-1.4,0.2-1.8-0.6c0,0-0.1,0-0.2-0.1c0,0.2,0.1,0.3,0.1,0.4c-3,0.8-6,0.4-9,0.7
			c1.3,0.1,2.6,0.2,3.8,0.4c1.2,0.2,2.4-0.4,3.5,0.2c0.2,0.1,0.5,0.1,0.7-0.1c1-0.6,2-0.1,2.9,0.2c0.2,0.1,0.5-0.2,0.7-0.2
			C245.8,81.8,246,81.1,245.2,81.3L245.2,81.3z"/>
		<path class="st0" d="M42.3,72.5c0,0.1,0,0.2,0,0.2h2.5c0,0.1,0,0.1,0,0.2c-0.6,0.1-1.2,0.3-1.7,0.4c0.8,0.3,1.7-0.1,2.2,0.8
			c0,0,0.2,0,0.2,0c1-0.1,1.9-0.2,2.9-0.3c0-0.1,0-0.2,0-0.3h-2.2c0-0.3,0.3-0.9,0.1-1c-0.3-0.3-0.5-0.9-1.2-0.6
			c-0.3,0.2-0.8-0.1-1.3-0.1c-0.1-0.1-0.2-0.2-0.2-0.4c0.2-0.1,0.5-0.1,0.7-0.1c-0.1-0.1-0.1-0.1-0.2-0.2c-0.5,0.1-1,0.1-1.7,0.2
			c0.5,0.1,0.8,0.2,1.1,0.2c0,0.1,0,0.2,0,0.3c-0.4,0-0.8-0.1-1.2-0.1c0,0.1,0,0.1,0,0.2c0.3,0.1,0.7,0.3,1,0.4c0,0,0,0.1,0,0.1
			C43.1,72.5,42.7,72.5,42.3,72.5L42.3,72.5z"/>
		<path class="st0" d="M296.6,78.9c-0.5-0.1-1,0-1.4,0c-1,0.1-2,0.2-3,0.2c-0.9,0-1.9,0-2.8,0c-1.3,0-2.6,0-3.9,0c0,0.1,0,0.1,0,0.2
			c0.3,0.1,0.6,0.1,0.9,0.2c1.1,0.1,2.1,0.1,3.2,0.2c1.1,0.1,2.2-0.4,3.4,0.2c0.2,0.1,0.5,0.1,0.7-0.1c1-0.6,1.9-0.1,2.9,0.2
			c0.2,0.1,0.4,0.1,0.7,0.1c0-0.2,0.1-0.4,0-0.5C297,79.3,296.8,78.9,296.6,78.9L296.6,78.9z"/>
		<path class="st0" d="M33.8,7c0,0.1,0,0.2,0,0.2c0.3-0.1,0.6-0.1,0.9-0.2c0.4-0.1,0.7-0.3,1.1-0.3c1.8-0.2,3.7-0.4,5.5-0.6
			c0.5-0.1,1-0.2,1.6-0.3c-1.4-0.1-2.7,0-4,0.1C37.7,6,36.4,6.8,35,6.3c0-0.1,0-0.2,0-0.3c2.7-0.3,5.3-0.7,8-1
			c-1.1-0.4-8.3,0.7-9.5,1.4c0.6,0,1,0.1,1.6,0.1C34.6,6.7,34.2,6.9,33.8,7L33.8,7z"/>
		<path class="st0" d="M212.5,4.2h-2.8c0.6,1.1,1.1,1.3,1.7,0.9c0.4-0.3,1-0.4,1.5-0.5c0.6-0.1,1.3-0.1,1.9-0.2c0-0.1,0-0.2,0-0.2
			h-1.9c0.8-0.2,1.4-0.4,2-0.5c-0.4-0.1-0.8-0.1-1.2-0.2c-0.8-0.3-1.6-0.3-2.3,0.3c0.4,0.1,0.8,0.2,1.2,0.2
			C212.5,4,212.5,4.1,212.5,4.2L212.5,4.2z"/>
		<path class="st0" d="M214.9,3.6C214.9,3.6,214.9,3.6,214.9,3.6C214.8,3.6,214.9,3.6,214.9,3.6L214.9,3.6z"/>
		<path class="st0" d="M298.6,78.4c0,0.1,0,0.2,0,0.3c0.1,0,0.3,0.1,0.4,0.1c0.7,0,1.4-0.1,2.1,0c0.9,0.1,1.8,0.7,2.8,0.5
			c0.1,0,0.3,0,0.3,0.1c0.3,0.7,0.8,0.6,1.3,0.4c0.7-0.3,1.5-0.7,2.2-1C304.6,78.6,301.6,78.5,298.6,78.4L298.6,78.4z"/>
		<path class="st0" d="M308.1,78.6c-0.1,0.1-0.3,0.1-0.4,0.2c0.1,0,0.3,0,0.5,0C308.1,78.7,308.1,78.7,308.1,78.6L308.1,78.6z"/>
		<path class="st0" d="M101.3,80.2c0.4,0.2,0.6,0.2,1,0.4c-0.4,0.2-0.7,0.2-0.9,0.3c0,0.1,0,0.1,0,0.2h2.1c0.7-0.3,1.4-0.6,2.2-0.7
			c0.9-0.2,1.8-0.2,2.7-0.3c0-0.1,0-0.1,0-0.1c-1.2-0.2-2.5-0.3-3.8-0.5c0,0.2,0,0.4,0,0.7L101.3,80.2L101.3,80.2z"/>
		<path class="st0" d="M121.4,81.4c-1.1-0.2-2.2,0.2-3.3,0.3c-0.2,0-0.4-0.1-0.6-0.2c-0.3-0.2-0.5-0.3-0.8-0.5
			c0,0.1-0.1,0.1-0.1,0.2c0.1,0.1,0.2,0.1,0.3,0.1c0,0,0,0.1,0,0.1c-0.6,0.1-1.2,0.5-1.9,0.2c-0.2-0.1-0.6,0.2-1.1,0.3h9.5
			c0-0.1,0-0.2,0-0.3C122.9,81.2,122.1,81.5,121.4,81.4L121.4,81.4z"/>
		<path class="st0" d="M110,4.2c1.4-0.2,2.7-0.5,4.1-0.7c1.4-0.2,2.9-0.3,4.3-0.5c0.1,0,0.2-0.3,0.2-0.4c-3.2,0.4-6.4,0.8-9.6,1.1
			c0,0.2,0,0.3,0,0.4C109.3,4.2,109.6,4.2,110,4.2L110,4.2z"/>
		<path class="st0" d="M314.5,3.7c0,0,0.2-0.1,0.2-0.1c0.9-0.2,1.9-0.3,2.8-0.5c0-0.1,0-0.2,0-0.2c-2.5-0.4-4.9,0.2-7.4,0.3
			c0,0,0.1,0.1,0.1,0.1C311.7,3.5,313.1,2.9,314.5,3.7L314.5,3.7z"/>
		<path class="st0" d="M238.8,3.5c3-0.9,6.2-0.6,9.2-1.4c0-0.1,0-0.2,0-0.3c-3.2,0.4-6.3,0.7-9.5,1.1c0,0.1,0,0.2,0,0.3
			C238.6,3.4,238.7,3.5,238.8,3.5L238.8,3.5z"/>
		<path class="st0" d="M30.8,72.8c0.2,0.1,0.4,0.2,0.6,0.3c0,0.1,0,0.2-0.1,0.3c-0.6-0.2-1.2-0.4-1.8-0.6c0.3,0.8,1,0.7,1.5,0.8
			c1.2,0.4,1.4,0.2,1.7-1.2c0.1,0.4,0.2,0.8,0.2,1h0.9c0-0.3,0.1-0.6,0.2-1.1C32.9,71.8,31.9,72.6,30.8,72.8L30.8,72.8z"/>
		<path class="st0" d="M88.2,77.7c0,0.1,0,0.2,0,0.3c1.3,0,2.5,0,3.8,0c0.2,0,0.3,0.2,0.5,0.3c-0.2,0.1-0.3,0.3-0.5,0.3
			c-0.5,0.1-1,0.2-1.5,0.3c0,0.1,0,0.2,0.1,0.4c0.3-0.1,0.6-0.1,0.9-0.2c0.5-0.2,1-0.2,1.4-0.8c0.2-0.3,1.1-0.1,1.7-0.1
			c0.3,0,0.6-0.1,0.8-0.1c0-0.1,0-0.2-0.1-0.3L88.2,77.7L88.2,77.7z"/>
		<path class="st0" d="M175.8,4.3c0,0.2,0.1,0.4,0.1,0.6c-0.5,0-0.9,0.1-1.4,0.1c0,0.1,0,0.1,0,0.1c0.6,0.1,1.2,0.1,1.6,0.2
			c0.4-0.3,0.7-0.6,1-0.9c-0.4-0.6-3.2-0.8-4.2-0.3C173.8,5.4,174.8,4.5,175.8,4.3z"/>
		<path class="st0" d="M52.6,5.3c-0.1,0.2-0.3,0.3-0.5,0.6h4.1c0-0.1,0-0.2,0-0.2c-1-0.1-2.1-0.2-3.1-0.3c0-0.1,0-0.2,0-0.3h3
			c0-0.1,0-0.2,0-0.3c-1.3,0.3-2.7-0.5-4.1,0.2C52.3,5.1,52.5,5.2,52.6,5.3L52.6,5.3z"/>
		<path class="st0" d="M42.8,79.3c-1.2,0.3-2.5,0.8-3.8,0.7c-0.4,0-0.9,0.2-1.3,0.3c0,0,0.1,0.1,0.1,0.1h5.5c0-0.1,0-0.2,0-0.2
			c-0.3-0.1-0.6-0.1-0.9-0.2c0-0.1,0-0.1,0-0.2c0.5-0.1,1-0.2,1.4-0.3C43.6,79.3,43.2,79.2,42.8,79.3z"/>
		<path class="st0" d="M125.7,2.7c-0.8,0.1-1.4,0.1-2,0.2c0,0.1,0.1,0.3,0.1,0.4c1.1-0.3,2.2-0.6,3.3-0.9c0-0.1,0-0.1-0.1-0.2
			c-0.4,0-0.7,0-1.1-0.1c0,0,0-0.1,0-0.1c0.4-0.1,0.8-0.3,1.3-0.4c0,0,0-0.1,0-0.2c-0.7,0-1.4-0.1-2.1-0.1c0.2,0.2,0.3,0.4,0.5,0.6
			c-0.7,0.1-1.4,0.2-2,0.2C124.1,3.2,125.1,1.6,125.7,2.7z"/>
		<path class="st0" d="M320.5,8.7c0.1-0.3,0.2-0.6,0.3-0.8c-1.9-0.6-3.8-1.1-5.6,0.1h5.1c0,0.3-0.1,0.5-0.1,0.6
			C320.4,8.6,320.4,8.7,320.5,8.7z"/>
		<path class="st0" d="M9.8,12.2c0-0.1,0.1-0.2,0.1-0.2c-0.9-0.4-1.8-0.8-2.8-1.2C7,10.9,7,10.9,7,11c0.3,0.2,0.7,0.4,1,0.6
			c0,0.1,0,0.1-0.1,0.1H7.1c0.4,0.3,0.7,0.6,1,0.8c0,0.1-0.1,0.1-0.1,0.1c0.6,0.1,1.2,0.2,1.8,0.4c0-0.1,0-0.1,0-0.2
			c-0.2-0.1-0.5-0.3-0.7-0.4c0.1-0.1,0.1-0.2,0.2-0.2L9.8,12.2L9.8,12.2z"/>
		<path class="st0" d="M77.9,78.9c0.5,0.2,0.7,0.2,0.8,0.3c-0.2,0.2-0.3,0.4-0.6,0.8h2.1c0.1-0.4,0.1-0.7,0.2-1
			c0.1-0.1,0.1-0.2,0.1-0.3c-0.7-0.1-1.3-0.1-2-0.2C78.4,78.5,78.2,78.7,77.9,78.9L77.9,78.9z"/>
		<path class="st0" d="M196.4,80.1c-1.7,0.2-3.4,0.5-5.1,0.8c0,0.1,0,0.2,0,0.3c1.8-0.2,3.6-0.3,5.6-0.5
			C196.6,80.4,196.5,80.1,196.4,80.1L196.4,80.1z"/>
		<path class="st0" d="M322.5,7.3c1.2,0.7,2.3,1.2,3.7,0.3C325,6.8,323.7,7.5,322.5,7.3z"/>
		<path class="st0" d="M352.9,26.7c0.4,0.3,0.7-1.5,1.4-0.2c0-1.3-0.7-1.8-2.3-1.7c0.2,0.4,0.5,0.8,0.7,1.1l0,0l0,0c0,0,0,0,0,0
			c0,0,0,0,0,0c0,0,0,0,0,0C352.7,26,352.7,26.2,352.9,26.7L352.9,26.7z"/>
		<path class="st0" d="M2.4,27.8c0.1-0.9,0.2-1.5,0.3-2.4c-0.5,0.4-0.9,0.6-1.2,0.9c0.3,0.9,0.1,1.2-0.9,1.6c0,0.1,0,0.2,0,0.2
			C1.3,28.1,2,27.9,2.4,27.8L2.4,27.8z"/>
		<path class="st0" d="M58.8,76.9c-0.7-0.5-1.2-0.9-1.9-0.4c-0.2,0.1-0.4,0.1-0.7,0.1c-1.3,0-2.6,0-4,0c0,0.1,0,0.1,0,0.2
			c1.1,0.1,2.1,0.1,3.2,0.1C56.5,76.9,57.5,76.9,58.8,76.9L58.8,76.9z"/>
		<path class="st0" d="M326.1,2.3c0.3,0,0.5,0.6,0.8,0.6c1.1-0.1,2,0.4,2.6,1.4c0.1-0.8-0.5-1.3-1.2-1.6c-1-0.3-1.9-0.7-2.9-1.1
			c-0.2,0.2-0.6,0.5-0.9,0.8C325,2.4,325.5,2.3,326.1,2.3z"/>
		<path class="st0" d="M87.1,78.6c-0.5,0.1-0.9,0.3-1.3,0.4c0,0.4-0.1,0.7,0,1c0.1,0.6,1,0.7,1.4,0c-0.1,0-0.3,0-0.7-0.1
			C87.6,79.7,87.2,79.2,87.1,78.6L87.1,78.6z"/>
		<path class="st0" d="M178.2,80.7c1.2,0.7,4.1,0.9,4.6,0.3C181.3,80.9,179.9,80.4,178.2,80.7z"/>
		<path class="st0" d="M122.4,2.9c0.2-0.3,0.3-0.7,0.6-1.3c-1.3,0.4-2.4,0.7-3.6,1c0,0.1,0,0.2,0,0.2c0.6,0.1,1.1,0.2,1.7,0.3
			C121.6,2.4,121.8,2.4,122.4,2.9L122.4,2.9z"/>
		<path class="st0" d="M48.6,78C48.6,78,48.6,78,48.6,78C48.6,78,48.6,78,48.6,78C48.6,78,48.6,78,48.6,78L48.6,78L48.6,78z"/>
		<path class="st0" d="M48.9,77.6c1,0,2,0.1,2.9,0.1c0.6,0,1.3,0,1.9,0c0-0.1,0-0.1,0-0.2c-1.8-0.2-3.7-0.3-5.4-0.4
			c0,0,0.1,0.2,0.1,0.3h-0.9c0.5,0.2,0.8,0.4,1.2,0.6C48.7,77.9,48.8,77.6,48.9,77.6L48.9,77.6z"/>
		<path class="st0" d="M48.3,77.1L48.3,77.1C48.3,77.1,48.3,77.1,48.3,77.1z"/>
		<path class="st0" d="M41.3,78.4c0,0.1,0,0.1,0,0.2c0.4,0,0.7,0,1.1,0.1c-0.6,0.2-1.2,0.4-1.9,0.6c0,0.1,0.1,0.1,0.1,0.2
			c1.7-0.3,3.5-0.6,5.2-0.9c0,0,0-0.1,0-0.1H41.3z"/>
		<path class="st0" d="M234.8,6.1c-0.2-0.3-0.2-0.6-0.4-1.2c-0.2,0.4-0.2,0.5-0.3,0.6c-0.2,0.2-0.4,0.3-0.6,0.5
			c0.3,0.2,0.6,0.6,0.8,0.6c1.1,0,2.2-0.2,3.3-0.3c-0.8-0.1-1.5-0.1-2.3-0.1C235.2,6.2,234.8,6.3,234.8,6.1L234.8,6.1z"/>
		<path class="st0" d="M23.2,79.2c0,0.1,0,0.2,0,0.3c1.9-0.4,3.9-0.7,5.8-1.1C27,78.2,25.1,78.8,23.2,79.2z"/>
		<path class="st0" d="M318.9,4.2c1.5,0.2,3,0.4,4.5,0.7C322.7,4.1,321.5,3.9,318.9,4.2z"/>
		<path class="st0" d="M2.6,35.9c0.5,0.1,0.9,0.1,1.2,0.2C3.9,35.6,4,35.3,4.1,35C3.2,34.6,2.6,34.9,2.6,35.9z"/>
		<path class="st0" d="M23.2,79.9c0,0.1,0,0.2,0.1,0.4c1.9-0.4,3.8-0.8,5.6-1.1c0-0.1,0-0.2,0-0.3C27,79.3,25.1,79.6,23.2,79.9z"/>
		<path class="st0" d="M37.9,81.1h5.4c0-0.1,0-0.2,0-0.3C41.4,80.6,39.7,80.7,37.9,81.1z"/>
		<path class="st0" d="M235.6,4c-0.1,0.2-0.2,0.3-0.3,0.5c0.2,0,0.6,0,0.6,0c0.2-0.9,1-0.5,1.5-0.9c0.2-0.2,0.5-0.2,0.7-0.3
			c0-0.1,0-0.1-0.1-0.2c-1.4,0.2-2.7,0.5-4.1,0.7l0,0c0,0,0,0,0,0c0,0,0,0,0,0C234.4,4.4,235,3.8,235.6,4L235.6,4z"/>
		<path class="st0" d="M113,4.2c-0.3,0-0.6-0.1-0.8-0.1c-0.8,0.1-1.6,0.2-2.4,0.4c-0.3,0.1-0.5,0.4-0.8,0.5c0,0.1,0.1,0.2,0.1,0.2
			C110.3,5,111.5,4.6,113,4.2L113,4.2z"/>
		<path class="st0" d="M351.2,26.3c-0.2,0.2-0.3,0.5-0.6,0.9c0.7-0.5,1.3-0.9,2-1.4c-0.5-0.2-1-0.5-1.6-0.8c0.1,0.3,0.2,0.5,0.3,0.7
			c-0.5-0.1-0.9-0.1-1.3-0.2C349.9,26.6,351,25.7,351.2,26.3L351.2,26.3z"/>
		<path class="st0" d="M349.9,25.5L349.9,25.5C349.9,25.5,349.9,25.5,349.9,25.5C349.9,25.5,349.9,25.5,349.9,25.5z"/>
		<path class="st0" d="M253.9,1.7c0.7-0.2,1.4-0.4,2.2-0.6c0.2-0.1,0.5,0,0.8,0c0-0.1-0.1-0.3-0.2-0.7c-0.9,0.3-1.7,0.6-2.6,0.8
			c-0.3,0.1-0.6,0.1-0.9,0.1c0,0.1,0,0.2,0,0.3C253.3,1.7,253.6,1.8,253.9,1.7L253.9,1.7z"/>
		<path class="st0" d="M300,5.6h-1.2c0,0,0,0.1,0,0.1c0.3,0,0.6,0,1.1,0.1c-0.5,0.2-0.8,0.4-1.2,0.6c0.5,0.2,0.9,0.4,1.3,0.6V6.4
			h1.3c-0.1-0.4-0.1-0.7-0.2-1.2c-0.2,0.4-0.4,0.7-0.5,1H300L300,5.6L300,5.6z"/>
		<path class="st0" d="M110.3,82C110.3,82,110.2,82,110.3,82c-0.8,0.1-1.5,0.2-2.3,0.3c0.1,0.1,0.2,0.4,0.2,0.4
			c1.3-0.1,2.6-0.3,3.8-0.5c0-0.1,0-0.2,0-0.3H110.3z"/>
		<path class="st0" d="M118.4,3.7c0-0.1,0-0.1,0-0.2c-1.7,0.2-3.4,0.4-5.1,0.5c0,0.1,0,0.2,0,0.3c0.8-0.1,1.7-0.1,2.6-0.2
			C116.7,4,117.6,3.8,118.4,3.7L118.4,3.7z"/>
		<path class="st0" d="M20.3,9.5c0.4,0.3,0.7,0.6,1.2,0.9V8.9c-0.3-0.1-0.8-0.3-1.3-0.5C19.3,8,19.3,8,19.1,8.2
			c0.6,0.4,1.2,0.7,2.1,1.2C20.7,9.4,20.6,9.4,20.3,9.5L20.3,9.5z"/>
		<path class="st0" d="M41.9,74c-1.3,0.1-2.7,0.3-4-0.4c0,0.3,0.1,0.7,0.1,0.8c0.6,0,1.3-0.1,1.9-0.1c0.8-0.1,1.7-0.2,2.5-0.3l0,0
			c0.8,0.1,1.5,0.2,2.3,0.3c0-0.1,0-0.3,0-0.4h-2.3C42.3,74,42.1,74,41.9,74L41.9,74z"/>
		<path class="st0" d="M47.8,79.5c-0.4-0.1-0.9,0-1.4,0c0.1,0.1,0.2,0.2,0.2,0.3c-0.2,0.1-0.5,0.3-0.8,0.4c0,0.1,0,0.1,0.1,0.1
			c0.8-0.1,1.6-0.1,2.5-0.2C48.2,79.9,48,79.6,47.8,79.5L47.8,79.5z"/>
		<path class="st0" d="M31,66.5c0-0.1,0-0.2-0.1-0.4c-0.5,0.1-1.1,0.3-1.7,0.4c0,0.1,0,0.2,0.1,0.2c0.2,0.1,0.4,0.1,0.7,0.2
			c-0.4,0.2-0.5,0.3-0.8,0.5C30.3,67.8,30.5,66.9,31,66.5L31,66.5z"/>
		<path class="st0" d="M240.3,5.9c0,0.1,0,0.2,0,0.3c1.1,0.2,2.2,0.3,3.4,0.5c0-0.1,0-0.2,0.1-0.2c-0.4-0.1-0.7-0.3-1.1-0.4
			c-0.4-0.1-0.8-0.2-1.2-0.2C241,5.8,240.7,5.9,240.3,5.9L240.3,5.9z"/>
		<path class="st0" d="M29.7,80.8c0,0.1,0,0.3,0,0.4c1.3-0.1,2.6-0.3,3.9-0.4c0-0.1,0-0.2,0-0.3C32.3,80.5,31,80.6,29.7,80.8
			L29.7,80.8z"/>
		<path class="st0" d="M226.7,80.4c0.6-0.2,1.1-0.5,1.6-0.7c-0.9,0-1.8,0-2.7,0C225.8,80.6,226.2,80.7,226.7,80.4L226.7,80.4z"/>
		<path class="st0" d="M52.5,80.4H57c0-0.1,0-0.2,0-0.2c-1.4,0-2.8-0.1-4.3-0.1C52.6,80,52.5,80.3,52.5,80.4z"/>
		<path class="st0" d="M334.9,10c0.4,0.1,0.8,0.3,1.2,0.5c0-0.1,0.1-0.2,0.1-0.3c-0.1-0.1-0.3-0.2-0.5-0.3c0.2-0.2,0.4-0.3,0.6-0.4
			c-1.1,0.1-2.1,0.2-3,0.3c0.3,0.1,0.7,0.3,0.9,0.4C334.6,10.1,334.8,10,334.9,10z"/>
		<path class="st0" d="M345.1,43.1L345.1,43.1C345.1,43.1,345.1,43.1,345.1,43.1C345.1,43.1,345.1,43.1,345.1,43.1L345.1,43.1z"/>
		<path class="st0" d="M346,42.6c-1.1-0.1-2.2-0.3-3.3-0.4c0,0.2,0,0.3-0.1,0.5c0.2,0,0.4,0.1,0.5,0.1c0.6,0,1.3-0.1,2,0
			c0.5,0.1,0.4,0.3,0,0.4c0.3-0.1,0.6-0.1,0.9-0.2C346,42.8,346,42.7,346,42.6L346,42.6z"/>
		<path class="st0" d="M8.5,44.3c-0.3,0.4-0.5,0.8-0.7,1.1c0.2,0,0.5,0.1,0.8,0.1c0.2,0,0.5-0.2,0.5-0.3c0-0.6,0-1.2,0.1-1.8
			c-0.2,0.3-0.4,0.7-0.6,1C8.5,44.3,8.5,44.3,8.5,44.3z"/>
		<path class="st0" d="M9.2,43.4C9.2,43.4,9.2,43.3,9.2,43.4L9.2,43.4L9.2,43.4C9.2,43.3,9.2,43.3,9.2,43.4
			C9.2,43.3,9.2,43.3,9.2,43.4L9.2,43.4z"/>
		<path class="st0" d="M14.8,59.2c1.2,0.5,2-0.2,2.7-1.1C16.7,58.5,15.9,59.1,14.8,59.2z"/>
		<path class="st0" d="M7.9,43.3c-1.2,0.2-2.5,0.3-3.8,0.4c0,0.1,0,0.2,0,0.2c1.2-0.1,2.5-0.3,3.8-0.4C7.9,43.5,7.9,43.4,7.9,43.3
			L7.9,43.3z"/>
		<path class="st0" d="M298.5,5.1c0,0,0,0.1,0.1,0.1c0.6-0.3,1.2-0.5,1.9-0.8c0-0.1,0-0.1,0-0.2c-0.7,0.1-1.5,0.2-2.2,0.3
			c0,0,0,0.1,0,0.1c0.2,0.1,0.4,0.1,0.7,0.2C298.7,4.9,298.6,5,298.5,5.1L298.5,5.1z"/>
		<path class="st0" d="M49,80.2h2.8c0-0.1,0-0.1,0-0.2H49C49,80.1,49,80.1,49,80.2L49,80.2z"/>
		<path class="st0" d="M3.8,19.3c0.3,0.2,0.7,0.3,1.2,0.6c-0.2-0.4-0.3-0.5-0.4-0.7H3.9C3.9,19.2,3.8,19.2,3.8,19.3L3.8,19.3z"/>
		<path class="st0" d="M4.7,19.1C5,19,5.3,18.9,5.7,18.8c-0.7-0.2-1.3-0.4-1.9-0.5c0,0,0,0.1-0.1,0.1C4,18.6,4.2,18.8,4.7,19.1
			C4.7,19.1,4.7,19.1,4.7,19.1L4.7,19.1z"/>
		<path class="st0" d="M4.7,19.1C4.7,19.1,4.7,19.1,4.7,19.1C4.7,19.1,4.7,19.1,4.7,19.1L4.7,19.1L4.7,19.1z"/>
		<path class="st0" d="M0,36.3c0.6,0.1,1.1,0.2,1.6,0.4c1,0.3,1,0.4,1.4,0C2,36.7,1.1,35.8,0,36.3L0,36.3z"/>
		<path class="st0" d="M29.8,81.5c0,0.1,0,0.2,0,0.3c1-0.1,2-0.2,3-0.2c0-0.1,0-0.2,0-0.3C31.8,81.4,30.8,81.5,29.8,81.5z"/>
		<path class="st0" d="M47.3,5c0-0.1,0-0.1,0-0.2h-3.7c0,0.1,0,0.1,0,0.2H47.3L47.3,5z"/>
		<path class="st0" d="M344,47.1h-1.4c0.1,0.8,0.8,0.9,1.7,1c-0.4-0.2-0.7-0.2-1-0.4c0.3-0.2,0.5-0.3,0.7-0.4
			C344,47.2,344,47.1,344,47.1L344,47.1z"/>
		<path class="st0" d="M112.1,6.2c1.2-0.2,2.4-0.3,3.6-0.5c0-0.1,0-0.1,0-0.2c-1.2,0.1-2.4,0.2-3.6,0.3C112.1,6,112.1,6.1,112.1,6.2
			z"/>
		<path class="st0" d="M131.9,5c0-0.1,0-0.2,0-0.2c-1.2,0.2-2.3,0.3-3.5,0.5c0,0.1,0,0.2,0,0.3C129.6,5.4,130.7,5.2,131.9,5z"/>
		<path class="st0" d="M7.2,67.5c0,0.1,0,0.2,0,0.3c0.9-0.1,1.9-0.2,2.9-0.3c0-0.1,0-0.2,0-0.3C9.1,67.3,8.2,67.4,7.2,67.5L7.2,67.5
			z"/>
		<path class="st0" d="M127.2,81.7h2.9c0-0.1,0-0.1,0-0.2h-2.9C127.2,81.6,127.2,81.7,127.2,81.7L127.2,81.7z"/>
		<path class="st0" d="M120.2,1c-0.5-0.1-0.9-0.1-1.3-0.2c-0.4,0-0.9-0.1-1.3-0.1C118.4,1.4,119.2,1.6,120.2,1L120.2,1z"/>
		<path class="st0" d="M251.1,2c-0.5-0.6-1.6-0.5-2.3,0.2C249.7,2.1,250.4,2.1,251.1,2z"/>
		<path class="st0" d="M342.3,47.6c0-0.1,0-0.2,0-0.3h-3c0,0.1,0,0.2,0,0.3H342.3L342.3,47.6z"/>
		<path class="st0" d="M182.9,2.7c0-0.1,0-0.2,0-0.2c-1.1,0.2-2.2,0.3-3.3,0.5c0,0.1,0,0.2,0,0.3C180.7,3,181.8,2.9,182.9,2.7
			L182.9,2.7z"/>
		<path class="st0" d="M34.2,66.7c0.7-0.2,1.3-0.3,2-0.5c0-0.1,0-0.2,0-0.3c-0.2-0.1-0.4-0.2-0.6-0.2c-0.5,0.3-1,0.5-1.4,0.8
			C34.2,66.5,34.2,66.6,34.2,66.7z"/>
		<path class="st0" d="M123,1.1h-1.9C121.8,1.7,122.4,1.5,123,1.1z"/>
		<path class="st0" d="M43.7,5.7h3.7c0,0,0-0.1,0-0.1h-3.7C43.7,5.6,43.7,5.7,43.7,5.7L43.7,5.7z"/>
		<path class="st0" d="M0.6,28.9c0.7-0.1,1.4-0.2,2.2-0.3c0-0.1,0-0.2,0-0.2c-0.7,0.1-1.5,0.2-2.2,0.2C0.6,28.7,0.6,28.8,0.6,28.9z"
			/>
		<path class="st0" d="M223.1,2.3h-2.5c0,0.1,0,0.2,0,0.3C221.5,2.6,222.4,2.9,223.1,2.3z"/>
		<path class="st0" d="M137.9,2.1c-0.1-0.4-0.3-0.6-0.4-0.9c-0.4,0.1-0.8,0.2-1.3,0.4c0,0.1,0,0.2,0.1,0.3
			C136.9,2,137.4,2,137.9,2.1L137.9,2.1z"/>
		<path class="st0" d="M346.8,41.7h3.9c0-0.1,0-0.1,0-0.2h-3.9C346.8,41.6,346.8,41.7,346.8,41.7z"/>
		<path class="st0" d="M124.2,81.9c0.8-0.1,1.7-0.1,2.5-0.2C126,81.3,124.7,81.4,124.2,81.9z"/>
		<path class="st0" d="M22.2,81.6c0,0.3,0.1,0.6,0.1,0.9c-0.1,0.1-0.1,0.1-0.2,0.2c0.3,0.1,0.5,0.2,0.8,0.3
			C22.9,82,22.7,81.5,22.2,81.6z"/>
		<path class="st0" d="M35.4,77.4v0.4c0.5,0,0.9,0,1.3,0c0.7,0,1-0.1,1.1-0.3C37,77.5,36.2,77.5,35.4,77.4L35.4,77.4z"/>
		<path class="st0" d="M249.6,0.2c-0.8-0.1-1.7-0.2-2.5-0.2c0,0.1,0,0.3,0,0.4c0.8,0.1,1.7,0.1,2.5,0.1
			C249.6,0.4,249.6,0.3,249.6,0.2L249.6,0.2z"/>
		<path class="st0" d="M120.6,3.2c-0.3,0-0.7,0.1-1,0.2c0,0.1,0,0.2,0,0.3c0.5,0,1.1,0,1.6-0.1c0,0,0-0.3,0-0.4c0,0,0,0,0,0l0,0l0,0
			c0,0,0,0,0,0l0,0C121,3.1,120.8,3.2,120.6,3.2L120.6,3.2z"/>
		<path class="st0" d="M310.3,79.9h-2.3C308.6,80.5,309.7,80.4,310.3,79.9z"/>
		<path class="st0" d="M120,1.8c-0.8-0.1-1.6-0.1-2.5-0.2C118.4,2.4,119.2,2.3,120,1.8z"/>
		<path class="st0" d="M41.2,77.8h3.7c0-0.1,0-0.1,0-0.2h-3.7C41.2,77.6,41.2,77.7,41.2,77.8z"/>
		<path class="st0" d="M93.6,3.3c0-0.1,0-0.1,0-0.2h-2.4c0,0.1,0,0.1,0,0.2H93.6z"/>
		<path class="st0" d="M53.6,3.4c0-0.1,0-0.1,0-0.2c-1.1,0.2-2.3,0.3-3.4,0.5c0,0.1,0,0.2,0,0.2C51.4,3.8,52.5,3.6,53.6,3.4
			L53.6,3.4z"/>
		<path class="st0" d="M302.3,75.2c0.9,0.1,1.9,0.2,2.8,0.3c0-0.1,0-0.2,0-0.3c-0.9-0.1-1.9-0.2-2.8-0.2
			C302.3,75,302.3,75.1,302.3,75.2L302.3,75.2z"/>
		<path class="st0" d="M174.2,1.1c0-0.1-0.1-0.2-0.1-0.2c-0.9,0.4-1.8,0.7-2.7,1.1c0,0.1,0.1,0.1,0.1,0.2
			C172.4,1.8,173.4,1.4,174.2,1.1z"/>
		<path class="st0" d="M26.4,72.6c0-0.1-0.1-0.1-0.1-0.2c-0.2,0.1-0.5,0.2-0.7,0.3c-0.1,0.1,0,0.4,0,0.5c0.2,0.1,0.5,0.2,0.8,0.2
			c0.3,0,0.6,0,1.1-0.1c-0.6-0.2-1.1-0.3-1.6-0.4c0-0.1,0-0.1,0-0.2C26.1,72.7,26.2,72.7,26.4,72.6z"/>
		<path class="st0" d="M61.5,9.3c0.7,0,1.4-0.1,2.1-0.1c0-0.1,0-0.2-0.1-0.3c-0.7,0-1.4,0.1-2.1,0.1C61.4,9.1,61.5,9.2,61.5,9.3z"/>
		<path class="st0" d="M135.3,1.9H133C133.8,2.4,134.8,2.3,135.3,1.9z"/>
		<path class="st0" d="M264.7,1.4c0-0.1,0-0.1,0-0.2h-2.1c0,0.1,0,0.1,0,0.2H264.7L264.7,1.4z"/>
		<path class="st0" d="M30.1,74c0.7,0.3,1.3,1.2,2.2,0.2C31.5,74.1,30.8,74,30.1,74z"/>
		<path class="st0" d="M252.5,0.3h-2.1C251.2,1,251.9,0.7,252.5,0.3z"/>
		<path class="st0" d="M354.7,17.2c-0.5,0.1-1,0.3-1.6,0.4c0.1,0.1,0.2,0.3,0.3,0.4C354.3,18,354.7,17.5,354.7,17.2L354.7,17.2z"/>
		<path class="st0" d="M32.6,77.1c0.1,0.1,0.3,0.1,0.3,0.2c-0.2,0.2-0.3,0.3-0.5,0.5c0.6-0.1,1-0.2,1.5-0.3c0-0.1,0-0.1,0-0.2
			c-0.4-0.1-0.8-0.3-1.2-0.4C32.6,77,32.6,77.1,32.6,77.1z"/>
		<path class="st0" d="M347.7,44.9c0-0.1,0-0.2,0-0.3c-0.9,0.1-1.7,0.2-2.6,0.3C346,45.3,346.9,45.1,347.7,44.9L347.7,44.9z"/>
		<path class="st0" d="M36.4,66.5c0.6-0.2,1.2-0.5,1.8-0.7C37.2,65.5,36.5,65.8,36.4,66.5z"/>
		<path class="st0" d="M240,80.3c-0.7,0.1-1.4,0.2-2.1,0.3c0,0.1,0,0.2,0,0.3c0.7,0,1.4-0.1,2.1-0.1C240,80.6,240,80.4,240,80.3
			L240,80.3z"/>
		<path class="st0" d="M132.2,81.8h3.1c0,0,0-0.1,0-0.1h-3.1C132.2,81.7,132.2,81.8,132.2,81.8L132.2,81.8z"/>
		<path class="st0" d="M212.7,81.2c0.3,0.2,0.5,0.4,0.6,0.4c0.5-0.2,1-0.3,1.5-0.5c0-0.1,0-0.1,0-0.2
			C214.1,81,213.5,81.1,212.7,81.2z"/>
		<path class="st0" d="M122.7,80.3c0.5,0,0.9,0.1,1.4,0.1c0-0.2,0.1-0.4,0.1-0.6c-0.6,0.1-1.1,0.2-1.6,0.3
			C122.6,80.1,122.6,80.2,122.7,80.3L122.7,80.3z"/>
		<path class="st0" d="M178.9,82c0.5,0,1-0.2,1.4-0.3c0,0,0-0.1,0-0.1c-0.6-0.1-1.2-0.1-1.9-0.2C178.6,81.6,178.7,82.1,178.9,82
			L178.9,82z"/>
		<path class="st0" d="M28.5,65.7c0,0,0,0.1,0,0.1c0.8,0,1.6-0.1,2.4-0.1c0-0.1,0-0.2,0-0.4C30.1,65.4,29.3,65.5,28.5,65.7z"/>
		<path class="st0" d="M8.2,15.2c0.8-0.3,1.5-0.5,2.3-0.8c0-0.1-0.1-0.2-0.1-0.3c-0.8,0.3-1.5,0.6-2.3,0.9C8.2,15,8.2,15.1,8.2,15.2
			z"/>
		<path class="st0" d="M347.5,10.6c0-0.1,0.1-0.1,0.2-0.2c-0.2-0.1-0.4-0.3-0.6-0.3c-0.4,0-0.8,0-1.2,0c0,0.1,0,0.2,0,0.2
			C346.5,10.5,347,10.6,347.5,10.6z"/>
		<path class="st0" d="M267.4,1.2c0-0.1,0-0.1,0-0.2c-0.2-0.1-0.5-0.1-0.8-0.1c0.2-0.1,0.4-0.2,0.5-0.3c0,0,0-0.1,0-0.1
			c-0.5,0.1-0.9,0.2-1.4,0.3c0,0.1,0,0.2,0,0.2C266.3,1.1,266.8,1.2,267.4,1.2L267.4,1.2z"/>
		<path class="st0" d="M25,71.3c0.8-0.3,1.7-0.6,2.5-0.9c-0.9,0.2-1.7,0.4-2.6,0.5C25,71.1,25,71.2,25,71.3z"/>
		<path class="st0" d="M27.5,70.4C27.5,70.4,27.6,70.4,27.5,70.4L27.5,70.4L27.5,70.4C27.6,70.4,27.6,70.4,27.5,70.4
			C27.6,70.4,27.6,70.4,27.5,70.4L27.5,70.4z"/>
		<path class="st0" d="M230.7,6.3c0.7,0.1,1.4,0.1,2.2,0.2c0-0.1,0-0.1,0-0.2c-0.7-0.2-1.4-0.3-2.1-0.4C230.8,6,230.7,6.1,230.7,6.3
			L230.7,6.3z"/>
		<path class="st0" d="M9.1,6.6c0-0.1,0-0.1,0-0.2H6.7c0,0.1,0,0.1,0,0.2H9.1L9.1,6.6z"/>
		<path class="st0" d="M26.9,67.3c-0.7,0.3-1.5,0.6-2.2,0.8c0,0.1,0,0.2,0.1,0.2c0.7-0.3,1.5-0.6,2.2-0.8C27,67.5,27,67.4,26.9,67.3
			L26.9,67.3z"/>
		<path class="st0" d="M7.3,68.4c0,0.1,0,0.2,0,0.2c0.9-0.1,1.8-0.2,2.6-0.3c0-0.1,0-0.2,0-0.3C9.1,68.1,8.2,68.2,7.3,68.4z"/>
		<path class="st0" d="M210.5,3.5c0-0.1,0-0.2,0-0.3h-1.7c0,0.1,0,0.2,0,0.3H210.5L210.5,3.5z"/>
	</g>
</g>
</svg>
