<svg width="118" height="150" viewBox="0 0 118 150" fill="none" xmlns="http://www.w3.org/2000/svg">
<g clip-path="url(#clip0_211_1764)">
<path d="M58.9991 10.5897C58.1535 10.5897 57.4673 9.90722 57.4673 9.06275V1.52697C57.4673 0.68407 58.1519 0 58.9991 0C59.8462 0 60.5309 0.682497 60.5309 1.52697V9.06432C60.5309 9.90722 59.8462 10.5913 58.9991 10.5913V10.5897Z" fill="#080808"/>
<path d="M94.2894 25.1613C93.8982 25.1613 93.5054 25.0119 93.2072 24.7147C92.6093 24.1187 92.6093 23.1515 93.2072 22.5555L98.5551 17.2261C99.153 16.6301 100.122 16.6301 100.721 17.2261C101.319 17.8221 101.319 18.7892 100.721 19.3836L95.3732 24.7131C95.0735 25.0119 94.6822 25.1597 94.291 25.1597L94.2894 25.1613Z" fill="#080808"/>
<path d="M18.3627 100.848C17.9714 100.848 17.5786 100.698 17.2805 100.401C16.6826 99.8051 16.6826 98.8379 17.2805 98.2435L22.6268 92.914C23.2247 92.318 24.1933 92.318 24.7928 92.914C25.3907 93.5101 25.3907 94.4772 24.7928 95.0716L19.4464 100.401C19.1467 100.7 18.7555 100.848 18.3642 100.848H18.3627Z" fill="#080808"/>
<path d="M116.468 60.3396H108.907C108.061 60.3396 107.375 59.6571 107.375 58.8126C107.375 57.9681 108.06 57.2856 108.907 57.2856H116.468C117.314 57.2856 118 57.9681 118 58.8126C118 59.6571 117.315 60.3396 116.468 60.3396Z" fill="#080808"/>
<path d="M9.09306 60.3396H1.53181C0.686239 60.3396 0 59.6571 0 58.8126C0 57.9681 0.684662 57.2856 1.53181 57.2856H9.09306C9.93864 57.2856 10.6249 57.9681 10.6249 58.8126C10.6249 59.6571 9.94021 60.3396 9.09306 60.3396Z" fill="#080808"/>
<path d="M99.6354 100.848C99.2442 100.848 98.8513 100.698 98.5532 100.401L93.2053 95.0716C92.6074 94.4756 92.6074 93.5101 93.2053 92.914C93.8032 92.318 94.7718 92.318 95.3712 92.914L100.719 98.2435C101.317 98.8395 101.317 99.8051 100.719 100.401C100.421 100.7 100.028 100.848 99.637 100.848H99.6354Z" fill="#080808"/>
<path d="M23.711 25.1612C23.3197 25.1612 22.9269 25.0118 22.6288 24.7145L17.2824 19.3851C16.6845 18.7891 16.6845 17.822 17.2824 17.2275C17.8803 16.6315 18.8489 16.6315 19.4484 17.2275L24.7948 22.557C25.3926 23.153 25.3926 24.1201 24.7948 24.7161C24.495 25.0149 24.1038 25.1627 23.7125 25.1627L23.711 25.1612Z" fill="#080808"/>
<path d="M78.274 14.4503C78.0768 14.4503 77.8765 14.4126 77.684 14.3308C76.9047 14.0053 76.5356 13.1105 76.8621 12.3336L79.7822 5.38129C80.1087 4.60286 81.0079 4.23803 81.7857 4.56198C82.565 4.8875 82.9341 5.78229 82.6076 6.55914L79.6875 13.5115C79.4414 14.0965 78.8735 14.4487 78.274 14.4487V14.4503Z" fill="#080808"/>
<path d="M105.181 41.4767C104.578 41.4767 104.007 41.1197 103.763 40.5284C103.442 39.7484 103.816 38.8567 104.599 38.5375L111.595 35.6801C112.378 35.3609 113.272 35.7336 113.592 36.5136C113.913 37.2936 113.539 38.1853 112.756 38.5045L105.76 41.3619C105.57 41.4389 105.373 41.4767 105.179 41.4767H105.181Z" fill="#080808"/>
<path d="M5.82286 82.0616C5.22023 82.0616 4.64758 81.7046 4.40463 81.1134C4.08439 80.3334 4.45827 79.4417 5.24074 79.1225L12.2372 76.2651C13.0181 75.9459 13.9142 76.3186 14.2344 77.0986C14.5547 77.8786 14.1808 78.7702 13.3983 79.0895L6.40183 81.9468C6.21252 82.0239 6.01532 82.0616 5.82128 82.0616H5.82286Z" fill="#080808"/>
<path d="M112.008 82.4641C111.811 82.4641 111.611 82.4264 111.418 82.3462L104.442 79.4353C103.663 79.1098 103.294 78.215 103.62 77.4382C103.947 76.6597 104.846 76.2949 105.624 76.6189L112.6 79.5297C113.379 79.8552 113.748 80.75 113.422 81.5269C113.176 82.1119 112.608 82.4641 112.008 82.4641Z" fill="#080808"/>
<path d="M12.9642 41.1276C12.7671 41.1276 12.5667 41.0898 12.3742 41.008L5.39984 38.0972C4.62053 37.7717 4.25138 36.8769 4.57793 36.1C4.90449 35.3216 5.8037 34.9568 6.58143 35.2807L13.5558 38.1916C14.3351 38.5171 14.7043 39.4119 14.3777 40.1887C14.1316 40.7737 13.5637 41.126 12.9642 41.126V41.1276Z" fill="#080808"/>
<path d="M40.0765 14.3056C39.4739 14.3056 38.9012 13.9487 38.6583 13.3574L35.7918 6.38302C35.4716 5.60302 35.8455 4.71137 36.6279 4.39214C37.4104 4.07448 38.3049 4.44561 38.6251 5.2256L41.4916 12.2C41.8118 12.98 41.4379 13.8716 40.6555 14.1908C40.4662 14.2679 40.269 14.3056 40.0749 14.3056H40.0765Z" fill="#080808"/>
<path d="M72.4129 131.439H46.5472C45.088 131.439 43.9048 130.26 43.9048 128.805C43.9048 127.35 45.088 126.171 46.5472 126.171H72.4129C73.8721 126.171 75.0553 127.35 75.0553 128.805C75.0553 130.26 73.8721 131.439 72.4129 131.439Z" fill="#080808"/>
<path d="M72.4129 139.712H46.5472C45.088 139.712 43.9048 138.533 43.9048 137.078C43.9048 135.624 45.088 134.444 46.5472 134.444H72.4129C73.8721 134.444 75.0553 135.624 75.0553 137.078C75.0553 138.533 73.8721 139.712 72.4129 139.712Z" fill="#080808"/>
<path d="M53.2046 142.829C52.5641 142.829 52.0782 143.409 52.1965 144.037C52.8339 147.43 55.817 150 59.406 150C62.9949 150 65.9781 147.43 66.6154 144.037C66.7338 143.409 66.2479 142.829 65.6074 142.829H53.2046Z" fill="#080808"/>
<path d="M69.676 122.851H48.9074C45.309 122.851 42.2801 120.047 42.0103 116.47C41.13 104.798 36.3532 97.4022 31.2939 89.5724C25.7772 81.0333 20.0728 72.2049 20.0728 57.9275C20.0728 38.6493 33.9064 22.4234 52.9681 19.3491C57.4247 18.6304 62.1211 18.687 66.5509 19.511C85.0699 22.9628 98.5107 39.1195 98.5107 57.9275C98.5107 72.2049 92.8062 81.0349 87.2879 89.5724C82.2287 97.4022 77.4502 104.798 76.5715 116.47C76.3018 120.049 73.2713 122.851 69.6744 122.851H69.676ZM59.2862 23.9347C57.4357 23.9347 55.5884 24.0794 53.7852 24.3703C37.2098 27.0452 25.1777 41.1559 25.1777 57.9259C25.1777 70.7062 30.2338 78.5313 35.5865 86.8172C40.7672 94.8358 46.1246 103.128 47.1011 116.089C47.1721 117.028 47.9656 117.764 48.9074 117.764H69.676C70.6336 117.764 71.4113 117.044 71.4823 116.089C72.4588 103.13 77.8178 94.8373 82.9985 86.8172C88.3512 78.5329 93.4073 70.7078 93.4073 57.9259C93.4073 41.5664 81.7191 27.5139 65.6138 24.5118C63.5472 24.1265 61.4159 23.9347 59.2846 23.9347H59.2862Z" fill="#080808"/>
<path d="M40.2906 82.4187C39.5018 82.4187 38.7257 82.0554 38.2256 81.3729C24.0575 61.9721 34.5009 43.7648 34.9521 42.9989C35.6668 41.7881 37.2301 41.3839 38.4464 42.0947C39.6596 42.8055 40.0666 44.3624 39.3567 45.5717C38.9654 46.2432 30.2084 61.7487 42.3525 78.3771C43.1823 79.5125 42.9314 81.104 41.7924 81.9312C41.3381 82.2598 40.8128 82.4187 40.2922 82.4187H40.2906Z" fill="#080808"/>
</g>
<defs>
<clipPath id="clip0_211_1764">
<rect width="118" height="150" fill="white"/>
</clipPath>
</defs>
</svg>
