<svg width="112" height="128" viewBox="0 0 112 128" fill="none" xmlns="http://www.w3.org/2000/svg">
<g clip-path="url(#clip0_293_261)">
<path d="M73.4875 106.737H36.259C35.8679 106.737 35.4852 106.574 35.2131 106.292C34.941 106.009 34.7964 105.625 34.8049 105.223C34.8049 105.017 35.4597 84.9684 30.7998 73.4899C24.184 57.1873 24.9578 44.9903 33.1552 36.1975C41.4122 27.3534 53.4107 23.3761 63.7339 26.0619C77.11 29.5431 90.6646 42.2875 90.1884 57.5808C89.9418 65.6636 86.3363 72.7201 82.8499 79.5542C80.0097 85.1138 77.076 90.8616 76.1151 96.9943C75.4008 101.536 74.9161 105.419 74.9161 105.454C74.8225 106.181 74.2103 106.728 73.479 106.728L73.4875 106.737ZM37.7472 103.82H72.212C72.416 102.289 72.7902 99.5603 73.2579 96.541C74.2953 89.9464 77.3311 83.9848 80.2733 78.2199C83.7683 71.3772 87.0591 64.9195 87.2887 57.4867C87.7139 43.8356 75.0096 32.015 63.0026 28.8845C53.6913 26.4639 42.8068 30.1161 35.2641 38.1905C27.815 46.1707 27.2453 57.0333 33.4784 72.3865C37.6621 82.6932 37.7982 98.8076 37.7301 103.82H37.7472Z" fill="#2D2D2D"/>
<path d="M68.6491 113.545C68.445 113.545 68.2409 113.502 68.0453 113.417C66.3616 112.758 52.0587 112.963 39.2183 113.545C38.419 113.605 37.7387 112.955 37.7047 112.151C37.6707 111.347 38.2914 110.663 39.0908 110.628C45.4684 110.337 66.4806 109.491 69.2443 110.757C69.9756 111.09 70.2987 111.954 69.9671 112.69C69.7205 113.228 69.2018 113.545 68.6491 113.545Z" fill="#2D2D2D"/>
<path d="M65.9362 120.867C65.8852 120.867 65.8342 120.867 65.7747 120.867C58.8613 120.157 42.1094 120.867 41.9478 120.867C41.0719 120.909 40.3746 120.234 40.3406 119.387C40.3066 118.532 40.9614 117.805 41.8117 117.77C42.509 117.745 58.9549 117.043 66.0893 117.77C66.9397 117.856 67.5519 118.617 67.4669 119.472C67.3818 120.268 66.7186 120.867 65.9362 120.867Z" fill="#2D2D2D"/>
<path d="M56.1488 128C50.6386 128 43.6912 127.897 43.249 127.889C42.4497 127.88 41.8119 127.213 41.8204 126.409C41.8374 125.605 42.4667 124.964 43.2915 124.972C48.9464 125.058 60.188 125.169 62.2374 124.972C63.0197 124.895 63.7425 125.494 63.8105 126.289C63.8786 127.093 63.2918 127.803 62.501 127.872C61.5656 127.957 59.0571 127.983 56.1488 127.983V128Z" fill="#2D2D2D"/>
<path d="M65.996 106.249C65.5623 106.249 65.1626 105.95 65.0606 105.505C63.666 99.6716 63.2238 88.8602 62.7986 78.391L62.6201 74.0716C62.6201 73.9262 62.6116 73.7893 62.6031 73.6525C61.4806 73.6867 60.6472 73.6781 60.3581 73.6696C58.6914 73.6268 57.0673 73.0281 55.7067 72.0017C54.6097 72.9255 53.2152 73.5156 51.608 73.7722C51.4209 77.2363 50.9362 81.6156 50.1539 87.0555C48.7253 96.9859 48.2321 105.248 48.2321 105.334C48.1981 105.873 47.7304 106.258 47.2117 106.249C46.6759 106.215 46.2763 105.753 46.3018 105.223C46.3018 105.137 46.8035 96.7977 48.2406 86.7818C49.0399 81.205 49.4651 77.0396 49.6437 73.9262C47.4923 73.9262 45.1028 73.413 42.6538 72.378C39.8986 71.2233 40.1622 69.1877 40.4003 68.3665C41.2422 65.4926 45.9276 62.4733 48.7508 62.9865C50.8257 63.3543 51.7781 66.0058 51.6675 71.7793C52.6709 71.574 53.5553 71.1977 54.2611 70.6588C54.0995 70.4707 53.938 70.2654 53.7934 70.0601C52.5264 68.2896 52.0927 66.3052 52.6114 64.6373C53.0366 63.2346 54.023 62.2595 55.3836 61.8917C57.3309 61.3614 59.5673 62.1654 60.6727 63.1918C61.1064 63.5938 61.336 64.1241 61.3275 64.7314C61.319 66.4335 59.4057 68.5547 57.1523 70.6674C58.1302 71.3174 59.2527 71.6938 60.3921 71.728C61.1064 71.7537 61.8377 71.7451 62.569 71.728C62.6541 67.631 63.5129 64.7742 65.1796 63.0293C66.8633 61.2673 68.9467 61.0364 70.5709 61.0364C71.9399 61.0364 73.1304 61.7206 73.9213 62.9523C75.0607 64.7485 75.1883 67.477 74.2274 69.5897C72.9774 72.3353 68.1474 73.259 64.5078 73.5584C64.5078 73.7038 64.5163 73.8578 64.5248 74.0117L64.7034 78.3311C65.1116 88.2187 65.5623 99.4235 66.9143 105.069C67.0419 105.59 66.7188 106.112 66.2 106.241C66.1235 106.258 66.047 106.266 65.9705 106.266L65.996 106.249ZM48.0535 64.8682C46.1062 64.8682 42.7898 67.1263 42.2626 68.914C42.1606 69.2561 41.9565 69.966 43.4021 70.5733C45.63 71.5142 47.8154 72.0102 49.7287 71.9589C49.8988 66.04 48.9804 64.988 48.4192 64.8854C48.3001 64.8683 48.1811 64.8511 48.0535 64.8511V64.8682ZM70.5879 62.9694C69.2613 62.9694 67.7562 63.1319 66.5912 64.3636C65.3072 65.715 64.6099 68.1442 64.5248 71.6082C68.3429 71.2747 71.7869 70.3253 72.4927 68.7686C73.1814 67.2461 73.1134 65.2446 72.3141 63.9958C71.8804 63.3201 71.3022 62.978 70.5879 62.978V62.9694ZM56.6846 63.6622C56.4125 63.6622 56.1489 63.6965 55.9023 63.7649C55.171 63.9616 54.7033 64.432 54.4737 65.2018C54.142 66.271 54.4822 67.6652 55.3836 68.9225C55.4941 69.0765 55.6046 69.2219 55.7237 69.3587C57.2543 67.9218 59.4142 65.7321 59.4142 64.7143C58.8105 64.107 57.7135 63.6622 56.6931 63.6622H56.6846Z" fill="#2D2D2D"/>
<path d="M73.598 49.2156C72.3309 49.2156 71.2085 48.4971 70.6557 47.7701C70.6557 47.7701 70.6472 47.753 70.6387 47.7444C70.5877 47.676 65.5281 40.5596 60.528 40.1063C56.7014 39.7642 54.3289 37.5147 54.2354 35.5389C54.1674 34.0848 55.2643 33.0156 57.1521 32.665C61.4974 31.8781 66.1404 33.4604 68.819 35.3849C71.1744 37.0785 73.8701 39.6444 74.7119 40.4912C75.5963 41.3808 78.1473 45.3067 76.3106 47.7701C75.4262 48.959 74.3548 49.2156 73.6065 49.2156H73.5809H73.598ZM71.8122 46.8891C72.1353 47.3082 72.8326 47.753 73.598 47.753H73.615C74.2187 47.753 74.7374 47.4536 75.1626 46.8891C76.3021 45.358 74.4228 42.2532 73.7 41.5176C72.9347 40.7478 70.2561 38.1989 67.9941 36.5738C66.1829 35.2737 61.9141 33.2808 57.4242 34.1019C56.761 34.2217 55.6555 34.5638 55.6895 35.4704C55.7405 36.5909 57.5433 38.37 60.6556 38.6523C66.2594 39.1569 71.4721 46.4101 71.8122 46.8891Z" fill="#2D2D2D"/>
<path d="M75.2987 39.0202C75.0946 39.0202 74.8906 38.9346 74.746 38.7636C74.4909 38.4556 74.5249 37.9938 74.831 37.7372L77.127 35.7956C77.4331 35.539 77.8923 35.5732 78.1474 35.8811C78.4025 36.189 78.3685 36.6509 78.0624 36.9075L75.7664 38.8491C75.6304 38.9688 75.4603 39.0202 75.2987 39.0202Z" fill="#2D2D2D"/>
<path d="M79.1679 43.1599C78.9298 43.1599 78.7002 43.0488 78.5642 42.8349C78.3431 42.5013 78.4281 42.048 78.7683 41.8256C79.5421 41.3039 80.5285 39.7985 80.8431 39.2682C81.0472 38.9175 81.4894 38.8063 81.838 39.0116C82.1867 39.2169 82.2972 39.6616 82.0931 40.0123C81.9571 40.2433 80.7666 42.2447 79.5761 43.0488C79.4485 43.1343 79.3125 43.1685 79.1764 43.1685L79.1679 43.1599Z" fill="#2D2D2D"/>
<path d="M81.4638 47.1713C81.2683 47.1713 81.0727 47.0943 80.9281 46.9318C80.656 46.6325 80.6815 46.1706 80.9791 45.9054C82.2972 44.6994 83.7343 43.2625 83.7343 43.2539L84.7632 44.2889C84.7632 44.2889 83.3006 45.76 81.957 46.9831C81.821 47.1114 81.6424 47.1713 81.4723 47.1713H81.4638Z" fill="#2D2D2D"/>
<path d="M77.6884 57.615C77.3992 57.615 77.1271 57.444 77.0166 57.1532C76.872 56.7768 77.0506 56.3577 77.4248 56.2038C81.5575 54.5615 87.5014 49.6605 87.561 49.6177C87.8671 49.3611 88.3263 49.4039 88.5814 49.7204C88.8365 50.0283 88.794 50.4902 88.4793 50.7468C88.2327 50.952 82.2973 55.8445 77.952 57.5637C77.8669 57.5979 77.7734 57.615 77.6884 57.615Z" fill="#2D2D2D"/>
<path d="M80.3158 62.1226C80.0352 62.1226 79.7716 61.9601 79.6525 61.6864C79.491 61.3186 79.6525 60.8909 80.0267 60.7284C81.1236 60.2494 86.4213 56.9137 88.3686 55.6734C88.7088 55.4596 89.1595 55.5622 89.3721 55.8958C89.5846 56.2379 89.4911 56.6913 89.151 56.9051C88.8618 57.0933 82.0335 61.4469 80.6134 62.0713C80.5199 62.1141 80.4178 62.1312 80.3243 62.1312L80.3158 62.1226Z" fill="#2D2D2D"/>
<path d="M82.8499 68.9737C82.5268 68.9737 82.2291 68.7514 82.1441 68.4178C82.0506 68.0243 82.2887 67.6309 82.6798 67.5368C83.0455 67.4341 84.8907 66.3308 86.3874 65.3728C86.7275 65.159 87.1697 65.2531 87.3908 65.5952C87.6034 65.9373 87.5098 66.3821 87.1697 66.6045C86.1578 67.2545 83.7258 68.7856 83.02 68.9566C82.9604 68.9737 82.9009 68.9737 82.8499 68.9737Z" fill="#2D2D2D"/>
<path d="M56.2423 18.15C56.2423 18.15 56.1998 18.15 56.1828 18.15C55.647 18.1157 55.2474 17.6539 55.2814 17.115C55.5025 13.5911 55.9362 3.86597 55.3069 1.18879C55.1793 0.667035 55.5025 0.145284 56.0212 0.0169851C56.5399 -0.102761 57.0586 0.213711 57.1862 0.735462C58.0195 4.24231 57.2457 16.7045 57.2117 17.2348C57.1777 17.748 56.7525 18.1414 56.2508 18.1414L56.2423 18.15Z" fill="#2D2D2D"/>
<path d="M83.1731 28.3286C82.918 28.3286 82.6629 28.2088 82.5098 27.9779C82.2547 27.6101 82.3398 27.1055 82.7054 26.8489C83.0711 26.5923 91.6171 20.5622 94.5083 19.0141C97.2039 17.5686 98.3604 16.354 98.3689 16.3369C98.675 16.0119 99.1853 15.9947 99.5084 16.2941C99.8315 16.602 99.857 17.1152 99.5509 17.4403C99.4999 17.5001 98.2329 18.8601 95.2566 20.4425C92.4505 21.9393 83.7088 28.1062 83.6238 28.1661C83.4792 28.2687 83.3177 28.3115 83.1561 28.3115L83.1731 28.3286Z" fill="#2D2D2D"/>
<path d="M96.5321 52.868C96.1749 52.868 95.8263 52.6713 95.6647 52.3206C95.4266 51.8416 95.6307 51.26 96.1069 51.0205C97.2634 50.456 107.544 45.4523 111.107 45.7688C111.643 45.8115 112.034 46.282 111.991 46.8208C111.949 47.3597 111.49 47.7703 110.946 47.7104C108.36 47.5137 99.9675 51.2942 96.9572 52.7739C96.8212 52.8424 96.6766 52.8766 96.5321 52.8766V52.868Z" fill="#2D2D2D"/>
<path d="M27.6194 26.2073C27.4324 26.2073 27.2368 26.1389 27.0837 26.002C24.6857 23.8808 17.8829 18.1843 15.2893 17.2862C14.8641 17.1408 14.643 16.6789 14.7876 16.2513C14.9322 15.8236 15.3914 15.6012 15.8165 15.7466C19.2435 16.9355 27.781 24.4539 28.1467 24.7789C28.4783 25.0782 28.5123 25.5829 28.2232 25.925C28.0616 26.1046 27.8405 26.1987 27.6194 26.1987V26.2073Z" fill="#2D2D2D"/>
<path d="M16.2842 52.2092C16.2332 52.2092 16.1907 52.2092 16.1396 52.2007C15.6549 52.1237 4.32823 50.3702 0.501645 48.249C0.0339504 47.9924 -0.13612 47.4023 0.118986 46.9318C0.374092 46.4614 0.969339 46.2903 1.42853 46.5469C4.95749 48.5056 16.3097 50.2591 16.4203 50.2762C16.9475 50.3531 17.3131 50.8492 17.2281 51.3795C17.1516 51.8585 16.7434 52.2092 16.2757 52.2092H16.2842Z" fill="#2D2D2D"/>
<path d="M20.8336 87.5515C20.7061 87.5515 20.5785 87.5258 20.451 87.4745C20.3744 87.4403 12.6532 84.1387 10.0767 83.6084C9.54946 83.4972 9.21782 82.984 9.32836 82.4623C9.43891 81.932 9.94062 81.5984 10.4678 81.7096C13.223 82.2827 20.8847 85.5586 21.2078 85.6954C21.701 85.9093 21.9306 86.4738 21.718 86.9699C21.5649 87.3377 21.2078 87.56 20.8251 87.56L20.8336 87.5515Z" fill="#2D2D2D"/>
<path d="M93.4708 89.1509C93.0541 89.1509 92.6715 88.8857 92.5439 88.4666C92.3908 87.9534 92.6715 87.406 93.1817 87.2521C95.231 86.6191 105.563 83.4544 107.408 83.6426C107.944 83.6939 108.335 84.1643 108.284 84.6946C108.233 85.2335 107.757 85.6184 107.238 85.5756C106.209 85.5243 99.6018 87.2948 93.7514 89.0996C93.6579 89.1252 93.5643 89.1423 93.4708 89.1423V89.1509Z" fill="#2D2D2D"/>
</g>
<defs>
<clipPath id="clip0_293_261">
<rect width="112" height="128" fill="white"/>
</clipPath>
</defs>
</svg>
