<svg width="321" height="225" viewBox="0 0 321 225" fill="none" xmlns="http://www.w3.org/2000/svg">
<path d="M320.844 219.352C320.654 213.689 320.482 208.05 320.31 202.436C320.016 194.562 319.741 186.748 319.448 178.959C318.965 163.976 318.431 149.065 318.465 133.961C318.465 126.755 318.517 119.67 318.724 112.695C318.913 105.732 319.292 98.7445 319.344 91.7208C319.379 84.697 319.12 77.6246 317.982 70.5887C316.879 63.5649 315.035 56.7478 313.035 50.0278C311.415 44.5473 309.829 39.1154 308.502 33.6957C307.847 30.9859 307.226 28.276 306.709 25.5783L306.278 23.2208L305.882 20.6203C305.606 18.8948 305.399 17.1449 305.227 15.3829C305.589 16.4766 305.899 17.5702 306.313 18.6153C305.864 15.1398 305.537 11.6523 305.227 8.24975C305.14 8.20114 305.123 8.09178 304.968 8.09178H304.503L303.572 8.06747L301.693 8.03102L297.935 7.97026L290.419 7.86089C285.782 7.81229 281.163 7.75153 276.509 7.70292C268.717 7.63001 260.857 7.6057 252.824 7.61786C251.014 7.61786 249.221 7.61786 247.411 7.61786C206.248 7.76368 170.945 7.52064 129.057 6.93735C118.767 6.79153 108.493 6.88875 98.202 6.75508C90.4796 6.88875 103.304 8.49279 90.4451 8.55355C91.1346 8.62646 91.8069 8.72367 92.4102 8.82089C102.218 8.65076 110.854 8.33482 113.578 8.8695C117.129 9.9024 98.5123 10.1819 86.6873 11.0447C86.3598 11.227 85.8599 11.3971 85.2048 11.5794C85.2048 11.5794 84.3085 11.5672 83.0329 11.5551C83.4466 11.0325 83.912 10.6801 84.5843 10.352V10.3277H84.636C84.8084 10.2427 84.9807 10.1697 85.1876 10.0968C81.5849 8.24975 84.9807 7.28976 86.3253 4.6285C86.015 4.55559 85.6185 4.54344 85.2048 4.6285C85.2048 4.38547 85.2048 3.91154 85.2048 3.91154C82.4123 3.43762 80.5507 2.48978 78.0684 1.2989C77.4479 1.05586 77.4479 0.108016 76.517 0.108016C74.0348 0.108016 71.5526 -0.135021 69.0531 0.108016C63.7611 0.885734 58.7105 1.35966 53.6082 1.6513C53.6426 1.69991 53.6599 1.76067 53.6599 1.80927C52.4188 1.85788 51.1949 1.89434 49.9365 1.94295C48.6954 1.94295 47.7646 2.6599 46.5235 2.6599C44.679 2.6599 42.8691 2.68421 41.0419 2.69636C38.7838 2.73281 36.5429 2.75712 34.3192 2.79357C29.8719 2.87864 25.5107 3.00016 21.2703 3.15813C19.7706 5.80723 18.2364 8.39557 16.5816 10.8016C16.461 11.2877 16.2714 11.7495 16.0473 12.1991C15.8921 12.1991 15.737 12.1991 15.5818 12.1991C15.9266 11.7373 16.2541 11.2756 16.5816 10.8016C16.6161 10.6315 16.6678 10.4614 16.6851 10.2913C16.0817 10.911 15.6336 11.5672 15.2199 12.2113C14.9613 12.2356 14.6855 12.2599 14.4097 12.3085C13.6857 15.5409 13.8064 18.7976 13.9098 22.0421C13.5306 22.431 13.1858 22.832 12.8755 23.2208C13.2203 22.9413 13.5823 22.674 13.927 22.3945C13.9443 23.1115 13.9615 23.8163 13.9615 24.5332V24.5575L13.6512 24.8613C13.6857 24.995 13.7029 25.1408 13.7202 25.2745C13.7891 25.4203 13.8753 25.554 13.9615 25.6998C13.9615 26.1494 13.927 26.599 13.8926 27.0487C13.3927 26.5504 12.9617 26.0401 12.5825 25.5297C12.186 25.0314 11.7206 24.4725 12.1515 24.2051C12.3756 23.877 12.617 23.5368 12.8755 23.2087C12.2205 23.8892 10.7036 24.3753 11.893 25.5783C12.3412 26.3438 12.9617 27.1094 13.8408 27.8385C13.7891 28.5676 13.7029 29.2967 13.565 30.0137L13.6685 30.1595C13.6685 30.1595 13.6685 30.196 13.6857 30.2081C13.5133 30.4633 13.3237 30.7185 13.1513 30.9737L12.7549 31.5691C12.6514 31.6785 12.6859 31.7393 12.7032 31.8122L12.7549 32.0188L12.9272 32.6628C12.7721 33.1124 12.617 33.5742 12.4274 34.0238C12.0826 34.3155 10.9794 25.9793 9.5659 26.2466C9.23838 26.2345 10.3761 33.0638 9.92789 37.8638C8.82468 38.7387 5.04962 36.7944 4.77382 36.1625C4.68763 36.0896 4.61868 36.0046 4.53249 35.9317C4.39459 36.6365 4.23945 37.3413 4.10155 38.0339C4.32564 39.164 4.51526 40.3063 4.68763 41.4486C4.96344 43.2835 5.20476 45.1428 5.39438 47.002C5.18753 46.4916 4.9462 45.9812 4.70487 45.4709C4.54973 45.2278 4.41183 44.9726 4.29117 44.7174C3.34309 42.6759 3.63614 40.4035 4.10155 38.0339C3.86022 36.7458 3.56718 35.4699 3.25691 34.2061L3.18796 34.1089C3.03282 35.7008 2.63635 37.3048 2.32607 38.8724C2.87768 41.8131 3.29138 44.8025 3.60166 47.804C3.39481 47.2936 3.15348 46.7833 2.91215 46.2729C1.48143 44.0612 1.7917 41.5215 2.34331 38.8602C1.80894 36.0653 1.11943 33.3069 0.223075 30.6213C0.0851735 32.4076 -0.0872033 34.4491 0.0506981 36.2233C1.03325 43.3929 1.96408 49.9913 2.53292 56.687C3.17072 57.5498 3.65337 58.4004 3.72232 59.2267C4.0326 61.1346 3.56718 63.2976 3.49823 65.1933C4.23945 64.9503 4.0326 65.886 4.36012 65.9224C5.27371 67.9396 4.46354 70.0905 3.96365 72.3021C3.8947 72.6181 3.56718 72.5816 3.20519 72.8733C5.65294 76.215 4.36012 80.1887 3.42928 84.1502C3.34309 85.1709 3.15348 86.1795 2.86044 87.2124C2.96387 86.2038 3.18796 85.1831 3.42928 84.1502C3.65337 81.8292 3.44652 79.5446 3.18796 77.2479C3.119 82.7892 2.73978 88.0631 2.23988 93.5679C1.80894 98.8175 2.75701 103.897 4.08431 108.794C4.56697 110.787 4.53249 112.768 4.37736 114.749C4.1705 114.578 3.94641 114.42 3.70509 114.275C3.49823 116.741 3.70509 119.087 4.22222 121.554L4.37736 122.222C5.63571 127.289 6.18731 131.615 6.11836 136.707C6.11836 137.959 6.39416 139.21 6.34245 140.45C6.49759 140.997 7.27328 140.729 7.92832 140.705C7.34224 147.935 6.77339 155.336 6.4114 162.08C6.06665 169.748 5.73913 177.294 5.41162 184.609C5.37714 185.521 5.34266 186.432 5.29095 187.344C5.20476 188.741 5.13581 190.139 5.04962 191.536C4.84277 194.963 4.61868 198.365 4.41183 201.731C4.01536 208.403 3.54995 214.928 3.27414 221.053C12.4618 220.433 21.5633 219.826 30.5959 219.218C35.0432 218.926 39.3698 218.78 43.6448 218.647C46.3683 218.586 49.0747 218.525 51.781 218.465C60.3136 218.319 68.6739 218.489 77.1548 218.878C94.0995 219.655 111.285 221.272 129.075 222.548C135.935 222.633 142.83 222.718 149.639 223.058C165.412 223.702 183.735 224.48 199.422 224.565C196.836 224.03 204.679 224.212 204.679 223.957C220.331 223.289 238.482 223.532 256.634 223.313C259.202 223.277 259.219 223.52 261.874 223.678C268.01 223.034 274.63 222.511 281.611 222.098C283.352 222.001 285.127 221.903 286.92 221.794C287.885 221.746 288.851 221.697 289.833 221.648C291.126 221.6 292.402 221.539 293.712 221.49C298.866 221.308 304.141 221.126 309.467 220.931C312.139 220.846 314.845 220.773 317.551 220.688L319.586 220.628C319.62 220.178 319.586 219.668 319.586 219.181C319.568 218.209 319.551 217.237 319.534 216.253C319.482 212.364 319.43 208.427 319.379 204.466C319.344 198.414 319.31 192.289 319.275 186.214C319.12 180.551 319.034 174.827 319.068 169.007C319.206 174.621 319.241 180.405 319.275 186.214C319.396 189.446 319.517 192.654 319.637 195.862C319.81 199.957 319.982 204.04 320.154 208.111C320.258 210.456 320.361 212.79 320.465 215.123L320.62 218.671L320.706 220.457L320.74 221.357C320.465 221.454 319.965 221.417 319.603 221.454C313.087 221.733 306.571 222.001 300.072 222.28C304.106 222.134 308.122 222.001 312.122 221.867L318.103 221.66L319.586 221.612L320.327 221.588H320.706C320.792 221.551 321.033 221.624 320.965 221.49L320.896 219.339L320.844 219.352ZM257.633 23.233C257.495 23.233 257.375 23.2451 257.254 23.2573C257.254 23.2208 257.237 23.1844 257.22 23.1479C257.358 23.1722 257.513 23.2087 257.633 23.233ZM133.936 15.8568C134.332 15.9176 134.729 15.9783 135.16 16.0391C132.436 16.112 129.695 16.1971 127.058 16.27C128.971 16.0148 131.454 15.8204 133.936 15.8568ZM123.817 16.9626C146.295 16.9019 169.566 16.671 187.217 17.3272C165.653 17.3515 142.451 17.6188 123.61 17.1449C123.61 17.0963 123.697 17.0234 123.817 16.9626ZM92.8411 12.9161C89.8935 13.4143 86.9114 13.7667 83.0156 14.0219C83.1535 13.9368 83.2914 13.8518 83.4121 13.7667C83.4466 13.5844 83.5155 13.4021 83.5845 13.2199C83.5845 13.2199 83.7913 13.2199 84.0327 13.2199L84.1706 13.0254C84.1706 12.9525 84.1706 12.8675 84.1706 12.7945C87.0493 12.831 89.9452 12.8796 92.8239 12.9161H92.8411ZM77.5513 9.48924C77.8788 9.36772 78.2063 9.2462 78.5338 9.14899C78.3098 9.42848 77.9995 9.65937 77.7064 9.65937C77.6547 9.59861 77.603 9.55 77.5513 9.48924ZM82.2744 17.1935C82.2055 16.8047 82.2399 16.4279 82.9812 16.3064C82.895 16.2457 82.8088 16.1606 82.7398 16.0755C81.5504 16.3793 80.5162 16.8168 80.1887 16.3064C80.0163 15.9176 80.2749 15.6016 80.723 15.2857C87.394 16.0391 86.3253 16.5981 82.2744 17.1814V17.1935ZM78.9475 8.22545C78.9475 8.22545 78.9476 8.34697 78.9303 8.40773C76.224 8.77228 73.4143 9.31911 71.2768 8.90595C73.8797 8.57785 76.6722 7.99456 78.9648 8.2133L78.9475 8.22545ZM35.3707 25.3839C35.0087 25.0193 34.5261 24.6304 33.9055 24.2294C33.7504 24.1565 33.6297 24.0958 33.5263 24.035C34.302 24.5575 34.888 25.1165 35.3879 25.6269C35.4052 25.8942 35.4397 26.1616 35.4569 26.4289C35.2845 26.2952 35.1638 26.1737 34.9742 26.0765C34.4054 25.6269 34.0606 25.2502 33.8193 24.9342C33.3884 24.3752 33.2677 24.0107 32.8368 23.6583C32.7506 23.5975 33.0091 23.7312 33.216 23.8527C33.3022 23.9135 33.4056 23.9742 33.5263 24.0471C33.4573 24.0107 33.4056 23.9621 33.3539 23.9135L33.2849 23.877C33.2849 23.877 33.1988 23.8284 33.147 23.8041C32.9574 23.6947 32.7851 23.5975 32.5954 23.4882C32.7851 23.5854 32.9574 23.6826 33.1298 23.792C32.6816 23.4274 33.0264 23.2451 33.0781 22.9656C32.9057 23.0629 32.7333 23.1722 32.5954 23.2816L32.492 23.3666L32.4403 23.4031C32.1817 23.2573 31.9059 23.0872 31.6646 22.9535C31.3371 22.7955 31.3198 22.7104 31.2854 22.6254C31.2509 22.5403 31.2164 22.4553 31.2164 22.3945C31.1992 22.115 31.4405 21.9449 31.8197 21.8355C32.5782 21.6411 33.871 21.7383 35.0087 21.7869C33.9055 21.9449 33.3022 22.431 33.0609 22.9656C33.578 22.674 34.2675 22.431 35.0604 22.2122C35.1638 23.2694 35.25 24.3388 35.3535 25.396L35.3707 25.3839ZM32.8195 76.0814C32.199 70.4186 31.6818 64.2819 31.1819 57.8414C31.4922 57.8414 31.8025 57.8657 32.1128 57.8414C32.5092 63.6986 32.8712 69.1548 32.8023 76.0692L32.8195 76.0814ZM28.7514 144.18L27.8206 155.056C27.6655 156.782 27.5103 158.507 27.3552 160.257C26.9587 171.473 26.5622 183.018 26.1313 195.267C26.2347 190.455 26.3382 185.594 26.4416 180.697C26.5795 175.666 26.7346 170.586 26.8725 165.482C26.2175 172.239 25.5452 179.093 24.873 185.958C24.5454 189.47 24.2179 192.994 23.8904 196.518C23.7353 198.292 23.5801 200.067 23.425 201.841L23.2181 204.49L23.1147 205.814L23.063 206.471V206.799H23.4767C33.9055 206.106 44.3343 205.729 53.9184 205.584C61.4858 205.316 70.3459 205.438 79.4819 205.863C88.6351 206.276 98.0814 206.945 106.942 207.491C107.338 207.443 107.7 207.394 108.045 207.321C109.389 207.479 110.699 207.625 112.027 207.783C114.319 207.856 116.767 207.88 118.301 207.892C136.763 209.302 155.121 210.177 174.513 210.687C176.168 210.687 177.84 210.687 179.547 210.712C184.666 210.675 192.303 211.173 197.422 211.271C193.509 211.173 189.648 211.076 185.838 210.991C182.029 210.894 178.254 210.785 174.53 210.687C152.759 210.627 135.901 210.529 112.044 207.783C110.475 207.734 109.027 207.662 108.01 207.564C107.666 207.54 107.304 207.516 106.959 207.491C100.512 208.257 83.8775 206.519 69.3806 205.827C71.9146 206.422 64.2093 205.827 64.1749 206.313C60.6411 206.398 57.1247 206.531 53.6426 206.702C50.1262 206.884 46.9199 207.09 42.938 207.358C35.3018 207.892 27.3035 208.682 19.7189 209.46L19.4776 209.411C19.4776 209.411 19.2879 209.411 19.3224 209.302C19.3224 209.156 19.3224 209.023 19.3224 208.889C19.3224 208.621 19.3224 208.366 19.3224 208.135C19.3224 207.649 19.3224 207.212 19.3224 206.774C19.3397 202.618 19.512 198.232 19.7361 193.821C19.943 189.92 20.1498 186.056 20.3394 182.24C20.6842 175.216 20.9428 168.411 20.4773 162.031C20.1498 158.714 20.9083 152.468 21.1496 147.267C21.5288 147.267 21.9081 147.315 22.2701 147.388C21.6667 158.349 20.8566 170.112 20.9428 180.223C21.0462 184.707 21.1151 188.62 21.0117 194.1L20.8911 201.573L20.8221 205.207L20.7876 206.993V207.88L20.7531 208.318C20.7531 208.354 20.7359 208.403 20.7531 208.415H20.8911L21.1496 208.451C29.0617 207.759 36.7325 207.2 43.9895 206.859L49.2126 206.641L54.1942 206.483C57.5211 206.398 60.8307 206.337 64.1749 206.301C60.8135 206.179 57.4522 206.094 54.1081 206.057C50.7295 206.021 47.506 206.033 43.9895 206.082C37.0945 206.191 30.1649 206.495 23.2698 206.932H23.0113C23.0113 206.932 22.7872 206.969 22.8389 206.872L22.8734 206.483L22.9251 205.693L23.0458 204.113L23.2871 200.954L23.787 194.623L24.7868 182.252C25.4763 174.159 26.2347 166.066 27.1311 157.875C27.3379 152.249 27.562 146.574 27.7689 140.875C27.8034 140.814 27.8378 140.753 27.8551 140.693C27.7516 145.165 27.631 149.673 27.5276 154.23C27.9413 150.9 28.3377 147.559 28.7514 144.168V144.18ZM19.0811 83.9922C21.029 86.0945 20.0292 89.4727 20.9255 92.3527C21.0979 93.3005 21.6323 94.2727 21.8391 95.2084C22.5114 99.2063 23.356 103.046 23.9766 107.081C23.8904 108.381 23.8042 109.681 23.718 110.981C23.4595 110.021 23.3733 108.964 23.1492 107.907C22.5114 106.704 23.2009 105.221 22.9768 103.727C22.994 103.435 22.339 103.107 22.0115 103.095C22.8389 101.041 20.9255 99.741 21.5288 97.6266L20.7531 98.5015C20.5635 97.262 19.9947 96.3142 19.8913 94.7466C20.0636 93.5193 18.8915 92.4985 19.0294 91.5628C18.8742 88.4155 19.4948 85.3046 18.3571 82.6312C18.9604 83.0201 18.8225 83.6398 19.0983 83.9801L19.0811 83.9922ZM18.5295 28.9322C18.4261 28.5312 18.3399 28.118 18.2537 27.717C18.5123 28.0208 18.8053 28.3246 19.1156 28.6284C19.1673 29.0659 19.219 29.5033 19.2879 29.9286C19.2535 30.2689 19.2362 30.6091 19.2018 30.9372C18.9777 30.2689 18.7708 29.6005 18.5295 28.9322ZM34.7674 18.9069C34.7674 18.9069 34.7674 18.9069 34.7846 18.9069C34.8019 19.1135 34.8191 19.3201 34.8363 19.5267C34.0262 19.551 33.4746 19.5996 33.4746 19.7089C32.5265 20.037 32.9747 20.3287 34.3882 20.5596C32.8885 20.6568 31.6646 21.1064 31.4405 21.8598C25.2867 18.5302 30.7338 19.1257 34.7501 18.9191L34.7674 18.9069ZM40.4041 18.1292C39.7663 18.1292 39.163 18.1171 38.6631 18.1049C38.6459 18.1049 38.6286 18.1049 38.5941 18.1171C39.3526 17.7282 39.9042 17.1571 40.1283 16.2943C40.6282 16.9991 40.6282 17.6067 40.4041 18.1292ZM37.5082 18.5302C37.422 18.8583 38.6286 19.1986 38.6114 19.5267C37.6806 19.5145 36.767 19.5024 35.9568 19.5024C35.9395 19.2715 35.9051 19.0406 35.8878 18.8097C36.4567 18.7489 37.0083 18.6639 37.5082 18.5302ZM29.8719 40.3185C29.8546 40.0511 29.8374 39.7838 29.8029 39.5164C30.0787 39.9539 30.458 40.3792 31.044 40.7681C31.1302 40.8167 31.1647 40.8896 31.2337 40.9625C31.3716 42.1655 31.4922 43.3564 31.6129 44.5109C30.6993 43.3078 30.4924 41.7645 29.8719 40.3185ZM21.1669 145.663C21.1151 144.764 21.0807 143.828 21.0462 142.88C21.4771 143.147 21.9253 143.512 22.408 143.913C22.3735 144.533 22.339 145.165 22.3045 145.796C21.9425 145.626 21.5633 145.566 21.1669 145.663ZM20.1326 132.466C20.4946 134.228 20.7359 135.966 20.5291 137.509C20.4601 137.509 20.3567 137.509 20.2705 137.485C20.2015 137.023 20.1154 136.561 20.0292 136.099C20.0636 134.945 20.0981 133.73 20.1498 132.478L20.1326 132.466ZM20.3394 142.552C20.1671 143.816 19.9947 145.067 19.8223 146.331C19.7189 146.684 19.7361 145.14 19.8223 142.467C19.9947 142.467 20.1671 142.503 20.3394 142.552ZM21.0979 39.8324C21.0634 39.6744 21.029 39.5286 20.9945 39.3706C21.1151 39.5772 21.2358 39.7959 21.3565 40.0025C21.3909 40.1848 21.4082 40.3671 21.4427 40.5494C21.322 40.3185 21.2186 40.0754 21.0979 39.8324ZM30.6821 36.041C29.7685 35.1782 29.5271 34.2182 29.4582 33.2339C29.4237 32.675 29.4237 32.1038 29.3547 31.5448L29.303 31.1195C29.2858 31.0102 29.2513 30.9129 29.2168 30.8157C29.1824 30.7307 29.1307 30.6456 29.0789 30.5605C28.9755 29.3332 28.8721 28.0937 28.7514 26.8664C29.0962 27.1945 29.372 27.5104 29.3892 27.7778C29.5271 28.276 29.7512 28.7621 30.0098 29.2481C30.2166 31.5084 30.4407 33.7929 30.6648 36.0532L30.6821 36.041ZM23.5284 39.2856C23.5284 39.3949 23.5284 39.5043 23.5457 39.6137C23.5112 39.4557 23.4767 39.2856 23.425 39.1276C23.4595 39.1762 23.4939 39.237 23.5284 39.2856ZM28.5791 65.3148C28.5101 62.7143 28.4584 60.1138 28.3377 57.5012C28.4412 57.5255 28.5446 57.5498 28.648 57.5619C28.6825 57.7928 28.6997 58.0237 28.717 58.2546C28.9066 59.1781 29.0789 60.0774 29.2341 60.9888C29.2513 60.7943 29.2686 60.5999 29.2858 60.4055C29.2858 60.8065 29.3203 61.2196 29.3203 61.6207C29.2858 61.4141 29.2686 61.2075 29.2168 61.0009C29.0445 62.447 28.8204 63.893 28.5618 65.3391L28.5791 65.3148ZM23.5801 44.1463C23.6663 44.3164 23.7525 44.4866 23.8215 44.6567C23.8215 44.7296 23.8215 44.8025 23.8215 44.8754C23.7353 44.7296 23.6318 44.5716 23.5457 44.4258C23.5457 44.3286 23.5457 44.2435 23.5457 44.1463H23.5801ZM23.9766 56.2981C24.1317 56.3468 24.2696 56.3832 24.4248 56.4318C24.4765 57.5862 24.5282 58.7407 24.5799 59.8951C24.2696 58.6799 24.0455 57.4404 23.8559 56.2009C23.9076 56.2374 23.9249 56.2738 23.9766 56.3103V56.2981ZM28.8031 111.31C28.6997 110.119 28.6652 108.952 28.6135 107.761C28.6135 107.324 28.4929 106.923 28.3205 106.534C28.4239 101.625 28.5446 96.618 28.648 91.5385C28.941 87.978 29.2341 84.3811 29.5271 80.6626C29.2341 80.2373 29.01 79.7877 28.7859 79.3259C28.7859 76.8955 28.7859 74.4408 28.7514 71.9983C29.0272 72.7517 29.3375 73.5052 29.6306 74.2464C29.6306 75.7168 29.665 77.175 29.665 78.6454C29.6133 79.3137 29.5788 79.9942 29.5271 80.6626C29.5616 80.7234 29.6133 80.7841 29.6478 80.8449C29.6306 91.0038 29.3375 101.163 28.941 111.273C28.8893 111.285 28.8549 111.31 28.8031 111.297V111.31ZM32.6816 34.1939L32.5782 34.0846C32.5437 34.2061 32.4748 34.3276 32.4231 34.4491C32.2507 34.0238 32.0783 33.5985 31.8887 33.1853C32.0955 33.5013 32.3024 33.8172 32.5782 34.0967L32.6127 34.0117C32.3713 33.3312 32.1473 32.6264 31.9404 31.9215L31.4405 31.1924C31.2854 30.9372 31.1475 30.8522 30.9923 30.6699C30.82 30.4755 30.6821 30.2689 30.5442 30.0623C30.3545 29.6491 30.1649 29.2238 29.9925 28.8228C29.9925 28.8957 29.9925 28.9686 30.0098 29.0416C29.6995 28.2274 29.3203 27.3889 28.7342 26.4897C28.7342 26.4411 28.7342 26.3925 28.7342 26.3438C29.8719 27.6319 30.5614 28.6892 31.0613 29.6856L31.5267 30.6578C31.5956 30.84 31.6646 30.9251 31.7336 31.1681L31.9576 31.9337L32.4748 32.6264C32.7678 33.1246 32.7678 33.5742 32.6127 34.0117L32.6816 34.2061V34.1939ZM27.3724 24.7398C27.4414 25.7606 27.5103 26.7813 27.562 27.8021C27.0966 26.8421 26.614 25.8213 25.9417 24.6547C25.89 24.0836 25.8383 23.5003 25.7693 22.9292C26.3209 23.5611 26.8725 24.1808 27.3724 24.752V24.7398ZM36.2153 21.7383C36.3877 21.7383 36.5429 21.7383 36.7325 21.7626C36.5773 21.7748 36.405 21.7748 36.2326 21.7869C36.2326 21.7748 36.2326 21.7505 36.2326 21.7383H36.2153ZM62.7958 3.948V4.05737L62.7441 3.98445L62.7958 3.948ZM23.2526 12.3449C23.4422 11.6887 23.9766 11.0933 24.6316 10.4857C24.6316 10.4857 24.6489 10.4857 24.6661 10.4857C24.6661 10.4735 24.6661 10.4614 24.6661 10.4371C25.166 9.98747 25.7176 9.53785 26.252 9.05177C27.3379 8.90595 28.4412 8.72367 29.4237 8.44418C30.5959 8.20114 31.6991 7.72722 32.9919 7.49634C36.043 7.02242 39.2837 6.54849 42.8001 6.13533L44.1274 5.97736L44.7997 5.90445L45.2134 5.83153L46.9027 5.56419C48.0404 5.39407 49.1781 5.24825 50.3502 5.12673C52.2119 4.89584 54.3839 4.40977 56.2455 3.93585C56.8661 3.77787 57.5039 3.75357 58.1072 3.76572L58.1934 3.96015C57.4349 4.02091 56.6765 4.08167 55.918 4.17888C55.2975 4.42192 54.6769 5.12673 54.3666 5.12673C53.1255 5.60065 51.5741 5.60065 50.0227 5.84369C48.7816 6.31761 47.2302 5.84369 45.6788 6.07457C45.3686 6.07457 45.0583 6.54849 45.0583 6.79153C44.8514 6.73077 44.3688 6.70647 43.9895 6.69432C43.6103 6.69432 43.2311 6.69432 42.8863 6.73077C42.1796 6.79153 41.5246 6.9252 40.8868 7.05887C39.6112 7.32621 38.4045 7.61786 36.7325 7.50849L38.2839 7.98241C36.5084 8.2133 35.3362 8.69937 33.2677 8.93026C32.6816 8.93026 32.2334 9.02747 31.8197 9.17329C31.7853 8.8695 31.768 8.5657 31.7336 8.2619C31.6991 8.66291 31.6646 8.97886 31.6646 9.2219C30.9061 9.50139 30.3373 9.8781 29.5616 9.8781C28.7514 9.97531 27.9585 10.0604 27.1656 10.1333C25.459 11.1662 23.7353 12.0897 22.6321 13.1105C22.6148 12.7581 23.132 12.588 23.2354 12.3449H23.2526ZM18.0641 20.8026V21.3251L17.771 21.7991C17.7366 21.8477 17.7193 21.8841 17.7021 21.9327C17.6848 21.0699 17.6676 20.195 17.6676 19.3201C17.6676 19.3201 17.6676 19.3079 17.6676 19.2958C17.6676 19.2958 17.6676 19.2715 17.6676 19.2593C17.6676 18.275 17.6676 17.2786 17.6331 16.2943C17.6676 16.4279 17.7193 16.5616 17.7366 16.7074C17.9951 17.9712 18.0124 19.4294 18.0641 20.8148V20.8026ZM16.8057 11.6644C16.7368 11.871 16.6678 12.0776 16.5644 12.272C16.4265 12.2599 16.3058 12.2599 16.1679 12.2477C16.3748 12.0533 16.5644 11.8467 16.8057 11.6644ZM15.7197 40.1119C17.3746 43.3686 17.6504 46.5767 18.857 49.8577C19.5293 45.3129 19.3397 40.9382 20.3567 36.4785C20.4429 37.0253 20.5118 37.5843 20.5808 38.1433C20.5635 38.2648 20.5463 38.3863 20.5118 38.5078L20.3912 38.3013C20.4256 38.3863 20.4601 38.4592 20.5118 38.5443C19.943 41.8739 19.1156 45.3007 19.7189 48.6182C20.4429 50.5503 20.3912 53.0658 20.9772 55.3381C21.0979 55.3989 21.2186 55.4475 21.3392 55.4961L21.1841 55.9943C21.3565 56.2981 21.615 56.6262 21.7874 56.8328C22.0977 59.1903 22.5459 61.5964 22.4769 64.051L22.6321 64.7072C22.8389 65.3756 22.2873 66.2991 22.1494 66.931C22.3563 65.9589 22.4597 64.9989 22.4769 64.051C22.046 62.3498 21.3565 60.8429 21.0634 59.2875C21.1669 59.3118 21.2703 59.3483 21.3737 59.3604C21.2358 58.5827 21.1324 57.805 20.96 57.0516C21.0117 56.7113 21.0807 56.3589 21.1841 55.9943C21.0634 55.7878 20.9772 55.5933 21.0117 55.4718L20.9772 55.3381C19.15 54.4025 19.512 52.3366 19.7706 50.5503C19.0466 50.8177 19.5293 49.8941 18.857 49.8455C17.7883 47.8405 16.7195 45.8719 15.8921 44.2314C14.8751 41.6309 15.8232 39.1519 14.0305 36.8552C13.5823 36.357 13.7029 35.5549 13.7029 34.7772C14.2028 35.9681 14.7027 37.159 15.2199 38.3499C15.3405 38.9453 15.4784 39.5408 15.7025 40.1119H15.7197ZM10.8242 46.0541L10.8932 46.2243C11.2897 45.325 11.9447 44.4744 12.2894 43.3929L11.9964 43.0648L13.0134 43.1255C15.013 46.0906 12.8583 49.4324 13.3582 52.6283C14.0305 56.8085 13.5133 61.2075 14.9613 65.5457C15.1509 66.2141 14.6165 67.1254 14.4786 67.7452C13.9615 65.4363 12.7032 63.3705 12.1515 61.086C10.7725 57.3432 10.9621 53.3088 10.9449 49.3716C10.8415 49.0192 10.7381 48.6668 10.6174 48.3144C10.4623 47.561 10.6002 46.9291 10.8587 46.3336V46.0541H10.8242ZM4.32564 88.0631C5.17029 84.8793 5.30819 81.0758 4.61868 77.576C8.68677 76.8955 7.92832 80.7963 7.11815 85.414C6.2735 90.0195 5.53228 95.4028 9.04877 97.2013C4.8083 98.2828 3.79127 90.6514 4.32564 88.0631ZM50.626 217.274L47.7301 217.432L46.9889 217.48L45.6271 217.529L42.8691 217.65C37.1289 217.954 31.0096 218.392 24.442 218.926C17.8745 219.412 11.1 219.911 4.15327 220.433C4.10155 219.996 4.15327 219.473 4.1705 218.963L4.27393 217.407C4.34288 216.362 4.41183 215.317 4.48078 214.272C4.63592 212.158 4.77382 210.019 4.92896 207.856C5.27371 203.506 5.61847 199.07 5.98046 194.586C6.2735 191.257 6.56654 187.866 6.87682 184.451C7.11815 181.985 7.35947 179.481 7.61804 176.978C8.03174 164.814 8.39373 152.772 8.63506 140.972C8.75573 141.094 8.85915 141.264 8.89363 141.531C8.99705 141.446 9.11772 141.373 9.23838 141.3C8.89363 140.085 8.29031 139.016 9.03153 138.688C9.7038 138.493 10.2037 138.906 10.6863 139.55C10.6174 142.831 10.5312 146.125 10.445 149.442C10.5657 152.99 10.7381 156.369 11.0483 159.212C11.5655 153.975 12.0654 148.713 12.5825 143.512C12.5825 143.038 12.548 142.588 12.5308 142.139C12.7549 142.187 12.9962 142.248 13.2203 142.333C13.2203 142.333 13.2203 142.54 13.1858 142.795L13.4444 142.953C13.927 142.917 14.3924 143.002 14.8579 143.123L14.9785 141.398C16.0473 141.969 16.6678 142.528 17.1677 143.463H17.2022V143.524C17.2884 143.719 17.3918 143.913 17.478 144.132C17.478 144.132 17.5469 144.047 17.5814 144.01C17.5642 144.326 17.5469 144.63 17.5125 144.946C17.2884 144.776 17.047 144.606 16.754 144.448L16.5816 146.197C16.8574 146.283 17.1332 146.368 17.4263 146.453C16.9264 154.181 16.3575 162.007 15.7715 169.104C14.289 174.487 11.2035 164.182 11.1862 160.525C11.1345 160.124 11.0828 159.65 11.0311 159.212C10.6002 163.356 10.1692 167.524 9.73827 171.619C9.61761 174.9 9.49695 178.181 9.37628 181.474L9.18667 186.42L9.08324 189.057L8.82468 193.359C8.58335 197.49 8.32478 201.646 8.08346 205.814C7.96279 207.868 7.84213 209.934 7.72146 212L7.53185 215.086L7.44566 216.63C7.42842 217.14 7.325 217.699 7.49737 218.063C14.7717 217.565 22.0977 217.067 29.4409 216.569C33.0781 216.338 36.6635 216.156 40.1973 216.022L45.4892 215.864L49.1264 215.779C46.2132 215.913 43.3 216.046 40.3869 216.18C36.8876 216.362 33.3022 216.617 29.6478 216.921C26.0968 217.225 22.408 217.553 18.6674 217.881C14.7027 218.197 10.6519 218.525 6.32521 218.878C6.17007 218.465 6.2735 217.857 6.2735 217.31C6.30797 216.751 6.32521 216.192 6.35969 215.621C6.4114 214.479 6.48035 213.336 6.53206 212.182C6.66997 209.837 6.80787 207.467 6.96301 205.061C7.325 200.176 7.68699 195.157 8.06622 190.041C8.32478 186.967 8.58335 183.832 8.85915 180.648C9.15219 177.683 9.44523 174.669 9.73827 171.631C9.96236 164.182 10.2037 156.782 10.4278 149.454C10.4278 149.26 10.4278 149.077 10.4105 148.895C9.60037 158.216 8.54887 167.718 7.6008 177.002C7.51461 179.372 7.42842 181.754 7.34224 184.136C7.29052 185.326 7.25605 186.517 7.20433 187.72L7.16986 188.632L7.06643 190.284L6.87682 193.578C6.61825 197.916 6.35969 202.278 6.08389 206.665C5.94598 208.828 5.82532 211.003 5.68742 213.166L5.4978 216.411L5.39438 218.027C5.3599 218.562 5.29095 219.133 5.39438 219.57C15.3233 218.902 25.5625 218.124 35.4224 217.59C37.8874 217.468 40.3351 217.371 42.7484 217.31L48.6265 217.164C51.2121 217.103 53.815 217.079 56.4179 217.067C54.47 217.128 52.5394 217.213 50.626 217.298V217.274ZM158.189 217.48C143.468 217.359 127.644 216.35 111.82 215.026C95.9611 213.737 79.9646 212.328 64.3817 211.927C61.6237 211.927 58.9001 211.951 56.2111 212.024C49.1953 212.073 43.1277 212.121 37.2668 212.17C36.1464 212.231 35.0432 212.279 33.9572 212.34C34.595 212.291 35.2673 212.243 35.9051 212.206C28.941 212.352 22.2528 212.51 15.013 212.765C14.9441 212.668 14.8062 212.607 14.7889 212.474L14.8579 211.951C14.9096 211.599 14.9441 211.246 14.9958 210.894C15.082 210.189 15.1681 209.46 15.2716 208.719C15.4439 207.248 15.6163 205.717 15.8059 204.137L15.668 201.78L16.7195 201.391C16.7712 203.068 16.7885 204.745 16.7712 206.446C16.7712 207.297 16.754 208.148 16.7368 209.01L16.7023 210.298V210.943C16.7023 211.028 16.6161 211.21 16.7368 211.222L16.9953 211.344C24.0455 210.748 31.1302 210.286 38.1804 210.007C39.9387 209.946 41.6969 209.897 43.4724 209.873C45.1962 209.837 47.1785 209.825 48.3334 209.825C51.0398 209.825 53.7633 209.849 56.4869 209.91C67.3983 210.128 78.3787 210.882 89.0661 211.514C105.58 212.461 122.817 214.236 140.262 215.269C157.689 216.314 175.168 216.727 191.958 216.374C197.129 216.265 204.852 216.69 210.006 216.739C191.958 217.176 176.375 217.881 158.189 217.492V217.48ZM293.901 203.396L293.143 203.457L291.592 203.566C291.023 203.797 290.247 204.016 289.368 204.223L288.678 204.381C288.558 204.405 288.454 204.429 288.299 204.453L287.213 204.538C285.765 204.648 284.283 204.769 282.783 204.879C284.679 204.854 286.61 204.83 288.592 204.794C289.368 204.794 290.161 204.818 291.005 204.854C290.592 204.988 290.126 205.11 289.626 205.231L288.851 205.413L288.437 205.498C288.265 205.523 287.799 205.559 287.489 205.596C284.714 205.863 281.818 206.106 278.853 206.349C272.906 206.811 266.597 207.236 260.047 207.576C246.963 208.281 232.914 208.731 218.883 208.913C190.82 209.326 162.895 208.476 142.555 207.686C124.455 207.017 105.425 205.207 85.5496 203.992C75.6207 203.396 65.4332 202.959 55.1423 202.947C52.5739 202.947 49.9883 202.947 47.4026 202.983C45.0928 203.02 43.0587 203.068 40.8523 203.141C36.5084 203.287 32.0955 203.506 27.6655 203.797C27.5448 203.785 27.2862 203.87 27.2862 203.773V203.457L27.3552 202.825L27.4414 201.561L27.631 199.009C27.7689 197.296 27.8895 195.57 28.0274 193.845C28.3377 190.029 28.648 186.189 28.9583 182.337C29.2686 167.451 29.734 152.164 30.3028 136.634C30.3028 136.61 30.3373 136.585 30.3373 136.573C30.389 136.476 30.4407 136.403 30.5269 136.33C30.1822 150.621 29.665 165.361 29.0617 181.085C30.8544 160.877 32.6816 140.292 34.5088 119.682C35.0259 108.077 35.6293 96.7152 35.8534 85.3046C36.0947 73.8819 35.8534 62.4105 35.0087 50.6354C34.7846 48.6182 34.6122 46.6131 34.4226 44.6931C35.2328 46.2 36.2498 47.9377 36.991 47.7919C37.3358 47.7797 35.3879 43.1134 35.0432 39.7473C35.3535 39.5286 35.974 39.4921 36.698 39.5529C37.4565 47.2936 38.2494 54.6698 39.2319 61.3776C38.9906 53.1022 38.3183 46.9048 37.6633 39.6866C38.9389 39.9175 40.2145 40.3306 40.4213 40.5615C40.5248 40.6101 40.611 40.6587 40.6971 40.7073C40.7316 40.2091 40.7661 39.6987 40.8006 39.2005L39.6629 36.8552C39.0768 35.5914 38.508 34.3155 37.9564 33.0274C38.2666 33.3676 38.5941 33.7079 38.9389 34.036C39.1457 34.1939 39.3181 34.3641 39.4905 34.5342C40.8006 35.883 40.904 37.5114 40.8006 39.2005C41.2487 40.0876 41.7142 40.9625 42.2141 41.8253L42.283 41.8861C42.2141 40.7559 42.3692 39.6015 42.4209 38.4714C41.3866 36.442 40.4731 34.3762 39.5767 32.2983C39.887 32.6385 40.2145 32.9666 40.5592 33.3069C42.4037 34.7408 42.5416 36.5636 42.4209 38.4714C43.4035 40.4035 44.4722 42.2992 45.7305 44.122C45.6271 42.8461 45.5237 41.4 45.11 40.1605C44.2653 38.119 43.3862 36.1382 42.5243 34.2061C42.0762 33.2461 41.6452 32.2861 41.2143 31.3383C41.1108 31.1195 40.9902 30.8279 40.8868 30.6699L40.5937 30.5362C40.4041 30.439 40.2145 30.3418 40.0076 30.2203C39.6629 30.0016 39.3181 29.7464 38.9734 29.4669C38.1632 29.1752 37.4909 28.835 37.2496 28.5798C37.1462 28.4947 37.0945 28.4097 37.0083 28.3246C36.9738 27.9843 36.9221 27.6562 36.8876 27.316C37.6288 28.1909 38.2666 28.92 38.9734 29.479C39.2319 29.5762 39.4905 29.6613 39.7663 29.7464C39.9214 29.2117 39.5077 28.7256 37.422 27.1094C37.2841 27 37.06 26.8421 36.8187 26.6719C36.6291 25.1165 36.4394 23.5246 36.2498 21.9327C36.5601 21.872 36.8876 21.8112 37.2324 21.7626C38.0943 21.6289 39.0423 21.5317 40.0593 21.471C41.4728 21.3494 42.8346 21.0578 44.3515 20.6689C46.6097 20.2193 48.8678 19.7819 51.1259 19.3322C53.0221 18.9677 54.9355 19.0284 56.8316 19.1743C56.6765 19.3201 56.5213 19.4781 56.3662 19.636C58.7278 19.8183 61.0031 19.7697 63.4164 19.4781L64.0714 19.393C65.6401 19.1743 67.1225 19.0041 68.5877 18.8705C66.433 19.1743 64.4162 19.5024 62.7786 19.8669C65.3815 19.9763 68.5705 20.0249 72.1214 20.0006C72.1214 20.2436 72.1042 20.7175 72.1042 20.7175C95.2372 21.5074 110.63 22.674 131.178 24.1444C136.315 24.4482 136.297 25.4082 144.02 25.5054C164.584 25.7849 185.166 26.3074 205.765 26.356C221.762 26.3317 237.482 26.2952 253.031 26.2709C260.805 26.2709 268.545 26.2952 276.267 26.3074H279.163H279.887C280.025 26.3074 279.956 26.3074 280.008 26.3074H280.111L280.577 26.2345C280.887 26.2102 281.283 26.1494 281.611 26.1494L281.973 27.158V27.1823H281.99L282.025 27.3646L282.197 28.1545L282.542 29.7464L283.283 32.8815L284.869 39.0547C284.886 38.8481 284.938 38.7509 285.024 38.763C286.903 46.0177 288.902 52.9928 290.471 59.8829C291.885 66.688 293.712 71.4637 294.022 78.1107C294.539 89.3633 293.195 101.236 292.66 113.631C292.126 125.928 292.16 138.068 292.384 150.062C292.712 162.007 293.022 173.916 293.333 185.849L293.608 194.781L293.746 199.252C293.746 199.751 293.763 199.702 293.781 199.811L293.815 200.079L293.867 200.613L294.091 202.886L294.125 203.177C294.125 203.275 294.177 203.408 294.005 203.372L293.901 203.396ZM294.16 56.6505C292.798 51.4739 291.005 45.7868 289.23 39.9296C288.351 37.001 287.437 34.0481 286.627 31.0952C286.231 29.6491 285.851 28.2274 285.472 26.8178C285.317 26.4775 285.179 26.1494 285.041 25.8213C284.765 25.1773 284.628 24.5454 284.541 23.877C284.386 23.7677 283.99 23.8406 283.748 23.8163C283.748 23.7555 283.748 23.6947 283.748 23.6218H284.334L284.628 23.5975C284.696 23.6097 284.886 23.5489 284.852 23.6461C284.989 24.4725 285.179 25.3231 285.455 26.198C285.524 26.3074 285.593 26.4289 285.679 26.5383L285.8 26.7084C285.851 26.7935 285.869 26.7084 285.972 27.0122C286.3 27.9114 286.627 28.7864 286.955 29.5762C287.61 31.1681 288.161 32.5413 288.385 33.4648C290.747 40.7681 293.298 49.6754 295.573 58.2789C296.659 61.7057 297.435 65.57 297.952 69.6044C298.452 73.6145 298.642 77.8191 298.849 82.1451C298.849 83.8707 299.504 85.6206 299.848 85.6206C298.9 97.8453 299.917 105.234 299.073 118.115L300.021 112.61C299.969 119.974 300.469 125.466 300.676 134.605C300.607 141.92 301.969 147.364 302.02 152.808C302.382 161.873 302.744 170.951 303.089 179.566C303.279 183.868 303.503 188.073 303.796 192.095C303.968 194.1 304.123 196.069 304.278 198.001C304.33 198.475 304.365 198.961 304.416 199.435C304.468 199.799 304.52 200.164 304.554 200.528C304.658 201.233 304.761 201.938 304.882 202.619C304.537 201.877 304.365 200.869 304.227 199.884C304.158 199.24 304.089 198.596 304.037 198.001C303.968 197.381 303.899 196.81 303.813 196.36C301.348 185.497 301.434 165.58 299.969 149.199C299.607 143.743 298.935 138.262 298.676 132.782C298.418 126.378 298.28 119.962 298.28 113.485C298.28 106.983 298.521 100.543 298.59 94.2119C298.659 87.8808 298.538 81.6226 297.866 75.4859C297.177 69.3857 295.866 63.1761 294.177 56.687L294.16 56.6505ZM318.465 220.36L314.914 220.518C310.122 220.749 305.382 220.968 300.693 221.199C297.177 220.591 297.521 220.069 300.279 219.619C303.037 219.169 308.381 218.768 315.362 218.428L316.017 218.392C316.017 218.392 316.138 218.392 316.172 218.379V218.258L316.155 218.003C316.138 217.662 316.121 217.322 316.104 216.97C316.069 216.277 316.035 215.572 316 214.843C315.948 213.397 315.879 211.89 315.81 210.311C315.724 207.2 315.621 203.846 315.517 200.285C315.414 194.562 315.311 188.219 315.19 181.62C315.018 168.545 314.776 154.497 314.311 142.649C313.828 130.789 313.225 121.092 311.604 116.559C313.811 112.999 314.811 121.602 315.69 132.879C316.534 144.156 317.224 158.179 317.293 165.446C317.241 174.475 317.448 184.281 317.862 194.222C318.138 200.431 318.413 206.677 318.689 212.863C318.775 214.625 318.862 216.374 318.948 218.124L319.017 219.449C318.965 219.838 319.344 220.518 318.482 220.36H318.465Z" fill="#FCEE25"/>
</svg>
