<svg width="61" height="62" viewBox="0 0 61 62" fill="none" xmlns="http://www.w3.org/2000/svg">
<path d="M5.80675 57.6612C5.44885 58.1009 5.28302 58.6538 5.34031 59.2181C5.3979 59.7825 5.67107 60.291 6.11037 60.6497C7.01672 61.3898 8.35544 61.2537 9.09445 60.346L11.4288 57.4764C10.2764 56.6635 9.17676 55.7727 8.13292 54.8062L5.80705 57.6612H5.80675Z" fill="#211E1E"/>
<path d="M51.524 54.8065C51.2156 55.0915 50.9017 55.3708 50.5815 55.6444C49.822 56.2933 49.0365 56.9036 48.227 57.4749L50.5625 60.346C51.3012 61.2534 52.6399 61.3895 53.5463 60.6494C54.4526 59.909 54.5886 58.5686 53.8493 57.6606L51.524 54.8062V54.8065Z" fill="#211E1E"/>
<path d="M59.1969 26.0229C58.6415 22.88 57.594 19.8722 56.0786 17.0691L55.3656 17.7832C54.7815 18.3684 54.0042 18.6909 53.1769 18.6909C53.0011 18.6909 52.8268 18.6761 52.6547 18.6465C52.4828 18.6172 52.313 18.5729 52.1472 18.5143L48.6858 17.2922C51.3678 20.9137 52.9562 25.2366 53.2357 29.8025C53.2649 30.2848 53.2803 30.7758 53.2803 31.2616C53.2803 31.7475 53.2652 32.2385 53.2357 32.7207C52.8702 38.6833 50.2736 44.2321 45.9231 48.3446C41.5544 52.4745 35.8383 54.7489 29.828 54.7489C26.6627 54.7489 23.5909 54.1277 20.6991 52.9024C17.9064 51.7196 15.3984 50.0259 13.245 47.8696C11.0913 45.7127 9.40074 43.2009 8.21972 40.4041C6.99617 37.508 6.37596 34.4316 6.37596 31.2616C6.37596 28.0916 6.99617 25.0152 8.21972 22.1191C9.40074 19.3223 11.0916 16.8106 13.245 14.654C15.3984 12.4971 17.9064 10.804 20.6991 9.62087C23.5909 8.39581 26.6627 7.77467 29.828 7.77467C34.8871 7.77467 39.7378 9.38625 43.7519 12.3597L42.5265 8.88016C42.133 7.76018 42.4201 6.49526 43.2577 5.65701L43.9623 4.95132C42.7725 4.30905 41.5385 3.7483 40.2652 3.27181C36.9313 2.0244 33.4199 1.39209 29.8277 1.39209C25.8007 1.39209 21.8952 2.18172 18.2188 3.73894C14.6673 5.24332 11.4776 7.39692 8.73802 10.1405C5.99847 12.8842 3.84807 16.0786 2.34593 19.6355C0.791631 23.3173 0.00317383 27.2289 0.00317383 31.2616C0.00317383 35.2943 0.791631 39.2063 2.34654 42.8878C3.84868 46.4446 5.99907 49.6391 8.73862 52.3827C11.4782 55.1263 14.6679 57.2802 18.2194 58.7843C21.8955 60.3415 25.8016 61.1312 29.8283 61.1312C33.4398 61.1312 36.9687 60.4919 40.3179 59.2318C43.5535 58.0143 46.5336 56.2523 49.1761 53.9946C51.8005 51.7522 53.9997 49.0995 55.7132 46.1106C57.465 43.0548 58.6499 39.7462 59.2355 36.2766C59.4393 35.0682 59.5699 33.8334 59.6241 32.6069C59.644 32.169 59.6537 31.7167 59.6537 31.2616C59.6537 30.8066 59.6437 30.3542 59.6241 29.9173C59.5665 28.611 59.4227 27.3008 59.1969 26.0226V26.0229Z" fill="#211E1E"/>
<path d="M42.5648 14.1775C38.9026 11.4323 34.4622 9.94336 29.8285 9.94336C26.9542 9.94336 24.1667 10.5068 21.5429 11.618C19.0081 12.6918 16.7317 14.2291 14.7767 16.1873C12.8214 18.1456 11.2861 20.4257 10.2142 22.964C9.10431 25.5914 8.54169 28.3833 8.54169 31.2619C8.54169 34.1405 9.10431 36.9322 10.2142 39.5598C11.2861 42.0984 12.8214 44.3783 14.7767 46.3365C16.7317 48.2947 19.0084 49.8323 21.5429 50.9058C24.1667 52.0173 26.9542 52.5808 29.8285 52.5808C35.2838 52.5808 40.472 50.5163 44.4372 46.7677C48.3861 43.0348 50.7433 37.999 51.075 32.5881C51.1018 32.1497 51.1154 31.7037 51.1154 31.2619C51.1154 30.8201 51.1018 30.3741 51.075 29.9357C50.8181 25.746 49.3473 21.7815 46.8634 18.4726L42.3064 23.0365C43.6249 25.0385 44.4495 27.3397 44.6904 29.7615C44.7399 30.2534 44.7649 30.7585 44.7649 31.2619C44.7649 31.7653 44.7399 32.2699 44.6904 32.7633C44.325 36.4342 42.6172 39.8307 39.8816 42.3255C37.127 44.8369 33.557 46.2205 29.8288 46.2205C27.8129 46.2205 25.8567 45.8247 24.0144 45.0447C22.2358 44.2913 20.6387 43.213 19.2671 41.8394C17.8958 40.466 16.8191 38.8665 16.0669 37.0853C15.2877 35.2406 14.8928 33.2814 14.8928 31.2625C14.8928 29.2436 15.2877 27.2848 16.0669 25.4401C16.8191 23.6585 17.8958 22.059 19.2671 20.6857C20.6387 19.312 22.2358 18.2337 24.0144 17.4803C25.8564 16.7001 27.8126 16.3045 29.8288 16.3045C32.7589 16.3045 35.5908 17.1591 38.0065 18.7441L42.5651 14.1787L42.5648 14.1775Z" fill="#211E1E"/>
<path d="M29.8286 24.8421C30.4575 24.8421 31.0699 24.9345 31.6512 25.1073L36.4362 20.3151C34.4577 19.1154 32.1801 18.4719 29.8286 18.4719C28.1039 18.4719 26.4317 18.8098 24.8578 19.4766C23.337 20.1206 21.9714 21.0431 20.7983 22.2181C19.6254 23.393 18.7039 24.7612 18.0608 26.2837C17.3951 27.8599 17.0577 29.5346 17.0577 31.2619C17.0577 32.9891 17.3951 34.6638 18.0608 36.24C18.7039 37.7631 19.6248 39.1307 20.7983 40.3056C21.9714 41.4803 23.3373 42.4031 24.8578 43.0471C26.4317 43.7136 28.1039 44.0518 29.8286 44.0518C33.0162 44.0518 36.0684 42.869 38.4235 40.7217C40.763 38.5884 42.2235 35.6853 42.5359 32.5473C42.5784 32.1252 42.5995 31.6928 42.5995 31.2619C42.5995 30.831 42.5781 30.3985 42.5359 29.9773C42.345 28.0583 41.7251 26.2278 40.7376 24.6072L35.9623 29.3897C35.9819 29.4546 36.0006 29.5204 36.0183 29.5863C36.1646 30.1292 36.2388 30.693 36.2388 31.2612C36.2388 31.8295 36.1646 32.3933 36.0177 32.9365C35.2661 35.7297 32.721 37.6807 29.8286 37.6807C28.1163 37.6807 26.5065 37.013 25.2959 35.8007C24.085 34.588 23.4187 32.9761 23.4187 31.2612C23.4187 27.7216 26.2942 24.8418 29.8286 24.8418V24.8421Z" fill="#211E1E"/>
<path d="M60.6403 8.11723L57.6095 5.0819L58.3608 4.32941C58.5909 4.09871 58.7064 3.79584 58.7064 3.49388C58.7064 3.19191 58.5909 2.88844 58.3608 2.65804C57.8998 2.19634 57.1527 2.19634 56.692 2.65804L55.9406 3.41053L52.9098 0.375206C52.4258 -0.109444 51.6413 -0.109444 51.1574 0.375206L44.5705 6.97218C44.2331 7.30978 44.1194 7.81164 44.2777 8.26217L46.0552 13.3107L28.9482 30.4431C28.4875 30.9048 28.4875 31.6528 28.9482 32.1142C29.4092 32.5762 30.1564 32.5762 30.6171 32.1142L47.724 14.982L52.765 16.7618C53.2149 16.9206 53.716 16.8071 54.0531 16.4689L60.6403 9.87223C61.1242 9.38728 61.1242 8.60188 60.6403 8.11723Z" fill="#211E1E"/>
</svg>
