<svg width="225" height="107" viewBox="0 0 225 107" fill="none" xmlns="http://www.w3.org/2000/svg">
<path d="M224.311 71.2689C223.567 69.6596 221.569 71.7762 219.128 70.1618C216.69 68.5475 214.415 68.6699 212.007 68.3451C209.597 68.0202 209.013 67.1281 206.543 64.734C205.741 63.9568 203.768 62.2475 201.377 60.2558C201.525 60.1334 201.618 60.0609 201.618 60.0609C201.618 60.0609 201.103 59.4711 202.468 57.9018C203.833 56.3299 203.85 56.3424 204.76 54.3857C205.67 52.429 206.877 52.1491 209.561 51.9541C212.243 51.7617 211.492 51.4518 212.583 50.8796C213.676 50.3073 214.337 50.0799 212.505 50.2573C210.67 50.4373 209.177 51.2969 207.359 51.8942C205.542 52.4939 206.706 48.3381 208.674 47.311C210.64 46.2839 213.452 46.019 216.134 46.6063C218.816 47.1936 218.284 46.3789 220.066 46.1115C221.848 45.8416 224.668 45.3018 224.668 45.3018C223.044 45.4518 220.704 45.7391 219.666 45.6192C218.625 45.5017 218.025 44.5671 217.044 45.0394C216.067 45.5117 213.294 45.9466 211.341 45.9166C209.385 45.8866 210.941 44.0598 212.995 43.1827C215.049 42.303 215.144 43.1502 217.806 43.3176C220.468 43.485 221.657 43.4626 220.639 43.0002C219.09 42.2955 211.854 42.2655 210.491 42.3155C209.126 42.363 208.317 40.976 205.374 41.6608C202.43 42.343 204.886 39.3017 204.175 38.0872C203.466 36.8727 200.764 37.1326 200.052 36.8302C199.344 36.5328 200.246 35.0259 199.517 34.9984C198.791 34.971 199.155 34.0738 199.444 32.2795C199.731 30.4828 205.665 26.5243 207.297 23.7704C208.928 21.0166 208.561 21.064 209.682 20.1694C210.803 19.2722 209.413 18.0777 210.715 17.6454C212.015 17.2156 211.947 13.732 210.788 14.4142C209.629 15.0964 209.755 19.4697 208.083 20.0419C206.412 20.6117 208.021 22.2461 205.17 22.5209C202.322 22.7908 196.29 25.2773 195.789 25.4323C195.289 25.5822 195.915 23.9054 197.348 22.7908C198.783 21.6763 197.056 21.3739 200.349 19.1398C203.644 16.9057 204.602 14.4292 203.539 15.6137C202.476 16.7982 202.488 17.2481 200.055 18.8024C197.624 20.3593 195.586 22.4535 195.204 23.2257C194.822 23.9979 195.817 23.4181 195.867 24.0778C195.918 24.7351 193.804 26.6968 192.652 27.8688C191.501 29.0408 190.094 28.3536 190.747 26.7542C191.401 25.1549 194.857 22.2061 195.397 21.124C195.938 20.0419 195.118 20.0719 194.397 21.4189C193.68 22.7633 190.719 26.137 190.081 26.7567C189.44 27.3765 188.794 27.6214 187.884 27.2565C186.977 26.8942 187.527 25.5447 185.594 24.9875C183.664 24.4252 183.196 23.3531 184.508 21.9362C185.82 20.5217 186.308 17.9653 185.561 17.6979C184.815 17.428 187.225 15.5138 185.735 16.256C184.244 16.9982 184.335 15.9661 184.712 14.0493C185.091 12.1376 187.271 11.1055 187.024 10.6882C186.778 10.2684 186.617 9.25627 187.153 7.69939C187.685 6.14001 186.703 6.65731 186.054 7.28706C185.408 7.9193 186.077 9.06384 186.077 9.06384C185.496 9.44119 185.652 9.98097 185.652 9.98097C184.636 10.6232 184.478 11.7278 184.272 12.9323C184.066 14.1343 182.729 16.6783 182.729 16.6783C180.625 17.7079 180.187 20.7042 176.445 22.1636C172.951 23.5255 171.317 21.5114 171.317 21.5114C171.317 21.5114 168.708 26.4369 167.574 22.8558C169.588 22.0911 171.324 21.4339 172.114 20.8891C173.989 19.5896 176.216 18.8924 176.937 18.6875C177.078 18.65 177.174 18.525 177.166 18.3801C177.161 18.2027 177.063 18.0427 176.907 17.9528C176.754 17.8653 176.565 17.8628 176.409 17.9453C175.696 18.3001 174.484 18.8399 172.923 19.3022C171.935 19.5946 170.163 20.3568 168.009 21.3939C168.65 20.2694 167.657 20.7117 168.049 19.782C168.469 18.7799 169.037 17.7354 168.323 18.5101C168.097 18.755 167.911 18.9249 167.707 19.0973C168.693 14.8415 171.608 9.25627 171.9 7.21708C172.222 4.96549 173.227 2.87133 173.569 2.20909C173.637 2.08164 173.609 1.9267 173.499 1.83424C173.363 1.71679 173.179 1.6793 173.009 1.73178C172.84 1.78426 172.709 1.91921 172.664 2.08914C172.438 2.85133 172.011 4.09833 171.287 5.55025C170.608 6.90971 169.517 10.2184 168.426 14.1168C168.411 14.1168 168.396 14.1168 168.381 14.1168C166.772 14.1918 167.976 15.0839 166.028 15.4063C164.078 15.7262 165.02 16.2984 163.567 18.4426C163.022 19.2473 162.203 20.5492 161.406 21.7613C160.833 21.4989 160.536 21.7313 159.832 22.0211C160.579 20.3768 161.665 18.6125 162.449 17.7304C163.643 16.3859 162.577 15.1689 162.185 16.6633C161.919 17.6904 160.536 20.3043 159.282 22.2211C158.98 22.316 158.621 22.406 158.173 22.4785C156.811 22.6934 154.348 23.1832 152.57 23.4406C153.01 22.6659 153.149 22.3785 153.521 22.0311C155.114 21.5438 156.871 21.2065 157.935 21.179C159.739 21.1315 159.908 19.5271 158.54 20.2619C157.806 20.6567 155.891 21.219 154.008 21.6338C154.016 21.6288 154.023 21.6213 154.033 21.6163C155.18 20.7517 153.825 19.5172 155.139 19.1248C156.451 18.7325 156.484 15.2464 155.305 15.8961C154.126 16.5458 154.126 20.9191 152.44 21.4439C151.982 21.5863 151.764 21.8137 151.63 22.0736C150.954 22.1661 150.376 22.2111 149.989 22.1811C148.26 22.0486 146.05 23.8904 145.583 22.7683C145.115 21.6463 146.146 20.7716 147.619 21.5263C149.092 22.281 149.001 20.0319 147.744 19.937C146.49 19.842 146.033 21.3714 145.754 20.1144C145.718 19.9545 145.683 19.8145 145.646 19.6946C148.272 17.7429 149.019 15.8461 148.026 16.8882C147.111 17.8503 146.958 18.3226 145.492 19.3172C145.241 18.8649 144.841 18.8524 143.856 18.7774C142.813 18.6975 141.166 20.8291 139.917 21.6563C139.962 21.2415 139.525 21.3239 139.03 21.9712C138.969 21.9637 138.909 21.9512 138.854 21.9262C137.682 21.3939 140.01 16.3484 136.981 18.4876C134.236 20.4268 134.744 14.8465 133.427 18.7175C132.987 20.007 130.355 17.0531 130.162 18.1827C130.142 18.3051 130.119 18.4176 130.096 18.5226C130.066 18.4976 130.036 18.4751 130.001 18.4601C129.262 18.1702 131.728 16.3259 130.214 17.0232C128.704 17.7229 128.824 16.6933 129.257 14.789C129.692 12.8873 131.899 11.9177 131.665 11.4954C131.431 11.068 131.3 10.0534 131.878 8.51156C132.454 6.96968 131.459 7.45699 130.79 8.06674C130.127 8.679 130.762 9.84353 130.762 9.84353C130.172 10.2034 130.31 10.7482 130.31 10.7482C129.274 11.3604 129.086 12.46 128.847 13.657C128.606 14.854 127.196 17.358 127.196 17.358C127.052 17.423 126.914 17.498 126.783 17.5829C126.339 16.2984 126.557 14.3142 127.09 12.1026C127.894 8.78645 124.609 9.80854 125.564 11.5553C126.517 13.3046 125.652 16.5209 124.926 17.8403C124.197 19.1573 121.952 14.799 121.555 12.0726C121.158 9.34623 121.304 10.041 118.049 5.31285C117.873 5.05795 117.707 4.80555 117.546 4.56065C117.91 3.66601 118.275 2.97129 118.456 2.64142C118.529 2.51647 118.504 2.36153 118.396 2.26407C118.265 2.14412 118.081 2.09914 117.908 2.14662C117.737 2.1941 117.604 2.32654 117.554 2.49398C117.44 2.83884 117.28 3.28866 117.068 3.80595C116.571 2.99128 116.153 2.23658 115.796 1.55185C115.558 1.4419 115.294 1.41941 114.99 1.51937C114.942 1.54186 114.907 1.57185 114.877 1.60183C115.437 2.55645 116.07 3.60853 116.691 4.66811C116.51 5.06045 116.309 5.47528 116.076 5.91261C115.359 7.25457 114.173 10.5283 112.971 14.3942C112.956 14.3942 112.941 14.3942 112.926 14.3942C111.317 14.4217 112.494 15.3488 110.536 15.6162C108.577 15.8811 109.502 16.4784 107.989 18.5825C107.16 19.7371 105.709 21.9337 104.631 23.3706C104.297 23.3956 103.937 23.4156 103.558 23.4306C104.246 21.5263 105.843 18.9499 106.891 17.8378C108.125 16.5283 107.092 15.2813 106.66 16.7658C106.29 18.0327 104.126 21.7088 102.686 23.4556C100.924 23.4831 99.0006 23.4006 97.9047 23.1832C98.8548 22.3435 99.0107 19.772 97.9298 20.2319C97.3039 20.4968 96.8816 21.7388 96.394 22.9458C94.8808 22.9683 93.1967 23.608 93.0358 22.6484C92.8347 21.4489 94.0413 20.8316 95.3031 21.9012C96.5624 22.9708 96.9922 20.7617 95.7907 20.3843C94.5918 20.0095 93.7975 21.3914 93.81 20.1069C93.8226 18.8224 93.5938 18.7924 92.2692 18.3726C90.947 17.9553 87.6944 21.089 86.6739 20.3043C85.6559 19.5196 89.0794 15.1364 85.6408 16.5308C82.5239 17.7953 84.2986 12.4775 82.1268 15.9486C81.4029 17.1031 79.5177 13.6295 79.0703 14.6891C78.6228 15.7462 78.3991 16.0036 76.7954 14.9215C75.1943 13.8369 75.9383 11.1205 77.4817 8.06924C79.025 5.02296 75.5939 5.27286 76.1218 7.18959C76.5265 8.6715 75.6794 10.7557 74.8047 12.1451C74.8876 11.6953 75.0611 11.1555 75.3677 10.5358C76.0992 9.05884 75.0586 9.44369 74.3321 9.98597C73.6082 10.5283 74.1235 11.7503 74.1235 11.7503C73.5001 12.0501 73.5831 12.6049 73.5831 12.6049C73.4323 12.6749 73.2965 12.7574 73.1733 12.8473C72.4796 11.6953 71.9291 8.73397 72.0975 6.78226C72.3062 4.38572 72.3187 4.62062 70.9337 1.16951C70.6321 0.774666 70.3204 0.39232 69.9987 0.0274658C69.8152 0.209893 69.7222 0.389821 69.6845 0.572247C69.883 1.28696 70.0615 1.97918 70.1998 2.61893C71.1826 7.16211 72.6229 12.7474 72.2257 12.9848C71.8261 13.2197 70.4436 10.8156 69.4004 8.25916C68.3573 5.70019 68.1889 3.59604 68.2366 5.64521C68.2844 7.69439 71.0494 12.2751 71.3761 13.3546C71.6979 14.4342 70.8684 14.4642 69.0259 12.1551C67.186 9.84353 65.9493 5.1704 65.7783 7.56944C65.6049 9.96598 69.0888 12.9498 69.4884 14.5017C69.8881 16.0535 69.1139 16.9532 69.1139 16.9532V16.9482C68.302 17.2756 67.2915 18.0377 66.7084 17.1656C66.1277 16.2934 65.9618 16.4609 65.1248 16.116C64.2903 15.7737 62.7369 14.3242 62.028 13.567C61.3192 12.8098 60.266 12.0426 61.0251 13.0922C61.7817 14.1418 65.4918 16.7658 65.8864 17.7529C66.2836 18.7375 65.4893 20.2718 64.7101 20.9666C64.0012 21.5963 64.8131 22.1061 64.7955 22.7534C64.2425 23.0532 63.6066 23.3106 62.8575 23.4956C62.4478 23.598 62.0683 23.658 61.7164 23.688C61.6661 23.5555 61.6208 23.4156 61.5831 23.2681C61.3167 22.2261 60.3816 22.9183 60.8567 23.5255C60.902 23.583 60.9371 23.643 60.9673 23.7055C58.7352 23.613 57.858 22.1886 57.858 22.1886C57.858 22.1886 57.7851 22.291 57.6619 22.4485C57.2899 21.7513 56.943 20.9666 56.6464 20.1694C56.2367 19.0623 55.6435 18.2652 55.2011 17.8678C56.9204 14.0818 59.801 9.84853 60.2937 8.09423C60.907 5.90261 62.1738 3.95589 62.6011 3.34114C62.6866 3.22368 62.6791 3.06625 62.581 2.95879C62.4629 2.82634 62.2844 2.76387 62.1085 2.79386C61.935 2.82384 61.7893 2.9413 61.7214 3.10373C61.3971 3.82844 60.8115 5.01297 59.9041 6.35993C59.0545 7.62192 57.5413 10.7607 55.9527 14.4867C55.9376 14.4867 55.9225 14.4817 55.9074 14.4817C54.3037 14.3492 55.3796 15.3888 53.4064 15.4563C51.4307 15.5213 52.2904 16.211 50.571 18.1502C48.8517 20.0894 44.737 25.2698 45.3025 23.4356C45.8681 21.6013 48.1957 18.4801 49.5556 17.3005C50.9154 16.121 50.0155 14.7766 49.4324 16.2085C48.8517 17.6404 45.486 22.1111 44.0684 23.1032C42.6507 24.0953 42.1304 26.9167 41.0495 26.3494C39.9687 25.7821 40.205 24.4552 41.8212 24.1028C43.44 23.753 41.9293 22.0761 40.8987 22.7983C39.8732 23.5205 40.499 24.9875 39.4785 24.1978C38.458 23.4081 38.2946 23.573 37.1585 24.3677C36.0248 25.1624 36.5678 29.6331 35.3185 29.9655C34.0743 30.2978 32.634 24.935 31.6713 28.5011C30.7991 31.7348 27.6143 27.1116 29.0798 30.9301C29.5674 32.2021 25.6437 31.5923 26.2218 32.5869C26.7999 33.5815 26.8703 33.9139 25.0303 34.5286C23.1929 35.1409 21.4686 32.9093 19.9579 29.8405C18.4497 26.7742 16.5771 29.6431 18.4296 30.3853C20.2847 31.13 21.6797 34.1563 21.9663 35.6332C22.2478 37.1101 17.7258 35.1734 15.6697 33.3241C13.6161 31.4749 14.1741 31.9172 8.63412 30.3353C3.1042 28.726 0.562946 26.5068 0.0275486 27.424C-0.510362 28.3436 6.95755 30.3053 11.193 32.2795C15.4259 34.2487 20.7723 36.4879 20.722 36.9477C20.6692 37.405 17.9068 37.0476 15.2273 36.3254C12.5478 35.6032 10.7581 34.4637 12.4297 35.6657C14.1012 36.8652 19.4426 37.45 20.5033 37.8448C21.5641 38.2421 21.084 38.9169 18.1205 38.9793C15.1569 39.0393 10.6651 37.1901 12.4824 38.7769C14.2973 40.3638 18.7941 39.4092 20.2796 40.0339C21.7652 40.6587 22.0165 41.8132 22.0165 41.8132H22.0115C21.7853 42.6529 21.7828 43.9124 20.7321 43.8449C19.6814 43.7774 19.7166 44.0098 18.9349 44.4622C18.1556 44.9145 16.0543 45.2668 15.0212 45.3718C13.9856 45.4742 12.7338 45.8441 14.0358 45.8791C15.3354 45.9166 19.6814 44.5646 20.712 44.8495C21.7426 45.1319 22.4891 46.6888 22.5746 47.7233C22.6575 48.7579 23.7358 48.2506 24.1958 48.8779C24.6583 49.5076 25.332 49.7525 24.8066 50.2773C24.2813 50.8046 23.5725 49.94 23.7987 50.4972C23.9269 50.8121 24.1983 50.8596 24.3894 50.947C24.2386 51.0845 24.0827 51.2169 23.9244 51.3444C23.6931 51.5268 23.4769 51.6868 23.2859 51.8267C23.0471 51.7817 22.7907 51.7017 22.5268 51.5918C21.5314 51.172 21.5188 52.3315 22.293 52.324C22.3986 52.324 22.5017 52.3365 22.5972 52.364C22.4715 52.5014 22.5494 52.5539 22.9365 52.5214C23.3236 52.7988 23.4619 53.3311 22.9642 53.8859C22.2428 54.6906 19.5607 54.3857 17.0597 53.626C14.5587 52.8663 12.7187 53.7159 14.5185 53.9483C15.1066 54.0258 16.0191 54.1033 17.027 54.1932C16.6852 54.4232 16.5218 54.9904 16.7983 55.4802C16.7983 55.4802 17.6177 56.6223 18.1531 55.9475C18.6533 55.3228 18.4095 54.6606 17.8163 54.2657C19.6814 54.4406 21.6546 54.6656 22.3936 55.0079C23.6529 55.5902 24.1657 57.5969 22.6525 58.459C21.1418 59.3237 20.0459 60.4832 21.5364 60.9505C23.032 61.4203 22.469 59.7835 23.6328 58.6565C24.7941 57.5294 25.0856 57.6019 25.0253 59.1513C24.9625 60.6981 28.0944 60.5257 28.9063 59.2937C29.0571 59.0663 29.2331 58.9563 29.4166 58.9438C29.399 59.7335 29.781 60.2683 29.9671 60.7856C30.1254 61.2329 30.3466 61.9027 30.6859 62.5274C30.6809 62.5474 30.6784 62.5674 30.6734 62.5874C30.0927 64.8865 24.5653 66.7182 25.807 66.8982C27.0513 67.0756 25.5582 69.9244 25.5205 70.8516C25.4853 71.7787 26.5511 73.8429 26.4681 71.8237C26.3827 69.807 30.1128 66.8707 30.3441 67.5454C30.5753 68.2201 28.0517 69.9719 28.8284 70.1444C29.6026 70.3168 31.3219 68.6924 32.2947 68.1751C32.4932 68.0702 32.8326 67.9677 33.2548 67.8753C30.4346 69.3997 31.8422 69.822 31.89 70.8141C31.9402 71.8262 29.8439 72.301 30.422 73.0432C31.0001 73.7854 29.9243 75.5447 28.1346 77.2665C26.3475 78.9908 28.0592 80.9 28.6399 78.8459C29.218 76.7942 30.1531 75.1998 31.2993 73.8604C32.4455 72.5209 34.7957 70.7366 36.1656 69.792C37.0303 69.1947 37.7894 69.5196 38.4731 69.832C38.081 71.134 37.3922 72.7258 37.0931 73.7054C36.5602 75.4472 36.9875 74.8125 37.8145 75.7021C38.6415 76.5918 38.0508 78.2511 38.6893 79.0933C39.3302 79.9354 40.1622 76.3819 39.3227 74.7775C38.5208 73.2506 38.8426 71.3914 39.9913 70.1893C40.954 70.2268 42.2737 70.5417 42.8442 72.4459C43.4978 74.6326 42.9423 79.2857 41.1827 81.5873C39.4257 83.8888 39.3302 86.2029 38.3122 87.9747C37.2942 89.7465 37.6134 91.3933 36.9524 92.1131C36.2938 92.8328 36.7739 94.8619 34.7228 97.236C32.6742 99.6075 34.582 99.3102 34.6549 98.4755C34.7303 97.6383 35.9067 95.7366 37.2741 94.792C38.6415 93.8499 36.3617 93.7674 38.0382 92.158C39.7148 90.5487 40.6172 89.7765 40.2175 87.6798C39.8179 85.5857 41.3738 82.5494 43.9754 80.3428C46.5769 78.1337 49.6159 75.5822 52.6372 75.1349C52.9162 75.0924 53.1953 75.1498 53.4315 75.2848C53.2807 75.5322 53.1349 75.8246 52.959 76.1694C52.3683 77.324 51.9485 76.0495 51.667 76.9441C51.3855 77.8363 50.5585 78.7484 50.1186 78.9008C49.6812 79.0533 49.8371 80.1653 50.7747 78.7034C51.7122 77.239 52.8836 77.2465 53.1601 76.7792C53.3084 76.5318 53.6477 76.4044 54.0474 76.2194C54.075 76.4843 54.0197 76.7567 53.8739 76.9891C53.2857 77.9712 52.6372 78.9683 51.9108 79.818C49.8471 82.232 49.9477 88.3671 47.5271 92.3405C47.5271 92.3405 46.5794 93.2626 47.2078 93.9673C47.8337 94.6695 47.8513 93.8998 48.1756 92.4954C48.4998 91.0885 52.2149 87.6748 54.4646 83.3766C55.6611 81.085 56.0055 79.0583 56.3297 77.3015C57.4508 78.9383 58.3959 80.89 59.0369 83.2291H59.0394C59.5371 85.0509 60.173 86.7452 59.4893 87.7198C58.8031 88.6919 59.1299 89.2717 59.7004 90.4362C60.2685 91.6033 58.9941 91.1634 59.5396 91.9281C60.085 92.6903 60.3138 93.8973 60.1705 94.3372C60.0297 94.777 61.0126 95.3243 60.4093 93.6999C59.8035 92.0731 60.5174 91.1484 60.3113 90.6486C60.1077 90.1463 60.6481 89.3841 60.4772 88.2746C60.3087 87.1675 60.7662 85.978 60.3062 84.4486C59.8488 82.9192 60.5676 80.4552 61.4097 79.4881C61.9074 78.9158 62.4352 78.7884 62.8902 78.8209C62.5408 79.1507 62.1437 79.4556 61.6787 79.728C60.6682 80.3203 61.9778 81.0375 62.6087 79.8055C62.7897 79.4531 62.9832 79.1333 63.1768 78.8609C63.3753 78.9033 63.5538 78.9683 63.6996 79.0283C64.2199 79.2382 65.1298 78.7834 65.6753 79.5481C66.0171 80.0279 66.5023 80.7576 66.8969 81.4598C66.3967 81.4523 65.9015 81.1424 65.5647 80.4277C64.8533 78.9133 63.599 78.8134 63.0285 80.0879C62.4579 81.3599 65.1348 82.4394 65.3586 83.5215C65.5823 84.6036 64.8232 86.003 63.8479 86.9001C62.8726 87.7948 63.3854 88.7744 63.9685 88.1646C64.5542 87.5524 64.5341 85.8231 66.2961 84.3637C66.9949 83.7864 67.3971 83.4665 67.651 83.2391C67.8495 83.9863 67.9275 84.791 67.8219 85.6931C67.6862 86.8527 69.051 86.2479 68.4478 85.0034C68.0808 84.2462 67.8621 83.539 67.8546 83.0442C68.0582 82.8243 68.1084 82.6668 68.2492 82.2895C68.5056 81.5948 69.8403 80.6826 70.4763 78.7759C71.4365 79.4081 72.2106 80.1878 72.4746 80.8201C73.0125 82.0946 72.3816 83.394 70.7352 83.0417C69.0913 82.6893 68.2542 83.6215 68.9279 84.846C69.6015 86.068 72.085 84.6011 73.0879 85.0784C74.0908 85.5557 74.7519 87.0026 74.8801 88.3171C75.0058 89.629 76.1017 89.819 75.966 88.9843C75.8302 88.1521 74.4327 87.1201 74.3296 84.8435C74.2265 82.5644 74.307 82.7543 73.847 82.0421C73.387 81.3299 73.5554 79.3182 71.7984 77.4289C71.6199 77.2365 71.5043 77.0566 71.4415 76.8867C72.1629 76.6892 73.3267 77.1715 74.7117 77.4314C74.777 77.4989 74.8474 77.5639 74.9228 77.6239C75.8403 78.3286 76.6421 78.7259 76.7603 79.4056C76.8784 80.0854 76.7603 81.2624 77.0192 81.5373C77.2781 81.8122 76.989 82.5044 77.2504 83.0917C77.5118 83.6789 77.2253 83.9413 77.4741 84.3587C77.7255 84.7735 77.8537 84.3362 77.361 82.8068C76.8683 81.2749 77.454 81.5623 77.1649 80.5977C76.8784 79.633 76.9438 79.5906 77.2479 78.8034C77.552 78.0137 78.1126 77.279 78.472 77.4539C78.472 77.4539 78.5927 77.3115 78.7711 77.1391C79.294 77.0466 79.7866 77.0016 80.2491 76.9966C80.6362 77.7713 80.8021 78.7484 81.0183 78.7859C81.2244 78.8234 80.5533 77.6688 80.4377 76.9966C82.4837 77.0066 83.8763 77.7038 84.3865 77.6713C84.5952 77.6588 84.9873 77.7438 85.4347 77.8738C84.1 81.3424 84.2382 81.6747 84.8641 83.3666C85.6106 85.3882 84.4594 89.2417 85.0652 91.3084C85.6735 93.3775 84.2835 96.6187 86.2491 98.5655C88.2147 100.515 86.6789 103.416 86.4552 105.233C86.229 107.05 88.3806 105.323 89.4163 103.881C90.4519 102.439 87.6115 101.767 87.8075 98.8603C88.0061 95.954 86.7694 94.0523 85.857 91.8132C84.942 89.5741 85.4297 88.6244 86.2969 85.3058C86.5784 84.2287 87.0887 81.6747 87.6391 78.6235C87.8201 78.6909 87.9307 78.7334 87.9307 78.7334C87.9307 78.7334 88.1896 77.9962 90.2357 78.3936C91.3291 78.606 91.8394 78.7084 92.4049 78.7334C92.1812 79.0408 91.9349 79.3557 91.6684 79.6705C90.0648 81.5673 91.9625 83.2916 92.332 81.1899C92.4879 80.2978 92.7191 79.4856 93.0082 78.7309C93.3752 78.7159 93.8176 78.6809 94.4435 78.626C96.6026 78.4385 97.4472 79.3407 98.9503 81.5598C100.451 83.7764 100.348 82.9742 101.389 83.6339C102.429 84.2937 102.96 84.751 101.894 83.2566C100.825 81.7622 99.3324 80.9 97.9097 79.6306C97.0375 78.8534 98.2742 78.1536 99.7949 78.0012C101.296 78.7984 102.283 80.5902 103.231 81.5048C104.174 82.4169 104.4 81.2749 104.262 79.9329C104.737 80.4527 105.177 81.0425 105.571 81.6847C105.43 82.0346 105.272 82.3595 105.091 82.6543C103.575 85.1208 103.716 87.4324 102.884 89.2992C102.05 91.1634 102.535 92.7703 101.952 93.5525C101.368 94.3347 102.055 96.3064 100.252 98.8728C98.4552 101.437 100.323 100.952 100.313 100.112C100.305 99.2727 101.28 97.261 102.545 96.1839C103.809 95.1094 101.532 95.2568 103.037 93.4875C104.541 91.7182 105.36 90.8586 104.749 88.8144C104.282 87.255 104.898 85.0359 106.265 82.9792C106.504 83.4915 106.715 84.0263 106.886 84.5736C107.705 87.18 108.153 86.3154 109.271 87.7198C110.392 89.1217 112.265 91.2884 112.265 91.2884C111.327 89.9614 109.915 88.0847 109.502 87.1301C109.09 86.1729 109.605 85.1908 108.706 84.5811C108.198 84.2362 107.416 83.3915 106.662 82.4144C106.989 81.9746 107.348 81.5448 107.74 81.1374C107.997 80.8701 108.258 80.6002 108.525 80.3278C110.045 81.5448 109.46 82.1021 110.586 84.3837C111.762 86.7627 112.37 87.7773 112.272 86.6702C112.164 85.4932 110.397 82.0921 109.093 79.753C109.927 78.9133 110.804 78.0862 111.712 77.354C113.306 77.0191 115.309 76.6218 117.332 75.9745C117.403 76.2494 117.375 76.5443 117.247 76.8067C116.762 77.8413 116.219 78.8983 115.58 79.818C113.773 82.4269 114.494 88.5195 112.491 92.7178C112.491 92.7178 111.642 93.7299 112.338 94.3696C113.034 95.0044 112.971 94.2372 113.152 92.8078C113.331 91.3758 116.681 87.6074 118.481 83.1042C119.439 80.7051 119.577 78.6534 119.718 76.8742C120.535 77.8388 121.291 78.9408 121.96 80.1978C121.538 80.99 121.07 81.5898 120.434 81.7647C119.283 82.0796 119.162 82.7318 118.856 83.9913C118.546 85.2508 117.845 84.1038 117.775 85.0384C117.707 85.9705 117.109 87.0476 116.716 87.295C116.327 87.5424 116.732 88.5895 117.31 86.9526C117.888 85.3158 119.029 85.0559 119.19 84.5386C119.353 84.0238 120.261 83.7764 120.839 82.8143C121.218 82.187 121.824 81.6997 122.375 81.0275C122.598 81.4998 122.812 81.9871 123.011 82.4994H123.013C123.694 84.2637 124.499 85.8855 123.915 86.9226C123.332 87.9572 123.714 88.502 124.401 89.6041C125.084 90.7086 123.772 90.3987 124.39 91.1035C125.009 91.8082 125.361 92.9852 125.263 93.4375C125.167 93.8898 126.203 94.3372 125.434 92.7778C124.667 91.2209 125.283 90.2288 125.026 89.7515C124.773 89.2742 125.233 88.4595 124.951 87.3725C124.67 86.2879 125.006 85.0609 124.39 83.584C123.78 82.1071 124.245 79.5831 124.986 78.536C125.728 77.4889 126.68 77.6913 127.218 77.8488C127.759 78.0062 128.616 77.4639 129.237 78.1661C129.563 78.5385 130.008 79.0758 130.418 79.6281C130.335 80.5827 130.144 82.0321 129.842 82.8743C129.513 83.7939 128.998 84.6685 128.153 85.4732C127.306 86.2804 128.747 86.6802 129.078 85.3383C129.413 83.9963 129.968 83.0067 130.501 83.1191C131.036 83.2291 130.662 82.0396 131.177 81.8122C131.323 81.7472 131.476 81.7522 131.622 81.7497C131.871 82.4419 132.012 83.2041 131.999 84.0638C131.982 85.2308 133.279 84.4936 132.55 83.3141C132.193 82.7368 131.936 82.182 131.821 81.7297C132.092 81.6697 132.283 81.4173 132.228 80.2878C132.173 79.1507 132.796 79.1682 133.45 79.4481C133.824 79.9229 134.138 80.5027 134.385 81.1125C132.886 81.0475 132.258 82.0121 133.012 83.1042C133.399 83.6639 134.151 83.544 134.94 83.3191C134.993 83.8464 134.97 84.3162 134.865 84.6635C134.462 85.9855 133.143 86.5878 132.1 85.2733C131.059 83.9613 129.815 84.1487 129.551 85.5182C129.29 86.8876 132.142 87.33 132.607 88.3321C133.075 89.3342 132.658 90.871 131.911 91.9631C131.167 93.0552 131.891 93.8923 132.318 93.1651C132.748 92.4379 132.331 90.7586 133.711 88.9368C135.091 87.1151 135.031 87.3125 135.134 86.4728C135.217 85.7831 136.187 84.686 136.453 82.8967C136.725 82.8518 136.971 82.8468 137.172 82.9167C138.218 83.2891 139.025 84.6635 139.284 85.9605C139.542 87.2525 140.651 87.33 140.43 86.5153C140.211 85.7006 138.716 84.816 138.381 82.5594C138.147 80.985 138.125 80.5977 137.954 80.2828C138.605 80.2478 139.424 80.3153 140.312 80.2778C140.392 80.3303 140.475 80.3778 140.56 80.4177C141.616 80.895 142.486 81.1 142.757 81.7347C143.029 82.3695 143.182 83.544 143.499 83.7514C143.816 83.9588 143.692 84.6985 144.08 85.2133C144.467 85.7281 144.25 86.048 144.59 86.3953C144.929 86.7427 144.954 86.2879 144.125 84.9084C143.293 83.529 143.929 83.6739 143.428 82.8018C142.928 81.9296 142.984 81.8722 143.097 81.035C143.212 80.1953 143.587 79.3532 143.979 79.4431C143.979 79.4431 144.062 79.2757 144.198 79.0683C144.685 78.8584 145.155 78.7059 145.603 78.5935C146.158 79.2607 146.543 80.1728 146.762 80.1603C146.97 80.1503 146.053 79.1782 145.786 78.5485C147.782 78.0937 149.295 78.456 149.785 78.3111C149.881 78.2836 150.024 78.2661 150.198 78.2611C149.881 78.8059 149.476 79.3906 149.006 79.9804C147.458 81.9221 149.406 83.5915 149.713 81.4823C149.886 80.2878 150.195 79.2282 150.602 78.2636C150.683 78.2636 150.766 78.2686 150.851 78.2736C150.346 81.9546 150.56 82.2445 151.555 83.7514C152.746 85.5507 152.51 89.5641 153.573 91.4383C154.642 93.3151 154.031 96.7862 156.394 98.2331C157.025 98.6204 157.424 99.1327 157.681 99.7075C157.057 100.935 157.623 101.027 157.985 100.705C158.244 102.082 158.01 103.613 158.126 104.678C158.324 106.5 160.023 104.328 160.699 102.691C161.268 101.317 159.304 101.087 158.377 99.3501C158.679 98.3705 159.428 97.0161 160.35 96.1814C161.584 95.0694 159.312 95.2818 160.765 93.47C162.218 91.6582 163.012 90.7761 162.341 88.7494C161.67 86.7227 162.818 83.514 165.111 80.9925C165.45 80.6202 165.8 80.2378 166.154 79.853C166.79 80.2478 166.906 79.9754 167.707 80.2553C168.871 80.6601 169.492 80.9875 168.112 79.7755C167.758 79.4656 167.386 79.2007 166.999 78.9658C167.956 77.9787 168.967 77.0341 170.02 76.2669C171.111 77.0841 172.124 78.1636 172.941 79.4007C172.931 79.4156 172.921 79.4331 172.911 79.4481C171.179 82.1071 172.076 88.1771 170.193 92.4304C170.193 92.4304 169.374 93.4675 170.088 94.0848C170.802 94.6995 170.716 93.9348 170.857 92.5004C170.995 91.066 174.235 87.2 175.904 82.6493C175.955 82.5144 176 82.3794 176.045 82.247C176.13 82.3045 176.218 82.3695 176.314 82.4444C177.727 83.5565 180.047 85.2408 180.047 85.2408C178.83 84.1612 177.023 82.6543 176.402 81.8197C176.344 81.7397 176.294 81.6597 176.251 81.5773C176.528 80.6077 176.688 79.698 176.784 78.8459C176.799 78.8634 176.814 78.8834 176.829 78.9008C178.521 80.95 179.348 81.7997 178.996 80.7451C178.787 80.1228 177.925 78.9508 176.887 77.6888C176.917 77.239 176.937 76.8067 176.96 76.3894C178.285 77.8688 179.476 79.683 180.416 81.9196H180.419C181.15 83.6614 182 85.2608 181.449 86.3154C180.896 87.3674 181.296 87.8997 182.012 88.9818C182.726 90.0664 181.407 89.794 182.045 90.4812C182.686 91.1684 183.068 92.333 182.983 92.7878C182.9 93.2426 183.948 93.6599 183.136 92.123C182.324 90.5887 182.91 89.5791 182.641 89.1093C182.374 88.6394 182.809 87.8123 182.497 86.7327C182.186 85.6581 182.485 84.4186 181.829 82.9617C181.175 81.5023 181.567 78.9683 182.279 77.9013C182.99 76.8342 183.948 77.0066 184.491 77.149C185.034 77.2915 185.878 76.7242 186.517 77.4089C187.155 78.0937 188.231 79.3607 188.683 80.2278C189.136 81.095 189.427 82.0646 189.445 83.2291C189.46 84.3961 190.737 83.6215 189.975 82.4644C189.216 81.3049 188.864 80.2278 189.312 79.9179C189.757 79.6031 188.626 79.0658 188.809 78.536C188.993 78.0062 189.895 77.9862 188.404 76.7317C187.53 75.997 187.967 75.5547 188.621 75.2723C190.523 75.4297 192.808 76.7392 193.422 77.7963C194.12 78.9908 193.665 80.3603 191.986 80.2228C190.31 80.0854 189.601 81.1175 190.43 82.2445C191.257 83.369 193.53 81.5973 194.585 81.9396C195.641 82.282 196.486 83.6339 196.782 84.9209C197.079 86.2054 198.187 86.2529 197.946 85.4432C197.705 84.6335 196.184 83.7939 195.784 81.5473C195.385 79.3007 195.488 79.4806 194.94 78.8334C194.392 78.1861 194.296 76.1694 192.308 74.5226C190.933 73.3856 192.517 72.4659 193.909 70.8441C194.002 70.8216 194.093 70.7941 194.181 70.7566C195.251 70.3143 195.995 69.822 196.649 70.0544C197.3 70.2893 198.27 70.979 198.637 70.8916C199.007 70.8041 199.467 71.3964 200.108 71.4638C200.751 71.5313 200.837 71.9086 201.324 71.8987C201.812 71.8887 201.495 71.5613 199.912 71.2239C198.331 70.8891 198.871 70.5242 197.886 70.2943C196.9 70.0644 196.898 69.9844 196.36 69.3322C195.822 68.6774 195.458 67.8278 195.792 67.6054C195.792 67.6054 195.727 67.4304 195.666 67.1905C195.845 66.6932 196.051 66.2459 196.274 65.8436C197.144 65.8936 198.079 66.2359 198.217 66.0685C198.353 65.9111 197.011 65.9136 196.367 65.6786C197.393 63.9169 198.693 63.0647 198.919 62.6074C199.012 62.4224 199.281 62.1276 199.615 61.8027C201.98 64.679 202.337 64.7215 204.127 65.0239C206.264 65.3838 209.054 68.2926 211.16 68.7949C213.269 69.2972 215.408 72.1061 218.082 71.3764C220.759 70.6492 222.532 73.4155 224.005 74.5101C225.48 75.6072 225.04 72.8933 224.296 71.2839L224.311 71.2689Z" fill="#080808"/>
</svg>
