<svg width="108" height="17" viewBox="0 0 108 17" fill="none" xmlns="http://www.w3.org/2000/svg">
<path d="M8.55951 0L10.5801 6.21885H17.119L11.8289 10.0623L13.8496 16.2812L8.55951 12.4377L3.26944 16.2812L5.29007 10.0623L0 6.21885H6.53888L8.55951 0Z" fill="#91B600"/>
<path d="M26.6785 0L28.6992 6.21885H35.238L29.948 10.0623L31.9686 16.2812L26.6785 12.4377L21.3885 16.2812L23.4091 10.0623L18.119 6.21885H24.6579L26.6785 0Z" fill="#91B600"/>
<path d="M44.7975 0L46.8182 6.21885H53.3571L48.067 10.0623L50.0876 16.2812L44.7975 12.4377L39.5075 16.2812L41.5281 10.0623L36.238 6.21885H42.7769L44.7975 0Z" fill="#91B600"/>
<path d="M62.9166 0L64.9372 6.21885H71.4761L66.186 10.0623L68.2066 16.2812L62.9166 12.4377L57.6265 16.2812L59.6471 10.0623L54.3571 6.21885H60.8959L62.9166 0Z" fill="#91B600"/>
<path d="M81.0356 0L83.0562 6.21885H89.5951L84.305 10.0623L86.3257 16.2812L81.0356 12.4377L75.7455 16.2812L77.7661 10.0623L72.4761 6.21885H79.015L81.0356 0Z" fill="#91B600"/>
<path d="M99.1546 0L101.175 6.21885H107.714L102.424 10.0623L104.445 16.2812L99.1546 12.4377L93.8645 16.2812L95.8852 10.0623L90.5951 6.21885H97.134L99.1546 0Z" fill="#91B600"/>
</svg>
