<svg width="434" height="380" viewBox="0 0 434 380" fill="none" xmlns="http://www.w3.org/2000/svg">
<g clip-path="url(#clip0_329_265)">
<path d="M379.268 10.8389C382.516 10.8849 385.591 10.9195 385.591 10.9195C385.591 10.9886 385.522 11.0692 385.488 11.1383C383.219 11.0232 381.191 10.931 379.279 10.8389H379.268Z" fill="#1D1D1B"/>
<path d="M373.116 8.05131C373.773 8.05131 374.441 8.06283 375.109 8.07435C374.879 8.13194 374.844 8.18953 374.717 8.24713C374.21 8.17802 373.715 8.12042 373.116 8.03979V8.05131Z" fill="#1D1D1B"/>
<path d="M385.475 11.1499C384.98 11.9677 382.342 12.751 385.544 13.6264C389.034 13.684 396.003 13.7876 399.516 13.8337C403.006 14.3405 399.504 14.7321 399.493 15.1813C402.983 15.2389 406.472 15.285 406.472 15.5154C408.753 16.1374 404.964 16.4714 398.191 16.5175C383.194 13.73 344.874 12.3939 385.464 11.1499H385.475Z" fill="#1D1D1B"/>
<path d="M357.625 8.99585C363.752 9.06496 369.88 9.14559 376.019 9.2147C377.919 9.75607 380.511 10.3089 378.645 10.8042C369.131 10.3089 363.326 9.79062 357.625 8.99585Z" fill="#1D1D1B"/>
<path d="M417.185 40.0497C417.323 40.0497 417.392 39.7271 417.151 36.5826C417.162 37.8036 417.174 38.9093 417.185 40.0497C417.058 40.0957 416.863 39.8999 416.805 41.4664C416.851 35.4077 416.955 28.8422 416.69 22.0809C416.644 20.3877 416.598 18.683 416.552 16.9783C416.506 15.2735 416.471 13.5112 416.333 11.9447C416.195 10.3667 415.964 8.88082 415.55 7.62531C415.342 7.00331 415.077 6.43891 414.778 5.94362C414.628 5.69022 414.467 5.47137 414.294 5.25252L414.029 4.94152C413.949 4.87241 413.891 4.82633 413.822 4.75722C413.373 4.0546 412.278 3.40957 411.265 3.22527C411.956 3.21376 412.682 3.35198 413.304 3.62842C413.615 3.75512 413.891 3.9279 414.144 4.11219C414.283 4.19282 414.363 4.30801 414.478 4.40015C414.594 4.4923 414.72 4.6766 414.847 4.8033C415.826 5.96666 416.413 7.60227 416.759 9.44522C417.093 11.2997 417.22 13.3154 417.289 15.4463C417.369 17.5542 417.45 19.6736 417.519 21.7699C417.68 25.9741 417.853 30.1553 417.83 34.302C417.83 38.4486 417.911 42.5607 417.842 46.6382C417.634 62.9022 416.644 78.406 415.342 92.3202C415.837 82.4605 416.333 74.1326 416.644 65.9085C416.724 63.8467 416.817 61.7964 416.897 59.7346C416.943 57.6728 416.989 55.588 417.035 53.4571C417.116 49.2068 417.254 44.8068 417.151 40.0612L417.185 40.0497Z" fill="#1D1D1B"/>
<path d="M409.179 2.29206C408.385 2.69521 407.843 3.28265 407.578 4.07742C407.866 2.99468 408.454 2.59154 408.742 2.39573C409.076 2.22295 409.145 2.23447 409.191 2.30358L409.179 2.29206Z" fill="#1D1D1B"/>
<path d="M181.409 361.736C160.297 361.356 141.776 360.365 123.07 359.317C162.808 360.561 203.593 361.183 233.92 362.104C216.494 361.978 198.998 361.862 181.409 361.736Z" fill="#1D1D1B"/>
<path d="M30.0046 354.456C56.1277 354.698 77.6434 355.735 98.1802 356.852C77.2749 356.288 56.5078 355.62 35.8443 354.952C33.9093 354.79 31.8706 354.618 30.0046 354.456Z" fill="#1D1D1B"/>
<path d="M58.9494 356.564C82.861 357.071 103.075 358.234 123.059 359.328C100.576 358.637 78.5878 357.727 58.9494 356.564Z" fill="#1D1D1B"/>
<path d="M424.373 251.459C424.338 249.535 424.315 247.715 424.28 245.976C424.303 244.237 424.326 242.578 424.338 241.023C424.361 237.901 424.384 235.114 424.407 232.649C424.511 227.708 424.58 224.045 424.637 221.384C424.96 219.023 425.294 215.924 425.904 211.697C425.881 212.595 425.87 213.563 425.847 214.45C425.271 230.38 425.306 246.483 426.146 262.701C426.411 269.416 426.676 275.82 426.895 281.188C425.789 271.155 424.845 261.284 424.384 251.459H424.373Z" fill="#1D1D1B"/>
<path d="M424.636 221.384C421.953 241.518 424.913 200.582 424.636 221.384Z" fill="#1D1D1B"/>
<path d="M417.265 322.977C417.3 323.76 417.335 324.566 417.381 325.372C417.461 327.676 417.438 330.037 417.45 332.33C417.438 330.74 417.427 329.185 417.415 327.642C417.369 326.098 417.323 324.555 417.277 322.988L417.265 322.977Z" fill="#1D1D1B"/>
<path d="M266.712 372.69C280.534 372.794 294.39 372.897 308.004 372.989C279.935 372.943 251.623 372.725 228.184 371.976C231.674 371.976 235.187 371.768 238.689 371.78C245.692 372.229 256.173 372.69 266.712 372.678V372.69Z" fill="#1D1D1B"/>
<path d="M412.613 214.012C412.486 218.769 412.451 223.515 412.371 228.249C412.313 230.622 412.348 232.983 412.371 235.344C412.394 237.705 412.417 240.067 412.44 242.416C412.417 247.128 412.739 251.827 412.889 256.515C413.039 261.203 413.327 265.868 413.661 270.521C414.997 289.112 416.99 307.403 417.37 325.384C417.761 334.495 417.738 343.56 417.024 352.521C416.955 353.707 416.84 354.594 416.748 355.573L416.437 358.453C416.218 360.365 415.884 362.254 415.619 364.155L415.561 364.512C415.55 364.627 415.561 364.777 415.389 364.731H414.663L413.223 364.754L410.344 364.788C408.42 364.811 406.497 364.834 404.585 364.857C386.628 365.088 368.913 365.203 351.498 365.203C316.679 365.226 283.08 364.788 251.302 363.867C223.325 362.968 184.866 362.45 146.418 361.402C107.971 360.377 69.5351 358.822 41.6153 356.322C47.6277 356.368 53.3983 356.46 58.9385 356.587C50.7491 356.092 43.0205 355.55 35.8332 354.963C31.7789 354.825 27.736 354.675 23.6931 354.537C22.668 354.479 21.6429 354.41 20.6293 354.352L20.5718 352.417L20.5372 351.484L20.4911 350.597L20.3759 348.651C20.0534 343.456 19.8461 338.261 19.6158 333.078C19.0975 322.7 18.7865 312.322 18.4179 301.944C17.8535 281.187 17.5195 260.431 17.5656 239.617C17.6577 218.804 17.9687 197.921 18.6713 176.934C19.42 155.948 20.399 134.834 21.7927 113.571C22.7372 99.6803 24.1654 89.3252 25.3633 75.4801C26.5957 61.4506 27.9779 47.6746 29.5213 33.9677C29.5789 33.9216 29.6135 34.1059 29.6135 34.486C30.1087 30.3163 30.5234 25.4325 31.0993 22.7487C31.249 22.0346 31.4103 21.4241 31.5715 20.9519C31.6291 20.7676 31.6637 20.733 31.7213 20.6178C31.8134 20.422 31.9862 20.2953 32.1474 20.1686C32.2741 20.0995 32.4123 20.0534 32.5506 20.0304C32.6081 20.0189 32.7118 20.0189 32.7464 20.0074L33.2877 19.9613L34.0594 19.9152C35.1191 19.8576 36.6395 19.8461 38.1829 19.8116L42.7441 19.7309C48.8371 19.6388 54.9187 19.5351 61.0117 19.443C73.1979 19.3047 85.4071 19.1665 97.6853 19.0168C122.23 18.8094 147.006 18.7173 172.311 18.7979C200.265 18.6597 228.243 18.533 256.163 18.3948C266.644 18.3948 266.644 17.4848 273.636 17.2775C301.578 16.2063 322.553 15.423 353.997 15.2963C353.997 15.2963 353.997 14.8471 353.997 14.6167C358.823 14.7319 363.143 14.778 366.69 14.755C351.694 12.0481 313.373 10.7926 353.963 9.43346C351.717 9.31827 349.689 9.22613 347.754 9.1455C347.513 9.1455 347.305 9.1455 347.075 9.1455C347.098 9.1455 347.098 9.13398 347.121 9.12246C337.595 8.63869 331.813 8.16643 326.1 7.3947C332.217 7.44077 338.356 7.49836 344.495 7.54444C343.343 7.22192 342.594 6.88789 343.216 6.58841C342.686 6.5193 342.191 6.46171 341.604 6.3926C338.885 6.36956 336.593 6.34652 336.593 6.34652C335.707 6.16223 335.05 5.98945 334.601 5.81668C318.556 4.71091 293.262 4.08891 298.123 3.17896C301.866 2.71822 313.603 3.17896 326.918 3.57058C327.724 3.48995 328.646 3.42084 329.59 3.36325C312.094 3.00618 329.602 1.78523 319.109 1.48575C305.114 1.3936 291.132 1.09412 277.137 1.07109C220.146 0.97894 172.115 1.07109 116.114 1.2669C113.638 1.27842 111.196 1.28994 108.743 1.30146C95.1628 1.3936 81.9747 1.54334 68.8556 1.79675C62.2903 1.94649 55.748 2.08471 49.1942 2.23445C45.9115 2.3266 42.6289 2.40722 39.3347 2.49937C37.6646 2.54545 36.006 2.60304 34.3359 2.64911C33.4605 2.68367 32.5621 2.74126 31.6406 2.83341C30.7652 2.91403 29.6135 3.06377 28.5999 3.28262C30.8804 2.98314 32.7809 3.05226 34.6814 3.10985C32.827 3.19048 30.915 3.28262 28.6344 3.75488C26.4575 4.2041 24.3382 4.97583 22.4953 6.21982C21.3665 7.01459 20.3068 7.92455 19.4199 8.98424C18.5331 10.0555 17.7729 11.2188 17.1509 12.4513C16.5519 13.6838 16.0221 15.0314 15.6535 16.2869C15.2965 17.4963 15.0085 18.7058 14.7897 19.8922C14.3405 22.265 14.0871 24.6032 13.8567 26.7917L13.1311 33.4494L11.6337 46.7762L10.194 60.103C4.43491 112.374 0.726115 164.944 0.0695845 221.096C-0.218368 245.354 -0.0225799 269.254 0.553324 293.19L0.760641 302.162C0.864304 305.157 0.95646 308.152 1.06012 311.147C1.25593 317.136 1.42871 323.138 1.71666 329.15C1.9931 335.163 2.2004 341.198 2.52291 347.246C2.97211 355.366 3.43284 363.51 3.89356 371.688C15.8839 372.125 28.3349 372.575 40.9012 373.024C35.7871 372.793 30.6731 372.552 25.5591 372.321C18.4179 372.033 11.2767 371.757 4.11241 371.469C3.64017 362.381 3.16794 353.258 2.68418 344.09C2.37319 336.937 2.07373 329.738 1.76274 322.481C1.27898 311.251 0.772157 300.066 0.541795 289.181C0.956446 300.446 1.35961 311.515 1.76274 322.481C2.15436 329.657 2.54596 336.856 2.93758 344.032C3.51348 353.051 4.08937 362.035 4.65376 370.904C13.6379 371.181 22.5183 371.446 31.226 371.711C38.1138 371.976 44.8749 372.241 51.4287 372.494C64.5478 373.093 76.8722 373.749 87.9641 374.694C91.5692 374.567 91.5692 374.348 95.0592 374.406C119.581 374.878 144.08 374.947 165.078 376.088C165.078 376.318 175.605 376.41 172.092 376.825C193.101 377.274 217.635 377.366 238.644 377.873C247.743 378.023 256.808 378.46 265.907 378.99C303.513 379.532 340.901 379.843 379.038 379.889C383.806 379.889 388.586 379.889 393.378 379.9C395.773 379.9 398.169 379.9 400.576 379.889C403.767 379.866 406.957 379.854 410.159 379.831L417.013 379.762L423.797 379.578L427.206 379.486L428.058 379.463H428.485C428.623 379.451 428.807 379.486 428.773 379.29L429.026 377.608C429.372 375.362 429.717 373.116 430.063 370.87C430.8 366.366 431.295 361.805 431.917 357.232C432.297 354.502 432.297 353.742 432.424 352.337L432.735 348.432C434.059 327.572 432.24 307.023 430.443 286.866C429.533 276.834 428.427 266.294 427.897 255.801C427.609 250.548 427.252 245.296 427.195 240.078C427.126 237.475 427.056 234.895 426.987 232.338C426.895 229.792 426.964 227.247 426.941 224.77C426.895 226.602 426.849 228.433 426.803 230.276C426.803 232.107 426.803 233.939 426.803 235.782C426.826 239.456 426.803 243.154 426.872 246.84C427.137 254.211 427.31 261.618 427.874 269.128C428.899 284.159 430.558 299.744 431.376 315.869C431.952 323.679 432.32 331.511 432.228 339.309C432.251 341.244 432.147 343.203 432.09 345.138C432.055 346.105 432.021 347.073 431.986 348.04C431.917 349.008 431.859 349.975 431.79 350.931C431.721 351.899 431.652 352.855 431.595 353.811L431.548 354.525L431.525 354.882L431.456 355.493L431.157 357.958C430.742 361.229 430.362 364.489 429.924 367.702C429.441 370.904 428.968 374.083 428.485 377.24L428.3 378.414L428.254 378.714L428.231 378.864C428.231 378.864 428.139 378.875 428.105 378.887H427.506L425.133 378.967C423.555 379.013 421.988 379.059 420.422 379.094C417.312 379.198 414.168 379.209 411.058 379.232C409.514 379.232 407.971 379.255 406.439 379.255C405.414 379.255 404.389 379.255 403.364 379.255C396.775 379.209 390.452 379.106 384.451 378.898C378.865 378.771 373.302 378.656 367.715 378.53C376.17 378.53 384.601 378.53 393.02 378.53C397.363 378.53 401.694 378.507 406.013 378.495C409.779 378.46 413.534 378.414 417.301 378.38L422.887 378.23L425.686 378.161C426.527 378.034 427.909 378.518 427.701 377.193C428.266 373.508 428.83 369.822 429.395 366.147C429.878 362.427 430.351 358.706 430.834 354.997C431.019 352.763 431.203 350.54 431.387 348.305C431.491 346.105 431.606 343.917 431.71 341.717C432.009 332.963 431.813 324.335 431.387 315.869C430.028 297.417 427.425 279.172 426.089 261.664C426.1 262.021 426.112 262.343 426.123 262.723C426.895 276.499 428.358 290.656 429.406 305.238C430.708 318.922 431.514 332.698 430.892 346.071C430.846 347.741 430.708 349.411 430.592 351.058C430.535 351.887 430.466 352.705 430.408 353.535L430.316 354.767L430.063 356.794C429.717 359.49 429.383 362.173 429.038 364.834C428.704 367.495 428.243 370.098 427.863 372.69C427.655 373.98 427.46 375.27 427.264 376.548L427.114 377.504C427.126 377.62 427.045 377.608 426.953 377.608H426.711L426.227 377.62L424.281 377.666C421.701 377.723 419.144 377.769 416.61 377.827C414.064 377.827 411.53 377.827 409.031 377.838C407.787 377.838 406.554 377.838 405.322 377.838C404.585 377.827 403.859 377.815 403.133 377.804C400.346 377.735 397.582 377.666 394.944 377.608C389.381 377.493 383.795 377.366 378.22 377.251C383.426 377.251 388.632 377.251 393.838 377.251C396.441 377.251 399.033 377.24 401.624 377.228C405.23 377.205 408.823 377.182 412.417 377.159C416.874 377.159 421.194 376.975 425.605 376.894L426.434 376.871L426.561 376.065L426.815 374.441L427.31 371.192C427.632 369.027 428.012 366.861 428.289 364.684L429.13 358.13L429.556 354.848L429.729 352.763C429.947 350.056 430.189 347.338 430.281 344.642C430.639 337.939 430.616 331.293 430.443 324.716C430.281 318.127 429.867 311.642 429.429 305.226C428.669 297.187 427.748 289.135 426.895 281.199C426.918 282.04 426.953 282.938 426.976 283.71C427.218 287.2 427.206 293.915 426.872 298.488C426.538 303.049 425.905 305.422 425.087 300.17C423.82 286.659 422.081 271.984 421.32 257.609C421.136 254.004 420.963 250.422 420.779 246.863C420.664 243.303 420.629 239.756 420.56 236.277C420.526 234.538 420.491 232.81 420.468 231.105C420.48 229.389 420.491 227.696 420.503 226.026C420.537 222.674 420.56 219.414 420.583 216.247C420.768 209.912 420.929 203.991 421.148 198.67C421.413 193.348 421.643 188.625 421.839 184.698C422.081 180.77 422.265 177.625 422.392 175.471C422.449 174.389 422.495 173.559 422.518 172.995C422.518 172.719 422.541 172.5 422.541 172.35C422.541 172.212 422.541 172.131 422.541 172.131C422.357 171.256 421.85 176.324 421.182 184.364C420.917 188.384 420.606 193.141 420.272 198.266C419.973 203.392 419.789 208.886 419.547 214.392C419.397 219.886 419.328 225.381 419.224 230.506C419.259 235.621 419.293 240.366 419.328 244.375C419.524 252.38 419.777 257.425 419.65 256.573C419.282 251.481 418.798 246.39 418.66 241.276C418.545 246.137 418.706 250.883 418.729 255.26C418.994 265.626 420.721 279.437 420.975 286.474C421.551 298.718 422.749 311.873 423.163 325.591C423.348 332.444 423.394 339.448 422.968 346.497C422.887 348.259 422.703 350.022 422.564 351.795L422.449 353.12C422.403 353.592 422.392 353.938 422.311 354.514L421.908 357.681C421.62 359.789 421.401 361.885 421.021 363.947L420.503 367.034L420.238 368.566L420.111 369.326L420.042 369.706C419.927 369.73 419.777 369.707 419.65 369.718C416.99 369.695 414.271 369.672 411.484 369.649C408.858 369.603 406.174 369.557 403.444 369.511C398.687 369.395 393.758 369.269 388.724 369.154C378.657 368.866 368.164 368.555 357.66 368.255C357.66 367.806 347.132 368.152 350.645 367.656C330.903 367.887 308.052 368.036 299.586 366.758C299.102 366.758 298.63 366.735 298.158 366.735C296.764 366.735 294.783 366.677 292.675 366.585C259.825 366.954 236.904 365.664 207.13 364.661C196.891 364.523 186.478 364.385 175.755 364.247C182.758 364.316 193.239 364.178 200.254 364.431C202.581 364.512 204.873 364.592 207.13 364.661C233.679 365.168 258.95 365.64 284.198 366.124C286.259 366.251 289.577 366.458 292.675 366.597C294.506 366.573 296.315 366.539 298.158 366.516C298.595 366.608 299.079 366.689 299.586 366.769C323.739 367.311 351.06 367.242 371.654 367.633C381.364 367.679 391.235 367.679 401.187 367.564C406.289 367.495 411.415 367.426 416.552 367.357C418.337 367.887 417.946 365.951 418.245 364.788L418.809 360.929C419.097 358.361 419.385 355.735 419.604 353.189C421.159 332.997 419.236 312.713 417.139 293.04C418.798 312.656 420.053 332.168 418.314 351.093C419.339 339.24 419.155 327.63 418.579 316.296C418.003 304.961 416.967 293.904 416.08 282.996C415.746 279.621 415.412 276.327 415.078 272.998C414.744 269.508 414.456 266.029 414.179 262.539L413.557 252.057C413.788 255.317 414.018 258.565 414.26 261.79C414.571 265.016 414.836 268.229 415.181 271.443C414.928 268.195 414.755 264.946 414.559 261.71C414.444 258.473 414.317 255.248 414.202 252.023C414.076 248.809 413.949 245.607 413.983 242.405C413.972 239.214 413.96 236.024 413.937 232.856C413.926 197.84 416.897 162.352 419.604 126.702C422.23 91.0645 424.603 55.0809 422.703 19.3969C422.484 20.8021 422.276 22.4147 422.081 24.2116C422.622 41.374 422.415 58.548 421.608 74.8926C420.768 91.2372 419.512 106.753 417.957 120.69C419.293 100.97 420.503 87.344 421.182 68.2695C421.056 68.281 420.871 68.0968 420.745 69.6863C421.505 57.4998 421.747 43.24 421.574 29.3718C421.056 33.8295 420.537 38.8054 420.019 43.7583C419.535 50.7615 419.454 61.2318 418.833 71.7135C416.84 117.027 412.256 159.611 410.586 204.44C410.102 224.402 410.424 244.398 411.979 264.244C413.569 284.067 416.31 303.602 417.266 322.988C416.586 303.717 414.375 285.196 413.212 267.1C412.117 248.982 411.979 231.359 412.613 214.024V214.012ZM279.521 9.85964C275.939 9.74446 272.23 9.62927 268.522 9.51409C269.097 9.4565 269.65 9.41042 270.18 9.36435C273.566 9.36435 276.918 9.59472 279.521 9.87116V9.85964ZM197.72 10.2513C221.724 9.7099 253.341 10.1246 283.887 10.5738C284.059 10.6314 284.163 10.7005 284.163 10.7466C258.535 10.8733 227.022 10.3664 197.72 10.2513ZM101.901 16.0796C102.085 16.0565 102.281 16.022 102.477 15.999C102.465 16.0335 102.431 16.0681 102.431 16.1026C102.27 16.1026 102.085 16.0911 101.912 16.0796H101.901ZM13.2923 354.283C12.9007 340.576 12.4515 325.176 11.9908 308.912C11.4955 292.337 11.2076 274.887 11.1845 257.436C11.1039 246.966 11.8986 236.519 12.0138 222.559C12.3709 205.108 13.0389 194.673 13.6609 180.724L13.8337 191.206C13.9373 185.101 14.1332 179.653 14.352 174.538C14.6284 169.424 14.951 164.644 15.2619 159.852C15.5729 155.072 15.8839 150.292 16.2179 145.178C16.5519 140.075 16.7593 134.639 17.0242 128.545C17.2546 128.557 17.9111 125.113 18.1184 121.634C19.3508 104.276 20.2953 86.8487 21.9309 73.0151C22.7717 64.3533 23.7162 55.7029 24.5685 47.4788C25.0638 43.3782 25.536 39.3813 25.9968 35.5457C26.2386 33.6337 26.4805 31.7561 26.7109 29.9247C26.9528 28.1163 27.1831 26.2388 27.4365 24.776C27.5287 24.0503 27.6899 23.221 27.9203 22.3456C28.1391 21.4932 28.4616 20.5372 28.7726 19.8807C29.2103 19.0974 29.8668 18.3717 30.7077 17.9916L30.9841 17.8765C31.249 17.7498 31.5139 17.6691 31.8019 17.6115C31.9401 17.5885 32.0783 17.5539 32.2281 17.5424L32.7924 17.4848C33.4835 17.4272 34.3128 17.3812 35.2573 17.3696L38.3672 17.3121C42.6289 17.2429 46.9021 17.1738 51.1638 17.1047C50.7837 17.1738 50.4381 17.2429 50.1156 17.3121C46.6487 17.3812 43.1472 17.4618 39.6342 17.5309C37.9525 17.5539 36.2594 17.5885 34.5778 17.6115C33.8521 17.6346 33.2071 17.6691 32.6542 17.7037C32.3432 17.7267 32.182 17.7382 31.9401 17.7728C31.5715 17.8304 31.1914 17.9225 30.8113 18.1414C30.2585 18.4639 29.7747 18.9592 29.4752 19.5812C29.3946 19.7309 29.314 19.8922 29.2564 20.0534C29.1527 20.2838 29.026 20.7445 28.9108 21.1131C28.6805 21.9309 28.4732 22.887 28.2889 23.9351C27.9318 25.9509 27.6323 28.7498 27.2983 31.3069C26.9758 33.8986 26.6533 36.5133 26.3308 39.1164C25.6743 44.3227 25.0523 49.5291 24.511 54.6432C23.9581 59.7574 23.4282 64.7795 22.9099 69.6057C17.865 121.6 14.7781 170.3 13.396 219.069C13.2578 224.286 13.0735 229.527 12.8777 234.757C12.6819 239.986 12.6012 245.215 12.5091 250.445C12.1405 266.144 12.4055 283.595 12.6704 299.732C12.8431 307.795 13.0274 315.535 13.108 322.573C13.2578 329.599 13.3154 335.935 13.1887 341.175C13.1541 342.926 13.2693 345.552 13.3499 348.167C13.373 348.824 13.3845 349.48 13.4075 350.125C13.4075 350.448 13.419 350.759 13.4305 351.081C13.4305 351.358 13.4305 351.623 13.4305 351.887C13.4305 352.774 13.3845 353.604 13.3154 354.295L13.2923 354.283ZM39.7609 371.93C34.9463 371.688 30.0626 371.446 25.1329 371.204C18.533 370.927 11.8641 370.651 5.17209 370.375C4.72288 361.621 4.26217 352.809 3.81296 344.009C3.51349 336.891 3.20249 329.795 2.90302 322.769C2.63811 315.743 2.38469 308.809 2.1313 302.013C1.91245 295.217 1.70514 288.559 1.49782 282.109C1.16379 268.068 1.0486 240.873 1.99308 218.965C2.45381 208.011 3.0297 198.382 3.67471 192.38C4.34276 186.379 4.9993 183.984 5.58672 187.508C3.55954 199.43 2.37318 230.794 2.82239 265.718C2.87998 270.084 2.94909 274.507 3.00668 278.953C3.12186 283.399 3.23703 287.868 3.35221 292.326C3.55954 301.253 3.96268 310.145 4.2967 318.761C4.65376 327.388 5.13753 335.727 5.49459 343.548C6.01291 352.579 6.49666 361.01 6.93435 368.555C10.5971 368.693 14.0641 368.831 17.3122 368.946C20.376 369.084 23.2209 369.211 25.847 369.338C30.3045 369.58 33.9558 369.833 36.651 370.098C42.0299 370.616 43.5503 371.215 39.7609 371.93ZM331.871 378.357C317.197 378.138 303.007 377.908 286.328 377.977C301.509 378.103 316.679 378.23 331.871 378.357ZM182.712 369.246C228.185 371.204 277.183 371.446 322.691 371.964C340.199 372.16 358.581 371.849 376.527 371.595C385.499 371.469 394.357 371.365 402.938 371.331C408.34 371.308 413.649 371.296 418.856 371.273H420.906H421.424C421.47 371.135 421.482 370.95 421.516 370.801L421.689 369.822C421.919 368.52 422.138 367.219 422.369 365.928C422.852 363.348 423.221 360.757 423.613 358.154L424.269 358.349L423.509 363.037C423.232 365.134 422.956 367.184 422.68 369.188C422.541 370.202 422.415 371.192 422.288 372.183C421.343 372.252 420.353 372.275 419.408 372.321C417.485 372.402 415.607 372.494 413.753 372.575C411.864 372.644 410.01 372.701 408.167 372.77C402.569 372.989 397.225 373.197 391.788 373.415C392.375 373.415 393.009 373.438 393.585 373.438C392.548 373.438 391.523 373.438 390.475 373.45C383.599 373.669 376.469 373.796 368.245 373.738C364.479 373.68 360.643 373.623 356.785 373.565C313.016 373.703 267.842 373.531 228.208 371.976C203.709 371.238 182.723 369.948 158.236 369.015C165.216 369.108 175.732 368.958 182.735 369.246H182.712Z" fill="#1D1D1B"/>
<path d="M415.93 278.435C415.342 270.902 414.709 263.346 414.49 255.743C414.363 251.942 414.11 248.141 414.075 244.329C414.029 240.516 413.983 236.692 413.937 232.856C413.971 226.947 414.179 221.05 414.317 215.176C414.616 209.301 414.835 203.427 415.204 197.575C415.976 183.58 417.024 169.021 418.129 154.082C419.27 139.142 420.445 123.834 421.504 108.365C422.518 92.8845 423.393 77.254 423.831 61.6811C424.188 46.1082 424.2 30.5929 423.531 15.4116C424.119 13.5802 424.787 13.3268 425.57 15.4922C427.655 48.5962 425.996 81.654 423.658 114.366C421.355 147.102 418.452 179.664 418.129 212.169C418.095 212.676 418.06 213.194 418.026 213.69C417.197 227.581 417.173 245.826 418.475 264.854C419.834 283.883 422.334 303.948 422.691 321.64C422.829 330.475 422.691 339.344 421.988 348.19L421.677 351.508L421.527 353.166L421.447 353.995L421.32 354.928C420.974 357.44 420.698 359.939 420.306 362.392L419.696 366.055L419.396 367.875L419.247 368.785C419.27 368.9 419.132 368.831 419.062 368.854H418.821H418.348H410.839L383.921 368.658C375.167 368.566 366.425 368.463 357.683 368.267C370.318 368.117 382.804 367.956 395.197 367.806C401.52 367.714 407.809 367.622 414.098 367.541L416.505 367.507L417.715 367.484C417.807 367.484 417.922 367.484 418.003 367.472L418.049 367.173L418.141 366.574L418.844 361.816C419.109 360.238 419.212 358.637 419.408 357.036C419.569 355.447 419.777 353.823 419.857 352.314C420.376 346.163 420.456 340.012 420.433 333.85C420.329 327.699 420.053 321.548 419.604 315.397C418.717 303.107 417.266 290.828 415.93 278.458V278.435Z" fill="#1D1D1B"/>
<path d="M98.1915 356.852C111.875 357.209 125.628 357.555 139.495 357.912C178.081 358.902 212.347 359.778 247.385 360.676C221.665 360.48 195.819 360.285 169.765 360.077C143.676 359.57 121.596 358.142 98.203 356.841L98.1915 356.852Z" fill="#1D1D1B"/>
<path d="M275.8 361.333C266.194 361.114 256.772 360.895 247.374 360.676C285.487 360.872 323.324 360.93 361.08 360.757H406.415L409.756 360.768C410.769 360.653 412.439 361.275 412.209 359.709C412.382 358.626 412.612 357.532 412.739 356.414L412.958 354.733L413.061 353.892C413.096 353.581 413.13 353.42 413.177 352.867C413.914 345.391 414.098 337.824 414.017 330.221C413.833 314.994 412.382 299.629 411.034 284.125C410.378 276.373 409.721 268.575 409.33 260.742L408.857 248.994C408.754 247.035 408.742 245.077 408.731 243.119L408.685 237.245C408.523 230.138 408.765 223.089 408.811 216.085C408.857 223.354 408.754 230.622 409.053 237.89C409.191 241.518 409.203 245.158 409.445 248.786C409.664 252.415 409.882 256.043 410.09 259.66C411.069 274.161 412.843 288.456 414.19 302.623C414.881 309.707 415.434 316.768 415.78 323.783C416.137 330.809 416.252 337.801 415.964 344.723C415.929 346.462 415.826 348.19 415.699 349.906L415.526 352.487C415.492 352.89 415.469 353.42 415.434 353.707L415.33 354.687L414.904 358.603L414.328 362.473L414.259 362.957L414.225 363.199H413.983L413.004 363.222L411.046 363.245L407.141 363.291C403.916 363.337 400.702 363.371 397.489 363.418C341.995 364.086 288.666 363.763 239.645 362.277C237.848 362.22 235.844 362.15 233.944 362.093C280.603 362.346 326.756 362.415 372.783 362.139C340.451 362.104 308.12 361.863 275.823 361.321L275.8 361.333Z" fill="#1D1D1B"/>
<path d="M417.15 293.028C416.793 289.654 416.447 286.336 416.09 282.996C415.768 279.091 415.457 275.267 415.192 271.431C415.434 273.77 415.687 276.119 415.929 278.435C416.344 283.318 416.747 288.191 417.15 293.028Z" fill="#1D1D1B"/>
<path d="M391.764 373.404C391.338 373.415 390.9 373.427 390.451 373.45C379.382 373.485 368.118 373.531 356.761 373.565C341.096 373.381 324.729 373.185 308.005 372.989C338.309 373.058 368.279 372.955 391.764 373.404Z" fill="#1D1D1B"/>
<path d="M294.736 379.808C291.234 379.82 284.243 379.843 280.718 379.854C278.587 379.728 276.48 379.589 274.337 379.463C277.62 379.44 280.937 379.417 284.231 379.394L294.724 379.797L294.736 379.808Z" fill="#1D1D1B"/>
<path d="M87.9979 374.683C150.046 376.733 208.247 378.115 265.941 378.979C268.74 379.14 271.55 379.302 274.337 379.463C235.614 379.693 197.097 379.244 161.61 377.608C154.618 377.297 144.102 376.503 137.099 376.41C103.939 375.754 72.3908 374.418 40.935 373.001C55.9776 373.542 71.1699 374.072 86.6963 374.637C87.134 374.648 87.5486 374.66 87.9863 374.671L87.9979 374.683Z" fill="#1D1D1B"/>
</g>
<defs>
<clipPath id="clip0_329_265">
<rect width="433.207" height="379.889" fill="white" transform="matrix(-1 0 0 1 433.207 0)"/>
</clipPath>
</defs>
</svg>
