<svg width="434" height="380" viewBox="0 0 434 380" fill="none" xmlns="http://www.w3.org/2000/svg">
<path d="M20.5762 166.127C20.7029 161.366 20.7375 156.617 20.8181 151.879C20.8757 149.505 20.8411 147.142 20.8181 144.778C20.7951 142.415 20.772 140.052 20.749 137.701C20.772 132.986 20.4495 128.283 20.2998 123.591C20.15 118.9 19.8621 114.231 19.5281 109.574C18.192 90.9691 16.1993 72.6638 15.8192 54.6696C15.4276 45.5516 15.4507 36.4796 16.1648 27.5114C16.2339 26.3241 16.3491 25.4364 16.4412 24.4566L16.7522 21.5748C16.9711 19.6613 17.3051 17.7708 17.57 15.8688L17.6276 15.5115C17.6391 15.3962 17.6276 15.2463 17.8004 15.2924H18.526L19.9658 15.2694L22.8453 15.2348C24.7688 15.2117 26.6923 15.1887 28.6043 15.1656C46.561 14.9351 64.2758 14.8198 81.6912 14.8198C116.51 14.7968 150.109 15.2348 181.887 16.157C209.864 17.0561 248.323 17.5748 286.771 18.6238C325.218 19.6497 363.654 21.2059 391.574 23.7073C385.561 23.6613 379.791 23.569 374.25 23.4422C382.44 23.9379 390.168 24.4797 397.356 25.0676C401.41 25.2059 405.453 25.3558 409.496 25.4941C410.521 25.5517 411.546 25.6209 412.56 25.6785L412.617 27.6151L412.652 28.5488L412.698 29.4364L412.813 31.3845C413.136 36.5833 413.343 41.7821 413.573 46.9694C414.091 57.3555 414.402 67.7416 414.771 78.1277C415.335 98.8998 415.669 119.672 415.623 140.502C415.531 161.332 415.22 182.231 414.518 203.233C413.769 224.236 412.79 245.366 411.396 266.645C410.452 280.547 409.024 290.91 407.826 304.766C406.593 318.806 405.211 332.592 403.668 346.31C403.61 346.356 403.576 346.172 403.576 345.791C403.08 349.964 402.666 354.852 402.09 357.538C401.94 358.252 401.779 358.863 401.617 359.336C401.56 359.52 401.525 359.555 401.468 359.67C401.376 359.866 401.203 359.993 401.042 360.12C400.915 360.189 400.777 360.235 400.638 360.258C400.581 360.269 400.477 360.269 400.443 360.281L399.901 360.327L399.13 360.373C398.07 360.431 396.549 360.442 395.006 360.477L390.445 360.558C384.352 360.65 378.27 360.754 372.177 360.846C359.991 360.984 347.782 361.122 335.504 361.272C310.959 361.48 286.183 361.572 260.878 361.491C232.924 361.63 204.946 361.757 177.026 361.895C166.545 361.895 166.545 362.805 159.553 363.013C131.611 364.085 110.636 364.869 79.1917 364.996C79.1917 364.996 79.1917 365.445 79.1917 365.676C74.3657 365.561 70.0464 365.514 66.4988 365.537C81.4954 368.246 119.816 369.503 79.2263 370.863C81.4723 370.978 83.4995 371.071 85.4345 371.151C85.6764 371.151 85.8838 371.151 86.1141 371.151C86.0911 371.151 86.0911 371.163 86.068 371.174C95.5935 371.658 101.376 372.131 107.089 372.903C100.972 372.857 94.8333 372.8 88.6942 372.754C89.846 373.076 90.5946 373.411 89.9727 373.71C90.5025 373.779 90.9978 373.837 91.5852 373.906C94.3035 373.929 96.5956 373.952 96.5956 373.952C97.4825 374.137 98.139 374.31 98.5882 374.483C114.633 375.589 139.927 376.212 135.066 377.122C131.323 377.583 119.586 377.122 106.271 376.73C105.464 376.811 104.543 376.88 103.599 376.938C121.095 377.295 103.587 378.517 114.08 378.817C128.074 378.909 142.057 379.209 156.052 379.232C213.043 379.324 261.074 379.232 317.075 379.036C319.551 379.024 321.993 379.013 324.446 379.001C338.026 378.909 351.214 378.759 364.333 378.506C370.899 378.356 377.441 378.217 383.995 378.068C387.277 377.975 390.56 377.895 393.854 377.802C395.524 377.756 397.183 377.699 398.853 377.653C399.728 377.618 400.627 377.56 401.548 377.468C402.424 377.387 403.576 377.238 404.589 377.019C402.309 377.318 400.408 377.249 398.508 377.192C400.362 377.111 402.274 377.019 404.555 376.546C406.731 376.096 408.851 375.324 410.694 374.079C411.822 373.284 412.882 372.373 413.769 371.313C414.656 370.241 415.416 369.076 416.038 367.843C416.637 366.609 417.167 365.261 417.535 364.004C417.892 362.794 418.18 361.584 418.399 360.396C418.848 358.022 419.102 355.682 419.332 353.491L420.058 346.829L421.555 333.492L422.995 320.155C428.754 267.844 432.463 215.233 433.119 159.038C433.407 134.761 433.212 110.842 432.636 86.8884L432.428 77.9087C432.325 74.9116 432.233 71.9145 432.129 68.9174C431.933 62.9232 431.76 56.9174 431.472 50.9002C431.196 44.883 430.989 38.8427 430.666 32.7909C430.217 24.6641 429.756 16.5143 429.295 8.32996C417.305 7.89191 404.854 7.44235 392.288 6.9928C397.402 7.22333 402.516 7.46542 407.63 7.69598C414.771 7.98416 421.912 8.2608 429.077 8.54898C429.549 17.644 430.021 26.7736 430.505 35.9493C430.816 43.1078 431.115 50.3123 431.426 57.5745C431.91 68.8136 432.417 80.0066 432.647 90.8999C432.233 79.6262 431.829 68.5485 431.426 57.5745C431.035 50.393 430.643 43.1885 430.251 36.007C429.675 26.9811 429.1 17.9898 428.535 9.1138C419.551 8.83716 410.671 8.57205 401.963 8.30692C395.075 8.04178 388.314 7.77664 381.76 7.52304C368.641 6.92361 356.317 6.2666 345.225 5.32135C341.62 5.44815 341.62 5.66718 338.13 5.60953C313.608 5.1369 289.109 5.06772 268.111 3.92651C268.111 3.69598 257.584 3.60379 261.097 3.18881C240.088 2.73923 215.554 2.647 194.545 2.1398C185.446 1.98996 176.381 1.55191 167.282 1.02167C129.675 0.479889 92.2878 0.16864 54.1514 0.122528C49.3829 0.122528 44.6029 0.122528 39.8114 0.110992C37.4157 0.110992 35.0199 0.111023 32.6126 0.122528C29.4221 0.145599 26.2316 0.157104 23.0296 0.180145L16.1763 0.249329L9.39216 0.433746L5.98281 0.526001L5.13047 0.549042H4.7043C4.56608 0.560577 4.38179 0.52597 4.41635 0.721954L4.16295 2.40494C3.81741 4.65277 3.47187 6.90057 3.12632 9.14838C2.38917 13.6555 1.89389 18.2203 1.27191 22.7967C0.891815 25.5287 0.891815 26.2895 0.765116 27.6958L0.454127 31.6035C-0.870452 52.4795 0.949405 73.0441 2.74623 93.2169C3.65615 103.257 4.76189 113.805 5.29172 124.306C5.57967 129.562 5.93673 134.819 5.99432 140.041C6.06343 142.646 6.13254 145.228 6.20165 147.787C6.2938 150.335 6.22469 152.882 6.24772 155.36C6.2938 153.528 6.33987 151.695 6.38594 149.85C6.38594 148.018 6.38594 146.185 6.38594 144.34C6.3629 140.663 6.38594 136.963 6.31683 133.274C6.05192 125.897 5.87914 118.485 5.31476 110.969C4.28965 95.9258 2.63105 80.3294 1.81326 64.1912C1.23736 56.3757 0.868778 48.5371 0.960923 40.7332C0.937887 38.7966 1.04155 36.8369 1.09914 34.9003C1.13369 33.932 1.16825 32.9638 1.2028 31.9955C1.27191 31.0272 1.3295 30.0589 1.39861 29.1021C1.46772 28.1338 1.53683 27.1771 1.59442 26.2203L1.64049 25.5056L1.66353 25.1483L1.73263 24.5373L2.0321 22.0705C2.44676 18.7968 2.82685 15.5345 3.26454 12.3184C3.7483 9.1138 4.22054 5.93228 4.7043 2.7738L4.88859 1.59802L4.93466 1.29831L4.9577 1.14844C4.9577 1.14844 5.04984 1.13693 5.0844 1.1254H5.68334L8.05606 1.04471C9.63404 0.998596 11.2005 0.952515 12.767 0.917908C15.8768 0.814178 19.0213 0.802643 22.1312 0.779602C23.6746 0.779602 25.218 0.756531 26.7499 0.756531C27.775 0.756531 28.8001 0.756531 29.8252 0.756531C36.4136 0.802643 42.737 0.906372 48.7379 1.11386C54.3242 1.24066 59.8874 1.35596 65.4737 1.48276C57.0194 1.48276 48.5882 1.48276 40.1685 1.48276C35.8262 1.48276 31.4954 1.5058 27.1761 1.51733C23.4097 1.55191 19.6548 1.59802 15.8884 1.6326L10.3021 1.78247L7.50319 1.85162C6.66237 1.97842 5.2802 1.49429 5.48753 2.81992C4.92314 6.50864 4.35876 10.1974 3.79437 13.8746C3.31061 17.5979 2.83837 21.3212 2.35461 25.033C2.17032 27.2693 1.98603 29.494 1.80174 31.7303C1.69808 33.932 1.5829 36.1222 1.47924 38.3239C1.17977 47.0847 1.37557 55.7186 1.80174 64.1912C3.16088 82.6579 5.76396 100.917 7.10006 118.439C7.08854 118.081 7.07702 117.758 7.06551 117.378C6.2938 103.591 4.831 89.4244 3.78285 74.8309C2.48131 61.1364 1.67504 47.3498 2.29702 33.9666C2.34309 32.2952 2.48131 30.6237 2.59649 28.9753C2.65408 28.1454 2.72319 27.3269 2.78078 26.497L2.87292 25.2635L3.12632 23.2347C3.47187 20.5374 3.80589 17.8515 4.15143 15.1887C4.48546 12.5259 4.94618 9.92072 5.32628 7.32709C5.5336 6.03604 5.72941 4.74496 5.92522 3.46545L6.07495 2.5087C6.06343 2.39343 6.14406 2.40494 6.2362 2.40494H6.47808L6.96184 2.3934L8.9084 2.34729C11.4885 2.28964 14.0455 2.24356 16.5794 2.18594C19.1249 2.18594 21.6589 2.18591 24.1583 2.17438C25.4023 2.17438 26.6347 2.17438 27.8672 2.17438C28.6043 2.18591 29.33 2.19745 30.0556 2.20898C32.843 2.27814 35.6073 2.34732 38.245 2.40494C43.8082 2.52023 49.3945 2.64703 54.9692 2.7623C49.763 2.7623 44.5569 2.7623 39.3507 2.7623C36.7476 2.7623 34.156 2.7738 31.5645 2.78534C27.9593 2.80838 24.3657 2.83145 20.772 2.85449C16.3145 2.85449 11.9952 3.03894 7.58382 3.11963L6.75452 3.14267L6.62782 3.94962L6.37442 5.57495L5.87914 8.82562C5.55664 10.9927 5.17654 13.1599 4.90011 15.3386L4.05929 21.8976L3.63312 25.1828L3.46035 27.2693C3.2415 29.9782 2.99962 32.6986 2.90748 35.396C2.55042 42.1049 2.57345 48.7561 2.74623 55.3382C2.90748 61.9318 3.32213 68.4217 3.75982 74.8424C4.52001 82.8885 5.44146 90.946 6.2938 98.8883C6.27076 98.0468 6.2362 97.1477 6.21317 96.3754C5.97129 92.8826 5.98281 86.1622 6.31683 81.5858C6.65086 77.021 7.28435 74.6464 8.10213 79.9029C9.36912 93.4244 11.1084 108.11 11.8685 122.496C12.0528 126.104 12.2256 129.689 12.4099 133.251C12.5251 136.813 12.5596 140.363 12.6287 143.845C12.6633 145.585 12.6978 147.314 12.7209 149.02C12.7094 150.738 12.6978 152.433 12.6863 154.104C12.6518 157.458 12.6287 160.721 12.6057 163.891C12.4214 170.231 12.2602 176.156 12.0413 181.481C11.7764 186.807 11.546 191.533 11.3502 195.464C11.1084 199.395 10.9241 202.542 10.7974 204.697C10.7398 205.781 10.6937 206.611 10.6707 207.176C10.6707 207.452 10.6476 207.671 10.6476 207.821C10.6476 207.959 10.6476 208.04 10.6476 208.04C10.8319 208.916 11.3387 203.844 12.0068 195.798C12.2717 191.775 12.5827 187.014 12.9167 181.885C13.2162 176.755 13.4005 171.257 13.6423 165.747C13.7921 160.248 13.8612 154.75 13.9648 149.62C13.9303 144.502 13.8957 139.753 13.8612 135.741C13.6654 127.73 13.412 122.681 13.5387 123.534C13.9072 128.629 14.391 133.724 14.5292 138.842C14.6444 133.977 14.4832 129.228 14.4601 124.848C14.1952 114.473 12.4675 100.652 12.2141 93.6088C11.6382 81.3553 10.4403 68.1911 10.0257 54.4621C9.84136 47.6034 9.79529 40.5948 10.2215 33.5401C10.3021 31.7765 10.4864 30.0128 10.6246 28.2375L10.7398 26.9119C10.7858 26.4393 10.7974 26.0935 10.878 25.5172L11.2811 22.3471C11.5691 20.2376 11.7879 18.1397 12.168 16.0763L12.6863 12.987L12.9512 11.4538L13.0779 10.693L13.1471 10.3127C13.2622 10.2896 13.412 10.3127 13.5387 10.3011C16.1993 10.3242 18.9176 10.3472 21.705 10.3703C24.3311 10.4164 27.0148 10.4625 29.7446 10.5086C34.5016 10.6239 39.4313 10.7507 44.4647 10.866C54.5315 11.1541 65.0245 11.4654 75.529 11.7651C75.529 12.2147 86.0565 11.8688 82.5435 12.3645C102.285 12.134 125.137 11.9841 133.603 13.2636C134.087 13.2636 134.559 13.2867 135.031 13.2867C136.425 13.2867 138.406 13.3443 140.514 13.4365C173.364 13.0677 196.285 14.3587 226.059 15.3616C236.298 15.4999 246.711 15.6382 257.434 15.7766C250.431 15.7074 239.95 15.8457 232.935 15.5921C230.608 15.5114 228.316 15.4308 226.059 15.3616C199.51 14.8544 174.239 14.3818 148.991 13.8976C146.93 13.7708 143.612 13.5634 140.514 13.425C138.683 13.4481 136.874 13.4826 135.031 13.5057C134.594 13.4135 134.11 13.3328 133.603 13.2521C109.45 12.7103 82.1288 12.7795 61.5345 12.3875C51.8248 12.3414 41.9538 12.3415 32.0022 12.4568C26.8996 12.5259 21.7741 12.5951 16.637 12.6642C14.8517 12.134 15.2433 14.0705 14.9439 15.2348L14.3795 19.0964C14.0915 21.667 13.8036 24.2952 13.5847 26.8428C12.0298 47.0501 13.9533 67.3496 16.0496 87.0382C14.391 67.4073 13.1355 47.8801 14.8748 28.9407C13.8497 40.8023 14.0339 52.4218 14.6098 63.7646C15.1858 75.1075 16.2224 86.1737 17.1093 97.0901C17.4433 100.468 17.7773 103.764 18.1113 107.096C18.4454 110.589 18.7333 114.07 19.0098 117.562L19.6317 128.052C19.4014 124.79 19.171 121.539 18.9291 118.312C18.6181 115.084 18.3532 111.868 18.0077 108.652C18.2611 111.903 18.4339 115.153 18.6297 118.392C18.7448 121.632 18.8715 124.859 18.9867 128.087C19.1134 131.303 19.2401 134.508 19.2056 137.712C19.2171 140.905 19.2286 144.098 19.2516 147.268C19.2632 182.311 16.2915 217.827 13.5847 253.504C10.9586 289.169 8.58589 325.18 10.4864 360.892C10.7052 359.486 10.9125 357.872 11.1084 356.074C10.567 338.898 10.7743 321.711 11.5806 305.354C12.4214 288.996 13.6769 273.469 15.2318 259.521C13.8957 279.256 12.6863 292.893 12.0068 311.982C12.1335 311.97 12.3178 312.155 12.4445 310.564C11.6843 322.76 11.4424 337.03 11.6151 350.909C12.1335 346.448 12.6518 341.468 13.1701 336.512C13.6538 329.503 13.7345 319.025 14.3565 308.535C16.3491 263.187 20.9333 220.57 22.6034 175.706C23.0872 155.729 22.7647 135.718 21.2097 115.856C19.6202 96.018 16.8789 76.4677 15.9229 57.0673C16.6025 76.3524 18.814 94.8883 19.9773 112.998C21.0715 131.13 21.2097 148.767 20.5762 166.115V166.127ZM153.668 370.437C157.25 370.552 160.959 370.667 164.667 370.782C164.092 370.84 163.539 370.886 163.009 370.932C159.622 370.932 156.271 370.702 153.668 370.425V370.437ZM235.469 370.045C211.465 370.586 179.848 370.171 149.302 369.722C149.13 369.664 149.026 369.595 149.026 369.549C174.654 369.422 206.167 369.929 235.469 370.045ZM331.288 364.212C331.104 364.235 330.908 364.269 330.712 364.293C330.724 364.258 330.758 364.223 330.758 364.189C330.919 364.189 331.104 364.2 331.277 364.212H331.288ZM419.897 25.7477C420.288 39.4652 420.737 54.8771 421.198 71.1537C421.693 87.7414 421.981 105.205 422.004 122.669C422.085 133.147 421.29 143.603 421.175 157.574C420.818 175.038 420.15 185.481 419.528 199.441L419.355 188.951C419.252 195.06 419.056 200.513 418.837 205.631C418.561 210.749 418.238 215.533 417.927 220.328C417.616 225.112 417.305 229.896 416.971 235.014C416.637 240.121 416.43 245.561 416.165 251.659C415.934 251.648 415.278 255.095 415.071 258.576C413.838 275.947 412.894 293.388 411.258 307.232C410.417 315.901 409.473 324.558 408.62 332.788C408.125 336.892 407.653 340.892 407.192 344.731C406.95 346.644 406.708 348.523 406.478 350.356C406.236 352.166 406.006 354.045 405.752 355.509C405.66 356.235 405.499 357.065 405.269 357.941C405.05 358.794 404.727 359.751 404.416 360.408C403.979 361.192 403.322 361.918 402.481 362.298L402.205 362.414C401.94 362.54 401.675 362.621 401.387 362.679C401.249 362.702 401.111 362.736 400.961 362.748L400.397 362.805C399.705 362.863 398.876 362.909 397.932 362.921L394.822 362.978C390.56 363.048 386.287 363.117 382.025 363.186C382.405 363.117 382.751 363.048 383.073 362.978C386.54 362.909 390.042 362.829 393.555 362.759C395.236 362.736 396.93 362.702 398.611 362.679C399.337 362.656 399.982 362.621 400.535 362.586C400.846 362.563 401.007 362.552 401.249 362.517C401.617 362.46 401.998 362.367 402.378 362.148C402.93 361.826 403.414 361.33 403.714 360.708C403.794 360.558 403.875 360.396 403.933 360.235C404.036 360.004 404.163 359.543 404.278 359.174C404.508 358.356 404.716 357.399 404.9 356.35C405.257 354.333 405.557 351.532 405.891 348.973C406.213 346.379 406.536 343.762 406.858 341.157C407.515 335.947 408.137 330.737 408.678 325.618C409.231 320.5 409.761 315.474 410.279 310.645C415.324 258.61 418.411 209.873 419.793 161.066C419.931 155.845 420.115 150.6 420.311 145.366C420.507 140.133 420.588 134.9 420.68 129.666C421.048 113.954 420.784 96.4906 420.519 80.3409C420.346 72.2718 420.162 64.5255 420.081 57.4823C419.931 50.4507 419.874 44.1106 420 38.8657C420.035 37.1136 419.92 34.4854 419.839 31.8687C419.816 31.2116 419.805 30.5546 419.781 29.909C419.781 29.5863 419.77 29.2751 419.758 28.9523C419.758 28.6756 419.758 28.4105 419.758 28.1454C419.758 27.2578 419.804 26.4278 419.874 25.7362L419.897 25.7477ZM393.428 8.08789C398.243 8.32996 403.126 8.57205 408.056 8.81412C414.656 9.09076 421.325 9.36743 428.017 9.64407C428.466 18.4048 428.927 27.2232 429.376 36.03C429.675 43.1539 429.986 50.2547 430.286 57.2863C430.551 64.318 430.804 71.2574 431.058 78.0585C431.277 84.8596 431.484 91.5224 431.691 97.9777C432.025 112.029 432.14 139.245 431.196 161.17C430.735 172.133 430.159 181.769 429.514 187.775C428.846 193.781 428.19 196.179 427.602 192.651C429.629 180.721 430.816 149.332 430.367 114.381C430.309 110.012 430.24 105.586 430.182 101.136C430.067 96.6866 429.952 92.214 429.837 87.753C429.629 78.8193 429.226 69.9203 428.892 61.2979C428.535 52.6639 428.051 44.3181 427.694 36.4911C427.176 27.4537 426.692 19.0157 426.255 11.4654C422.592 11.3271 419.125 11.1887 415.877 11.0735C412.813 10.9351 409.968 10.8083 407.342 10.6815C402.884 10.4395 399.233 10.1859 396.538 9.92072C391.159 9.40201 389.639 8.80258 393.428 8.08789ZM101.318 1.65564C115.992 1.87466 130.182 2.10522 146.86 2.03607C131.68 1.90927 116.51 1.78244 101.318 1.65564ZM250.477 10.7737C205.004 8.81409 156.006 8.57205 110.498 8.05331C92.9904 7.85736 74.6075 8.16858 56.6624 8.42218C47.6898 8.54898 38.8324 8.65271 30.2514 8.68729C24.8494 8.71036 19.5396 8.72189 14.3334 8.74496H12.2832H11.7649C11.7188 8.88327 11.7073 9.06769 11.6727 9.21753L11.5 10.1974C11.2696 11.4999 11.0508 12.8026 10.8204 14.0936C10.3366 16.6757 9.96806 19.2693 9.57645 21.8745L8.91992 21.6786L9.68011 16.987C9.95654 14.889 10.233 12.8371 10.5094 10.8314C10.6476 9.81699 10.7743 8.82565 10.901 7.83429C11.8455 7.76514 12.8361 7.74207 13.7805 7.69598C15.7041 7.61526 17.5815 7.52307 19.4359 7.44238C21.3249 7.3732 23.1793 7.31555 25.0222 7.2464C30.62 7.02737 35.9644 6.81989 41.4009 6.60086C40.8135 6.60086 40.18 6.57782 39.6041 6.57782C40.6407 6.57782 41.6658 6.57782 42.714 6.56628C49.5903 6.34726 56.72 6.22046 64.9439 6.27811C68.7103 6.33572 72.5458 6.39337 76.4044 6.45099C120.173 6.31268 165.347 6.4856 204.981 8.04178C229.48 8.77951 250.466 10.0706 274.953 11.0043C267.973 10.9121 257.457 11.0619 250.454 10.7737H250.477Z" fill="#1D1D1B"/>
</svg>
