<svg width="434" height="380" viewBox="0 0 434 380" fill="none" xmlns="http://www.w3.org/2000/svg">
<g clip-path="url(#clip0_329_265)">
<path d="M53.9387 10.8389C50.6906 10.8849 47.6152 10.9195 47.6152 10.9195C47.6152 10.9886 47.6843 11.0692 47.7189 11.1383C49.988 11.0232 52.0151 10.931 53.9271 10.8389H53.9387Z" fill="#1D1D1B"/>
<path d="M60.0903 8.05131C59.4338 8.05131 58.7657 8.06283 58.0977 8.07435C58.328 8.13194 58.3626 8.18953 58.4893 8.24713C58.9961 8.17802 59.4913 8.12042 60.0903 8.03979V8.05131Z" fill="#1D1D1B"/>
<path d="M47.7315 11.1499C48.2268 11.9677 50.8644 12.751 47.6624 13.6264C44.1724 13.684 37.204 13.7876 33.691 13.8337C30.201 14.3405 33.7025 14.7321 33.714 15.1813C30.224 15.2389 26.7341 15.285 26.7341 15.5154C24.4535 16.1374 28.2429 16.4714 35.0156 16.5175C50.0121 13.73 88.3328 12.3939 47.743 11.1499H47.7315Z" fill="#1D1D1B"/>
<path d="M75.582 8.99585C69.4544 9.06496 63.3268 9.14559 57.1876 9.2147C55.2871 9.75607 52.6956 10.3089 54.5615 10.8042C64.0754 10.3089 69.8806 9.79062 75.582 8.99585Z" fill="#1D1D1B"/>
<path d="M16.0214 40.0497C15.8832 40.0497 15.8141 39.7271 16.056 36.5826C16.0445 37.8036 16.033 38.9093 16.0214 40.0497C16.1481 40.0957 16.3439 39.8999 16.4015 41.4664C16.3555 35.4077 16.2518 28.8422 16.5167 22.0809C16.5628 20.3877 16.6089 18.683 16.6549 16.9783C16.701 15.2735 16.7356 13.5112 16.8738 11.9447C17.012 10.3667 17.2424 8.88082 17.657 7.62531C17.8643 7.00331 18.1292 6.43891 18.4287 5.94362C18.5784 5.69022 18.7397 5.47137 18.9125 5.25252L19.1774 4.94152C19.258 4.87241 19.3156 4.82633 19.3847 4.75722C19.8339 4.0546 20.9281 3.40957 21.9417 3.22527C21.2506 3.21376 20.525 3.35198 19.903 3.62842C19.592 3.75512 19.3156 3.9279 19.0622 4.11219C18.924 4.19282 18.8434 4.30801 18.7282 4.40015C18.613 4.4923 18.4863 4.6766 18.3596 4.8033C17.3806 5.96666 16.7931 7.60227 16.4476 9.44522C16.1136 11.2997 15.9869 13.3154 15.9178 15.4463C15.8371 17.5542 15.7565 19.6736 15.6874 21.7699C15.5262 25.9741 15.3534 30.1553 15.3764 34.302C15.3764 38.4486 15.2958 42.5607 15.3649 46.6382C15.5722 62.9022 16.5628 78.406 17.8643 92.3202C17.369 82.4605 16.8738 74.1326 16.5628 65.9085C16.4822 63.8467 16.39 61.7964 16.3094 59.7346C16.2633 57.6728 16.2172 55.588 16.1712 53.4571C16.0905 49.2068 15.9523 44.8068 16.056 40.0612L16.0214 40.0497Z" fill="#1D1D1B"/>
<path d="M24.0271 2.29206C24.8219 2.69521 25.3632 3.28265 25.6282 4.07742C25.3402 2.99468 24.7528 2.59154 24.4648 2.39573C24.1308 2.22295 24.0617 2.23447 24.0156 2.30358L24.0271 2.29206Z" fill="#1D1D1B"/>
<path d="M251.797 361.736C272.91 361.356 291.431 360.365 310.136 359.317C270.399 360.561 229.613 361.183 199.286 362.104C216.713 361.978 234.209 361.862 251.797 361.736Z" fill="#1D1D1B"/>
<path d="M403.202 354.456C377.079 354.698 355.563 355.735 335.026 356.852C355.932 356.288 376.699 355.62 397.362 354.952C399.297 354.79 401.336 354.618 403.202 354.456Z" fill="#1D1D1B"/>
<path d="M374.257 356.564C350.346 357.071 330.131 358.234 310.147 359.328C332.631 358.637 354.619 357.727 374.257 356.564Z" fill="#1D1D1B"/>
<path d="M8.83398 251.459C8.86854 249.535 8.89157 247.715 8.92613 245.976C8.90309 244.237 8.88006 242.578 8.86854 241.023C8.8455 237.901 8.82247 235.114 8.79943 232.649C8.69577 227.708 8.62666 224.045 8.56907 221.384C8.24656 219.023 7.91254 215.924 7.30208 211.697C7.32511 212.595 7.33663 213.563 7.35967 214.45C7.93557 230.38 7.90102 246.483 7.0602 262.701C6.79528 269.416 6.53037 275.82 6.31152 281.188C7.41726 271.155 8.36174 261.284 8.82247 251.459H8.83398Z" fill="#1D1D1B"/>
<path d="M8.57023 221.384C11.2539 241.518 8.29379 200.582 8.57023 221.384Z" fill="#1D1D1B"/>
<path d="M15.9411 322.977C15.9066 323.76 15.872 324.566 15.8259 325.372C15.7453 327.676 15.7684 330.037 15.7568 332.33C15.7684 330.74 15.7799 329.185 15.7914 327.642C15.8375 326.098 15.8835 324.555 15.9296 322.988L15.9411 322.977Z" fill="#1D1D1B"/>
<path d="M166.494 372.69C152.673 372.794 138.817 372.897 125.202 372.989C153.272 372.943 181.583 372.725 205.022 371.976C201.532 371.976 198.019 371.768 194.518 371.78C187.515 372.229 177.034 372.69 166.494 372.678V372.69Z" fill="#1D1D1B"/>
<path d="M20.5938 214.012C20.7205 218.769 20.755 223.515 20.8357 228.249C20.8933 230.622 20.8587 232.983 20.8357 235.344C20.8126 237.705 20.7896 240.067 20.7666 242.416C20.7896 247.128 20.4671 251.827 20.3174 256.515C20.1676 261.203 19.8797 265.868 19.5457 270.521C18.2096 289.112 16.2169 307.403 15.8368 325.384C15.4452 334.495 15.4682 343.56 16.1824 352.521C16.2515 353.707 16.3667 354.594 16.4588 355.573L16.7698 358.453C16.9886 360.365 17.3227 362.254 17.5876 364.155L17.6452 364.512C17.6567 364.627 17.6452 364.777 17.8179 364.731H18.5436L19.9833 364.754L22.8629 364.788C24.7864 364.811 26.7099 364.834 28.6219 364.857C46.5786 365.088 64.2934 365.203 81.7087 365.203C116.528 365.226 150.126 364.788 181.905 363.867C209.882 362.968 248.341 362.45 286.788 361.402C325.236 360.377 363.671 358.822 391.591 356.322C385.579 356.368 379.808 356.46 374.268 356.587C382.457 356.092 390.186 355.55 397.373 354.963C401.428 354.825 405.471 354.675 409.513 354.537C410.539 354.479 411.564 354.41 412.577 354.352L412.635 352.417L412.669 351.484L412.715 350.597L412.831 348.651C413.153 343.456 413.36 338.261 413.591 333.078C414.109 322.7 414.42 312.322 414.789 301.944C415.353 281.187 415.687 260.431 415.641 239.617C415.549 218.804 415.238 197.921 414.535 176.934C413.787 155.948 412.808 134.834 411.414 113.571C410.469 99.6803 409.041 89.3252 407.843 75.4801C406.611 61.4506 405.229 47.6746 403.685 33.9677C403.628 33.9216 403.593 34.1059 403.593 34.486C403.098 30.3163 402.683 25.4325 402.107 22.7487C401.958 22.0346 401.796 21.4241 401.635 20.9519C401.577 20.7676 401.543 20.733 401.485 20.6178C401.393 20.422 401.22 20.2953 401.059 20.1686C400.932 20.0995 400.794 20.0534 400.656 20.0304C400.598 20.0189 400.495 20.0189 400.46 20.0074L399.919 19.9613L399.147 19.9152C398.087 19.8576 396.567 19.8461 395.024 19.8116L390.462 19.7309C384.369 19.6388 378.288 19.5351 372.195 19.443C360.009 19.3047 347.799 19.1665 335.521 19.0168C310.976 18.8094 286.201 18.7173 260.896 18.7979C232.941 18.6597 204.964 18.533 177.044 18.3948C166.562 18.3948 166.562 17.4848 159.571 17.2775C131.628 16.2063 110.654 15.423 79.2093 15.2963C79.2093 15.2963 79.2093 14.8471 79.2093 14.6167C74.3832 14.7319 70.064 14.778 66.5164 14.755C81.5129 12.0481 119.834 10.7926 79.2439 9.43346C81.4899 9.31827 83.5171 9.22613 85.4521 9.1455C85.694 9.1455 85.9013 9.1455 86.1317 9.1455C86.1087 9.1455 86.1087 9.13398 86.0856 9.12246C95.6111 8.63869 101.393 8.16643 107.106 7.3947C100.99 7.44077 94.8509 7.49836 88.7117 7.54444C89.8635 7.22192 90.6122 6.88789 89.9902 6.58841C90.5201 6.5193 91.0154 6.46171 91.6028 6.3926C94.321 6.36956 96.6131 6.34652 96.6131 6.34652C97.5 6.16223 98.1566 5.98945 98.6058 5.81668C114.65 4.71091 139.944 4.08891 135.084 3.17896C131.34 2.71822 119.603 3.17896 106.288 3.57058C105.482 3.48995 104.561 3.42084 103.616 3.36325C121.112 3.00618 103.605 1.78523 114.098 1.48575C128.092 1.3936 142.075 1.09412 156.069 1.07109C213.061 0.97894 261.091 1.07109 317.092 1.2669C319.569 1.27842 322.011 1.28994 324.464 1.30146C338.044 1.3936 351.232 1.54334 364.351 1.79675C370.916 1.94649 377.459 2.08471 384.012 2.23445C387.295 2.3266 390.578 2.40722 393.872 2.49937C395.542 2.54545 397.201 2.60304 398.871 2.64911C399.746 2.68367 400.644 2.74126 401.566 2.83341C402.441 2.91403 403.593 3.06377 404.607 3.28262C402.326 2.98314 400.426 3.05226 398.525 3.10985C400.38 3.19048 402.292 3.28262 404.572 3.75488C406.749 4.2041 408.868 4.97583 410.711 6.21982C411.84 7.01459 412.9 7.92455 413.787 8.98424C414.673 10.0555 415.434 11.2188 416.056 12.4513C416.655 13.6838 417.184 15.0314 417.553 16.2869C417.91 17.4963 418.198 18.7058 418.417 19.8922C418.866 22.265 419.119 24.6032 419.35 26.7917L420.075 33.4494L421.573 46.7762L423.013 60.103C428.772 112.374 432.48 164.944 433.137 221.096C433.425 245.354 433.229 269.254 432.653 293.19L432.446 302.162C432.342 305.157 432.25 308.152 432.146 311.147C431.951 317.136 431.778 323.138 431.49 329.15C431.213 335.163 431.006 341.198 430.684 347.246C430.234 355.366 429.774 363.51 429.313 371.688C417.323 372.125 404.872 372.575 392.305 373.024C397.419 372.793 402.533 372.552 407.647 372.321C414.789 372.033 421.93 371.757 429.094 371.469C429.566 362.381 430.039 353.258 430.522 344.09C430.833 336.937 431.133 329.738 431.444 322.481C431.928 311.251 432.434 300.066 432.665 289.181C432.25 300.446 431.847 311.515 431.444 322.481C431.052 329.657 430.661 336.856 430.269 344.032C429.693 353.051 429.117 362.035 428.553 370.904C419.569 371.181 410.688 371.446 401.981 371.711C395.093 371.976 388.332 372.241 381.778 372.494C368.659 373.093 356.334 373.749 345.242 374.694C341.637 374.567 341.637 374.348 338.147 374.406C313.625 374.878 289.126 374.947 268.129 376.088C268.129 376.318 257.601 376.41 261.114 376.825C240.105 377.274 215.572 377.366 194.563 377.873C185.464 378.023 176.399 378.46 167.3 378.99C129.693 379.532 92.3054 379.843 54.169 379.889C49.4005 379.889 44.6205 379.889 39.829 379.9C37.4332 379.9 35.0375 379.9 32.6302 379.889C29.4397 379.866 26.2492 379.854 23.0471 379.831L16.1939 379.762L9.40974 379.578L6.00039 379.486L5.14805 379.463H4.72188C4.58366 379.451 4.39937 379.486 4.43393 379.29L4.18053 377.608C3.83499 375.362 3.48944 373.116 3.1439 370.87C2.40674 366.366 1.91147 361.805 1.28949 357.232C0.909393 354.502 0.909393 353.742 0.782694 352.337L0.471706 348.432C-0.852874 327.572 0.966983 307.023 2.7638 286.866C3.67373 276.834 4.77947 266.294 5.3093 255.801C5.59725 250.548 5.95431 245.296 6.0119 240.078C6.08101 237.475 6.15012 234.895 6.21923 232.338C6.31137 229.792 6.24226 227.247 6.2653 224.77C6.31137 226.602 6.35745 228.433 6.40352 230.276C6.40352 232.107 6.40352 233.939 6.40352 235.782C6.38048 239.456 6.40352 243.154 6.33441 246.84C6.06949 254.211 5.89672 261.618 5.33234 269.128C4.30723 284.159 2.64862 299.744 1.83084 315.869C1.25494 323.679 0.886357 331.511 0.978501 339.309C0.955465 341.244 1.05913 343.203 1.11672 345.138C1.15127 346.105 1.18583 347.073 1.22038 348.04C1.28949 349.008 1.34708 349.975 1.41619 350.931C1.4853 351.899 1.55441 352.855 1.612 353.811L1.65807 354.525L1.6811 354.882L1.75021 355.493L2.04968 357.958C2.46433 361.229 2.84443 364.489 3.28212 367.702C3.76588 370.904 4.23812 374.083 4.72188 377.24L4.90617 378.414L4.95224 378.714L4.97528 378.864C4.97528 378.864 5.06742 378.875 5.10197 378.887H5.70091L8.07364 378.967C9.65162 379.013 11.2181 379.059 12.7845 379.094C15.8944 379.198 19.0389 379.209 22.1487 379.232C23.6922 379.232 25.2356 379.255 26.7675 379.255C27.7926 379.255 28.8177 379.255 29.8428 379.255C36.4312 379.209 42.7546 379.106 48.7555 378.898C54.3418 378.771 59.905 378.656 65.4913 378.53C57.037 378.53 48.6058 378.53 40.1861 378.53C35.8437 378.53 31.5129 378.507 27.1937 378.495C23.4272 378.46 19.6723 378.414 15.9059 378.38L10.3197 378.23L7.52077 378.161C6.67995 378.034 5.29778 378.518 5.50511 377.193C4.94072 373.508 4.37634 369.822 3.81195 366.147C3.32819 362.427 2.85595 358.706 2.37219 354.997C2.1879 352.763 2.00361 350.54 1.81932 348.305C1.71566 346.105 1.60048 343.917 1.49681 341.717C1.19734 332.963 1.39315 324.335 1.81932 315.869C3.17845 297.417 5.78154 279.172 7.11764 261.664C7.10612 262.021 7.0946 262.343 7.08309 262.723C6.31137 276.499 4.84858 290.656 3.80043 305.238C2.49889 318.922 1.69262 332.698 2.3146 346.071C2.36067 347.741 2.49889 349.411 2.61407 351.058C2.67166 351.887 2.74077 352.705 2.79836 353.535L2.8905 354.767L3.1439 356.794C3.48944 359.49 3.82347 362.173 4.16901 364.834C4.50303 367.495 4.96376 370.098 5.34385 372.69C5.55118 373.98 5.74699 375.27 5.94279 376.548L6.09253 377.504C6.08101 377.62 6.16164 377.608 6.25378 377.608H6.49566L6.97942 377.62L8.92598 377.666C11.506 377.723 14.063 377.769 16.597 377.827C19.1425 377.827 21.6765 377.827 24.1759 377.838C25.4199 377.838 26.6523 377.838 27.8847 377.838C28.6219 377.827 29.3475 377.815 30.0732 377.804C32.8606 377.735 35.6249 377.666 38.2625 377.608C43.8258 377.493 49.412 377.366 54.9868 377.251C49.7806 377.251 44.5744 377.251 39.3683 377.251C36.7652 377.251 34.1736 377.24 31.582 377.228C27.9769 377.205 24.3832 377.182 20.7896 377.159C16.3321 377.159 12.0128 376.975 7.6014 376.894L6.7721 376.871L6.6454 376.065L6.392 374.441L5.89672 371.192C5.57422 369.027 5.19412 366.861 4.91769 364.684L4.07687 358.13L3.6507 354.848L3.47793 352.763C3.25908 350.056 3.0172 347.338 2.92506 344.642C2.568 337.939 2.59103 331.293 2.7638 324.716C2.92506 318.127 3.33971 311.642 3.7774 305.226C4.53759 297.187 5.45904 289.135 6.31137 281.199C6.28834 282.04 6.25378 282.938 6.23075 283.71C5.98887 287.2 6.00039 293.915 6.33441 298.488C6.66843 303.049 7.30193 305.422 8.11971 300.17C9.3867 286.659 11.1259 271.984 11.8861 257.609C12.0704 254.004 12.2432 250.422 12.4275 246.863C12.5427 243.303 12.5772 239.756 12.6463 236.277C12.6809 234.538 12.7154 232.81 12.7385 231.105C12.7269 229.389 12.7154 227.696 12.7039 226.026C12.6694 222.674 12.6463 219.414 12.6233 216.247C12.439 209.912 12.2777 203.991 12.0589 198.67C11.794 193.348 11.5636 188.625 11.3678 184.698C11.1259 180.77 10.9416 177.625 10.8149 175.471C10.7574 174.389 10.7113 173.559 10.6882 172.995C10.6882 172.719 10.6652 172.5 10.6652 172.35C10.6652 172.212 10.6652 172.131 10.6652 172.131C10.8495 171.256 11.3563 176.324 12.0243 184.364C12.2893 188.384 12.6002 193.141 12.9343 198.266C13.2337 203.392 13.418 208.886 13.6599 214.392C13.8096 219.886 13.8788 225.381 13.9824 230.506C13.9479 235.621 13.9133 240.366 13.8788 244.375C13.6829 252.38 13.4295 257.425 13.5562 256.573C13.9248 251.481 14.4086 246.39 14.5468 241.276C14.662 246.137 14.5007 250.883 14.4777 255.26C14.2128 265.626 12.4851 279.437 12.2317 286.474C11.6558 298.718 10.4579 311.873 10.0432 325.591C9.85894 332.444 9.81287 339.448 10.239 346.497C10.3197 348.259 10.504 350.022 10.6422 351.795L10.7574 353.12C10.8034 353.592 10.8149 353.938 10.8956 354.514L11.2987 357.681C11.5867 359.789 11.8055 361.885 12.1856 363.947L12.7039 367.034L12.9688 368.566L13.0955 369.326L13.1646 369.706C13.2798 369.73 13.4295 369.707 13.5562 369.718C16.2169 369.695 18.9352 369.672 21.7226 369.649C24.3487 369.603 27.0324 369.557 29.7622 369.511C34.5192 369.395 39.4489 369.269 44.4823 369.154C54.5491 368.866 65.0421 368.555 75.5466 368.255C75.5466 367.806 86.0741 368.152 82.5611 367.656C102.303 367.887 125.155 368.036 133.621 366.758C134.105 366.758 134.577 366.735 135.049 366.735C136.443 366.735 138.424 366.677 140.532 366.585C173.381 366.954 196.302 365.664 226.076 364.661C236.316 364.523 246.728 364.385 257.452 364.247C250.449 364.316 239.967 364.178 232.953 364.431C230.626 364.512 228.334 364.592 226.076 364.661C199.527 365.168 174.257 365.64 149.009 366.124C146.947 366.251 143.63 366.458 140.532 366.597C138.7 366.573 136.892 366.539 135.049 366.516C134.611 366.608 134.128 366.689 133.621 366.769C109.467 367.311 82.1464 367.242 61.5521 367.633C51.8424 367.679 41.9714 367.679 32.0197 367.564C26.9172 367.495 21.7917 367.426 16.6546 367.357C14.8693 367.887 15.2609 365.951 14.9615 364.788L14.3971 360.929C14.1091 358.361 13.8212 355.735 13.6023 353.189C12.0474 332.997 13.9709 312.713 16.0672 293.04C14.4086 312.656 13.1531 332.168 14.8923 351.093C13.8672 339.24 14.0515 327.63 14.6274 316.296C15.2033 304.961 16.24 293.904 17.1269 282.996C17.4609 279.621 17.7949 276.327 18.1289 272.998C18.4629 269.508 18.7509 266.029 19.0273 262.539L19.6493 252.057C19.419 255.317 19.1886 258.565 18.9467 261.79C18.6357 265.016 18.3708 268.229 18.0253 271.443C18.2787 268.195 18.4514 264.946 18.6472 261.71C18.7624 258.473 18.8891 255.248 19.0043 252.023C19.131 248.809 19.2577 245.607 19.2231 242.405C19.2347 239.214 19.2462 236.024 19.2692 232.856C19.2807 197.84 16.3091 162.352 13.6023 126.702C10.9762 91.0645 8.60347 55.0809 10.504 19.3969C10.7228 20.8021 10.9301 22.4147 11.1259 24.2116C10.5846 41.374 10.7919 58.548 11.5982 74.8926C12.439 91.2372 13.6945 106.753 15.2494 120.69C13.9133 100.97 12.7039 87.344 12.0243 68.2695C12.151 68.281 12.3353 68.0968 12.462 69.6863C11.7018 57.4998 11.46 43.24 11.6327 29.3718C12.151 33.8295 12.6694 38.8054 13.1877 43.7583C13.6714 50.7615 13.7521 61.2318 14.374 71.7135C16.3667 117.027 20.9509 159.611 22.621 204.44C23.1047 224.402 22.7822 244.398 21.2273 264.244C19.6378 284.067 16.8965 303.602 15.9405 322.988C16.6201 303.717 18.8315 285.196 19.9949 267.1C21.0891 248.982 21.2273 231.359 20.5938 214.024V214.012ZM153.685 9.85964C157.267 9.74446 160.976 9.62927 164.685 9.51409C164.109 9.4565 163.556 9.41042 163.026 9.36435C159.64 9.36435 156.288 9.59472 153.685 9.87116V9.85964ZM235.487 10.2513C211.483 9.7099 179.866 10.1246 149.32 10.5738C149.147 10.6314 149.043 10.7005 149.043 10.7466C174.671 10.8733 206.185 10.3664 235.487 10.2513ZM331.306 16.0796C331.121 16.0565 330.926 16.022 330.73 15.999C330.741 16.0335 330.776 16.0681 330.776 16.1026C330.937 16.1026 331.121 16.0911 331.294 16.0796H331.306ZM419.914 354.283C420.306 340.576 420.755 325.176 421.216 308.912C421.711 292.337 421.999 274.887 422.022 257.436C422.103 246.966 421.308 236.519 421.193 222.559C420.836 205.108 420.168 194.673 419.546 180.724L419.373 191.206C419.269 185.101 419.073 179.653 418.855 174.538C418.578 169.424 418.256 164.644 417.945 159.852C417.634 155.072 417.323 150.292 416.989 145.178C416.655 140.075 416.447 134.639 416.182 128.545C415.952 128.557 415.295 125.113 415.088 121.634C413.856 104.276 412.911 86.8487 411.276 73.0151C410.435 64.3533 409.49 55.7029 408.638 47.4788C408.143 43.3782 407.671 39.3813 407.21 35.5457C406.968 33.6337 406.726 31.7561 406.496 29.9247C406.254 28.1163 406.023 26.2388 405.77 24.776C405.678 24.0503 405.517 23.221 405.286 22.3456C405.067 21.4932 404.745 20.5372 404.434 19.8807C403.996 19.0974 403.34 18.3717 402.499 17.9916L402.222 17.8765C401.958 17.7498 401.693 17.6691 401.405 17.6115C401.266 17.5885 401.128 17.5539 400.978 17.5424L400.414 17.4848C399.723 17.4272 398.894 17.3812 397.949 17.3696L394.839 17.3121C390.578 17.2429 386.304 17.1738 382.043 17.1047C382.423 17.1738 382.768 17.2429 383.091 17.3121C386.558 17.3812 390.059 17.4618 393.572 17.5309C395.254 17.5539 396.947 17.5885 398.629 17.6115C399.354 17.6346 399.999 17.6691 400.552 17.7037C400.863 17.7267 401.025 17.7382 401.266 17.7728C401.635 17.8304 402.015 17.9225 402.395 18.1414C402.948 18.4639 403.432 18.9592 403.731 19.5812C403.812 19.7309 403.893 19.8922 403.95 20.0534C404.054 20.2838 404.181 20.7445 404.296 21.1131C404.526 21.9309 404.733 22.887 404.918 23.9351C405.275 25.9509 405.574 28.7498 405.908 31.3069C406.231 33.8986 406.553 36.5133 406.876 39.1164C407.532 44.3227 408.154 49.5291 408.696 54.6432C409.248 59.7574 409.778 64.7795 410.297 69.6057C415.342 121.6 418.428 170.3 419.811 219.069C419.949 224.286 420.133 229.527 420.329 234.757C420.525 239.986 420.605 245.215 420.697 250.445C421.066 266.144 420.801 283.595 420.536 299.732C420.363 307.795 420.179 315.535 420.099 322.573C419.949 329.599 419.891 335.935 420.018 341.175C420.052 342.926 419.937 345.552 419.857 348.167C419.834 348.824 419.822 349.48 419.799 350.125C419.799 350.448 419.788 350.759 419.776 351.081C419.776 351.358 419.776 351.623 419.776 351.887C419.776 352.774 419.822 353.604 419.891 354.295L419.914 354.283ZM393.446 371.93C398.26 371.688 403.144 371.446 408.074 371.204C414.673 370.927 421.342 370.651 428.034 370.375C428.484 361.621 428.944 352.809 429.394 344.009C429.693 336.891 430.004 329.795 430.304 322.769C430.568 315.743 430.822 308.809 431.075 302.013C431.294 295.217 431.501 288.559 431.709 282.109C432.043 268.068 432.158 240.873 431.213 218.965C430.753 208.011 430.177 198.382 429.532 192.38C428.864 186.379 428.207 183.984 427.62 187.508C429.647 199.43 430.833 230.794 430.384 265.718C430.327 270.084 430.257 274.507 430.2 278.953C430.085 283.399 429.97 287.868 429.854 292.326C429.647 301.253 429.244 310.145 428.91 318.761C428.553 327.388 428.069 335.727 427.712 343.548C427.194 352.579 426.71 361.01 426.272 368.555C422.609 368.693 419.142 368.831 415.894 368.946C412.831 369.084 409.986 369.211 407.36 369.338C402.902 369.58 399.251 369.833 396.556 370.098C391.177 370.616 389.656 371.215 393.446 371.93ZM101.336 378.357C116.01 378.138 130.2 377.908 146.878 377.977C131.697 378.103 116.528 378.23 101.336 378.357ZM250.495 369.246C205.021 371.204 156.023 371.446 110.515 371.964C93.008 372.16 74.6251 371.849 56.6799 371.595C47.7074 371.469 38.85 371.365 30.269 371.331C24.867 371.308 19.5572 371.296 14.351 371.273H12.3008H11.7825C11.7364 371.135 11.7249 370.95 11.6903 370.801L11.5175 369.822C11.2872 368.52 11.0683 367.219 10.838 365.928C10.3542 363.348 9.98564 360.757 9.59403 358.154L8.9375 358.349L9.69769 363.037C9.97412 365.134 10.2506 367.184 10.527 369.188C10.6652 370.202 10.7919 371.192 10.9186 372.183C11.8631 372.252 12.8536 372.275 13.7981 372.321C15.7216 372.402 17.5991 372.494 19.4535 372.575C21.3425 372.644 23.1969 372.701 25.0398 372.77C30.6376 372.989 35.982 373.197 41.4185 373.415C40.8311 373.415 40.1976 373.438 39.6217 373.438C40.6583 373.438 41.6834 373.438 42.7315 373.45C49.6078 373.669 56.7375 373.796 64.9615 373.738C68.7279 373.68 72.5634 373.623 76.4219 373.565C120.191 373.703 165.365 373.531 204.998 371.976C229.497 371.238 250.483 369.948 274.971 369.015C267.991 369.108 257.475 368.958 250.472 369.246H250.495Z" fill="#1D1D1B"/>
<path d="M17.277 278.435C17.8644 270.902 18.4979 263.346 18.7168 255.743C18.8435 251.942 19.0969 248.141 19.1314 244.329C19.1775 240.516 19.2236 236.692 19.2696 232.856C19.2351 226.947 19.0278 221.05 18.8896 215.176C18.5901 209.301 18.3712 203.427 18.0027 197.575C17.2309 183.58 16.1828 169.021 15.0771 154.082C13.9368 139.142 12.7619 123.834 11.7023 108.365C10.6887 92.8845 9.8133 77.254 9.37562 61.6811C9.01855 46.1082 9.00704 30.5929 9.67508 15.4116C9.08766 13.5802 8.41961 13.3268 7.63638 15.4922C5.55161 48.5962 7.21021 81.654 9.54839 114.366C11.852 147.102 14.7546 179.664 15.0771 212.169C15.1116 212.676 15.1462 213.194 15.1807 213.69C16.01 227.581 16.0331 245.826 14.7315 264.854C13.3724 283.883 10.873 303.948 10.5159 321.64C10.3777 330.475 10.5159 339.344 11.2185 348.19L11.5295 351.508L11.6792 353.166L11.7599 353.995L11.8866 354.928C12.2321 357.44 12.5085 359.939 12.9001 362.392L13.5106 366.055L13.8101 367.875L13.9598 368.785C13.9368 368.9 14.075 368.831 14.1441 368.854H14.386H14.8582H22.368L49.2858 368.658C58.0395 368.566 66.7817 368.463 75.524 368.267C62.8886 368.117 50.403 367.956 38.0096 367.806C31.6861 367.714 25.3973 367.622 19.1084 367.541L16.7011 367.507L15.4917 367.484C15.3996 367.484 15.2844 367.484 15.2038 367.472L15.1577 367.173L15.0655 366.574L14.3629 361.816C14.098 360.238 13.9944 358.637 13.7986 357.036C13.6373 355.447 13.43 353.823 13.3494 352.314C12.831 346.163 12.7504 340.012 12.7734 333.85C12.8771 327.699 13.1535 321.548 13.6028 315.397C14.4896 303.107 15.9409 290.828 17.277 278.458V278.435Z" fill="#1D1D1B"/>
<path d="M335.015 356.852C321.332 357.209 307.579 357.555 293.711 357.912C255.126 358.902 220.859 359.778 185.821 360.676C211.541 360.48 237.388 360.285 263.442 360.077C289.53 359.57 311.61 358.142 335.004 356.841L335.015 356.852Z" fill="#1D1D1B"/>
<path d="M157.406 361.333C167.012 361.114 176.434 360.895 185.833 360.676C147.719 360.872 109.883 360.93 72.1263 360.757H26.7911L23.4509 360.768C22.4373 360.653 20.7671 361.275 20.9975 359.709C20.8247 358.626 20.5944 357.532 20.4677 356.414L20.2488 354.733L20.1452 353.892C20.1106 353.581 20.0761 353.42 20.03 352.867C19.2928 345.391 19.1085 337.824 19.1892 330.221C19.3735 314.994 20.8247 299.629 22.1723 284.125C22.8289 276.373 23.4854 268.575 23.877 260.742L24.3493 248.994C24.4529 247.035 24.4644 245.077 24.476 243.119L24.522 237.245C24.6833 230.138 24.4414 223.089 24.3953 216.085C24.3493 223.354 24.4529 230.622 24.1535 237.89C24.0152 241.518 24.0037 245.158 23.7618 248.786C23.543 252.415 23.3242 256.043 23.1168 259.66C22.1378 274.161 20.364 288.456 19.0164 302.623C18.3253 309.707 17.7724 316.768 17.4269 323.783C17.0698 330.809 16.9547 337.801 17.2426 344.723C17.2772 346.462 17.3808 348.19 17.5075 349.906L17.6803 352.487C17.7148 352.89 17.7379 353.42 17.7724 353.707L17.8761 354.687L18.3023 358.603L18.8782 362.473L18.9473 362.957L18.9818 363.199H19.2237L20.2028 363.222L22.1608 363.245L26.0655 363.291C29.2905 363.337 32.5041 363.371 35.7176 363.418C91.2117 364.086 144.54 363.763 193.561 362.277C195.358 362.22 197.362 362.15 199.263 362.093C152.603 362.346 106.45 362.415 60.4239 362.139C92.7552 362.104 125.086 361.863 157.383 361.321L157.406 361.333Z" fill="#1D1D1B"/>
<path d="M16.0566 293.028C16.4137 289.654 16.7592 286.336 17.1163 282.996C17.4388 279.091 17.7498 275.267 18.0147 271.431C17.7728 273.77 17.5194 276.119 17.2776 278.435C16.8629 283.318 16.4598 288.191 16.0566 293.028Z" fill="#1D1D1B"/>
<path d="M41.4424 373.404C41.8686 373.415 42.3062 373.427 42.7554 373.45C53.8243 373.485 65.089 373.531 76.4458 373.565C92.1104 373.381 108.478 373.185 125.202 372.989C94.8978 373.058 64.9278 372.955 41.4424 373.404Z" fill="#1D1D1B"/>
<path d="M138.471 379.808C141.972 379.82 148.964 379.843 152.488 379.854C154.619 379.728 156.727 379.589 158.869 379.463C155.587 379.44 152.269 379.417 148.975 379.394L138.482 379.797L138.471 379.808Z" fill="#1D1D1B"/>
<path d="M345.209 374.683C283.161 376.733 224.96 378.115 167.266 378.979C164.467 379.14 161.657 379.302 158.869 379.463C197.593 379.693 236.109 379.244 271.597 377.608C278.588 377.297 289.104 376.503 296.107 376.41C329.268 375.754 360.816 374.418 392.272 373.001C377.229 373.542 362.037 374.072 346.51 374.637C346.073 374.648 345.658 374.66 345.22 374.671L345.209 374.683Z" fill="#1D1D1B"/>
</g>
<defs>
<clipPath id="clip0_329_265">
<rect width="433.207" height="379.889" fill="white"/>
</clipPath>
</defs>
</svg>
