<svg width="434" height="380" viewBox="0 0 434 380" fill="none" xmlns="http://www.w3.org/2000/svg">
<g clip-path="url(#clip0_211_1698)">
<path d="M380.061 369.161C383.309 369.115 386.385 369.081 386.385 369.081C386.385 369.011 386.316 368.931 386.281 368.862C384.012 368.977 381.985 369.069 380.073 369.161H380.061Z" fill="#1D1D1B"/>
<path d="M373.91 371.949C374.566 371.949 375.234 371.937 375.902 371.926C375.672 371.868 375.637 371.81 375.511 371.753C375.004 371.822 374.509 371.88 373.91 371.96V371.949Z" fill="#1D1D1B"/>
<path d="M386.268 368.85C385.773 368.032 383.136 367.249 386.338 366.374C389.828 366.316 396.796 366.212 400.309 366.166C403.799 365.659 400.298 365.268 400.286 364.819C403.776 364.761 407.266 364.715 407.266 364.485C409.547 363.863 405.757 363.529 398.984 363.483C383.988 366.27 345.667 367.606 386.257 368.85H386.268Z" fill="#1D1D1B"/>
<path d="M358.418 371.004C364.546 370.935 370.673 370.854 376.812 370.785C378.713 370.244 381.304 369.691 379.438 369.196C369.925 369.691 364.119 370.209 358.418 371.004Z" fill="#1D1D1B"/>
<path d="M417.979 339.95C418.117 339.95 418.186 340.273 417.944 343.417C417.956 342.196 417.967 341.091 417.979 339.95C417.852 339.904 417.656 340.1 417.598 338.534C417.645 344.592 417.748 351.158 417.483 357.919C417.437 359.612 417.391 361.317 417.345 363.022C417.299 364.726 417.264 366.489 417.126 368.055C416.988 369.633 416.758 371.119 416.343 372.375C416.136 372.997 415.871 373.561 415.571 374.056C415.422 374.31 415.26 374.529 415.088 374.747L414.823 375.058C414.742 375.128 414.684 375.174 414.615 375.243C414.166 375.945 413.072 376.59 412.058 376.775C412.749 376.786 413.475 376.648 414.097 376.372C414.408 376.245 414.684 376.072 414.938 375.888C415.076 375.807 415.157 375.692 415.272 375.6C415.387 375.508 415.514 375.323 415.64 375.197C416.619 374.033 417.207 372.398 417.552 370.555C417.886 368.7 418.013 366.685 418.082 364.554C418.163 362.446 418.243 360.326 418.313 358.23C418.474 354.026 418.647 349.845 418.624 345.698C418.624 341.551 418.704 337.439 418.635 333.362C418.428 317.098 417.437 301.594 416.136 287.68C416.631 297.54 417.126 305.867 417.437 314.092C417.518 316.153 417.61 318.204 417.691 320.265C417.737 322.327 417.783 324.412 417.829 326.543C417.909 330.793 418.048 335.193 417.944 339.939L417.979 339.95Z" fill="#1D1D1B"/>
<path d="M409.973 377.708C409.178 377.305 408.637 376.717 408.372 375.923C408.66 377.005 409.247 377.408 409.535 377.604C409.869 377.777 409.938 377.766 409.984 377.696L409.973 377.708Z" fill="#1D1D1B"/>
<path d="M182.203 18.2643C161.09 18.6444 142.569 19.6349 123.864 20.6831C163.601 19.4391 204.387 18.8171 234.714 17.8957C217.287 18.0224 199.791 18.1376 182.203 18.2643Z" fill="#1D1D1B"/>
<path d="M30.7981 25.5437C56.9211 25.3018 78.4369 24.2652 98.9736 23.1479C78.0683 23.7123 57.3012 24.3803 36.6378 25.0484C34.7027 25.2097 32.664 25.3824 30.7981 25.5437Z" fill="#1D1D1B"/>
<path d="M59.7429 23.436C83.6544 22.9292 103.869 21.7659 123.853 20.6716C101.369 21.3627 79.3812 22.2727 59.7429 23.436Z" fill="#1D1D1B"/>
<path d="M425.166 128.541C425.131 130.465 425.108 132.285 425.074 134.024C425.097 135.763 425.12 137.422 425.131 138.977C425.154 142.099 425.178 144.886 425.201 147.351C425.304 152.292 425.373 155.955 425.431 158.616C425.753 160.977 426.087 164.076 426.698 168.303C426.675 167.405 426.663 166.437 426.64 165.55C426.064 149.62 426.099 133.517 426.94 117.299C427.205 110.584 427.47 104.18 427.688 98.8124C426.583 108.845 425.638 118.716 425.178 128.541H425.166Z" fill="#1D1D1B"/>
<path d="M425.43 158.616C425.706 179.418 422.746 138.482 425.43 158.616V158.616Z" fill="#1D1D1B"/>
<path d="M418.059 57.0234C418.093 56.2402 418.128 55.4339 418.174 54.6276C418.255 52.3239 418.232 49.9627 418.243 47.6705C418.232 49.26 418.22 50.815 418.209 52.3585C418.163 53.9019 418.116 55.4454 418.07 57.0119L418.059 57.0234Z" fill="#1D1D1B"/>
<path d="M267.506 7.31003C281.327 7.20637 295.183 7.10269 308.798 7.01054C280.728 7.05661 252.417 7.27547 228.978 8.02417C232.468 8.02417 235.981 8.23151 239.482 8.22C246.485 7.77078 256.966 7.31004 267.506 7.32156V7.31003Z" fill="#1D1D1B"/>
<path d="M413.406 165.988C413.28 161.231 413.245 156.485 413.164 151.751C413.107 149.378 413.141 147.017 413.164 144.656C413.187 142.295 413.21 139.933 413.233 137.584C413.21 132.872 413.533 128.173 413.683 123.485C413.832 118.797 414.12 114.132 414.454 109.479C415.79 90.8879 417.783 72.5966 418.163 54.6164C418.555 45.5053 418.532 36.4403 417.818 27.479C417.749 26.2926 417.633 25.4057 417.541 24.4266L417.23 21.547C417.011 19.6349 416.677 17.7459 416.412 15.8454L416.355 15.4883C416.343 15.3731 416.355 15.2234 416.182 15.2695H415.456L414.017 15.2464L411.137 15.2119C409.214 15.1888 407.29 15.1658 405.378 15.1428C387.421 14.9124 369.707 14.7972 352.291 14.7972C317.472 14.7742 283.874 15.2119 252.095 16.1334C224.118 17.0318 185.659 17.5501 147.212 18.5983C108.764 19.6234 70.3286 21.1784 42.4088 23.6779C48.4212 23.6318 54.1917 23.5397 59.7319 23.413C51.5426 23.9083 43.814 24.4496 36.6267 25.0371C32.5723 25.1753 28.5294 25.3251 24.4866 25.4633C23.4615 25.5209 22.4364 25.59 21.4228 25.6476L21.3652 27.5827L21.3307 28.5157L21.2846 29.4026L21.1694 31.3492C20.8469 36.544 20.6396 41.7388 20.4092 46.9221C19.8909 57.3001 19.5799 67.6783 19.2113 78.0563C18.6469 98.8125 18.3129 119.569 18.359 140.383C18.4511 161.196 18.7621 182.079 19.4648 203.066C20.2134 224.052 21.1924 245.166 22.5861 266.429C23.5306 280.32 24.9589 290.675 26.1567 304.52C27.3892 318.549 28.7713 332.325 30.3148 346.032C30.3723 346.078 30.4069 345.894 30.4069 345.514C30.9022 349.684 31.3169 354.567 31.8928 357.251C32.0425 357.965 32.2037 358.576 32.365 359.048C32.4225 359.232 32.4571 359.267 32.5147 359.382C32.6068 359.578 32.7796 359.705 32.9409 359.831C33.0676 359.9 33.2058 359.947 33.344 359.97C33.4016 359.981 33.5053 359.981 33.5398 359.993L34.0812 360.039L34.8529 360.085C35.9125 360.142 37.433 360.154 38.9764 360.188L43.5375 360.269C49.6306 360.361 55.7121 360.465 61.8052 360.557C73.9913 360.695 86.2005 360.833 98.4788 360.983C123.024 361.191 147.799 361.283 173.104 361.202C201.059 361.34 229.036 361.467 256.956 361.605C267.438 361.605 267.438 362.515 274.429 362.723C302.372 363.794 323.346 364.577 354.791 364.704C354.791 364.704 354.791 365.153 354.791 365.383C359.617 365.268 363.936 365.222 367.484 365.245C352.487 367.952 314.166 369.207 354.756 370.567C352.51 370.682 350.483 370.774 348.548 370.855C348.306 370.855 348.099 370.855 347.868 370.855C347.891 370.855 347.891 370.866 347.914 370.878C338.389 371.361 332.607 371.834 326.894 372.605C333.01 372.559 339.149 372.502 345.288 372.456C344.136 372.778 343.388 373.112 344.01 373.412C343.48 373.481 342.985 373.538 342.397 373.607C339.679 373.63 337.387 373.653 337.387 373.653C336.5 373.838 335.843 374.011 335.394 374.183C319.35 375.289 294.056 375.911 298.916 376.821C302.66 377.282 314.397 376.821 327.712 376.429C328.518 376.51 329.439 376.579 330.384 376.637C312.888 376.994 330.395 378.215 319.902 378.514C305.908 378.606 291.925 378.906 277.931 378.929C220.939 379.021 172.909 378.929 116.908 378.733C114.431 378.722 111.989 378.71 109.536 378.699C95.9563 378.606 82.7681 378.457 69.649 378.203C63.0837 378.054 56.5414 377.915 49.9877 377.766C46.705 377.673 43.4224 377.593 40.1282 377.501C38.4581 377.455 36.7995 377.397 35.1293 377.351C34.254 377.316 33.3555 377.259 32.4341 377.167C31.5587 377.086 30.4069 376.936 29.3933 376.717C31.6739 377.017 33.5744 376.948 35.4749 376.89C33.6205 376.81 31.7085 376.717 29.4279 376.245C27.2509 375.796 25.1317 375.024 23.2888 373.78C22.16 372.985 21.1003 372.075 20.2134 371.016C19.3265 369.945 18.5663 368.781 17.9443 367.549C17.3454 366.316 16.8156 364.969 16.447 363.713C16.0899 362.504 15.802 361.294 15.5832 360.108C15.1339 357.735 14.8806 355.397 14.6502 353.208L13.9245 346.551L12.4272 333.224L10.9874 319.897C5.22836 267.626 1.51956 215.056 0.863037 158.904C0.575104 134.646 0.770874 110.746 1.34677 86.8104L1.55411 77.8375C1.65778 74.8427 1.74991 71.8479 1.85358 68.8531C2.04938 62.8636 2.22217 56.8625 2.51013 50.8499C2.78656 44.8372 2.99387 38.8016 3.31638 32.7544C3.76556 24.6339 4.22629 16.4904 4.68701 8.31235C16.6773 7.87463 29.1284 7.42542 41.6946 6.9762C36.5806 7.20657 31.4666 7.44849 26.3525 7.67883C19.2113 7.9668 12.0701 8.24323 4.90585 8.53119C4.43362 17.6192 3.9614 26.7418 3.47763 35.9105C3.16666 43.0634 2.86719 50.2624 2.55621 57.519C2.07245 68.7495 1.56561 79.9339 1.33527 90.8188C1.74991 79.5537 2.15308 68.4846 2.55621 57.519C2.94781 50.343 3.33942 43.144 3.73102 35.9681C4.30695 26.9492 4.88284 17.9648 5.4472 9.09558C14.4313 8.81915 23.3118 8.55423 32.0194 8.28931C38.9073 8.02438 45.6684 7.75943 52.2222 7.50604C65.3413 6.90707 77.6656 6.25055 88.7575 5.30606C92.3627 5.43274 92.3627 5.65161 95.8527 5.59402C120.375 5.12177 144.874 5.05261 165.871 3.91229C165.871 3.68192 176.399 3.58981 172.886 3.17514C193.895 2.72592 218.428 2.63376 239.437 2.12695C248.536 1.9772 257.601 1.53952 266.7 1.00967C304.307 0.468292 341.695 0.157318 379.831 0.111237C384.599 0.111237 389.379 0.111237 394.171 0.0997009C396.567 0.0997009 398.963 0.0997314 401.37 0.111237C404.56 0.134277 407.751 0.145782 410.953 0.168823L417.806 0.237915L424.59 0.422211L428 0.514374L428.852 0.537415H429.278C429.416 0.54892 429.601 0.514374 429.566 0.710175L429.819 2.39191C430.165 4.63797 430.511 6.88403 430.856 9.13013C431.593 13.6339 432.089 18.1951 432.711 22.7679C433.091 25.4978 433.091 26.258 433.217 27.6633L433.528 31.568C434.853 52.4279 433.033 72.9767 431.236 93.134C430.326 103.167 429.221 113.706 428.691 124.199C428.403 129.452 428.046 134.704 427.988 139.922C427.919 142.525 427.85 145.105 427.781 147.662C427.689 150.208 427.758 152.753 427.735 155.23C427.689 153.398 427.643 151.567 427.596 149.724C427.596 147.893 427.596 146.061 427.596 144.218C427.62 140.544 427.596 136.846 427.666 133.16C427.931 125.789 428.103 118.382 428.668 110.872C429.693 95.8408 431.351 80.2563 432.169 64.1306C432.745 56.3211 433.114 48.4886 433.021 40.6906C433.045 38.7555 432.941 36.7974 432.883 34.8623C432.849 33.8947 432.814 32.9272 432.78 31.9597C432.711 30.9921 432.653 30.0245 432.584 29.0685C432.515 28.101 432.446 27.1449 432.388 26.1889L432.342 25.4748L432.319 25.1177L432.25 24.5072L431.95 22.0423C431.536 18.7711 431.156 15.5114 430.718 12.2977C430.234 9.09558 429.762 5.9165 429.278 2.76047L429.094 1.5856L429.048 1.2861L429.025 1.13635C429.025 1.13635 428.933 1.12485 428.898 1.11334H428.299L425.926 1.03268C424.348 0.986633 422.782 0.940552 421.215 0.906006C418.106 0.802338 414.961 0.790833 411.851 0.767792C410.308 0.767792 408.764 0.74472 407.233 0.74472C406.207 0.74472 405.182 0.74472 404.157 0.74472C397.569 0.790802 391.245 0.89447 385.244 1.10181C379.658 1.22852 374.095 1.34369 368.509 1.4704C376.963 1.4704 385.394 1.4704 393.814 1.4704C398.156 1.4704 402.487 1.49344 406.806 1.50494C410.573 1.53952 414.328 1.5856 418.094 1.62015L423.68 1.7699L426.479 1.83899C427.32 1.9657 428.702 1.48193 428.495 2.80655C429.059 6.49243 429.624 10.1783 430.188 13.8527C430.672 17.5732 431.144 21.2936 431.628 25.0025C431.812 27.2371 431.996 29.4601 432.181 31.6947C432.284 33.8947 432.4 36.0832 432.503 38.2832C432.803 47.0372 432.607 55.6646 432.181 64.1306C430.822 82.5831 428.218 100.828 426.882 118.336C426.894 117.979 426.905 117.657 426.917 117.277C427.689 103.501 429.151 89.3444 430.2 74.7621C431.501 61.0782 432.307 47.3022 431.685 33.9293C431.639 32.2591 431.501 30.589 431.386 28.9418C431.328 28.1125 431.259 27.2947 431.202 26.4654L431.109 25.2329L430.856 23.2057C430.511 20.5103 430.177 17.8266 429.831 15.1658C429.497 12.5051 429.036 9.90189 428.656 7.31024C428.449 6.02017 428.253 4.7301 428.057 3.45157L427.907 2.49554C427.919 2.38037 427.838 2.39191 427.746 2.39191H427.504L427.021 2.38037L425.074 2.33429C422.494 2.2767 419.937 2.23062 417.403 2.17303C414.857 2.17303 412.324 2.17303 409.824 2.1615C408.58 2.1615 407.348 2.1615 406.115 2.1615C405.378 2.17303 404.652 2.18454 403.927 2.19608C401.139 2.26517 398.375 2.33429 395.737 2.39191C390.174 2.50708 384.588 2.63379 379.013 2.74896C384.219 2.74896 389.426 2.74896 394.632 2.74896C397.235 2.74896 399.826 2.76047 402.418 2.77197C406.023 2.79501 409.617 2.81805 413.21 2.84109C417.668 2.84109 421.987 3.02539 426.399 3.10602L427.228 3.12906L427.355 3.93536L427.608 5.55945L428.103 8.80762C428.426 10.9731 428.806 13.1386 429.082 15.3156L429.923 21.8695L430.349 25.1523L430.522 27.2371C430.741 29.9439 430.983 32.6623 431.075 35.3576C431.432 42.0613 431.409 48.7074 431.236 55.2845C431.075 61.873 430.66 68.3578 430.223 74.7736C429.462 82.8135 428.541 90.8648 427.689 98.801C427.712 97.9602 427.746 97.0617 427.769 96.29C428.011 92.7999 428 86.0847 427.666 81.5119C427.332 76.9506 426.698 74.5778 425.88 79.8302C424.613 93.3413 422.874 108.016 422.114 122.391C421.93 125.996 421.757 129.578 421.573 133.137C421.457 136.697 421.423 140.244 421.354 143.723C421.319 145.462 421.285 147.19 421.262 148.895C421.273 150.611 421.285 152.304 421.296 153.974C421.331 157.326 421.354 160.586 421.377 163.753C421.561 170.089 421.722 176.009 421.941 181.33C422.206 186.652 422.436 191.375 422.632 195.302C422.874 199.23 423.058 202.375 423.185 204.529C423.243 205.611 423.289 206.441 423.312 207.005C423.312 207.281 423.335 207.5 423.335 207.65C423.335 207.788 423.335 207.869 423.335 207.869C423.151 208.744 422.644 203.676 421.976 195.636C421.711 191.616 421.4 186.859 421.066 181.734C420.766 176.608 420.582 171.114 420.34 165.608C420.19 160.114 420.121 154.619 420.018 149.494C420.052 144.379 420.087 139.634 420.121 135.625C420.317 127.62 420.57 122.575 420.444 123.427C420.075 128.519 419.591 133.61 419.453 138.724C419.338 133.863 419.499 129.117 419.522 124.74C419.787 114.374 421.515 100.563 421.768 93.5256C422.344 81.2815 423.542 68.1275 423.957 54.409C424.141 47.5556 424.187 40.5524 423.761 33.5031C423.68 31.7408 423.496 29.9785 423.358 28.2046L423.243 26.88C423.197 26.4078 423.185 26.0622 423.104 25.4863L422.701 22.3187C422.413 20.2109 422.195 18.1145 421.814 16.0527L421.296 12.9658L421.031 11.4338L420.904 10.6736L420.835 10.2935C420.72 10.2705 420.57 10.2935 420.444 10.282C417.783 10.305 415.065 10.3281 412.277 10.3511C409.651 10.3972 406.968 10.4433 404.238 10.4893C399.481 10.6045 394.551 10.7312 389.518 10.8464C379.451 11.1344 368.958 11.4454 358.453 11.7448C358.453 12.1941 347.926 11.8485 351.439 12.3438C331.697 12.1134 308.845 11.9637 300.379 13.2422C299.895 13.2422 299.423 13.2653 298.951 13.2653C297.557 13.2653 295.576 13.3228 293.468 13.415C260.619 13.0464 237.698 14.3365 207.924 15.3386C197.684 15.4768 187.272 15.615 176.548 15.7532C183.551 15.6841 194.033 15.8223 201.047 15.5689C203.374 15.4883 205.666 15.4077 207.924 15.3386C234.473 14.8318 259.743 14.3595 284.991 13.8758C287.053 13.7491 290.37 13.5417 293.468 13.4035C295.3 13.4265 297.108 13.4611 298.951 13.4841C299.389 13.3919 299.872 13.3113 300.379 13.2307C324.533 12.6893 351.854 12.7584 372.448 12.3668C382.158 12.3207 392.029 12.3208 401.98 12.4359C407.083 12.5051 412.208 12.5742 417.345 12.6433C419.131 12.1134 418.739 14.0485 419.039 15.2119L419.603 19.0705C419.891 21.6392 420.179 24.2654 420.398 26.8109C421.953 47.0027 420.029 67.2866 417.933 86.9601C419.591 67.3442 420.847 47.832 419.108 28.9073C420.133 40.7597 419.948 52.3703 419.373 63.7044C418.797 75.0385 417.76 86.0962 416.873 97.0042C416.539 100.379 416.205 103.673 415.871 107.002C415.537 110.492 415.249 113.971 414.973 117.461L414.351 127.943C414.581 124.683 414.811 121.435 415.053 118.21C415.364 114.984 415.629 111.771 415.975 108.557C415.721 111.805 415.549 115.053 415.353 118.29C415.238 121.527 415.111 124.752 414.996 127.977C414.869 131.191 414.742 134.393 414.777 137.595C414.765 140.786 414.754 143.976 414.731 147.144C414.719 182.16 417.691 217.648 420.398 253.298C423.024 288.936 425.397 324.919 423.496 360.603C423.277 359.198 423.07 357.585 422.874 355.788C423.415 338.626 423.208 321.452 422.402 305.107C421.561 288.763 420.306 273.247 418.751 259.31C420.087 279.03 421.296 292.656 421.976 311.73C421.849 311.719 421.665 311.903 421.538 310.314C422.298 322.5 422.54 336.76 422.367 350.628C421.849 346.171 421.331 341.195 420.812 336.242C420.329 329.238 420.248 318.768 419.626 308.286C417.633 262.973 413.049 220.389 411.379 175.56C410.895 155.598 411.218 135.602 412.773 115.756C414.362 95.9329 417.104 76.3977 418.06 57.0122C417.38 76.2825 415.168 94.8041 414.005 112.9C412.911 131.018 412.773 148.641 413.406 165.976V165.988ZM280.315 370.14C276.733 370.256 273.024 370.371 269.315 370.486C269.891 370.544 270.444 370.59 270.974 370.636C274.36 370.636 277.712 370.405 280.315 370.129V370.14ZM198.513 369.749C222.517 370.29 254.134 369.875 284.68 369.426C284.853 369.369 284.957 369.3 284.957 369.253C259.329 369.127 227.815 369.634 198.513 369.749ZM102.694 363.92C102.879 363.943 103.074 363.978 103.27 364.001C103.259 363.966 103.224 363.932 103.224 363.897C103.063 363.897 102.879 363.909 102.706 363.92H102.694ZM14.0858 25.7167C13.6942 39.4236 13.245 54.8237 12.7842 71.0877C12.2889 87.6627 12.001 105.113 11.978 122.564C11.8974 133.034 12.6921 143.481 12.8073 157.441C13.1643 174.892 13.8324 185.327 14.4544 199.276L14.6271 188.794C14.7308 194.899 14.9266 200.347 15.1454 205.462C15.4219 210.576 15.7444 215.356 16.0554 220.148C16.3664 224.928 16.6774 229.708 17.0114 234.822C17.3454 239.925 17.5527 245.361 17.8177 251.455C18.048 251.443 18.7045 254.887 18.9119 258.366C20.1443 275.724 21.0888 293.151 22.7243 306.985C23.5652 315.647 24.5096 324.297 25.362 332.521C25.8573 336.622 26.3295 340.619 26.7902 344.454C27.0321 346.366 27.274 348.244 27.5043 350.075C27.7462 351.884 27.9766 353.761 28.23 355.224C28.3221 355.95 28.4834 356.779 28.7137 357.654C28.9326 358.507 29.2551 359.463 29.5661 360.119C30.0038 360.903 30.6603 361.628 31.5011 362.008L31.7776 362.124C32.0425 362.25 32.3074 362.331 32.5953 362.388C32.7336 362.412 32.8718 362.446 33.0215 362.458L33.5859 362.515C34.277 362.573 35.1063 362.619 36.0508 362.63L39.1607 362.688C43.4224 362.757 47.6956 362.826 51.9572 362.895C51.5771 362.826 51.2316 362.757 50.9091 362.688C47.4421 362.619 43.9406 362.538 40.4276 362.469C38.746 362.446 37.0529 362.412 35.3712 362.388C34.6456 362.365 34.0005 362.331 33.4477 362.296C33.1367 362.273 32.9754 362.262 32.7336 362.227C32.365 362.17 31.9849 362.077 31.6048 361.859C31.0519 361.536 30.5682 361.041 30.2687 360.419C30.1881 360.269 30.1075 360.108 30.0499 359.947C29.9462 359.716 29.8195 359.255 29.7043 358.887C29.4739 358.069 29.2666 357.113 29.0823 356.065C28.7253 354.049 28.4258 351.25 28.0918 348.693C27.7693 346.101 27.4468 343.487 27.1243 340.884C26.4677 335.677 25.8458 330.471 25.3044 325.357C24.7516 320.243 24.2217 315.221 23.7034 310.394C18.6585 258.4 15.5716 209.7 14.1894 160.931C14.0512 155.714 13.8669 150.473 13.6711 145.243C13.4753 140.014 13.3947 134.785 13.3026 129.555C12.934 113.856 13.1989 96.4052 13.4638 80.2679C13.6366 72.205 13.8209 64.4646 13.9015 57.4269C14.0512 50.4007 14.1088 44.0655 13.9821 38.8246C13.9476 37.0738 14.0628 34.4476 14.1434 31.833C14.1664 31.1764 14.1779 30.5198 14.201 29.8748C14.201 29.5523 14.2125 29.2413 14.224 28.9188C14.224 28.6424 14.224 28.3774 14.224 28.1125C14.224 27.2256 14.1779 26.3963 14.1088 25.7052L14.0858 25.7167ZM40.5544 8.07047C35.7398 8.31235 30.8561 8.55423 25.9264 8.79614C19.3265 9.07257 12.6576 9.34903 5.96555 9.62546C5.51633 18.3795 5.05563 27.191 4.60641 35.9911C4.30695 43.1095 3.99594 50.2048 3.69647 57.231C3.43155 64.2573 3.17816 71.1914 2.92474 77.9872C2.7059 84.7831 2.4986 91.4408 2.29126 97.8911C1.95724 111.932 1.84207 139.127 2.78653 161.035C3.24725 171.989 3.82315 181.618 4.46817 187.62C5.13623 193.621 5.79276 196.016 6.38019 192.492C4.353 180.57 3.16663 149.206 3.61584 114.282C3.67343 109.916 3.74255 105.493 3.80014 101.047C3.91531 96.601 4.03049 92.1319 4.14566 87.6743C4.353 78.7475 4.75613 69.8553 5.09015 61.2395C5.4472 52.6122 5.931 44.2728 6.28806 36.4518C6.80637 27.4214 7.29013 18.9899 7.72781 11.4453C11.3906 11.3071 14.8575 11.1689 18.1056 11.0537C21.1694 10.9155 24.0143 10.7888 26.6405 10.6621C31.098 10.4202 34.7492 10.1668 37.4445 9.90189C42.8234 9.38354 44.3438 8.78461 40.5544 8.07047ZM332.664 1.64316C317.99 1.86203 303.8 2.09241 287.122 2.02328C302.303 1.89661 317.472 1.76987 332.664 1.64316ZM183.505 10.7542C228.979 8.79611 277.977 8.55423 323.485 8.03592C340.992 7.84009 359.375 8.15109 377.32 8.40451C386.293 8.53122 395.15 8.63486 403.731 8.6694C409.133 8.69244 414.443 8.70398 419.649 8.72702H421.699H422.218C422.264 8.86523 422.275 9.0495 422.31 9.19925L422.482 10.1783C422.713 11.4799 422.932 12.7815 423.162 14.0716C423.646 16.6517 424.014 19.2433 424.406 21.8465L425.063 21.6507L424.302 16.9627C424.026 14.8663 423.749 12.8161 423.473 10.8119C423.335 9.79822 423.208 8.80765 423.081 7.81705C422.137 7.74796 421.146 7.72491 420.202 7.67883C418.278 7.59821 416.401 7.50607 414.546 7.42545C412.658 7.35632 410.803 7.29871 408.96 7.22961C403.362 7.01077 398.018 6.80344 392.582 6.58456C393.169 6.58456 393.802 6.56155 394.378 6.56155C393.342 6.56155 392.317 6.56155 391.268 6.55002C384.392 6.33118 377.262 6.20447 369.039 6.26205C365.272 6.31967 361.437 6.37723 357.578 6.43484C313.809 6.2966 268.635 6.46939 229.002 8.02438C204.503 8.76157 183.517 10.0516 159.029 10.9846C166.009 10.8925 176.525 11.0422 183.528 10.7542H183.505Z" fill="#1D1D1B"/>
<path d="M416.723 101.565C416.136 109.098 415.502 116.654 415.283 124.257C415.157 128.058 414.903 131.859 414.869 135.671C414.822 139.484 414.776 143.308 414.73 147.144C414.765 153.053 414.972 158.95 415.11 164.824C415.41 170.699 415.629 176.573 415.997 182.425C416.769 196.42 417.817 210.979 418.923 225.918C420.063 240.858 421.238 256.166 422.298 271.635C423.311 287.116 424.187 302.746 424.624 318.319C424.981 333.892 424.993 349.407 424.325 364.588C424.912 366.42 425.58 366.673 426.364 364.508C428.448 331.404 426.79 298.346 424.452 265.634C422.148 232.898 419.245 200.336 418.923 167.831C418.888 167.324 418.854 166.806 418.819 166.31C417.99 152.419 417.967 134.174 419.268 115.146C420.628 96.1171 423.127 76.0521 423.484 58.3598C423.622 49.5251 423.484 40.6559 422.781 31.8098L422.471 28.4925L422.321 26.8339L422.24 26.0045L422.113 25.0715C421.768 22.5605 421.491 20.061 421.1 17.6076L420.489 13.9448L420.19 12.1248L420.04 11.2149C420.063 11.0997 419.925 11.1688 419.856 11.1458H419.614H419.142H411.632L384.714 11.3416C375.96 11.4337 367.218 11.5374 358.476 11.7332C371.111 11.8829 383.597 12.0442 395.99 12.1939C402.314 12.2861 408.603 12.3782 414.892 12.4589L417.299 12.4934L418.508 12.5164C418.6 12.5164 418.716 12.5164 418.796 12.528L418.842 12.8275L418.934 13.4264L419.637 18.1835C419.902 19.7615 420.006 21.3626 420.201 22.9637C420.363 24.5532 420.57 26.1773 420.651 27.6862C421.169 33.837 421.25 39.9879 421.227 46.1502C421.123 52.3011 420.846 58.4519 420.397 64.6027C419.51 76.8929 418.059 89.1715 416.723 101.542V101.565Z" fill="#1D1D1B"/>
<path d="M98.985 23.1479C112.668 22.7908 126.421 22.4453 140.289 22.0882C178.874 21.0976 213.141 20.2222 248.179 19.3238C222.459 19.5196 196.612 19.7154 170.558 19.9228C144.47 20.4296 122.39 21.8578 98.9965 23.1594L98.985 23.1479Z" fill="#1D1D1B"/>
<path d="M276.594 18.6673C266.988 18.8862 257.566 19.105 248.167 19.3239C286.281 19.1281 324.117 19.0704 361.874 19.2432H407.209L410.549 19.2317C411.563 19.3469 413.233 18.7249 413.002 20.2914C413.175 21.3741 413.406 22.4684 413.532 23.5857L413.751 25.2674L413.855 26.1082C413.889 26.4192 413.924 26.5805 413.97 27.1334C414.707 34.6088 414.891 42.1764 414.811 49.7786C414.627 65.0059 413.175 80.3715 411.828 95.8753C411.171 103.627 410.515 111.425 410.123 119.258L409.651 131.006C409.547 132.965 409.536 134.923 409.524 136.881L409.478 142.755C409.317 149.862 409.559 156.911 409.605 163.915C409.651 156.646 409.547 149.378 409.847 142.11C409.985 138.482 409.996 134.842 410.238 131.214C410.457 127.585 410.676 123.957 410.883 120.34C411.862 105.839 413.636 91.5443 414.984 77.3767C415.675 70.2929 416.228 63.2321 416.573 56.2174C416.93 49.1911 417.045 42.1995 416.757 35.2769C416.723 33.5376 416.619 31.8098 416.492 30.0936L416.32 27.5135C416.285 27.1103 416.262 26.5805 416.228 26.2925L416.124 25.3135L415.698 21.3972L415.122 17.527L415.053 17.0432L415.018 16.8013H414.776L413.797 16.7783L411.839 16.7553L407.935 16.7092C404.709 16.6631 401.496 16.6286 398.282 16.5825C342.788 15.9144 289.46 16.237 240.439 17.7228C238.642 17.7804 236.638 17.8495 234.737 17.9071C281.397 17.6537 327.55 17.5846 373.576 17.861C341.245 17.8956 308.914 18.1375 276.617 18.6788L276.594 18.6673Z" fill="#1D1D1B"/>
<path d="M417.943 86.9716C417.586 90.3465 417.241 93.6638 416.884 97.0041C416.561 100.909 416.25 104.733 415.985 108.569C416.227 106.23 416.481 103.881 416.722 101.565C417.137 96.6816 417.54 91.8093 417.943 86.9716Z" fill="#1D1D1B"/>
<path d="M392.558 6.5961C392.131 6.58458 391.694 6.57305 391.245 6.55001C380.176 6.51546 368.911 6.46938 357.554 6.43482C341.89 6.61912 325.522 6.81493 308.798 7.01074C339.102 6.94163 369.072 7.04531 392.558 6.5961Z" fill="#1D1D1B"/>
<path d="M295.529 0.191799C292.028 0.180281 285.036 0.157234 281.512 0.145716C279.381 0.272418 277.273 0.410635 275.131 0.537338C278.413 0.560374 281.731 0.583408 285.025 0.606445L295.518 0.203294L295.529 0.191799Z" fill="#1D1D1B"/>
<path d="M88.7913 5.31731C150.839 3.26703 209.04 1.88484 266.734 1.02096C269.533 0.859704 272.343 0.698431 275.131 0.537173C236.407 0.306805 197.891 0.756041 162.403 2.39166C155.412 2.70265 144.896 3.4974 137.893 3.58955C104.732 4.2461 73.1843 5.58226 41.7284 6.99902C56.771 6.45766 71.9634 5.9278 87.4898 5.36339C87.9275 5.35187 88.3421 5.34036 88.7798 5.32884L88.7913 5.31731Z" fill="#1D1D1B"/>
</g>
<defs>
<clipPath id="clip0_211_1698">
<rect width="433.207" height="379.889" fill="white" transform="matrix(-1 0 0 -1 434 380)"/>
</clipPath>
</defs>
</svg>
