<?xml version="1.0" encoding="UTF-8"?>
<svg id="Layer_2" data-name="Layer 2" xmlns="http://www.w3.org/2000/svg" viewBox="0 0 436.56 413.77">
  <defs>
    <style>
      .cls-1 {
        fill: #fff;
      }

      .cls-2 {
        fill: #ffb19f;
      }

      .cls-3 {
        fill: #896555;
      }

      .cls-4 {
        fill: #7d8aff;
      }

      .cls-5 {
        fill: #187f50;
      }

      .cls-6 {
        fill: #00510a;
      }

      .cls-7 {
        fill: #d37163;
      }

      .cls-8 {
        fill: #e07a69;
      }

      .cls-9 {
        fill: #001627;
      }

      .cls-10 {
        fill: #c46457;
      }

      .cls-11 {
        fill: #6d5135;
      }

      .cls-12 {
        fill: #142b06;
      }

      .cls-13 {
        fill: #020001;
      }

      .cls-14, .cls-15 {
        opacity: .2;
      }

      .cls-16 {
        fill: #2e2e56;
      }

      .cls-15 {
        fill: #a2a59c;
      }

      .cls-17 {
        opacity: .05;
      }

      .cls-18 {
        fill: #ff937d;
      }

      .cls-19 {
        opacity: .07;
      }

      .cls-20 {
        fill: #ce926a;
      }

      .cls-21 {
        fill: none;
        stroke: #bababa;
        stroke-miterlimit: 10;
      }

      .cls-22 {
        fill: #1b1bef;
      }

      .cls-23 {
        fill: #9b6948;
      }

      .cls-24 {
        fill: #ffc1ac;
      }

      .cls-25 {
        fill: #f9c441;
      }

      .cls-26 {
        fill: #1b350a;
      }

      .cls-27 {
        fill: #376577;
      }

      .cls-28 {
        fill: #fcab9d;
      }

      .cls-29 {
        fill: #ffb9a6;
      }

      .cls-30 {
        fill: #60432b;
      }

      .cls-31 {
        fill: #e8e8e8;
      }

      .cls-32 {
        fill: #765341;
      }

      .cls-33 {
        fill: #888cf0;
      }

      .cls-34 {
        fill: #31996c;
      }

      .cls-35 {
        fill: #d37066;
      }

      .cls-36 {
        fill: #1e724c;
      }

      .cls-37 {
        fill: #f9b212;
      }

      .cls-38 {
        fill: #e58373;
      }

      .cls-39 {
        fill: #1c181a;
      }

      .cls-40 {
        fill: #fcfcfc;
      }
    </style>
  </defs>
  <g id="BACKGROUND">
    <path class="cls-30" d="m222.56,6.47c-12.49-1.71-20.64,1.17-24.71,3.09-2.66,1.26-5.67,3.09-5.53,3.4.19.42,6.07-2.48,14.19-4.2,4.37-.93,8.06-1.23,10.52-1.33"/>
    <path class="cls-30" d="m203.18,9.46c-6.72.61-10.62,3.09-12.52,4.59-1.24.98-2.58,2.3-2.47,2.44.15.19,2.86-2.03,6.89-3.9,2.17-1.01,4.06-1.61,5.33-1.96"/>
    <path class="cls-30" d="m210.79,7.97c-13.4,2.12-20.73,7.33-24.78,11.32-2.7,2.66-5.93,6.73-5.72,6.92.16.15,2.47-2.3,6.58-5.72,4.11-3.43,6.64-5.51,10.26-7.19,1.96-.91,5.01-2.06,9.11-2.57"/>
    <path class="cls-30" d="m207.6,12.4c-9.09.13-15.13,2.94-18.42,4.9-4.14,2.46-7.89,5.94-7.73,6.16.09.12,1.43-.79,4.96-2.84,3.85-2.23,5.77-3.35,7.68-4.12,1.86-.75,4.63-1.61,8.3-1.87"/>
    <path class="cls-30" d="m194.64,14.62c-6.31,5.97-10.01,11.5-11.95,14.75-2.44,4.09-4.43,8.51-4.28,8.53.08.01.85-1.38,2.95-4.85,2.28-3.77,3.42-5.66,4.61-7.34,1.16-1.64,2.93-3.92,5.45-6.45"/>
    <path class="cls-30" d="m235.76,9.39c-10.57-6.88-19.16-7.74-23.67-7.74-2.95,0-6.45.38-6.45.71,0,.46,6.55.34,14.63,2.25,4.35,1.03,7.81,2.33,10.09,3.28"/>
    <path class="cls-30" d="m216.96,3.82c-6.34-2.31-10.93-1.73-13.28-1.18-1.54.36-3.32.97-3.28,1.15.05.24,3.45-.61,7.9-.59,2.39.01,4.35.27,5.66.5"/>
    <path class="cls-30" d="m224.47,5.72c-13.02-3.8-21.87-2.21-27.24-.32-3.57,1.25-8.23,3.56-8.13,3.82.08.21,3.22-1.02,8.39-2.37,5.18-1.35,8.35-2.15,12.35-2.13,2.16.01,5.41.28,9.34,1.56"/>
    <path class="cls-30" d="m219.7,8.36c-8.27-3.76-14.94-3.79-18.75-3.42-4.79.46-9.67,2.01-9.62,2.27.03.15,1.63-.11,5.7-.46,4.43-.38,6.65-.57,8.7-.45,2.01.11,4.87.51,8.31,1.85"/>
    <path class="cls-30" d="m207.03,4.85c-8.25,2.71-13.96,6.14-17.09,8.25-3.95,2.66-7.63,5.81-7.51,5.89.07.05,1.36-.88,4.73-3.13,3.67-2.44,5.51-3.66,7.3-4.67,1.75-.99,4.33-2.3,7.68-3.52"/>
    <polyline points="107.43 53.5 108.51 59.35 124.35 59.44 107.43 53.5"/>
  </g>
  <g id="OBJECTS">
    <g>
      <g>
        <g>
          <path class="cls-22" d="m229.83,413.77l.73-1.89s.23.74.64,1.89h88.7l-12.5-89.98-140.33,14.99-8.36,74.99h71.12Z"/>
          <path class="cls-16" d="m254.22,386.35c9.08-1.09,33.24-24.32,39.79-61.14l-126.95,12.25-2.18,17.67c9.65,12.85,29.68,33.44,35.21,31.22,6.33-2.54,26-26.03,26-26.03,0,0,17.57,27.3,28.11,26.03Z"/>
        </g>
        <g>
          <path class="cls-34" d="m136.14,167.28s23.9,158.84,30.92,171.49c7.03,12.65,32.33,42.87,38.66,40.06,6.33-2.81,26-28.82,26-28.82,0,0,17.57,30.22,28.11,28.82,10.54-1.41,41.47-35.84,41.47-88.56s3.51-111.75,3.51-111.75c0,0,30.22-14.06,44.98-16.87l-2.81-18.98s-35.84-26.71-85.75-21.09l-67.47-2.81s-16.17-17.57-33.03-16.87c-16.87.7-79.42-2.81-146.89,36.55l37.95,29.52,84.34-.7Z"/>
          <path class="cls-24" d="m203.28,130.18c8.94,10.02,15.29,17.1,15.36,17.04.03-.03-1.42-1.69-1.2-1.92.31-.33,3.16,3.17,7.68,4.32,3.44.87,7.59.33,8.21-1.37.25-.68-.24-1.04-.29-1.99-.16-2.87,4.02-4.69,5.52-6.48,1.79-2.14,2.16-7.07-5.04-19.68"/>
          <path class="cls-34" d="m97.12,107.31c-24.43,4.7-53.36,13.71-83.27,31.16l37.95,29.52,80.3-.67c-10.61-20.59-22.42-40.57-34.98-60.01Z"/>
          <path class="cls-34" d="m304.93,176.15c7.94-3.58,32.9-12.21,44.87-14.49l-2.81-18.98s-7.57-5.63-20.57-11.17c-7.3,14.81-16.26,29.04-21.49,44.64Z"/>
          <path class="cls-19" d="m287.4,236.87c-19.02,10.14-37.44,21.84-57.13,30.66-23.62,10.58-48.91,17.49-74.59,19.75,4.68,26.06,9.01,47.2,11.4,51.5,7.03,12.65,32.33,42.87,38.66,40.06,6.33-2.81,26-28.82,26-28.82,0,0,17.57,30.22,28.11,28.82,10.54-1.41,41.47-35.84,41.47-88.56,0-21.08.56-43.16,1.24-62.08-4.88,3.05-9.95,5.9-15.15,8.67Z"/>
          <polygon class="cls-14" points="192.6 131.44 201.04 162.83 216.5 145.03 192.6 131.44"/>
          <polygon class="cls-14" points="252.19 123.1 254.77 155.73 232.54 145.17 252.19 123.1"/>
          <polygon class="cls-24" points="208.77 138.7 215.33 144.79 225.17 166.35 238.29 138.23 208.77 138.7"/>
          <polygon class="cls-5" points="240.4 190.71 285.85 185.56 285.85 192.12 239.46 194.93 240.4 190.71"/>
          <g>
            <path class="cls-1" d="m219.31,183.45c0,1.68-1.36,3.05-3.05,3.05s-3.05-1.36-3.05-3.05,1.36-3.05,3.05-3.05,3.05,1.36,3.05,3.05Z"/>
            <path class="cls-1" d="m221.89,219.53c0,1.68-1.36,3.05-3.05,3.05s-3.05-1.36-3.05-3.05,1.36-3.05,3.05-3.05,3.05,1.36,3.05,3.05Z"/>
            <path class="cls-1" d="m224.7,258.65c0,1.68-1.36,3.05-3.05,3.05s-3.05-1.36-3.05-3.05,1.36-3.05,3.05-3.05,3.05,1.36,3.05,3.05Z"/>
            <path class="cls-1" d="m226.57,293.33c0,1.68-1.36,3.05-3.05,3.05s-3.05-1.36-3.05-3.05,1.36-3.05,3.05-3.05,3.05,1.36,3.05,3.05Z"/>
            <path class="cls-1" d="m228.21,330.81c0,1.68-1.36,3.05-3.05,3.05s-3.05-1.36-3.05-3.05,1.36-3.05,3.05-3.05,3.05,1.36,3.05,3.05Z"/>
          </g>
          <path class="cls-24" d="m391.32,156.74s-6.38-1.24-10.22-.17c-6.52,1.81-26.58,9.33-19.5,15.25,7.72,6.45,29.72-15.08,29.72-15.08Z"/>
        </g>
      </g>
      <g>
        <g>
          <path class="cls-17" d="m238.2,129.19c-.94-2.22-2.23-4.81-3.97-7.85l-30.24,10.08c2.76,3.1,5.27,5.91,7.43,8.32,10.32,3.06,19.25-2.33,26.78-10.55Z"/>
          <path class="cls-24" d="m184.01,28.69c-.49,9-.75,21.51.28,36.37,4.34,62.68,15.22,65.2,18.51,66.56,13.84,5.72,36.2-8.1,44.4-23.76,1.84-3.51,2.99-7.62,5.28-15.84,2.03-7.26,4.81-17.44,5.28-30.24.38-10.39.7-15.76-1.68-21.84-5.73-14.65-20.29-21.47-26.77-24.02,0,0-43.47.43-45.31,12.77Z"/>
          <path class="cls-3" d="m251.66,54.97c-1.28-4.69-1.19-10.98-1.15-12.38.08-3.41.44-4.87-.46-6.61-1.58-3.07-4.61-2.25-5.66-4.41-1.89-3.88,3.86-14.74,7.8-14.11,3.82.61,4.91,12.72,7.08,36.96.52,5.8.73,9.77-.52,10.36-1.61.77-5.57-4.2-7.1-9.81Z"/>
          <g>
            <path class="cls-24" d="m250.91,69.97s-.69-15.55,10.23-11.55c10.92,4-.37,30.58-9,24.9,0,0-1.18-3.6-1.23-13.35Z"/>
            <path class="cls-29" d="m250.91,69.97s-.69-15.55,10.23-11.55c10.92,4-.37,30.58-9,24.9,0,0-1.18-3.6-1.23-13.35Z"/>
            <path class="cls-8" d="m262.18,64.27c-1.57-2.1-3.42-2.77-5.03-.4-1.24,1.84-1.33,4.16-1.39,6.4,0,1.56.1,3.18.28,4.72l-1.1-.91c1.78.2,4.19.31,5.09,2.2.31,1.33-.61,2-1.43,2.61-.71.47-1.45.81-2.22,1.09.8-.84,1.72-1.63,2.21-2.63.14-.3.11-.51.05-.52-.66-.51-2.71-.53-3.71-.5,0,0-.89.02-.89.02-.5-2.01-.81-4.03-.81-6.09.05-2.61.45-5.66,2.42-7.68,2.46-2.64,5.73-1.84,6.52,1.7h0Z"/>
          </g>
        </g>
        <g>
          <path class="cls-18" d="m211.73,55.96c-.76,11.04-2.78,22.12-5.16,32.9-.35,1.55-.69,3.09-1.09,4.63l-.85-1.24c2.03.47,4.05.99,6.07,1.53,2.02.56,4.03,1.12,6.03,1.79-2.1-.08-4.18-.29-6.27-.48-2.41-.26-4.82-.54-7.21-.89l.15-1.1c1.9-12.5,4.42-25.09,8.32-37.13h0Z"/>
          <path class="cls-9" d="m221.91,68.47c.05-6.85,9.21-10.11,13.32-4.35,1.17,1.6,1.82,3.5,1.71,5.38-3.99-6.84-10.33-7.73-15.02-1.02h0Z"/>
          <path class="cls-9" d="m187.53,64.69c.05-6.85,9.21-10.11,13.32-4.35,1.17,1.6,1.82,3.5,1.71,5.38-3.99-6.84-10.33-7.73-15.02-1.02h0Z"/>
          <path class="cls-32" d="m219.33,53.53c4.73-8.89,19.59-9.41,23.22.68-2.97-1-5.63-2.08-8.68-2.41-4.98-.48-9.45.73-14.54,1.73h0Z"/>
          <path class="cls-32" d="m185.87,50.79c4.73-8.89,19.59-9.41,23.22.68-2.97-1-5.63-2.08-8.68-2.41-4.98-.48-9.45.73-14.54,1.73h0Z"/>
          <path class="cls-40" d="m199.28,106.72l30.73-3.07s-17.76,20.15-30.73,3.07Z"/>
        </g>
      </g>
    </g>
    <g>
      <g>
        <g>
          <polygon class="cls-33" points="52.43 385.19 49.09 412.81 177.09 412.81 163.09 377.19 52.43 385.19"/>
          <polygon class="cls-4" points="52.43 385.19 49.09 412.81 177.09 412.81 163.09 377.19 52.43 385.19"/>
          <polygon class="cls-6" points="410.64 385.19 413.97 412.81 285.97 412.81 299.97 377.19 410.64 385.19"/>
          <path class="cls-27" d="m47.45,256.66l-46.03,12.12s-4.2-52.84,1.85-68.85c4.54-12,54.49-39.31,54.49-39.31,0,0,52.3-6.42,72.4.54,41.8,14.48,39.86,190.91,36.81,225.98,0,0-70.77,17.08-118.3,6.66l-1.23-137.14Z"/>
          <path class="cls-15" d="m141.28,301.85c-33.06-4.51-65.34-13.84-93.71-31.41l1.11,123.37c47.53,10.42,118.3-6.66,118.3-6.66,1.14-13.04,2.11-45.64.75-82.19-8.92-.72-17.84-1.93-26.44-3.1Z"/>
          <g>
            <path class="cls-18" d="m104.54,381.94s35.87-.44,8.93,7.97l-8.93-7.97Z"/>
            <path class="cls-18" d="m100.92,412.08c.21.25.42.49.63.73h6.14c-.64-1.18-1.11-1.98-1.11-1.98.66.7,1.28,1.35,1.89,1.98h6.82c-1.99-2.97-3.69-5.36-3.69-5.36,2.08,2.03,3.92,3.8,5.57,5.36h5.7c-3.4-4.44-6.96-8.76-6.96-8.76,4.25,3.92,7.54,6.8,10,8.76h4.89c-8.45-15.9-64.24-82.51-64.24-82.51l-19.11-73.64-38.93,9.5s16.09,55.27,26.12,74.53c10.03,19.25,46.51,48.36,66.28,71.39Z"/>
          </g>
        </g>
        <g>
          <path class="cls-25" d="m18.8,109.03c2.2-.39,4.21-1.51,6.24-2.45,4.01-1.85,6.44-4.61,10.49-10.93.36-.55.71-1.12,1.05-1.71.02.03.05.06.08.08.33.32.66.52.98.64.37-1.01.74-2.04,1.1-3.08l2.72-16.11c-1.78,5.58-3.95,10.44-5.95,16.9l7.36-34.02c-1.05-2.58-3.03-5.05-5.53-7.25,3.3-5.92,5.63-12.88,8.3-19.48.99,1,1.94,2.05,2.8,3.2.65.88,1.25,1.81,1.81,2.78,1.02,1.34,1.96,2.77,2.81,4.3.08.02.17.07.26.17,1.53,1.61,6.1,11.37,6.22,19.1.21,12.21-3.82,22.03-3.45,25.48.29,3.68.81,5.29,3.44,5.92,2.55.61,4.52-1.09,4.67-1.23-.21.37-3.93,6.6-7.79,4.7-.06,1.65-.14,4.42-1.14,7.67-3.24,10.58-8.28,15.94-11.98,18.59-.91,1.17-1.97,2.36-3.23,3.78-.47.53-5.64,3.38-8.74,2.13,1.09-1.99,3.41-5.01,4.93-7.88-3.16,2.25-6.05,4.04-8.34,6.97-.53.67-.98,1.31-1.35,1.89-.26-.19-.52-.38-.77-.57-.11-.08-.22-.16-.32-.24-.58-.44-1.13-.88-1.64-1.32.24-.55.49-1.01.72-1.31-.4.3-.81.59-1.21.87-1.69-1.05-3.09-2.31-2.98-3.61.24-2.9,7.81-4.4,7.62-5.12-.21-.79-9.58.11-9.73-.5,0,0-.02-.08-.03-.15-.06-.25-.12-.5-.17-.76-.02-.08-.03-.16-.05-.25-.05-.3-.1-.61-.14-.91,0-.03,0-.06-.01-.09-.05-.36-.08-.72-.09-1.08h0c0-.36,0-.69,0-1.04,0-.01,0-.04,0-.06,0-.02,0-.03,0-.05.14-.36,2.16,0,6.07,1.1-3.47-.83-6-1.57-6-1.8,0-.08.01-.17.01-.17.02-.13.05-.27.08-.42.04-.24.07-.48.12-.72.03-.19.06-.35.1-.54,0-.09.02-.17.06-.25,0,0,0-.02,0-.02.01-.13.04-.24.07-.35l.13-.53s0-.06.02-.1c.07-.17.35-.21.39-.22Z"/>
          <g>
            <path class="cls-38" d="m44.45,106.59s6.19,40.01,10.44,56.06c0,0,30.88,10.67,44.88-4.42l-9.74-38.7-45.59-12.94Z"/>
            <path class="cls-18" d="m37.03,70.77s-7.27-34.58,32.7-37.93c39.97-3.35,38.79,26.91,41.08,38.55,2.3,11.64,6.13,49.18,3.3,57.28s-10.36,20.76-22.12,22.32c-10.97,1.45-33.48-6.12-39.8-20.58-6.32-14.47-15.17-59.64-15.17-59.64Z"/>
            <path class="cls-18" d="m38.76,84.17s-7-8.63-11.89-1.73c-4.89,6.9.93,32.96,15.2,27.01,14.27-5.94-3.3-25.29-3.3-25.29Z"/>
          </g>
          <g>
            <path class="cls-1" d="m68.23,129.74s27.99-2.7,33.09-5.59c0,0-4.51,16.98-33.09,5.59Z"/>
            <path class="cls-35" d="m85.23,114.83c3.51-3.31,7.25-6.32,11.03-9.3,0,0-.44,1.27-.44,1.27-3.92-11.93-7.4-24.04-9.4-36.46,4.98,11.56,8.54,23.64,11.63,35.82,0,0,.21.85.21.85-4.26,2.75-8.54,5.46-13.04,7.83h0Z"/>
            <path class="cls-25" d="m57.11,71.78s12.06-12.57,24.05-5.21"/>
            <path class="cls-25" d="m90.47,66.85s11.68-10.88,19.97-2.13"/>
            <path class="cls-9" d="m69.45,82.21c.49,3.72-.36,6.9-1.9,7.1-1.54.2-3.18-2.65-3.67-6.37-.49-3.72.36-6.9,1.9-7.1,1.54-.2,3.18,2.65,3.67,6.37Z"/>
            <path class="cls-9" d="m101.89,78.63c.49,3.72-.36,6.9-1.9,7.1-1.54.2-3.18-2.65-3.67-6.37-.49-3.72.36-6.9,1.9-7.1,1.54-.2,3.18,2.65,3.67,6.37Z"/>
            <path class="cls-38" d="m28.68,91.64c.01-3.59,2.21-11.32,6.7-6.57,3.3,3.92,3.79,9.38,3.9,14.32,0,0,0,.59,0,.59-1.2.51-3.71,1.4-3.93,2.7.08.6.99,1.11,1.57,1.39.76.38,1.59.68,2.42.98-6.35-.27-6.77-3.72-1.24-6.43,0,0-.52.8-.52.8-.33-4.03-.9-8.39-2.71-12-.44-.75-1.02-1.64-1.72-2.09-2.07-1.16-3.86,4.75-4.46,6.32h0Z"/>
          </g>
        </g>
      </g>
      <g>
        <path class="cls-24" d="m33.21,125.5c-7.63,3.48-15.38,7.45-23.2,12.01l37.95,29.52,3.65-.03c-5.59-14.09-11.01-28.26-18.4-41.5Z"/>
        <polygon class="cls-36" points="49.13 160.23 29.45 121.81 42.57 114.31 56.63 162.11 49.13 160.23"/>
        <path class="cls-24" d="m10.01,137.51s-8.2,5.86-6.33,12.42c1.87,6.56,62.79,133.54,68.41,134.48,5.62.94-7.03-22.02-7.03-22.02,0,0,12.65,27.64,15.93,24.83,3.28-2.81-9.37-24.36-9.37-24.36,0,0,14.06,21.09,15.46,21.09s-7.97-24.83-7.97-24.83c0,0,9.84,13.59,11.25,13.12,1.41-.47-11.71-28.58-11.71-28.58,0,0,33.74-.47-1.87-8.43,0,0-22.07-68.99-25.77-74.03-5.15-7.03-29.52-23.43-41-23.66Z"/>
      </g>
    </g>
    <g>
      <path class="cls-14" d="m409.77,343.04c-5.43-9.45-9.69-14.6-9.69-14.6,0,0-94.65-44.04-107.77-8.43-3.06,8.3-5.45,17.86-7.33,27.66,25.72,6.14,75.38,13.43,124.78-4.63Z"/>
      <g>
        <path class="cls-33" d="m299.96,176.44s63.37,16.24,100.03-11.52c0,0,18.33,3.67,29.85,17.81,11.52,14.14,4.71,65.99,4.71,65.99l-44.78-8.38-23.83-41.9s-47.14,7.86-65.99-22Z"/>
        <path class="cls-33" d="m403.43,320.8s8.48,39.95,12.97,67.19c0,0-47.9,26.64-127.75-13.92,1.39-28.48,2.77-56.96,4.16-85.44,1.1-24.29,2.6-44.27,3.83-58.6,0,0,.82-9.51,5.48-56.33h0s49.4,24.82,73.35,21.79c23.95-3.03,25.45,60.54,25.45,60.54l2.49,64.77Z"/>
        <path class="cls-2" d="m379.46,163.42l-11.65-1.55.27-32.77-37.91,7.07,1.23,26.11c15.18,8.07,33.08,9.03,48.06,1.14Z"/>
        <path class="cls-33" d="m379.46,163.42c-14.98,7.89-32.88,6.93-48.06-1.14l.1,2.04-17.16,5.24c1.49,5.46,3.11,10.94,5.08,16.22,49.28,10.66,78.99-19.83,78.99-19.83l-18.95-2.53Z"/>
        <path class="cls-33" d="m301.69,173.82l14.41-5.39s5.97,17.22,37.95,14.76l-28.82,8.79-23.54-18.16Z"/>
      </g>
      <g>
        <g>
          <path class="cls-19" d="m368.01,148.34l.15-15.17-37.68,6.09.99,18.14c8.5-.64,23.36-2.66,36.55-9.06Z"/>
          <path class="cls-2" d="m345.94,26.61s-31.32,5.19-37.26,35.05c-5.95,29.85-5.55,97.35,36.87,86.53,42.42-10.82,42.96-49.69,44-62.74,2.38-29.85-15.06-61-43.61-58.84Z"/>
          <path class="cls-23" d="m381.48,69.88c.5,1.61,1.16,4.11,1.5,7.2.82,7.41-.95,11.31.38,11.88,1.53.65,6.05-3.61,6.95-8.64.29-1.58.15-2.86,0-4.14-.47-4.05-1.93-7.14-3.01-9"/>
          <path class="cls-28" d="m381.85,85.2s.95,15.65-1.42,24.18c0,0,10.43,1.42,14.7-12.33,4.27-13.75-6.64-21.34-13.28-11.85Z"/>
          <path class="cls-10" d="m393.51,88.36c-2.15-3.46-4.6-2.99-6.2.51-.77,2.02-.95,4.19-.96,6.41-.01,1.78.13,3.61.33,5.37l-.89-.75c2.09.02,6.85,1.06,4.84,4.01-.87,1.1-2.09,1.76-3.3,2.35.9-.89,1.9-1.76,2.47-2.86.17-.34.21-.66.11-.81-.15-.32-.95-.62-1.71-.73-1.02-.16-2.13-.15-3.15-.13,0,0-.16-.75-.16-.75-.8-4.65-1.29-10.14,1.7-14.15,2.59-3.15,5.91-2.38,6.92,1.53h0Z"/>
        </g>
        <g>
          <path class="cls-7" d="m330.07,84.82c-1.65,9.23-4.33,18.23-7.33,27.1,0,0-.2-.82-.2-.82,2.39,2.67,4.74,5.37,6.91,8.26-2.95-2.33-5.71-4.85-8.43-7.41,2.45-9.22,5.24-18.37,9.05-27.13h0Z"/>
          <path class="cls-7" d="m321.76,126.36c7.13,1.29,14.38,1.91,21.51.5,2.37-.4,4.62-1.22,6.99-2-.5.37-1,.72-1.52,1.07l-.78.52-.83.43c-7.82,3.95-17.65,3.46-25.36-.52h0Z"/>
          <path class="cls-11" d="m337.8,83.71c6.28-5.85,17.62-6.16,23.58.3-7.85-2.41-15.62-2.06-23.58-.3h0Z"/>
          <path class="cls-11" d="m305.84,84.32c4.63-6.35,15.57-6.02,19.52.9-.92-.28-1.68-.71-2.51-.99-5.54-2.36-11.34-1.76-17.01.09h0Z"/>
          <path class="cls-9" d="m351.89,93.35c-.09,3.75-1.43,6.76-2.98,6.72-1.55-.04-2.74-3.11-2.64-6.86.09-3.75,1.43-6.76,2.98-6.72,1.55.04,2.74,3.11,2.64,6.86Z"/>
          <path class="cls-9" d="m318.05,94.07c-.09,3.75-1.43,6.76-2.98,6.72-1.55-.04-2.74-3.11-2.64-6.86.09-3.75,1.43-6.76,2.98-6.72,1.55.04,2.74,3.11,2.64,6.86Z"/>
        </g>
      </g>
      <path class="cls-24" d="m379.55,162.4s1.33-6.73,6.83-6.73,24.42,2.57,19.42,16.57-13.74,26.61-5.32-2.85c0,0-17.7,45.05-6.68-1.49,0,0-17.33,45.55-7.41-2.74,0,0-16.11,42.65-6.83-2.77Z"/>
    </g>
    <path class="cls-18" d="m369.07,400.55s-32.4,10.1-6.73,7.28l6.73-7.28Z"/>
    <path class="cls-2" d="m383.6,412.42c12.17-26.72,31.49-58.62,35.92-79.44,4.89-22.97,9.63-87.87,9.63-87.87l-29.71-7.78-4.61,86.28s-23.88,59.9-33.25,88.81h22.02Z"/>
    <path class="cls-30" d="m254.54,28.56c1.86-.89,1.98-4.24,2.01-5.12.21-5.8-6.97-12.28-12.84-15.88-11.27-6.9-22.75-6.28-26.56-6.02-3.79.26-8.73.59-14.35,3.2-16.76,7.77-23.5,28.21-22.28,29.07.21.15.67-.3,1.76-1.15,4.94-3.87,9.58-5.62,14.73-7.56,11.34-4.27,22.57-3.82,26.06-3.59,8.62.57,13.44.89,18,3.46,0,0,3.74,1.2,11.2,3.59.42.14,1.38.43,2.27,0Z"/>
    <path class="cls-25" d="m40.58,86.62c-.79-.02-1.42-1.4-3.23-8.49-2.23-8.74-2.2-10.25-1.08-11.39,1.47-1.48,4.44-1.95,6.04-.97,1,.62,1.08,1.57,1.29,7.53.19,5.43.22,7.51-.86,10.23-.52,1.3-1.24,3.11-2.16,3.09Z"/>
    <path class="cls-30" d="m250.97,14.4c-8.56-9.26-16.68-12.2-21.06-13.3-2.86-.72-6.34-1.21-6.43-.89-.12.44,6.26,1.93,13.63,5.76,3.97,2.06,7.01,4.17,8.98,5.65"/>
    <path class="cls-30" d="m234.11,4.4C228.52.61,223.93.05,221.52,0c-1.58-.03-3.45.13-3.46.31,0,.25,3.5.25,7.8,1.36,2.32.6,4.16,1.33,5.36,1.87"/>
    <path class="cls-30" d="m240.92,8.09c-11.7-6.87-20.67-7.5-26.33-6.99-3.77.34-8.85,1.44-8.82,1.72.03.22,3.37-.2,8.71-.24,5.36-.04,8.62-.04,12.49.96,2.09.54,5.18,1.59,8.67,3.8"/>
    <path class="cls-30" d="m235.65,9.48c-7.1-5.67-13.56-7.34-17.34-7.91-4.76-.72-9.87-.42-9.88-.15,0,.15,1.61.29,5.64.95,4.39.72,6.59,1.08,8.55,1.69,1.92.6,4.6,1.69,7.6,3.83"/>
    <path class="cls-30" d="m224.23,2.97c-8.66.61-15.04,2.53-18.59,3.81-4.48,1.61-8.82,3.76-8.72,3.87.06.06,1.53-.52,5.35-1.87,4.16-1.47,6.23-2.2,8.22-2.74,1.94-.53,4.76-1.17,8.31-1.53"/>
    <path class="cls-30" d="m239.67,13.4c-10.55-6.91-19.14-7.8-23.65-7.8-2.95,0-6.45.36-6.45.7,0,.46,6.54.36,14.62,2.29,4.35,1.04,7.81,2.35,10.08,3.31"/>
    <path class="cls-30" d="m220.89,7.79c-6.33-2.33-10.92-1.76-13.27-1.22-1.54.35-3.32.96-3.28,1.14.05.24,3.46-.6,7.9-.57,2.39.02,4.35.28,5.65.51"/>
    <path class="cls-30" d="m228.39,9.71c-13.01-3.83-21.87-2.27-27.24-.4-3.58,1.24-8.24,3.54-8.14,3.8.08.21,3.22-1.01,8.39-2.34,5.19-1.33,8.36-2.13,12.35-2.09,2.16.02,5.41.29,9.33,1.59"/>
    <path class="cls-30" d="m223.61,12.34c-8.26-3.78-14.93-3.83-18.74-3.48-4.79.45-9.67,1.98-9.63,2.24.03.15,1.63-.1,5.7-.44,4.43-.37,6.65-.55,8.71-.43,2.01.12,4.87.53,8.3,1.88"/>
    <path class="cls-30" d="m210.95,8.79c-8.26,2.69-13.98,6.1-17.12,8.2-3.96,2.65-7.65,5.79-7.53,5.87.07.05,1.36-.88,4.74-3.11,3.68-2.43,5.52-3.64,7.31-4.65,1.75-.98,4.33-2.29,7.69-3.49"/>
    <path class="cls-12" d="m31.36,39.65c1.53-3.38,4.16-8.14,8.63-12.8,5.83-6.08,11.87-8.93,16.82-11.27,4.56-2.16,9.03-4.26,15.48-5.16.91-.13,11.8-1.53,19.95,2.68,3.21,1.66,4.78,3.56,5.3,4.22,1.56,2.01,2.16,3.94,2.52,5.09,0,0,1.53,4.93,6.91,21.16.63,1.89.97,3.89,1.87,5.66.35.68.57,1.03.42,1.27-.57.93-5.07-1.86-11.08-3.18-2.06-.45-7.62-1.53-14.49-.78-3.93.43-6.74,1.28-9.61,2.17-4.7,1.46-13.82,4.28-21.98,11.5-2.63,2.32-3.1,3.28-5.92,5.29-4.32,3.08-8.54,4.62-11.45,5.45"/>
    <path class="cls-26" d="m43.88,64.64c.13.37,2.39.54,6.89.86,2.01.15,3.01.22,3.02.22,3.45.17,6.24.04,14.69.24,0,0,.22,0,9.46.26.28-.01.7-.05,1.19-.16,2.18-.53,3.46-2.16,4.08-2.86,1.01-1.15,2.9-2.16,6.67-4.19,2.41-1.3,5-2.69,8.58-3.48,1.64-.36,5.18-.98,9.5-.35,3.35.49,7.12,1.85,11.72,3.46,0,0,1.08.38,3.87.92,1.38.27,1.64.25,1.71.13.28-.51-2.78-2.72-4.66-3.95-3.17-2.07-5.82-3.16-10.22-4.87-6.72-2.61-10.07-3.92-11.97-4.39-1.9-.47-6.22-1.52-11.57-1.54-12.35-.06-21.84,5.35-26.23,7.85-.18.11.07-.04-7.88,5.08-6.58,4.24-9.18,5.89-8.85,6.78Z"/>
    <g>
      <path class="cls-31" d="m71.32,37.27l-1.28-2.57-.47.14-.23-.45.48-.14-.08-.16c-.24-.47-.35-.95-.19-1.32.13-.31.4-.5.7-.59.23-.07.45-.07.6-.05l.14.53c-.11-.02-.26-.02-.44.04-.54.16-.45.67-.2,1.19l.09.18.82-.24.21.45-.81.24,1.23,2.58-.56.17Z"/>
      <path class="cls-31" d="m75.29,34.41c.38,1.11-.23,1.81-.97,2.03-.83.25-1.72-.12-2.13-1.05-.47-1.05-.01-1.91.92-2.18.96-.28,1.85.23,2.18,1.2Zm-2.52.78c.28.66.87,1.02,1.42.85.53-.16.76-.76.51-1.44-.19-.53-.72-1.15-1.44-.94-.71.21-.75.94-.5,1.53Z"/>
      <path class="cls-31" d="m75.83,33.62c-.12-.38-.24-.72-.36-1.03l.53-.15.22.65h.03c.01-.5.29-.9.69-1.01.07-.02.12-.03.18-.03l.16.58c-.06,0-.13.01-.21.04-.42.12-.62.53-.56,1,.01.08.03.18.05.28l.49,1.6-.54.16-.67-2.09Z"/>
      <path class="cls-31" d="m78.43,33.62c.2.75.75.91,1.3.75.39-.12.61-.26.8-.4l.17.36c-.17.14-.48.34-.95.48-.92.28-1.62-.15-1.87-1.08-.26-.97.11-1.95,1.07-2.23,1.06-.31,1.53.59,1.64,1.2.02.12.03.22.03.28l-2.18.65Zm1.57-.91c-.07-.38-.35-.94-1.01-.75-.59.17-.71.82-.66,1.24l1.67-.49Zm-.44-2.97l-.62,1.33-.43.13.37-1.26.68-.2Z"/>
      <path class="cls-31" d="m81.58,29.72l.15,1.04.84-.24.06.48-.83.24.26,1.77c.06.38.19.57.49.48.14-.04.24-.09.31-.13l.07.4c-.1.07-.26.15-.46.22-.25.07-.46.06-.61-.05-.18-.11-.28-.37-.34-.73l-.28-1.78-.49.15-.08-.48.5-.15-.14-.86.56-.35Z"/>
    </g>
    <g>
      <path class="cls-39" d="m79.67,71.81c1.12-.49,1.92.56,4.74.69,1.65.08,2.89-.21,3.77-.41,4.27-.98,5.84-3.27,6.76-2.62.91.64.01,3.3-.66,5.31-.79,2.35-1.41,2.56-1.6,2.6-.88.22-1.34-.87-3.16-1.23-.43-.09-1.41-.27-2.41.12-1.16.45-1.41,1.31-2.2,2.06-1.54,1.45-4.72,2.04-6.28.65-1.98-1.77-.89-6.33,1.03-7.17Z"/>
      <g>
        <path class="cls-13" d="m55.1,76.54c-.84,1.52-.51,3.61.14,7.8.46,2.97,1.07,5.01,1.44,6.13,1.06,3.22,1.58,4.83,3.04,5.94,1.3.99,2.63,1.09,5.23,1.24,5.01.29,9.07-.92,11.39-1.81,2.79-1.06,4.19-1.59,5.27-2.66,1.59-1.57,1.27-2.49,3.64-12.57.31-1.3.63-2.65.14-4.25-.71-2.31-2.65-3.57-3.29-3.97-.84-.53-2.55-1.41-8.55-1.2-6.47.23-10.64,1.48-11.74,1.83-3.84,1.2-5.78,1.83-6.72,3.54Z"/>
        <path class="cls-39" d="m67.78,98.14c-.95.05-1.9.04-2.86-.01-2.52-.15-4.04-.24-5.49-1.34-1.57-1.2-2.12-2.86-3.2-6.17-.63-1.92-1.11-3.95-1.46-6.21-.67-4.29-1.01-6.44-.09-8.1,1.05-1.91,3.16-2.56,6.99-3.76,1.92-.6,6.01-1.64,11.86-1.85,5.71-.21,7.72.57,8.82,1.27,1.8,1.14,2.98,2.56,3.49,4.24.53,1.71.18,3.17-.12,4.47v.04c-.69,2.92-1.16,5.09-1.5,6.69-.87,4.06-1.05,4.9-2.28,6.12-1.15,1.14-2.58,1.69-5.43,2.77-2.87,1.09-5.8,1.71-8.73,1.85Zm5.11-26.46c-5.37.26-9.13,1.21-10.93,1.78-3.87,1.21-5.61,1.8-6.44,3.31h0c-.76,1.37-.44,3.42.2,7.49.34,2.2.81,4.18,1.42,6.05,1.02,3.12,1.54,4.69,2.88,5.71,1.16.89,2.36.99,4.96,1.14,3.75.22,7.52-.38,11.19-1.78,2.72-1.04,4.09-1.56,5.1-2.56,1.03-1.02,1.18-1.72,2.02-5.64.34-1.59.81-3.78,1.5-6.7v-.04c.3-1.23.6-2.51.15-3.97-.45-1.45-1.49-2.7-3.09-3.71-.64-.4-2.13-1.34-8.28-1.12-.23,0-.46.02-.68.03Z"/>
      </g>
      <g>
        <path class="cls-13" d="m119.88,68.09c1.15,1.3,1.29,3.41,1.57,7.64.2,3,.05,5.13-.06,6.3-.33,3.37-.49,5.06-1.67,6.46-1.05,1.25-2.32,1.64-4.83,2.36-4.82,1.38-9.05,1.08-11.51.73-2.96-.42-4.43-.64-5.72-1.44-1.89-1.19-1.79-2.15-6.31-11.47-.58-1.2-1.2-2.45-1.07-4.12.19-2.41,1.8-4.06,2.34-4.6.7-.7,2.18-1.94,8.08-3.04,6.37-1.19,10.71-.88,11.85-.79,4.01.33,6.04.52,7.33,1.98Z"/>
        <path class="cls-39" d="m108.85,92.31c-1.82.09-3.67,0-5.53-.27-3.02-.43-4.53-.65-5.91-1.51-1.47-.92-1.83-1.7-3.56-5.47-.68-1.48-1.61-3.5-2.92-6.2l-.02-.04c-.58-1.19-1.24-2.55-1.1-4.33.14-1.75.97-3.4,2.48-4.9.93-.93,2.72-2.12,8.33-3.17,5.75-1.08,9.97-.96,11.98-.8,4,.33,6.21.51,7.65,2.14h0c1.26,1.42,1.4,3.59,1.69,7.93.15,2.28.13,4.36-.07,6.37-.34,3.47-.5,5.2-1.77,6.72-1.17,1.39-2.63,1.81-5.06,2.51-2.01.58-4.07.91-6.18,1.02Zm-1.06-25.78c-1.94.09-4.29.33-6.99.84-6.05,1.13-7.3,2.38-7.83,2.91-1.34,1.34-2.08,2.78-2.2,4.3-.12,1.52.45,2.7,1,3.84l.02.04c1.31,2.7,2.25,4.73,2.93,6.21,1.68,3.64,1.98,4.29,3.2,5.06,1.2.75,2.65.96,5.54,1.38,3.9.56,7.7.32,11.31-.72,2.51-.72,3.65-1.08,4.59-2.2,1.08-1.29,1.24-2.93,1.56-6.2.19-1.96.21-4,.06-6.22-.27-4.12-.41-6.18-1.45-7.36h0c-1.14-1.29-2.97-1.49-7.01-1.82-1.02-.08-2.63-.15-4.73-.05Z"/>
      </g>
    </g>
    <polygon class="cls-39" points="55.48 82.94 38.31 84.19 37.32 82.48 55.02 79.19 55.48 82.94"/>
    <path class="cls-21" d="m94.05,108.22c1.68.48,3.15-.62,3.26-1.73.09-.95-.79-2.1-2.19-2.35"/>
    <path class="cls-37" d="m116.74,117.72c-.45-3.46.02-9.16-.88-11.33-.17-2.15-.97-6.71-.66-10.16.13-1.49-1.45-2.7-1.45-2.7,0,0,.57,16.59.19,17.31-.38.73-.42,2.46-.24,3.18.17.72-.37,2.32-.66,2.69-.3.37-.46,3.64-1.59,4.05-1.14.42-2.56,3.92-2.83,4.51-.27.59-2.25,3.37-2.77,3.77-.53.4-2.71,1.9-2.71,1.9,0,0-.16-.03-.27-.39-.08.02-.15.03-.24.04-.44.24-.88.41-1.33.55-.3.87-.85,1.6-1.42,2.08-1.08.89-1.38,2.82-2.34,3.56-.96.74-2.54,2.52-3.43,2.32-.9-.21-2.14.89-2.83.09-.69-.81-.12-2.18.19-2.27.3-.09.84-.71,1.74-1.49.89-.78.53-1.08.53-1.08,0,0-2,1.3-2.56,1.32-.56.02-1.96.75-1.96.75,0,0-1.52.09-2.05.37-.52.28-2.85.18-2.85.18,0,0-.25.48.87.72,1.11.23,1.81.51,2.12.42.31-.09,1.28.86.9,1.98-.38,1.13-1.9.82-2.69,1.53-.79.71-2.92-.04-4.12-.18-1.21-.14-2.18-1.8-3.59-2.03-.38-.06-.78-.19-1.16-.38-.97-.04-1.96-.24-2.95-.62.06.56-.14.71-.14.71,0,0-2.95-.18-3.68-.26-.74-.09-4.04-1.72-4.58-2.15-.54-.44-3.58-3.23-5.13-2.98-1.57.25-3.07-3.13-3.6-3.35-.53-.22-1.86-1.62-1.93-2.51-.07-.88-.82-2.74-1.62-3.31-.8-.58-5.79-15.78-5.79-15.78,0,0-5.55-5.01-3.69-2.15,2.96,4.54,6.22,17.98,6.7,19.92.15.62.64,1.97,1.28,3.56h0s0,.02.01.03c.15.39.32.79.49,1.19,1.93,4.96,1.92,8.47,6.12,12.21,4.42,3.93,5.66,3.34,8.01,5.55,2.32,2.18,3.33,1.3,5.87,2.58,2.51,1.26,7.42,2.16,10.12,3.5,2.65,1.32,8.35-.89,10-1.01,1.63-.12,5.4-2.42,7.3-4.41,1.89-1.97,2.17-2.48,3.91-3.66,1.73-1.17,2.76-4.49,4.5-5.33,1.73-.84,2.86-4.86,4.04-6.12,1.18-1.26,2.85-3.62,2.96-6.02.11-2.41,2.35-7.4,1.9-10.84Z"/>
    <path class="cls-37" d="m65.9,126.22c-.95,4.07-.17,7.32.8,10.35,1.85,5.78,2.93,9,5.6,9.05,1.04.02,2.66-.44,2.97-1.06.22-.43-.28-.8-.88-1.46-.75-.83-1.13-1.83-1.71-2.74-3.49-5.47-5.93-9.3-3.66-12.27,1.76-2.31,5.37-2.81,5.2-4.17-.12-.98-2.1-1.68-3.87-1.64-.54.01-1.45.03-2.3.49-1.47.79-1.89,2.41-2.11,3.3,0,0-.02.09-.04.16Z"/>
    <path class="cls-37" d="m110.22,135.04c-.61-3.38-1.53-6.11-2.34-8.1-1.33-3.27-2.12-5.14-3.96-6.48-1.84-1.35-3.86-1.52-7.92-1.44-7.3.14-12.85.9-14.04,1.08-8.68,1.31-13.69,2.07-13.68,3.06.01.86,3.81,1.58,6.48,1.8,5.3.44,7.24-1,14.4-1.98,9.32-1.28,11.84.35,12.6.9,1.93,1.39,3.02,3.43,3.6,4.5,1.6,2.96,1.92,5.76,1.98,7.38"/>
    <g>
      <path class="cls-23" d="m295.73,45.57c2.99,12.06,10.66,3.02,13.97-5.55,8.38-21.71,15.83-17.57,15.83-17.57,18.17-18.95,20.05,1.82,20.05,1.82,12.69-.99,11.75,10.17,8.66,19.73-3.02,9.36-8.15,16.8-14.07,21.34-.26.2-.52.4-.78.59-1.57-12.47-9.23-14.22-12.49-14.88-1.96-.4-5.58-.13-8.66,3.02-8.26,8.47-9.06,15.42-17.15,13.6-13-2.92-5.36-22.11-5.36-22.11Z"/>
      <path class="cls-20" d="m295.68,45.57c3,12.07,10.67,3.02,13.98-5.55,8.39-21.71,15.84-17.57,15.84-17.57,18.18-18.95,20.07,1.82,20.07,1.82,12.7-.99,11.76,10.17,8.67,19.73-3.02,9.36-8.16,16.8-14.08,21.34-.26.2-.52.4-.78.59-1.57-12.47-7.81-22.77-11.1-23.43-1.97-.4-5.63-.13-8.74,3.07-8.34,8.6-10.41,23.92-18.5,22.1-13.01-2.92-5.37-22.11-5.37-22.11Z"/>
      <path class="cls-23" d="m396.38,51.67c-6.3,11.36-12.63,1.18-14.22-7.8-4.03-22.76-13.35-19.93-13.35-19.93-15.63-21.69-22.82-1.57-22.82-1.57-13.92-3.1-15.61,8.03-14.51,17.96,1.07,9.71,4.98,17.9,10.47,23.35.24.24.49.48.73.71,4.81-12.01,13.79-12.45,17.59-12.55,2.28-.06,6.26.8,8.92,4.42,7.14,9.72,6.33,16.68,15.79,16.25,15.21-.7,11.4-20.85,11.4-20.85Z"/>
      <path class="cls-20" d="m396.38,51.67c-6.3,11.36-12.63,1.18-14.22-7.8-4.03-22.76-13.35-19.93-13.35-19.93-15.63-21.69-22.82-1.57-22.82-1.57-13.92-3.1-15.61,8.03-14.51,17.96,1.07,9.71,4.98,17.9,10.47,23.35.24.24.49.48.73.71,4.81-12.01,14.3-21.09,18.12-21.2,2.3-.07,6.31.81,8.99,4.49,7.19,9.86,5.73,25.27,15.2,24.83,15.21-.7,11.4-20.85,11.4-20.85Z"/>
      <path class="cls-23" d="m341.96,63.71s-4.41-53.1,15.35-49.62c0,0,6.75,1.49,11.5,9.85,0,0-12.11-7.58-17.65,1.5-6.84,11.22-8.93,25.84-9.2,38.26Z"/>
      <path class="cls-23" d="m377.91,37.68s-2.97-7.24-11.27-8.4c-8-1.12-19.69,3.15-24.68,34.43,0,0,9.07-27.98,24.93-30.86,2.42-.44,5.66.04,11.02,4.84Z"/>
      <path class="cls-23" d="m309.2,34.14s4.57-6.62,12.96-6.47c8.1.15,18.59,6.16,16.37,37.56,0,0-2.53-28.81-17.42-34.11-2.28-.81-5.56-.85-11.91,3.02Z"/>
      <path class="cls-23" d="m338.53,65.23s16.41-51.29-3.75-50.97c0,0-6.96.4-13.52,7.85,0,0,13.6-5.53,16.96,4.23,4.16,12.05,2.88,26.69.31,38.89Z"/>
    </g>
  </g>
</svg>