<?xml version="1.0" encoding="utf-8"?>
<!-- Generator: Adobe Illustrator 27.4.0, SVG Export Plug-In . SVG Version: 6.00 Build 0)  -->
<svg version="1.1" id="Layer_2_00000017501715117903302230000003487794413837394329_"
	 xmlns="http://www.w3.org/2000/svg" xmlns:xlink="http://www.w3.org/1999/xlink" x="0px" y="0px" viewBox="0 0 436.6 413.8"
	 style="enable-background:new 0 0 436.6 413.8;" xml:space="preserve">
<style type="text/css">
	.st0{fill:#60432B;}
	.st1{fill:#1B1BEF;}
	.st2{fill:#2E2E56;}
	.st3{fill:#31996C;}
	.st4{fill:#FFC1AC;}
	.st5{opacity:7.000000e-02;enable-background:new    ;}
	.st6{opacity:0.2;enable-background:new    ;}
	.st7{fill:#187F50;}
	.st8{fill:#FFFFFF;}
	.st9{opacity:5.000000e-02;enable-background:new    ;}
	.st10{fill:#896555;}
	.st11{fill:#FFB9A6;}
	.st12{fill:#E07A69;}
	.st13{fill:#FF937D;}
	.st14{fill:#001627;}
	.st15{fill:#765341;}
	.st16{fill:#FCFCFC;}
	.st17{fill:#888CF0;}
	.st18{fill:#7D8AFF;}
	.st19{fill:#00510A;}
	.st20{fill:#376577;}
	.st21{fill:#A2A59C;}
	.st22{fill:#F9C441;}
	.st23{fill:#E58373;}
	.st24{fill:#D37066;}
	.st25{fill:#1E724C;}
	.st26{fill:#FFB19F;}
	.st27{fill:#9B6948;}
	.st28{fill:#FCAB9D;}
	.st29{fill:#C46457;}
	.st30{fill:#D37163;}
	.st31{fill:#6D5135;}
	.st32{fill:#142B06;}
	.st33{fill:#1B350A;}
	.st34{fill:#E8E8E8;}
	.st35{fill:#1C181A;}
	.st36{fill:#020001;}
	.st37{fill:#BABABA;}
	.st38{fill:#F9B212;}
	.st39{fill:#CE926A;}
</style>
<g id="BACKGROUND">
	<g>
		<path class="st0" d="M222.6,6.5c-12.5-1.7-20.6,1.2-24.7,3.1c-2.7,1.3-5.7,3.1-5.5,3.4c0.2,0.4,6.1-2.5,14.2-4.2
			c4.4-0.9,8.1-1.2,10.5-1.3"/>
	</g>
	<g>
		<path class="st0" d="M203.2,9.5c-6.7,0.6-10.6,3.1-12.5,4.6c-1.2,1-2.6,2.3-2.5,2.4c0.1,0.2,2.9-2,6.9-3.9c2.2-1,4.1-1.6,5.3-2"/>
	</g>
	<g>
		<path class="st0" d="M210.8,8c-13.4,2.1-20.7,7.3-24.8,11.3c-2.7,2.7-5.9,6.7-5.7,6.9c0.2,0.1,2.5-2.3,6.6-5.7s6.6-5.5,10.3-7.2
			c2-0.9,5-2.1,9.1-2.6"/>
	</g>
	<g>
		<path class="st0" d="M207.6,12.4c-9.1,0.1-15.1,2.9-18.4,4.9c-4.1,2.5-7.9,5.9-7.7,6.2c0.1,0.1,1.4-0.8,5-2.8
			c3.9-2.2,5.8-3.4,7.7-4.1c1.9-0.8,4.6-1.6,8.3-1.9"/>
	</g>
	<g>
		<path class="st0" d="M194.6,14.6c-6.3,6-10,11.5-11.9,14.7c-2.4,4.1-4.4,8.5-4.3,8.5c0.1,0,0.9-1.4,2.9-4.8
			c2.3-3.8,3.4-5.7,4.6-7.3c1.2-1.6,2.9-3.9,5.4-6.5"/>
	</g>
	<g>
		<path class="st0" d="M235.8,9.4c-10.6-6.9-19.2-7.7-23.7-7.7c-2.9,0-6.4,0.4-6.4,0.7c0,0.5,6.6,0.3,14.6,2.2
			c4.4,1,7.8,2.3,10.1,3.3"/>
	</g>
	<g>
		<path class="st0" d="M217,3.8c-6.3-2.3-10.9-1.7-13.3-1.2c-1.5,0.4-3.3,1-3.3,1.2c0.1,0.2,3.4-0.6,7.9-0.6c2.4,0,4.4,0.3,5.7,0.5"
			/>
	</g>
	<g>
		<path class="st0" d="M224.5,5.7c-13-3.8-21.9-2.2-27.2-0.3c-3.6,1.2-8.2,3.6-8.1,3.8c0.1,0.2,3.2-1,8.4-2.4
			c5.2-1.3,8.4-2.2,12.4-2.1c2.2,0,5.4,0.3,9.3,1.6"/>
	</g>
	<g>
		<path class="st0" d="M219.7,8.4c-8.3-3.8-14.9-3.8-18.8-3.4c-4.8,0.5-9.7,2-9.6,2.3c0,0.2,1.6-0.1,5.7-0.5
			c4.4-0.4,6.6-0.6,8.7-0.4c2,0.1,4.9,0.5,8.3,1.8"/>
	</g>
	<g>
		<path class="st0" d="M207,4.8c-8.2,2.7-14,6.1-17.1,8.2c-3.9,2.7-7.6,5.8-7.5,5.9c0.1,0,1.4-0.9,4.7-3.1c3.7-2.4,5.5-3.7,7.3-4.7
			s4.3-2.3,7.7-3.5"/>
	</g>
	<g>
		<polyline points="107.4,53.5 108.5,59.3 124.3,59.4 107.4,53.5 		"/>
	</g>
</g>
<g id="OBJECTS">
	<g>
		<g>
			<g>
				<g>
					<path class="st1" d="M230.4,412.1l0.1-0.2c0,0,0,0.1,0.1,0.2h89l-12.3-88.3l-140.3,15l-8.2,73.3H230.4z"/>
				</g>
				<g>
					<path class="st2" d="M254.2,386.4c9.1-1.1,33.2-24.3,39.8-61.1l-126.9,12.2l-2.2,17.7c9.6,12.9,29.7,33.4,35.2,31.2
						c6.3-2.5,26-26,26-26S243.7,387.6,254.2,386.4L254.2,386.4z"/>
				</g>
			</g>
			<g>
				<g>
					<path class="st3" d="M136.1,167.3c0,0,23.9,158.8,30.9,171.5c7,12.6,32.3,42.9,38.7,40.1s26-28.8,26-28.8s17.6,30.2,28.1,28.8
						c10.5-1.4,41.5-35.8,41.5-88.6s3.5-111.8,3.5-111.8s30.2-14.1,45-16.9l-2.8-19c0,0-35.8-26.7-85.8-21.1l-67.5-2.8
						c0,0-16.2-17.6-33-16.9c-16.9,0.7-79.4-2.8-146.9,36.5l38,29.5L136.1,167.3L136.1,167.3z"/>
				</g>
				<g>
					<path class="st4" d="M203.3,130.2c8.9,10,15.3,17.1,15.4,17c0,0-1.4-1.7-1.2-1.9c0.3-0.3,3.2,3.2,7.7,4.3
						c3.4,0.9,7.6,0.3,8.2-1.4c0.2-0.7-0.2-1-0.3-2c-0.2-2.9,4-4.7,5.5-6.5c1.8-2.1,2.2-7.1-5-19.7"/>
				</g>
				<g>
					<path class="st3" d="M97.1,107.3C72.7,112,43.8,121,13.9,138.5l38,29.5l80.3-0.7C121.5,146.7,109.7,126.8,97.1,107.3
						L97.1,107.3z"/>
				</g>
				<g>
					<path class="st3" d="M304.9,176.1c7.9-3.6,32.9-12.2,44.9-14.5l-2.8-19c0,0-7.6-5.6-20.6-11.2
						C319.1,146.3,310.2,160.5,304.9,176.1z"/>
				</g>
				<g class="st5">
					<path d="M287.4,236.9c-19,10.1-37.4,21.8-57.1,30.7c-23.6,10.6-48.9,17.5-74.6,19.8c4.7,26.1,9,47.2,11.4,51.5
						c7,12.6,32.3,42.9,38.7,40.1s26-28.8,26-28.8s17.6,30.2,28.1,28.8c10.5-1.4,41.5-35.8,41.5-88.6c0-21.1,0.6-43.2,1.2-62.1
						C297.7,231.2,292.6,234.1,287.4,236.9L287.4,236.9z"/>
				</g>
				<g class="st6">
					<polygon points="192.6,131.4 201,162.8 216.5,145 					"/>
				</g>
				<g class="st6">
					<polygon points="252.2,123.1 254.8,155.7 232.5,145.2 					"/>
				</g>
				<g>
					<polygon class="st4" points="208.8,138.7 215.3,144.8 225.2,166.4 238.3,138.2 					"/>
				</g>
				<g>
					<polygon class="st7" points="240.4,190.7 285.9,185.6 285.9,192.1 239.5,194.9 					"/>
				</g>
				<g>
					<g>
						<path class="st8" d="M219.3,183.4c0,1.7-1.4,3.1-3.1,3.1s-3.1-1.4-3.1-3.1s1.4-3.1,3.1-3.1S219.3,181.8,219.3,183.4z"/>
					</g>
					<g>
						<path class="st8" d="M221.9,219.5c0,1.7-1.4,3.1-3.1,3.1s-3.1-1.4-3.1-3.1s1.4-3.1,3.1-3.1S221.9,217.8,221.9,219.5z"/>
					</g>
					<g>
						<path class="st8" d="M224.7,258.6c0,1.7-1.4,3-3.1,3s-3.1-1.4-3.1-3s1.4-3.1,3.1-3.1S224.7,257,224.7,258.6z"/>
					</g>
					<g>
						<path class="st8" d="M226.6,293.3c0,1.7-1.4,3-3.1,3s-3.1-1.4-3.1-3s1.4-3,3.1-3S226.6,291.6,226.6,293.3z"/>
					</g>
					<g>
						<path class="st8" d="M228.2,330.8c0,1.7-1.4,3-3.1,3s-3.1-1.4-3.1-3s1.4-3,3.1-3S228.2,329.1,228.2,330.8z"/>
					</g>
				</g>
				<g>
					<path class="st4" d="M391.3,156.7c0,0-6.4-1.2-10.2-0.2c-6.5,1.8-26.6,9.3-19.5,15.2C369.3,178.3,391.3,156.7,391.3,156.7z"/>
				</g>
			</g>
		</g>
		<g>
			<g>
				<g class="st9">
					<path d="M238.2,129.2c-0.9-2.2-2.2-4.8-4-7.8l-30.2,10c2.8,3.1,5.3,5.9,7.4,8.3C221.7,142.8,230.7,137.4,238.2,129.2
						L238.2,129.2z"/>
				</g>
				<g>
					<path class="st4" d="M184,28.7c-0.5,9-0.8,21.5,0.3,36.4c4.3,62.7,15.2,65.2,18.5,66.6c13.8,5.7,36.2-8.1,44.4-23.8
						c1.8-3.5,3-7.6,5.3-15.8c2-7.3,4.8-17.4,5.3-30.2c0.4-10.4,0.7-15.8-1.7-21.8c-5.7-14.6-20.3-21.5-26.8-24
						C229.3,15.9,185.8,16.3,184,28.7L184,28.7z"/>
				</g>
				<g>
					<path class="st10" d="M251.7,55c-1.3-4.7-1.2-11-1.1-12.4c0.1-3.4,0.4-4.9-0.5-6.6c-1.6-3.1-4.6-2.2-5.7-4.4
						c-1.9-3.9,3.9-14.7,7.8-14.1c3.8,0.6,4.9,12.7,7.1,37c0.5,5.8,0.7,9.8-0.5,10.4C257.1,65.5,253.2,60.6,251.7,55L251.7,55z"/>
				</g>
				<g>
					<g>
						<path class="st4" d="M250.9,70c0,0-0.7-15.5,10.2-11.5c10.9,4-0.4,30.6-9,24.9C252.1,83.3,251,79.7,250.9,70L250.9,70z"/>
					</g>
					<g>
						<path class="st11" d="M250.9,70c0,0-0.7-15.5,10.2-11.5c10.9,4-0.4,30.6-9,24.9C252.1,83.3,251,79.7,250.9,70L250.9,70z"/>
					</g>
					<g>
						<path class="st12" d="M262.2,64.3c-1.6-2.1-3.4-2.8-5-0.4c-1.2,1.8-1.3,4.2-1.4,6.4c0,1.6,0.1,3.2,0.3,4.7l-1.1-0.9
							c1.8,0.2,4.2,0.3,5.1,2.2c0.3,1.3-0.6,2-1.4,2.6c-0.7,0.5-1.5,0.8-2.2,1.1c0.8-0.8,1.7-1.6,2.2-2.6c0.1-0.3,0.1-0.5,0-0.5
							c-0.7-0.5-2.7-0.5-3.7-0.5h-0.9c-0.5-2-0.8-4-0.8-6.1c0.1-2.6,0.4-5.7,2.4-7.7C258.1,59.9,261.4,60.7,262.2,64.3L262.2,64.3
							L262.2,64.3z"/>
					</g>
				</g>
			</g>
			<g>
				<g>
					<path class="st13" d="M211.7,56c-0.8,11-2.8,22.1-5.2,32.9c-0.4,1.6-0.7,3.1-1.1,4.6l-0.9-1.2c2,0.5,4.1,1,6.1,1.5
						c2,0.6,4,1.1,6,1.8c-2.1-0.1-4.2-0.3-6.3-0.5c-2.4-0.3-4.8-0.5-7.2-0.9l0.1-1.1C205.3,80.6,207.8,68,211.7,56L211.7,56
						L211.7,56z"/>
				</g>
				<g>
					<path class="st14" d="M221.9,68.5c0.1-6.8,9.2-10.1,13.3-4.3c1.2,1.6,1.8,3.5,1.7,5.4C233,62.7,226.6,61.8,221.9,68.5
						L221.9,68.5L221.9,68.5z"/>
				</g>
				<g>
					<path class="st14" d="M187.5,64.7c0.1-6.8,9.2-10.1,13.3-4.3c1.2,1.6,1.8,3.5,1.7,5.4C198.6,58.9,192.2,58,187.5,64.7
						L187.5,64.7L187.5,64.7z"/>
				</g>
				<g>
					<path class="st15" d="M219.3,53.5c4.7-8.9,19.6-9.4,23.2,0.7c-3-1-5.6-2.1-8.7-2.4C228.9,51.3,224.4,52.5,219.3,53.5
						L219.3,53.5z"/>
				</g>
				<g>
					<path class="st15" d="M185.9,50.8c4.7-8.9,19.6-9.4,23.2,0.7c-3-1-5.6-2.1-8.7-2.4C195.4,48.6,191,49.8,185.9,50.8L185.9,50.8
						L185.9,50.8z"/>
				</g>
				<g>
					<path class="st16" d="M199.3,106.7l30.7-3.1C230,103.7,212.2,123.8,199.3,106.7z"/>
				</g>
			</g>
		</g>
	</g>
	<g>
		<g>
			<g>
				<g>
					<polygon class="st17" points="176.8,412.1 163.1,377.2 52.4,385.2 49.2,412.1 					"/>
				</g>
				<g>
					<polygon class="st18" points="176.8,412.1 163.1,377.2 52.4,385.2 49.2,412.1 					"/>
				</g>
				<g>
					<polygon class="st19" points="413.9,412.1 410.6,385.2 300,377.2 286.3,412.1 					"/>
				</g>
				<g>
					<path class="st20" d="M47.5,256.7l-46,12.1c0,0-4.2-52.8,1.8-68.9c4.5-12,54.5-39.3,54.5-39.3s52.3-6.4,72.4,0.5
						c41.8,14.5,39.9,190.9,36.8,226c0,0-70.8,17.1-118.3,6.7L47.5,256.7L47.5,256.7z"/>
				</g>
				<g class="st6">
					<path class="st21" d="M141.3,301.9c-33.1-4.5-65.3-13.8-93.7-31.4l1.1,123.4c47.5,10.4,118.3-6.7,118.3-6.7
						c1.1-13,2.1-45.6,0.8-82.2C158.8,304.2,149.9,303,141.3,301.9L141.3,301.9z"/>
				</g>
				<g>
					<g>
						<path class="st13" d="M104.5,381.9c0,0,35.9-0.4,8.9,8L104.5,381.9z"/>
					</g>
					<g>
						<path class="st13" d="M100.9,412.1h6.3c-0.4-0.8-0.7-1.3-0.7-1.3c0.4,0.4,0.8,0.9,1.2,1.3h7c-1.8-2.7-3.2-4.7-3.2-4.7
							c1.8,1.7,3.4,3.3,4.9,4.7h5.9c-3.2-4.2-6.5-8.1-6.5-8.1c3.7,3.5,6.7,6.1,9.1,8.1h5.4c-9.6-17.1-63.8-81.8-63.8-81.8
							l-19.1-73.6l-38.9,9.5c0,0,16.1,55.3,26.1,74.5C44.7,359.9,81.1,389,100.9,412.1z"/>
					</g>
				</g>
			</g>
			<g>
				<g>
					<path class="st22" d="M18.8,109c2.2-0.4,4.2-1.5,6.2-2.4c4-1.8,6.4-4.6,10.5-10.9c0.4-0.6,0.7-1.1,1-1.7c0,0,0,0.1,0.1,0.1
						c0.3,0.3,0.7,0.5,1,0.6c0.4-1,0.7-2,1.1-3.1l2.7-16.1c-1.8,5.6-4,10.4-6,16.9l7.4-34c-1-2.6-3-5-5.5-7.2
						c3.3-5.9,5.6-12.9,8.3-19.5c1,1,1.9,2,2.8,3.2c0.7,0.9,1.2,1.8,1.8,2.8c1,1.3,2,2.8,2.8,4.3c0.1,0,0.2,0.1,0.3,0.2
						c1.5,1.6,6.1,11.4,6.2,19.1c0.2,12.2-3.8,22-3.5,25.5c0.3,3.7,0.8,5.3,3.4,5.9c2.5,0.6,4.5-1.1,4.7-1.2
						c-0.2,0.4-3.9,6.6-7.8,4.7c-0.1,1.7-0.1,4.4-1.1,7.7c-3.2,10.6-8.3,15.9-12,18.6c-0.9,1.2-2,2.4-3.2,3.8
						c-0.5,0.5-5.6,3.4-8.7,2.1c1.1-2,3.4-5,4.9-7.9c-3.2,2.2-6,4-8.3,7c-0.5,0.7-1,1.3-1.4,1.9c-0.3-0.2-0.5-0.4-0.8-0.6
						c-0.1-0.1-0.2-0.2-0.3-0.2c-0.6-0.4-1.1-0.9-1.6-1.3c0.2-0.6,0.5-1,0.7-1.3c-0.4,0.3-0.8,0.6-1.2,0.9c-1.7-1.1-3.1-2.3-3-3.6
						c0.2-2.9,7.8-4.4,7.6-5.1c-0.2-0.8-9.6,0.1-9.7-0.5c0,0,0-0.1,0-0.2c-0.1-0.2-0.1-0.5-0.2-0.8c0-0.1,0-0.2,0-0.2
						c0-0.3-0.1-0.6-0.1-0.9v-0.1c0-0.4-0.1-0.7-0.1-1.1l0,0c0-0.4,0-0.7,0-1c0,0,0,0,0-0.1s0,0,0-0.1c0.1-0.4,2.2,0,6.1,1.1
						c-3.5-0.8-6-1.6-6-1.8c0-0.1,0-0.2,0-0.2c0-0.1,0-0.3,0.1-0.4c0-0.2,0.1-0.5,0.1-0.7s0.1-0.3,0.1-0.5c0-0.1,0-0.2,0.1-0.2l0,0
						c0-0.1,0-0.2,0.1-0.3l0.1-0.5v-0.1C18.5,109,18.8,109,18.8,109L18.8,109z"/>
				</g>
				<g>
					<g>
						<path class="st23" d="M44.5,106.6c0,0,6.2,40,10.4,56.1c0,0,30.9,10.7,44.9-4.4L90,119.5L44.5,106.6L44.5,106.6z"/>
					</g>
					<g>
						<path class="st13" d="M37,70.8c0,0-7.3-34.6,32.7-37.9s38.8,26.9,41.1,38.6c2.3,11.6,6.1,49.2,3.3,57.3S103.8,149.4,92,151
							c-11,1.4-33.5-6.1-39.8-20.6S37,70.8,37,70.8L37,70.8z"/>
					</g>
					<g>
						<path class="st13" d="M38.8,84.2c0,0-7-8.6-11.9-1.7s0.9,33,15.2,27C56.3,103.5,38.8,84.2,38.8,84.2L38.8,84.2z"/>
					</g>
				</g>
				<g>
					<g>
						<path class="st8" d="M68.2,129.7c0,0,28-2.7,33.1-5.6C101.3,124.2,96.8,141.1,68.2,129.7z"/>
					</g>
					<g>
						<path class="st24" d="M85.2,114.8c3.5-3.3,7.2-6.3,11-9.3l-0.4,1.3c-3.9-11.9-7.4-24-9.4-36.5C91.4,81.9,95,94,98,106.2
							l0.2,0.8C94,109.8,89.7,112.5,85.2,114.8L85.2,114.8L85.2,114.8z"/>
					</g>
					<g>
						<path class="st22" d="M57.1,71.8c0,0,12.1-12.6,24.1-5.2"/>
					</g>
					<g>
						<path class="st22" d="M90.5,66.8c0,0,11.7-10.9,20-2.1"/>
					</g>
					<g>
						<path class="st14" d="M69.4,82.2c0.5,3.7-0.4,6.9-1.9,7.1s-3.2-2.7-3.7-6.4c-0.5-3.7,0.4-6.9,1.9-7.1S69,78.5,69.4,82.2z"/>
					</g>
					<g>
						<path class="st14" d="M101.9,78.6c0.5,3.7-0.4,6.9-1.9,7.1s-3.2-2.7-3.7-6.4s0.4-6.9,1.9-7.1S101.4,74.9,101.9,78.6z"/>
					</g>
					<g>
						<path class="st23" d="M28.7,91.6c0-3.6,2.2-11.3,6.7-6.6c3.3,3.9,3.8,9.4,3.9,14.3v0.6c-1.2,0.5-3.7,1.4-3.9,2.7
							c0.1,0.6,1,1.1,1.6,1.4c0.8,0.4,1.6,0.7,2.4,1c-6.3-0.3-6.8-3.7-1.2-6.4l-0.5,0.8c-0.3-4-0.9-8.4-2.7-12
							c-0.4-0.8-1-1.6-1.7-2.1C31.1,84.2,29.3,90.1,28.7,91.6L28.7,91.6L28.7,91.6z"/>
					</g>
				</g>
			</g>
		</g>
		<g>
			<g>
				<path class="st4" d="M33.2,125.5c-7.6,3.5-15.4,7.4-23.2,12L48,167h3.7C46,152.9,40.6,138.7,33.2,125.5z"/>
			</g>
			<g>
				<polygon class="st25" points="49.1,160.2 29.5,121.8 42.6,114.3 56.6,162.1 				"/>
			</g>
			<g>
				<path class="st4" d="M10,137.5c0,0-8.2,5.9-6.3,12.4s62.8,133.5,68.4,134.5s-7-22-7-22S77.7,290,81,287.2s-9.4-24.4-9.4-24.4
					s14.1,21.1,15.5,21.1s-8-24.8-8-24.8s9.8,13.6,11.2,13.1s-11.7-28.6-11.7-28.6s33.7-0.5-1.9-8.4c0,0-22.1-69-25.8-74
					C45.9,154.2,21.5,137.8,10,137.5L10,137.5z"/>
			</g>
		</g>
	</g>
	<g>
		<g class="st6">
			<path d="M409.8,343c-5.4-9.5-9.7-14.6-9.7-14.6s-94.6-44-107.8-8.4c-3.1,8.3-5.5,17.9-7.3,27.7
				C310.7,353.8,360.4,361.1,409.8,343L409.8,343z"/>
		</g>
		<g>
			<g>
				<path class="st17" d="M300,176.4c0,0,63.4,16.2,100-11.5c0,0,18.3,3.7,29.9,17.8c11.5,14.1,4.7,66,4.7,66l-44.8-8.4L366,198.4
					C365.9,198.4,318.8,206.3,300,176.4L300,176.4z"/>
			</g>
			<g>
				<path class="st17" d="M403.4,320.8c0,0,8.5,40,13,67.2c0,0-47.9,26.6-127.8-13.9c1.4-28.5,2.8-57,4.2-85.4
					c1.1-24.3,2.6-44.3,3.8-58.6c0,0,0.8-9.5,5.5-56.3l0,0c0,0,49.4,24.8,73.4,21.8s25.5,60.5,25.5,60.5L403.4,320.8L403.4,320.8z"
					/>
			</g>
			<g>
				<path class="st26" d="M379.5,163.4l-11.6-1.6l0.3-32.8l-37.9,7.1l1.2,26.1C346.6,170.4,364.5,171.3,379.5,163.4z"/>
			</g>
			<g>
				<path class="st17" d="M379.5,163.4c-15,7.9-32.9,6.9-48.1-1.1l0.1,2l-17.2,5.2c1.5,5.5,3.1,10.9,5.1,16.2
					c49.3,10.7,79-19.8,79-19.8L379.5,163.4L379.5,163.4z"/>
			</g>
			<g>
				<path class="st17" d="M301.7,173.8l14.4-5.4c0,0,6,17.2,38,14.8l-28.8,8.8L301.7,173.8L301.7,173.8z"/>
			</g>
		</g>
		<g>
			<g>
				<g class="st5">
					<path d="M368,148.3l0.1-15.2l-37.7,6.1l1,18.1C340,156.8,354.8,154.7,368,148.3L368,148.3z"/>
				</g>
				<g>
					<path class="st26" d="M345.9,26.6c0,0-31.3,5.2-37.3,35c-6,29.9-5.5,97.3,36.9,86.5c42.4-10.8,43-49.7,44-62.7
						C391.9,55.6,374.5,24.4,345.9,26.6z"/>
				</g>
				<g>
					<path class="st27" d="M381.5,69.9c0.5,1.6,1.2,4.1,1.5,7.2c0.8,7.4-1,11.3,0.4,11.9c1.5,0.7,6-3.6,7-8.6c0.3-1.6,0.1-2.9,0-4.1
						c-0.5-4.1-1.9-7.1-3-9"/>
				</g>
				<g>
					<path class="st28" d="M381.9,85.2c0,0,1,15.7-1.4,24.2c0,0,10.4,1.4,14.7-12.3C399.4,83.3,388.5,75.7,381.9,85.2z"/>
				</g>
				<g>
					<path class="st29" d="M393.5,88.4c-2.1-3.5-4.6-3-6.2,0.5c-0.8,2-1,4.2-1,6.4c0,1.8,0.1,3.6,0.3,5.4l-0.9-0.8
						c2.1,0,6.9,1.1,4.8,4c-0.9,1.1-2.1,1.8-3.3,2.3c0.9-0.9,1.9-1.8,2.5-2.9c0.2-0.3,0.2-0.7,0.1-0.8c-0.1-0.3-1-0.6-1.7-0.7
						c-1-0.2-2.1-0.2-3.1-0.1l-0.2-0.8c-0.8-4.7-1.3-10.1,1.7-14.2C389.2,83.7,392.5,84.5,393.5,88.4L393.5,88.4z"/>
				</g>
			</g>
			<g>
				<g>
					<path class="st30" d="M330.1,84.8c-1.6,9.2-4.3,18.2-7.3,27.1l-0.2-0.8c2.4,2.7,4.7,5.4,6.9,8.3c-3-2.3-5.7-4.8-8.4-7.4
						C323.5,102.7,326.3,93.6,330.1,84.8L330.1,84.8z"/>
				</g>
				<g>
					<path class="st30" d="M321.8,126.4c7.1,1.3,14.4,1.9,21.5,0.5c2.4-0.4,4.6-1.2,7-2c-0.5,0.4-1,0.7-1.5,1.1l-0.8,0.5l-0.8,0.4
						C339.3,130.8,329.5,130.3,321.8,126.4L321.8,126.4L321.8,126.4z"/>
				</g>
				<g>
					<path class="st31" d="M337.8,83.7c6.3-5.8,17.6-6.2,23.6,0.3C353.5,81.6,345.8,82,337.8,83.7L337.8,83.7z"/>
				</g>
				<g>
					<path class="st31" d="M305.8,84.3c4.6-6.3,15.6-6,19.5,0.9c-0.9-0.3-1.7-0.7-2.5-1C317.3,81.9,311.5,82.5,305.8,84.3
						L305.8,84.3L305.8,84.3z"/>
				</g>
				<g>
					<path class="st14" d="M351.9,93.3c-0.1,3.8-1.4,6.8-3,6.7c-1.5,0-2.7-3.1-2.6-6.9s1.4-6.8,3-6.7
						C350.8,86.5,352,89.6,351.9,93.3z"/>
				</g>
				<g>
					<path class="st14" d="M318,94.1c-0.1,3.8-1.4,6.8-3,6.7c-1.5,0-2.7-3.1-2.6-6.9s1.4-6.8,3-6.7C317,87.2,318.1,90.3,318,94.1z"
						/>
				</g>
			</g>
		</g>
		<g>
			<path class="st4" d="M379.5,162.4c0,0,1.3-6.7,6.8-6.7s24.4,2.6,19.4,16.6s-13.7,26.6-5.3-2.9c0,0-17.7,45.1-6.7-1.5
				c0,0-17.3,45.6-7.4-2.7C386.4,165.2,370.3,207.8,379.5,162.4L379.5,162.4z"/>
		</g>
	</g>
	<g>
		<path class="st13" d="M369.1,400.5c0,0-32.4,10.1-6.7,7.3L369.1,400.5z"/>
	</g>
	<g>
		<path class="st26" d="M383.7,412.1c12.2-26.6,31.4-58.4,35.8-79.1c4.9-23,9.6-87.9,9.6-87.9l-29.7-7.8l-4.6,86.3
			c0,0-23.7,59.5-33.1,88.5H383.7z"/>
	</g>
	<g>
		<path class="st0" d="M254.5,28.6c1.9-0.9,2-4.2,2-5.1c0.2-5.8-7-12.3-12.8-15.9c-11.3-6.9-22.8-6.3-26.6-6s-8.7,0.6-14.4,3.2
			c-16.8,7.8-23.5,28.2-22.3,29.1c0.2,0.2,0.7-0.3,1.8-1.2c4.9-3.9,9.6-5.6,14.7-7.6c11.3-4.3,22.6-3.8,26.1-3.6
			c8.6,0.6,13.4,0.9,18,3.5c0,0,3.7,1.2,11.2,3.6C252.7,28.7,253.6,29,254.5,28.6L254.5,28.6z"/>
	</g>
	<g>
		<path class="st22" d="M40.6,86.6c-0.8,0-1.4-1.4-3.2-8.5c-2.2-8.7-2.2-10.2-1.1-11.4c1.5-1.5,4.4-1.9,6-1c1,0.6,1.1,1.6,1.3,7.5
			c0.2,5.4,0.2,7.5-0.9,10.2C42.2,84.8,41.5,86.6,40.6,86.6z"/>
	</g>
	<g>
		<path class="st0" d="M251,14.4c-8.6-9.3-16.7-12.2-21.1-13.3c-2.9-0.7-6.3-1.2-6.4-0.9c-0.1,0.4,6.3,1.9,13.6,5.8
			c4,2.1,7,4.2,9,5.7"/>
	</g>
	<g>
		<path class="st0" d="M234.1,4.4c-5.6-3.8-10.2-4.3-12.6-4.4c-1.6,0-3.4,0.1-3.5,0.3c0,0.2,3.5,0.2,7.8,1.4
			c2.3,0.6,4.2,1.3,5.4,1.9"/>
	</g>
	<g>
		<path class="st0" d="M240.9,8.1c-11.7-6.9-20.7-7.5-26.3-7c-3.8,0.3-8.9,1.4-8.8,1.7c0,0.2,3.4-0.2,8.7-0.2c5.4,0,8.6,0,12.5,1
			c2.1,0.5,5.2,1.6,8.7,3.8"/>
	</g>
	<g>
		<path class="st0" d="M235.6,9.5c-7.1-5.7-13.6-7.3-17.3-7.9c-4.8-0.7-9.9-0.4-9.9-0.1c0,0.1,1.6,0.3,5.6,0.9
			c4.4,0.7,6.6,1.1,8.6,1.7c1.9,0.6,4.6,1.7,7.6,3.8"/>
	</g>
	<g>
		<path class="st0" d="M224.2,3c-8.7,0.6-15,2.5-18.6,3.8c-4.5,1.6-8.8,3.8-8.7,3.9s1.5-0.5,5.4-1.9c4.2-1.5,6.2-2.2,8.2-2.7
			c1.9-0.5,4.8-1.2,8.3-1.5"/>
	</g>
	<g>
		<path class="st0" d="M239.7,13.4c-10.6-6.9-19.1-7.8-23.6-7.8c-2.9,0-6.4,0.4-6.4,0.7c0,0.5,6.5,0.4,14.6,2.3
			c4.4,1,7.8,2.3,10.1,3.3"/>
	</g>
	<g>
		<path class="st0" d="M220.9,7.8C214.6,5.5,210,6,207.6,6.6c-1.5,0.3-3.3,1-3.3,1.1c0.1,0.2,3.5-0.6,7.9-0.6c2.4,0,4.4,0.3,5.6,0.5
			"/>
	</g>
	<g>
		<path class="st0" d="M228.4,9.7c-13-3.8-21.9-2.3-27.2-0.4c-3.6,1.2-8.2,3.5-8.1,3.8c0.1,0.2,3.2-1,8.4-2.3s8.4-2.1,12.4-2.1
			c2.2,0,5.4,0.3,9.3,1.6"/>
	</g>
	<g>
		<path class="st0" d="M223.6,12.3c-8.3-3.8-14.9-3.8-18.7-3.5c-4.8,0.4-9.7,2-9.6,2.2c0,0.1,1.6-0.1,5.7-0.4
			c4.4-0.4,6.6-0.6,8.7-0.4c2,0.1,4.9,0.5,8.3,1.9"/>
	</g>
	<g>
		<path class="st0" d="M210.9,8.8c-8.3,2.7-14,6.1-17.1,8.2c-4,2.6-7.6,5.8-7.5,5.9c0.1,0,1.4-0.9,4.7-3.1c3.7-2.4,5.5-3.6,7.3-4.6
			s4.3-2.3,7.7-3.5"/>
	</g>
	<g>
		<path class="st32" d="M31.4,39.7c1.5-3.4,4.2-8.1,8.6-12.8c5.8-6.1,11.9-8.9,16.8-11.3c4.6-2.2,9-4.3,15.5-5.2
			c0.9-0.1,11.8-1.5,20,2.7c3.2,1.7,4.8,3.6,5.3,4.2c1.6,2,2.2,3.9,2.5,5.1c0,0,1.5,4.9,6.9,21.2c0.6,1.9,1,3.9,1.9,5.7
			c0.3,0.7,0.6,1,0.4,1.3c-0.6,0.9-5.1-1.9-11.1-3.2c-2.1-0.5-7.6-1.5-14.5-0.8c-3.9,0.4-6.7,1.3-9.6,2.2c-4.7,1.5-13.8,4.3-22,11.5
			c-2.6,2.3-3.1,3.3-5.9,5.3c-4.3,3.1-8.5,4.6-11.5,5.4"/>
	</g>
	<g>
		<path class="st33" d="M43.9,64.6c0.1,0.4,2.4,0.5,6.9,0.9c2,0.2,3,0.2,3,0.2c3.5,0.2,6.2,0,14.7,0.2c0,0,0.2,0,9.5,0.3
			c0.3,0,0.7-0.1,1.2-0.2c2.2-0.5,3.5-2.2,4.1-2.9c1-1.2,2.9-2.2,6.7-4.2c2.4-1.3,5-2.7,8.6-3.5c1.6-0.4,5.2-1,9.5-0.3
			c3.3,0.5,7.1,1.8,11.7,3.5c0,0,1.1,0.4,3.9,0.9c1.4,0.3,1.6,0.2,1.7,0.1c0.3-0.5-2.8-2.7-4.7-4c-3.2-2.1-5.8-3.2-10.2-4.9
			c-6.7-2.6-10.1-3.9-12-4.4s-6.2-1.5-11.6-1.5c-12.3-0.1-21.8,5.3-26.2,7.8c-0.2,0.1,0.1,0-7.9,5.1C46.2,62.1,43.6,63.8,43.9,64.6
			L43.9,64.6z"/>
	</g>
	<g>
		<g>
			<path class="st34" d="M71.3,37.3L70,34.7l-0.5,0.1l-0.2-0.5l0.5-0.1L69.7,34c-0.2-0.5-0.3-1-0.2-1.3c0.1-0.3,0.4-0.5,0.7-0.6
				c0.2-0.1,0.4-0.1,0.6,0l0.1,0.5c-0.1,0-0.3,0-0.4,0c-0.5,0.2-0.4,0.7-0.2,1.2l0.1,0.2l0.8-0.2l0.2,0.5l-0.8,0.2l1.2,2.6
				L71.3,37.3L71.3,37.3z"/>
		</g>
		<g>
			<path class="st34" d="M75.3,34.4c0.4,1.1-0.2,1.8-1,2s-1.7-0.1-2.1-1c-0.5-1,0-1.9,0.9-2.2C74.1,32.9,75,33.4,75.3,34.4z
				 M72.8,35.2c0.3,0.7,0.9,1,1.4,0.8s0.8-0.8,0.5-1.4c-0.2-0.5-0.7-1.2-1.4-0.9C72.6,33.9,72.5,34.6,72.8,35.2L72.8,35.2z"/>
		</g>
		<g>
			<path class="st34" d="M75.8,33.6c-0.1-0.4-0.2-0.7-0.4-1l0.5-0.2l0.2,0.7l0,0c0-0.5,0.3-0.9,0.7-1c0.1,0,0.1,0,0.2,0l0.2,0.6
				c-0.1,0-0.1,0-0.2,0c-0.4,0.1-0.6,0.5-0.6,1c0,0.1,0,0.2,0.1,0.3l0.5,1.6l-0.5,0.2L75.8,33.6L75.8,33.6z"/>
		</g>
		<g>
			<path class="st34" d="M78.4,33.6c0.2,0.8,0.8,0.9,1.3,0.8c0.4-0.1,0.6-0.3,0.8-0.4l0.2,0.4c-0.2,0.1-0.5,0.3-0.9,0.5
				c-0.9,0.3-1.6-0.2-1.9-1.1c-0.3-1,0.1-2,1.1-2.2c1.1-0.3,1.5,0.6,1.6,1.2c0,0.1,0,0.2,0,0.3L78.4,33.6L78.4,33.6z M80,32.7
				c-0.1-0.4-0.3-0.9-1-0.8c-0.6,0.2-0.7,0.8-0.7,1.2C78.3,33.2,80,32.7,80,32.7z M79.6,29.7L79,31l-0.4,0.1l0.4-1.3
				C78.9,29.9,79.6,29.7,79.6,29.7z"/>
		</g>
		<g>
			<path class="st34" d="M81.6,29.7l0.2,1l0.8-0.2l0.1,0.5l-0.8,0.2l0.3,1.8c0.1,0.4,0.2,0.6,0.5,0.5c0.1,0,0.2-0.1,0.3-0.1l0.1,0.4
				C83,33.9,82.8,34,82.6,34c-0.2,0.1-0.5,0.1-0.6,0c-0.2-0.1-0.3-0.4-0.3-0.7l-0.3-1.8l-0.5,0.1l-0.1-0.5l0.5-0.1L81,30.1
				L81.6,29.7L81.6,29.7z"/>
		</g>
	</g>
	<g>
		<g>
			<path class="st35" d="M79.7,71.8c1.1-0.5,1.9,0.6,4.7,0.7c1.7,0.1,2.9-0.2,3.8-0.4c4.3-1,5.8-3.3,6.8-2.6c0.9,0.6,0,3.3-0.7,5.3
				c-0.8,2.3-1.4,2.6-1.6,2.6c-0.9,0.2-1.3-0.9-3.2-1.2c-0.4-0.1-1.4-0.3-2.4,0.1c-1.2,0.4-1.4,1.3-2.2,2.1c-1.5,1.4-4.7,2-6.3,0.7
				C76.6,77.2,77.7,72.6,79.7,71.8L79.7,71.8z"/>
		</g>
		<g>
			<g>
				<path class="st36" d="M55.1,76.5c-0.8,1.5-0.5,3.6,0.1,7.8c0.5,3,1.1,5,1.4,6.1c1.1,3.2,1.6,4.8,3,5.9c1.3,1,2.6,1.1,5.2,1.2
					c5,0.3,9.1-0.9,11.4-1.8c2.8-1.1,4.2-1.6,5.3-2.7c1.6-1.6,1.3-2.5,3.6-12.6c0.3-1.3,0.6-2.7,0.1-4.2c-0.7-2.3-2.7-3.6-3.3-4
					c-0.8-0.5-2.6-1.4-8.6-1.2c-6.5,0.2-10.6,1.5-11.7,1.8C58,74.2,56,74.9,55.1,76.5L55.1,76.5z"/>
			</g>
			<g>
				<path class="st35" d="M67.8,98.1c-0.9,0.1-1.9,0-2.9,0c-2.5-0.2-4-0.2-5.5-1.3c-1.6-1.2-2.1-2.9-3.2-6.2
					c-0.6-1.9-1.1-3.9-1.5-6.2c-0.7-4.3-1-6.4-0.1-8.1c1-1.9,3.2-2.6,7-3.8c1.9-0.6,6-1.6,11.9-1.8c5.7-0.2,7.7,0.6,8.8,1.3
					c1.8,1.1,3,2.6,3.5,4.2c0.5,1.7,0.2,3.2-0.1,4.5l0,0c-0.7,2.9-1.2,5.1-1.5,6.7c-0.9,4.1-1.1,4.9-2.3,6.1
					c-1.2,1.1-2.6,1.7-5.4,2.8C73.6,97.4,70.7,98,67.8,98.1L67.8,98.1z M72.9,71.7c-5.4,0.3-9.1,1.2-10.9,1.8
					c-3.9,1.2-5.6,1.8-6.4,3.3l0,0c-0.8,1.4-0.4,3.4,0.2,7.5c0.3,2.2,0.8,4.2,1.4,6.1c1,3.1,1.5,4.7,2.9,5.7c1.2,0.9,2.4,1,5,1.1
					c3.8,0.2,7.5-0.4,11.2-1.8c2.7-1,4.1-1.6,5.1-2.6s1.2-1.7,2-5.6c0.3-1.6,0.8-3.8,1.5-6.7l0,0c0.3-1.2,0.6-2.5,0.2-4
					c-0.4-1.4-1.5-2.7-3.1-3.7c-0.6-0.4-2.1-1.3-8.3-1.1C73.3,71.6,73.1,71.7,72.9,71.7L72.9,71.7z"/>
			</g>
		</g>
		<g>
			<g>
				<path class="st36" d="M119.9,68.1c1.2,1.3,1.3,3.4,1.6,7.6c0.2,3,0.1,5.1-0.1,6.3c-0.3,3.4-0.5,5.1-1.7,6.5
					c-1.1,1.2-2.3,1.6-4.8,2.4c-4.8,1.4-9.1,1.1-11.5,0.7c-3-0.4-4.4-0.6-5.7-1.4c-1.9-1.2-1.8-2.2-6.3-11.5
					c-0.6-1.2-1.2-2.4-1.1-4.1c0.2-2.4,1.8-4.1,2.3-4.6c0.7-0.7,2.2-1.9,8.1-3c6.4-1.2,10.7-0.9,11.8-0.8
					C116.6,66.4,118.6,66.6,119.9,68.1L119.9,68.1z"/>
			</g>
			<g>
				<path class="st35" d="M108.8,92.3c-1.8,0.1-3.7,0-5.5-0.3c-3-0.4-4.5-0.7-5.9-1.5c-1.5-0.9-1.8-1.7-3.6-5.5
					c-0.7-1.5-1.6-3.5-2.9-6.2l0,0c-0.6-1.2-1.2-2.6-1.1-4.3c0.1-1.8,1-3.4,2.5-4.9c0.9-0.9,2.7-2.1,8.3-3.2c5.8-1.1,10-1,12-0.8
					c4,0.3,6.2,0.5,7.7,2.1l0,0c1.3,1.4,1.4,3.6,1.7,7.9c0.2,2.3,0.1,4.4-0.1,6.4c-0.3,3.5-0.5,5.2-1.8,6.7
					c-1.2,1.4-2.6,1.8-5.1,2.5C113,91.9,111,92.2,108.8,92.3L108.8,92.3z M107.8,66.5c-1.9,0.1-4.3,0.3-7,0.8
					c-6.1,1.1-7.3,2.4-7.8,2.9c-1.3,1.3-2.1,2.8-2.2,4.3s0.4,2.7,1,3.8l0,0c1.3,2.7,2.2,4.7,2.9,6.2c1.7,3.6,2,4.3,3.2,5.1
					c1.2,0.8,2.7,1,5.5,1.4c3.9,0.6,7.7,0.3,11.3-0.7c2.5-0.7,3.7-1.1,4.6-2.2c1.1-1.3,1.2-2.9,1.6-6.2c0.2-2,0.2-4,0.1-6.2
					c-0.3-4.1-0.4-6.2-1.4-7.4l0,0c-1.1-1.3-3-1.5-7-1.8C111.5,66.5,109.9,66.4,107.8,66.5L107.8,66.5z"/>
			</g>
		</g>
	</g>
	<g>
		<polygon class="st35" points="55.5,82.9 38.3,84.2 37.3,82.5 55,79.2 		"/>
	</g>
	<g>
		<path class="st37" d="M94.9,108.8c-0.3,0-0.6,0-0.9-0.1l0.3-1c0.7,0.2,1.4,0.1,1.9-0.3c0.4-0.3,0.7-0.7,0.7-1
			c0.1-0.7-0.6-1.6-1.8-1.8l0.2-1c1.7,0.3,2.7,1.7,2.6,2.9c-0.1,0.7-0.5,1.3-1.1,1.7C96.1,108.6,95.5,108.8,94.9,108.8z"/>
	</g>
	<g>
		<path class="st38" d="M116.7,117.7c-0.4-3.5,0-9.2-0.9-11.3c-0.2-2.2-1-6.7-0.7-10.2c0.1-1.5-1.4-2.7-1.4-2.7s0.6,16.6,0.2,17.3
			c-0.4,0.7-0.4,2.5-0.2,3.2c0.2,0.7-0.4,2.3-0.7,2.7c-0.3,0.4-0.5,3.6-1.6,4.1c-1.1,0.4-2.6,3.9-2.8,4.5c-0.3,0.6-2.2,3.4-2.8,3.8
			c-0.5,0.4-2.7,1.9-2.7,1.9s-0.2,0-0.3-0.4c-0.1,0-0.2,0-0.2,0c-0.4,0.2-0.9,0.4-1.3,0.6c-0.3,0.9-0.8,1.6-1.4,2.1
			c-1.1,0.9-1.4,2.8-2.3,3.6c-1,0.7-2.5,2.5-3.4,2.3s-2.1,0.9-2.8,0.1c-0.7-0.8-0.1-2.2,0.2-2.3c0.3-0.1,0.8-0.7,1.7-1.5
			c0.9-0.8,0.5-1.1,0.5-1.1s-2,1.3-2.6,1.3s-2,0.8-2,0.8s-1.5,0.1-2.1,0.4c-0.5,0.3-2.8,0.2-2.8,0.2s-0.2,0.5,0.9,0.7
			s1.8,0.5,2.1,0.4c0.3-0.1,1.3,0.9,0.9,2s-1.9,0.8-2.7,1.5c-0.8,0.7-2.9,0-4.1-0.2c-1.2-0.1-2.2-1.8-3.6-2
			c-0.4-0.1-0.8-0.2-1.2-0.4c-1,0-2-0.2-2.9-0.6c0.1,0.6-0.1,0.7-0.1,0.7s-2.9-0.2-3.7-0.3c-0.7-0.1-4-1.7-4.6-2.1
			c-0.5-0.4-3.6-3.2-5.1-3c-1.6,0.2-3.1-3.1-3.6-3.4s-1.9-1.6-1.9-2.5c-0.1-0.9-0.8-2.7-1.6-3.3c-0.8-0.6-5.8-15.8-5.8-15.8
			s-5.5-5-3.7-2.2c3,4.5,6.2,18,6.7,19.9c0.2,0.6,0.6,2,1.3,3.6l0,0l0,0c0.2,0.4,0.3,0.8,0.5,1.2c1.9,5,1.9,8.5,6.1,12.2
			c4.4,3.9,5.7,3.3,8,5.6c2.3,2.2,3.3,1.3,5.9,2.6c2.5,1.3,7.4,2.2,10.1,3.5s8.3-0.9,10-1c1.6-0.1,5.4-2.4,7.3-4.4s2.2-2.5,3.9-3.7
			c1.7-1.2,2.8-4.5,4.5-5.3s2.9-4.9,4-6.1s2.8-3.6,3-6C115,126.2,117.2,121.2,116.7,117.7L116.7,117.7z"/>
	</g>
	<g>
		<path class="st38" d="M65.9,126.2c-0.9,4.1-0.2,7.3,0.8,10.4c1.8,5.8,2.9,9,5.6,9.1c1,0,2.7-0.4,3-1.1c0.2-0.4-0.3-0.8-0.9-1.5
			c-0.8-0.8-1.1-1.8-1.7-2.7c-3.5-5.5-5.9-9.3-3.7-12.3c1.8-2.3,5.4-2.8,5.2-4.2c-0.1-1-2.1-1.7-3.9-1.6c-0.5,0-1.4,0-2.3,0.5
			C66.5,123.6,66.1,125.2,65.9,126.2L65.9,126.2L65.9,126.2z"/>
	</g>
	<g>
		<path class="st38" d="M110.2,135c-0.6-3.4-1.5-6.1-2.3-8.1c-1.3-3.3-2.1-5.1-4-6.5c-1.8-1.3-3.9-1.5-7.9-1.4
			c-7.3,0.1-12.8,0.9-14,1.1c-8.7,1.3-13.7,2.1-13.7,3.1c0,0.9,3.8,1.6,6.5,1.8c5.3,0.4,7.2-1,14.4-2c9.3-1.3,11.8,0.3,12.6,0.9
			c1.9,1.4,3,3.4,3.6,4.5c1.6,3,1.9,5.8,2,7.4"/>
	</g>
	<g>
		<g>
			<path class="st27" d="M295.7,45.6c3,12.1,10.7,3,14-5.5c8.4-21.7,15.8-17.6,15.8-17.6c18.2-19,20,1.8,20,1.8
				c12.7-1,11.8,10.2,8.7,19.7c-3,9.4-8.1,16.8-14.1,21.3c-0.3,0.2-0.5,0.4-0.8,0.6c-1.6-12.5-9.2-14.2-12.5-14.9
				c-2-0.4-5.6-0.1-8.7,3c-8.3,8.5-9.1,15.4-17.1,13.6C288.1,64.7,295.7,45.6,295.7,45.6L295.7,45.6z"/>
		</g>
		<g>
			<path class="st39" d="M295.7,45.6c3,12.1,10.7,3,14-5.5c8.4-21.7,15.8-17.6,15.8-17.6c18.2-19,20.1,1.8,20.1,1.8
				c12.7-1,11.8,10.2,8.7,19.7c-3,9.4-8.2,16.8-14.1,21.3c-0.3,0.2-0.5,0.4-0.8,0.6c-1.6-12.5-7.8-22.8-11.1-23.4
				c-2-0.4-5.6-0.1-8.7,3.1c-8.3,8.6-10.4,23.9-18.5,22.1C288,64.7,295.7,45.6,295.7,45.6L295.7,45.6z"/>
		</g>
		<g>
			<path class="st27" d="M396.4,51.7c-6.3,11.4-12.6,1.2-14.2-7.8c-4-22.8-13.4-19.9-13.4-19.9C353.2,2.2,346,22.4,346,22.4
				c-13.9-3.1-15.6,8-14.5,18c1.1,9.7,5,17.9,10.5,23.4c0.2,0.2,0.5,0.5,0.7,0.7c4.8-12,13.8-12.5,17.6-12.5
				c2.3-0.1,6.3,0.8,8.9,4.4c7.1,9.7,6.3,16.7,15.8,16.2C400.2,71.8,396.4,51.7,396.4,51.7L396.4,51.7z"/>
		</g>
		<g>
			<path class="st39" d="M396.4,51.7c-6.3,11.4-12.6,1.2-14.2-7.8c-4-22.8-13.4-19.9-13.4-19.9C353.2,2.2,346,22.4,346,22.4
				c-13.9-3.1-15.6,8-14.5,18c1.1,9.7,5,17.9,10.5,23.4c0.2,0.2,0.5,0.5,0.7,0.7c4.8-12,14.3-21.1,18.1-21.2c2.3-0.1,6.3,0.8,9,4.5
				c7.2,9.9,5.7,25.3,15.2,24.8C400.2,71.8,396.4,51.7,396.4,51.7L396.4,51.7z"/>
		</g>
		<g>
			<path class="st27" d="M342,63.7c0,0-4.4-53.1,15.4-49.6c0,0,6.8,1.5,11.5,9.9c0,0-12.1-7.6-17.6,1.5
				C344.3,36.7,342.2,51.3,342,63.7L342,63.7z"/>
		</g>
		<g>
			<path class="st27" d="M377.9,37.7c0,0-3-7.2-11.3-8.4c-8-1.1-19.7,3.1-24.7,34.4c0,0,9.1-28,24.9-30.9
				C369.3,32.4,372.6,32.9,377.9,37.7L377.9,37.7z"/>
		</g>
		<g>
			<path class="st27" d="M309.2,34.1c0,0,4.6-6.6,13-6.5c8.1,0.1,18.6,6.2,16.4,37.6c0,0-2.5-28.8-17.4-34.1
				C318.8,30.3,315.5,30.3,309.2,34.1L309.2,34.1z"/>
		</g>
		<g>
			<path class="st27" d="M338.5,65.2c0,0,16.4-51.3-3.8-51c0,0-7,0.4-13.5,7.9c0,0,13.6-5.5,17,4.2C342.4,38.4,341.1,53,338.5,65.2z
				"/>
		</g>
	</g>
</g>
</svg>
