<svg width="173" height="195" viewBox="0 0 173 195" fill="none" xmlns="http://www.w3.org/2000/svg">
<g clip-path="url(#clip0_214_279)">
<path d="M68.3135 108.681C68.6594 106.783 70.1072 105.382 71.0242 103.724C71.3274 103.177 71.8821 102.067 72.5701 100.638C57.5298 118.926 16.927 169.965 11.6112 177.108C10.908 178.053 10.3055 178.933 9.69546 179.905C8.95332 181.087 7.90174 182.185 7.02249 183.292C4.91052 185.958 2.92309 188.715 0.940682 191.465C-0.343604 193.247 -0.125993 193.707 0.502943 194.576C1.32307 195.711 2.46145 194.4 3.92184 192.57C6.03757 189.917 8.42376 186.904 10.7722 184.536C11.5382 183.764 12.3156 183.22 13.0728 182.394C14.0364 181.345 14.9798 180.257 15.9244 179.183C20.2503 174.264 24.5044 169.255 28.7208 164.216C31.2264 161.22 69.916 113.053 78.1601 101.999C78.5148 101.524 78.8633 101.053 79.2104 100.583C74.3148 104.481 69.9336 108.351 68.316 108.679L68.3135 108.681Z" fill="#080808"/>
<path d="M110.585 90.4285C112.247 89.9809 113.957 90.4487 115.582 91.1801C116.899 91.7728 126.059 95.7855 129.441 97.208C130.692 97.7326 132.11 98.4035 133.37 98.4476C129.99 93.7779 116.473 77.3803 119.412 74.3134C121.805 71.8164 134.788 69.2313 137.425 68.3094C139.224 67.6801 142.685 67.124 144.021 65.6561C143.63 66.0874 117.1 62.9638 117.505 56.468C117.924 49.7591 121.776 43.3567 124.913 37.581C125.41 36.6667 118.702 39.9379 117.151 40.861C114.776 42.2747 112.38 43.6631 110.107 45.2395C108.879 46.0919 105.73 49.541 104.055 48.9394C100.299 47.5863 97.3945 38.2822 96.2926 34.784C95.3341 31.7372 95.0083 28.4648 93.1278 25.7825C92.3278 29.8368 90.9341 33.8735 90.2611 37.9921C89.8334 40.6038 89.4007 43.1865 88.9454 45.7943C88.6837 47.2837 88.924 49.3405 88.0624 50.657C86.8875 52.4515 84.7667 50.9723 83.1089 50.5662C78.2132 49.3682 73.7629 46.6203 69.4547 43.9948C67.2786 42.6694 64.9339 41.8989 62.71 40.8207C63.0131 41.9998 64.4031 43.5812 65.1289 44.6077C66.7528 46.9053 68.4069 49.1664 69.9981 51.4805C71.7214 53.9875 73.6069 56.444 75.1981 59.0292C76.3642 60.9234 79.0485 64.3698 76.656 66.1038C74.1629 67.9109 54.9577 74.1381 52.8193 75.1066C60.1502 77.7926 68.305 77.7889 75.822 79.9957C77.1541 80.3879 80.1554 81.0853 80.1038 82.7411C80.0497 84.4385 75.266 95.0352 72.5704 100.637C71.8824 102.064 71.3276 103.174 71.0245 103.723C70.1075 105.381 68.661 106.782 68.3138 108.68C69.9314 108.352 74.3126 104.482 79.2082 100.584C86.0045 95.1714 93.7932 89.7047 96.558 93.5812C99.1367 97.1954 100.201 101.733 101.84 105.81C103.547 110.052 104.549 114.961 107.252 118.723C108.227 111.879 107.733 91.1953 110.585 90.426V90.4285Z" fill="#080808"/>
<path d="M68.4721 82.9541C68.4142 82.4169 67.9325 82.0298 67.3979 82.0878C64.2381 82.4295 60.979 82.5065 57.7072 82.5065C55.2745 82.5065 52.833 82.4648 50.4191 82.4623H50.3298C45.8518 82.4623 41.4342 82.8142 37.0366 83.021C36.4995 83.0462 36.0832 83.504 36.1096 84.0437C36.1347 84.5822 36.5914 84.9983 37.1285 84.9731C41.5662 84.7638 45.9537 84.4157 50.3298 84.417H50.4065C52.8028 84.4195 55.2493 84.4611 57.7085 84.4611C61.0104 84.4611 64.3387 84.3854 67.6092 84.0311C68.1438 83.9731 68.5312 83.4914 68.4733 82.9554L68.4721 82.9541Z" fill="#080808"/>
<path d="M58.6483 63.6799C60.5137 64.057 62.3741 64.347 64.1364 64.7821C64.5263 64.8767 65.0005 65.0583 65.5326 65.2298C66.0647 65.3988 66.6622 65.564 67.3351 65.5665C67.5163 65.5665 67.7012 65.5539 67.8873 65.5261C68.4194 65.4454 68.7855 64.9486 68.7062 64.4139C68.6257 63.8804 68.1289 63.5135 67.5968 63.5942C67.5112 63.6068 67.4257 63.6131 67.3351 63.6131C67.0005 63.6156 66.5892 63.5198 66.1276 63.3697C65.6647 63.2222 65.1603 63.0254 64.603 62.8855C62.7276 62.4226 60.8408 62.1313 59.0345 61.7644C54.1313 60.7732 49.2369 59.473 44.2318 58.5537C36.2997 57.1022 28.4455 54.1891 20.1096 53.4275C19.5738 53.3783 19.0996 53.7755 19.0518 54.3127C19.004 54.8499 19.3989 55.3254 19.9348 55.3733C27.9286 56.0896 35.7274 58.9698 43.8809 60.4756C48.7853 61.376 53.6696 62.6711 58.6483 63.6799Z" fill="#080808"/>
<path d="M37.037 26.8368C42.0735 30.799 47.4937 33.6314 52.8837 36.7778C53.3491 37.0489 53.9453 36.8913 54.2158 36.4247C54.4875 35.9581 54.329 35.3603 53.8648 35.0892C48.4195 31.9151 43.0924 29.1206 38.2408 25.2995C37.8169 24.9666 37.2056 25.041 36.8722 25.4647C36.5402 25.8885 36.6144 26.5026 37.037 26.8368Z" fill="#080808"/>
<path d="M59.955 2.78828C62.8393 8.74556 65.1953 14.8403 68.6897 20.7093C71.9224 26.1306 74.8054 31.9908 78.3036 37.3806C78.5966 37.8333 79.2004 37.9607 79.652 37.6656C80.1036 37.3718 80.2306 36.7665 79.9363 36.315C76.5212 31.0589 73.6457 25.2214 70.3626 19.7068C66.9727 14.0244 64.6343 7.99018 61.7085 1.9358C61.4732 1.45029 60.8909 1.24726 60.4066 1.48308C59.9223 1.7189 59.7198 2.30277 59.955 2.78828Z" fill="#080808"/>
<path d="M93.3391 19.5919C93.8699 19.5024 94.2271 18.9979 94.1391 18.4658C93.9165 17.1442 93.8246 15.8667 93.8246 14.588C93.8246 12.8162 94.002 11.0368 94.2548 9.14521C94.6246 6.32169 94.4058 3.63183 94.8636 1.15131C94.9605 0.620404 94.6083 0.112195 94.08 0.0150924C93.5504 -0.0820097 93.0435 0.271089 92.9466 0.800737C92.4435 3.623 92.6724 6.34312 92.324 8.88544C92.0661 10.8174 91.8774 12.685 91.8774 14.588C91.8774 15.96 91.9756 17.351 92.2183 18.7899C92.3076 19.322 92.8108 19.6802 93.3416 19.5919H93.3391Z" fill="#080808"/>
<path d="M109.767 38.5218C110.303 38.5748 110.779 38.1838 110.834 37.6466C111.313 32.8029 112.972 28.0159 114.334 23.1595C115.459 19.1291 115.966 15.1 116.915 11.2197C117.042 10.6951 116.723 10.1667 116.201 10.0381C115.678 9.90947 115.151 10.231 115.022 10.7544C114.041 14.781 113.535 18.7861 112.457 22.6311C111.123 27.4106 109.411 32.2984 108.895 37.4524C108.841 37.9896 109.232 38.4676 109.768 38.5218H109.767Z" fill="#080808"/>
<path d="M89.0838 118.911C88.9354 116.828 88.8649 114.781 88.8649 112.725C88.8649 111.453 88.8926 110.179 88.9455 108.89C88.9983 107.526 89.2385 106.024 89.2423 104.467C89.2423 104.136 89.231 103.803 89.2033 103.469C89.1593 102.932 88.6888 102.532 88.1517 102.576C87.6159 102.62 87.2159 103.092 87.2599 103.629C87.2825 103.902 87.2926 104.182 87.2926 104.467C87.2951 105.816 87.0637 107.291 86.9983 108.811C86.9442 110.125 86.9165 111.428 86.9165 112.727C86.9165 114.828 86.9895 116.922 87.1404 119.051C87.3844 122.478 87.3329 125.957 87.4624 129.474C87.5127 130.837 87.5945 132.102 87.5945 133.348C87.5945 134.253 87.5517 135.148 87.4272 136.075C87.3555 136.609 87.7291 137.102 88.2624 137.174C88.7958 137.246 89.2863 136.871 89.358 136.336C89.4977 135.301 89.5429 134.312 89.5429 133.348C89.5429 132.016 89.4574 130.728 89.4083 129.4C89.28 125.95 89.3329 122.451 89.0826 118.911H89.0838Z" fill="#080808"/>
<path d="M117.145 136.479C114.643 132.375 113.183 127.651 111.632 122.948C111.462 122.436 110.911 122.157 110.401 122.327C109.89 122.497 109.612 123.05 109.782 123.562C111.328 128.236 112.815 133.112 115.481 137.495C115.762 137.956 116.36 138.102 116.82 137.821C117.279 137.539 117.425 136.939 117.144 136.479H117.145Z" fill="#080808"/>
<path d="M140.955 122.893C133.802 114.493 127.366 105.54 120.471 96.8384C120.137 96.416 119.523 96.3454 119.103 96.6808C118.68 97.0163 118.611 97.6304 118.946 98.0529C125.802 106.706 132.253 115.679 139.473 124.161C139.821 124.571 140.436 124.62 140.846 124.27C141.255 123.92 141.304 123.303 140.955 122.892V122.893Z" fill="#080808"/>
<path d="M161.07 108.965C156.389 105.271 151.904 101.415 147.356 97.5182C144.589 95.1474 141.81 92.7993 139.072 90.4159C136.787 88.4347 134.305 86.7651 132.373 84.7436C132.001 84.3539 131.383 84.3426 130.996 84.7171C130.609 85.0904 130.596 85.7096 130.97 86.098C133.105 88.32 135.641 90.0123 137.795 91.8926C140.547 94.2886 143.329 96.6392 146.09 99.005C150.638 102.899 155.141 106.774 159.867 110.502C160.289 110.835 160.902 110.762 161.235 110.338C161.567 109.914 161.494 109.3 161.072 108.966L161.07 108.965Z" fill="#080808"/>
<path d="M164.972 71.2779C164.869 70.7482 164.357 70.4027 163.829 70.5061C161.814 70.9046 159.695 70.8579 157.43 71.1656C154.655 71.5503 151.956 72.0585 149.251 72.3094C146.792 72.5389 144.196 72.5591 141.573 72.7003C138.952 72.8441 136.301 73.1102 133.734 73.8694C133.217 74.0219 132.923 74.5655 133.076 75.0825C133.229 75.5995 133.771 75.8959 134.286 75.742C136.618 75.0497 139.118 74.7887 141.679 74.65C144.24 74.51 146.859 74.4923 149.431 74.2527C152.256 73.9879 154.985 73.4721 157.695 73.0988C159.756 72.8088 161.913 72.8643 164.201 72.4204C164.729 72.317 165.074 71.8037 164.971 71.2753L164.972 71.2779Z" fill="#080808"/>
<path d="M127.278 59.6661C127.57 59.6787 127.86 59.685 128.152 59.685C133.392 59.68 138.185 57.6724 142.698 55.7215C147.047 53.8349 150.82 52.2536 155.372 51.3973C155.901 51.2977 156.249 50.7869 156.151 50.2573C156.052 49.7264 155.542 49.3771 155.014 49.4767C150.22 50.3796 146.281 52.0392 141.926 53.927C137.431 55.8791 132.88 57.7354 128.153 57.7304C127.89 57.7304 127.626 57.7241 127.362 57.7127C126.824 57.69 126.37 58.1074 126.347 58.6472C126.324 59.1856 126.742 59.6421 127.279 59.6648L127.278 59.6661Z" fill="#080808"/>
<path d="M115.183 85.0868C113.476 82.7273 111.957 80.238 110.252 77.876C109.383 76.6729 106.647 74.4446 108.133 72.8948C109.342 71.6337 115.9 70.3272 117.232 69.8619C118.142 69.5441 119.89 69.2629 120.564 68.5214C120.367 68.7396 116.859 67.4306 116.47 67.3549C115.426 67.1531 113.127 67.1027 111.075 66.7181C103.983 68.6362 87.4787 70.3285 88.7202 69.6627C95.3819 66.0837 101.714 61.4594 108.718 58.5136C109.392 57.0671 110.188 55.6699 110.912 54.3394C111.163 53.8766 104.579 57.4114 103.432 58.2071C102.811 58.6372 101.22 60.3799 100.374 60.076C98.4775 59.3938 97.0095 54.6938 96.4536 52.9258C95.9693 51.3873 95.8045 49.7353 94.8548 48.3796C94.451 50.4276 93.7466 52.4668 93.407 54.5475C93.1919 55.8666 92.973 57.1705 92.7416 58.4883C92.6095 59.2425 92.7303 60.2803 92.2963 60.9449C91.7038 61.8516 85.0724 58.9058 82.8962 57.5791C81.7969 56.9082 80.6132 56.5211 79.4887 55.975C79.6421 56.5715 80.344 57.371 80.7113 57.8881C81.5314 59.0495 84.9931 63.8668 85.7969 65.1733C86.3856 66.1304 87.7428 67.8719 86.534 68.7471C85.2749 69.6601 83.2736 70.1204 81.7717 70.4029C80.4585 70.6488 79.0182 71.0839 77.832 71.698C76.8383 72.2138 75.5729 72.8065 74.4937 73.2958C78.1968 74.6527 82.3164 74.6502 86.1139 75.7662C86.7868 75.9629 88.3026 76.316 88.2774 77.1521C88.2434 78.2291 84.4434 86.3907 83.6912 87.7514C83.2271 88.5887 82.4962 89.2962 82.3214 90.2559C84.2736 89.8599 86.3566 87.8308 87.9617 86.7085C89.9516 85.3175 94.1869 79.2594 96.5907 82.6277C97.8926 84.4537 98.4297 86.7463 99.2586 88.8044C100.12 90.9482 100.627 93.4287 101.992 95.3279C102.484 91.87 103.562 88.479 103.361 84.9468C103.308 84.0111 102.235 81.4221 103.676 81.0337C104.514 80.8067 105.379 81.0438 106.201 81.4133C106.866 81.7134 111.493 83.7399 113.201 84.4575C113.832 84.7223 114.549 85.0615 115.186 85.0842L115.183 85.0868Z" fill="#080808"/>
<path d="M96.5449 67.8681C100.233 67.0207 103.911 66.1228 107.574 65.1682C107.288 64.8126 107.139 64.3876 107.17 63.8794C107.218 63.1278 107.353 62.385 107.548 61.6523C103.76 63.4431 100.151 65.6739 96.5462 67.8694L96.5449 67.8681Z" fill="#080808"/>
<path d="M67.3299 86.2292C65.4355 86.5331 63.7235 87.3074 62.1349 87.7576C58.8971 88.6883 55.7134 89.4247 52.3889 89.9872C48.8983 90.5786 45.5184 91.4563 42.1435 92.1461C39.9045 92.6039 37.7422 92.928 35.434 93.8309C34.9334 94.0276 34.6843 94.5938 34.8806 95.097C35.0768 95.5989 35.6416 95.8486 36.1435 95.6519C38.2039 94.8423 40.2278 94.5283 42.5335 94.0604C45.9737 93.3567 49.3322 92.4853 52.7134 91.9141C56.1122 91.339 59.3713 90.5837 62.672 89.6353C64.4355 89.1221 66.0858 88.3944 67.6318 88.1574C68.1626 88.0741 68.5261 87.5747 68.4431 87.0413C68.3588 86.5079 67.8607 86.1447 67.3299 86.2279V86.2292Z" fill="#080808"/>
<path d="M39.6743 70.4645C44.9963 71.0585 50.3385 71.5717 55.5121 72.6436C56.0392 72.7534 56.5549 72.4129 56.6644 71.8845C56.7738 71.3561 56.4342 70.8391 55.9071 70.7293C50.5939 69.6297 45.1926 69.1139 39.8907 68.5212C36.2063 68.1139 32.0805 67.8831 28.7409 66.7961C28.2289 66.6296 27.6792 66.9121 27.5145 67.4253C27.3484 67.9386 27.6302 68.4897 28.1421 68.6549C31.8352 69.8453 36.0692 70.0559 39.6756 70.4633L39.6743 70.4645Z" fill="#080808"/>
<path d="M35.4066 42.1374C45.3324 47.1691 55.5526 51.3356 65.5577 55.9726C66.0458 56.1996 66.6244 55.9864 66.8508 55.4959C67.0772 55.0066 66.8634 54.4265 66.3754 54.1995C56.3136 49.5374 46.1161 45.3784 36.2846 40.3934C35.8041 40.15 35.2179 40.3429 34.9751 40.8246C34.7324 41.3064 34.9248 41.894 35.4053 42.1374H35.4066Z" fill="#080808"/>
<path d="M75.6421 41.0869C75.9138 40.6203 75.7553 40.0225 75.2911 39.7514C72.8748 38.3453 70.6722 36.3226 68.2106 34.5646C65.2546 32.4587 62.3238 30.306 59.3728 28.1698C54.5224 24.6564 49.7249 21.1999 45.0406 17.51C44.6167 17.1771 44.0054 17.2515 43.672 17.6752C43.34 18.0989 43.4129 18.713 43.8356 19.0472C48.5626 22.7712 53.3828 26.2441 58.2319 29.7549C61.1766 31.8861 64.1112 34.0413 67.0823 36.1586C69.4131 37.8132 71.6509 39.8838 74.31 41.44C74.7754 41.7111 75.3716 41.5535 75.6421 41.0881V41.0869Z" fill="#080808"/>
<path d="M81.4305 20.6575C82.1362 25.4256 83.5941 30.1849 83.5853 34.75C83.5853 35.0879 83.5777 35.4259 83.5614 35.7651C83.5362 36.3036 83.95 36.7614 84.4884 36.7878C85.0255 36.8131 85.4821 36.3982 85.5085 35.8584C85.5262 35.489 85.535 35.1182 85.535 34.75C85.5274 29.7814 84.0192 24.9389 83.3589 20.3738C82.9639 17.6789 82.8205 14.931 82.5375 12.1365C82.3022 9.85651 81.7551 7.80349 81.6658 5.74669C81.6406 5.20822 81.1853 4.79081 80.6481 4.81603C80.111 4.84125 79.6947 5.29775 79.7198 5.83623C79.8305 8.1692 80.3941 10.2601 80.5991 12.3345C80.8758 15.0647 81.0192 17.8428 81.4305 20.6575Z" fill="#080808"/>
<path d="M102.007 39.4625C102.524 39.3124 102.821 38.7702 102.672 38.2531C102.111 36.3123 101.895 34.3312 101.895 32.3173C101.895 29.3084 102.383 26.2314 102.906 23.1733C103.589 19.1719 104.186 15.5073 104.186 11.4807C104.186 10.7896 104.168 10.0885 104.132 9.37344C104.103 8.8337 103.645 8.42133 103.108 8.44908C102.57 8.47682 102.158 8.93711 102.186 9.47558C102.222 10.1553 102.237 10.8224 102.237 11.4794C102.237 15.3093 101.67 18.8478 100.986 22.8429C100.46 25.9161 99.9466 29.0978 99.9453 32.3173C99.9453 34.4712 100.177 36.644 100.801 38.7979C100.95 39.3162 101.49 39.6138 102.007 39.4637V39.4625Z" fill="#080808"/>
<path d="M99.4608 132.224C98.618 127.867 97.9136 123.453 96.8456 119.065C95.5022 113.548 93.9186 107.936 93.2003 102.425C93.1299 101.89 92.6406 101.513 92.1072 101.584C91.5739 101.655 91.1978 102.145 91.2682 102.68C92.0154 108.384 93.6242 114.058 94.9538 119.529C95.9966 123.815 96.6985 128.197 97.5475 132.596C97.6494 133.126 98.1614 133.473 98.6884 133.37C99.2167 133.267 99.5626 132.755 99.4608 132.225V132.224Z" fill="#080808"/>
<path d="M132.139 141.729C129.978 135.385 126.567 129.696 123.628 123.911C120.526 117.814 117.543 111.575 114.677 105.353C114.452 104.864 113.874 104.65 113.384 104.877C112.896 105.102 112.682 105.682 112.909 106.173C115.783 112.41 118.775 118.673 121.892 124.799C124.877 130.662 128.228 136.276 130.296 142.359C130.47 142.87 131.023 143.142 131.533 142.968C132.042 142.794 132.314 142.238 132.14 141.729H132.139Z" fill="#080808"/>
<path d="M155.124 117.428C150.276 113.603 146.312 109.071 141.948 104.517C141.576 104.128 140.958 104.115 140.571 104.489C140.182 104.863 140.171 105.481 140.544 105.87C144.866 110.379 148.889 114.992 153.919 118.963C154.342 119.297 154.954 119.224 155.288 118.8C155.62 118.376 155.547 117.762 155.124 117.428Z" fill="#080808"/>
<path d="M172.233 89.0501C165.674 87.6289 159.273 86.7739 152.965 84.8142C146.845 82.915 140.508 81.4925 134.606 79.4067C134.098 79.2277 133.542 79.495 133.363 80.0032C133.185 80.5127 133.451 81.0701 133.958 81.2491C140.008 83.3841 146.37 84.8091 152.387 86.6806C158.899 88.6995 165.363 89.5571 171.819 90.9594C172.345 91.0729 172.863 90.7387 172.977 90.2115C173.09 89.6844 172.757 89.1649 172.231 89.0501H172.233Z" fill="#080808"/>
<path d="M147.652 62.4026C147.691 62.941 148.158 63.3459 148.694 63.3068C152.162 63.0596 155.152 62.0835 158.269 60.8653C160.65 59.9271 163.341 59.5072 165.958 58.352C166.45 58.1339 166.671 57.5563 166.454 57.0632C166.236 56.5701 165.66 56.3469 165.168 56.5664C162.87 57.5979 160.211 58.0191 157.562 59.0444C154.503 60.2398 151.735 61.1302 148.556 61.3571C148.018 61.395 147.615 61.8628 147.652 62.4013V62.4026Z" fill="#080808"/>
<path d="M126.67 51.463C131.544 49.7429 135.879 46.9206 140.196 44.4943C143.67 42.5359 147.431 41.0983 151.103 39.1928C151.581 38.9444 151.767 38.3555 151.519 37.8763C151.272 37.3971 150.684 37.2104 150.206 37.4588C146.669 39.3 142.884 40.7439 139.242 42.7919C134.856 45.2648 130.608 48.0114 126.025 49.6218C125.517 49.8009 125.25 50.3583 125.429 50.8678C125.607 51.3772 126.163 51.6446 126.671 51.4655L126.67 51.463Z" fill="#080808"/>
</g>
<defs>
<clipPath id="clip0_214_279">
<rect width="173" height="195" fill="white"/>
</clipPath>
</defs>
</svg>
