<svg width="74" height="51" viewBox="0 0 74 51" fill="none" xmlns="http://www.w3.org/2000/svg">
<path d="M49.5722 22.6162V12.7962C49.5722 12.5577 49.4756 12.3416 49.3188 12.1853C49.1624 12.0289 48.9462 11.9319 48.7076 11.9319C48.2297 11.9319 47.8429 12.3186 47.8429 12.7962V22.6162C48.1183 22.5406 48.4081 22.5002 48.7076 22.5002C49.007 22.5002 49.2968 22.5406 49.5722 22.6162Z" fill="#0D0D0F"/>
<path d="M58.3937 22.4578C58.3937 22.3644 58.3778 22.2699 58.3441 22.1769C58.1888 21.7468 57.714 21.524 57.2837 21.6788L51.3527 23.8565C51.6726 24.3015 51.8831 24.8302 51.9444 25.4034L57.8459 23.2369C58.1831 23.1153 58.3932 22.797 58.3932 22.4578H58.3937Z" fill="#0D0D0F"/>
<path d="M48.7076 9.05586C49.0453 9.05586 49.3198 8.78154 49.3198 8.44387V6.61199C49.3198 6.27432 49.0453 6 48.7076 6C48.3698 6 48.0953 6.27432 48.0953 6.61199V8.44387C48.0953 8.78154 48.3698 9.05586 48.7076 9.05586Z" fill="#0D0D0F"/>
<path d="M39.4348 9.03245C39.3428 8.87307 39.1379 8.81841 38.9784 8.91036C38.819 9.00231 38.7643 9.20716 38.8563 9.36655L39.3561 10.2319C39.4481 10.3913 39.653 10.446 39.8124 10.354C39.9719 10.2621 40.0266 10.0572 39.9346 9.89782L39.4348 9.03245Z" fill="#0D0D0F"/>
<path d="M33.1782 16.407L32.3125 15.9074C32.1531 15.8155 31.9487 15.8701 31.8562 16.0295C31.7642 16.1889 31.8189 16.3932 31.9783 16.4857L32.844 16.9853C33.0035 17.0773 33.2079 17.0226 33.3004 16.8632C33.3923 16.7038 33.3377 16.4995 33.1782 16.407Z" fill="#0D0D0F"/>
<path d="M32.8445 34.5244L31.9788 35.024C31.8194 35.1159 31.7647 35.3208 31.8567 35.4802C31.9487 35.6395 32.1536 35.6942 32.313 35.6023L33.1787 35.1026C33.3382 35.0107 33.3928 34.8058 33.3009 34.6465C33.2089 34.4871 33.0039 34.4324 32.8445 34.5244Z" fill="#0D0D0F"/>
<path d="M39.8124 41.1562C39.653 41.0643 39.4486 41.1189 39.3561 41.2783L38.8563 42.1437C38.7643 42.3031 38.819 42.5074 38.9784 42.5999C39.1379 42.6918 39.3423 42.6371 39.4348 42.4778L39.9346 41.6124C40.0266 41.453 39.9719 41.2487 39.8124 41.1562Z" fill="#0D0D0F"/>
<path d="M58.0589 41.2783C57.967 41.1189 57.762 41.0643 57.6026 41.1562C57.4431 41.2482 57.3885 41.453 57.4804 41.6124L57.9802 42.4778C58.0722 42.6371 58.2771 42.6918 58.4366 42.5999C58.596 42.5079 58.6507 42.3031 58.5587 42.1437L58.0589 41.2783Z" fill="#0D0D0F"/>
<path d="M65.4362 35.024L64.5705 34.5244C64.411 34.4324 64.2066 34.4871 64.1141 34.6465C64.0221 34.8058 64.0768 35.0102 64.2362 35.1026L65.1019 35.6023C65.2614 35.6942 65.4658 35.6395 65.5583 35.4802C65.6503 35.3208 65.5956 35.1164 65.4362 35.024Z" fill="#0D0D0F"/>
<path d="M64.5705 16.9853L65.4362 16.4857C65.5956 16.3938 65.6503 16.1889 65.5583 16.0295C65.4663 15.8701 65.2614 15.8155 65.1019 15.9074L64.2362 16.407C64.0768 16.499 64.0221 16.7038 64.1141 16.8632C64.2061 17.0226 64.411 17.0773 64.5705 16.9853Z" fill="#0D0D0F"/>
<path d="M58.4366 8.91036C58.2771 8.81841 58.0727 8.87307 57.9802 9.03245L57.4804 9.89782C57.3885 10.0572 57.4431 10.2615 57.6026 10.354C57.762 10.446 57.9664 10.3913 58.0589 10.2319L58.5587 9.36655C58.6507 9.20716 58.596 9.00282 58.4366 8.91036Z" fill="#0D0D0F"/>
<path d="M32.057 25.7651C32.057 25.4274 31.7826 25.1531 31.4448 25.1531H29.6122C29.2744 25.1531 29 25.4274 29 25.7651C29 26.1027 29.2744 26.3771 29.6122 26.3771H31.4448C31.7826 26.3771 32.057 26.1027 32.057 25.7651Z" fill="#0D0D0F"/>
<path d="M48.7729 42.4092C48.4351 42.4092 48.1606 42.6835 48.1606 43.0212V44.8531C48.1606 45.1907 48.4351 45.465 48.7729 45.465C49.1107 45.465 49.3851 45.1907 49.3851 44.8531V43.0212C49.3851 42.6835 49.1107 42.4092 48.7729 42.4092Z" fill="#0D0D0F"/>
<path d="M67.8682 25.0881H66.0357C65.6979 25.0881 65.4235 25.3625 65.4235 25.7001C65.4235 26.0378 65.6979 26.3121 66.0357 26.3121H67.8682C68.206 26.3121 68.4805 26.0378 68.4805 25.7001C68.4805 25.3625 68.206 25.0881 67.8682 25.0881Z" fill="#0D0D0F"/>
<path d="M48.2953 0.0117188H8.24564C6.68034 0.0117188 5.41144 1.28014 5.41144 2.84485C5.41144 4.40957 6.68034 5.67799 8.24564 5.67799H13.3616C14.9269 5.67799 16.1958 6.94641 16.1958 8.51112C16.1958 10.0758 14.9269 11.3443 13.3616 11.3443H7.33957C5.77428 11.3443 4.50538 12.6127 4.50538 14.1779C4.50538 15.7431 5.77428 17.011 7.33957 17.011H11.9583C13.5241 17.011 14.793 18.279 14.793 19.8442C14.793 21.4094 13.5241 22.6773 11.9583 22.6773H2.83737C1.27207 22.6773 0.00317383 23.9457 0.00317383 25.5104C0.00317383 27.0752 1.27207 28.3436 2.83737 28.3436H11.9583C13.5241 28.3436 14.793 29.612 14.793 31.1767C14.793 32.7414 13.5241 34.0098 11.9583 34.0098H5.45079C3.8855 34.0098 2.6166 35.2783 2.6166 36.843C2.6166 38.4077 3.8855 39.6766 5.45079 39.6766H11.9583C13.5241 39.6766 14.793 40.9445 14.793 42.5098C14.793 44.075 13.5241 45.3429 11.9583 45.3429H7.46222C5.89641 45.3429 4.62803 46.6113 4.62803 48.176C4.62803 49.7407 5.89641 51.0092 7.46222 51.0092H48.2948C62.383 51.0092 73.8041 39.5928 73.8041 25.5094C73.8041 11.426 62.383 0.0117188 48.2953 0.0117188ZM48.2953 47.752C36.007 47.752 26.046 37.7947 26.046 25.5115C26.046 13.2282 36.007 3.27141 48.2953 3.27141C60.5837 3.27141 70.5442 13.2288 70.5442 25.512C70.5442 37.7952 60.5831 47.7525 48.2953 47.7525V47.752Z" fill="#0D0D0F"/>
</svg>
